<?xml version="1.0" encoding="UTF-8" standalone="no"?>
<!-- Generator: Gravit.io -->

<svg
   xmlns:dc="http://purl.org/dc/elements/1.1/"
   xmlns:cc="http://creativecommons.org/ns#"
   xmlns:rdf="http://www.w3.org/1999/02/22-rdf-syntax-ns#"
   xmlns:svg="http://www.w3.org/2000/svg"
   xmlns="http://www.w3.org/2000/svg"
   xmlns:xlink="http://www.w3.org/1999/xlink"
   xmlns:sodipodi="http://sodipodi.sourceforge.net/DTD/sodipodi-0.dtd"
   xmlns:inkscape="http://www.inkscape.org/namespaces/inkscape"
   style="isolation:isolate"
   viewBox="0 0 36 36"
   width="48"
   height="48"
   version="1.1"
   id="svg46"
   sodipodi:docname="accessories-character-map.svg"
   inkscape:version="0.92.4 (5da689c313, 2019-01-14)">
  <metadata
     id="metadata52">
    <rdf:RDF>
      <cc:Work
         rdf:about="">
        <dc:format>image/svg+xml</dc:format>
        <dc:type
           rdf:resource="http://purl.org/dc/dcmitype/StillImage" />
        <dc:title />
      </cc:Work>
    </rdf:RDF>
  </metadata>
  <defs
     id="defs50">
    <linearGradient
       id="linearGradient6066"
       inkscape:collect="always">
      <stop
         id="stop6062"
         offset="0"
         style="stop-color:#ffd42a;stop-opacity:1;" />
      <stop
         id="stop6064"
         offset="1"
         style="stop-color:#ff2a7f;stop-opacity:1" />
    </linearGradient>
    <linearGradient
       id="linearGradient6060"
       inkscape:collect="always">
      <stop
         id="stop6056"
         offset="0"
         style="stop-color:#ffd42a;stop-opacity:1;" />
      <stop
         id="stop6058"
         offset="1"
         style="stop-color:#ff2a7f;stop-opacity:1" />
    </linearGradient>
    <linearGradient
       id="linearGradient6054"
       inkscape:collect="always">
      <stop
         id="stop6050"
         offset="0"
         style="stop-color:#ffd42a;stop-opacity:1;" />
      <stop
         id="stop6052"
         offset="1"
         style="stop-color:#ff2a7f;stop-opacity:1" />
    </linearGradient>
    <linearGradient
       id="linearGradient6048"
       inkscape:collect="always">
      <stop
         id="stop6044"
         offset="0"
         style="stop-color:#ffd42a;stop-opacity:1;" />
      <stop
         id="stop6046"
         offset="1"
         style="stop-color:#ff2a7f;stop-opacity:1" />
    </linearGradient>
    <linearGradient
       id="linearGradient6042"
       inkscape:collect="always">
      <stop
         id="stop6038"
         offset="0"
         style="stop-color:#ffd42a;stop-opacity:1;" />
      <stop
         id="stop6040"
         offset="1"
         style="stop-color:#ff2a7f;stop-opacity:1" />
    </linearGradient>
    <linearGradient
       id="linearGradient6036"
       inkscape:collect="always">
      <stop
         id="stop6032"
         offset="0"
         style="stop-color:#ffd42a;stop-opacity:1;" />
      <stop
         id="stop6034"
         offset="1"
         style="stop-color:#ff2a7f;stop-opacity:1" />
    </linearGradient>
    <linearGradient
       inkscape:collect="always"
       id="linearGradient6016">
      <stop
         style="stop-color:#ffd42a;stop-opacity:1;"
         offset="0"
         id="stop6012" />
      <stop
         style="stop-color:#ff2a7f;stop-opacity:1"
         offset="1"
         id="stop6014" />
    </linearGradient>
    <symbol
       id="Nursery">
      <title
         id="title692">Nursery</title>
      <g
         style="stroke:none"
         id="g701">
        <circle
           cx="36"
           cy="15.75"
           r="7.5"
           id="circle694" />
        <path
           d="M 28,39.5 V 34 l -6,6 a 2.475,2.475 0 0 1 -3.5,-3.5 l 10,-10 c 1,-1 1.5,-1.5 3,-1.5 h 9 c 1.5,0 2,0.5 3,1.5 l 10,10 A 2.475,2.475 0 0 1 50,40 l -6,-6 v 5.5 z"
           id="path696"
           inkscape:connector-curvature="0" />
        <path
           id="leg1"
           d="M 34,48.5 29.5,53 34,57.5 A 2.475,2.475 0 0 1 30.5,61 L 23,53.5 a 4.2,4.2 0 0 1 0,-6 l 5,-5 z"
           inkscape:connector-curvature="0" />
        <use
           xlink:href="#leg1"
           transform="matrix(-1,0,0,1,72,0)"
           id="use699"
           x="0"
           y="0"
           width="100%"
           height="100%" />
      </g>
    </symbol>
    <linearGradient
       inkscape:collect="always"
       xlink:href="#linearGradient6016"
       id="linearGradient6018"
       x1="-371"
       y1="-30.999998"
       x2="-44"
       y2="-31"
       gradientUnits="userSpaceOnUse"
       gradientTransform="translate(384,208)" />
    <linearGradient
       inkscape:collect="always"
       xlink:href="#linearGradient6066"
       id="linearGradient6020"
       x1="-371"
       y1="-30.999998"
       x2="-44"
       y2="-31"
       gradientUnits="userSpaceOnUse"
       gradientTransform="translate(384,208)" />
    <linearGradient
       inkscape:collect="always"
       xlink:href="#linearGradient6054"
       id="linearGradient6024"
       x1="-371"
       y1="-30.999998"
       x2="-44"
       y2="-31"
       gradientUnits="userSpaceOnUse" />
    <linearGradient
       inkscape:collect="always"
       xlink:href="#linearGradient6048"
       id="linearGradient6026"
       x1="-371"
       y1="-30.999998"
       x2="-44"
       y2="-31"
       gradientUnits="userSpaceOnUse"
       gradientTransform="translate(384,208)" />
    <linearGradient
       inkscape:collect="always"
       xlink:href="#linearGradient6042"
       id="linearGradient6028"
       x1="-332.74829"
       y1="-34.563663"
       x2="-39.463409"
       y2="-34.563663"
       gradientUnits="userSpaceOnUse"
       gradientTransform="translate(344.40793,231.91104)" />
    <linearGradient
       inkscape:collect="always"
       xlink:href="#linearGradient6036"
       id="linearGradient6030"
       x1="-51.683796"
       y1="72.543839"
       x2="67.39209"
       y2="72.543839"
       gradientUnits="userSpaceOnUse" />
    <linearGradient
       inkscape:collect="always"
       xlink:href="#linearGradient6060"
       id="linearGradient6068"
       gradientUnits="userSpaceOnUse"
       x1="-24.341501"
       y1="-16.319315"
       x2="168.7847"
       y2="-16.319315"
       gradientTransform="matrix(1.6931934,0,0,1.7570747,55.908063,207.43133)" />
    <linearGradient
       inkscape:collect="always"
       xlink:href="#linearGradient6060"
       id="linearGradient6070"
       gradientUnits="userSpaceOnUse"
       x1="-24.341501"
       y1="-16.319315"
       x2="168.7847"
       y2="-16.319315"
       gradientTransform="matrix(1.6931934,0,0,1.7570747,55.908063,207.43133)" />
    <linearGradient
       inkscape:collect="always"
       xlink:href="#linearGradient6060"
       id="linearGradient6072"
       gradientUnits="userSpaceOnUse"
       x1="-24.341501"
       y1="-16.319315"
       x2="168.7847"
       y2="-16.319315"
       gradientTransform="matrix(1.6931934,0,0,1.7570747,55.908063,207.43133)" />
    <linearGradient
       inkscape:collect="always"
       xlink:href="#linearGradient6060"
       id="linearGradient6074"
       gradientUnits="userSpaceOnUse"
       x1="-24.341501"
       y1="-16.319315"
       x2="168.7847"
       y2="-16.319315"
       gradientTransform="matrix(1.6931934,0,0,1.7570747,55.908063,207.43133)" />
    <linearGradient
       inkscape:collect="always"
       xlink:href="#linearGradient6060"
       id="linearGradient6076"
       gradientUnits="userSpaceOnUse"
       x1="-24.341501"
       y1="-16.319315"
       x2="168.7847"
       y2="-16.319315"
       gradientTransform="matrix(1.6931934,0,0,1.7570747,55.908063,207.43133)" />
    <linearGradient
       inkscape:collect="always"
       xlink:href="#linearGradient6060"
       id="linearGradient6078"
       gradientUnits="userSpaceOnUse"
       x1="-24.341501"
       y1="-16.319315"
       x2="168.7847"
       y2="-16.319315"
       gradientTransform="matrix(1.6931934,0,0,1.7570747,55.908063,207.43133)" />
    <linearGradient
       inkscape:collect="always"
       xlink:href="#linearGradient6060"
       id="linearGradient6080"
       gradientUnits="userSpaceOnUse"
       x1="-24.341501"
       y1="-16.319315"
       x2="168.7847"
       y2="-16.319315"
       gradientTransform="matrix(1.6931934,0,0,1.7570747,55.908063,207.43133)" />
    <linearGradient
       inkscape:collect="always"
       xlink:href="#linearGradient6060"
       id="linearGradient6082"
       gradientUnits="userSpaceOnUse"
       x1="-24.341501"
       y1="-16.319315"
       x2="168.7847"
       y2="-16.319315"
       gradientTransform="matrix(1.6931934,0,0,1.7570747,55.908063,207.43133)" />
    <linearGradient
       inkscape:collect="always"
       xlink:href="#linearGradient6060"
       id="linearGradient6084"
       gradientUnits="userSpaceOnUse"
       x1="-24.341501"
       y1="-16.319315"
       x2="168.7847"
       y2="-16.319315"
       gradientTransform="matrix(1.6931934,0,0,1.7570747,55.908063,207.43133)" />
    <linearGradient
       inkscape:collect="always"
       xlink:href="#linearGradient6060"
       id="linearGradient6086"
       gradientUnits="userSpaceOnUse"
       x1="-24.341501"
       y1="-16.319315"
       x2="168.7847"
       y2="-16.319315"
       gradientTransform="matrix(1.6931934,0,0,1.7570747,55.908063,207.43133)" />
    <linearGradient
       inkscape:collect="always"
       xlink:href="#linearGradient6060"
       id="linearGradient6090"
       gradientUnits="userSpaceOnUse"
       x1="-24.341501"
       y1="-16.319315"
       x2="168.7847"
       y2="-16.319315"
       gradientTransform="matrix(1.6931934,0,0,1.7570747,54.21487,205.67426)" />
    <linearGradient
       inkscape:collect="always"
       xlink:href="#linearGradient6054"
       id="linearGradient6092"
       gradientUnits="userSpaceOnUse"
       x1="-371"
       y1="-30.999998"
       x2="-44"
       y2="-31" />
    <linearGradient
       inkscape:collect="always"
       xlink:href="#linearGradient6054"
       id="linearGradient6094"
       gradientUnits="userSpaceOnUse"
       x1="-371"
       y1="-30.999998"
       x2="-44"
       y2="-31" />
    <linearGradient
       inkscape:collect="always"
       xlink:href="#linearGradient6054"
       id="linearGradient6096"
       gradientUnits="userSpaceOnUse"
       x1="-371"
       y1="-30.999998"
       x2="-44"
       y2="-31" />
  </defs>
  <sodipodi:namedview
     pagecolor="#ffffff"
     bordercolor="#666666"
     borderopacity="1"
     objecttolerance="10"
     gridtolerance="10"
     guidetolerance="10"
     inkscape:pageopacity="0"
     inkscape:pageshadow="2"
     inkscape:window-width="1920"
     inkscape:window-height="1023"
     id="namedview48"
     showgrid="false"
     inkscape:zoom="0.25795634"
     inkscape:cx="-795.93028"
     inkscape:cy="-914.94016"
     inkscape:window-x="0"
     inkscape:window-y="25"
     inkscape:window-maximized="1"
     inkscape:current-layer="svg46"
     showborder="false"
     fit-margin-top="0"
     fit-margin-left="0"
     fit-margin-right="0"
     fit-margin-bottom="0" />
  <linearGradient
     id="_lgradient_0"
     x1="-0.014458464"
     y1="0.009839246"
     x2="1.0164566"
     y2="1.072293"
     gradientTransform="matrix(360,0,0,360,-384,-208)"
     gradientUnits="userSpaceOnUse">
    <stop
       offset="0%"
       stop-opacity="1"
       style="stop-color:rgb(249,212,35)"
       id="stop2" />
    <stop
       offset="51.56237565086822%"
       stop-opacity="1"
       style="stop-color:rgb(255,78,80)"
       id="stop4" />
    <stop
       offset="99.1304347826087%"
       stop-opacity="1"
       style="stop-color:rgb(138,35,135)"
       id="stop6" />
  </linearGradient>
  <linearGradient
     id="_lgradient_1"
     x1="0"
     y1="0.5"
     x2="0.90748805"
     y2="0.92007786"
     gradientTransform="matrix(99.18,0,0,99.278182,-326.12182,-146.12909)"
     gradientUnits="userSpaceOnUse">
    <stop
       offset="0%"
       stop-opacity="1"
       style="stop-color:rgb(0,255,216)"
       id="stop11" />
    <stop
       offset="83.88839793817618%"
       stop-opacity="1"
       style="stop-color:rgb(0,255,184)"
       id="stop13" />
  </linearGradient>
  <linearGradient
     id="_lgradient_2"
     x1="0"
     y1="0.5"
     x2="0.90748805"
     y2="0.92007786"
     gradientTransform="matrix(94.540909,0,0,24.970909,-325.84364,48.189088)"
     gradientUnits="userSpaceOnUse">
    <stop
       offset="0%"
       stop-opacity="1"
       style="stop-color:rgb(0,255,216)"
       id="stop18" />
    <stop
       offset="83.88839793817618%"
       stop-opacity="1"
       style="stop-color:rgb(0,255,184)"
       id="stop20" />
  </linearGradient>
  <linearGradient
     id="_lgradient_3"
     x1="0"
     y1="0.5"
     x2="1"
     y2="0.5"
     gradientTransform="matrix(94.540909,0,0,24.970909,-178.57091,48.189088)"
     gradientUnits="userSpaceOnUse">
    <stop
       offset="0%"
       stop-opacity="1"
       style="stop-color:rgb(241,39,17)"
       id="stop25" />
    <stop
       offset="99.1304347826087%"
       stop-opacity="1"
       style="stop-color:rgb(245,175,25)"
       id="stop27" />
  </linearGradient>
  <linearGradient
     id="_lgradient_4"
     x1="0"
     y1="0.5"
     x2="1"
     y2="0.5"
     gradientTransform="matrix(94.540909,0,0,24.970909,-178.57091,15.461815)"
     gradientUnits="userSpaceOnUse">
    <stop
       offset="0%"
       stop-opacity="1"
       style="stop-color:rgb(241,39,17)"
       id="stop32" />
    <stop
       offset="99.1304347826087%"
       stop-opacity="1"
       style="stop-color:rgb(245,175,25)"
       id="stop34" />
  </linearGradient>
  <linearGradient
     id="_lgradient_5"
     x1="-3.8208334e-05"
     y1="0.50000006"
     x2="0.99996185"
     y2="0.50000006"
     gradientTransform="matrix(78.709091,0,0,82.472727,-167.01818,-140.41819)"
     gradientUnits="userSpaceOnUse">
    <stop
       offset="0%"
       stop-opacity="1"
       style="stop-color:rgb(211,0,220)"
       id="stop39" />
    <stop
       offset="100%"
       stop-opacity="1"
       style="stop-color:rgb(135,0,255)"
       id="stop41" />
  </linearGradient>
  <g
     id="g948"
     transform="scale(0.1)">
    <path
       inkscape:connector-curvature="0"
       style="fill:url(#linearGradient6018);fill-opacity:1;fill-rule:evenodd;stroke-width:8.18181801"
       id="path9"
       d="m 32.72727,133.85455 v 0 c 0,9.03272 -7.33091,16.36363 -16.36363,16.36363 v 0 C 7.33091,150.21818 0,142.88727 0,133.85455 v 0 -92.94546 C 0,18.32727 18.32727,0 40.90909,0 h 92.94546 v 0 c 9.03272,0 16.36363,7.33091 16.36363,16.36364 v 0 c 0,9.03272 -7.33091,16.36363 -16.36363,16.36363 v 0 H 57.27273 c -13.54909,0 -24.54546,10.99637 -24.54546,24.54546 z M 226.14545,32.72727 v 0 c -9.03272,0 -16.36363,-7.33091 -16.36363,-16.36363 v 0 C 209.78182,7.33091 217.11273,0 226.14545,0 v 0 h 92.94546 C 341.67273,0 360,18.32727 360,40.90909 v 92.94546 0 c 0,9.03272 -7.33091,16.36363 -16.36364,16.36363 v 0 c -9.03272,0 -16.36363,-7.33091 -16.36363,-16.36363 v 0 -76.58182 c 0,-13.54909 -10.99637,-24.54546 -24.54546,-24.54546 z m 101.12728,193.41818 v 0 c 0,-9.03272 7.33091,-16.36363 16.36363,-16.36363 v 0 c 9.03273,0 16.36364,7.33091 16.36364,16.36363 v 0 92.94546 C 360,341.67273 341.67273,360 319.09091,360 h -90 v 0 c -9.03273,0 -16.36364,-7.33091 -16.36364,-16.36364 v 0 c 0,-9.03272 7.33091,-16.36363 16.36364,-16.36363 v 0 h 73.63636 c 13.54909,0 24.54546,-10.99637 24.54546,-24.54546 z M 133.85455,327.27273 v 0 c 9.03272,0 16.36363,7.33091 16.36363,16.36363 v 0 c 0,9.03273 -7.33091,16.36364 -16.36363,16.36364 v 0 H 40.90909 C 18.32727,360 0,341.67273 0,319.09091 v -92.94546 0 c 0,-9.03272 7.33091,-16.36363 16.36364,-16.36363 v 0 c 9.03272,0 16.36363,7.33091 16.36363,16.36363 v 0 76.58182 c 0,13.54909 10.99637,24.54546 24.54546,24.54546 z" />
    <path
       style="fill:url(#linearGradient6020);fill-opacity:1;stroke-width:0.28884983"
       id="path2"
       d="m 146.83122,118.57838 c 4.48674,-5.20045 7.46309,-11.77796 8.04059,-18.28624 0.36649,-4.17728 -0.9773,-8.56228 -3.88703,-12.68573 -4.56447,-6.4775 -12.40514,-10.11629 -19.97929,-13.63198 -5.65285,-2.62331 -10.99472,-5.10044 -14.7707,-8.63922 l -0.67744,-0.63083 c -2.23227,-2.0771 -4.75328,-4.43116 -5.15308,-6.40826 -0.39981,-2.00017 -3.02078,-3.42337 -5.88608,-3.30798 -2.90971,0.13847 -5.16419,1.80785 -5.16419,3.8311 v 68.54453 c -4.6533,-1.95402 -10.3839,-3.15412 -16.65865,-3.15412 -15.30377,0 -27.76446,6.90061 -27.76446,15.38598 0,8.48536 12.46069,15.38597 27.76446,15.38597 15.30376,0 27.76445,-6.90061 27.76445,-15.38597 V 94.76088 c 8.34045,2.20789 21.98944,7.83147 25.74318,20.9634 -0.69966,0.71545 -1.36599,1.48475 -2.1434,2.10019 -2.03237,1.59245 -1.81024,4.02343 0.49975,5.42356 2.2878,1.4155 5.79723,1.24626 7.82958,-0.34619 1.48817,-1.16933 2.80977,-2.53869 4.07583,-3.96958 0.13323,-0.1077 0.25578,-0.2231 0.36648,-0.35388 z"
       inkscape:connector-curvature="0" />
    <path
       d="m 130.8996,234.96469 c -6.08554,2.31469 -11.53655,6.13204 -15.88216,11.12228 3.23072,-5.84236 5.02746,-12.4195 5.23197,-19.15211 0,-14.0566 -15.23874,-19.32782 -15.23874,-19.32782 0,0 -15.238739,5.27122 -15.238739,19.32782 0.204514,6.73261 2.001253,13.30975 5.231968,19.15211 -4.353182,-4.96467 -9.803553,-8.75745 -15.882154,-11.052 -12.885202,-4.41025 -22.417881,8.99623 -22.417881,8.99623 0,0 0.118523,16.67463 13.003725,21.08489 6.229208,1.86694 12.804533,2.12033 19.150018,0.73797 -5.925994,2.75166 -11.107459,6.97598 -15.086354,12.29953 -7.958009,11.36827 1.388419,24.93289 1.388419,24.93289 0,0 15.238741,5.02523 23.264477,-6.34304 3.671001,-5.62543 5.934591,-12.11081 6.586521,-18.87099 0.67108,6.7176 2.93386,13.15841 6.58652,18.74799 7.95801,11.36828 23.26448,6.34304 23.26448,6.34304 0,0 9.34643,-13.56462 1.38842,-24.93289 -3.97006,-5.31115 -9.13196,-9.53374 -15.03556,-12.29952 6.32841,1.38294 12.88745,1.12951 19.09922,-0.73797 12.88521,-4.33998 13.00373,-21.0849 13.00373,-21.0849 0,0 -9.53268,-13.28348 -22.41788,-8.94351 z"
       id="Shape"
       inkscape:connector-curvature="0"
       style="fill:url(#linearGradient6068);fill-opacity:1;stroke-width:1.72483838" />
    <path
       d="m 120.24941,226.93486 c 0,11.01686 -6.16322,22.49056 -12.96986,30.78395 -1.08914,-1.02257 -2.68933,-1.19998 -3.96207,-0.43927 -2.39209,-4.0182 -5.178095,-7.769 -8.313581,-11.19257 -3.230715,-5.84236 -5.027454,-12.4195 -5.231968,-19.15211 0,-10.41945 8.364375,-15.98938 12.698949,-18.20329 0.82412,-0.42731 1.67225,-0.80283 2.53979,-1.12453 0,0 15.23874,5.27122 15.23874,19.32782 z"
       id="path3"
       inkscape:connector-curvature="0"
       style="fill:url(#linearGradient6070);fill-opacity:1;stroke-width:1.72483838" />
    <path
       d="m 115.16983,226.93486 c 0,10.68301 -5.65526,21.41874 -12.17406,29.87027 -2.31375,-3.8397 -4.990971,-7.43021 -7.991871,-10.71816 0.287842,0 -5.231968,-8.45153 -5.231968,-19.15211 0,-10.41945 8.364375,-15.98938 12.698949,-18.20329 4.33458,2.21391 12.69895,7.78384 12.69895,18.20329 z"
       id="path5"
       inkscape:connector-curvature="0"
       style="fill:url(#linearGradient6072);fill-opacity:1;stroke-width:1.72483838" />
    <path
       d="m 101.62428,261.05725 c -4.414012,1.10003 -8.704418,2.67835 -12.800537,4.70896 -6.356733,1.37258 -12.939377,1.12539 -19.183882,-0.7204 -12.885201,-4.33998 -13.003725,-21.0849 -13.003725,-21.0849 0,0 9.600407,-13.33619 22.485609,-8.99622 10.15916,3.40873 18.625127,12.96721 24.195735,22.31485 -1.30044,0.73884 -1.98654,2.26961 -1.6932,3.77771 z"
       id="path7"
       inkscape:connector-curvature="0"
       style="fill:url(#linearGradient6074);fill-opacity:1;stroke-width:1.72483838" />
    <path
       d="m 105.01067,277.87245 c -0.67108,6.7176 -2.93386,13.15841 -6.586521,18.74799 -7.958009,11.36828 -23.264477,6.34304 -23.264477,6.34304 0,0 -9.346428,-13.56462 -1.388419,-24.93289 6.197088,-8.85566 17.693871,-14.37287 27.853027,-16.97334 0.30565,1.48286 1.49342,2.59502 2.94616,2.75861 -0.32159,4.68873 -0.17406,9.39943 0.44023,14.05659 z"
       id="path9-3"
       inkscape:connector-curvature="0"
       style="fill:url(#linearGradient6076);fill-opacity:1;stroke-width:1.72483838" />
    <path
       d="m 134.86167,302.96348 c -3.33462,0.97 -6.8113,1.3034 -10.26075,0.98396 -5.16239,-0.33756 -9.91936,-3.01789 -13.00373,-7.327 -6.26481,-8.94351 -7.73789,-21.94586 -6.94209,-32.80458 1.43944,0.12932 2.7994,-0.70334 3.38639,-2.07335 4.20879,1.80124 8.58264,3.15524 13.05452,4.04127 5.89961,2.7968 11.07144,7.01326 15.08635,12.29952 8.02574,11.31556 -1.32069,24.88018 -1.32069,24.88018 z"
       id="path11"
       inkscape:connector-curvature="0"
       style="fill:url(#linearGradient6078);fill-opacity:1;stroke-width:1.72483838" />
    <path
       d="m 129.78209,302.96348 c -1.69334,0.49658 -3.42811,0.82603 -5.18117,0.98396 -5.16239,-0.33756 -9.91936,-3.01789 -13.00373,-7.327 -6.26481,-8.94351 -7.73789,-21.94586 -6.94209,-32.80458 0.77979,0.0847 1.56374,-0.11404 2.21808,-0.56227 3.00864,1.06895 6.08673,1.91447 9.21098,2.53019 5.89961,2.7968 11.07144,7.01326 15.08635,12.29952 7.95801,11.31556 -1.38842,24.88018 -1.38842,24.88018 z"
       id="path13"
       inkscape:connector-curvature="0"
       style="fill:url(#linearGradient6080);fill-opacity:1;stroke-width:1.72483838" />
    <path
       d="m 153.31748,244.0312 c 0,0 -0.11852,16.67463 -13.00373,21.08489 -10.04063,3.40873 -22.36708,0.91368 -32.17067,-3.3033 0.58815,-1.3866 0.25377,-3.00827 -0.82967,-4.0237 2.94874,-3.61558 5.5304,-7.53702 7.70403,-11.70212 4.85947,-5.27122 11.85236,-10.54244 18.52354,-11.70211 11.53065,-1.95036 19.7765,9.64634 19.7765,9.64634 z"
       id="path15"
       inkscape:connector-curvature="0"
       style="fill:url(#linearGradient6082);fill-opacity:1;stroke-width:1.72483838" />
    <path
       d="m 148.2379,244.0312 c 0,0 -0.11852,16.67463 -13.00373,21.08489 -2.56377,0.84775 -5.22061,1.35548 -7.90721,1.51109 -6.61607,-0.5064 -13.10773,-2.13268 -19.21774,-4.81439 0.58815,-1.3866 0.25377,-3.00827 -0.82967,-4.0237 2.96052,-3.61396 5.55356,-7.53545 7.73789,-11.70212 4.85947,-5.27122 11.85236,-10.54244 18.52354,-11.70211 8.71995,1.35294 14.69692,9.64634 14.69692,9.64634 z"
       id="path17"
       inkscape:connector-curvature="0"
       style="fill:url(#linearGradient6084);fill-opacity:1;stroke-width:1.72483838" />
    <path
       d="m 108.39706,260.31928 c -0.0204,1.78089 -1.32145,3.26434 -3.0281,3.45265 -1.70664,0.18831 -3.27919,-0.97806 -3.66002,-2.71468 -0.12704,-1.25548 0.40103,-2.48593 1.38527,-3.22784 0.98423,-0.7419 2.27511,-0.88256 3.38638,-0.36898 1.11127,0.51358 1.87409,1.60336 2.00113,2.85885 z"
       id="path19"
       inkscape:connector-curvature="0"
       style="fill:url(#linearGradient6086);fill-opacity:1;stroke-width:1.72483838" />
    <path
       style="fill:url(#linearGradient6090);fill-opacity:1;stroke-width:1.72483838"
       inkscape:connector-curvature="0"
       id="path22"
       d="m 140.83864,266.71504 c 13.88419,-4.67382 14.17203,-21.94587 14.17203,-22.66627 0,-0.38018 -0.11883,-0.7501 -0.33864,-1.05424 -0.40636,-0.59741 -10.41313,-14.39045 -24.29732,-9.69906 -3.82927,1.34025 -7.41283,3.3422 -10.59939,5.92135 1.39142,-3.94205 2.12437,-8.10159 2.16729,-12.29953 0,-15.14598 -15.72977,-20.76862 -16.39012,-20.99704 -0.35146,-0.12319 -0.73218,-0.12319 -1.08364,0 -0.66035,0.22842 -16.390112,5.85106 -16.390112,21.0849 0.04719,4.1975 0.780005,8.35631 2.167288,12.29952 -3.191506,-2.61256 -6.786914,-4.64445 -10.633255,-6.0092 -13.867254,-4.69139 -23.857095,9.10165 -24.263461,9.69906 -0.219814,0.30414 -0.338639,0.67406 -0.338639,1.05424 0,0.7204 0.287843,17.99245 14.172029,22.66627 3.857775,1.26053 7.895308,1.82512 11.937013,1.66922 -3.357006,2.3348 -6.305896,5.2464 -8.719946,8.60966 -8.58449,12.29952 0.96512,26.35612 1.388419,26.98867 0.204057,0.3165 0.510267,0.54703 0.863528,0.65012 2.713947,0.80632 5.524487,1.20861 8.347444,1.19481 12.021673,0 18.625132,-7.46757 22.011512,-19.32782 3.47105,11.93053 10.04064,19.32782 22.01152,19.32782 2.81809,0.007 5.62283,-0.40176 8.33051,-1.21238 0.35326,-0.10309 0.65947,-0.33362 0.86353,-0.65012 0.42329,-0.59741 9.97291,-14.72429 1.38841,-26.98867 -2.4175,-3.35394 -5.35919,-6.26408 -8.70301,-8.60966 4.04056,0.15778 8.07745,-0.40079 11.93701,-1.65165 z m -35.82797,-57.22793 c 2.57366,1.05425 13.54555,6.23762 13.54555,17.44775 0,10.13832 -5.51981,20.6632 -11.64917,28.49976 -0.30478,-0.123 -0.20318,1.58136 -0.20318,-19.71438 0,-0.97041 -0.75807,-1.75708 -1.6932,-1.75708 -0.93512,0 -1.69319,0.78667 -1.69319,1.75708 v 18.30872 c -2.05482,-3.18479 -4.359764,-6.18789 -6.891299,-8.97866 -3.061071,-5.52455 -4.764862,-11.74599 -4.961056,-18.11544 0,-11.17499 10.971895,-16.37593 13.545545,-17.44775 z m -34.77819,53.88948 c -10.243821,-3.51415 -11.632239,-15.90152 -11.852354,-18.76555 1.693193,-2.21392 9.888249,-11.43856 20.165933,-7.97712 9.312564,3.14516 17.236709,11.82511 22.519471,20.32935 -0.16932,0.22842 1.28683,0.59741 -18.117168,-5.92134 -0.875518,-0.25929 -1.791878,0.24633 -2.074323,1.14454 -0.282445,0.89821 0.170161,1.8674 1.024543,2.1939 l 16.779547,5.65778 c -3.564034,1.04627 -7.036214,2.40407 -10.379276,4.05884 -5.988398,1.29518 -12.191407,1.04783 -18.066373,-0.7204 z m 26.820183,32.20718 c -6.315611,9.04894 -18.134101,6.57146 -20.826279,5.86863 -1.49001,-2.44233 -7.416187,-13.35377 -1.083644,-22.38513 5.68913,-8.11768 16.186929,-13.37134 25.58415,-15.93667 0.15239,0.24599 0.93126,-1.0191 -11.022686,16.05967 -0.447566,0.7842 -0.242999,1.79336 0.4711,2.32398 0.714098,0.53062 1.700622,0.40652 2.271873,-0.28578 l 10.379273,-14.82971 c -0.14499,3.8204 0.0193,7.64667 0.49103,11.43856 -0.63413,6.36396 -2.78734,12.46341 -6.264817,17.74645 z m 7.958007,-33.50741 c -0.93512,0 -1.69319,-0.78667 -1.69319,-1.75708 0,-0.9704 0.75807,-1.75707 1.69319,-1.75707 0.93513,0 1.6932,0.78667 1.6932,1.75707 0,0.97041 -0.75807,1.75708 -1.6932,1.75708 z m 29.86793,16.99091 c 6.33255,9.03136 0.40637,19.9428 -1.08364,22.38513 -2.69218,0.70283 -14.51067,3.18031 -20.82628,-5.86863 -5.75686,-8.22311 -7.22993,-20.04822 -6.77277,-30.16897 0.27091,0 -0.71114,-1.35295 11.31053,15.81367 0.32615,0.57147 0.93494,0.90326 1.57345,0.85752 0.6385,-0.0457 1.19759,-0.46117 1.44499,-1.07372 0.2474,-0.61255 0.14081,-1.31751 -0.27547,-1.822 l -10.32848,-14.82972 c 3.49966,1.34669 7.1018,2.387 10.76871,3.11003 5.56902,2.60899 10.43978,6.58988 14.18896,11.59669 z m -24.78835,-18.41414 c 0,-0.29871 -1.26989,0.24599 18.01558,-6.27276 0.85438,-0.3265 1.30699,-1.29569 1.02454,-2.1939 -0.28244,-0.89821 -1.1988,-1.40383 -2.07432,-1.14454 l -16.77955,5.5875 c 2.28398,-3.02366 4.32278,-6.23837 6.0955,-9.6112 4.124,-4.70277 9.29068,-8.29124 15.05249,-10.4546 10.15916,-3.51415 18.40501,5.76321 20.16593,7.97712 -0.16932,2.8816 -1.52387,15.30412 -11.85235,18.76556 -9.22791,3.21545 -20.50457,1.03667 -29.64782,-2.65318 z" />
    <flowRoot
       transform="translate(384,208)"
       style="font-style:normal;font-weight:normal;font-size:40px;line-height:1.25;font-family:sans-serif;letter-spacing:0px;word-spacing:0px;fill:url(#linearGradient6024);fill-opacity:1;stroke:none"
       id="flowRoot5805"
       xml:space="preserve"><flowRegion
         style="fill:url(#linearGradient6094);fill-opacity:1"
         id="flowRegion5807"><rect
           style="fill:url(#linearGradient6092);fill-opacity:1"
           y="-75"
           x="-769"
           height="41"
           width="63"
           id="rect5809" /></flowRegion><flowPara
         style="fill:url(#linearGradient6096);fill-opacity:1"
         id="flowPara5811">aa</flowPara></flowRoot>    <text
       id="text5815"
       y="149"
       x="-362"
       style="font-style:normal;font-weight:normal;font-size:40px;line-height:1.25;font-family:sans-serif;letter-spacing:0px;word-spacing:0px;fill:url(#linearGradient6026);fill-opacity:1;stroke:none"
       xml:space="preserve"><tspan
         style="fill:url(#linearGradient6026);fill-opacity:1"
         y="184.39062"
         x="-362"
         id="tspan5813"
         sodipodi:role="line" /></text>
    <text
       transform="scale(1.1149569,0.89689565)"
       id="text5819"
       y="336.82895"
       x="171.66603"
       style="font-style:normal;font-weight:normal;font-size:194.16937256px;line-height:1.25;font-family:sans-serif;letter-spacing:0px;word-spacing:0px;fill:url(#linearGradient6028);fill-opacity:1;stroke:none;stroke-width:4.8542347"
       xml:space="preserve"><tspan
         style="fill:url(#linearGradient6028);fill-opacity:1;stroke-width:4.8542347"
         y="336.82895"
         x="171.66603"
         id="tspan5817"
         sodipodi:role="line">a</tspan></text>
    <use
       transform="matrix(2.7461479,0,0,1.8706511,154.93135,41.29579)"
       height="100%"
       width="100%"
       y="0"
       x="0"
       xlink:href="#Nursery"
       style="fill:url(#linearGradient6030);fill-opacity:1;stroke:#000000"
       id="use5990" />
  </g>
</svg>
