<?xml version="1.0" encoding="UTF-8" standalone="no"?>
<!-- Generator: Gravit.io -->

<svg
   xmlns:dc="http://purl.org/dc/elements/1.1/"
   xmlns:cc="http://creativecommons.org/ns#"
   xmlns:rdf="http://www.w3.org/1999/02/22-rdf-syntax-ns#"
   xmlns:svg="http://www.w3.org/2000/svg"
   xmlns="http://www.w3.org/2000/svg"
   xmlns:sodipodi="http://sodipodi.sourceforge.net/DTD/sodipodi-0.dtd"
   xmlns:inkscape="http://www.inkscape.org/namespaces/inkscape"
   style="isolation:isolate"
   viewBox="0 0 48 48"
   width="48"
   height="48"
   version="1.1"
   id="svg46"
   sodipodi:docname="accessories-calculator.svg"
   inkscape:version="0.92.4 (5da689c313, 2019-01-14)">
  <metadata
     id="metadata52">
    <rdf:RDF>
      <cc:Work
         rdf:about="">
        <dc:format>image/svg+xml</dc:format>
        <dc:type
           rdf:resource="http://purl.org/dc/dcmitype/StillImage" />
        <dc:title></dc:title>
      </cc:Work>
    </rdf:RDF>
  </metadata>
  <defs
     id="defs50" />
  <sodipodi:namedview
     pagecolor="#ffffff"
     bordercolor="#666666"
     borderopacity="1"
     objecttolerance="10"
     gridtolerance="10"
     guidetolerance="10"
     inkscape:pageopacity="0"
     inkscape:pageshadow="2"
     inkscape:window-width="640"
     inkscape:window-height="480"
     id="namedview48"
     showgrid="false"
     inkscape:zoom="39.153656"
     inkscape:cx="18.994082"
     inkscape:cy="24"
     inkscape:current-layer="svg46" />
  <linearGradient
     id="_lgradient_0"
     x1="-0.014458464"
     y1="0.009839246"
     x2="1.0164566"
     y2="1.072293"
     gradientTransform="matrix(44,0,0,44,2,2)"
     gradientUnits="userSpaceOnUse">
    <stop
       offset="0%"
       stop-opacity="1"
       style="stop-color:rgb(249,212,35)"
       id="stop2" />
    <stop
       offset="51.56237565086822%"
       stop-opacity="1"
       style="stop-color:rgb(255,78,80)"
       id="stop4" />
    <stop
       offset="99.1304347826087%"
       stop-opacity="1"
       style="stop-color:rgb(138,35,135)"
       id="stop6" />
  </linearGradient>
  <linearGradient
     id="_lgradient_1"
     x1="0"
     y1="0.5"
     x2="0.90748805"
     y2="0.92007786"
     gradientTransform="matrix(12.122,0,0,12.134,9.074,9.562)"
     gradientUnits="userSpaceOnUse">
    <stop
       offset="0%"
       stop-opacity="1"
       style="stop-color:rgb(0,255,216)"
       id="stop11" />
    <stop
       offset="83.88839793817618%"
       stop-opacity="1"
       style="stop-color:rgb(0,255,184)"
       id="stop13" />
  </linearGradient>
  <linearGradient
     id="_lgradient_2"
     x1="0"
     y1="0.5"
     x2="0.90748805"
     y2="0.92007786"
     gradientTransform="matrix(11.555,0,0,3.052,9.108,33.312)"
     gradientUnits="userSpaceOnUse">
    <stop
       offset="0%"
       stop-opacity="1"
       style="stop-color:rgb(0,255,216)"
       id="stop18" />
    <stop
       offset="83.88839793817618%"
       stop-opacity="1"
       style="stop-color:rgb(0,255,184)"
       id="stop20" />
  </linearGradient>
  <linearGradient
     id="_lgradient_3"
     x1="0"
     y1="0.5"
     x2="1"
     y2="0.5"
     gradientTransform="matrix(11.555,0,0,3.052,27.108,33.312)"
     gradientUnits="userSpaceOnUse">
    <stop
       offset="0%"
       stop-opacity="1"
       style="stop-color:rgb(241,39,17)"
       id="stop25" />
    <stop
       offset="99.1304347826087%"
       stop-opacity="1"
       style="stop-color:rgb(245,175,25)"
       id="stop27" />
  </linearGradient>
  <linearGradient
     id="_lgradient_4"
     x1="0"
     y1="0.5"
     x2="1"
     y2="0.5"
     gradientTransform="matrix(11.555,0,0,3.052,27.108,29.312)"
     gradientUnits="userSpaceOnUse">
    <stop
       offset="0%"
       stop-opacity="1"
       style="stop-color:rgb(241,39,17)"
       id="stop32" />
    <stop
       offset="99.1304347826087%"
       stop-opacity="1"
       style="stop-color:rgb(245,175,25)"
       id="stop34" />
  </linearGradient>
  <linearGradient
     id="_lgradient_5"
     x1="-3.8208334e-05"
     y1="0.50000006"
     x2="0.99996185"
     y2="0.50000006"
     gradientTransform="matrix(9.62,0,0,10.08,28.52,10.26)"
     gradientUnits="userSpaceOnUse">
    <stop
       offset="0%"
       stop-opacity="1"
       style="stop-color:rgb(211,0,220)"
       id="stop39" />
    <stop
       offset="100%"
       stop-opacity="1"
       style="stop-color:rgb(135,0,255)"
       id="stop41" />
  </linearGradient>
  <g
     id="g868"
     transform="matrix(1.0909091,0,0,1.0909091,-2.1818184,-2.1818184)">
    <path
       id="path9"
       d="m 6,18.36 v 0 c 0,1.104 -0.896,2 -2,2 v 0 c -1.104,0 -2,-0.896 -2,-2 v 0 V 7 C 2,4.24 4.24,2 7,2 h 11.36 v 0 c 1.104,0 2,0.896 2,2 v 0 c 0,1.104 -0.896,2 -2,2 V 6 H 9 C 7.344,6 6,7.344 6,9 Z M 29.64,6 v 0 c -1.104,0 -2,-0.896 -2,-2 v 0 c 0,-1.104 0.896,-2 2,-2 V 2 H 41 c 2.76,0 5,2.24 5,5 v 11.36 0 c 0,1.104 -0.896,2 -2,2 v 0 c -1.104,0 -2,-0.896 -2,-2 v 0 V 9 C 42,7.344 40.656,6 39,6 Z M 42,29.64 v 0 c 0,-1.104 0.896,-2 2,-2 v 0 c 1.104,0 2,0.896 2,2 v 0 V 41 c 0,2.76 -2.24,5 -5,5 H 30 v 0 c -1.104,0 -2,-0.896 -2,-2 v 0 c 0,-1.104 0.896,-2 2,-2 v 0 h 9 c 1.656,0 3,-1.344 3,-3 z M 18.36,42 v 0 c 1.104,0 2,0.896 2,2 v 0 c 0,1.104 -0.896,2 -2,2 v 0 H 7 C 4.24,46 2,43.76 2,41 v -11.36 0 c 0,-1.104 0.896,-2 2,-2 v 0 c 1.104,0 2,0.896 2,2 v 0 9.36 c 0,1.656 1.344,3 3,3 z"
       inkscape:connector-curvature="0"
       style="fill:url(#_lgradient_0);fill-rule:evenodd" />
    <path
       id="path16"
       d="m 13.798,20.696 v -3.7 h -3.724 c -0.552,0 -1,-0.448 -1,-1 v -0.673 c 0,-0.552 0.448,-1 1,-1 h 3.724 v -3.761 c 0,-0.552 0.448,-1 1,-1 h 0.674 c 0.552,0 1,0.448 1,1 v 3.761 h 3.724 c 0.552,0 1,0.448 1,1 v 0.673 c 0,0.552 -0.448,1 -1,1 h -3.724 v 3.7 c 0,0.552 -0.448,1 -1,1 h -0.674 c -0.552,0 -1,-0.448 -1,-1 z"
       inkscape:connector-curvature="0"
       style="fill:url(#_lgradient_1)" />
    <path
       id="path23"
       d="m 19.663,36.364 h -9.555 c -0.552,0 -1,-0.448 -1,-1 v -1.052 c 0,-0.552 0.448,-1 1,-1 h 9.555 c 0.552,0 1,0.448 1,1 v 1.052 c 0,0.552 -0.448,1 -1,1 z"
       inkscape:connector-curvature="0"
       style="fill:url(#_lgradient_2)" />
    <path
       id="path30"
       d="m 37.663,36.364 h -9.555 c -0.552,0 -1,-0.448 -1,-1 v -1.052 c 0,-0.552 0.448,-1 1,-1 h 9.555 c 0.552,0 1,0.448 1,1 v 1.052 c 0,0.552 -0.448,1 -1,1 z"
       inkscape:connector-curvature="0"
       style="fill:url(#_lgradient_3)" />
    <path
       id="path37"
       d="m 37.663,32.364 h -9.555 c -0.552,0 -1,-0.448 -1,-1 v -1.052 c 0,-0.552 0.448,-1 1,-1 h 9.555 c 0.552,0 1,0.448 1,1 v 1.052 c 0,0.552 -0.448,1 -1,1 z"
       inkscape:connector-curvature="0"
       style="fill:url(#_lgradient_4)" />
    <path
       id="path44"
       d="m 37.78,18.38 v 0 q 0.36,0.36 0.36,0.82 v 0 0 q 0,0.44 -0.34,0.79 v 0 0 q -0.34,0.35 -0.8,0.35 v 0 0 q -0.5,0 -0.86,-0.42 v 0 L 33.32,16.8 30.5,19.92 v 0 q -0.38,0.4 -0.86,0.4 v 0 0 q -0.44,0 -0.78,-0.34 v 0 0 Q 28.52,19.64 28.52,19.2 v 0 0 q 0,-0.46 0.36,-0.82 v 0 l 2.92,-3.18 -2.76,-3 v 0 q -0.36,-0.36 -0.36,-0.82 v 0 0 q 0,-0.46 0.34,-0.79 v 0 0 q 0.34,-0.33 0.78,-0.33 v 0 0 q 0.48,0 0.86,0.4 v 0 l 2.66,2.92 2.66,-2.92 v 0 q 0.38,-0.4 0.86,-0.4 v 0 0 q 0.46,0 0.79,0.33 v 0 0 q 0.33,0.33 0.33,0.79 v 0 0 q 0,0.46 -0.36,0.82 v 0 l -2.76,3 z"
       inkscape:connector-curvature="0"
       style="fill:url(#_lgradient_5)" />
  </g>
</svg>
