<?xml version="1.0" encoding="UTF-8" standalone="no"?>
<!-- Generator: Gravit.io -->

<svg
   xmlns:dc="http://purl.org/dc/elements/1.1/"
   xmlns:cc="http://creativecommons.org/ns#"
   xmlns:rdf="http://www.w3.org/1999/02/22-rdf-syntax-ns#"
   xmlns:svg="http://www.w3.org/2000/svg"
   xmlns="http://www.w3.org/2000/svg"
   xmlns:sodipodi="http://sodipodi.sourceforge.net/DTD/sodipodi-0.dtd"
   xmlns:inkscape="http://www.inkscape.org/namespaces/inkscape"
   style="isolation:isolate"
   viewBox="0 0 36 36"
   width="48"
   height="48"
   version="1.1"
   id="svg9"
   sodipodi:docname="accessories-camera.svg"
   inkscape:version="0.92.4 (5da689c313, 2019-01-14)">
  <metadata
     id="metadata15">
    <rdf:RDF>
      <cc:Work
         rdf:about="">
        <dc:format>image/svg+xml</dc:format>
        <dc:type
           rdf:resource="http://purl.org/dc/dcmitype/StillImage" />
        <dc:title></dc:title>
      </cc:Work>
    </rdf:RDF>
  </metadata>
  <defs
     id="defs13" />
  <sodipodi:namedview
     pagecolor="#ffffff"
     bordercolor="#666666"
     borderopacity="1"
     objecttolerance="10"
     gridtolerance="10"
     guidetolerance="10"
     inkscape:pageopacity="0"
     inkscape:pageshadow="2"
     inkscape:window-width="640"
     inkscape:window-height="480"
     id="namedview11"
     showgrid="false"
     inkscape:zoom="29.365243"
     inkscape:cx="25.325443"
     inkscape:cy="32"
     inkscape:current-layer="svg9"
     units="px" />
  <linearGradient
     id="_lgradient_1"
     x1="0.67180997"
     y1="0.020570019"
     x2="0.42214948"
     y2="0.96016449"
     gradientTransform="matrix(42,0,0,42,3,3)"
     gradientUnits="userSpaceOnUse">
    <stop
       offset="0%"
       stop-opacity="1"
       style="stop-color:rgb(26,108,255)"
       id="stop2" />
    <stop
       offset="100%"
       stop-opacity="1"
       style="stop-color:rgb(197,34,255)"
       id="stop4" />
  </linearGradient>
  <g
     id="g826"
     transform="matrix(0.85714286,0,0,0.85714286,-2.5714286,-2.5714286)">
    <path
       id="path7"
       d="m 7.491,26.466 v 0 c 0.172,1.177 -0.643,2.275 -1.82,2.45 v 0 C 4.494,29.091 3.399,28.278 3.226,27.102 v 0 C 3.075,26.078 3,25.034 3,24 3,18.432 5.218,13.091 9.149,9.149 13.091,5.218 18.432,3 24,3 29.568,3 34.909,5.218 38.851,9.149 42.782,13.091 45,18.432 45,24 45,29.568 42.782,34.909 38.851,38.851 34.909,42.782 29.568,45 24,45 18.508,45 13.231,42.846 9.311,39.002 v 0 C 8.461,38.169 8.446,36.804 9.278,35.954 v 0 c 0.833,-0.85 2.198,-0.865 3.048,-0.032 v 0 c 3.112,3.058 7.312,4.77 11.674,4.77 4.426,0 8.669,-1.755 11.803,-4.889 3.134,-3.134 4.889,-7.377 4.889,-11.803 0,-4.426 -1.755,-8.669 -4.889,-11.803 C 32.669,9.063 28.426,7.308 24,7.308 19.574,7.308 15.331,9.063 12.197,12.197 9.063,15.331 7.308,19.574 7.308,24 c 0,0.829 0.064,1.648 0.183,2.466 z M 28.103,12.283 v 0 c -0.565,-0.19 -0.869,-0.803 -0.678,-1.368 v 0 c 0.19,-0.564 0.803,-0.868 1.367,-0.678 v 0 c 3.856,1.292 7.022,4.092 8.788,7.754 v 0 c 0.262,0.535 0.04,1.179 -0.495,1.437 v 0 c -0.535,0.259 -1.182,0.035 -1.443,-0.5 v 0 C 34.123,15.783 31.409,13.392 28.103,12.283 Z M 22.923,10 c 0,-0.594 0.483,-1.077 1.077,-1.077 0.594,0 1.077,0.483 1.077,1.077 0,0.594 -0.483,1.077 -1.077,1.077 -0.594,0 -1.077,-0.483 -1.077,-1.077 z M 21.23,24 c 0,-0.73 0.29,-1.44 0.81,-1.96 0.52,-0.52 1.23,-0.81 1.96,-0.81 0.73,0 1.44,0.29 1.96,0.81 0.52,0.52 0.81,1.23 0.81,1.96 0,0.73 -0.29,1.44 -0.81,1.96 -0.52,0.52 -1.23,0.81 -1.96,0.81 -0.73,0 -1.44,-0.29 -1.96,-0.81 C 21.52,25.44 21.23,24.73 21.23,24 Z m -2,0 c 0,-1.26 0.5,-2.48 1.4,-3.37 0.89,-0.9 2.11,-1.4 3.37,-1.4 1.26,0 2.48,0.5 3.37,1.4 0.9,0.89 1.4,2.11 1.4,3.37 0,1.26 -0.5,2.48 -1.4,3.37 -0.89,0.9 -2.11,1.4 -3.37,1.4 -1.26,0 -2.48,-0.5 -3.37,-1.4 -0.9,-0.89 -1.4,-2.11 -1.4,-3.37 z m -2.31,0 c 0,-1.88 0.75,-3.68 2.08,-5 1.32,-1.33 3.12,-2.08 5,-2.08 1.88,0 3.68,0.75 5,2.08 1.33,1.32 2.08,3.12 2.08,5 0,1.88 -0.75,3.68 -2.08,5 -1.32,1.33 -3.12,2.08 -5,2.08 -1.88,0 -3.68,-0.75 -5,-2.08 -1.33,-1.32 -2.08,-3.12 -2.08,-5 z m -2,0 c 0,-2.41 0.96,-4.72 2.66,-6.42 1.7,-1.7 4.01,-2.66 6.42,-2.66 2.41,0 4.72,0.96 6.42,2.66 1.7,1.7 2.66,4.01 2.66,6.42 0,2.41 -0.96,4.72 -2.66,6.42 -1.7,1.7 -4.01,2.66 -6.42,2.66 -2.41,0 -4.72,-0.96 -6.42,-2.66 -1.7,-1.7 -2.66,-4.01 -2.66,-6.42 z"
       inkscape:connector-curvature="0"
       style="fill:url(#_lgradient_1);fill-rule:evenodd" />
  </g>
</svg>
