<?xml version="1.0" encoding="UTF-8" standalone="no"?>
<!-- Generator: Gravit.io -->

<svg
   xmlns:dc="http://purl.org/dc/elements/1.1/"
   xmlns:cc="http://creativecommons.org/ns#"
   xmlns:rdf="http://www.w3.org/1999/02/22-rdf-syntax-ns#"
   xmlns:svg="http://www.w3.org/2000/svg"
   xmlns="http://www.w3.org/2000/svg"
   xmlns:sodipodi="http://sodipodi.sourceforge.net/DTD/sodipodi-0.dtd"
   xmlns:inkscape="http://www.inkscape.org/namespaces/inkscape"
   style="isolation:isolate"
   viewBox="0 0 36 36"
   width="48"
   height="48"
   version="1.1"
   id="svg9"
   sodipodi:docname="accessories-notes.svg"
   inkscape:version="0.92.4 (5da689c313, 2019-01-14)">
  <metadata
     id="metadata15">
    <rdf:RDF>
      <cc:Work
         rdf:about="">
        <dc:format>image/svg+xml</dc:format>
        <dc:type
           rdf:resource="http://purl.org/dc/dcmitype/StillImage" />
        <dc:title></dc:title>
      </cc:Work>
    </rdf:RDF>
  </metadata>
  <defs
     id="defs13" />
  <sodipodi:namedview
     pagecolor="#ffffff"
     bordercolor="#666666"
     borderopacity="1"
     objecttolerance="10"
     gridtolerance="10"
     guidetolerance="10"
     inkscape:pageopacity="0"
     inkscape:pageshadow="2"
     inkscape:window-width="640"
     inkscape:window-height="480"
     id="namedview11"
     showgrid="false"
     inkscape:zoom="29.365243"
     inkscape:cx="25.325443"
     inkscape:cy="32"
     inkscape:current-layer="svg9"
     units="px" />
  <linearGradient
     id="_lgradient_6"
     x1="0.21875"
     y1="0.17506042"
     x2="1.0989902"
     y2="1.1181589"
     gradientTransform="matrix(44,0,0,44.7,2,1.3)"
     gradientUnits="userSpaceOnUse">
    <stop
       offset="0%"
       stop-opacity="1"
       style="stop-color:rgb(252,203,144)"
       id="stop2" />
    <stop
       offset="83.91304347826087%"
       stop-opacity="1"
       style="stop-color:rgb(213,126,235)"
       id="stop4" />
  </linearGradient>
  <g
     id="g826"
     transform="matrix(0.80536995,0,0,0.80536995,-1.3288788,-1.0470178)">
    <path
       id="path7"
       d="m 24.072,19.606 7.725,-9.703 v 0 l 7.081,5.661 -7.724,9.703 z m -1.858,2.355 c -0.088,0.141 -0.162,0.29 -0.214,0.439 -0.09,0.2 -0.15,0.42 -0.17,0.64 l -0.67,7.6 v 0 l 7.16,-2.41 c 0.21,-0.08 0.41,-0.19 0.58,-0.32 0.137,-0.087 0.264,-0.189 0.376,-0.303 z M 33.666,7.556 34.73,6.22 C 35.09,5.77 35.52,5.37 36,5.05 c 0.41,-0.27 0.86,-0.48 1.33,-0.62 0.35,-0.1 0.72,-0.14 1.08,-0.12 0.4,0.02 0.78,0.11 1.15,0.27 0.55,0.23 1.08,0.54 1.55,0.92 0.47,0.37 0.89,0.8 1.25,1.28 0.23,0.31 0.4,0.67 0.51,1.04 0.11,0.35 0.15,0.72 0.12,1.08 -0.03,0.5 -0.13,0.99 -0.31,1.45 -0.11,0.27 -0.24,0.54 -0.39,0.79 -0.14,0.26 -0.3,0.5 -0.48,0.74 l -1.064,1.336 z M 18.06,31.59 18.84,22.75 c 0,-0.01 0,-0.02 0,-0.03 0.06,-0.49 0.18,-0.97 0.37,-1.43 0.18,-0.46 0.42,-0.9 0.72,-1.29 0.01,-0.01 0.01,-0.02 0.02,-0.03 L 32.38,4.35 c 0.56,-0.7 1.22,-1.3 1.97,-1.8 0.65,-0.43 1.37,-0.77 2.12,-0.99 0.69,-0.21 1.4,-0.29 2.12,-0.25 0.74,0.05 1.46,0.22 2.14,0.51 0.8,0.34 1.55,0.78 2.23,1.32 0.69,0.53 1.29,1.16 1.81,1.86 0.44,0.59 0.77,1.26 0.98,1.97 0.2,0.69 0.28,1.41 0.24,2.13 -0.06,0.8 -0.23,1.58 -0.51,2.33 -0.16,0.41 -0.35,0.81 -0.58,1.19 -0.21,0.39 -0.45,0.75 -0.72,1.1 0,0.01 -0.01,0.01 -0.01,0.02 L 31.74,29.35 c -0.01,0.01 -0.02,0.02 -0.02,0.03 -0.32,0.38 -0.69,0.71 -1.09,0.99 -0.4,0.29 -0.84,0.52 -1.3,0.69 -0.01,0 -0.02,0 -0.04,0.01 L 21,33.86 c -0.25,0.09 -0.51,0.13 -0.78,0.14 -0.6,0.01 -1.19,-0.24 -1.6,-0.69 -0.39,-0.43 -0.59,-1 -0.56,-1.58 0,0 0,-0.01 0,-0.01 z M 42.174,30 v 0 c 0,-1.104 0.857,-2 1.913,-2 v 0 C 45.143,28 46,28.896 46,30 v 0 11.11 C 46,43.809 43.809,46 41.11,46 H 6.89 C 4.191,46 2,43.809 2,41.11 V 6.89 C 2,4.191 4.191,2 6.89,2 h 12.327 v 0 c 1.056,0 1.913,0.896 1.913,2 v 0 c 0,1.104 -0.857,2 -1.913,2 V 6 H 8.76 C 7.141,6 5.826,7.315 5.826,8.934 V 39.066 C 5.826,40.685 7.141,42 8.76,42 h 30.48 c 1.619,0 2.934,-1.315 2.934,-2.934 z"
       style="fill:url(#_lgradient_6);fill-rule:evenodd"
       inkscape:connector-curvature="0" />
  </g>
</svg>
