<?xml version="1.0" encoding="UTF-8" standalone="no"?>
<!-- Generator: Gravit.io -->

<svg
   xmlns:dc="http://purl.org/dc/elements/1.1/"
   xmlns:cc="http://creativecommons.org/ns#"
   xmlns:rdf="http://www.w3.org/1999/02/22-rdf-syntax-ns#"
   xmlns:svg="http://www.w3.org/2000/svg"
   xmlns="http://www.w3.org/2000/svg"
   xmlns:sodipodi="http://sodipodi.sourceforge.net/DTD/sodipodi-0.dtd"
   xmlns:inkscape="http://www.inkscape.org/namespaces/inkscape"
   style="isolation:isolate"
   viewBox="0 0 36 36"
   width="48"
   height="48"
   version="1.1"
   id="svg9"
   sodipodi:docname="accessories-dictionary.svg"
   inkscape:version="0.92.4 (5da689c313, 2019-01-14)">
  <metadata
     id="metadata15">
    <rdf:RDF>
      <cc:Work
         rdf:about="">
        <dc:format>image/svg+xml</dc:format>
        <dc:type
           rdf:resource="http://purl.org/dc/dcmitype/StillImage" />
        <dc:title></dc:title>
      </cc:Work>
    </rdf:RDF>
  </metadata>
  <defs
     id="defs13" />
  <sodipodi:namedview
     pagecolor="#ffffff"
     bordercolor="#666666"
     borderopacity="1"
     objecttolerance="10"
     gridtolerance="10"
     guidetolerance="10"
     inkscape:pageopacity="0"
     inkscape:pageshadow="2"
     inkscape:window-width="640"
     inkscape:window-height="480"
     id="namedview11"
     showgrid="false"
     inkscape:zoom="29.365243"
     inkscape:cx="25.325443"
     inkscape:cy="32"
     inkscape:current-layer="svg9"
     units="px" />
  <linearGradient
     id="_lgradient_33"
     x1="0"
     y1="0.5"
     x2="0.90748805"
     y2="0.92007786"
     gradientTransform="matrix(43,0,0,44,3,2)"
     gradientUnits="userSpaceOnUse">
    <stop
       offset="0%"
       stop-opacity="1"
       style="stop-color:rgb(69,104,220)"
       id="stop2" />
    <stop
       offset="98.69565217391305%"
       stop-opacity="1"
       style="stop-color:rgb(176,106,179)"
       id="stop4" />
  </linearGradient>
  <g
     id="g826"
     transform="matrix(0.81818182,0,0,0.81818182,-2.0454546,-1.6363637)">
    <path
       id="path7"
       d="M 14,46 H 8 C 5.24,46 3,43.76 3,41 V 14 h 4 v 25 c 0,1.656 1.344,3 3,3 V 42 6 6 C 8.344,6 7,7.344 7,9 v 5 H 3 V 7 C 3,4.24 5.24,2 8,2 h 6 2 26 c 2.208,0 4,1.792 4,4 v 22 0 c 0,1.104 -0.896,2 -2,2 v 0 c -1.104,0 -2,-0.896 -2,-2 V 28 8 C 42,6.896 41.104,6 40,6 H 16 14 v 36 h 2 24 c 1.104,0 2,-0.896 2,-2 v -2 0 c 0,-1.104 0.896,-2 2,-2 v 0 c 1.104,0 2,0.896 2,2 v 0 4 c 0,2.208 -1.792,4 -4,4 H 16 Z m 6.744,-32.492 h -0.095 v 0 q -0.224,0.671 -0.504,1.494 v 0 0 q -0.279,0.822 -0.503,1.669 v 0 h 1.981 v 0 q -0.224,-0.863 -0.455,-1.685 v 0 0 q -0.232,-0.823 -0.424,-1.478 z m 9.106,4.361 h -3.419 v 0 q -0.112,-0.176 -0.207,-0.463 v 0 0 q -0.096,-0.288 -0.096,-0.607 v 0 0 q 0,-0.591 0.271,-0.855 v 0 0 q 0.272,-0.263 0.703,-0.263 v 0 h 3.419 v 0 q 0.096,0.175 0.199,0.463 v 0 0 q 0.104,0.287 0.104,0.607 v 0 0 q 0,0.591 -0.271,0.854 v 0 0 q -0.272,0.264 -0.703,0.264 z m 2.7,-0.096 3.674,-4.377 h -3.93 v 0 Q 32.182,13.22 32.086,12.917 v 0 0 Q 31.99,12.613 31.99,12.278 v 0 0 q 0,-0.623 0.28,-0.895 v 0 0 q 0.28,-0.271 0.727,-0.271 v 0 h 5.958 v 0 q 0.703,0.575 0.703,1.533 v 0 0 q 0,0.4 -0.184,0.791 v 0 0 q -0.183,0.391 -0.471,0.743 v 0 l -3.626,4.377 h 4.089 v 0 q 0.112,0.176 0.208,0.479 v 0 0 q 0.096,0.304 0.096,0.639 v 0 0 q 0,0.623 -0.28,0.895 v 0 0 q -0.279,0.271 -0.726,0.271 v 0 H 32.47 v 0 q -0.272,-0.223 -0.448,-0.607 v 0 0 Q 31.847,19.85 31.847,19.355 v 0 0 q 0,-0.4 0.207,-0.815 v 0 0 q 0.208,-0.415 0.496,-0.767 z M 26,29 h 12 c 1.104,0 2,0.896 2,2 v 0 c 0,1.104 -0.896,2 -2,2 H 26 c -1.104,0 -2,-0.896 -2,-2 v 0 c 0,-1.104 0.896,-2 2,-2 z M 18.732,11.447 v 0 0 q 0.271,-0.159 0.822,-0.303 v 0 0 Q 20.105,11 20.665,11 v 0 0 q 0.798,0 1.413,0.232 v 0 0 q 0.615,0.231 0.791,0.726 v 0 0 q 0.288,0.831 0.623,1.933 v 0 0 q 0.335,1.103 0.671,2.277 v 0 0 q 0.335,1.174 0.655,2.316 v 0 0 q 0.319,1.142 0.559,2.021 v 0 0 q -0.192,0.223 -0.575,0.359 v 0 0 Q 24.419,21 23.891,21 v 0 0 q -0.383,0 -0.647,-0.064 v 0 0 q -0.263,-0.064 -0.431,-0.192 v 0 0 q -0.168,-0.127 -0.271,-0.335 v 0 0 Q 22.438,20.201 22.358,19.93 v 0 L 22.07,18.827 h -2.891 v 0 q -0.128,0.48 -0.256,0.991 v 0 0 q -0.127,0.511 -0.255,0.99 v 0 0 q -0.224,0.08 -0.472,0.136 v 0 0 Q 17.949,21 17.597,21 v 0 0 q -0.814,0 -1.206,-0.28 v 0 0 Q 16,20.441 16,19.946 v 0 0 q 0,-0.224 0.064,-0.448 v 0 0 q 0.064,-0.223 0.144,-0.527 v 0 0 q 0.111,-0.431 0.311,-1.07 v 0 0 q 0.2,-0.639 0.439,-1.382 v 0 0 q 0.24,-0.743 0.512,-1.525 v 0 0 q 0.271,-0.783 0.511,-1.478 v 0 0 q 0.239,-0.695 0.439,-1.238 v 0 0 q 0.2,-0.543 0.312,-0.831 z M 32,36 h 6 c 1.104,0 2,0.896 2,2 v 0 c 0,1.104 -0.896,2 -2,2 h -6 c -1.104,0 -2,-0.896 -2,-2 v 0 c 0,-1.104 0.896,-2 2,-2 z"
       style="fill:url(#_lgradient_33);fill-rule:evenodd"
       inkscape:connector-curvature="0" />
  </g>
</svg>
