<?xml version="1.0" encoding="UTF-8" standalone="no"?>
<!-- Generator: Gravit.io -->

<svg
   xmlns:dc="http://purl.org/dc/elements/1.1/"
   xmlns:cc="http://creativecommons.org/ns#"
   xmlns:rdf="http://www.w3.org/1999/02/22-rdf-syntax-ns#"
   xmlns:svg="http://www.w3.org/2000/svg"
   xmlns="http://www.w3.org/2000/svg"
   xmlns:sodipodi="http://sodipodi.sourceforge.net/DTD/sodipodi-0.dtd"
   xmlns:inkscape="http://www.inkscape.org/namespaces/inkscape"
   style="isolation:isolate"
   viewBox="0 0 36 36"
   width="48"
   height="48"
   version="1.1"
   id="svg9"
   sodipodi:docname="akregator.svg"
   inkscape:version="0.92.4 (5da689c313, 2019-01-14)">
  <metadata
     id="metadata15">
    <rdf:RDF>
      <cc:Work
         rdf:about="">
        <dc:format>image/svg+xml</dc:format>
        <dc:type
           rdf:resource="http://purl.org/dc/dcmitype/StillImage" />
        <dc:title></dc:title>
      </cc:Work>
    </rdf:RDF>
  </metadata>
  <defs
     id="defs13" />
  <sodipodi:namedview
     pagecolor="#ffffff"
     bordercolor="#666666"
     borderopacity="1"
     objecttolerance="10"
     gridtolerance="10"
     guidetolerance="10"
     inkscape:pageopacity="0"
     inkscape:pageshadow="2"
     inkscape:window-width="640"
     inkscape:window-height="480"
     id="namedview11"
     showgrid="false"
     inkscape:zoom="29.365243"
     inkscape:cx="25.325443"
     inkscape:cy="32"
     inkscape:current-layer="svg9"
     units="px" />
  <linearGradient
     id="_lgradient_11"
     x1="0.056818184"
     y1="0.95426828"
     x2="0.96242028"
     y2="0.059290756"
     gradientTransform="matrix(44,0,0,41,2,5)"
     gradientUnits="userSpaceOnUse">
    <stop
       offset="0%"
       stop-opacity="1"
       style="stop-color:rgb(241,39,17)"
       id="stop2" />
    <stop
       offset="99.1304347826087%"
       stop-opacity="1"
       style="stop-color:rgb(245,175,25)"
       id="stop4" />
  </linearGradient>
  <g
     id="g826"
     transform="matrix(0.81818182,0,0,0.81818182,-1.6363637,-2.8636364)">
    <path
       id="path7"
       d="m 8,36 c 0,-2.208 1.792,-4 4,-4 2.208,0 4,1.792 4,4 0,2.208 -1.792,4 -4,4 -2.208,0 -4,-1.792 -4,-4 z m 0.16,6 v 0 C 9.176,42 10,42.896 10,44 v 0 c 0,1.104 -0.78,1.996 -1.74,1.99 v 0 L 8.05,46 C 8.03,46 8.02,46 8,46 6.41,46 4.88,45.37 3.76,44.24 2.63,43.12 2,41.59 2,40 v 0 c 0,-1.104 0.896,-2 2,-2 v 0 c 1.104,0 2,0.896 2,2 v 0 c 0,0.53 0.21,1.03 0.58,1.41 0.37,0.37 0.87,0.58 1.4,0.59 z M 6,32 v 0 c 0,1.104 -0.896,2 -2,2 v 0 C 2.896,34 2,33.104 2,32 V 32 10 C 2,7.24 4.24,5 7,5 h 34 c 2.76,0 5,2.24 5,5 v 6 0 c 0,1.104 -0.896,2 -2,2 v 0 c -1.104,0 -2,-0.896 -2,-2 v 0 -4 C 42,10.344 40.656,9 39,9 H 9 C 7.344,9 6,10.344 6,12 Z m 36,-6 v 0 c 0,-1.104 0.896,-2 2,-2 v 0 c 1.104,0 2,0.896 2,2 v 0 15 c 0,2.76 -2.24,5 -5,5 H 16 v 0 c -1.104,0 -2,-0.896 -2,-2 v 0 c 0,-1.104 0.896,-2 2,-2 v 0 h 23 c 1.656,0 3,-1.344 3,-3 z m -30.43,0.51 v 0 c -0.828,0.017 -1.513,-0.642 -1.53,-1.47 v 0 c -0.017,-0.828 0.642,-1.513 1.47,-1.53 v 0 l 0.46,-0.01 c 0.01,0 0.02,0 0.03,0 2.98,0 5.86,1.06 8.12,3 2.27,1.93 3.77,4.61 4.23,7.55 v 0 c 0.127,0.817 -0.433,1.585 -1.25,1.715 v 0 c -0.817,0.13 -1.583,-0.428 -1.71,-1.245 v 0 C 21.03,32.29 19.9,30.25 18.18,28.78 16.46,27.31 14.28,26.5 12.02,26.5 Z m 0.05,-6.01 v 0 c -0.828,0.011 -1.507,-0.652 -1.515,-1.48 v 0 c -0.008,-0.828 0.657,-1.509 1.485,-1.52 v 0 h 0.39 c 0.01,0 0.01,0 0.02,0 4.61,0 9.05,1.72 12.46,4.82 3.41,3.1 5.53,7.37 5.96,11.96 v 0 c 0.077,0.822 -0.53,1.553 -1.355,1.63 v 0 C 28.24,35.987 27.507,35.382 27.43,34.56 v 0 C 27.08,30.71 25.3,27.14 22.44,24.54 19.59,21.94 15.87,20.5 12.01,20.5 Z"
       style="fill:url(#_lgradient_11);fill-rule:evenodd"
       inkscape:connector-curvature="0" />
  </g>
</svg>
