<?xml version="1.0" encoding="UTF-8" standalone="no"?>
<!-- Generator: Gravit.io -->

<svg
   xmlns:dc="http://purl.org/dc/elements/1.1/"
   xmlns:cc="http://creativecommons.org/ns#"
   xmlns:rdf="http://www.w3.org/1999/02/22-rdf-syntax-ns#"
   xmlns:svg="http://www.w3.org/2000/svg"
   xmlns="http://www.w3.org/2000/svg"
   xmlns:sodipodi="http://sodipodi.sourceforge.net/DTD/sodipodi-0.dtd"
   xmlns:inkscape="http://www.inkscape.org/namespaces/inkscape"
   style="isolation:isolate"
   viewBox="0 0 36 36"
   width="48"
   height="48"
   version="1.1"
   id="svg16"
   sodipodi:docname="androidstudio.svg"
   inkscape:version="0.92.4 (5da689c313, 2019-01-14)">
  <metadata
     id="metadata22">
    <rdf:RDF>
      <cc:Work
         rdf:about="">
        <dc:format>image/svg+xml</dc:format>
        <dc:type
           rdf:resource="http://purl.org/dc/dcmitype/StillImage" />
        <dc:title></dc:title>
      </cc:Work>
    </rdf:RDF>
  </metadata>
  <defs
     id="defs20" />
  <sodipodi:namedview
     pagecolor="#ffffff"
     bordercolor="#666666"
     borderopacity="1"
     objecttolerance="10"
     gridtolerance="10"
     guidetolerance="10"
     inkscape:pageopacity="0"
     inkscape:pageshadow="2"
     inkscape:window-width="640"
     inkscape:window-height="480"
     id="namedview18"
     showgrid="false"
     inkscape:zoom="29.365243"
     inkscape:cx="25.325443"
     inkscape:cy="32"
     inkscape:current-layer="svg16"
     units="px" />
  <linearGradient
     id="_lgradient_5"
     x1="0"
     y1="0.5"
     x2="1"
     y2="0.5"
     gradientTransform="matrix(33.608,0,0,36.97,6.755,9.03)"
     gradientUnits="userSpaceOnUse">
    <stop
       offset="0%"
       stop-opacity="1"
       style="stop-color:rgb(17,153,142)"
       id="stop2" />
    <stop
       offset="99.1304347826087%"
       stop-opacity="1"
       style="stop-color:rgb(56,239,125)"
       id="stop4" />
  </linearGradient>
  <linearGradient
     id="_lgradient_6"
     x1="0"
     y1="0.5"
     x2="1"
     y2="0.5"
     gradientTransform="scale(48)"
     gradientUnits="userSpaceOnUse">
    <stop
       offset="0%"
       stop-opacity="1"
       style="stop-color:rgb(17,153,142)"
       id="stop9" />
    <stop
       offset="99.1304347826087%"
       stop-opacity="1"
       style="stop-color:rgb(56,239,125)"
       id="stop11" />
  </linearGradient>
  <g
     id="g831"
     transform="scale(0.75)">
    <path
       id="path7"
       d="m 33.923,31.233 5.99,10.39 v 0 c 0.094,0.168 0.15,0.337 0.169,0.525 l 0.281,3.467 c 0,0.131 -0.056,0.244 -0.169,0.319 v 0 0 c -0.112,0.056 -0.243,0.056 -0.356,-0.019 l -2.886,-1.968 c -0.15,-0.094 -0.281,-0.225 -0.375,-0.394 l -5.779,-9.986 c -2.135,1.197 -4.607,1.89 -7.228,1.89 -2.624,0 -5.098,-0.694 -7.235,-1.893 l -5.791,10.027 v 0 c -0.094,0.15 -0.225,0.281 -0.375,0.393 l -2.886,1.95 C 7.17,46.009 7.039,46.027 6.927,45.952 v 0 0 C 6.814,45.877 6.739,45.765 6.758,45.634 L 7.02,42.148 C 7.039,41.96 7.095,41.791 7.189,41.623 l 11.714,-20.279 2.83,2.83 -3.486,6.054 c 1.556,0.862 3.374,1.368 5.304,1.368 1.931,0 3.749,-0.488 5.323,-1.368 v 0 0 l -3.486,-6.054 2.83,-2.83 3.703,6.396 c 1.662,-1.947 2.669,-4.453 2.669,-7.184 v 0 l 3.842,0.019 c 0,4.176 -1.74,7.959 -4.509,10.658 z M 23.57,20.556 h -0.019 v 0 c -1.574,0 -2.867,-1.293 -2.867,-2.886 0,-1.593 1.293,-2.886 2.867,-2.886 v -0.038 l 0.019,0.038 c 1.574,0.019 2.867,1.293 2.867,2.886 0,1.593 -1.293,2.868 -2.867,2.886 z m 3.58,-7.665 h -1.2 V 9.049 9.03 h -2.399 -2.38 v 0.019 3.842 h -1.218 c -1.181,0 -2.156,0.975 -2.156,2.155 v 4.892 h 0.019 c -0.019,0.187 0.094,0.394 0.337,0.637 l 4.33,4.33 c 0.3,0.3 0.693,0.45 1.068,0.45 v -0.019 l 0.019,0.019 c 0.393,0 0.787,-0.15 1.068,-0.45 l 4.33,-4.33 c 0.243,-0.243 0.337,-0.468 0.337,-0.637 h 0.019 V 15.065 C 29.305,13.866 28.349,12.891 27.15,12.891 Z"
       inkscape:connector-curvature="0"
       style="fill:url(#_lgradient_5);fill-rule:evenodd" />
    <path
       id="path14"
       d="m 6.48,33.65 v 0 c 0.535,0.966 0.186,2.185 -0.78,2.72 v 0 C 4.734,36.905 3.515,36.551 2.98,35.58 v 0 C 1.02,32.04 0,28.05 0,24 0,17.64 2.53,11.53 7.03,7.03 11.53,2.53 17.64,0 24,0 30.36,0 36.47,2.53 40.97,7.03 45.47,11.53 48,17.64 48,24 c 0,4.05 -1.02,8.04 -2.98,11.58 v 0 c -0.535,0.971 -1.754,1.325 -2.72,0.79 v 0 c -0.966,-0.535 -1.315,-1.754 -0.78,-2.72 v 0 C 43.15,30.7 44,27.38 44,24 44,18.7 41.89,13.61 38.14,9.86 34.39,6.11 29.3,4 24,4 18.7,4 13.61,6.11 9.86,9.86 6.11,13.61 4,18.7 4,24 c 0,3.38 0.85,6.7 2.48,9.65 z m 24.27,9.03 v 0 c 1.032,-0.397 2.19,0.116 2.585,1.145 v 0 c 0.395,1.029 -0.123,2.188 -1.155,2.585 v 0 C 29.44,47.46 26.52,48 23.58,48 20.69,48 17.81,47.48 15.1,46.46 v 0 c -1.032,-0.392 -1.554,-1.548 -1.165,-2.58 v 0 c 0.389,-1.032 1.543,-1.556 2.575,-1.17 v 0 c 2.26,0.86 4.66,1.29 7.07,1.29 2.45,0 4.88,-0.45 7.17,-1.32 z"
       inkscape:connector-curvature="0"
       style="fill:url(#_lgradient_6);fill-rule:evenodd" />
  </g>
</svg>
