<?xml version="1.0" encoding="UTF-8" standalone="no"?>
<!-- Generator: Gravit.io -->

<svg
   xmlns:dc="http://purl.org/dc/elements/1.1/"
   xmlns:cc="http://creativecommons.org/ns#"
   xmlns:rdf="http://www.w3.org/1999/02/22-rdf-syntax-ns#"
   xmlns:svg="http://www.w3.org/2000/svg"
   xmlns="http://www.w3.org/2000/svg"
   xmlns:sodipodi="http://sodipodi.sourceforge.net/DTD/sodipodi-0.dtd"
   xmlns:inkscape="http://www.inkscape.org/namespaces/inkscape"
   style="isolation:isolate"
   viewBox="0 0 36 36"
   width="48"
   height="48"
   version="1.1"
   id="svg16"
   sodipodi:docname="anjuta.svg"
   inkscape:version="0.92.4 (5da689c313, 2019-01-14)">
  <metadata
     id="metadata22">
    <rdf:RDF>
      <cc:Work
         rdf:about="">
        <dc:format>image/svg+xml</dc:format>
        <dc:type
           rdf:resource="http://purl.org/dc/dcmitype/StillImage" />
        <dc:title></dc:title>
      </cc:Work>
    </rdf:RDF>
  </metadata>
  <defs
     id="defs20" />
  <sodipodi:namedview
     pagecolor="#ffffff"
     bordercolor="#666666"
     borderopacity="1"
     objecttolerance="10"
     gridtolerance="10"
     guidetolerance="10"
     inkscape:pageopacity="0"
     inkscape:pageshadow="2"
     inkscape:window-width="640"
     inkscape:window-height="480"
     id="namedview18"
     showgrid="false"
     inkscape:zoom="29.365243"
     inkscape:cx="25.325443"
     inkscape:cy="32"
     inkscape:current-layer="svg16"
     units="px" />
  <linearGradient
     id="_lgradient_4"
     x1="0"
     y1="0.5"
     x2="0.90748805"
     y2="0.92007786"
     gradientTransform="matrix(47,0,0,46.826,0.5,0.674)"
     gradientUnits="userSpaceOnUse">
    <stop
       offset="0%"
       stop-opacity="1"
       style="stop-color:rgb(69,104,220)"
       id="stop2" />
    <stop
       offset="98.69565217391305%"
       stop-opacity="1"
       style="stop-color:rgb(176,106,179)"
       id="stop4" />
  </linearGradient>
  <linearGradient
     id="_lgradient_5"
     x1="0"
     y1="0.5"
     x2="0.90748805"
     y2="0.92007786"
     gradientTransform="matrix(32.971,0,0,40.314,7.819,4.936)"
     gradientUnits="userSpaceOnUse">
    <stop
       offset="0%"
       stop-opacity="1"
       style="stop-color:rgb(69,104,220)"
       id="stop9" />
    <stop
       offset="98.69565217391305%"
       stop-opacity="1"
       style="stop-color:rgb(176,106,179)"
       id="stop11" />
  </linearGradient>
  <g
     id="g831"
     transform="matrix(0.76595745,0,0,0.76595745,-0.3829788,-0.44965124)">
    <path
       id="path7"
       d="m 9.07,36.53 1.28,1.26 C 9.706,38.572 8.696,39.532 8.696,39.532 7.92,40.143 6.712,39.955 6.001,39.111 L 6,39.11 C 2.45,34.88 0.5,29.53 0.5,24 0.5,18.23 2.63,12.66 6.47,8.36 v 0 C 7.204,7.538 8.468,7.466 9.29,8.2 v 0 c 0.822,0.734 0.894,1.998 0.16,2.82 v 0 C 6.26,14.59 4.5,19.21 4.5,24 c 0,4.58 1.62,9.02 4.57,12.53 z M 26.49,4.66 v 0 C 25.392,4.517 24.614,3.513 24.755,2.42 v 0 C 24.896,1.327 25.897,0.552 26.99,0.69 v 0 c 5.67,0.73 10.88,3.49 14.66,7.78 3.77,4.29 5.85,9.82 5.85,15.53 0,6.23 -2.48,12.21 -6.88,16.62 -4.41,4.4 -10.39,6.88 -16.62,6.88 -2.67,0 -5.32,-0.45 -7.84,-1.34 v 0 c -1.043,-0.37 -1.59,-1.515 -1.22,-2.555 v 0 c 0.37,-1.04 1.512,-1.585 2.55,-1.215 v 0 c 2.09,0.73 4.29,1.11 6.51,1.11 5.17,0 10.13,-2.06 13.79,-5.71 C 41.44,34.13 43.5,29.17 43.5,24 43.5,19.26 41.78,14.68 38.64,11.12 35.51,7.56 31.19,5.26 26.49,4.66 Z"
       style="fill:url(#_lgradient_4);fill-rule:evenodd"
       inkscape:connector-curvature="0" />
    <path
       id="path14"
       d="m 22.836,14.982 c -0.24,0.14 -0.425,0.358 -0.526,0.618 -0.12,0.31 -0.12,0.65 0.01,0.95 0.13,0.31 0.38,0.55 0.69,0.67 v 0 c 0.71,0.28 1.45,0.47 2.2,0.57 0.59,0.07 1.17,0.1 1.76,0.1 0.35,0 0.69,0.02 1.04,0.06 0.14,0.01 0.29,0.05 0.42,0.11 0.34,0.33 0.63,0.71 0.86,1.13 0.35,0.61 0.67,1.23 0.96,1.87 0.28,0.62 0.59,1.23 0.92,1.84 0.34,0.64 0.75,1.24 1.23,1.79 0.51,0.56 1.1,1.04 1.75,1.43 0.6,0.37 1.21,0.72 1.84,1.05 0.48,0.25 0.95,0.51 1.4,0.8 0.14,0.09 0.27,0.19 0.39,0.3 0.02,0.02 0.04,0.04 0.05,0.06 0.3,0.59 0.45,1.25 0.46,1.91 0,0.52 -0.1,1.04 -0.3,1.52 -0.16,0.42 -0.4,0.8 -0.72,1.12 -0.21,0.22 -0.47,0.38 -0.76,0.5 -0.3,0.11 -0.62,0.16 -0.94,0.16 -0.4,-0.01 -0.79,-0.06 -1.17,-0.17 -0.45,-0.12 -0.88,-0.29 -1.3,-0.5 -0.68,-0.33 -1.33,-0.71 -1.96,-1.13 -0.44,-0.32 -0.87,-0.65 -1.28,-1.01 0,0 -0.01,0 -0.01,-0.01 l -0.19,-0.16 c -0.01,0 -0.01,-0.01 -0.02,-0.01 -0.61,-0.5 -1.32,-0.88 -2.08,-1.1 -0.78,-0.23 -1.58,-0.35 -2.39,-0.36 0,0 0,0 0,0 h -0.2 c -0.02,0 -0.03,0 -0.04,0 -0.55,0.01 -1.1,0.04 -1.65,0.1 -0.46,0.06 -0.92,0.09 -1.38,0.09 -0.31,0.01 -0.61,-0.03 -0.91,-0.11 -0.22,-0.06 -0.42,-0.18 -0.59,-0.33 -0.3,-0.29 -0.51,-0.66 -0.61,-1.07 -0.11,-0.57 -0.16,-1.15 -0.14,-1.73 0,-0.01 0,-0.02 0,-0.04 v -0.3 l 0.01,-0.28 c 0.02,-0.81 -0.05,-1.61 -0.21,-2.4 -0.06,-0.32 -0.25,-0.61 -0.53,-0.79 -0.27,-0.19 -0.61,-0.25 -0.94,-0.19 -0.32,0.07 -0.61,0.26 -0.79,0.53 -0.19,0.28 -0.25,0.62 -0.19,0.94 0.12,0.61 0.18,1.23 0.16,1.85 0,0.01 0,0.02 0,0.03 l -0.01,0.31 v 0.28 c -0.02,0.77 0.04,1.55 0.2,2.31 0.2,0.9 0.66,1.73 1.34,2.37 0.46,0.43 1.02,0.74 1.62,0.92 0.53,0.15 1.08,0.21 1.64,0.2 0.055,-0.001 0.11,-0.002 0.165,-0.005 0.017,0.005 0.036,0.005 0.055,0.003 0,0 0,0.001 0,0.002 0.02,1.22 0.17,2.45 0.46,3.64 0.3,1.3 0.71,2.58 1.22,3.81 0.49,1.21 1.11,2.36 1.86,3.43 0.34,0.49 0.73,0.96 1.16,1.38 0.4,0.41 0.86,0.76 1.36,1.04 0.29,0.17 0.63,0.21 0.95,0.13 0.32,-0.09 0.59,-0.3 0.76,-0.59 0.16,-0.28 0.21,-0.63 0.12,-0.95 -0.09,-0.32 -0.3,-0.59 -0.59,-0.75 v 0 c -0.3,-0.18 -0.58,-0.4 -0.83,-0.65 -0.33,-0.32 -0.62,-0.67 -0.88,-1.04 -0.64,-0.92 -1.18,-1.91 -1.6,-2.95 -0.46,-1.11 -0.83,-2.26 -1.09,-3.43 -0.249,-1.006 -0.379,-2.042 -0.4,-3.087 0.009,-0.001 0.017,-0.003 0.026,-0.004 -0.011,-0.012 -0.02,-0.024 -0.025,-0.035 -10e-4,-0.037 0,-0.075 0.003,-0.113 -0.002,-0.006 0.003,-0.01 0.006,-0.015 v 0 c 0.091,-0.005 0.18,-0.006 0.27,-0.006 h 0.18 c 0.59,0.01 1.17,0.1 1.73,0.26 0.43,0.13 0.84,0.34 1.19,0.63 l 0.18,0.15 c 0.48,0.41 0.97,0.8 1.48,1.16 0.73,0.5 1.5,0.94 2.29,1.32 0.55,0.28 1.13,0.5 1.73,0.67 0.59,0.17 1.2,0.25 1.82,0.26 0.63,0 1.25,-0.11 1.84,-0.33 0.63,-0.23 1.19,-0.6 1.66,-1.07 0.55,-0.56 0.98,-1.23 1.27,-1.96 0.31,-0.78 0.47,-1.61 0.47,-2.45 -0.01,-1.06 -0.26,-2.11 -0.74,-3.06 -0.16,-0.3 -0.37,-0.56 -0.62,-0.78 -0.22,-0.19 -0.45,-0.37 -0.7,-0.53 -0.51,-0.33 -1.05,-0.63 -1.59,-0.91 -0.57,-0.3 -1.13,-0.62 -1.68,-0.96 -0.44,-0.27 -0.85,-0.59 -1.2,-0.97 -0.34,-0.4 -0.64,-0.84 -0.89,-1.31 -0.3,-0.55 -0.59,-1.12 -0.85,-1.69 -0.32,-0.7 -0.67,-1.39 -1.05,-2.06 -0.41,-0.74 -0.95,-1.4 -1.59,-1.96 -0.49,-0.29 -1.03,-0.47 -1.6,-0.54 -0.277,-0.032 -0.558,-0.052 -0.84,-0.063 0.017,0.005 0.034,0.012 0.05,0.033 -0.162,-0.713 -0.228,-1.441 -0.21,-2.17 0,-0.37 0.01,-0.74 0.02,-1.11 0.01,-0.32 0.02,-0.65 0.02,-0.97 0,-0.34 -0.01,-0.69 -0.05,-1.02 C 27.24,9.79 27.15,9.43 27.01,9.08 26.79,8.62 26.51,8.18 26.17,7.78 25.84,7.36 25.49,6.97 25.12,6.59 24.79,6.24 24.44,5.91 24.07,5.6 23.94,5.49 23.79,5.38 23.64,5.27 23.4,5.09 23.1,4.97 22.79,4.94 c -0.37,-0.03 -0.74,0.1 -1,0.36 -0.27,0.26 -0.42,0.62 -0.4,0.99 0,0.05 0,0.09 0.01,0.14 l 0.01,0.05 c 0,0.03 0.01,0.06 0.02,0.09 0.07,0.33 0.1,0.68 0.09,1.03 -0.01,0.81 -0.07,1.62 -0.17,2.42 -0.09,0.75 -0.19,1.49 -0.31,2.22 C 20.75,12.22 20.46,12.2 20.17,12.2 19.83,12.21 19.5,12.23 19.16,12.28 18.92,11.92 18.69,11.55 18.49,11.16 18.13,10.5 17.8,9.83 17.48,9.15 17.24,8.64 16.99,8.13 16.71,7.63 16.61,7.43 16.48,7.24 16.34,7.06 16.1,6.71 15.73,6.48 15.31,6.41 15.18,6.39 15.04,6.39 14.91,6.41 H 14.88 C 14.79,6.42 14.7,6.45 14.62,6.48 14.34,6.58 14.1,6.76 13.92,7 13.81,7.15 13.71,7.31 13.63,7.49 13.48,7.81 13.37,8.16 13.3,8.51 c -0.18,0.83 -0.27,1.67 -0.26,2.52 -0.01,0.72 0.06,1.45 0.21,2.15 0.11,0.42 0.27,0.83 0.47,1.21 0.21,0.48 0.44,0.95 0.67,1.42 0.02,0.03 0.04,0.07 0.05,0.11 -0.19,0.17 -0.38,0.34 -0.58,0.49 -0.41,0.31 -0.79,0.65 -1.14,1.02 -0.43,0.46 -0.77,1 -1.02,1.58 -0.18,0.46 -0.33,0.93 -0.44,1.41 -0.12,0.52 -0.22,1.05 -0.3,1.58 -0.16,1.2 -0.3,2.4 -0.4,3.61 -0.09,0.99 -0.19,1.99 -0.31,2.98 -0.11,0.98 -0.26,1.96 -0.45,2.94 -0.18,0.9 -0.42,1.78 -0.72,2.65 -0.26,0.75 -0.61,1.47 -1.05,2.13 -0.18,0.28 -0.25,0.61 -0.19,0.94 0.07,0.32 0.26,0.61 0.54,0.79 0.28,0.18 0.61,0.25 0.94,0.19 0.32,-0.07 0.61,-0.26 0.79,-0.54 0.56,-0.84 1,-1.74 1.33,-2.69 0.34,-0.98 0.61,-1.98 0.81,-3 0.2,-1.03 0.36,-2.07 0.49,-3.12 0.11,-1.02 0.22,-2.03 0.31,-3.05 0.1,-1.17 0.23,-2.33 0.39,-3.48 0.07,-0.47 0.15,-0.92 0.26,-1.38 0.07,-0.34 0.18,-0.67 0.31,-1 0.13,-0.3 0.31,-0.58 0.53,-0.83 0.26,-0.27 0.55,-0.52 0.84,-0.75 0.76,-0.58 1.45,-1.25 2.06,-1.98 -0.26,-0.57 -0.53,-1.14 -0.81,-1.7 -0.23,-0.47 -0.45,-0.94 -0.67,-1.42 -0.11,-0.22 -0.21,-0.45 -0.28,-0.69 -0.1,-0.52 -0.15,-1.04 -0.14,-1.57 0,-0.05 0,-0.09 0,-0.14 v 0 0 c 0.24,0.48 0.48,0.96 0.74,1.44 0.52,0.99 1.16,1.91 1.91,2.73 0.64,-0.21 1.31,-0.33 1.99,-0.36 0.869,0.027 1.73,0.142 2.576,0.348 0.022,-0.031 0.048,-0.053 0.08,-0.066 z m 0.259,-0.085 c 0.309,-1.516 0.554,-3.032 0.735,-4.567 0.06,-0.43 0.1,-0.87 0.13,-1.31 0.1,0.12 0.19,0.23 0.28,0.34 0.19,0.23 0.35,0.47 0.48,0.73 0.04,0.1 0.06,0.19 0.06,0.29 0.03,0.26 0.04,0.52 0.04,0.78 0,0.3 -0.01,0.61 -0.02,0.92 -0.01,0.38 -0.01,0.76 -0.02,1.14 -0.013,0.674 0.028,1.353 0.134,2.02 0,-0.021 0.011,-0.032 0.039,-0.031 -0.348,-0.073 -0.69,-0.178 -1.023,-0.309 -0.3,-0.12 -0.65,-0.12 -0.95,0.01 -0.01,0.004 -0.019,0.008 -0.028,0.014 -0.04,0.016 -0.079,0.036 0.143,-0.027 z"
       style="fill:url(#_lgradient_5);fill-rule:evenodd"
       inkscape:connector-curvature="0" />
  </g>
</svg>
