<?xml version="1.0" encoding="UTF-8" standalone="no"?>
<!-- Generator: Gravit.io -->

<svg
   xmlns:dc="http://purl.org/dc/elements/1.1/"
   xmlns:cc="http://creativecommons.org/ns#"
   xmlns:rdf="http://www.w3.org/1999/02/22-rdf-syntax-ns#"
   xmlns:svg="http://www.w3.org/2000/svg"
   xmlns="http://www.w3.org/2000/svg"
   xmlns:sodipodi="http://sodipodi.sourceforge.net/DTD/sodipodi-0.dtd"
   xmlns:inkscape="http://www.inkscape.org/namespaces/inkscape"
   style="isolation:isolate"
   viewBox="0 0 36 36"
   width="48"
   height="48"
   version="1.1"
   id="svg16"
   sodipodi:docname="appium.svg"
   inkscape:version="0.92.4 (5da689c313, 2019-01-14)">
  <metadata
     id="metadata22">
    <rdf:RDF>
      <cc:Work
         rdf:about="">
        <dc:format>image/svg+xml</dc:format>
        <dc:type
           rdf:resource="http://purl.org/dc/dcmitype/StillImage" />
        <dc:title></dc:title>
      </cc:Work>
    </rdf:RDF>
  </metadata>
  <defs
     id="defs20" />
  <sodipodi:namedview
     pagecolor="#ffffff"
     bordercolor="#666666"
     borderopacity="1"
     objecttolerance="10"
     gridtolerance="10"
     guidetolerance="10"
     inkscape:pageopacity="0"
     inkscape:pageshadow="2"
     inkscape:window-width="640"
     inkscape:window-height="480"
     id="namedview18"
     showgrid="false"
     units="px"
     inkscape:zoom="86.985275"
     inkscape:cx="29.746745"
     inkscape:cy="32"
     inkscape:current-layer="svg16" />
  <linearGradient
     id="_lgradient_9"
     x1="0"
     y1="0.5"
     x2="1"
     y2="0.5"
     gradientTransform="matrix(33,0,0,33,7.5,7.5)"
     gradientUnits="userSpaceOnUse">
    <stop
       offset="0%"
       stop-opacity="1"
       style="stop-color:rgb(71,118,230)"
       id="stop2" />
    <stop
       offset="98.26086956521739%"
       stop-opacity="1"
       style="stop-color:rgb(142,84,233)"
       id="stop4" />
  </linearGradient>
  <linearGradient
     id="_lgradient_10"
     x1="0"
     y1="0.5"
     x2="1"
     y2="0.5"
     gradientTransform="scale(48)"
     gradientUnits="userSpaceOnUse">
    <stop
       offset="0%"
       stop-opacity="1"
       style="stop-color:rgb(71,118,230)"
       id="stop9" />
    <stop
       offset="98.26086956521739%"
       stop-opacity="1"
       style="stop-color:rgb(142,84,233)"
       id="stop11" />
  </linearGradient>
  <g
     id="g824"
     transform="scale(0.75)">
    <path
       id="path7"
       d="m 22.216,7.595 c -6.827,0.771 -12.489,5.7 -14.196,12.34 -0.373,1.439 -0.328,1.824 0.294,3.093 0.904,1.835 2.339,3.342 3.956,4.158 1.22,0.623 2.079,0.816 3.786,0.873 1.616,0.056 2.769,-0.08 4.205,-0.487 l 0.587,-0.17 v -2.233 c 0,-2.458 0.181,-4.101 0.645,-5.892 1.164,-4.487 4.001,-7.637 7.776,-8.622 1.096,-0.295 2.633,-0.408 3.492,-0.261 0.825,0.136 0.746,0.034 -0.655,-0.759 -2.939,-1.677 -6.533,-2.414 -9.89,-2.04 z m 8.613,3.501 c -2.091,0.295 -4.115,1.372 -5.369,2.856 -1.096,1.314 -1.696,2.425 -2.34,4.374 l -0.441,1.303 1.436,0.804 c 2.532,1.416 4.159,2.64 5.742,4.272 2.102,2.198 3.243,4.43 3.56,7.014 0.271,2.232 -0.43,4.872 -1.752,6.605 -0.226,0.295 -0.362,0.533 -0.316,0.533 0.18,0 2,-1.144 2.825,-1.779 1.097,-0.838 2.713,-2.572 3.459,-3.705 2.272,-3.422 3.244,-7.49 2.735,-11.354 -0.509,-3.852 -2.102,-7.07 -4.849,-9.801 -0.78,-0.782 -1.074,-0.997 -1.413,-1.054 -0.791,-0.124 -2.565,-0.169 -3.277,-0.068 z M 7.568,24.693 c 0.147,4.306 1.718,7.909 4.803,11.003 1.944,1.937 3.945,3.195 6.375,4.011 2.023,0.668 2.826,0.793 5.278,0.793 2.397,0 3.176,-0.113 5.166,-0.748 1.187,-0.385 1.356,-0.544 2.181,-1.983 0.825,-1.439 1.153,-2.583 1.21,-4.237 0.056,-1.202 0.022,-1.575 -0.181,-2.369 -0.452,-1.824 -1.605,-3.739 -3.154,-5.268 l -0.678,-0.658 -1.062,0.646 c -2.397,1.496 -5.403,2.731 -7.72,3.184 -1.503,0.295 -3.877,0.272 -5.177,-0.045 C 11.512,28.251 9.184,26.404 7.85,23.64 L 7.5,22.937 Z"
       inkscape:connector-curvature="0"
       style="fill:url(#_lgradient_9);fill-rule:evenodd" />
    <path
       id="path14"
       d="m 43.01,17.78 v 0 c -0.342,-1.049 0.231,-2.178 1.28,-2.52 v 0 c 1.049,-0.342 2.178,0.231 2.52,1.28 v 0 C 47.6,18.94 48,21.45 48,23.97 48,32.32 43.66,40.1 36.54,44.46 32.78,46.77 28.44,48 24.03,48 15.68,48 7.9,43.66 3.54,36.54 1.23,32.78 0,28.45 0,24.03 0,15.68 4.34,7.9 11.46,3.54 15.22,1.23 19.55,0 23.97,0 29.61,0 35.08,1.98 39.41,5.59 v 0 c 0.844,0.712 0.956,1.978 0.25,2.825 v 0 C 38.954,9.262 37.69,9.372 36.84,8.66 v 0 C 33.23,5.65 28.68,4 23.97,4 20.3,4 16.69,5.02 13.55,6.95 7.62,10.59 4,17.07 4,24.03 4,27.71 5.02,31.31 6.95,34.45 10.59,40.38 17.07,44 24.03,44 27.7,44 31.31,42.98 34.45,41.05 40.38,37.41 44,30.93 44,23.97 c 0,-2.1 -0.33,-4.19 -0.99,-6.19 z"
       inkscape:connector-curvature="0"
       style="fill:url(#_lgradient_10)" />
  </g>
</svg>
