<?xml version="1.0" encoding="UTF-8" standalone="no"?>
<!-- Generator: Gravit.io -->

<svg
   xmlns:dc="http://purl.org/dc/elements/1.1/"
   xmlns:cc="http://creativecommons.org/ns#"
   xmlns:rdf="http://www.w3.org/1999/02/22-rdf-syntax-ns#"
   xmlns:svg="http://www.w3.org/2000/svg"
   xmlns="http://www.w3.org/2000/svg"
   xmlns:sodipodi="http://sodipodi.sourceforge.net/DTD/sodipodi-0.dtd"
   xmlns:inkscape="http://www.inkscape.org/namespaces/inkscape"
   style="isolation:isolate"
   viewBox="0 0 36 36"
   width="48"
   height="48"
   version="1.1"
   id="svg9"
   sodipodi:docname="application-x-executable.svg"
   inkscape:version="0.92.4 (5da689c313, 2019-01-14)">
  <metadata
     id="metadata15">
    <rdf:RDF>
      <cc:Work
         rdf:about="">
        <dc:format>image/svg+xml</dc:format>
        <dc:type
           rdf:resource="http://purl.org/dc/dcmitype/StillImage" />
        <dc:title></dc:title>
      </cc:Work>
    </rdf:RDF>
  </metadata>
  <defs
     id="defs13" />
  <sodipodi:namedview
     pagecolor="#ffffff"
     bordercolor="#666666"
     borderopacity="1"
     objecttolerance="10"
     gridtolerance="10"
     guidetolerance="10"
     inkscape:pageopacity="0"
     inkscape:pageshadow="2"
     inkscape:window-width="640"
     inkscape:window-height="480"
     id="namedview11"
     showgrid="false"
     inkscape:zoom="29.365243"
     inkscape:cx="25.325443"
     inkscape:cy="32"
     inkscape:current-layer="svg9"
     units="px" />
  <linearGradient
     id="_lgradient_0"
     x1="0"
     y1="0.5"
     x2="0.90748805"
     y2="0.92007786"
     gradientTransform="matrix(46.59,0,0,49.42,0,-1.49)"
     gradientUnits="userSpaceOnUse">
    <stop
       offset="0%"
       stop-opacity="1"
       style="stop-color:rgb(0,196,255)"
       id="stop2" />
    <stop
       offset="83.88839793817618%"
       stop-opacity="1"
       style="stop-color:rgb(0,114,255)"
       id="stop4" />
  </linearGradient>
  <g
     id="g826"
     transform="matrix(0.79207681,0,0,0.79207681,-1.2173693,-0.31582525)">
    <path
       id="path7"
       d="m 34,10.28 v 0 c -0.955,0.552 -2.178,0.223 -2.73,-0.735 v 0 C 30.718,8.587 31.045,7.362 32,6.81 v 0 L 42.244,0.982 c 2.399,-1.364 4.03,-0.254 3.641,2.478 l -5.63,39.52 c -0.389,2.732 -2.55,3.679 -4.823,2.114 L 27.614,39.707 C 27.159,39.394 26.421,39.394 25.966,39.706 L 19.9,43.87 19.304,44.077 c -1.564,0.542 -3.088,-0.337 -3.4,-1.963 L 14.399,34.282 C 14.295,33.74 13.809,33.101 13.314,32.856 L 4.479,28.472 C 2.007,27.246 1.942,25.133 4.334,23.756 L 22,13.59 v 0 c 0.955,-0.552 2.178,-0.225 2.73,0.73 v 0 c 0.552,0.955 0.225,2.178 -0.73,2.73 v 0 L 9.734,25.253 c -0.957,0.55 -0.901,1.329 0.124,1.737 l 6.003,2.39 c 0.513,0.204 1.047,0.802 1.193,1.335 l 2.212,8.09 c 0.146,0.533 0.639,0.72 1.102,0.419 l 6.004,-3.918 c 0.463,-0.301 1.2,-0.281 1.645,0.044 l 6.819,4.989 c 0.891,0.652 1.738,0.293 1.891,-0.8 L 41.133,8.091 c 0.153,-1.093 -0.504,-1.541 -1.466,-1 z"
       style="fill:url(#_lgradient_0)"
       inkscape:connector-curvature="0" />
  </g>
</svg>
