<?xml version="1.0" encoding="UTF-8" standalone="no"?>
<!-- Generator: Gravit.io -->

<svg
   xmlns:dc="http://purl.org/dc/elements/1.1/"
   xmlns:cc="http://creativecommons.org/ns#"
   xmlns:rdf="http://www.w3.org/1999/02/22-rdf-syntax-ns#"
   xmlns:svg="http://www.w3.org/2000/svg"
   xmlns="http://www.w3.org/2000/svg"
   xmlns:sodipodi="http://sodipodi.sourceforge.net/DTD/sodipodi-0.dtd"
   xmlns:inkscape="http://www.inkscape.org/namespaces/inkscape"
   style="isolation:isolate"
   viewBox="0 0 36 36"
   width="48"
   height="48"
   version="1.1"
   id="svg23"
   sodipodi:docname="applications-science.svg"
   inkscape:version="0.92.4 (5da689c313, 2019-01-14)">
  <metadata
     id="metadata29">
    <rdf:RDF>
      <cc:Work
         rdf:about="">
        <dc:format>image/svg+xml</dc:format>
        <dc:type
           rdf:resource="http://purl.org/dc/dcmitype/StillImage" />
        <dc:title></dc:title>
      </cc:Work>
    </rdf:RDF>
  </metadata>
  <defs
     id="defs27" />
  <sodipodi:namedview
     pagecolor="#ffffff"
     bordercolor="#666666"
     borderopacity="1"
     objecttolerance="10"
     gridtolerance="10"
     guidetolerance="10"
     inkscape:pageopacity="0"
     inkscape:pageshadow="2"
     inkscape:window-width="640"
     inkscape:window-height="480"
     id="namedview25"
     showgrid="false"
     inkscape:zoom="29.365243"
     inkscape:cx="25.325443"
     inkscape:cy="32"
     inkscape:current-layer="svg23"
     units="px" />
  <linearGradient
     id="_lgradient_18"
     x1="24.80929"
     y1="39.182533"
     x2="25.453926"
     y2="7.9506865"
     gradientTransform="scale(0.94793198,1.054928)"
     gradientUnits="userSpaceOnUse">
    <stop
       offset="0%"
       stop-opacity="1"
       style="stop-color:rgb(52,148,230)"
       id="stop2" />
    <stop
       offset="98.69565217391305%"
       stop-opacity="1"
       style="stop-color:rgb(236,110,173)"
       id="stop4" />
  </linearGradient>
  <linearGradient
     id="_lgradient_19"
     x1="0"
     y1="0.5"
     x2="0.90748805"
     y2="0.92007786"
     gradientTransform="matrix(6,0,0,6,21,21)"
     gradientUnits="userSpaceOnUse">
    <stop
       offset="0%"
       stop-opacity="1"
       style="stop-color:rgb(0,196,255)"
       id="stop9" />
    <stop
       offset="83.88839793817618%"
       stop-opacity="1"
       style="stop-color:rgb(0,114,255)"
       id="stop11" />
  </linearGradient>
  <linearGradient
     id="_lgradient_20"
     x1="0.5"
     y1="1"
     x2="0.52638584"
     y2="0.03457734"
     gradientTransform="scale(48,47.7)"
     gradientUnits="userSpaceOnUse">
    <stop
       offset="0%"
       stop-opacity="1"
       style="stop-color:rgb(52,148,230)"
       id="stop16" />
    <stop
       offset="98.69565217391305%"
       stop-opacity="1"
       style="stop-color:rgb(236,110,173)"
       id="stop18" />
  </linearGradient>
  <g
     id="g839"
     transform="matrix(0.75,0,0,0.75,0,0.28155109)">
    <path
       id="path7"
       stroke-miterlimit="3"
       d="m 29.205,14.994 v 0 C 28.05,11.066 26.148,8.513 24,8.513 c -2.146,0 -4.047,2.548 -5.198,6.483 v 0 c 1.628,0.375 3.401,0.985 5.223,1.806 v 0 c -1.063,0.46 -2.149,1.016 -3.233,1.642 -1.084,0.626 -2.108,1.288 -3.039,1.979 v 0 c 0.2,-1.989 0.559,-3.829 1.049,-5.427 v 0 0 c -3.984,-0.97 -7.141,-0.598 -8.214,1.26 -1.074,1.86 0.185,4.785 3.011,7.748 v 0 c -2.829,2.963 -4.084,5.882 -3.011,7.74 1.072,1.857 4.227,2.23 8.207,1.262 v 0 c 1.155,3.928 3.057,6.481 5.205,6.481 2.146,0 4.047,-2.548 5.198,-6.483 v 0 c 3.984,0.97 7.141,0.598 8.214,-1.26 1.074,-1.86 -0.185,-4.785 -3.011,-7.748 v 0 c 2.829,-2.963 4.084,-5.882 3.011,-7.74 -1.072,-1.857 -4.227,-2.23 -8.207,-1.262 z m -5.23,16.204 v 0 c 1.822,0.821 3.595,1.431 5.223,1.806 v 0 c 0.49,-1.598 0.849,-3.438 1.049,-5.427 v 0 c -0.931,0.691 -1.955,1.353 -3.039,1.979 -1.084,0.626 -2.17,1.182 -3.233,1.642 z m 5.23,-16.204 v 0 c 0.478,1.598 0.828,3.431 1.019,5.413 v 0 c 1.62,1.156 3.033,2.375 4.177,3.589 v 0 c -1.118,1.212 -2.523,2.431 -4.154,3.581 v 0 c 0.109,-1.15 0.169,-2.347 0.169,-3.577 0,-1.242 -0.061,-2.45 -0.192,-3.593 v 0 C 29.3,19.721 28.284,19.065 27.208,18.444 26.143,17.828 25.076,17.282 24.025,16.802 v 0 c 1.812,-0.838 3.571,-1.445 5.18,-1.808 z m -10.41,18.012 v 0 c -0.478,-1.598 -0.828,-3.431 -1.019,-5.413 v 0 c -1.62,-1.156 -3.033,-2.375 -4.177,-3.589 v 0 c 1.118,-1.212 2.523,-2.431 4.154,-3.581 v 0 c -0.109,1.15 -0.169,2.347 -0.169,3.577 0,1.242 0.061,2.45 0.192,3.593 v 0 c 0.924,0.686 1.94,1.342 3.016,1.963 1.065,0.616 2.132,1.162 3.183,1.642 v 0 c -1.812,0.838 -3.571,1.445 -5.18,1.808 z"
       style="vector-effect:non-scaling-stroke;fill:none;fill-rule:evenodd;stroke:url(#_lgradient_18);stroke-width:2.5;stroke-linecap:square;stroke-linejoin:miter;stroke-miterlimit:3"
       inkscape:connector-curvature="0" />
    <circle
       id="circle14"
       r="3"
       cy="24"
       cx="24"
       style="vector-effect:non-scaling-stroke;fill:url(#_lgradient_19)" />
    <path
       id="path21"
       d="m 18.81,43.32 v 0 c 1.065,0.287 1.697,1.385 1.41,2.45 v 0 c -0.287,1.065 -1.385,1.697 -2.45,1.41 v 0 C 12.67,45.81 8.16,42.79 4.95,38.6 1.74,34.41 0,29.28 0,24 0,17.64 2.53,11.53 7.03,7.03 11.53,2.53 17.64,0 24,0 30.36,0 36.47,2.53 40.97,7.03 45.47,11.53 48,17.64 48,24 c 0,5.26 -1.73,10.37 -4.91,14.55 -3.19,4.18 -7.66,7.2 -12.73,8.6 v 0 c -1.065,0.293 -2.167,-0.335 -2.46,-1.4 v 0 c -0.293,-1.065 0.335,-2.167 1.4,-2.46 v 0 C 33.52,42.13 37.25,39.61 39.91,36.13 42.56,32.64 44,28.38 44,24 44,18.7 41.89,13.61 38.14,9.86 34.39,6.11 29.3,4 24,4 18.7,4 13.61,6.11 9.86,9.86 6.11,13.61 4,18.7 4,24 c 0,4.4 1.45,8.68 4.13,12.17 2.67,3.49 6.43,6.01 10.68,7.15 z"
       style="fill:url(#_lgradient_20)"
       inkscape:connector-curvature="0" />
  </g>
</svg>
