<?xml version="1.0" encoding="UTF-8" standalone="no"?>
<!-- Generator: Gravit.io -->

<svg
   xmlns:dc="http://purl.org/dc/elements/1.1/"
   xmlns:cc="http://creativecommons.org/ns#"
   xmlns:rdf="http://www.w3.org/1999/02/22-rdf-syntax-ns#"
   xmlns:svg="http://www.w3.org/2000/svg"
   xmlns="http://www.w3.org/2000/svg"
   xmlns:sodipodi="http://sodipodi.sourceforge.net/DTD/sodipodi-0.dtd"
   xmlns:inkscape="http://www.inkscape.org/namespaces/inkscape"
   style="isolation:isolate"
   viewBox="0 0 36 36"
   width="48"
   height="48"
   version="1.1"
   id="svg9"
   sodipodi:docname="applications-games.svg"
   inkscape:version="0.92.4 (5da689c313, 2019-01-14)">
  <metadata
     id="metadata15">
    <rdf:RDF>
      <cc:Work
         rdf:about="">
        <dc:format>image/svg+xml</dc:format>
        <dc:type
           rdf:resource="http://purl.org/dc/dcmitype/StillImage" />
        <dc:title></dc:title>
      </cc:Work>
    </rdf:RDF>
  </metadata>
  <defs
     id="defs13" />
  <sodipodi:namedview
     pagecolor="#ffffff"
     bordercolor="#666666"
     borderopacity="1"
     objecttolerance="10"
     gridtolerance="10"
     guidetolerance="10"
     inkscape:pageopacity="0"
     inkscape:pageshadow="2"
     inkscape:window-width="640"
     inkscape:window-height="480"
     id="namedview11"
     showgrid="false"
     inkscape:zoom="29.365243"
     inkscape:cx="25.325443"
     inkscape:cy="32"
     inkscape:current-layer="svg9"
     units="px" />
  <linearGradient
     id="_lgradient_4"
     x1="0.5819639"
     y1="0.77831072"
     x2="0.27618945"
     y2="0.32136112"
     gradientTransform="matrix(44.663,0,0,32,1.668,8.433)"
     gradientUnits="userSpaceOnUse">
    <stop
       offset="0%"
       stop-opacity="1"
       style="stop-color:rgb(27,206,137)"
       id="stop2" />
    <stop
       offset="100%"
       stop-opacity="1"
       style="stop-color:rgb(78,142,213)"
       id="stop4" />
  </linearGradient>
  <g
     id="g826"
     transform="matrix(0.80603841,0,0,0.80603841,-1.3449218,-1.6939365)">
    <path
       id="path7"
       d="m 19.957,27.825 v 0 c 0.832,0 1.508,0.676 1.508,1.508 v 0 c 0,0.832 -0.676,1.507 -1.508,1.507 v 0 h -6.246 c -0.416,0 -0.855,0.322 -0.979,0.719 l -1.659,5.279 c -0.624,1.984 -2.819,3.595 -4.899,3.595 H 5.156 c -2.08,0 -3.637,-1.683 -3.476,-3.757 L 3.151,17.761 c 0.161,-2.074 1.125,-5.005 2.15,-6.543 v 0 C 6.327,9.681 8.848,8.433 10.928,8.433 H 25.37 v 0 c 0.832,0 1.508,0.676 1.508,1.508 v 0 c 0,0.832 -0.676,1.507 -1.508,1.507 v 0 H 11.033 c -1.248,0 -2.779,0.779 -3.418,1.738 v 0 C 6.977,14.145 6.366,15.932 6.252,17.175 L 4.54,35.917 c -0.076,0.829 0.538,1.501 1.37,1.501 H 6.4 c 0.832,0 1.71,-0.644 1.959,-1.438 l 1.886,-5.998 c 0.374,-1.19 1.691,-2.157 2.939,-2.157 z M 32.702,11.448 v 0 c -0.832,0 -1.507,-0.675 -1.507,-1.507 v 0 c 0,-0.832 0.675,-1.508 1.507,-1.508 v 0 h 4.37 c 2.08,0 4.601,1.248 5.627,2.785 v 0 c 1.025,1.538 1.989,4.469 2.15,6.543 l 1.471,18.915 c 0.161,2.074 -1.396,3.757 -3.476,3.757 h -1.606 c -2.08,0 -4.489,-1.527 -5.376,-3.409 L 33.268,31.522 C 33.091,31.146 32.609,30.84 32.193,30.84 h -5.932 v 0 c -0.832,0 -1.507,-0.675 -1.507,-1.507 v 0 c 0,-0.832 0.675,-1.508 1.507,-1.508 v 0 h 6.882 c 0.832,0 1.795,0.611 2.15,1.364 l 3.237,6.866 c 0.355,0.752 1.318,1.363 2.15,1.363 h 1.41 c 0.832,0 1.446,-0.672 1.37,-1.501 L 41.748,17.175 c -0.114,-1.243 -0.725,-3.03 -1.363,-3.989 v 0 c -0.639,-0.959 -2.17,-1.738 -3.418,-1.738 z m -22.408,7.22 v 1.972 h 2.476 c 0.403,0 0.73,0.327 0.73,0.73 v 2.476 h 1.971 v -2.477 c 0,-0.403 0.327,-0.73 0.73,-0.73 h 2.477 v -1.97 h -2.477 c -0.403,0 -0.73,-0.327 -0.73,-0.73 V 15.462 H 13.5 v 2.476 c 0,0.403 -0.327,0.73 -0.73,0.73 z M 35.02,19.43 c 0,-0.828 0.672,-1.5 1.5,-1.5 0.828,0 1.5,0.672 1.5,1.5 0,0.828 -0.672,1.5 -1.5,1.5 -0.828,0 -1.5,-0.672 -1.5,-1.5 z m -6,0 c 0,-0.828 0.672,-1.5 1.5,-1.5 0.828,0 1.5,0.672 1.5,1.5 0,0.828 -0.672,1.5 -1.5,1.5 -0.828,0 -1.5,-0.672 -1.5,-1.5 z m 4.5,-4.5 c 0.828,0 1.5,0.672 1.5,1.5 0,0.828 -0.672,1.5 -1.5,1.5 -0.828,0 -1.5,-0.672 -1.5,-1.5 0,-0.828 0.672,-1.5 1.5,-1.5 z M 12.77,14.001 h 3.431 c 0.403,0 0.73,0.327 0.73,0.73 v 2.477 h 2.477 c 0.403,0 0.73,0.327 0.73,0.73 v 3.431 l -0.001,0.001 v 0 c 0,0.403 -0.327,0.73 -0.73,0.729 H 16.93 v 2.477 c 0,0.403 -0.327,0.73 -0.729,0.73 H 12.77 c -0.403,0 -0.73,-0.327 -0.73,-0.73 V 22.099 H 9.564 c -0.403,0 -0.73,-0.326 -0.73,-0.729 v -3.431 c 0,-0.403 0.327,-0.73 0.73,-0.73 h 2.476 v -2.478 c 0,-0.403 0.327,-0.73 0.73,-0.73 z m 20.75,6.929 c 0.828,0 1.5,0.672 1.5,1.5 0,0.828 -0.672,1.5 -1.5,1.5 -0.828,0 -1.5,-0.672 -1.5,-1.5 0,-0.828 0.672,-1.5 1.5,-1.5 z"
       style="fill:url(#_lgradient_4);fill-rule:evenodd"
       inkscape:connector-curvature="0" />
  </g>
</svg>
