<?xml version="1.0" encoding="UTF-8" standalone="no"?>
<!-- Generator: Gravit.io -->

<svg
   xmlns:dc="http://purl.org/dc/elements/1.1/"
   xmlns:cc="http://creativecommons.org/ns#"
   xmlns:rdf="http://www.w3.org/1999/02/22-rdf-syntax-ns#"
   xmlns:svg="http://www.w3.org/2000/svg"
   xmlns="http://www.w3.org/2000/svg"
   xmlns:sodipodi="http://sodipodi.sourceforge.net/DTD/sodipodi-0.dtd"
   xmlns:inkscape="http://www.inkscape.org/namespaces/inkscape"
   style="isolation:isolate"
   viewBox="0 0 48 48"
   width="48"
   height="48"
   version="1.1"
   id="svg25"
   sodipodi:docname="applications-utilities.svg"
   inkscape:version="0.92.4 (5da689c313, 2019-01-14)">
  <metadata
     id="metadata31">
    <rdf:RDF>
      <cc:Work
         rdf:about="">
        <dc:format>image/svg+xml</dc:format>
        <dc:type
           rdf:resource="http://purl.org/dc/dcmitype/StillImage" />
        <dc:title></dc:title>
      </cc:Work>
    </rdf:RDF>
  </metadata>
  <defs
     id="defs29">
    <linearGradient
       gradientUnits="userSpaceOnUse"
       gradientTransform="matrix(38,0,0,23,7,20)"
       y2="0.5"
       x2="1"
       y1="0.5"
       x1="0"
       id="_lgradient_18">
      <stop
         id="stop2"
         style="stop-color:rgb(52,148,230)"
         stop-opacity="1"
         offset="0%" />
      <stop
         id="stop4"
         style="stop-color:rgb(236,110,173)"
         stop-opacity="1"
         offset="98.69565217391305%" />
    </linearGradient>
  </defs>
  <sodipodi:namedview
     pagecolor="#ffffff"
     bordercolor="#666666"
     borderopacity="1"
     objecttolerance="10"
     gridtolerance="10"
     guidetolerance="10"
     inkscape:pageopacity="0"
     inkscape:pageshadow="2"
     inkscape:window-width="640"
     inkscape:window-height="480"
     id="namedview27"
     showgrid="false"
     inkscape:zoom="39.153656"
     inkscape:cx="18.994082"
     inkscape:cy="24"
     inkscape:current-layer="svg25" />
  <linearGradient
     id="_lgradient_19"
     x1="1.4159521"
     y1="29.936714"
     x2="34.31152"
     y2="29.936714"
     gradientTransform="scale(1.338365,0.74718033)"
     gradientUnits="userSpaceOnUse">
    <stop
       offset="0%"
       stop-opacity="1"
       style="stop-color:rgb(52,148,230)"
       id="stop11" />
    <stop
       offset="98.69565217391305%"
       stop-opacity="1"
       style="stop-color:rgb(236,110,173)"
       id="stop13" />
  </linearGradient>
  <linearGradient
     id="_lgradient_20"
     x1="0"
     y1="0.5"
     x2="1"
     y2="0.5"
     gradientTransform="matrix(44,0,0,44,2,2)"
     gradientUnits="userSpaceOnUse">
    <stop
       offset="0%"
       stop-opacity="1"
       style="stop-color:rgb(52,148,230)"
       id="stop18" />
    <stop
       offset="98.69565217391305%"
       stop-opacity="1"
       style="stop-color:rgb(236,110,173)"
       id="stop20" />
  </linearGradient>
  <g
     id="g845"
     transform="matrix(1.0883135,0,0,1.0883135,-2.0624206,-2.119524)">
    <path
       d="M 10,21.5 C 10,20.672 10.672,20 11.5,20 12.328,20 13,20.672 13,21.5 13,22.328 12.328,23 11.5,23 10.672,23 10,22.328 10,21.5 Z m -3,5 C 7,25.672 7.672,25 8.5,25 9.328,25 10,25.672 10,26.5 10,27.328 9.328,28 8.5,28 7.672,28 7,27.328 7,26.5 Z m 0,5 C 7,30.672 7.672,30 8.5,30 9.328,30 10,30.672 10,31.5 10,32.328 9.328,33 8.5,33 7.672,33 7,32.328 7,31.5 Z m 5,-5 C 12,25.672 12.672,25 13.5,25 14.328,25 15,25.672 15,26.5 15,27.328 14.328,28 13.5,28 12.672,28 12,27.328 12,26.5 Z m 2,5 C 14,30.672 14.672,30 15.5,30 16.328,30 17,30.672 17,31.5 17,32.328 16.328,33 15.5,33 14.672,33 14,32.328 14,31.5 Z m 20,1 C 34,31.672 34.672,31 35.5,31 36.328,31 37,31.672 37,32.5 37,33.328 36.328,34 35.5,34 34.672,34 34,33.328 34,32.5 Z m 5,-1 C 39,30.672 39.672,30 40.5,30 41.328,30 42,30.672 42,31.5 42,32.328 41.328,33 40.5,33 39.672,33 39,32.328 39,31.5 Z m 0,-5 C 39,25.672 39.672,25 40.5,25 41.328,25 42,25.672 42,26.5 42,27.328 41.328,28 40.5,28 39.672,28 39,27.328 39,26.5 Z M 7,37.5 C 7,36.672 7.672,36 8.5,36 9.328,36 10,36.672 10,37.5 10,38.328 9.328,39 8.5,39 7.672,39 7,38.328 7,37.5 Z m 5,0 C 12,36.672 12.672,36 13.5,36 14.328,36 15,36.672 15,37.5 15,38.328 14.328,39 13.5,39 12.672,39 12,38.328 12,37.5 Z m 5,0 C 17,36.672 17.672,36 18.5,36 19.328,36 20,36.672 20,37.5 20,38.328 19.328,39 18.5,39 17.672,39 17,38.328 17,37.5 Z m 5,0 C 22,36.672 22.672,36 23.5,36 24.328,36 25,36.672 25,37.5 25,38.328 24.328,39 23.5,39 22.672,39 22,38.328 22,37.5 Z m 5,0 C 27,36.672 27.672,36 28.5,36 29.328,36 30,36.672 30,37.5 30,38.328 29.328,39 28.5,39 27.672,39 27,38.328 27,37.5 Z m 5,0 C 32,36.672 32.672,36 33.5,36 34.328,36 35,36.672 35,37.5 35,38.328 34.328,39 33.5,39 32.672,39 32,38.328 32,37.5 Z m 5,0 C 37,36.672 37.672,36 38.5,36 39.328,36 40,36.672 40,37.5 40,38.328 39.328,39 38.5,39 37.672,39 37,38.328 37,37.5 Z m 5,-1 C 42,35.672 42.672,35 43.5,35 44.328,35 45,35.672 45,36.5 45,37.328 44.328,38 43.5,38 42.672,38 42,37.328 42,36.5 Z m 0,5 C 42,40.672 42.672,40 43.5,40 44.328,40 45,40.672 45,41.5 45,42.328 44.328,43 43.5,43 42.672,43 42,42.328 42,41.5 Z"
       id="path7"
       style="fill:url(#_lgradient_18);fill-rule:evenodd"
       inkscape:connector-curvature="0" />
    <path
       id="path16"
       stroke-miterlimit="3"
       d="m 4,26 c 1.125,-0.875 -0.625,-9.875 8,-11 8.625,-1.125 2.75,20.375 14,18 Q 37.25,30.625 44,12"
       style="vector-effect:non-scaling-stroke;fill:none;stroke:url(#_lgradient_19);stroke-width:3;stroke-linecap:square;stroke-linejoin:miter;stroke-miterlimit:3"
       inkscape:connector-curvature="0" />
    <path
       id="path23"
       d="m 42,36.73 v 0 c 0,-1.104 0.896,-2 2,-2 v 0 c 1.104,0 2,0.896 2,2 v 0 4.27 c 0,2.76 -2.24,5 -5,5 H 7 C 4.24,46 2,43.76 2,41 V 7 C 2,4.24 4.24,2 7,2 h 34 c 2.76,0 5,2.24 5,5 v 17.64 0 c 0,1.104 -0.896,2 -2,2 v 0 c -1.104,0 -2,-0.896 -2,-2 v 0 V 9 C 42,7.344 40.656,6 39,6 H 9 C 7.344,6 6,7.344 6,9 v 30 c 0,1.656 1.344,3 3,3 h 30 c 1.656,0 3,-1.344 3,-3 z"
       style="fill:url(#_lgradient_20)"
       inkscape:connector-curvature="0" />
  </g>
</svg>
