<?xml version="1.0" encoding="UTF-8" standalone="no"?>
<!-- Generator: Gravit.io -->

<svg
   xmlns:dc="http://purl.org/dc/elements/1.1/"
   xmlns:cc="http://creativecommons.org/ns#"
   xmlns:rdf="http://www.w3.org/1999/02/22-rdf-syntax-ns#"
   xmlns:svg="http://www.w3.org/2000/svg"
   xmlns="http://www.w3.org/2000/svg"
   xmlns:sodipodi="http://sodipodi.sourceforge.net/DTD/sodipodi-0.dtd"
   xmlns:inkscape="http://www.inkscape.org/namespaces/inkscape"
   style="isolation:isolate"
   viewBox="0 0 36 36"
   width="48"
   height="48"
   version="1.1"
   id="svg41"
   sodipodi:docname="applications-graphics.svg"
   inkscape:version="0.92.4 (5da689c313, 2019-01-14)">
  <metadata
     id="metadata47">
    <rdf:RDF>
      <cc:Work
         rdf:about="">
        <dc:format>image/svg+xml</dc:format>
        <dc:type
           rdf:resource="http://purl.org/dc/dcmitype/StillImage" />
        <dc:title></dc:title>
      </cc:Work>
    </rdf:RDF>
  </metadata>
  <defs
     id="defs45" />
  <sodipodi:namedview
     pagecolor="#ffffff"
     bordercolor="#666666"
     borderopacity="1"
     objecttolerance="10"
     gridtolerance="10"
     guidetolerance="10"
     inkscape:pageopacity="0"
     inkscape:pageshadow="2"
     inkscape:window-width="640"
     inkscape:window-height="480"
     id="namedview43"
     showgrid="false"
     inkscape:zoom="29.365243"
     inkscape:cx="25.325443"
     inkscape:cy="32"
     inkscape:current-layer="svg41"
     units="px" />
  <linearGradient
     id="_lgradient_86"
     x1="0"
     y1="0.5"
     x2="1"
     y2="0.5"
     gradientTransform="matrix(47,0,0,47,0.5,0.5)"
     gradientUnits="userSpaceOnUse">
    <stop
       offset="0%"
       stop-opacity="1"
       style="stop-color:rgb(34,216,143)"
       id="stop2" />
    <stop
       offset="51.73913043478261%"
       stop-opacity="1"
       style="stop-color:rgb(147,135,218)"
       id="stop4" />
    <stop
       offset="98.69565217391305%"
       stop-opacity="1"
       style="stop-color:rgb(255,89,230)"
       id="stop6" />
  </linearGradient>
  <linearGradient
     id="_lgradient_87"
     x1="0"
     y1="0.5"
     x2="1"
     y2="0.5"
     gradientTransform="matrix(7,0,0,7,13,30)"
     gradientUnits="userSpaceOnUse">
    <stop
       offset="0%"
       stop-opacity="1"
       style="stop-color:rgb(84,51,255)"
       id="stop11" />
    <stop
       offset="51.73913043478261%"
       stop-opacity="1"
       style="stop-color:rgb(32,189,255)"
       id="stop13" />
    <stop
       offset="98.26086956521739%"
       stop-opacity="1"
       style="stop-color:rgb(165,254,203)"
       id="stop15" />
  </linearGradient>
  <linearGradient
     id="_lgradient_88"
     x1="0"
     y1="0.5"
     x2="1"
     y2="0.5"
     gradientTransform="matrix(7,0,0,7,8,19)"
     gradientUnits="userSpaceOnUse">
    <stop
       offset="0%"
       stop-opacity="1"
       style="stop-color:rgb(255,229,59)"
       id="stop20" />
    <stop
       offset="98.69565217391305%"
       stop-opacity="1"
       style="stop-color:rgb(255,0,91)"
       id="stop22" />
  </linearGradient>
  <linearGradient
     id="_lgradient_89"
     x1="0"
     y1="0.5"
     x2="0.90748805"
     y2="0.92007786"
     gradientTransform="matrix(7,0,0,7,15,9)"
     gradientUnits="userSpaceOnUse">
    <stop
       offset="0%"
       stop-opacity="1"
       style="stop-color:rgb(0,255,216)"
       id="stop27" />
    <stop
       offset="83.88839793817618%"
       stop-opacity="1"
       style="stop-color:rgb(0,255,184)"
       id="stop29" />
  </linearGradient>
  <linearGradient
     id="_lgradient_90"
     x1="0"
     y1="0.5"
     x2="0.90748805"
     y2="0.92007786"
     gradientTransform="matrix(7,0,0,7,27,8)"
     gradientUnits="userSpaceOnUse">
    <stop
       offset="0%"
       stop-opacity="1"
       style="stop-color:rgb(247,241,7)"
       id="stop34" />
    <stop
       offset="83.88839793817618%"
       stop-opacity="1"
       style="stop-color:rgb(255,187,36)"
       id="stop36" />
  </linearGradient>
  <g
     id="g859"
     transform="matrix(0.76595646,0,0,0.76595646,-0.38295504,-0.38295504)">
    <path
       id="path9"
       d="M 43.5,23.999 C 42.586,31.312 33.323,29.058 29.132,29.131 19.064,30.398 32.61,41.525 28.394,42.983 26.953,43.321 25.548,43.5 24.001,43.5 13.198,43.5 4.5,34.802 4.5,23.999 4.5,13.197 13.198,4.5 24.001,4.5 34.803,4.5 43.5,13.197 43.5,23.999 Z M 29.64,33.14 c 0.01,0.02 0.02,0.04 0.03,0.06 0.4,0.86 0.83,1.71 1.31,2.53 0.48,0.84 0.93,1.7 1.35,2.57 0.22,0.48 0.42,0.98 0.57,1.48 0.21,0.63 0.32,1.28 0.33,1.94 0.03,1.11 -0.29,2.19 -0.91,3.1 -0.71,1 -1.74,1.72 -2.92,2.04 -1.77,0.42 -3.58,0.64 -5.39,0.64 C 17.77,47.51 11.78,45.03 7.37,40.63 2.97,36.22 0.49,30.23 0.5,24 0.49,17.77 2.97,11.78 7.37,7.37 11.78,2.97 17.77,0.49 24,0.5 c 6.23,-0.01 12.22,2.47 16.63,6.87 4.4,4.41 6.88,10.4 6.87,16.63 0,0.14 -0.01,0.27 -0.02,0.41 -0.17,1.65 -0.74,3.24 -1.66,4.62 -0.88,1.25 -2.06,2.27 -3.42,2.96 -1.17,0.58 -2.42,0.98 -3.71,1.17 -1.14,0.17 -2.3,0.26 -3.45,0.24 -1.25,-0.01 -2.5,-0.07 -3.74,-0.16 -0.62,-0.06 -1.24,-0.09 -1.86,-0.1 z M 47.5,24 m 0,0 v 0 0 c 0,0 0,0 0,0 z"
       inkscape:connector-curvature="0"
       style="fill:url(#_lgradient_86);fill-rule:evenodd" />
    <path
       id="path18"
       d="M 13,33.5 C 13,31.568 14.568,30 16.5,30 18.432,30 20,31.568 20,33.5 20,35.432 18.432,37 16.5,37 14.568,37 13,35.432 13,33.5 Z"
       inkscape:connector-curvature="0"
       style="fill:url(#_lgradient_87)" />
    <path
       id="path25"
       d="M 8,22.5 C 8,20.568 9.568,19 11.5,19 13.432,19 15,20.568 15,22.5 15,24.432 13.432,26 11.5,26 9.568,26 8,24.432 8,22.5 Z"
       inkscape:connector-curvature="0"
       style="fill:url(#_lgradient_88)" />
    <path
       id="path32"
       d="M 15,12.5 C 15,10.568 16.568,9 18.5,9 20.432,9 22,10.568 22,12.5 22,14.432 20.432,16 18.5,16 16.568,16 15,14.432 15,12.5 Z"
       inkscape:connector-curvature="0"
       style="fill:url(#_lgradient_89)" />
    <path
       id="path39"
       d="M 27,11.5 C 27,9.568 28.568,8 30.5,8 32.432,8 34,9.568 34,11.5 34,13.432 32.432,15 30.5,15 28.568,15 27,13.432 27,11.5 Z"
       inkscape:connector-curvature="0"
       style="fill:url(#_lgradient_90)" />
  </g>
</svg>
