<?xml version="1.0" encoding="UTF-8" standalone="no"?>
<!-- Generator: Gravit.io -->

<svg
   xmlns:dc="http://purl.org/dc/elements/1.1/"
   xmlns:cc="http://creativecommons.org/ns#"
   xmlns:rdf="http://www.w3.org/1999/02/22-rdf-syntax-ns#"
   xmlns:svg="http://www.w3.org/2000/svg"
   xmlns="http://www.w3.org/2000/svg"
   xmlns:sodipodi="http://sodipodi.sourceforge.net/DTD/sodipodi-0.dtd"
   xmlns:inkscape="http://www.inkscape.org/namespaces/inkscape"
   style="isolation:isolate"
   viewBox="0 0 36 36"
   width="48"
   height="48"
   version="1.1"
   id="svg11"
   sodipodi:docname="applets-screenshooter.svg"
   inkscape:version="0.92.4 (5da689c313, 2019-01-14)">
  <metadata
     id="metadata17">
    <rdf:RDF>
      <cc:Work
         rdf:about="">
        <dc:format>image/svg+xml</dc:format>
        <dc:type
           rdf:resource="http://purl.org/dc/dcmitype/StillImage" />
        <dc:title></dc:title>
      </cc:Work>
    </rdf:RDF>
  </metadata>
  <defs
     id="defs15" />
  <sodipodi:namedview
     pagecolor="#ffffff"
     bordercolor="#666666"
     borderopacity="1"
     objecttolerance="10"
     gridtolerance="10"
     guidetolerance="10"
     inkscape:pageopacity="0"
     inkscape:pageshadow="2"
     inkscape:window-width="640"
     inkscape:window-height="480"
     id="namedview13"
     showgrid="false"
     inkscape:zoom="29.365243"
     inkscape:cx="25.325443"
     inkscape:cy="32"
     inkscape:current-layer="svg11"
     units="px" />
  <linearGradient
     id="_lgradient_17"
     x1="-0.078021362"
     y1="0.17387"
     x2="0.90886897"
     y2="0.92585009"
     gradientTransform="matrix(44.964,0,0,39,1.518,4.5)"
     gradientUnits="userSpaceOnUse">
    <stop
       offset="2.1739130434782608%"
       stop-opacity="1"
       style="stop-color:rgb(242,79,92)"
       id="stop2" />
    <stop
       offset="49.56521739130435%"
       stop-opacity="1"
       style="stop-color:rgb(208,103,207)"
       id="stop4" />
    <stop
       offset="98.26086956521739%"
       stop-opacity="1"
       style="stop-color:rgb(49,193,233)"
       id="stop6" />
  </linearGradient>
  <g
     id="g825"
     transform="matrix(0.80064051,0,0,0.80064051,-1.2153722,-1.2153722)">
    <path
       id="path9"
       d="m 32.315,40.936 h 0.988 8.011 c 2.852,0 5.168,-2.316 5.168,-5.168 V 17.485 13.544 c 0,-2.852 -2.316,-5.168 -5.168,-5.168 H 13.147 v 0 V 8.118 6.567 C 13.147,5.426 12.22,4.5 11.079,4.5 H 5.911 C 4.77,4.5 3.844,5.426 3.844,6.567 v 1.551 1.11 c -1.401,0.925 -2.326,2.514 -2.326,4.316 v 1.809 0 c 0,0.999 0.811,1.809 1.809,1.809 v 0 c 0.998,0 1.809,-0.81 1.809,-1.809 v 0 0 0 0 -0.258 c 0,-1.712 1.389,-3.101 3.101,-3.101 h 31.526 c 1.712,0 3.101,1.389 3.101,3.101 v 8.528 h -7.031 c -0.556,-0.937 -1.23,-1.808 -2.013,-2.59 -2.467,-2.459 -5.816,-3.85 -9.3,-3.85 -3.493,0 -6.842,1.391 -9.31,3.85 -0.782,0.782 -1.455,1.653 -2.01,2.59 H 5.136 v 0 0 0 0 -1.034 0 c 0,-0.998 -0.811,-1.809 -1.809,-1.809 v 0 c -0.998,0 -1.809,0.811 -1.809,1.809 v 0 13.179 c 0,2.852 2.316,5.168 5.168,5.168 h 8.011 2.019 c 2.246,1.654 4.978,2.564 7.804,2.564 2.819,0 5.549,-0.91 7.795,-2.564 z m 3.356,-3.618 h 4.092 c 1.712,0 3.101,-1.389 3.101,-3.101 v -7.494 0 0 H 37.17 c 0.334,1.167 0.508,2.384 0.508,3.619 0,2.484 -0.707,4.9 -2.007,6.976 z m -22.309,0 H 8.237 c -1.712,0 -3.101,-1.389 -3.101,-3.101 v -7.494 h 6.73 c -0.332,1.167 -0.505,2.384 -0.505,3.619 v 0 c 0,2.484 0.703,4.9 2.001,6.976 z M 10.046,8.376 H 6.945 V 8.118 7.601 h 3.101 v 0.517 z m 13.303,19.66 v 0 c -0.508,0.257 -1.131,0.053 -1.39,-0.455 v 0 c -0.26,-0.507 -0.059,-1.128 0.449,-1.385 v 0 c 0.651,-0.33 1.375,-0.506 2.109,-0.506 1.064,0 2.098,0.362 2.925,1.033 0.827,0.662 1.395,1.592 1.623,2.636 v 0 c 0.12,0.559 -0.235,1.111 -0.791,1.23 v 0 c -0.556,0.12 -1.11,-0.236 -1.235,-0.796 v 0 c -0.124,-0.578 -0.445,-1.095 -0.899,-1.467 -0.455,-0.362 -1.034,-0.569 -1.623,-0.569 -0.403,0 -0.806,0.093 -1.168,0.279 z m 2.977,8.507 v 0 c 0.684,-0.199 1.402,0.194 1.602,0.879 v 0 c 0.2,0.684 -0.199,1.402 -0.889,1.602 v 0 c -0.817,0.238 -1.664,0.362 -2.522,0.362 -2.398,0 -4.703,-0.951 -6.398,-2.646 -1.696,-1.696 -2.647,-4.001 -2.647,-6.399 0,-2.398 0.951,-4.703 2.647,-6.398 1.695,-1.695 4,-2.646 6.398,-2.646 2.398,0 4.703,0.951 6.398,2.646 1.695,1.695 2.646,4 2.646,6.398 0,1.695 -0.475,3.36 -1.374,4.796 v 0 c -0.377,0.605 -1.174,0.788 -1.778,0.409 v 0 c -0.605,-0.38 -0.79,-1.179 -0.414,-1.783 v 0 c 0.641,-1.024 0.982,-2.212 0.982,-3.422 0,-1.716 -0.682,-3.359 -1.891,-4.568 -1.21,-1.21 -2.853,-1.892 -4.569,-1.892 -1.716,0 -3.36,0.682 -4.569,1.892 -1.209,1.209 -1.891,2.852 -1.891,4.568 0,1.716 0.682,3.36 1.891,4.569 1.209,1.209 2.853,1.892 4.569,1.892 0.61,0 1.22,-0.083 1.809,-0.259 z M 34.337,14.32 h 5.168 c 0.57,0 1.033,0.463 1.033,1.033 v 1.034 c 0,0.57 -0.463,1.034 -1.033,1.034 h -5.168 c -0.571,0 -1.034,-0.464 -1.034,-1.034 v -1.034 c 0,-0.57 0.463,-1.033 1.034,-1.033 z M 13.905,30.342 c 0,-2.815 1.119,-5.52 3.103,-7.504 1.992,-1.992 4.697,-3.111 7.512,-3.111 2.814,0 5.51,1.119 7.503,3.111 1.992,1.984 3.111,4.689 3.111,7.504 0,2.815 -1.119,5.519 -3.111,7.503 -1.993,1.992 -4.689,3.112 -7.503,3.112 -2.815,0 -5.52,-1.12 -7.512,-3.112 -1.984,-1.984 -3.103,-4.688 -3.103,-7.503 z"
       inkscape:connector-curvature="0"
       style="fill:url(#_lgradient_17);fill-rule:evenodd" />
  </g>
</svg>
