<?xml version="1.0" encoding="UTF-8" standalone="no"?>
<!-- Generator: Gravit.io -->

<svg
   xmlns:dc="http://purl.org/dc/elements/1.1/"
   xmlns:cc="http://creativecommons.org/ns#"
   xmlns:rdf="http://www.w3.org/1999/02/22-rdf-syntax-ns#"
   xmlns:svg="http://www.w3.org/2000/svg"
   xmlns="http://www.w3.org/2000/svg"
   xmlns:sodipodi="http://sodipodi.sourceforge.net/DTD/sodipodi-0.dtd"
   xmlns:inkscape="http://www.inkscape.org/namespaces/inkscape"
   style="isolation:isolate"
   viewBox="0 0 36 36"
   width="48"
   height="48"
   version="1.1"
   id="svg11"
   sodipodi:docname="arcolinux-hello.svg"
   inkscape:version="0.92.4 (5da689c313, 2019-01-14)">
  <metadata
     id="metadata17">
    <rdf:RDF>
      <cc:Work
         rdf:about="">
        <dc:format>image/svg+xml</dc:format>
        <dc:type
           rdf:resource="http://purl.org/dc/dcmitype/StillImage" />
        <dc:title></dc:title>
      </cc:Work>
    </rdf:RDF>
  </metadata>
  <defs
     id="defs15" />
  <sodipodi:namedview
     pagecolor="#ffffff"
     bordercolor="#666666"
     borderopacity="1"
     objecttolerance="10"
     gridtolerance="10"
     guidetolerance="10"
     inkscape:pageopacity="0"
     inkscape:pageshadow="2"
     inkscape:window-width="640"
     inkscape:window-height="480"
     id="namedview13"
     showgrid="false"
     inkscape:zoom="29.365243"
     inkscape:cx="25.325443"
     inkscape:cy="32"
     inkscape:current-layer="svg11"
     units="px" />
  <linearGradient
     id="_lgradient_19"
     x1="-0.014458464"
     y1="0.009839246"
     x2="1.0164566"
     y2="1.072293"
     gradientTransform="matrix(45,0,0,45.004,1.5,1.498)"
     gradientUnits="userSpaceOnUse">
    <stop
       offset="0%"
       stop-opacity="1"
       style="stop-color:rgb(249,212,35)"
       id="stop2" />
    <stop
       offset="51.56237565086822%"
       stop-opacity="1"
       style="stop-color:rgb(255,78,80)"
       id="stop4" />
    <stop
       offset="99.1304347826087%"
       stop-opacity="1"
       style="stop-color:rgb(138,35,135)"
       id="stop6" />
  </linearGradient>
  <g
     id="g825"
     transform="matrix(0.7999289,0,0,0.7999289,-1.1982936,-1.1982936)">
    <path
       id="path9"
       d="m 23.996,1.498 c -2.004,4.911 -3.21,8.121 -5.441,12.886 1.368,1.449 3.044,3.139 5.77,5.045 C 21.394,18.223 19.394,17.011 17.9,15.755 15.046,21.711 10.576,30.197 1.5,46.502 8.462,42.483 12.296,39.979 17.268,38.96 15.808,37.318 15,35.198 14.996,33.001 c 0,-2.387 0.948,-4.677 2.636,-6.365 C 19.319,24.948 21.609,24 23.996,24 c 4.97,0 9,4.03 9,9.001 -0.005,2.201 -0.817,4.325 -2.281,5.968 4.975,1.031 8.864,3.538 15.785,7.533 -1.388,-2.554 -2.627,-4.857 -3.81,-7.049 -1.863,-1.444 -3.806,-3.324 -7.77,-5.358 2.725,0.708 4.676,1.522 6.197,2.435 C 29.093,14.145 28.12,11.174 23.996,1.498 Z m 0,27.002 -2.25,4.501 h -4.5 l 3.001,3.002 -3.001,5.999 6.75,-2.25 6.75,2.25 -3.002,-5.999 3.002,-3.002 h -4.5 z"
       inkscape:connector-curvature="0"
       style="fill:url(#_lgradient_19);fill-rule:evenodd" />
  </g>
</svg>
