<?xml version="1.0" encoding="UTF-8" standalone="no"?>
<!-- Generator: Gravit.io -->

<svg
   xmlns:dc="http://purl.org/dc/elements/1.1/"
   xmlns:cc="http://creativecommons.org/ns#"
   xmlns:rdf="http://www.w3.org/1999/02/22-rdf-syntax-ns#"
   xmlns:svg="http://www.w3.org/2000/svg"
   xmlns="http://www.w3.org/2000/svg"
   xmlns:sodipodi="http://sodipodi.sourceforge.net/DTD/sodipodi-0.dtd"
   xmlns:inkscape="http://www.inkscape.org/namespaces/inkscape"
   style="isolation:isolate"
   viewBox="0 0 36 36"
   width="48"
   height="48"
   version="1.1"
   id="svg16"
   sodipodi:docname="arduino.svg"
   inkscape:version="0.92.4 (5da689c313, 2019-01-14)">
  <metadata
     id="metadata22">
    <rdf:RDF>
      <cc:Work
         rdf:about="">
        <dc:format>image/svg+xml</dc:format>
        <dc:type
           rdf:resource="http://purl.org/dc/dcmitype/StillImage" />
        <dc:title></dc:title>
      </cc:Work>
    </rdf:RDF>
  </metadata>
  <defs
     id="defs20" />
  <sodipodi:namedview
     pagecolor="#ffffff"
     bordercolor="#666666"
     borderopacity="1"
     objecttolerance="10"
     gridtolerance="10"
     guidetolerance="10"
     inkscape:pageopacity="0"
     inkscape:pageshadow="2"
     inkscape:window-width="640"
     inkscape:window-height="480"
     id="namedview18"
     showgrid="false"
     inkscape:zoom="29.365243"
     inkscape:cx="25.325443"
     inkscape:cy="32"
     inkscape:current-layer="svg16"
     units="px" />
  <linearGradient
     id="_lgradient_41"
     x1="0"
     y1="0.5"
     x2="2.2930751"
     y2="0.52940392"
     gradientTransform="matrix(22.51,0,0,23.5,0.352,12.25)"
     gradientUnits="userSpaceOnUse">
    <stop
       offset="0%"
       stop-opacity="1"
       style="stop-color:rgb(24,208,173)"
       id="stop2" />
    <stop
       offset="90.44964029999998%"
       stop-opacity="1"
       style="stop-color:rgb(7,195,242)"
       id="stop4" />
  </linearGradient>
  <linearGradient
     id="_lgradient_42"
     x1="-0.61979342"
     y1="0.47606382"
     x2="1.0654424"
     y2="0.50252736"
     gradientTransform="matrix(29.006,0,0,23.5,18.642,12.25)"
     gradientUnits="userSpaceOnUse">
    <stop
       offset="0%"
       stop-opacity="1"
       style="stop-color:rgb(24,208,173)"
       id="stop9" />
    <stop
       offset="90.44964029999998%"
       stop-opacity="1"
       style="stop-color:rgb(7,195,242)"
       id="stop11" />
  </linearGradient>
  <g
     id="g831"
     transform="matrix(0.76117014,0,0,0.76117014,-0.2679319,-0.26808336)">
    <path
       id="path7"
       d="m 18.972,28.56 0.97,-1.46 2.92,1.94 -0.97,1.46 c -2.18,3.27 -5.86,5.25 -9.79,5.25 -3.11,0 -6.11,-1.24 -8.31,-3.44 -2.2,-2.2 -3.44,-5.19 -3.44,-8.31 0,-3.12 1.24,-6.11 3.44,-8.31 2.2,-2.2 5.19,-3.44 8.31,-3.44 2.63,0 5.18,0.88 7.25,2.51 v 0 c 0.762,0.596 0.896,1.696 0.3,2.455 v 0 c -0.596,0.759 -1.698,0.891 -2.46,0.295 v 0 c -1.45,-1.14 -3.24,-1.76 -5.09,-1.76 -2.19,0 -4.29,0.87 -5.83,2.42 -1.55,1.54 -2.42,3.64 -2.42,5.83 0,2.19 0.87,4.29 2.42,5.83 1.54,1.55 3.64,2.42 5.83,2.42 2.76,0 5.35,-1.39 6.87,-3.69 z M 8.819,22.804 h 5.741 c 0.529,0 0.957,0.429 0.957,0.957 v 0.478 c 0,0.528 -0.428,0.957 -0.957,0.957 H 8.819 c -0.528,0 -0.957,-0.429 -0.957,-0.957 v -0.478 c 0,-0.528 0.429,-0.957 0.957,-0.957 z"
       style="fill:url(#_lgradient_41);fill-rule:evenodd"
       inkscape:connector-curvature="0" />
    <path
       id="path14"
       d="M 35.374,22.804 H 33.7 v 0 c -0.528,0 -0.957,0.429 -0.957,0.957 v 0.478 c 0,0.528 0.429,0.957 0.957,0.957 h 1.674 v 1.675 c 0,0.528 0.429,0.957 0.957,0.957 h 0.479 c 0.528,0 0.957,-0.429 0.957,-0.957 v -1.675 h 1.675 c 0.528,0 0.957,-0.429 0.957,-0.957 v -0.478 c 0,-0.528 -0.429,-0.957 -0.957,-0.957 h -1.675 v -1.675 c 0,-0.528 -0.429,-0.957 -0.957,-0.957 h -0.479 c -0.528,0 -0.957,0.429 -0.957,0.957 z m -9.117,1.124 3.292,5.082 c 1.553,2.029 3.976,3.24 6.553,3.24 2.38,0 4.65,-1.03 6.22,-2.83 v 0 c 0.635,-0.729 1.742,-0.805 2.47,-0.17 v 0 c 0.729,0.635 0.805,1.741 0.17,2.47 v 0 c -2.23,2.56 -5.47,4.03 -8.86,4.03 -3.744,0 -7.25,-1.788 -9.459,-4.781 v 0 L 26.642,30.97 26.628,30.948 C 26.495,30.766 26.366,30.58 26.242,30.39 l -0.95,-1.46 0.02,-0.013 -1.174,-1.811 -2.576,3.864 -1.46,-0.97 v 0 l -1.46,-0.97 7.14,-10.71 0.48,-0.73 c 0.098,-0.15 0.198,-0.298 0.302,-0.443 l 0.078,-0.117 0.005,0.003 c 2.199,-2.996 5.712,-4.783 9.455,-4.783 2.7,0 5.33,0.93 7.42,2.64 2.1,1.7 3.54,4.08 4.09,6.73 v 0 c 0.193,0.949 -0.418,1.877 -1.365,2.07 v 0 c -0.946,0.193 -1.872,-0.416 -2.065,-1.36 v 0 c -0.38,-1.86 -1.4,-3.53 -2.87,-4.73 -1.47,-1.2 -3.31,-1.85 -5.21,-1.85 -2.593,0 -5.022,1.218 -6.573,3.269 v 0 z"
       style="fill:url(#_lgradient_42);fill-rule:evenodd"
       inkscape:connector-curvature="0" />
  </g>
</svg>
