<?xml version="1.0" encoding="UTF-8" standalone="no"?>
<!-- Generator: Gravit.io -->

<svg
   xmlns:dc="http://purl.org/dc/elements/1.1/"
   xmlns:cc="http://creativecommons.org/ns#"
   xmlns:rdf="http://www.w3.org/1999/02/22-rdf-syntax-ns#"
   xmlns:svg="http://www.w3.org/2000/svg"
   xmlns="http://www.w3.org/2000/svg"
   xmlns:xlink="http://www.w3.org/1999/xlink"
   xmlns:sodipodi="http://sodipodi.sourceforge.net/DTD/sodipodi-0.dtd"
   xmlns:inkscape="http://www.inkscape.org/namespaces/inkscape"
   style="isolation:isolate"
   viewBox="0 0 48 48"
   width="48"
   height="48"
   version="1.1"
   id="svg30"
   sodipodi:docname="ark.svg"
   inkscape:version="0.92.4 (5da689c313, 2019-01-14)">
  <metadata
     id="metadata34">
    <rdf:RDF>
      <cc:Work
         rdf:about="">
        <dc:format>image/svg+xml</dc:format>
        <dc:type
           rdf:resource="http://purl.org/dc/dcmitype/StillImage" />
        <dc:title></dc:title>
      </cc:Work>
    </rdf:RDF>
  </metadata>
  <sodipodi:namedview
     pagecolor="#ffffff"
     bordercolor="#666666"
     borderopacity="1"
     objecttolerance="10"
     gridtolerance="10"
     guidetolerance="10"
     inkscape:pageopacity="0"
     inkscape:pageshadow="2"
     inkscape:window-width="640"
     inkscape:window-height="480"
     id="namedview32"
     showgrid="false"
     inkscape:zoom="39.153656"
     inkscape:cx="18.994082"
     inkscape:cy="24"
     inkscape:current-layer="svg30" />
  <linearGradient
     id="_lgradient_32"
     x1="0"
     y1="0.5"
     x2="1"
     y2="0.5"
     gradientTransform="matrix(-46,0,0,-46,47,47)"
     gradientUnits="userSpaceOnUse">
    <stop
       offset="0%"
       stop-opacity="1"
       style="stop-color:rgb(67,233,123)"
       id="stop2" />
    <stop
       offset="97.82608695652173%"
       stop-opacity="1"
       style="stop-color:rgb(56,249,215)"
       id="stop4" />
  </linearGradient>
  <defs
     id="defs14">
    <linearGradient
       id="_lgradient_33"
       x1="0"
       y1="0.5"
       x2="1"
       y2="0.5">
      <stop
         offset="0%"
         style="stop-color:#43E97B"
         id="stop9" />
      <stop
         offset="97.82608695652173%"
         style="stop-color:#38F9D7"
         id="stop11" />
    </linearGradient>
    <linearGradient
       inkscape:collect="always"
       xlink:href="#_lgradient_33"
       id="linearGradient826"
       x1="48.605556"
       y1="6.0178304"
       x2="55.086296"
       y2="6.0178304"
       gradientTransform="scale(0.46291005,2.1602469)"
       gradientUnits="userSpaceOnUse" />
  </defs>
  <clipPath
     id="_clipPath_fogIZqJTQx9B4msy0nvwBFTdjbriuCmw">
    <path
       d="m 24,6 v 0 c 0.828,0 1.5,0.896 1.5,2 v 12 h -3 V 8 c 0,-1.104 0.672,-2 1.5,-2 z"
       style="fill:url(#_lgradient_33);stroke:none;stroke-miterlimit:10"
       id="path18"
       inkscape:connector-curvature="0" />
  </clipPath>
  <linearGradient
     id="_lgradient_34"
     x1="0"
     y1="0.5"
     x2="1"
     y2="0.5"
     gradientTransform="matrix(8,0,0,14,20,18)"
     gradientUnits="userSpaceOnUse">
    <stop
       offset="0%"
       stop-opacity="1"
       style="stop-color:rgb(67,233,123)"
       id="stop23" />
    <stop
       offset="97.82608695652173%"
       stop-opacity="1"
       style="stop-color:rgb(56,249,215)"
       id="stop25" />
  </linearGradient>
  <g
     id="g844"
     transform="matrix(1.0434783,0,0,1.0434783,-1.0434792,-1.0434792)">
    <path
       id="path7"
       d="M 30,5 V 5 C 28.896,5 28,4.104 28,3 v 0 c 0,-1.104 0.896,-2 2,-2 v 0 h 10 c 3.863,0 7,3.137 7,7 v 32 c 0,3.863 -3.137,7 -7,7 H 8 C 4.137,47 1,43.863 1,40 V 8 C 1,4.137 4.137,1 8,1 h 10 v 0 c 1.104,0 2,0.896 2,2 v 0 c 0,1.104 -0.896,2 -2,2 V 5 H 10 C 7.24,5 5,7.24 5,10 v 28 c 0,2.76 2.24,5 5,5 h 28 c 2.76,0 5,-2.24 5,-5 V 10 C 43,7.24 40.76,5 38,5 Z"
       inkscape:connector-curvature="0"
       style="fill:url(#_lgradient_32)" />
    <path
       id="path16"
       style="fill:url(#linearGradient826);stroke:none;stroke-miterlimit:10"
       d="m 24,6 v 0 c 0.828,0 1.5,0.896 1.5,2 v 12 h -3 V 8 c 0,-1.104 0.672,-2 1.5,-2 z"
       inkscape:connector-curvature="0" />
    <path
       id="path28"
       d="m 22.5,22 c 0,-0.828 0.672,-1.5 1.5,-1.5 0.828,0 1.5,0.672 1.5,1.5 0,0.828 -0.672,1.5 -1.5,1.5 -0.828,0 -1.5,-0.672 -1.5,-1.5 z M 24,18 v 0 c 2.208,0 4,1.792 4,4 v 6 c 0,2.208 -1.792,4 -4,4 v 0 c -2.208,0 -4,-1.792 -4,-4 v -6 c 0,-2.208 1.792,-4 4,-4 z m -1.5,10 c 0,-1.104 0.672,-2 1.5,-2 0.828,0 1.5,0.896 1.5,2 0,1.104 -0.672,2 -1.5,2 -0.828,0 -1.5,-0.896 -1.5,-2 z"
       inkscape:connector-curvature="0"
       style="fill:url(#_lgradient_34);fill-rule:evenodd" />
  </g>
</svg>
