<?xml version="1.0" encoding="UTF-8" standalone="no"?>
<!-- Generator: Gravit.io -->

<svg
   xmlns:dc="http://purl.org/dc/elements/1.1/"
   xmlns:cc="http://creativecommons.org/ns#"
   xmlns:rdf="http://www.w3.org/1999/02/22-rdf-syntax-ns#"
   xmlns:svg="http://www.w3.org/2000/svg"
   xmlns="http://www.w3.org/2000/svg"
   xmlns:sodipodi="http://sodipodi.sourceforge.net/DTD/sodipodi-0.dtd"
   xmlns:inkscape="http://www.inkscape.org/namespaces/inkscape"
   style="isolation:isolate"
   viewBox="0 0 36 36"
   width="48"
   height="48"
   version="1.1"
   id="svg16"
   sodipodi:docname="audacity.svg"
   inkscape:version="0.92.4 (5da689c313, 2019-01-14)">
  <metadata
     id="metadata22">
    <rdf:RDF>
      <cc:Work
         rdf:about="">
        <dc:format>image/svg+xml</dc:format>
        <dc:type
           rdf:resource="http://purl.org/dc/dcmitype/StillImage" />
        <dc:title></dc:title>
      </cc:Work>
    </rdf:RDF>
  </metadata>
  <defs
     id="defs20" />
  <sodipodi:namedview
     pagecolor="#ffffff"
     bordercolor="#666666"
     borderopacity="1"
     objecttolerance="10"
     gridtolerance="10"
     guidetolerance="10"
     inkscape:pageopacity="0"
     inkscape:pageshadow="2"
     inkscape:window-width="640"
     inkscape:window-height="480"
     id="namedview18"
     showgrid="false"
     inkscape:zoom="29.365243"
     inkscape:cx="25.325443"
     inkscape:cy="32"
     inkscape:current-layer="svg16"
     units="px" />
  <linearGradient
     id="_lgradient_7"
     x1="11.851806"
     y1="38.192814"
     x2="28.639109"
     y2="38.192814"
     gradientTransform="scale(1.1845374,0.84421142)"
     gradientUnits="userSpaceOnUse">
    <stop
       offset="0%"
       stop-opacity="1"
       style="stop-color:rgb(255,224,49)"
       id="stop2" />
    <stop
       offset="98.69565217391305%"
       stop-opacity="1"
       style="stop-color:rgb(252,82,82)"
       id="stop4" />
  </linearGradient>
  <linearGradient
     id="_lgradient_8"
     x1="0"
     y1="0.5"
     x2="0.90748805"
     y2="0.92007786"
     gradientTransform="matrix(46.26,0,0,38.281,0.87,4.859)"
     gradientUnits="userSpaceOnUse">
    <stop
       offset="0%"
       stop-opacity="1"
       style="stop-color:rgb(0,196,255)"
       id="stop9" />
    <stop
       offset="83.88839793817618%"
       stop-opacity="1"
       style="stop-color:rgb(0,114,255)"
       id="stop11" />
  </linearGradient>
  <g
     id="g831"
     transform="matrix(0.77821012,0,0,0.77821012,-0.67704288,-0.67733471)">
    <path
       id="path7"
       stroke-miterlimit="3"
       d="m 15.34,36.858 3.301,-8.2 3.469,8.2 2.457,-5.315 1.755,4.544 3.398,-8.087 2.94,8.858"
       style="vector-effect:non-scaling-stroke;fill:none;stroke:url(#_lgradient_7);stroke-width:2;stroke-linecap:square;stroke-linejoin:miter;stroke-miterlimit:3"
       inkscape:connector-curvature="0" />
    <path
       id="path14"
       d="m 37.017,25.861 c 0.158,0.947 0.982,1.67 1.973,1.67 v 0 0 c 1.1,0 2.15,0.44 2.93,1.22 0.77,0.77 1.21,1.83 1.21,2.93 v 3.31 c 0,1.1 -0.44,2.15 -1.21,2.93 -0.78,0.78 -1.83,1.22 -2.93,1.22 v 0 c -1.104,0 -2,0.896 -2,2 v 0 c 0,1.103 0.896,2 2,2 v 0 c 2.16,0 4.23,-0.86 5.76,-2.39 1.52,-1.53 2.38,-3.6 2.38,-5.76 v -3.31 c 0,-2.16 -0.86,-4.23 -2.38,-5.76 -1.048,-1.049 -2.35,-1.782 -3.76,-2.14 v -3.92 c 0,-0.08 -0.01,-0.17 -0.02,-0.25 -0.15,-1.23 -0.4,-2.44 -0.74,-3.63 -0.28,-1.01 -0.66,-1.99 -1.13,-2.93 -0.42,-0.84 -0.92,-1.64 -1.48,-2.38 -0.55,-0.71 -1.16,-1.36 -1.83,-1.95 -0.67,-0.59 -1.41,-1.11 -2.18,-1.56 -0.83,-0.47 -1.7,-0.87 -2.61,-1.19 -1.03,-0.36 -2.09,-0.62 -3.16,-0.79 -1.29,-0.2 -2.59,-0.31 -3.89,-0.32 -1.16,-0.01 -2.32,0.04 -3.48,0.15 -0.96,0.09 -1.91,0.24 -2.85,0.46 -0.92,0.2 -1.81,0.48 -2.69,0.83 -0.76,0.3 -1.5,0.67 -2.2,1.11 -0.76,0.47 -1.47,1.03 -2.11,1.66 -0.62,0.61 -1.17,1.29 -1.64,2.03 -0.49,0.78 -0.9,1.61 -1.2,2.48 -0.34,0.97 -0.59,1.97 -0.74,2.99 -0.01,0.1 -0.02,0.19 -0.02,0.29 v 2 0 c 0,1.103 0.896,2 2,2 v 0 c 1.104,0 2,-0.897 2,-2 v 0 -1.85 c 0.11,-0.72 0.29,-1.42 0.53,-2.1 0.21,-0.59 0.48,-1.14 0.81,-1.66 0.3,-0.49 0.66,-0.93 1.07,-1.33 0.43,-0.42 0.9,-0.8 1.42,-1.12 0.49,-0.31 1.01,-0.57 1.55,-0.78 0.69,-0.27 1.39,-0.49 2.11,-0.65 0.77,-0.18 1.55,-0.3 2.34,-0.38 1.02,-0.1 2.04,-0.14 3.07,-0.13 1.1,0.01 2.21,0.1 3.3,0.27 0.84,0.13 1.66,0.34 2.47,0.62 0.67,0.24 1.31,0.53 1.93,0.88 0.55,0.32 1.06,0.68 1.54,1.1 0.47,0.41 0.89,0.87 1.27,1.36 0.42,0.55 0.78,1.13 1.09,1.74 0.36,0.72 0.65,1.47 0.87,2.25 0.27,0.95 0.47,1.92 0.6,2.91 v 3.87 1.67 0 0.33 z M 9.02,39.141 v 0 c 1.104,0 2,0.896 2,2 v 0 c 0,1.103 -0.896,2 -2,2 v 0 c -2.16,0 -4.24,-0.86 -5.76,-2.39 -1.53,-1.53 -2.39,-3.6 -2.39,-5.76 v -3.31 c 0,-2.16 0.86,-4.23 2.39,-5.76 1.52,-1.53 3.6,-2.39 5.76,-2.39 v 0 c 1.104,0 2,0.896 2,2 v 0 c 0,1.103 -0.896,2 -2,2 v 0 c -1.1,0 -2.16,0.44 -2.94,1.22 -0.77,0.77 -1.21,1.83 -1.21,2.93 v 3.31 c 0,1.1 0.44,2.15 1.21,2.93 0.78,0.78 1.84,1.22 2.94,1.22 z m 7.11,0.24 v 0 c 0,1.103 -1.344,2 -3,2 v 0 c -0.552,0 -1,-0.448 -1,-1 v -1 -12.09 -1 c 0,-0.552 0.448,-1 1,-1 v 0 c 1.656,0 3,0.896 3,2 v 0 z m 19.74,0 v 1 c 0,0.552 -0.448,1 -1,1 v 0 c -1.656,0 -3,-0.897 -3,-2 v 0 -12.09 0 c 0,-1.104 1.344,-2 3,-2 v 0 c 0.552,0 1,0.448 1,1 v 1 z"
       style="fill:url(#_lgradient_8);fill-rule:evenodd"
       inkscape:connector-curvature="0" />
  </g>
</svg>
