<?xml version="1.0" encoding="UTF-8" standalone="no"?>
<!-- Generator: Gravit.io -->

<svg
   xmlns:dc="http://purl.org/dc/elements/1.1/"
   xmlns:cc="http://creativecommons.org/ns#"
   xmlns:rdf="http://www.w3.org/1999/02/22-rdf-syntax-ns#"
   xmlns:svg="http://www.w3.org/2000/svg"
   xmlns="http://www.w3.org/2000/svg"
   xmlns:sodipodi="http://sodipodi.sourceforge.net/DTD/sodipodi-0.dtd"
   xmlns:inkscape="http://www.inkscape.org/namespaces/inkscape"
   style="isolation:isolate"
   viewBox="0 0 36 36"
   width="48"
   height="48"
   version="1.1"
   id="svg11"
   sodipodi:docname="audio-volume-high.svg"
   inkscape:version="0.92.4 (5da689c313, 2019-01-14)">
  <metadata
     id="metadata17">
    <rdf:RDF>
      <cc:Work
         rdf:about="">
        <dc:format>image/svg+xml</dc:format>
        <dc:type
           rdf:resource="http://purl.org/dc/dcmitype/StillImage" />
        <dc:title></dc:title>
      </cc:Work>
    </rdf:RDF>
  </metadata>
  <defs
     id="defs15" />
  <sodipodi:namedview
     pagecolor="#ffffff"
     bordercolor="#666666"
     borderopacity="1"
     objecttolerance="10"
     gridtolerance="10"
     guidetolerance="10"
     inkscape:pageopacity="0"
     inkscape:pageshadow="2"
     inkscape:window-width="1280"
     inkscape:window-height="947"
     id="namedview13"
     showgrid="false"
     inkscape:zoom="58.236951"
     inkscape:cx="31.234542"
     inkscape:cy="32.784934"
     inkscape:window-x="0"
     inkscape:window-y="0"
     inkscape:window-maximized="1"
     inkscape:current-layer="svg11"
     units="px" />
  <linearGradient
     id="_lgradient_24"
     x1="0.51007318"
     y1="1.0013647"
     x2="0.51007318"
     y2="-0.0024373119"
     gradientTransform="matrix(38,0,0,44,5,2)"
     gradientUnits="userSpaceOnUse">
    <stop
       offset="1.3043478260869565%"
       stop-opacity="1"
       style="stop-color:rgb(254,172,94)"
       id="stop2" />
    <stop
       offset="0.73765922"
       stop-opacity="1"
       style="stop-color:rgb(199,121,208)"
       id="stop4" />
    <stop
       offset="99.56521739130434%"
       stop-opacity="1"
       style="stop-color:rgb(75,192,200)"
       id="stop6" />
  </linearGradient>
  <g
     id="g820"
     transform="matrix(0.81818182,0,0,0.81818182,-1.6363637,-1.6363637)">
    <path
       style="fill:url(#_lgradient_24);fill-rule:evenodd"
       id="path9"
       d="m 39,26 v 0 c 0,-1.104 0.896,-2 2,-2 v 0 c 1.104,0 2,0.896 2,2 v 0 15 c 0,2.76 -2.24,5 -5,5 H 10 C 7.24,46 5,43.76 5,41 V 7 C 5,4.24 7.24,2 10,2 h 28 c 2.76,0 5,2.24 5,5 v 7 0 c 0,1.104 -0.896,2 -2,2 v 0 c -1.104,0 -2,-0.896 -2,-2 V 14 9 C 39,7.344 37.656,6 36,6 H 12 C 10.344,6 9,7.344 9,9 v 30 c 0,1.656 1.344,3 3,3 h 24 c 1.656,0 3,-1.344 3,-3 z m -7.179,4.122 v 0 c -0.032,-0.801 0.593,-1.476 1.395,-1.505 v 0 c 0.802,-0.028 1.479,0.599 1.511,1.401 v 0 l 0.023,0.674 c 0,0.023 0,0.035 0,0.058 0,2.847 -1.139,5.59 -3.149,7.601 C 29.59,40.361 26.847,41.5 24,41.5 c -2.847,0 -5.59,-1.139 -7.601,-3.149 -2.01,-2.011 -3.149,-4.754 -3.149,-7.601 0,-2.847 1.139,-5.59 3.149,-7.601 C 18.41,21.139 21.153,20 24,20 c 2.998,0 5.857,1.255 7.891,3.452 v 0 c 0.545,0.59 0.509,1.511 -0.081,2.057 v 0 c -0.59,0.545 -1.512,0.508 -2.057,-0.082 v 0 C 28.277,23.824 26.185,22.905 24,22.905 c -2.08,0 -4.079,0.826 -5.544,2.301 -1.475,1.465 -2.301,3.464 -2.301,5.544 0,2.08 0.826,4.079 2.301,5.544 1.465,1.475 3.464,2.301 5.544,2.301 2.08,0 4.068,-0.826 5.544,-2.29 1.464,-1.464 2.289,-3.451 2.301,-5.532 z M 22.361,10.64 v 0 c -0.528,0.304 -1.203,0.121 -1.507,-0.407 v 0 C 20.55,9.705 20.733,9.03 21.261,8.726 v 0 C 22.097,8.253 23.043,8 24,8 c 1.463,0 2.86,0.583 3.894,1.606 1.023,1.034 1.606,2.431 1.606,3.894 0,1.463 -0.583,2.86 -1.606,3.894 C 26.86,18.417 25.463,19 24,19 22.537,19 21.14,18.417 20.106,17.394 19.083,16.36 18.5,14.963 18.5,13.5 c 0,-0.275 0.022,-0.539 0.055,-0.803 v 0 c 0.091,-0.601 0.653,-1.018 1.254,-0.93 v 0 c 0.601,0.089 1.015,0.648 0.924,1.249 v 0 C 20.711,13.17 20.7,13.335 20.7,13.5 c 0,0.88 0.352,1.716 0.968,2.332 0.616,0.616 1.452,0.968 2.332,0.968 0.88,0 1.716,-0.352 2.332,-0.968 C 26.948,15.216 27.3,14.38 27.3,13.5 27.3,12.62 26.948,11.784 26.332,11.168 25.716,10.552 24.88,10.2 24,10.2 c -0.572,0 -1.144,0.154 -1.639,0.44 z M 22,30.75 c 0,-0.53 0.21,-1.04 0.59,-1.41 0.37,-0.38 0.88,-0.59 1.41,-0.59 0.53,0 1.04,0.21 1.41,0.59 0.38,0.37 0.59,0.88 0.59,1.41 0,0.53 -0.21,1.04 -0.59,1.41 -0.37,0.38 -0.88,0.59 -1.41,0.59 v 0 c -0.53,0 -1.04,-0.21 -1.41,-0.59 C 22.21,31.79 22,31.28 22,30.75 Z M 23,13.5 c 0,-0.552 0.448,-1 1,-1 0.552,0 1,0.448 1,1 0,0.552 -0.448,1 -1,1 -0.552,0 -1,-0.448 -1,-1 z M 10,9.5 C 10,8.672 10.672,8 11.5,8 12.328,8 13,8.672 13,9.5 13,10.328 12.328,11 11.5,11 10.672,11 10,10.328 10,9.5 Z m 25,0 C 35,8.672 35.672,8 36.5,8 37.328,8 38,8.672 38,9.5 38,10.328 37.328,11 36.5,11 35.672,11 35,10.328 35,9.5 Z m 0,29 C 35,37.672 35.672,37 36.5,37 37.328,37 38,37.672 38,38.5 38,39.328 37.328,40 36.5,40 35.672,40 35,39.328 35,38.5 Z m -25,0 C 10,37.672 10.672,37 11.5,37 12.328,37 13,37.672 13,38.5 13,39.328 12.328,40 11.5,40 10.672,40 10,39.328 10,38.5 Z m 10,-7.75 c 0,-1.06 0.42,-2.08 1.17,-2.83 0.75,-0.75 1.77,-1.17 2.83,-1.17 1.06,0 2.08,0.42 2.83,1.17 0.75,0.75 1.17,1.77 1.17,2.83 0,1.06 -0.42,2.08 -1.17,2.83 -0.75,0.75 -1.77,1.17 -2.83,1.17 v 0 c -1.06,0 -2.08,-0.42 -2.83,-1.17 C 20.42,32.83 20,31.81 20,30.75 Z M 39,20 c 0,-1.104 0.896,-2 2,-2 1.104,0 2,0.896 2,2 0,1.104 -0.896,2 -2,2 -1.104,0 -2,-0.896 -2,-2 z"
       inkscape:connector-curvature="0" />
  </g>
</svg>
