<?xml version="1.0" encoding="UTF-8" standalone="no"?>
<!-- Generator: Gravit.io -->

<svg
   xmlns:dc="http://purl.org/dc/elements/1.1/"
   xmlns:cc="http://creativecommons.org/ns#"
   xmlns:rdf="http://www.w3.org/1999/02/22-rdf-syntax-ns#"
   xmlns:svg="http://www.w3.org/2000/svg"
   xmlns="http://www.w3.org/2000/svg"
   xmlns:sodipodi="http://sodipodi.sourceforge.net/DTD/sodipodi-0.dtd"
   xmlns:inkscape="http://www.inkscape.org/namespaces/inkscape"
   style="isolation:isolate"
   viewBox="0 0 36 36"
   width="48"
   height="48"
   version="1.1"
   id="svg9"
   sodipodi:docname="audiobook.svg"
   inkscape:version="0.92.4 (5da689c313, 2019-01-14)">
  <metadata
     id="metadata15">
    <rdf:RDF>
      <cc:Work
         rdf:about="">
        <dc:format>image/svg+xml</dc:format>
        <dc:type
           rdf:resource="http://purl.org/dc/dcmitype/StillImage" />
        <dc:title></dc:title>
      </cc:Work>
    </rdf:RDF>
  </metadata>
  <defs
     id="defs13" />
  <sodipodi:namedview
     pagecolor="#ffffff"
     bordercolor="#666666"
     borderopacity="1"
     objecttolerance="10"
     gridtolerance="10"
     guidetolerance="10"
     inkscape:pageopacity="0"
     inkscape:pageshadow="2"
     inkscape:window-width="640"
     inkscape:window-height="480"
     id="namedview11"
     showgrid="false"
     inkscape:zoom="82.518609"
     inkscape:cx="30.007554"
     inkscape:cy="31.904306"
     inkscape:current-layer="svg9"
     units="px" />
  <linearGradient
     id="_lgradient_11"
     x1="0"
     y1="0.5"
     x2="1"
     y2="0.5"
     gradientTransform="matrix(45.391306,0,0,48.000002,1.3043481,0)"
     gradientUnits="userSpaceOnUse">
    <stop
       offset="0%"
       stop-opacity="1"
       style="stop-color:rgb(255,153,102)"
       id="stop2" />
    <stop
       offset="98.26086956521739%"
       stop-opacity="1"
       style="stop-color:rgb(255,94,98)"
       id="stop4" />
  </linearGradient>
  <g
     id="g816"
     transform="scale(0.75)">
    <path
       style="fill:url(#_lgradient_11);fill-rule:evenodd;stroke-width:1.04347825"
       inkscape:connector-curvature="0"
       id="path7"
       d="m 13.304348,4.173913 h 5.217391 v 13.961739 l -1.870956,-1.870956 c -0.406957,-0.406957 -1.068522,-0.406957 -1.475478,0 l -1.870957,1.870956 z M 10.173913,35.478261 H 6.5217393 c -0.3568696,0 -0.7064348,0.03548 -1.0434783,0.104348 V 7.3043478 c 0,-1.728 1.4024348,-3.1304348 3.1304348,-3.1304348 h 1.5652172 v 0 V 22.56 c 0,1.728 0.992348,2.138087 2.213218,0.917217 l 3.525913,-3.525913 3.525913,3.525913 C 20.659826,24.698087 21.652174,24.288 21.652174,22.56 V 4.173913 h 12 c 1.728,0 3.130435,1.4024348 3.130435,3.1304348 v 9.3913042 0 c 0,1.152 0.934956,2.086957 2.086956,2.086957 v 0 c 1.152,0 2.086957,-0.934957 2.086957,-2.086957 v 0 V 5.2173913 C 40.956522,2.3373913 38.619131,0 35.739131,0 H 6.5217393 c -2.88,0 -5.2173913,2.3373913 -5.2173913,5.2173913 v 34.4347827 1.043478 1.043478 1.043479 C 1.304348,45.662609 3.6417393,48 6.5217393,48 H 21.130435 v 0 c 1.152,0 2.086956,-0.934957 2.086956,-2.086957 v 0 c 0,-1.152 -0.934956,-2.086956 -2.086956,-2.086956 v 0 H 7.5652176 c -1.152,0 -2.0869566,-0.934957 -2.0869566,-2.086957 v 0 0 c 0,-1.152 0.9349566,-2.086956 2.0869566,-2.086956 h 9.3913044 c 1.152,0 2.086956,-0.934957 2.086956,-2.086957 v 0 c 0,-1.152 -0.934956,-2.086956 -2.086956,-2.086956 h -3.652174 v -5.217391 0 c 0,-0.864 -0.701217,-1.565218 -1.565217,-1.565218 v 0 c -0.864,0 -1.565218,0.701218 -1.565218,1.565218 v 0 z m 13.755131,-2.626435 v 0 c -0.04696,0.625044 -0.594783,1.095652 -1.221913,1.050783 v 0 c -0.628174,-0.04591 -1.098783,-0.592696 -1.051826,-1.22087 v 0 c 0.233739,-3.148174 1.652869,-6.096 3.972521,-8.247652 2.318609,-2.145391 5.367652,-3.341217 8.530435,-3.341217 3.322435,0 6.513391,1.321043 8.867478,3.665739 2.347826,2.350956 3.669913,5.537739 3.669913,8.856 0,3.318261 -1.322087,6.506087 -3.669913,8.857043 -2.354087,2.344696 -5.545043,3.664696 -8.867478,3.664696 v 0 c -0.629217,0 -1.139478,-0.510261 -1.139478,-1.138435 v 0 c 0,-0.628174 0.510261,-1.138435 1.139478,-1.138435 v 0 c 2.718261,0 5.328,-1.081043 7.254261,-2.998956 1.921043,-1.924174 3.00313,-4.530783 3.00313,-7.245913 0,-2.715131 -1.082087,-5.321739 -3.00313,-7.24487 -1.926261,-1.918956 -4.536,-3 -7.254261,-3 -2.586783,0 -5.082783,0.973565 -6.98087,2.731826 -1.898086,1.759305 -3.05426,4.171826 -3.248347,6.750261 z m 5.459478,9.835826 v 0 c 0.557217,0.292174 0.77113,0.98087 0.478956,1.537044 v 0 c -0.292173,0.55513 -0.981913,0.770087 -1.53913,0.477913 v 0 c -2.370783,-1.246957 -4.285565,-3.222261 -5.453217,-5.629566 v 0 c -0.276522,-0.565565 -0.04174,-1.248 0.523826,-1.522434 v 0 c 0.566608,-0.274435 1.25113,-0.03861 1.527652,0.526956 v 0 c 0.956869,1.974261 2.518956,3.585392 4.461913,4.610087 z M 27.891131,31.905391 v 4.848 c 0,0.382957 0.310956,0.694957 0.694956,0.694957 h 2.834087 l 2.630609,1.973217 c 0.613565,0.460174 1.112348,0.210783 1.112348,-0.556174 v -9.384 c 0,-0.766956 -0.478957,-0.991304 -1.068522,-0.499826 l -2.674435,2.22887 h -2.834087 c -0.384,0 -0.694956,0.310956 -0.694956,0.694956 z m 8.737043,0.03652 v 0 c -0.375652,-0.07304 -0.620869,-0.437217 -0.545739,-0.81287 v 0 c 0.07513,-0.375652 0.440348,-0.621913 0.817043,-0.548869 v 0 c 0.792,0.159652 1.501566,0.583304 2.008696,1.209391 0.514435,0.625044 0.792,1.403478 0.792,2.210087 0,0.708522 -0.214956,1.397218 -0.618783,1.974261 -0.395478,0.583304 -0.96626,1.02887 -1.625739,1.278261 v 0 c -0.356869,0.138783 -0.757565,-0.0407 -0.893217,-0.399652 v 0 c -0.136696,-0.357913 0.04278,-0.758609 0.399652,-0.893218 v 0 c 0.81287,-0.312 1.348174,-1.090434 1.348174,-1.959652 0,-0.486261 -0.166956,-0.952695 -0.472696,-1.327304 -0.305739,-0.375652 -0.736695,-0.633391 -1.209391,-0.730435 z m 1.272,-1.876174 v 0 c -0.352696,-0.146085 -0.520696,-0.553041 -0.375652,-0.907824 v 0 c 0.146087,-0.354783 0.554087,-0.523826 0.910956,-0.378783 v 0 c 1.02887,0.430957 1.911653,1.154087 2.536696,2.078609 0.618783,0.931826 0.952696,2.022261 0.952696,3.141913 0,2.105739 -1.182261,4.045565 -3.058435,5.011826 v 0 c -0.338087,0.176348 -0.755478,0.04174 -0.931826,-0.299478 v 0 c -0.176348,-0.341217 -0.04174,-0.758609 0.299478,-0.930783 v 0 c 1.410783,-0.730434 2.30087,-2.196521 2.30087,-3.781565 0,-0.841043 -0.250435,-1.668522 -0.71687,-2.363478 -0.471652,-0.702261 -1.139478,-1.243826 -1.917913,-1.570435 z" />
  </g>
</svg>
