<?xml version="1.0" encoding="UTF-8" standalone="no"?>
<!-- Generator: Gravit.io -->

<svg
   xmlns:dc="http://purl.org/dc/elements/1.1/"
   xmlns:cc="http://creativecommons.org/ns#"
   xmlns:rdf="http://www.w3.org/1999/02/22-rdf-syntax-ns#"
   xmlns:svg="http://www.w3.org/2000/svg"
   xmlns="http://www.w3.org/2000/svg"
   xmlns:sodipodi="http://sodipodi.sourceforge.net/DTD/sodipodi-0.dtd"
   xmlns:inkscape="http://www.inkscape.org/namespaces/inkscape"
   style="isolation:isolate"
   viewBox="0 0 36 36"
   width="48"
   height="48"
   version="1.1"
   id="svg29"
   sodipodi:docname="azuredatastudio.svg"
   inkscape:version="0.92.4 (5da689c313, 2019-01-14)">
  <metadata
     id="metadata35">
    <rdf:RDF>
      <cc:Work
         rdf:about="">
        <dc:format>image/svg+xml</dc:format>
        <dc:type
           rdf:resource="http://purl.org/dc/dcmitype/StillImage" />
        <dc:title></dc:title>
      </cc:Work>
    </rdf:RDF>
  </metadata>
  <defs
     id="defs33" />
  <sodipodi:namedview
     pagecolor="#ffffff"
     bordercolor="#666666"
     borderopacity="1"
     objecttolerance="10"
     gridtolerance="10"
     guidetolerance="10"
     inkscape:pageopacity="0"
     inkscape:pageshadow="2"
     inkscape:window-width="640"
     inkscape:window-height="480"
     id="namedview31"
     showgrid="false"
     inkscape:zoom="29.365243"
     inkscape:cx="25.325443"
     inkscape:cy="32"
     inkscape:current-layer="svg29"
     units="px" />
  <linearGradient
     id="_lgradient_10"
     x1="0"
     y1="0.5"
     x2="1"
     y2="0.5"
     gradientTransform="matrix(42.503,0,0,42.495,2.98,0.315)"
     gradientUnits="userSpaceOnUse">
    <stop
       offset="0%"
       stop-opacity="1"
       style="stop-color:rgb(84,51,255)"
       id="stop2" />
    <stop
       offset="51.73913043478261%"
       stop-opacity="1"
       style="stop-color:rgb(32,189,255)"
       id="stop4" />
    <stop
       offset="98.26086956521739%"
       stop-opacity="1"
       style="stop-color:rgb(165,254,203)"
       id="stop6" />
  </linearGradient>
  <linearGradient
     id="_lgradient_11"
     x1="0"
     y1="0.5"
     x2="1.4978136"
     y2="0.50766599"
     gradientTransform="matrix(26.811,0,0,7.35,3.807,18.605)"
     gradientUnits="userSpaceOnUse">
    <stop
       offset="0%"
       stop-opacity="1"
       style="stop-color:rgb(84,51,255)"
       id="stop11" />
    <stop
       offset="51.73913043478261%"
       stop-opacity="1"
       style="stop-color:rgb(32,189,255)"
       id="stop13" />
    <stop
       offset="98.26086956521739%"
       stop-opacity="1"
       style="stop-color:rgb(165,254,203)"
       id="stop15" />
  </linearGradient>
  <linearGradient
     id="_lgradient_12"
     x1="0"
     y1="0.5"
     x2="1.4978136"
     y2="0.50766599"
     gradientTransform="matrix(29.46,0,0,39.211,2.517,8.474)"
     gradientUnits="userSpaceOnUse">
    <stop
       offset="0%"
       stop-opacity="1"
       style="stop-color:rgb(84,51,255)"
       id="stop20" />
    <stop
       offset="51.73913043478261%"
       stop-opacity="1"
       style="stop-color:rgb(32,189,255)"
       id="stop22" />
    <stop
       offset="98.26086956521739%"
       stop-opacity="1"
       style="stop-color:rgb(165,254,203)"
       id="stop24" />
  </linearGradient>
  <g
     id="g845"
     transform="matrix(0.75997467,0,0,0.75997467,-0.23939208,-0.23939208)">
    <path
       id="path9"
       d="M 39.241,6.696 C 39.159,6.692 39.077,6.691 38.996,6.69 38.443,6.748 37.901,6.855 37.37,7.003 36.998,7.11 36.637,7.264 36.302,7.46 36.074,7.588 35.867,7.747 35.675,7.922 35.495,8.087 35.335,8.278 35.208,8.486 35.08,8.688 34.985,8.9 34.916,9.128 34.847,9.357 34.809,9.596 34.799,9.835 v 0 c -0.021,0.586 0.437,1.08 1.022,1.102 v 0 c 0.585,0.022 1.079,-0.434 1.103,-1.017 v 0 c 0,-0.064 0.01,-0.127 0.026,-0.186 0.016,-0.042 0.032,-0.085 0.059,-0.122 0.026,-0.048 0.063,-0.09 0.106,-0.128 0.074,-0.074 0.159,-0.132 0.255,-0.186 0.181,-0.106 0.372,-0.191 0.579,-0.249 0.377,-0.107 0.765,-0.186 1.153,-0.234 0.191,0.003 0.381,0.012 0.571,0.026 l 0.003,0.016 0.075,-0.01 c 0.143,0.011 0.286,0.025 0.429,0.042 0.277,0.038 0.553,0.091 0.829,0.165 0.25,0.064 0.494,0.149 0.728,0.26 0.175,0.08 0.345,0.176 0.499,0.287 0.16,0.117 0.303,0.25 0.431,0.399 0.122,0.148 0.228,0.308 0.308,0.478 0.101,0.196 0.17,0.409 0.217,0.621 0.064,0.303 0.101,0.611 0.107,0.919 0.005,0.319 -0.016,0.643 -0.064,0.957 -0.032,0.218 -0.085,0.435 -0.165,0.643 -0.058,0.159 -0.133,0.313 -0.228,0.462 -0.08,0.122 -0.175,0.239 -0.276,0.34 -0.112,0.111 -0.239,0.207 -0.372,0.287 -0.165,0.1 -0.346,0.18 -0.532,0.244 -0.207,0.074 -0.419,0.127 -0.637,0.159 -0.308,0.048 -0.616,0.075 -0.924,0.08 h -3.709 -4.781 -1.062 -3.708 c -0.324,-0.005 -0.643,-0.032 -0.962,-0.085 -0.223,-0.037 -0.441,-0.096 -0.653,-0.17 -0.176,-0.064 -0.34,-0.143 -0.5,-0.239 -0.127,-0.08 -0.244,-0.17 -0.35,-0.276 -0.112,-0.107 -0.208,-0.229 -0.287,-0.362 -0.101,-0.159 -0.181,-0.329 -0.239,-0.504 -0.075,-0.202 -0.123,-0.409 -0.149,-0.622 -0.043,-0.303 -0.064,-0.605 -0.059,-0.914 0.006,-0.308 0.043,-0.616 0.107,-0.913 0.048,-0.218 0.117,-0.425 0.212,-0.627 0.085,-0.17 0.191,-0.33 0.314,-0.473 0.122,-0.149 0.265,-0.287 0.425,-0.398 0.159,-0.117 0.329,-0.218 0.51,-0.298 0.239,-0.106 0.488,-0.197 0.743,-0.26 0.271,-0.075 0.542,-0.128 0.824,-0.16 0.35,-0.042 0.706,-0.069 1.062,-0.074 0.383,0.048 0.771,0.127 1.143,0.234 0.201,0.053 0.398,0.138 0.584,0.239 0.09,0.058 0.181,0.117 0.26,0.191 0.037,0.037 0.075,0.08 0.106,0.128 0.022,0.042 0.043,0.085 0.054,0.127 0.021,0.059 0.031,0.122 0.031,0.186 v 0 c 0.024,0.583 0.518,1.039 1.103,1.017 v 0 c 0.585,-0.022 1.043,-0.516 1.022,-1.102 v 0 C 32.132,9.596 32.095,9.357 32.026,9.123 31.957,8.895 31.856,8.677 31.728,8.475 31.595,8.268 31.436,8.077 31.255,7.912 31.059,7.731 30.846,7.577 30.618,7.444 30.283,7.253 29.927,7.104 29.555,7.003 29.029,6.855 28.493,6.748 27.946,6.69 c -0.077,10e-4 -0.153,0.002 -0.23,0.006 0.342,-1.069 0.973,-2.025 1.823,-2.769 1.089,-0.956 2.492,-1.482 3.937,-1.487 0.005,0 0.005,0 0.005,0 v 0 0 c 0,0 0,0 0,0 h -0.005 c 1.477,0.005 2.901,0.553 3.995,1.535 0.824,0.741 1.437,1.678 1.77,2.721 z m -3.857,21.9 c 0.772,0 1.513,0.306 2.059,0.853 0.546,0.546 0.853,1.286 0.853,2.059 0,0.772 -0.307,1.513 -0.853,2.059 -0.546,0.546 -1.287,0.853 -2.059,0.853 -0.772,0 -1.513,-0.307 -2.059,-0.853 -0.546,-0.546 -0.853,-1.287 -0.853,-2.059 0,-0.773 0.307,-1.513 0.853,-2.059 0.546,-0.547 1.287,-0.853 2.059,-0.853 z M 41.537,6.994 c 0.006,0.001 0.013,0.002 0.019,0.004 0.361,0.096 0.717,0.223 1.063,0.377 0.303,0.144 0.595,0.308 0.866,0.505 0.297,0.218 0.568,0.468 0.807,0.749 0.234,0.282 0.436,0.584 0.595,0.914 0.17,0.356 0.303,0.728 0.383,1.11 0.095,0.436 0.148,0.882 0.154,1.334 0.005,0.435 -0.022,0.871 -0.085,1.301 -0.053,0.361 -0.144,0.723 -0.277,1.068 -0.111,0.303 -0.255,0.59 -0.43,0.866 -0.165,0.26 -0.361,0.505 -0.584,0.722 -0.229,0.224 -0.484,0.42 -0.76,0.585 -0.297,0.175 -0.611,0.324 -0.935,0.435 -0.324,0.112 -0.664,0.192 -1.004,0.245 -0.404,0.063 -0.813,0.101 -1.222,0.106 -0.005,0 -0.01,0 -0.016,0 H 36.392 35.33 30.549 26.83 c -0.005,0 -0.011,0 -0.016,0 -0.425,-0.005 -0.855,-0.043 -1.275,-0.112 -0.356,-0.058 -0.701,-0.148 -1.041,-0.271 -0.303,-0.111 -0.601,-0.255 -0.877,-0.425 -0.265,-0.159 -0.51,-0.35 -0.728,-0.563 -0.233,-0.233 -0.441,-0.488 -0.616,-0.765 -0.18,-0.292 -0.324,-0.605 -0.435,-0.929 -0.117,-0.335 -0.202,-0.675 -0.25,-1.026 -0.053,-0.409 -0.08,-0.823 -0.075,-1.237 0.006,-0.447 0.059,-0.893 0.155,-1.334 0.079,-0.382 0.212,-0.754 0.382,-1.105 0.159,-0.329 0.361,-0.637 0.595,-0.914 0.234,-0.281 0.505,-0.531 0.802,-0.749 0.276,-0.196 0.569,-0.372 0.882,-0.51 0.345,-0.159 0.707,-0.287 1.079,-0.382 0.004,-0.001 0.008,-0.002 0.012,-0.003 0.37,-1.804 1.325,-3.445 2.718,-4.662 1.477,-1.296 3.374,-2.008 5.334,-2.013 0,0 0,0 0.005,0 v 0 0 c 1.998,0.005 3.921,0.744 5.408,2.077 1.354,1.213 2.282,2.829 2.648,4.602 z M 31.301,38.371 c 0.41,0.264 0.851,0.473 1.309,0.64 l 0.223,2.691 h 5.096 l 0.225,-2.684 c 0.851,-0.316 1.643,-0.774 2.341,-1.354 l 2.44,1.149 2.548,-4.414 -2.215,-1.539 c 0.078,-0.446 0.119,-0.898 0.122,-1.351 0,-0.454 -0.039,-0.908 -0.117,-1.356 l 2.21,-1.533 -2.548,-4.414 -2.434,1.146 C 39.8,24.775 39.007,24.321 38.155,24.01 L 37.93,21.32 H 32.833 L 32.836,21.315 32.611,24 c -0.483,0.179 -0.947,0.403 -1.376,0.685 z M 4.48,36.5 h -1.5 v -3 h 1.5 2.76 l 5.2,-6.98 3.68,9.84 1.96,-3.86 h 8.7 1.5 v 3 h -1.5 -6.86 L 15.71,42.81 11.56,32.72 8.75,36.5 Z"
       inkscape:connector-curvature="0"
       style="fill:url(#_lgradient_10);fill-rule:evenodd" />
    <path
       id="path18"
       d="m 27.977,19.555 2.572,0.56 0.069,2.15 -0.481,0.86 c -3.93,1.86 -8.24,2.83 -12.59,2.83 -2.11,0 -4.2,-0.24 -6.25,-0.71 -2,-0.47 -3.93,-1.2 -5.73,-2.17 l -1.76,-0.95 1.9,-3.52 1.76,0.95 c 1.49,0.81 3.08,1.41 4.73,1.79 1.75,0.41 3.55,0.61 5.35,0.61 3.76,0 7.03,-0.78 10.43,-2.4 z"
       inkscape:connector-curvature="0"
       style="fill:url(#_lgradient_11)" />
    <path
       id="path27"
       d="m 6.517,41.085 c 3.34,1.69 7.03,2.58 10.78,2.6 3.71,-0.02 7.37,-0.9 10.68,-2.59 v -19.78 -1.76 0 c 2.207,0 4,0.789 4,1.76 v 0 20 c 0,1.36 -0.76,2.61 -1.96,3.23 -3.93,2.05 -8.3,3.12 -12.73,3.14 -4.46,-0.02 -8.85,-1.1 -12.81,-3.15 -0.58,-0.31 -1.07,-0.77 -1.4,-1.33 -0.35,-0.55 -0.54,-1.19 -0.56,-1.84 0,-0.01 0,-0.03 0,-0.05 v -21.2 c 0,-0.86 0.13,-1.72 0.4,-2.55 0.41,-1.33 1.04,-2.59 1.88,-3.72 0.78,-1.03 1.75,-1.92 2.85,-2.62 1.09,-0.69 2.26,-1.24 3.49,-1.64 1.3,-0.43 2.63,-0.79 3.98,-1.07 v 0 c 1.082,-0.221 2.139,0.478 2.36,1.56 v 0 c 0.221,1.082 -0.478,2.139 -1.56,2.36 v 0 c -1.19,0.25 -2.37,0.56 -3.53,0.95 -0.91,0.3 -1.79,0.71 -2.6,1.22 -0.69,0.44 -1.3,1 -1.79,1.64 -0.56,0.77 -0.99,1.62 -1.27,2.52 -0.14,0.44 -0.21,0.89 -0.21,1.35 z"
       inkscape:connector-curvature="0"
       style="fill:url(#_lgradient_12);fill-rule:evenodd" />
  </g>
</svg>
