<?xml version="1.0" encoding="UTF-8" standalone="no"?>
<!-- Generator: Gravit.io -->

<svg
   xmlns:dc="http://purl.org/dc/elements/1.1/"
   xmlns:cc="http://creativecommons.org/ns#"
   xmlns:rdf="http://www.w3.org/1999/02/22-rdf-syntax-ns#"
   xmlns:svg="http://www.w3.org/2000/svg"
   xmlns="http://www.w3.org/2000/svg"
   xmlns:sodipodi="http://sodipodi.sourceforge.net/DTD/sodipodi-0.dtd"
   xmlns:inkscape="http://www.inkscape.org/namespaces/inkscape"
   style="isolation:isolate"
   viewBox="0 0 36 36"
   width="48"
   height="48"
   version="1.1"
   id="svg9"
   sodipodi:docname="bitwarden.svg"
   inkscape:version="0.92.4 (5da689c313, 2019-01-14)">
  <metadata
     id="metadata15">
    <rdf:RDF>
      <cc:Work
         rdf:about="">
        <dc:format>image/svg+xml</dc:format>
        <dc:type
           rdf:resource="http://purl.org/dc/dcmitype/StillImage" />
        <dc:title></dc:title>
      </cc:Work>
    </rdf:RDF>
  </metadata>
  <defs
     id="defs13" />
  <sodipodi:namedview
     pagecolor="#ffffff"
     bordercolor="#666666"
     borderopacity="1"
     objecttolerance="10"
     gridtolerance="10"
     guidetolerance="10"
     inkscape:pageopacity="0"
     inkscape:pageshadow="2"
     inkscape:window-width="640"
     inkscape:window-height="480"
     id="namedview11"
     showgrid="false"
     inkscape:zoom="29.365243"
     inkscape:cx="25.325443"
     inkscape:cy="32"
     inkscape:current-layer="svg9"
     units="px" />
  <linearGradient
     id="_lgradient_0"
     x1="0"
     y1="0.5"
     x2="0.90748805"
     y2="0.92007786"
     gradientTransform="matrix(36,0,0,40.014,6,7.155)"
     gradientUnits="userSpaceOnUse">
    <stop
       offset="0%"
       stop-opacity="1"
       style="stop-color:rgb(0,196,255)"
       id="stop2" />
    <stop
       offset="83.88839793817618%"
       stop-opacity="1"
       style="stop-color:rgb(0,114,255)"
       id="stop4" />
  </linearGradient>
  <g
     id="g826"
     transform="matrix(0.89968382,0,0,0.89968382,-3.5924117,-6.4371664)">
    <path
       id="path7"
       d="m 10.9,25.37 v 0 C 10.552,24.321 9.419,23.752 8.37,24.1 v 0 C 7.321,24.448 6.752,25.581 7.1,26.63 v 0 l 0.62,1.87 c 0,0 0,0.01 0,0.01 0.69,2.04 1.58,4 2.66,5.85 1.08,1.89 2.33,3.69 3.72,5.36 1.32,1.6 2.79,3.08 4.4,4.39 0.74,0.61 1.52,1.17 2.34,1.68 0.76,0.48 1.57,0.89 2.41,1.23 0.46,0.19 0.98,0.2 1.45,0.02 l 1.02,-0.38 c 0.01,0 0.01,0 0.02,0 2.32,-0.9 4.48,-2.18 6.39,-3.78 1.96,-1.63 3.68,-3.52 5.12,-5.61 1.46,-2.09 2.62,-4.37 3.46,-6.77 0.83,-2.35 1.27,-4.82 1.29,-7.31 0,-0.01 0,-0.01 0,-0.02 V 11.11 C 42,8.902 40.602,7.15 38.88,7.2 v 0 C 36.59,7.18 8.94,7.13 7.91,7.17 7.4,7.2 6.91,7.42 6.55,7.79 6.2,8.16 6,8.66 6,9.17 v 7 0 c 0,1.104 0.896,2 2,2 v 0 c 1.104,0 2,-0.896 2,-2 v 0 V 11 c 0.63,-0.09 25.49,0.06 28,0.18 v 11.98 c -0.02,2.05 -0.38,4.08 -1.06,6.01 -0.72,2.07 -1.72,4.03 -2.97,5.82 -1.24,1.8 -2.72,3.42 -4.41,4.82 -1.56,1.32 -3.34,2.37 -5.25,3.11 l -0.25,0.09 c -0.38,-0.18 -0.75,-0.39 -1.1,-0.61 -0.67,-0.42 -1.32,-0.88 -1.93,-1.38 -1.4,-1.15 -2.69,-2.44 -3.84,-3.85 -1.25,-1.5 -2.37,-3.11 -3.35,-4.81 -0.95,-1.62 -1.73,-3.34 -2.32,-5.12 z M 26.5,16.5 h 6 v 7.79 c 0,0.552 -0.126,1.43 -0.28,1.96 -0.33,1.13 -1.33,3.08 -2.67,4.79 -0.9,1.13 -1.93,3.16 -3.05,4.07 V 27.42 16.5 Z m -2,-3 h 10 c 0.552,0 1,0.448 1,1 v 9 q 0,2 0,2.14 c 0,0 -0.02,0.13 -0.02,0.13 -0.022,0.072 -0.28,0.993 -0.576,2.057 -0.174,0.623 -1.374,3.003 -3.004,5.083 -1.71,2.13 -3.78,4.95 -6.12,6.37 -0.46,0.28 -1.04,0.29 -1.52,0.03 C 23.79,39.04 23.5,38.54 23.5,38 V 27.42 14.5 c 0,-0.552 0.448,-1 1,-1 z"
       style="fill:url(#_lgradient_0);fill-rule:evenodd"
       inkscape:connector-curvature="0" />
  </g>
</svg>
