<?xml version="1.0" encoding="UTF-8" standalone="no"?>
<svg
   xmlns:dc="http://purl.org/dc/elements/1.1/"
   xmlns:cc="http://creativecommons.org/ns#"
   xmlns:rdf="http://www.w3.org/1999/02/22-rdf-syntax-ns#"
   xmlns:svg="http://www.w3.org/2000/svg"
   xmlns="http://www.w3.org/2000/svg"
   xmlns:sodipodi="http://sodipodi.sourceforge.net/DTD/sodipodi-0.dtd"
   xmlns:inkscape="http://www.inkscape.org/namespaces/inkscape"
   viewBox="0 0 36 36"
   width="48"
   height="48"
   id="svg3613"
   version="1.1"
   sodipodi:docname="bookmark-new.svg"
   inkscape:version="0.92.4 (5da689c313, 2019-01-14)">
  <sodipodi:namedview
     pagecolor="#ffffff"
     bordercolor="#666666"
     borderopacity="1"
     objecttolerance="10"
     gridtolerance="10"
     guidetolerance="10"
     inkscape:pageopacity="0"
     inkscape:pageshadow="2"
     inkscape:window-width="1280"
     inkscape:window-height="947"
     id="namedview12"
     showgrid="true"
     inkscape:zoom="7.7386901"
     inkscape:cx="16.646659"
     inkscape:cy="28.998143"
     inkscape:window-x="0"
     inkscape:window-y="0"
     inkscape:window-maximized="1"
     inkscape:current-layer="svg3613">
    <inkscape:grid
       type="xygrid"
       id="grid822" />
  </sodipodi:namedview>
  <metadata
     id="metadata13">
    <rdf:RDF>
      <cc:Work
         rdf:about="">
        <dc:format>image/svg+xml</dc:format>
        <dc:type
           rdf:resource="http://purl.org/dc/dcmitype/StillImage" />
        <dc:title></dc:title>
      </cc:Work>
    </rdf:RDF>
  </metadata>
  <defs
     id="defs3615">
    <style
       type="text/css"
       id="current-color-scheme">
      .ColorScheme-Text {
        color:#31363b;
      }
      .ColorScheme-Background{
        color:#E9E8E8;
      }
      .ColorScheme-ViewText {
        color:#31363b;
      }
      .ColorScheme-ViewBackground{
        color:#ffffff;
      }
      .ColorScheme-ViewHover {
        color:#000000;
      }
      .ColorScheme-ViewFocus{
        color:#5a5a5a;
      }
      .ColorScheme-ButtonText {
        color:#31363b;
      }
      .ColorScheme-ButtonBackground{
        color:#E9E8E8;
      }
      .ColorScheme-ButtonHover {
        color:#1489ff;
      }
      .ColorScheme-ButtonFocus{
        color:#2B74C7;
      }
</style>
    <linearGradient
       id="_lgradient_1"
       x1="0"
       y1="0.5"
       x2="1"
       y2="0.5"
       gradientTransform="matrix(24.694317,0,0,36.000137,5.6528409,-4.056712e-7)"
       gradientUnits="userSpaceOnUse">
      <stop
         offset="0%"
         stop-opacity="1"
         style="stop-color:rgb(242,55,239)"
         id="stop9" />
      <stop
         offset="98.69565217391305%"
         stop-opacity="1"
         style="stop-color:rgb(252,82,82)"
         id="stop11" />
    </linearGradient>
  </defs>
  <path
     id="path14"
     d="m 21.201002,1.9980074 v 0 c -0.504692,0 -0.915233,-0.4485021 -0.915233,-0.99900391 v 0 c 0,-0.5520023 0.410541,-0.9990036956712 0.915233,-0.9990036956712 v 0 h 7.317234 c 1.009381,0 1.828923,0.8955033956712 1.828923,1.9980076056712 V 34.744634 c 0,1.102504 -0.697615,1.528506 -1.557285,0.949503 l -9.670912,-6.495026 c -0.859672,-0.5775 -2.239467,-0.550502 -3.080617,0.06151 L 7.1746279,35.713635 C 6.3350213,36.324141 5.652841,35.926638 5.652841,34.824135 V 1.9980074 C 5.652841,0.89550319 6.4723844,-2.056712e-7 7.4817636,-2.056712e-7 h 6.4020024 v 0 c 0.504691,0 0.915233,0.4470013956712 0.915233,0.9990036956712 v 0 c 0,0.55050191 -0.410542,0.99900391 -0.915233,0.99900391 v 0 H 8.3969976 c -0.50469,0 -0.915234,0.4470013 -0.915234,0.997504 V 32.088123 c 0,0.5505 0.3410914,0.750006 0.7608934,0.444002 L 16.76374,26.3296 c 0.419806,-0.306 1.109702,-0.319502 1.538767,-0.02999 l 9.436315,6.343521 c 0.430606,0.288003 0.779414,0.075 0.779414,-0.475499 V 2.9955114 c 0,-0.5505027 -0.410542,-0.997504 -0.915233,-0.997504 z m -6.550168,8.4870326 -0.04631,0.0031 -0.04476,0.0045 -0.04629,0.0031 -0.04323,0.0059 -0.04322,0.0075 -0.04475,0.0059 -0.04168,0.01054 -0.04476,0.009 -0.04166,0.01196 -0.04167,0.01196 -0.04167,0.01347 -0.04167,0.01492 -0.03858,0.01651 -0.04167,0.01651 -0.03859,0.01651 -0.04014,0.01949 -0.03858,0.01949 -0.03858,0.01949 -0.03705,0.02248 -0.03705,0.02248 -0.03705,0.02401 -0.0355,0.02399 -0.03705,0.02702 -0.03394,0.02551 -0.0355,0.02701 -0.03241,0.02851 -0.03394,0.03003 -0.03241,0.02851 -0.03088,0.0315 -0.03242,0.0315 -0.03088,0.03299 -0.02932,0.03299 -0.02932,0.036 -0.0278,0.03449 -0.0278,0.03449 -0.0278,0.036 -0.02469,0.036 -0.02469,0.03899 -0.0247,0.03751 -0.02468,0.0405 -0.0216,0.03899 -0.0216,0.0405 -0.0216,0.03901 -0.02006,0.04201 -0.01698,0.042 -0.01851,0.04199 -0.01851,0.04199 -0.01535,0.0435 -0.01388,0.045 -0.01537,0.04349 -0.01388,0.04349 -0.01234,0.04649 -0.0108,0.04502 -0.0108,0.04649 -0.0093,0.04801 -0.0093,0.04649 -0.0046,0.04801 -0.006,0.04801 -0.006,0.04801 -0.0033,0.04951 -0.0033,0.04951 -0.0032,0.04949 v 0.05099 l 0.0015,0.05699 0.0015,0.05699 0.0033,0.05849 0.0046,0.06 0.006,0.06001 0.0077,0.06151 0.006,0.06151 0.0108,0.063 0.01234,0.06449 0.01234,0.06449 0.01537,0.06601 0.01536,0.06603 0.01699,0.0675 0.01853,0.0705 0.0216,0.06899 0.0216,0.06899 0.0216,0.072 0.02624,0.0705 0.02625,0.0735 0.02625,0.072 0.02932,0.07351 0.03241,0.0735 0.03088,0.07501 0.03394,0.0735 0.03394,0.0765 0.03705,0.07648 0.03705,0.0765 0.03858,0.0765 0.04012,0.07652 0.04167,0.07799 0.0432,0.078 0.04166,0.0735 0.0926,0.160502 0.09722,0.156006 0.100338,0.157499 0.101867,0.157498 0.109581,0.156006 0.111124,0.157498 0.11421,0.156008 0.117296,0.153 0.120382,0.154497 0.12348,0.151513 0.12348,0.151491 0.128095,0.150002 0.12654,0.14699 0.13119,0.145507 0.129636,0.144 0.129635,0.140992 0.13273,0.138002 0.129636,0.13649 0.132728,0.133498 0.129636,0.130508 0.129636,0.127504 0.129636,0.124496 0.126578,0.12001 0.12654,0.118491 0.12348,0.113991 0.118839,0.109505 0.237682,0.2115 0.222249,0.193501 0.208359,0.177 0.02314,0.01949 0.02469,-0.01949 0.206814,-0.177 0.223793,-0.193501 0.237682,-0.2115 0.118826,-0.109505 0.12348,-0.113991 0.125023,-0.118491 0.128095,-0.12001 0.128096,-0.124496 0.131189,-0.127504 0.129636,-0.130508 0.131191,-0.133498 0.131189,-0.13649 0.13119,-0.138002 0.131191,-0.140992 0.129634,-0.144 0.129636,-0.145507 0.128096,-0.14699 0.126579,-0.150002 0.125022,-0.151491 0.121925,-0.151513 0.121924,-0.154497 0.115753,-0.153 0.115753,-0.156008 0.111124,-0.157498 0.108026,-0.156006 0.103397,-0.157498 0.100337,-0.157499 0.09723,-0.156006 0.09107,-0.160502 0.0432,-0.0735 0.04167,-0.078 0.0432,-0.07799 0.03858,-0.07652 0.04014,-0.0765 0.03704,-0.0765 0.0355,-0.07648 0.0355,-0.0765 0.03242,-0.0735 0.03241,-0.07501 0.03088,-0.0735 0.02932,-0.07351 0.0278,-0.072 0.02468,-0.0735 0.02624,-0.0705 0.02314,-0.072 0.0216,-0.06899 0.02006,-0.06899 0.01852,-0.0705 0.01851,-0.0675 0.01537,-0.06603 0.01536,-0.06601 0.0108,-0.06449 0.01234,-0.06449 0.0108,-0.063 0.0077,-0.06151 0.0077,-0.06151 0.006,-0.06001 0.0046,-0.06 0.0033,-0.05849 0.0015,-0.05699 0.0016,-0.05699 v -0.05099 l -0.0033,-0.04951 -0.0033,-0.04951 -0.0033,-0.04951 -0.006,-0.04801 -0.006,-0.04801 -0.006,-0.04801 -0.0093,-0.04649 -0.0093,-0.04801 -0.0108,-0.04649 -0.0093,-0.04502 -0.01234,-0.04649 -0.01386,-0.04349 -0.01536,-0.04349 -0.01537,-0.045 -0.01536,-0.0435 -0.01699,-0.04199 -0.01851,-0.04199 -0.01851,-0.042 -0.02006,-0.04201 -0.02006,-0.03901 -0.0216,-0.0405 -0.02314,-0.03899 -0.0247,-0.0405 -0.02314,-0.03751 -0.02469,-0.03899 -0.02624,-0.036 -0.02625,-0.036 -0.0278,-0.03449 -0.02932,-0.03449 -0.02777,-0.036 -0.03088,-0.03299 -0.03088,-0.03299 -0.03088,-0.0315 -0.03241,-0.0315 -0.03088,-0.02851 -0.03394,-0.03003 -0.03394,-0.02851 -0.03394,-0.02701 -0.0355,-0.02551 -0.0355,-0.02702 -0.03705,-0.02399 -0.03549,-0.02401 -0.03705,-0.02248 -0.03859,-0.02248 -0.03704,-0.01949 -0.04014,-0.01949 -0.03858,-0.01949 -0.04014,-0.01651 -0.04012,-0.01651 -0.04013,-0.01651 -0.04014,-0.01492 -0.04321,-0.01347 -0.04013,-0.01196 -0.0432,-0.01196 -0.04322,-0.009 -0.0432,-0.01054 -0.0432,-0.0059 -0.04323,-0.0075 -0.04476,-0.0059 -0.04475,-0.0031 -0.0463,-0.0045 -0.04475,-0.0031 h -0.04476 l -0.06174,0.0015 -0.05864,0.0045 -0.05865,0.0045 -0.05709,0.0059 -0.05709,0.01054 -0.05402,0.01054 -0.05709,0.01196 -0.05403,0.01492 -0.05247,0.01651 -0.05403,0.018 -0.05247,0.02248 -0.05247,0.021 -0.0494,0.024 -0.0494,0.02399 -0.05094,0.02851 -0.04784,0.02851 -0.04784,0.02851 -0.04631,0.03299 -0.04476,0.0345 -0.0463,0.03449 -0.04166,0.036 -0.04476,0.03751 -0.04013,0.04049 -0.04167,0.0405 -0.03858,0.04199 -0.03858,0.04349 -0.0355,0.04349 -0.0355,0.04649 -0.0355,0.04649 -0.03241,0.04801 -0.03242,0.04951 -0.901344,1.507505 h -0.817928 l -0.901345,-1.507505 -0.03088,-0.04951 -0.03394,-0.04801 -0.03394,-0.04649 -0.0355,-0.04649 -0.03705,-0.04349 -0.03705,-0.04349 -0.04014,-0.04199 -0.04014,-0.0405 -0.04167,-0.04049 -0.04321,-0.03751 -0.0432,-0.036 -0.04476,-0.03449 -0.04631,-0.0345 -0.0463,-0.03299 -0.04631,-0.02851 -0.0494,-0.02851 -0.0494,-0.02851 -0.05094,-0.02399 -0.0494,-0.024 -0.05094,-0.021 -0.05403,-0.02248 -0.05248,-0.018 -0.05247,-0.01651 -0.05555,-0.01492 -0.05555,-0.01196 -0.05403,-0.01054 -0.05864,-0.01054 -0.0571,-0.0059 -0.05709,-0.0045 -0.06019,-0.0045 -0.06174,-0.0015 z m 5.684322,-1.6515078 0.08488,0.0031 0.08334,0.0045 0.08334,0.009 0.08181,0.009 0.0818,0.01347 0.08181,0.01492 0.08025,0.01651 0.08025,0.018 0.07871,0.02248 0.07717,0.02248 0.07871,0.02551 0.07562,0.02701 0.07717,0.02851 0.07563,0.0315 0.07408,0.03299 0.07254,0.0345 0.07254,0.039 0.07099,0.0375 0.06945,0.0405 0.06946,0.04201 0.06945,0.045 0.06637,0.04501 0.06637,0.04801 0.06484,0.04952 0.06328,0.05099 0.0633,0.05101 0.06173,0.054 0.05864,0.05549 0.05865,0.05699 0.05865,0.05848 0.05555,0.06151 0.05555,0.06152 0.05403,0.06151 0.05247,0.06449 0.0494,0.0675 0.05094,0.066 0.04784,0.0675 0.04629,0.0705 0.04476,0.07049 0.04476,0.072 0.04014,0.0735 0.04014,0.07351 0.03858,0.07652 0.03859,0.07648 0.03394,0.078 0.03549,0.07951 0.03087,0.078 0.03088,0.08102 0.02932,0.08401 0.02469,0.08249 0.02624,0.08249 0.02314,0.08552 0.02006,0.08401 0.02006,0.08699 0.01698,0.087 0.01537,0.08851 0.01388,0.08851 0.0108,0.08999 0.0093,0.08851 0.0077,0.09148 0.0046,0.09149 0.0033,0.09148 0.0015,0.093 -0.0015,0.09751 -0.0033,0.09752 -0.0046,0.09751 -0.0077,0.09752 -0.0093,0.09752 -0.01234,0.09751 -0.01386,0.09901 -0.01536,0.09752 -0.01851,0.09751 -0.01851,0.09752 -0.02161,0.09752 -0.02314,0.09751 -0.02468,0.09752 -0.02625,0.09752 -0.02932,0.09751 -0.03088,0.09751 -0.03086,0.096 -0.03394,0.09752 -0.03394,0.096 -0.03705,0.09752 -0.03858,0.096 -0.04014,0.096 -0.04013,0.096 -0.04322,0.096 -0.0432,0.096 -0.04631,0.096 -0.04629,0.09449 -0.04785,0.0945 -0.0494,0.093 -0.05094,0.09449 -0.05094,0.09449 -0.05247,0.0945 -0.109582,0.1845 -0.112667,0.186003 -0.115766,0.181499 -0.121924,0.183002 -0.121924,0.179999 -0.128096,0.177001 -0.128096,0.1755 -0.132727,0.172502 -0.134283,0.172501 -0.135823,0.169498 -0.13736,0.166503 -0.140439,0.163502 -0.140439,0.161997 -0.140438,0.158991 -0.141994,0.156006 -0.141992,0.153003 -0.141994,0.151493 -0.140438,0.14551 -0.141993,0.143998 -0.140454,0.139496 -0.138915,0.138002 -0.137361,0.132004 -0.13736,0.130508 -0.13273,0.125987 -0.132727,0.120009 -0.129636,0.120008 -0.25003,0.223501 -0.237682,0.204001 -0.220707,0.189 -0.203728,0.169501 -0.185208,0.148509 -0.162053,0.128997 -0.135823,0.108 -0.192925,0.145508 -0.06793,0.05099 -0.06791,-0.05099 -0.192926,-0.145508 -0.135821,-0.108 -0.162054,-0.128997 -0.183664,-0.148509 -0.203729,-0.169501 -0.220705,-0.189 -0.239225,-0.204001 -0.25003,-0.223501 L 15.689609,19.474826 15.55688,19.354817 15.422597,19.22883 15.286776,19.098322 15.149415,18.966318 15.008977,18.828316 14.868536,18.68882 14.728098,18.544822 14.587659,18.399312 14.444127,18.247819 14.302135,18.094816 14.161696,17.93881 14.019703,17.779819 13.879264,17.617822 13.74035,17.45432 13.602989,17.287817 13.465628,17.118319 13.332899,16.945818 13.20017,16.773316 l -0.129636,-0.1755 -0.12654,-0.177001 -0.12348,-0.179999 -0.120381,-0.183002 -0.117296,-0.181499 -0.112667,-0.186003 -0.108026,-0.1845 -0.05402,-0.0945 -0.05094,-0.09449 -0.0494,-0.09449 -0.05094,-0.093 -0.04629,-0.0945 -0.04785,-0.09449 -0.04476,-0.096 -0.04323,-0.096 -0.0432,-0.096 -0.04012,-0.096 -0.04014,-0.096 -0.04013,-0.096 -0.0355,-0.09752 -0.03549,-0.096 -0.03242,-0.09752 -0.03241,-0.096 -0.02932,-0.09751 -0.02932,-0.09751 -0.0278,-0.09752 -0.02469,-0.09752 -0.02161,-0.09751 -0.02314,-0.09752 -0.01851,-0.09752 -0.01699,-0.09751 -0.01536,-0.09752 -0.01386,-0.09901 -0.01234,-0.09751 -0.0108,-0.09752 -0.0077,-0.09752 -0.0046,-0.09751 -0.0033,-0.09752 -0.0015,-0.09751 0.0015,-0.093 0.0033,-0.09148 0.0046,-0.09149 0.0077,-0.09148 0.0093,-0.08851 0.01234,-0.08999 0.01386,-0.08851 0.01536,-0.08851 0.01537,-0.087 0.02006,-0.08699 0.0216,-0.08401 0.02314,-0.08552 0.0247,-0.08249 0.02625,-0.08249 0.02932,-0.08401 0.02932,-0.08102 0.03241,-0.078 0.03394,-0.07951 0.0355,-0.078 0.03705,-0.07648 0.03858,-0.07652 0.04167,-0.07351 0.04012,-0.0735 0.04323,-0.072 0.04631,-0.07049 0.04476,-0.0705 0.0494,-0.0675 0.0494,-0.066 0.05094,-0.0675 0.05246,-0.06449 0.05248,-0.06151 0.05709,-0.06152 0.05555,-0.06151 0.0571,-0.05848 0.05864,-0.05699 0.06019,-0.05549 0.06174,-0.054 0.06174,-0.05101 0.06328,-0.05099 0.06635,-0.04952 0.06636,-0.04801 0.06637,-0.04501 0.06791,-0.045 0.06945,-0.04201 0.06945,-0.0405 0.07254,-0.0375 0.07254,-0.039 0.07254,-0.0345 0.07408,-0.03299 0.07563,-0.0315 0.07563,-0.02851 0.07563,-0.02701 0.07871,-0.02551 0.07717,-0.02248 0.0787,-0.02248 0.08025,-0.018 0.08026,-0.01651 0.08181,-0.01492 0.08181,-0.01347 0.0818,-0.009 0.08334,-0.009 0.08336,-0.0045 0.08488,-0.0031 0.08488,-0.0015 0.109581,0.0015 0.108026,0.0059 0.106495,0.009 0.106496,0.01492 0.106496,0.01651 0.103397,0.01949 0.103397,0.02401 0.10188,0.02849 0.100324,0.03001 0.09878,0.0345 0.09724,0.0375 0.09723,0.04199 0.09414,0.045 0.09414,0.04649 0.0926,0.051 0.08951,0.05251 0.08644,0.05699 0.08644,0.05848 0.08488,0.06151 0.08334,0.06449 0.08025,0.0675 0.07873,0.072 0.07717,0.072 0.07563,0.07501 0.07254,0.07801 0.06945,0.07951 0.06793,0.08249 0.06636,0.08551 0.06328,0.08551 0.06174,0.09 0.05709,0.09148 0.05556,0.09149 0.05709,-0.09149 0.05709,-0.09148 0.06174,-0.09 0.06173,-0.08551 0.06793,-0.08551 0.06791,-0.08249 0.06945,-0.07951 0.07254,-0.07801 0.07408,-0.07501 0.07717,-0.072 0.07869,-0.072 0.08025,-0.0675 0.08334,-0.06449 0.08488,-0.06151 0.08644,-0.05848 0.08798,-0.05699 0.09107,-0.05251 0.09107,-0.051 0.09414,-0.04649 0.0926,-0.045 0.09723,-0.04199 0.09723,-0.0375 0.100337,-0.0345 0.100337,-0.03001 0.100337,-0.02849 0.10341,-0.02401 0.104953,-0.01949 0.106496,-0.01651 0.104953,-0.01492 0.108025,-0.009 0.108026,-0.0059 0.108026,-0.0015 z"
     style="clip-rule:evenodd;isolation:isolate;fill:url(#_lgradient_1);fill-rule:evenodd;stroke-width:1.52154553;stroke-linejoin:round;stroke-miterlimit:1.41420996"
     inkscape:connector-curvature="0" />
</svg>
