<?xml version="1.0" encoding="UTF-8" standalone="no"?>
<!-- Generator: Gravit.io -->

<svg
   xmlns:dc="http://purl.org/dc/elements/1.1/"
   xmlns:cc="http://creativecommons.org/ns#"
   xmlns:rdf="http://www.w3.org/1999/02/22-rdf-syntax-ns#"
   xmlns:svg="http://www.w3.org/2000/svg"
   xmlns="http://www.w3.org/2000/svg"
   xmlns:sodipodi="http://sodipodi.sourceforge.net/DTD/sodipodi-0.dtd"
   xmlns:inkscape="http://www.inkscape.org/namespaces/inkscape"
   style="isolation:isolate"
   viewBox="0 0 36 36"
   width="48"
   height="48"
   version="1.1"
   id="svg9"
   sodipodi:docname="brave.svg"
   inkscape:version="0.92.4 (5da689c313, 2019-01-14)">
  <metadata
     id="metadata15">
    <rdf:RDF>
      <cc:Work
         rdf:about="">
        <dc:format>image/svg+xml</dc:format>
        <dc:type
           rdf:resource="http://purl.org/dc/dcmitype/StillImage" />
        <dc:title></dc:title>
      </cc:Work>
    </rdf:RDF>
  </metadata>
  <defs
     id="defs13" />
  <sodipodi:namedview
     pagecolor="#ffffff"
     bordercolor="#666666"
     borderopacity="1"
     objecttolerance="10"
     gridtolerance="10"
     guidetolerance="10"
     inkscape:pageopacity="0"
     inkscape:pageshadow="2"
     inkscape:window-width="640"
     inkscape:window-height="480"
     id="namedview11"
     showgrid="false"
     inkscape:zoom="29.365243"
     inkscape:cx="25.325443"
     inkscape:cy="32"
     inkscape:current-layer="svg9"
     units="px" />
  <linearGradient
     id="_lgradient_0"
     x1="0"
     y1="0.5"
     x2="1"
     y2="0.5"
     gradientTransform="scale(48)"
     gradientUnits="userSpaceOnUse">
    <stop
       offset="0%"
       stop-opacity="1"
       style="stop-color:rgb(255,224,49)"
       id="stop2" />
    <stop
       offset="98.69565217391305%"
       stop-opacity="1"
       style="stop-color:rgb(252,82,82)"
       id="stop4" />
  </linearGradient>
  <g
     id="g826"
     transform="scale(0.75)">
    <path
       id="path7"
       d="m 32.881,11.172 c 0,0 4.614,5.585 4.614,6.778 0,1.194 -0.58,1.509 -1.164,2.129 -0.584,0.621 -3.132,3.331 -3.46,3.679 -0.327,0.348 -1.009,0.876 -0.608,1.825 0.401,0.95 0.992,2.159 0.335,3.384 -0.658,1.226 -1.784,2.044 -2.506,1.909 -0.722,-0.135 -2.417,-1.022 -3.041,-1.427 -0.623,-0.406 -2.599,-2.037 -2.599,-2.662 0,-0.624 2.043,-1.745 2.42,-1.999 0.377,-0.255 2.098,-1.24 2.134,-1.627 0.035,-0.387 0.021,-0.501 -0.486,-1.457 -0.508,-0.956 -1.423,-2.231 -1.271,-3.08 0.152,-0.849 1.628,-1.29 2.68,-1.688 1.053,-0.398 3.08,-1.15 3.333,-1.267 0.253,-0.117 0.188,-0.228 -0.579,-0.301 -0.767,-0.073 -2.944,-0.362 -3.925,-0.088 -0.981,0.274 -2.658,0.69 -2.794,0.911 -0.135,0.221 -0.255,0.229 -0.116,0.991 0.14,0.762 0.858,4.419 0.927,5.069 0.07,0.649 0.206,1.079 -0.493,1.239 -0.7,0.16 -1.877,0.438 -2.282,0.438 -0.405,0 -1.582,-0.278 -2.282,-0.438 -0.7,-0.16 -0.563,-0.59 -0.493,-1.239 0.069,-0.65 0.787,-4.307 0.927,-5.069 0.139,-0.762 0.019,-0.77 -0.116,-0.991 -0.136,-0.221 -1.813,-0.637 -2.794,-0.911 -0.981,-0.274 -3.158,0.015 -3.925,0.088 -0.767,0.073 -0.832,0.184 -0.579,0.301 0.253,0.117 2.28,0.869 3.333,1.267 1.052,0.398 2.528,0.839 2.68,1.688 0.152,0.849 -0.763,2.124 -1.271,3.08 -0.507,0.956 -0.521,1.07 -0.486,1.457 0.036,0.387 1.757,1.372 2.134,1.627 0.377,0.254 2.42,1.375 2.42,1.999 0,0.625 -1.976,2.256 -2.599,2.662 -0.624,0.405 -2.319,1.292 -3.041,1.427 -0.722,0.135 -1.848,-0.683 -2.506,-1.909 -0.657,-1.225 -0.066,-2.434 0.335,-3.384 0.4,-0.949 -0.281,-1.477 -0.608,-1.825 -0.328,-0.348 -2.876,-3.058 -3.46,-3.679 -0.584,-0.62 -1.164,-0.935 -1.164,-2.129 0,-1.193 4.614,-6.778 4.614,-6.778 0,0 3.894,0.745 4.419,0.745 0.525,0 1.662,-0.439 2.712,-0.789 1.05,-0.35 1.75,-0.353 1.75,-0.353 0,0 0.7,0.003 1.75,0.353 1.05,0.35 2.187,0.789 2.712,0.789 0.525,0 4.419,-0.745 4.419,-0.745 z m -3.459,21.363 c 0.285,0.179 0.111,0.517 -0.149,0.701 -0.26,0.184 -3.757,2.895 -4.096,3.194 -0.339,0.3 -0.838,0.795 -1.177,0.795 -0.339,0 -0.838,-0.495 -1.177,-0.795 -0.339,-0.299 -3.836,-3.01 -4.096,-3.194 -0.26,-0.184 -0.434,-0.522 -0.149,-0.701 0.286,-0.179 1.179,-0.631 2.413,-1.27 1.232,-0.639 2.769,-1.182 3.009,-1.182 0.24,0 1.776,0.543 3.009,1.182 1.233,0.639 2.127,1.091 2.413,1.27 z M 4.99,17.78 v 0 C 5.332,16.731 4.759,15.602 3.71,15.26 v 0 C 2.661,14.918 1.532,15.491 1.19,16.54 v 0 C 0.4,18.94 0,21.45 0,23.97 0,32.32 4.34,40.1 11.46,44.46 15.22,46.77 19.56,48 23.97,48 32.32,48 40.1,43.66 44.46,36.54 46.77,32.78 48,28.45 48,24.03 48,15.68 43.66,7.9 36.54,3.54 32.78,1.23 28.45,0 24.03,0 18.39,0 12.92,1.98 8.59,5.59 v 0 C 7.746,6.302 7.634,7.568 8.34,8.415 v 0 c 0.706,0.847 1.97,0.957 2.82,0.245 v 0 C 14.77,5.65 19.32,4 24.03,4 27.7,4 31.31,5.02 34.45,6.95 40.38,10.59 44,17.07 44,24.03 44,27.71 42.98,31.31 41.05,34.45 37.41,40.38 30.93,44 23.97,44 20.3,44 16.69,42.98 13.55,41.05 7.62,37.41 4,30.93 4,23.97 4,21.87 4.33,19.78 4.99,17.78 Z"
       inkscape:connector-curvature="0"
       style="fill:url(#_lgradient_0);fill-rule:evenodd" />
  </g>
</svg>
