<?xml version="1.0" encoding="UTF-8" standalone="no"?>
<!-- Generator: Gravit.io -->

<svg
   xmlns:dc="http://purl.org/dc/elements/1.1/"
   xmlns:cc="http://creativecommons.org/ns#"
   xmlns:rdf="http://www.w3.org/1999/02/22-rdf-syntax-ns#"
   xmlns:svg="http://www.w3.org/2000/svg"
   xmlns="http://www.w3.org/2000/svg"
   xmlns:sodipodi="http://sodipodi.sourceforge.net/DTD/sodipodi-0.dtd"
   xmlns:inkscape="http://www.inkscape.org/namespaces/inkscape"
   style="isolation:isolate"
   viewBox="0 0 36 36"
   width="48"
   height="48"
   version="1.1"
   id="svg21"
   sodipodi:docname="calibre-ebook-edit.svg"
   inkscape:version="0.92.4 (5da689c313, 2019-01-14)">
  <metadata
     id="metadata27">
    <rdf:RDF>
      <cc:Work
         rdf:about="">
        <dc:format>image/svg+xml</dc:format>
        <dc:type
           rdf:resource="http://purl.org/dc/dcmitype/StillImage" />
        <dc:title></dc:title>
      </cc:Work>
    </rdf:RDF>
  </metadata>
  <defs
     id="defs25" />
  <sodipodi:namedview
     pagecolor="#ffffff"
     bordercolor="#666666"
     borderopacity="1"
     objecttolerance="10"
     gridtolerance="10"
     guidetolerance="10"
     inkscape:pageopacity="0"
     inkscape:pageshadow="2"
     inkscape:window-width="640"
     inkscape:window-height="480"
     id="namedview23"
     showgrid="false"
     inkscape:zoom="29.365243"
     inkscape:cx="25.325443"
     inkscape:cy="32"
     inkscape:current-layer="svg21"
     units="px" />
  <linearGradient
     id="_lgradient_47"
     x1="0.06818182"
     y1="0.23295455"
     x2="0.93843019"
     y2="0.77938956"
     gradientTransform="matrix(38,0,0,46,2.752,1)"
     gradientUnits="userSpaceOnUse">
    <stop
       offset="1.3043478260869565%"
       stop-opacity="1"
       style="stop-color:rgb(55,236,186)"
       id="stop2" />
    <stop
       offset="97.82608695652173%"
       stop-opacity="1"
       style="stop-color:rgb(114,175,211)"
       id="stop4" />
  </linearGradient>
  <linearGradient
     id="_lgradient_48"
     x1="0.040624999"
     y1="0.054347824"
     x2="0.96835077"
     y2="0.97395134"
     gradientTransform="matrix(20,0,0,20,25.248,25)"
     gradientUnits="userSpaceOnUse">
    <stop
       offset="0%"
       stop-opacity="1"
       style="stop-color:rgb(240,107,169)"
       id="stop9" />
    <stop
       offset="98.69565217391305%"
       stop-opacity="1"
       style="stop-color:rgb(66,216,246)"
       id="stop11" />
  </linearGradient>
  <linearGradient
     id="_lgradient_49"
     x1="25.601788"
     y1="25.641047"
     x2="45.083832"
     y2="44.952526"
     gradientTransform="scale(0.99998993,1.0000101)"
     gradientUnits="userSpaceOnUse">
    <stop
       offset="0%"
       stop-opacity="1"
       style="stop-color:rgb(240,107,169)"
       id="stop14" />
    <stop
       offset="98.69565217391305%"
       stop-opacity="1"
       style="stop-color:rgb(66,216,246)"
       id="stop16" />
  </linearGradient>
  <g
     id="g839"
     transform="matrix(0.7826087,0,0,0.7826087,-0.97826098,-0.7826088)">
    <path
       id="path7"
       d="m 11.252,35 h -3.5 c -0.343,0 -0.677,0.034 -1,0.1 V 8 c 0,-1.656 1.344,-3 3,-3 h 1.5 v 0 17.62 c 0,1.656 0.95,2.049 2.121,0.879 l 3.379,-3.379 3.378,3.379 c 1.171,1.17 2.122,0.777 2.122,-0.879 V 5 h 11.5 c 1.655,0 3,1.344 3,3 v 12 0 c 0,1.104 0.896,2 2,2 v 0 c 1.103,0 2,-0.896 2,-2 V 20 6 c 0,-2.76 -2.241,-5 -5,-5 h -28 c -2.76,0 -5,2.24 -5,5 v 33 1 1 1 c 0,2.76 2.24,5 5,5 h 16 v 0 c 1.103,0 2,-0.896 2,-2 v 0 c 0,-1.104 -0.897,-2 -2,-2 v 0 h -15 c -1.104,0 -2,-0.896 -2,-2 v 0 0 c 0,-1.104 0.896,-2 2,-2 h 11 c 1.103,0 2,-0.896 2,-2 v 0 c 0,-1.104 -0.897,-2 -2,-2 h -5.5 v -5 0 c 0,-0.828 -0.672,-1.5 -1.5,-1.5 v 0 c -0.828,0 -1.5,0.672 -1.5,1.5 v 0 z m 3,-30 h 5 v 13.38 l -1.793,-1.793 c -0.391,-0.39 -1.024,-0.39 -1.414,0 l -1.793,1.793 z"
       style="fill:url(#_lgradient_47);fill-rule:evenodd"
       inkscape:connector-curvature="0" />
    <path
       id="path19"
       stroke-miterlimit="3"
       d="m 27.067,34.391 v 0 c -0.038,0.499 -0.475,0.875 -0.976,0.839 v 0 c -0.501,-0.037 -0.878,-0.474 -0.84,-0.975 v 0 c 0.187,-2.514 1.32,-4.869 3.172,-6.587 C 30.275,25.955 32.71,25 35.236,25 c 2.653,0 5.202,1.055 7.081,2.927 1.876,1.878 2.931,4.423 2.931,7.073 0,2.65 -1.055,5.195 -2.931,7.073 C 40.438,43.945 37.889,45 35.236,45 v 0 c -0.502,0 -0.91,-0.407 -0.91,-0.909 v 0 c 0,-0.502 0.408,-0.909 0.91,-0.909 v 0 c 2.171,0 4.255,-0.864 5.794,-2.396 1.533,-1.536 2.398,-3.618 2.398,-5.786 0,-2.168 -0.865,-4.25 -2.398,-5.786 -1.539,-1.532 -3.623,-2.396 -5.794,-2.396 -2.066,0 -4.06,0.777 -5.575,2.182 -1.516,1.405 -2.439,3.332 -2.594,5.391 z m 4.36,7.854 v 0 c 0.444,0.234 0.616,0.784 0.382,1.228 v 0 c -0.234,0.444 -0.784,0.615 -1.229,0.382 v 0 c -1.893,-0.996 -3.422,-2.573 -4.355,-4.496 v 0 c -0.221,-0.451 -0.034,-0.996 0.419,-1.216 v 0 c 0.452,-0.219 0.998,-0.031 1.219,0.421 v 0 c 0.765,1.577 2.012,2.863 3.564,3.681 z m 8.428,-6.789 c 0,0.028 -0.02,0.052 -0.048,0.057 l -0.91,0.151 c -0.115,0.02 -0.206,0.104 -0.234,0.215 -0.083,0.318 -0.208,0.624 -0.377,0.908 -0.059,0.1 -0.055,0.223 0.013,0.318 l 0.535,0.755 c 0.015,0.021 0.013,0.054 -0.007,0.073 l -0.645,0.646 c -0.016,0.015 -0.031,0.017 -0.042,0.017 -0.013,0 -0.023,-0.004 -0.032,-0.01 L 37.356,38.05 c -0.093,-0.067 -0.219,-0.071 -0.319,-0.013 -0.284,0.169 -0.589,0.295 -0.908,0.377 -0.112,0.029 -0.197,0.122 -0.214,0.234 l -0.154,0.911 c -0.004,0.028 -0.028,0.047 -0.056,0.047 h -0.913 c -0.028,0 -0.052,-0.019 -0.056,-0.047 l -0.152,-0.911 c -0.019,-0.114 -0.104,-0.205 -0.214,-0.234 -0.31,-0.08 -0.609,-0.203 -0.889,-0.364 -0.046,-0.026 -0.098,-0.039 -0.147,-0.039 -0.059,0 -0.12,0.018 -0.169,0.054 l -0.759,0.54 c -0.011,0.007 -0.022,0.011 -0.032,0.011 -0.009,0 -0.026,-0.002 -0.042,-0.017 l -0.645,-0.646 c -0.02,-0.02 -0.022,-0.05 -0.007,-0.074 l 0.533,-0.748 C 32.28,37.036 32.285,36.91 32.226,36.811 32.057,36.529 31.927,36.223 31.845,35.905 31.814,35.794 31.723,35.71 31.611,35.69 L 30.694,35.534 C 30.666,35.53 30.646,35.506 30.646,35.478 v -0.913 c 0,-0.028 0.02,-0.052 0.048,-0.056 l 0.904,-0.152 c 0.115,-0.019 0.208,-0.104 0.236,-0.216 0.08,-0.319 0.204,-0.627 0.371,-0.911 0.058,-0.099 0.052,-0.223 -0.016,-0.316 L 31.65,32.156 c -0.015,-0.022 -0.013,-0.055 0.006,-0.074 l 0.646,-0.646 c 0.015,-0.015 0.03,-0.017 0.041,-0.017 0.013,0 0.024,0.004 0.033,0.011 l 0.747,0.533 c 0.096,0.067 0.221,0.071 0.321,0.013 0.282,-0.169 0.587,-0.299 0.906,-0.382 0.111,-0.03 0.195,-0.121 0.215,-0.234 l 0.156,-0.917 c 0.004,-0.028 0.028,-0.047 0.056,-0.047 h 0.912 c 0.029,0 0.052,0.019 0.057,0.047 l 0.151,0.904 c 0.02,0.115 0.104,0.208 0.217,0.236 0.327,0.083 0.639,0.211 0.93,0.382 0.1,0.058 0.223,0.054 0.318,-0.013 l 0.748,-0.538 c 0.011,-0.006 0.022,-0.01 0.033,-0.01 0.008,0 0.026,0.002 0.041,0.017 l 0.646,0.646 c 0.019,0.019 0.021,0.05 0.006,0.073 l -0.535,0.752 c -0.067,0.094 -0.072,0.219 -0.013,0.319 0.169,0.284 0.295,0.589 0.377,0.908 0.028,0.113 0.121,0.197 0.234,0.215 l 0.91,0.153 c 0.028,0.005 0.048,0.029 0.048,0.057 v 0.912 z m 0.05,-1.545 -0.729,-0.124 c -0.075,-0.244 -0.173,-0.481 -0.292,-0.706 l 0.429,-0.6 c 0.182,-0.256 0.154,-0.605 -0.069,-0.826 l -0.646,-0.646 c -0.122,-0.121 -0.282,-0.188 -0.453,-0.188 -0.135,0 -0.262,0.041 -0.371,0.119 l -0.602,0.429 c -0.234,-0.124 -0.479,-0.226 -0.733,-0.301 l -0.121,-0.72 c -0.052,-0.31 -0.319,-0.535 -0.633,-0.535 h -0.912 c -0.315,0 -0.581,0.225 -0.633,0.535 l -0.126,0.737 c -0.243,0.076 -0.479,0.176 -0.704,0.297 l -0.596,-0.429 c -0.109,-0.078 -0.239,-0.119 -0.373,-0.119 -0.171,0 -0.334,0.067 -0.453,0.188 l -0.648,0.646 c -0.221,0.221 -0.251,0.57 -0.069,0.826 l 0.433,0.609 c -0.119,0.227 -0.214,0.463 -0.288,0.708 l -0.72,0.122 c -0.309,0.052 -0.535,0.318 -0.535,0.632 v 0.913 c 0,0.314 0.226,0.581 0.535,0.633 l 0.737,0.125 c 0.076,0.243 0.176,0.479 0.297,0.705 l -0.427,0.594 c -0.182,0.255 -0.154,0.604 0.07,0.825 l 0.645,0.646 c 0.122,0.121 0.282,0.189 0.453,0.189 0.135,0 0.263,-0.042 0.371,-0.12 l 0.609,-0.433 c 0.219,0.115 0.449,0.208 0.685,0.282 l 0.121,0.728 c 0.052,0.31 0.319,0.535 0.633,0.535 h 0.915 c 0.314,0 0.58,-0.225 0.632,-0.535 l 0.124,-0.728 c 0.245,-0.076 0.481,-0.174 0.706,-0.293 l 0.601,0.429 c 0.108,0.078 0.238,0.119 0.372,0.119 v 0 c 0.172,0 0.332,-0.067 0.453,-0.188 l 0.646,-0.646 c 0.221,-0.221 0.252,-0.57 0.07,-0.826 l -0.43,-0.602 c 0.12,-0.228 0.219,-0.464 0.293,-0.707 L 39.9,36.089 c 0.31,-0.052 0.535,-0.319 0.535,-0.633 v -0.912 c 0.005,-0.314 -0.221,-0.581 -0.53,-0.633 z m -4.656,2.741 c -0.912,0 -1.653,-0.741 -1.653,-1.653 0,-0.912 0.741,-1.654 1.653,-1.654 0.913,0 1.654,0.742 1.654,1.654 0,0.912 -0.741,1.653 -1.654,1.653 z m 0,-3.892 c -1.235,0 -2.238,1.004 -2.238,2.239 0,1.235 1.003,2.239 2.238,2.239 1.236,0 2.239,-1.004 2.239,-2.239 0,-1.235 -1.003,-2.239 -2.239,-2.239 z"
       style="vector-effect:non-scaling-stroke;fill:url(#_lgradient_48);fill-rule:evenodd;stroke:url(#_lgradient_49);stroke-width:1;stroke-linecap:square;stroke-linejoin:miter;stroke-miterlimit:3"
       inkscape:connector-curvature="0" />
  </g>
</svg>
