<?xml version="1.0" encoding="UTF-8" standalone="no"?>
<!-- Generator: Gravit.io -->

<svg
   xmlns:dc="http://purl.org/dc/elements/1.1/"
   xmlns:cc="http://creativecommons.org/ns#"
   xmlns:rdf="http://www.w3.org/1999/02/22-rdf-syntax-ns#"
   xmlns:svg="http://www.w3.org/2000/svg"
   xmlns="http://www.w3.org/2000/svg"
   xmlns:sodipodi="http://sodipodi.sourceforge.net/DTD/sodipodi-0.dtd"
   xmlns:inkscape="http://www.inkscape.org/namespaces/inkscape"
   style="isolation:isolate"
   viewBox="0 0 36 36"
   width="48"
   height="48"
   version="1.1"
   id="svg28"
   sodipodi:docname="calibre-viewer.svg"
   inkscape:version="0.92.4 (5da689c313, 2019-01-14)">
  <metadata
     id="metadata34">
    <rdf:RDF>
      <cc:Work
         rdf:about="">
        <dc:format>image/svg+xml</dc:format>
        <dc:type
           rdf:resource="http://purl.org/dc/dcmitype/StillImage" />
        <dc:title></dc:title>
      </cc:Work>
    </rdf:RDF>
  </metadata>
  <defs
     id="defs32" />
  <sodipodi:namedview
     pagecolor="#ffffff"
     bordercolor="#666666"
     borderopacity="1"
     objecttolerance="10"
     gridtolerance="10"
     guidetolerance="10"
     inkscape:pageopacity="0"
     inkscape:pageshadow="2"
     inkscape:window-width="640"
     inkscape:window-height="480"
     id="namedview30"
     showgrid="false"
     inkscape:zoom="29.365243"
     inkscape:cx="25.325443"
     inkscape:cy="32"
     inkscape:current-layer="svg28"
     units="px" />
  <linearGradient
     id="_lgradient_50"
     x1="0.06818182"
     y1="0.23295455"
     x2="0.93843019"
     y2="0.77938956"
     gradientTransform="matrix(38,0,0,46,2.752,1)"
     gradientUnits="userSpaceOnUse">
    <stop
       offset="1.3043478260869565%"
       stop-opacity="1"
       style="stop-color:rgb(55,236,186)"
       id="stop2" />
    <stop
       offset="97.82608695652173%"
       stop-opacity="1"
       style="stop-color:rgb(114,175,211)"
       id="stop4" />
  </linearGradient>
  <linearGradient
     id="_lgradient_51"
     x1="0"
     y1="0.5"
     x2="1"
     y2="0.5"
     gradientTransform="matrix(13.421,0,0,8,28.538,31)"
     gradientUnits="userSpaceOnUse">
    <stop
       offset="0%"
       stop-opacity="1"
       style="stop-color:rgb(255,224,49)"
       id="stop9" />
    <stop
       offset="100%"
       stop-opacity="1"
       style="stop-color:rgb(250,0,117)"
       id="stop11" />
  </linearGradient>
  <linearGradient
     id="_lgradient_52"
     x1="0"
     y1="0.5"
     x2="1"
     y2="0.5"
     gradientTransform="matrix(20,0,0,20,25.248,25)"
     gradientUnits="userSpaceOnUse">
    <stop
       offset="0%"
       stop-opacity="1"
       style="stop-color:rgb(255,224,49)"
       id="stop16" />
    <stop
       offset="100%"
       stop-opacity="1"
       style="stop-color:rgb(250,0,117)"
       id="stop18" />
  </linearGradient>
  <linearGradient
     id="_lgradient_53"
     x1="24.748672"
     y1="34.999649"
     x2="45.748463"
     y2="34.999649"
     gradientTransform="scale(0.99998993,1.0000101)"
     gradientUnits="userSpaceOnUse">
    <stop
       offset="0%"
       stop-opacity="1"
       style="stop-color:rgb(255,224,49)"
       id="stop21" />
    <stop
       offset="100%"
       stop-opacity="1"
       style="stop-color:rgb(250,0,117)"
       id="stop23" />
  </linearGradient>
  <g
     id="g844"
     transform="matrix(0.7826087,0,0,0.7826087,-0.97826098,-0.7826088)">
    <path
       id="path7"
       d="m 11.252,35 h -3.5 c -0.343,0 -0.677,0.034 -1,0.1 V 8 c 0,-1.656 1.344,-3 3,-3 h 1.5 v 0 17.62 c 0,1.656 0.95,2.049 2.121,0.879 l 3.379,-3.379 3.378,3.379 c 1.171,1.17 2.122,0.777 2.122,-0.879 V 5 h 11.5 c 1.655,0 3,1.344 3,3 v 12 0 c 0,1.104 0.896,2 2,2 v 0 c 1.103,0 2,-0.896 2,-2 V 20 6 c 0,-2.76 -2.241,-5 -5,-5 h -28 c -2.76,0 -5,2.24 -5,5 v 33 1 1 1 c 0,2.76 2.24,5 5,5 h 16 v 0 c 1.103,0 2,-0.896 2,-2 v 0 c 0,-1.104 -0.897,-2 -2,-2 v 0 h -15 c -1.104,0 -2,-0.896 -2,-2 v 0 0 c 0,-1.104 0.896,-2 2,-2 h 11 c 1.103,0 2,-0.896 2,-2 v 0 c 0,-1.104 -0.897,-2 -2,-2 h -5.5 v -5 0 c 0,-0.828 -0.672,-1.5 -1.5,-1.5 v 0 c -0.828,0 -1.5,0.672 -1.5,1.5 v 0 z m 3,-30 h 5 v 13.38 l -1.793,-1.793 c -0.391,-0.39 -1.024,-0.39 -1.414,0 l -1.793,1.793 z"
       style="fill:url(#_lgradient_50);fill-rule:evenodd"
       inkscape:connector-curvature="0" />
    <path
       id="path14"
       d="m 35.248,31 c -2.564,0 -4.889,1.403 -6.605,3.682 -0.14,0.186 -0.14,0.447 0,0.634 1.716,2.281 4.041,3.684 6.605,3.684 2.565,0 4.89,-1.403 6.606,-3.682 0.14,-0.186 0.14,-0.447 0,-0.634 C 40.138,32.403 37.813,31 35.248,31 Z m 0.184,6.817 c -1.702,0.107 -3.107,-1.296 -3,-3.001 0.087,-1.406 1.227,-2.545 2.632,-2.633 1.703,-0.107 3.108,1.296 3.001,3.001 -0.09,1.403 -1.23,2.542 -2.633,2.633 z m -0.085,-1.302 c -0.917,0.058 -1.674,-0.697 -1.614,-1.614 0.047,-0.758 0.662,-1.37 1.419,-1.419 0.917,-0.058 1.675,0.697 1.615,1.614 -0.05,0.761 -0.665,1.373 -1.42,1.419 z"
       style="fill:url(#_lgradient_51)"
       inkscape:connector-curvature="0" />
    <path
       id="path26"
       stroke-miterlimit="3"
       d="m 27.067,34.391 v 0 c -0.038,0.499 -0.475,0.875 -0.976,0.839 v 0 c -0.501,-0.037 -0.878,-0.474 -0.84,-0.975 v 0 c 0.187,-2.514 1.32,-4.869 3.172,-6.587 C 30.275,25.955 32.71,25 35.236,25 c 2.653,0 5.202,1.055 7.081,2.927 1.876,1.878 2.931,4.423 2.931,7.073 0,2.65 -1.055,5.195 -2.931,7.073 C 40.438,43.945 37.889,45 35.236,45 v 0 c -0.502,0 -0.91,-0.407 -0.91,-0.909 v 0 c 0,-0.502 0.408,-0.909 0.91,-0.909 v 0 c 2.171,0 4.255,-0.864 5.794,-2.396 1.533,-1.536 2.398,-3.618 2.398,-5.786 0,-2.168 -0.865,-4.25 -2.398,-5.786 -1.539,-1.532 -3.623,-2.396 -5.794,-2.396 -2.066,0 -4.06,0.777 -5.575,2.182 -1.516,1.405 -2.439,3.332 -2.594,5.391 z m 4.36,7.854 v 0 c 0.444,0.234 0.616,0.784 0.382,1.228 v 0 c -0.234,0.444 -0.784,0.615 -1.229,0.382 v 0 c -1.893,-0.996 -3.422,-2.573 -4.355,-4.496 v 0 c -0.221,-0.451 -0.034,-0.996 0.419,-1.216 v 0 c 0.452,-0.219 0.998,-0.031 1.219,0.421 v 0 c 0.765,1.577 2.012,2.863 3.564,3.681 z"
       style="vector-effect:non-scaling-stroke;fill:url(#_lgradient_52);fill-rule:evenodd;stroke:url(#_lgradient_53);stroke-width:1;stroke-linecap:square;stroke-linejoin:miter;stroke-miterlimit:3"
       inkscape:connector-curvature="0" />
  </g>
</svg>
