<?xml version="1.0" encoding="UTF-8" standalone="no"?>
<!-- Generator: Gravit.io -->

<svg
   xmlns:dc="http://purl.org/dc/elements/1.1/"
   xmlns:cc="http://creativecommons.org/ns#"
   xmlns:rdf="http://www.w3.org/1999/02/22-rdf-syntax-ns#"
   xmlns:svg="http://www.w3.org/2000/svg"
   xmlns="http://www.w3.org/2000/svg"
   xmlns:sodipodi="http://sodipodi.sourceforge.net/DTD/sodipodi-0.dtd"
   xmlns:inkscape="http://www.inkscape.org/namespaces/inkscape"
   style="isolation:isolate"
   viewBox="0 0 36 36"
   width="48"
   height="48"
   version="1.1"
   id="svg11"
   sodipodi:docname="camera-video.svg"
   inkscape:version="0.92.4 (5da689c313, 2019-01-14)">
  <metadata
     id="metadata17">
    <rdf:RDF>
      <cc:Work
         rdf:about="">
        <dc:format>image/svg+xml</dc:format>
        <dc:type
           rdf:resource="http://purl.org/dc/dcmitype/StillImage" />
        <dc:title></dc:title>
      </cc:Work>
    </rdf:RDF>
  </metadata>
  <defs
     id="defs15" />
  <sodipodi:namedview
     pagecolor="#ffffff"
     bordercolor="#666666"
     borderopacity="1"
     objecttolerance="10"
     gridtolerance="10"
     guidetolerance="10"
     inkscape:pageopacity="0"
     inkscape:pageshadow="2"
     inkscape:window-width="640"
     inkscape:window-height="480"
     id="namedview13"
     showgrid="false"
     inkscape:zoom="29.365243"
     inkscape:cx="25.325443"
     inkscape:cy="32"
     inkscape:current-layer="svg11"
     units="px" />
  <linearGradient
     id="_lgradient_11"
     x1="-0.014458464"
     y1="0.009839246"
     x2="1.0164566"
     y2="1.072293"
     gradientTransform="matrix(46,0,0,46,1,1)"
     gradientUnits="userSpaceOnUse">
    <stop
       offset="1.3043478260869565%"
       stop-opacity="1"
       style="stop-color:rgb(254,172,94)"
       id="stop2" />
    <stop
       offset="53.04347826086957%"
       stop-opacity="1"
       style="stop-color:rgb(199,121,208)"
       id="stop4" />
    <stop
       offset="99.56521739130434%"
       stop-opacity="1"
       style="stop-color:rgb(75,192,200)"
       id="stop6" />
  </linearGradient>
  <g
     id="g825"
     transform="matrix(0.7826087,0,0,0.7826087,-0.7826088,-0.7826088)">
    <path
       id="path9"
       d="m 22.616,17.999 h 6.883 c 1.222,0 2.214,0.992 2.214,2.215 v 2.494 0 l 3.449,-3.449 c 0.288,-0.288 0.853,-0.522 1.26,-0.522 h 2.34 c 0.407,0 0.738,0.331 0.738,0.738 v 15.323 c 0,0.408 -0.331,0.738 -0.738,0.738 h -2.34 c -0.407,0 -0.972,-0.233 -1.26,-0.521 l -3.449,-3.45 v 0 2.495 c 0,1.222 -0.992,2.215 -2.214,2.215 H 10.714 C 9.492,36.275 8.5,35.282 8.5,34.06 v -9.396 0 c 0,-0.814 0.661,-1.476 1.476,-1.476 v 0 c 0.815,0 1.476,0.662 1.476,1.476 v 0 7.92 c 0,0.407 0.331,0.738 0.738,0.738 h 15.833 c 0.407,0 0.738,-0.331 0.738,-0.738 V 21.69 c 0,-0.408 -0.331,-0.738 -0.738,-0.738 H 9.976 v 0 0 C 9.161,20.952 8.5,20.29 8.5,19.475 v 0 c 0,-0.814 0.661,-1.476 1.476,-1.476 v 0 h 9.872 L 16.804,13.94 h -5.352 v 0 c -0.611,0 -1.107,-0.496 -1.107,-1.107 v 0 c 0,-0.611 0.496,-1.108 1.107,-1.108 v 0 h 6.459 z m 9.097,8.88 v 0.516 l 0.428,0.428 4.407,4.407 v 0 -10.186 L 32.141,26.45 Z M 43,12.55 v 0 c 0,1.104 0.896,2 2,2 v 0 c 1.104,0 2,-0.896 2,-2 v 0 V 6 C 47,3.24 44.76,1 42,1 H 6 C 3.24,1 1,3.24 1,6 v 19 0 c 0,1.104 0.896,2 2,2 v 0 c 1.104,0 2,-0.896 2,-2 V 25 8 C 5,6.344 6.344,5 8,5 h 32 c 1.656,0 3,1.344 3,3 z M 5,35.45 v 0 c 0,-1.104 -0.896,-2 -2,-2 v 0 c -1.104,0 -2,0.896 -2,2 v 0 6.55 c 0,2.76 2.24,5 5,5 h 36 c 2.76,0 5,-2.24 5,-5 v -19.82 0 c 0,-1.104 -0.896,-2 -2,-2 v 0 c -1.104,0 -2,0.896 -2,2 v 0 V 40 c 0,1.656 -1.344,3 -3,3 H 8 C 6.344,43 5,41.656 5,40 Z"
       inkscape:connector-curvature="0"
       style="fill:url(#_lgradient_11);fill-rule:evenodd" />
  </g>
</svg>
