<?xml version="1.0" encoding="UTF-8" standalone="no"?>
<!-- Generator: Gravit.io -->

<svg
   xmlns:dc="http://purl.org/dc/elements/1.1/"
   xmlns:cc="http://creativecommons.org/ns#"
   xmlns:rdf="http://www.w3.org/1999/02/22-rdf-syntax-ns#"
   xmlns:svg="http://www.w3.org/2000/svg"
   xmlns="http://www.w3.org/2000/svg"
   xmlns:sodipodi="http://sodipodi.sourceforge.net/DTD/sodipodi-0.dtd"
   xmlns:inkscape="http://www.inkscape.org/namespaces/inkscape"
   style="isolation:isolate"
   viewBox="0 0 36 36"
   width="48"
   height="48"
   version="1.1"
   id="svg34"
   sodipodi:docname="charles-proxy.svg"
   inkscape:version="0.92.4 (5da689c313, 2019-01-14)">
  <metadata
     id="metadata40">
    <rdf:RDF>
      <cc:Work
         rdf:about="">
        <dc:format>image/svg+xml</dc:format>
        <dc:type
           rdf:resource="http://purl.org/dc/dcmitype/StillImage" />
        <dc:title></dc:title>
      </cc:Work>
    </rdf:RDF>
  </metadata>
  <defs
     id="defs38" />
  <sodipodi:namedview
     pagecolor="#ffffff"
     bordercolor="#666666"
     borderopacity="1"
     objecttolerance="10"
     gridtolerance="10"
     guidetolerance="10"
     inkscape:pageopacity="0"
     inkscape:pageshadow="2"
     inkscape:window-width="640"
     inkscape:window-height="480"
     id="namedview36"
     showgrid="false"
     inkscape:zoom="29.365243"
     inkscape:cx="25.325443"
     inkscape:cy="32"
     inkscape:current-layer="svg34"
     units="px" />
  <linearGradient
     id="_lgradient_3"
     x1="0"
     y1="0.5"
     x2="1"
     y2="0.5"
     gradientTransform="matrix(42,0,0,42.459,3,2.771)"
     gradientUnits="userSpaceOnUse">
    <stop
       offset="0%"
       stop-opacity="1"
       style="stop-color:rgb(34,216,143)"
       id="stop2" />
    <stop
       offset="51.73913043478261%"
       stop-opacity="1"
       style="stop-color:rgb(147,135,218)"
       id="stop4" />
    <stop
       offset="98.69565217391305%"
       stop-opacity="1"
       style="stop-color:rgb(255,89,230)"
       id="stop6" />
  </linearGradient>
  <linearGradient
     id="_lgradient_4"
     x1="2.5132732"
     y1="23.873182"
     x2="45.741638"
     y2="23.873182"
     gradientTransform="scale(0.99471591,1.0053122)"
     gradientUnits="userSpaceOnUse">
    <stop
       offset="0%"
       stop-opacity="1"
       style="stop-color:rgb(34,216,143)"
       id="stop9" />
    <stop
       offset="51.73913043478261%"
       stop-opacity="1"
       style="stop-color:rgb(147,135,218)"
       id="stop11" />
    <stop
       offset="98.69565217391305%"
       stop-opacity="1"
       style="stop-color:rgb(255,89,230)"
       id="stop13" />
  </linearGradient>
  <linearGradient
     id="_lgradient_5"
     x1="0.15503654"
     y1="0.21244895"
     x2="0.79775023"
     y2="0.85516262"
     gradientTransform="matrix(17.928,0,0,17.928,10.044,20.786)"
     gradientUnits="userSpaceOnUse">
    <stop
       offset="1.3043478260869565%"
       stop-opacity="1"
       style="stop-color:rgb(254,172,94)"
       id="stop18" />
    <stop
       offset="53.04347826086957%"
       stop-opacity="1"
       style="stop-color:rgb(199,121,208)"
       id="stop20" />
    <stop
       offset="99.56521739130434%"
       stop-opacity="1"
       style="stop-color:rgb(75,192,200)"
       id="stop22" />
  </linearGradient>
  <linearGradient
     id="_lgradient_6"
     x1="0"
     y1="0.5"
     x2="0.90748805"
     y2="0.92007786"
     gradientTransform="matrix(6.601,3.811,-3.811,6.601,17.613,24.913)"
     gradientUnits="userSpaceOnUse">
    <stop
       offset="0%"
       stop-opacity="1"
       style="stop-color:rgb(247,241,7)"
       id="stop27" />
    <stop
       offset="83.88839793817618%"
       stop-opacity="1"
       style="stop-color:rgb(255,187,36)"
       id="stop29" />
  </linearGradient>
  <g
     id="g850"
     transform="matrix(0.82838603,0,0,0.82838603,-1.8812346,-1.8812647)">
    <path
       id="path16"
       stroke-miterlimit="4"
       d="m 44.999,19.621 c -0.033,-2.267 -0.933,-4.398 -2.536,-6.001 -1.659,-1.659 -3.865,-2.561 -6.211,-2.536 -1.799,0.018 -3.504,0.578 -4.935,1.601 V 6.139 h -3.345 c -3.401,0 -6.761,-0.545 -9.987,-1.62 C 14.505,3.359 10.88,2.771 7.211,2.771 H 3.433 V 5.519 L 4.097,6.5 c 2.053,3.031 3.138,6.569 3.138,10.23 0,2.477 -0.672,4.908 -1.943,7.033 -2.664,4.453 -3.028,9.955 -0.974,14.72 l 2.91,6.746 h 24.096 l 2.91,-6.746 c 0.725,-1.682 1.147,-3.456 1.275,-5.242 l 7.128,-7.55 c 1.556,-1.648 2.395,-3.804 2.362,-6.07 z M 8.864,42.742 6.603,37.497 C 4.864,33.465 5.172,28.809 7.427,25.041 8.929,22.53 9.723,19.656 9.723,16.73 9.723,12.632 8.526,8.669 6.26,5.258 h 0.951 c 3.401,0 6.761,0.546 9.987,1.621 3.48,1.16 7.105,1.748 10.774,1.748 h 0.857 v 8.103 c 0,2.926 0.794,5.8 2.297,8.311 2.254,3.768 2.562,8.424 0.823,12.456 l -2.261,5.245 z M 35.383,29.75 C 35.081,27.659 34.371,25.62 33.26,23.763 31.989,21.638 31.317,19.207 31.317,16.73 v -0.67 l 0.569,-0.593 c 1.159,-1.205 2.718,-1.879 4.391,-1.895 1.671,-0.019 3.244,0.625 4.427,1.808 1.142,1.142 1.784,2.661 1.808,4.276 0.023,1.616 -0.575,3.153 -1.684,4.327 z"
       style="vector-effect:non-scaling-stroke;fill:url(#_lgradient_3);stroke:url(#_lgradient_4);stroke-width:1;stroke-linecap:butt;stroke-linejoin:miter;stroke-miterlimit:4"
       inkscape:connector-curvature="0" />
    <path
       id="path25"
       d="m 15.435,25.094 c -0.222,-0.169 -0.44,-0.331 -0.613,-0.431 -1.475,-0.852 -3.442,-0.207 -3.827,0.461 -0.386,0.668 0.039,2.694 1.514,3.545 0.173,0.1 0.423,0.208 0.68,0.316 -0.278,0.037 -0.546,0.076 -0.738,0.128 -1.646,0.44 -2.58,2.287 -2.381,3.032 0.2,0.745 1.933,1.877 3.578,1.436 v 0 c 0.193,-0.051 0.445,-0.152 0.704,-0.258 -0.17,0.223 -0.332,0.44 -0.432,0.613 -0.852,1.475 -0.206,3.442 0.461,3.828 0.668,0.385 2.694,-0.04 3.546,-1.515 0.099,-0.173 0.206,-0.421 0.314,-0.68 0.038,0.277 0.077,0.545 0.129,0.738 v 0 c 0.441,1.646 2.288,2.58 3.032,2.381 0.745,-0.2 1.877,-1.933 1.437,-3.578 -0.055,-0.203 -0.164,-0.473 -0.274,-0.743 0.253,0.22 0.461,0.375 0.628,0.471 1.475,0.852 3.442,0.207 3.828,-0.461 0.385,-0.668 -0.039,-2.694 -1.515,-3.546 -0.173,-0.099 -0.422,-0.207 -0.681,-0.315 0.278,-0.037 0.547,-0.076 0.74,-0.128 v 0 c 1.645,-0.441 2.58,-2.288 2.38,-3.032 -0.199,-0.745 -1.932,-1.877 -3.578,-1.437 -0.186,0.05 -0.427,0.146 -0.727,0.292 0.176,-0.233 0.35,-0.464 0.455,-0.646 0.852,-1.475 0.207,-3.442 -0.461,-3.828 -0.668,-0.385 -2.694,0.039 -3.545,1.515 -0.1,0.173 -0.208,0.422 -0.316,0.68 -0.037,-0.278 -0.076,-0.546 -0.127,-0.739 -0.441,-1.645 -2.288,-2.58 -3.033,-2.38 -0.745,0.199 -1.877,1.932 -1.436,3.578 v 0 c 0.051,0.192 0.152,0.444 0.258,0.703 z"
       style="fill:url(#_lgradient_5);fill-rule:evenodd"
       inkscape:connector-curvature="0" />
    <path
       id="path32"
       d="m 15.707,28.214 c 1.052,-1.822 3.385,-2.447 5.206,-1.395 1.822,1.052 2.447,3.384 1.395,5.206 -1.051,1.822 -3.384,2.447 -5.206,1.395 -1.822,-1.052 -2.447,-3.384 -1.395,-5.206 z"
       style="fill:url(#_lgradient_6)"
       inkscape:connector-curvature="0" />
  </g>
</svg>
