<?xml version="1.0" encoding="UTF-8" standalone="no"?>
<!-- Generator: Gravit.io -->

<svg
   xmlns:dc="http://purl.org/dc/elements/1.1/"
   xmlns:cc="http://creativecommons.org/ns#"
   xmlns:rdf="http://www.w3.org/1999/02/22-rdf-syntax-ns#"
   xmlns:svg="http://www.w3.org/2000/svg"
   xmlns="http://www.w3.org/2000/svg"
   xmlns:sodipodi="http://sodipodi.sourceforge.net/DTD/sodipodi-0.dtd"
   xmlns:inkscape="http://www.inkscape.org/namespaces/inkscape"
   style="isolation:isolate"
   viewBox="0 0 36 36"
   width="48"
   height="48"
   version="1.1"
   id="svg9"
   sodipodi:docname="clamav.svg"
   inkscape:version="0.92.4 (5da689c313, 2019-01-14)">
  <metadata
     id="metadata15">
    <rdf:RDF>
      <cc:Work
         rdf:about="">
        <dc:format>image/svg+xml</dc:format>
        <dc:type
           rdf:resource="http://purl.org/dc/dcmitype/StillImage" />
        <dc:title></dc:title>
      </cc:Work>
    </rdf:RDF>
  </metadata>
  <defs
     id="defs13" />
  <sodipodi:namedview
     pagecolor="#ffffff"
     bordercolor="#666666"
     borderopacity="1"
     objecttolerance="10"
     gridtolerance="10"
     guidetolerance="10"
     inkscape:pageopacity="0"
     inkscape:pageshadow="2"
     inkscape:window-width="640"
     inkscape:window-height="480"
     id="namedview11"
     showgrid="false"
     inkscape:zoom="29.365243"
     inkscape:cx="25.325443"
     inkscape:cy="32"
     inkscape:current-layer="svg9"
     units="px" />
  <linearGradient
     id="_lgradient_19"
     x1="0.47183794"
     y1="0.9763158"
     x2="0.57741463"
     y2="0.10441688"
     gradientTransform="matrix(44.386,0,0,47.5,1.807,0.25)"
     gradientUnits="userSpaceOnUse">
    <stop
       offset="0%"
       stop-opacity="1"
       style="stop-color:rgb(255,229,59)"
       id="stop2" />
    <stop
       offset="98.69565217391305%"
       stop-opacity="1"
       style="stop-color:rgb(255,0,91)"
       id="stop4" />
  </linearGradient>
  <g
     id="g826"
     transform="matrix(0.75789474,0,0,0.75789474,-0.18947376,-0.18947376)">
    <path
       id="path7"
       d="m 30.388,24.135 -5.319,2.659 -0.002,0.001 c 2.135,3.587 6.627,5.455 10.197,3.461 3.57,-1.995 4.748,-6.374 2.613,-9.866 v 0 0 l -5.622,2.812 c 0.728,2.156 0.005,4.97 -1.833,7.582 -0.006,-10e-4 -0.017,0 -0.017,0 1.087,-2.051 1.076,-4.436 -0.017,-6.649 z M 15.745,23.202 10.123,20.39 c -2.135,3.492 -0.957,7.871 2.613,9.866 3.57,1.994 8.062,0.126 10.197,-3.461 v 0 0 l -0.002,-0.001 -5.319,-2.659 c -1.093,2.213 -1.104,4.598 -0.017,6.649 0,0 -0.011,-10e-4 -0.017,0 -1.838,-2.612 -2.561,-5.426 -1.833,-7.582 z M 24,24.954 v 0 C 23.964,24.927 23.923,24.905 23.883,24.885 L 11.073,18.48 c -0.47,-0.235 -1.025,-0.289 -1.537,-0.139 -0.513,0.139 -0.95,0.47 -1.228,0.929 -0.897,1.451 -1.377,3.127 -1.388,4.846 0.022,3.33 1.858,6.405 4.783,8.006 1.281,0.715 2.722,1.089 4.195,1.078 1.793,-0.01 3.555,-0.534 5.092,-1.484 1.164,-0.714 2.189,-1.634 3.01,-2.722 0.821,1.088 1.846,2.008 3.01,2.722 1.537,0.95 3.299,1.474 5.092,1.484 1.473,0.011 2.914,-0.363 4.195,-1.078 2.925,-1.601 4.761,-4.676 4.783,-8.006 -0.011,-1.719 -0.491,-3.395 -1.388,-4.846 v 0 c -0.278,-0.459 -0.715,-0.79 -1.228,-0.929 -0.512,-0.15 -1.067,-0.096 -1.537,0.139 l -12.81,6.405 c -0.04,0.02 -0.081,0.042 -0.117,0.069 z M 5.009,25.557 c 0,-5.038 1.997,-9.874 5.562,-13.429 3.555,-3.565 8.39,-5.572 13.429,-5.572 5.039,0 9.874,2.007 13.429,5.572 3.565,3.555 5.562,8.391 5.562,13.429 v 0 c 0,5.039 -1.997,9.864 -5.562,13.429 -3.555,3.565 -8.39,5.562 -13.429,5.562 -5.039,0 -9.874,-1.997 -13.429,-5.562 C 7.006,35.421 5.009,30.596 5.009,25.557 Z M 40.412,10.609 c 3.712,4.078 5.781,9.404 5.781,14.948 v 0 c 0,5.882 -2.338,11.529 -6.501,15.692 C 35.539,45.412 29.882,47.75 24,47.75 18.118,47.75 12.461,45.412 8.308,41.249 4.145,37.086 1.807,31.439 1.807,25.557 v 0 c 0,-5.359 1.934,-10.515 5.416,-14.537 v 0 L 3.992,0.25 c 2.43,3.646 6.099,5.611 9.347,5.854 C 16.573,4.313 20.241,3.353 24,3.353 c 3.569,0 7.055,0.865 10.166,2.486 3.307,-0.015 7.179,-1.8 9.842,-5.405 z"
       inkscape:connector-curvature="0"
       style="fill:url(#_lgradient_19);fill-rule:evenodd" />
  </g>
</svg>
