<?xml version="1.0" encoding="UTF-8" standalone="no"?>
<!-- Generator: Gravit.io -->

<svg
   xmlns:dc="http://purl.org/dc/elements/1.1/"
   xmlns:cc="http://creativecommons.org/ns#"
   xmlns:rdf="http://www.w3.org/1999/02/22-rdf-syntax-ns#"
   xmlns:svg="http://www.w3.org/2000/svg"
   xmlns="http://www.w3.org/2000/svg"
   xmlns:sodipodi="http://sodipodi.sourceforge.net/DTD/sodipodi-0.dtd"
   xmlns:inkscape="http://www.inkscape.org/namespaces/inkscape"
   style="isolation:isolate"
   viewBox="0 0 32 32"
   width="32pt"
   height="32pt"
   version="1.1"
   id="svg11"
   sodipodi:docname="classviewer-member.svg"
   inkscape:version="0.92.4 (5da689c313, 2019-01-14)">
  <metadata
     id="metadata17">
    <rdf:RDF>
      <cc:Work
         rdf:about="">
        <dc:format>image/svg+xml</dc:format>
        <dc:type
           rdf:resource="http://purl.org/dc/dcmitype/StillImage" />
      </cc:Work>
    </rdf:RDF>
  </metadata>
  <defs
     id="defs15" />
  <sodipodi:namedview
     pagecolor="#ffffff"
     bordercolor="#666666"
     borderopacity="1"
     objecttolerance="10"
     gridtolerance="10"
     guidetolerance="10"
     inkscape:pageopacity="0"
     inkscape:pageshadow="2"
     inkscape:window-width="1280"
     inkscape:window-height="947"
     id="namedview13"
     showgrid="false"
     inkscape:zoom="15.664673"
     inkscape:cx="19.29052"
     inkscape:cy="21.14182"
     inkscape:window-x="0"
     inkscape:window-y="0"
     inkscape:window-maximized="1"
     inkscape:current-layer="svg11" />
  <g
     id="g9"
     transform="matrix(1.4285714,0,0,1.4285714,-6.8571429,-6.8571429)">
    <linearGradient
       id="_lgradient_7"
       x1="0"
       y1="0.5"
       x2="1"
       y2="0.5"
       gradientTransform="matrix(21,0,0,21,5.5,5.5)"
       gradientUnits="userSpaceOnUse">
      <stop
         offset="0%"
         stop-opacity="1"
         style="stop-color:rgb(255,224,49)"
         id="stop2" />
      <stop
         offset="100%"
         stop-opacity="1"
         style="stop-color:rgb(250,0,117)"
         id="stop4" />
    </linearGradient>
    <path
       d="M 14.27,23.424 C 13.674,25.211 11.988,26.5 10,26.5 7.515,26.5 5.5,24.485 5.5,22 c 0,-1.959 1.252,-3.626 3,-4.244 V 7 c 0,-0.828 0.672,-1.5 1.5,-1.5 0.828,0 1.5,0.672 1.5,1.5 v 10.756 c 1.246,0.441 2.24,1.414 2.708,2.647 3.175,-0.514 5.681,-3.02 6.195,-6.195 C 18.706,13.564 17.5,11.923 17.5,10 c 0,-2.485 2.015,-4.5 4.5,-4.5 2.485,0 4.5,2.015 4.5,4.5 0,1.988 -1.289,3.674 -3.076,4.27 -0.577,4.784 -4.37,8.577 -9.154,9.154 z M 22,11.5 c 0.828,0 1.5,-0.672 1.5,-1.5 0,-0.828 -0.672,-1.5 -1.5,-1.5 -0.828,0 -1.5,0.672 -1.5,1.5 0,0.828 0.672,1.5 1.5,1.5 z m -12,12 c 0.828,0 1.5,-0.672 1.5,-1.5 0,-0.828 -0.672,-1.5 -1.5,-1.5 -0.828,0 -1.5,0.672 -1.5,1.5 0,0.828 0.672,1.5 1.5,1.5 z"
       id="path7"
       style="fill:url(#_lgradient_7)"
       inkscape:connector-curvature="0" />
  </g>
</svg>
