<?xml version="1.0" encoding="UTF-8" standalone="no"?>
<!-- Generator: Gravit.io -->

<svg
   xmlns:dc="http://purl.org/dc/elements/1.1/"
   xmlns:cc="http://creativecommons.org/ns#"
   xmlns:rdf="http://www.w3.org/1999/02/22-rdf-syntax-ns#"
   xmlns:svg="http://www.w3.org/2000/svg"
   xmlns="http://www.w3.org/2000/svg"
   xmlns:sodipodi="http://sodipodi.sourceforge.net/DTD/sodipodi-0.dtd"
   xmlns:inkscape="http://www.inkscape.org/namespaces/inkscape"
   style="isolation:isolate"
   viewBox="0 0 36 36"
   width="48"
   height="48"
   version="1.1"
   id="svg11"
   sodipodi:docname="classviewer-other.svg"
   inkscape:version="0.92.4 (5da689c313, 2019-01-14)">
  <metadata
     id="metadata17">
    <rdf:RDF>
      <cc:Work
         rdf:about="">
        <dc:format>image/svg+xml</dc:format>
        <dc:type
           rdf:resource="http://purl.org/dc/dcmitype/StillImage" />
        <dc:title></dc:title>
      </cc:Work>
    </rdf:RDF>
  </metadata>
  <defs
     id="defs15">
    <linearGradient
       gradientUnits="userSpaceOnUse"
       gradientTransform="matrix(29.999999,0,0,27.391304,0.9999998,2.3043476)"
       y2="0.92007786"
       x2="0.90748805"
       y1="0.5"
       x1="0"
       id="_lgradient_27">
      <stop
         id="stop2"
         style="stop-color:rgb(0,255,216)"
         stop-opacity="1"
         offset="0%" />
      <stop
         id="stop4"
         style="stop-color:rgb(0,255,184)"
         stop-opacity="1"
         offset="83.88839793817618%" />
    </linearGradient>
  </defs>
  <sodipodi:namedview
     pagecolor="#ffffff"
     bordercolor="#666666"
     borderopacity="1"
     objecttolerance="10"
     gridtolerance="10"
     guidetolerance="10"
     inkscape:pageopacity="0"
     inkscape:pageshadow="2"
     inkscape:window-width="1280"
     inkscape:window-height="947"
     id="namedview13"
     showgrid="false"
     inkscape:zoom="123.69665"
     inkscape:cx="20.323353"
     inkscape:cy="21.333333"
     inkscape:window-x="0"
     inkscape:window-y="0"
     inkscape:window-maximized="1"
     inkscape:current-layer="svg11" />
  <g
     id="g824"
     transform="matrix(1.2,0,0,1.2,-1.1999993,-1.1999993)">
    <path
       d="m 10.782608,2.3043476 c 2.055652,0 3.909131,0.8647826 5.217392,2.25 1.30826,-1.3852174 3.161739,-2.25 5.217391,-2.25 h 7.826087 c 1.079999,0 1.956521,0.8765217 1.956521,1.9565217 V 23.826086 c 0,1.08 -0.876522,1.956522 -1.956521,1.956522 h -9.130435 c -1.08,0 -1.956522,0.876522 -1.956522,1.956522 0,2.608695 -3.913043,2.608695 -3.913043,0 0,-1.08 -0.876522,-1.956522 -1.956522,-1.956522 H 2.9565215 c -1.08,0 -1.9565217,-0.876522 -1.9565217,-1.956522 V 4.2608693 c 0,-1.08 0.8765217,-1.9565217 1.9565217,-1.9565217 z M 10.130434,5.5652171 H 6.217391 c -0.72,0 -1.3043478,0.5843478 -1.3043478,1.3043478 v 0 14.3478261 c 0,0.72 0.5843478,1.304347 1.3043478,1.304347 v 0 h 6.521739 c 0.72,0 1.304348,-0.584347 1.304348,-1.304347 v 0 -11.7391305 c 0,-2.1613043 -1.751739,-3.9130434 -3.913044,-3.9130434 z m 15.652174,0 h -3.913043 c -2.161305,0 -3.913044,1.7517391 -3.913044,3.9130434 V 21.217391 c 0,0.72 0.584348,1.304347 1.304348,1.304347 h 6.521739 c 0.72,0 1.304348,-0.584347 1.304348,-1.304347 V 6.8695649 c 0,-0.72 -0.584348,-1.3043478 -1.304348,-1.3043478 z"
       id="path7"
       style="fill:url(#_lgradient_27);stroke-width:1.30434775"
       inkscape:connector-curvature="0" />
  </g>
</svg>
