<?xml version="1.0" encoding="UTF-8" standalone="no"?>
<!-- Generator: Gravit.io -->

<svg
   xmlns:dc="http://purl.org/dc/elements/1.1/"
   xmlns:cc="http://creativecommons.org/ns#"
   xmlns:rdf="http://www.w3.org/1999/02/22-rdf-syntax-ns#"
   xmlns:svg="http://www.w3.org/2000/svg"
   xmlns="http://www.w3.org/2000/svg"
   xmlns:sodipodi="http://sodipodi.sourceforge.net/DTD/sodipodi-0.dtd"
   xmlns:inkscape="http://www.inkscape.org/namespaces/inkscape"
   style="isolation:isolate"
   viewBox="0 0 32 32"
   width="32pt"
   height="32pt"
   version="1.1"
   id="svg11"
   sodipodi:docname="classviewer-other.svg"
   inkscape:version="0.92.4 (5da689c313, 2019-01-14)">
  <metadata
     id="metadata17">
    <rdf:RDF>
      <cc:Work
         rdf:about="">
        <dc:format>image/svg+xml</dc:format>
        <dc:type
           rdf:resource="http://purl.org/dc/dcmitype/StillImage" />
      </cc:Work>
    </rdf:RDF>
  </metadata>
  <defs
     id="defs15" />
  <sodipodi:namedview
     pagecolor="#ffffff"
     bordercolor="#666666"
     borderopacity="1"
     objecttolerance="10"
     gridtolerance="10"
     guidetolerance="10"
     inkscape:pageopacity="0"
     inkscape:pageshadow="2"
     inkscape:window-width="1280"
     inkscape:window-height="947"
     id="namedview13"
     showgrid="false"
     inkscape:zoom="15.664673"
     inkscape:cx="21.907875"
     inkscape:cy="21.333333"
     inkscape:window-x="0"
     inkscape:window-y="0"
     inkscape:window-maximized="1"
     inkscape:current-layer="svg11" />
  <g
     id="g9"
     transform="matrix(1.3043478,0,0,1.3043478,-4.8695653,-4.8695653)">
    <linearGradient
       id="_lgradient_27"
       x1="0"
       y1="0.5"
       x2="0.90748805"
       y2="0.92007786"
       gradientTransform="matrix(23,0,0,21,4.5,5.5)"
       gradientUnits="userSpaceOnUse">
      <stop
         offset="0%"
         stop-opacity="1"
         style="stop-color:rgb(0,255,216)"
         id="stop2" />
      <stop
         offset="83.88839793817618%"
         stop-opacity="1"
         style="stop-color:rgb(0,255,184)"
         id="stop4" />
    </linearGradient>
    <path
       d="m 12,5.5 c 1.576,0 2.997,0.663 4,1.725 C 17.003,6.163 18.424,5.5 20,5.5 h 6 c 0.828,0 1.5,0.672 1.5,1.5 v 15 c 0,0.828 -0.672,1.5 -1.5,1.5 h -7 c -0.828,0 -1.5,0.672 -1.5,1.5 0,2 -3,2 -3,0 0,-0.828 -0.672,-1.5 -1.5,-1.5 H 6 C 5.172,23.5 4.5,22.828 4.5,22 V 7 C 4.5,6.172 5.172,5.5 6,5.5 Z M 11.5,8 h -3 c -0.552,0 -1,0.448 -1,1 v 0 11 c 0,0.552 0.448,1 1,1 v 0 h 5 c 0.552,0 1,-0.448 1,-1 v 0 -9 c 0,-1.657 -1.343,-3 -3,-3 z m 12,0 h -3 c -1.657,0 -3,1.343 -3,3 v 9 c 0,0.552 0.448,1 1,1 h 5 c 0.552,0 1,-0.448 1,-1 V 9 c 0,-0.552 -0.448,-1 -1,-1 z"
       id="path7"
       style="fill:url(#_lgradient_27)"
       inkscape:connector-curvature="0" />
  </g>
</svg>
