<?xml version="1.0" encoding="UTF-8" standalone="no"?>
<!-- Generator: Gravit.io -->

<svg
   xmlns:dc="http://purl.org/dc/elements/1.1/"
   xmlns:cc="http://creativecommons.org/ns#"
   xmlns:rdf="http://www.w3.org/1999/02/22-rdf-syntax-ns#"
   xmlns:svg="http://www.w3.org/2000/svg"
   xmlns="http://www.w3.org/2000/svg"
   xmlns:sodipodi="http://sodipodi.sourceforge.net/DTD/sodipodi-0.dtd"
   xmlns:inkscape="http://www.inkscape.org/namespaces/inkscape"
   style="isolation:isolate"
   viewBox="0 0 36 36"
   width="48"
   height="48"
   version="1.1"
   id="svg13"
   sodipodi:docname="classviewer-struct.svg"
   inkscape:version="0.92.4 (5da689c313, 2019-01-14)">
  <metadata
     id="metadata19">
    <rdf:RDF>
      <cc:Work
         rdf:about="">
        <dc:format>image/svg+xml</dc:format>
        <dc:type
           rdf:resource="http://purl.org/dc/dcmitype/StillImage" />
        <dc:title></dc:title>
      </cc:Work>
    </rdf:RDF>
  </metadata>
  <defs
     id="defs17">
    <linearGradient
       gradientUnits="userSpaceOnUse"
       gradientTransform="matrix(27.391304,0,0,29.999999,2.3043476,0.9999998)"
       y2="1.072293"
       x2="1.0164566"
       y1="0.009839246"
       x1="-0.014458464"
       id="_lgradient_25">
      <stop
         id="stop2"
         style="stop-color:rgb(254,172,94)"
         stop-opacity="1"
         offset="1.3043478260869565%" />
      <stop
         id="stop4"
         style="stop-color:rgb(199,121,208)"
         stop-opacity="1"
         offset="53.04347826086957%" />
      <stop
         id="stop6"
         style="stop-color:rgb(75,192,200)"
         stop-opacity="1"
         offset="99.56521739130434%" />
    </linearGradient>
  </defs>
  <sodipodi:namedview
     pagecolor="#ffffff"
     bordercolor="#666666"
     borderopacity="1"
     objecttolerance="10"
     gridtolerance="10"
     guidetolerance="10"
     inkscape:pageopacity="0"
     inkscape:pageshadow="2"
     inkscape:window-width="1280"
     inkscape:window-height="947"
     id="namedview15"
     showgrid="false"
     inkscape:zoom="123.69665"
     inkscape:cx="19.876487"
     inkscape:cy="21.524847"
     inkscape:window-x="0"
     inkscape:window-y="0"
     inkscape:window-maximized="1"
     inkscape:current-layer="svg13" />
  <g
     id="g823"
     transform="matrix(1.2,0,0,1.2,-1.1999992,-1.1999993)">
    <path
       d="m 6.217391,11.197391 v 4.635652 c 0.03913,0.04174 0.096522,0.09522 0.176087,0.157826 0.3860869,0.306522 1.0421738,0.631304 1.9108695,0.922174 C 10.272608,17.56913 13.024782,17.956521 16,17.956521 c 2.975217,0 5.727391,-0.387391 7.695652,-1.043478 0.868695,-0.29087 1.524782,-0.615652 1.910869,-0.922174 0.07956,-0.06261 0.136957,-0.116087 0.176087,-0.157826 V 11.197391 C 23.296521,12.213478 19.830869,12.73913 16,12.73913 c -3.83087,0 -7.2965221,-0.525652 -9.782609,-1.541739 z M 2.3043476,6.8695649 C 2.3043476,3.0452172 8.441304,0.9999998 16,0.9999998 c 7.558695,0 13.695651,2.0452174 13.695651,5.8695651 V 25.130434 c 0,3.83087 -6.10826,5.869565 -13.695651,5.869565 -7.5873917,0 -13.6956524,-2.038695 -13.6956524,-5.869565 z M 25.782608,20.335652 C 23.300434,21.347825 19.839999,21.869565 16,21.869565 c -3.84,0 -7.3004351,-0.52174 -9.782609,-1.533913 v 4.627826 c 0.03913,0.04174 0.096522,0.09522 0.176087,0.157826 0.3860869,0.306521 1.0421738,0.631304 1.9108695,0.922174 1.9682605,0.656087 4.7204345,1.043478 7.6956525,1.043478 2.975217,0 5.727391,-0.387391 7.695652,-1.043478 0.868695,-0.29087 1.524782,-0.615653 1.910869,-0.922174 0.07956,-0.06261 0.136957,-0.116087 0.176087,-0.157826 z M 8.317391,7.7799997 C 10.290869,8.4386953 13.043043,8.8260866 16,8.8260866 c 2.956956,0 5.70913,-0.3873913 7.682608,-1.0460869 C 24.542173,7.4943475 25.195651,7.1734779 25.58826,6.8695649 25.195651,6.5656519 24.542173,6.2447823 23.682608,5.9591301 21.70913,5.3004345 18.956956,4.9130432 16,4.9130432 c -2.956957,0 -5.709131,0.3873913 -7.682609,1.0460869 -0.8595652,0.2856522 -1.5130435,0.6065218 -1.9056522,0.9104348 0.3926087,0.303913 1.046087,0.6247826 1.9056522,0.9104348 z"
       id="path9"
       style="fill:url(#_lgradient_25);stroke-width:1.30434775"
       inkscape:connector-curvature="0" />
  </g>
</svg>
