<?xml version="1.0" encoding="UTF-8" standalone="no"?>
<!-- Generator: Gravit.io -->

<svg
   xmlns:dc="http://purl.org/dc/elements/1.1/"
   xmlns:cc="http://creativecommons.org/ns#"
   xmlns:rdf="http://www.w3.org/1999/02/22-rdf-syntax-ns#"
   xmlns:svg="http://www.w3.org/2000/svg"
   xmlns="http://www.w3.org/2000/svg"
   xmlns:sodipodi="http://sodipodi.sourceforge.net/DTD/sodipodi-0.dtd"
   xmlns:inkscape="http://www.inkscape.org/namespaces/inkscape"
   style="isolation:isolate"
   viewBox="0 0 36 36"
   width="48"
   height="48"
   version="1.1"
   id="svg11"
   sodipodi:docname="classviewer-var.svg"
   inkscape:version="0.92.4 (5da689c313, 2019-01-14)">
  <metadata
     id="metadata17">
    <rdf:RDF>
      <cc:Work
         rdf:about="">
        <dc:format>image/svg+xml</dc:format>
        <dc:type
           rdf:resource="http://purl.org/dc/dcmitype/StillImage" />
        <dc:title></dc:title>
      </cc:Work>
    </rdf:RDF>
  </metadata>
  <defs
     id="defs15">
    <linearGradient
       gradientUnits="userSpaceOnUse"
       gradientTransform="matrix(27.142292,0,0,29.999376,2.4288533,1.0003117)"
       y2="0.90614605"
       x2="0.9022491"
       y1="0.047239967"
       x1="0.22078557"
       id="_lgradient_15">
      <stop
         id="stop2"
         style="stop-color:rgb(237,184,212)"
         stop-opacity="1"
         offset="2.608695652173913%" />
      <stop
         id="stop4"
         style="stop-color:rgb(162,110,245)"
         stop-opacity="1"
         offset="98.69565217391305%" />
    </linearGradient>
  </defs>
  <sodipodi:namedview
     pagecolor="#ffffff"
     bordercolor="#666666"
     borderopacity="1"
     objecttolerance="10"
     gridtolerance="10"
     guidetolerance="10"
     inkscape:pageopacity="0"
     inkscape:pageshadow="2"
     inkscape:window-width="1280"
     inkscape:window-height="947"
     id="namedview13"
     showgrid="false"
     inkscape:zoom="123.69665"
     inkscape:cx="19.110432"
     inkscape:cy="21.397171"
     inkscape:window-x="0"
     inkscape:window-y="0"
     inkscape:window-maximized="1"
     inkscape:current-layer="svg11" />
  <g
     id="g824"
     transform="matrix(1.2,0,0,1.2,-1.1999996,-1.1999992)">
    <path
       d="m 17.415684,22.428437 h -4.259911 l -0.739985,6.665576 c -0.131425,1.17569 -1.189975,2.022815 -2.367093,1.892817 -1.17569,-0.131425 -2.0228153,-1.189975 -1.892818,-2.367093 l 0.6885571,-6.1913 H 4.5716659 c -1.1828325,0 -2.1428126,-0.95998 -2.1428126,-2.142812 0,-1.182833 0.9599801,-2.142813 2.1428126,-2.142813 h 4.7484726 l 0.4757044,-4.285625 h -5.224177 c -1.1828325,0 -2.1428126,-0.95998 -2.1428126,-2.142813 0,-1.182832 0.9599801,-2.1428121 2.1428126,-2.1428121 H 10.272976 L 11.01296,2.9059863 c 0.131426,-1.1756898 1.189976,-2.02281507 2.367094,-1.8928178 1.17569,0.1314259 2.022815,1.1899753 1.892818,2.3670936 l -0.688557,6.1912998 h 4.259911 l 0.739985,-6.6655756 c 0.131425,-1.1756898 1.189975,-2.02281507 2.367093,-1.8928178 1.17569,0.1314259 2.022815,1.1899753 1.892818,2.3670936 l -0.688557,6.1912998 h 4.272768 c 1.182833,0 2.142813,0.9599801 2.142813,2.1428121 0,1.182833 -0.95998,2.142813 -2.142813,2.142813 H 22.67986 l -0.475704,4.285625 h 5.224177 c 1.182833,0 2.142813,0.95998 2.142813,2.142813 0,1.182832 -0.95998,2.142812 -2.142813,2.142812 h -5.70131 l -0.739984,6.665576 c -0.131426,1.17569 -1.189976,2.022815 -2.367094,1.892817 -1.17569,-0.131425 -2.022815,-1.189975 -1.892818,-2.367093 z m 0.475705,-4.285625 0.475704,-4.285625 H 14.10861 l -0.475704,4.285625 z"
       id="path7"
       style="fill:url(#_lgradient_15);stroke-width:1.42854166"
       inkscape:connector-curvature="0" />
  </g>
</svg>
