<?xml version="1.0" encoding="UTF-8" standalone="no"?>
<!-- Generator: Gravit.io -->

<svg
   xmlns:dc="http://purl.org/dc/elements/1.1/"
   xmlns:cc="http://creativecommons.org/ns#"
   xmlns:rdf="http://www.w3.org/1999/02/22-rdf-syntax-ns#"
   xmlns:svg="http://www.w3.org/2000/svg"
   xmlns="http://www.w3.org/2000/svg"
   xmlns:sodipodi="http://sodipodi.sourceforge.net/DTD/sodipodi-0.dtd"
   xmlns:inkscape="http://www.inkscape.org/namespaces/inkscape"
   style="isolation:isolate"
   viewBox="0 0 32 32"
   width="32pt"
   height="32pt"
   version="1.1"
   id="svg11"
   sodipodi:docname="classviewer-class.svg"
   inkscape:version="0.92.4 (5da689c313, 2019-01-14)">
  <metadata
     id="metadata17">
    <rdf:RDF>
      <cc:Work
         rdf:about="">
        <dc:format>image/svg+xml</dc:format>
        <dc:type
           rdf:resource="http://purl.org/dc/dcmitype/StillImage" />
      </cc:Work>
    </rdf:RDF>
  </metadata>
  <defs
     id="defs15" />
  <sodipodi:namedview
     pagecolor="#ffffff"
     bordercolor="#666666"
     borderopacity="1"
     objecttolerance="10"
     gridtolerance="10"
     guidetolerance="10"
     inkscape:pageopacity="0"
     inkscape:pageshadow="2"
     inkscape:window-width="1280"
     inkscape:window-height="947"
     id="namedview13"
     showgrid="false"
     inkscape:zoom="15.664673"
     inkscape:cx="20.631116"
     inkscape:cy="21.524847"
     inkscape:window-x="0"
     inkscape:window-y="0"
     inkscape:window-maximized="1"
     inkscape:current-layer="svg11" />
  <linearGradient
     id="_lgradient_33"
     x1="0.18229166666666663"
     y1="0.09375"
     x2="0.8261059104258444"
     y2="0.9613160792951541"
     gradientTransform="matrix(29.999998,0,0,24.999998,0.99999967,3.4999996)"
     gradientUnits="userSpaceOnUse">
    <stop
       offset="0%"
       stop-opacity="1"
       style="stop-color:rgb(34,216,143)"
       id="stop2" />
    <stop
       offset="51.73913043478261%"
       stop-opacity="1"
       style="stop-color:rgb(147,135,218)"
       id="stop4" />
    <stop
       offset="98.69565217391305%"
       stop-opacity="1"
       style="stop-color:rgb(255,89,230)"
       id="stop6" />
  </linearGradient>
  <path
     d="m 5.8187496,16.00625 c 0.7787499,0.3825 1.3874997,0.80875 1.8262497,1.2825 0.43875,0.4725 0.745,1.075 0.921251,1.808749 0.175,0.7325 0.2625,1.6725 0.2625,2.8175 0,0.85875 0.025,1.4925 0.07375,1.9 0.05,0.4075 0.14875,0.7175 0.29625,0.93 0.14875,0.2125 0.32625,0.35125 0.535,0.4175 0.20875,0.065 0.5649997,0.1275 1.0687497,0.1875 0.41625,0.04375 0.7625,0.205 1.03625,0.4825 0.27375,0.2775 0.41125,0.64125 0.41125,1.0925 0,1.05 -0.80625,1.575 -2.4174997,1.575 -0.9975,0 -1.888751,-0.165 -2.672501,-0.495 -0.7849998,-0.32875 -1.3899997,-0.795 -1.8174997,-1.39875 -0.4275,-0.6025 -0.6475,-1.295 -0.65875,-2.075 -0.0325,-1.31875 -0.065,-2.3775 -0.09875,-3.17625 -0.0325,-0.7975 -0.08125,-1.31375 -0.1475,-1.54875 -0.165,-0.58125 -0.40875,-1.01875 -0.7324999,-1.313749 -0.3225,-0.295 -0.745,-0.57125 -1.26625,-0.82625 C 1.9187498,17.41 1.5487498,17.18 1.3287498,16.97625 c -0.21875,-0.20375 -0.32875003,-0.5275 -0.32875003,-0.97 0,-0.64125 0.31750003,-1.12375 0.95375003,-1.44375 0.7899999,-0.39125 1.3512499,-0.7225 1.6862499,-0.99625 0.3337499,-0.27375 0.5699999,-0.625 0.7074999,-1.05375 0.13625,-0.43 0.21625,-0.89875 0.2375,-1.40625 0.0225,-0.5075 0.055,-1.7287498 0.09875,-3.6625004 0.03375,-1.1974999 0.5125,-2.1537498 1.4399999,-2.8699998 0.9262498,-0.71625 2.1624998,-1.07375 3.7087508,-1.07375 1.6112497,0 2.4174997,0.51625 2.4174997,1.54875 0,0.4687499 -0.13375,0.8374999 -0.4025,1.1062499 -0.26875,0.26875 -0.6175,0.425 -1.045,0.46875 -0.63625,0.06875 -1.0799997,0.17375 -1.3324997,0.3125 -0.25125,0.13875 -0.41625,0.4074999 -0.4925,0.8062499 -0.0775,0.39875 -0.12625,1.1712506 -0.14875,2.3162504 -0.02125,1.12 -0.10625,2.0375 -0.255,2.7525 -0.147501,0.71625 -0.438751,1.325 -0.871251,1.82875 -0.43375,0.50375 -1.0612498,0.95875 -1.8837497,1.36625 z m 20.3624994,0 c -0.77875,0.3825 -1.3875,0.80875 -1.82625,1.2825 -0.43875,0.4725 -0.745,1.075 -0.92125,1.808749 -0.175,0.7325 -0.2625,1.6725 -0.2625,2.8175 0,0.85875 -0.025,1.4925 -0.07375,1.9 -0.05,0.4075 -0.14875,0.7175 -0.29625,0.93 -0.14875,0.2125 -0.32625,0.35125 -0.535,0.4175 -0.20875,0.065 -0.565,0.1275 -1.06875,0.1875 -0.41625,0.04375 -0.7625,0.205 -1.03625,0.4825 -0.27375,0.2775 -0.41125,0.64125 -0.41125,1.0925 0,1.05 0.80625,1.575 2.4175,1.575 0.9975,0 1.88875,-0.165 2.6725,-0.495 0.785,-0.32875 1.39,-0.795 1.8175,-1.39875 0.4275,-0.6025 0.6475,-1.295 0.65875,-2.075 0.0325,-1.31875 0.065,-2.3775 0.09875,-3.17625 0.0325,-0.7975 0.08125,-1.31375 0.1475,-1.54875 0.165,-0.58125 0.40875,-1.01875 0.7325,-1.313749 0.3225,-0.295 0.745,-0.57125 1.26625,-0.82625 0.52,-0.25625 0.89,-0.48625 1.11,-0.69 0.21875,-0.20375 0.32875,-0.5275 0.32875,-0.97 0,-0.64125 -0.3175,-1.12375 -0.95375,-1.44375 -0.79,-0.39125 -1.35125,-0.7225 -1.68625,-0.99625 -0.33375,-0.27375 -0.57,-0.625 -0.7075,-1.05375 -0.13625,-0.43 -0.21625,-0.89875 -0.2375,-1.40625 -0.0225,-0.5075 -0.055,-1.7287498 -0.09875,-3.6625004 -0.03375,-1.1974999 -0.5125,-2.1537498 -1.44,-2.8699998 -0.92625,-0.71625 -2.1625,-1.07375 -3.70875,-1.07375 -1.61125,0 -2.4175,0.51625 -2.4175,1.54875 0,0.4687499 0.13375,0.8374999 0.4025,1.1062499 0.26875,0.26875 0.6175,0.425 1.045,0.46875 0.63625,0.06875 1.08,0.17375 1.3325,0.3125 0.25125,0.13875 0.41625,0.4074999 0.4925,0.8062499 0.0775,0.39875 0.12625,1.1712506 0.14875,2.3162504 0.02125,1.12 0.10625,2.0375 0.255,2.7525 0.1475,0.71625 0.43875,1.325 0.87125,1.82875 0.43375,0.50375 1.06125,0.95875 1.88375,1.36625 z"
     id="path9"
     style="fill:url(#_lgradient_33);fill-rule:evenodd;stroke-width:1.24999988"
     inkscape:connector-curvature="0" />
</svg>
