<?xml version="1.0" encoding="UTF-8" standalone="no"?>
<!-- Generator: Gravit.io -->

<svg
   xmlns:dc="http://purl.org/dc/elements/1.1/"
   xmlns:cc="http://creativecommons.org/ns#"
   xmlns:rdf="http://www.w3.org/1999/02/22-rdf-syntax-ns#"
   xmlns:svg="http://www.w3.org/2000/svg"
   xmlns="http://www.w3.org/2000/svg"
   xmlns:sodipodi="http://sodipodi.sourceforge.net/DTD/sodipodi-0.dtd"
   xmlns:inkscape="http://www.inkscape.org/namespaces/inkscape"
   style="isolation:isolate"
   viewBox="0 0 32 32"
   width="32pt"
   height="32pt"
   version="1.1"
   id="svg11"
   sodipodi:docname="classviewer-method.svg"
   inkscape:version="0.92.4 (5da689c313, 2019-01-14)">
  <metadata
     id="metadata17">
    <rdf:RDF>
      <cc:Work
         rdf:about="">
        <dc:format>image/svg+xml</dc:format>
        <dc:type
           rdf:resource="http://purl.org/dc/dcmitype/StillImage" />
      </cc:Work>
    </rdf:RDF>
  </metadata>
  <defs
     id="defs15" />
  <sodipodi:namedview
     pagecolor="#ffffff"
     bordercolor="#666666"
     borderopacity="1"
     objecttolerance="10"
     gridtolerance="10"
     guidetolerance="10"
     inkscape:pageopacity="0"
     inkscape:pageshadow="2"
     inkscape:window-width="1280"
     inkscape:window-height="947"
     id="namedview13"
     showgrid="false"
     inkscape:zoom="15.664673"
     inkscape:cx="21.333333"
     inkscape:cy="21.333333"
     inkscape:window-x="0"
     inkscape:window-y="0"
     inkscape:window-maximized="1"
     inkscape:current-layer="svg11" />
  <linearGradient
     id="_lgradient_16"
     x1="-9.020562075079397e-17"
     y1="0.5"
     x2="1.0869565217400752"
     y2="0.5333333333255554"
     gradientTransform="matrix(30.00065,0,0,19.565642,0.99967382,6.217178)"
     gradientUnits="userSpaceOnUse">
    <stop
       offset="0%"
       stop-opacity="1"
       style="stop-color:rgb(198,255,221)"
       id="stop2" />
    <stop
       offset="50%"
       stop-opacity="1"
       style="stop-color:rgb(251,215,134)"
       id="stop4" />
    <stop
       offset="100%"
       stop-opacity="1"
       style="stop-color:rgb(247,121,125)"
       id="stop6" />
  </linearGradient>
  <path
     d="M 26.277179,16 19.833561,9.5576857 c -0.76306,-0.7643644 -0.76306,-2.0035217 0,-2.7678861 0.764364,-0.7630601 2.003522,-0.7630601 2.767886,0 l 7.826257,7.8262574 c 0.76306,0.764364 0.76306,2.003522 0,2.767886 L 22.601447,25.2102 c -0.764364,0.76306 -2.003522,0.76306 -2.767886,0 -0.76306,-0.764364 -0.76306,-2.003522 0,-2.767886 z m -20.5543591,0 6.4436181,6.442314 c 0.76306,0.764364 0.76306,2.003522 0,2.767886 -0.764364,0.76306 -2.003522,0.76306 -2.767886,0 L 1.572295,17.383943 c -0.76305998,-0.764364 -0.76305998,-2.003522 0,-2.767886 L 9.398552,6.7897996 c 0.764364,-0.7630601 2.003522,-0.7630601 2.767886,0 0.76306,0.7643644 0.76306,2.0035217 0,2.7678861 z"
     id="path9"
     style="fill:url(#_lgradient_16);fill-rule:evenodd;stroke-width:1.30437613"
     inkscape:connector-curvature="0" />
</svg>
