<?xml version="1.0" encoding="UTF-8" standalone="no"?>
<!-- Generator: Gravit.io -->

<svg
   xmlns:dc="http://purl.org/dc/elements/1.1/"
   xmlns:cc="http://creativecommons.org/ns#"
   xmlns:rdf="http://www.w3.org/1999/02/22-rdf-syntax-ns#"
   xmlns:svg="http://www.w3.org/2000/svg"
   xmlns="http://www.w3.org/2000/svg"
   xmlns:sodipodi="http://sodipodi.sourceforge.net/DTD/sodipodi-0.dtd"
   xmlns:inkscape="http://www.inkscape.org/namespaces/inkscape"
   style="isolation:isolate"
   viewBox="0 0 36 36"
   width="48"
   height="48"
   version="1.1"
   id="svg9"
   sodipodi:docname="classviewer-macro.svg"
   inkscape:version="0.92.4 (5da689c313, 2019-01-14)">
  <metadata
     id="metadata15">
    <rdf:RDF>
      <cc:Work
         rdf:about="">
        <dc:format>image/svg+xml</dc:format>
        <dc:type
           rdf:resource="http://purl.org/dc/dcmitype/StillImage" />
        <dc:title></dc:title>
      </cc:Work>
    </rdf:RDF>
  </metadata>
  <defs
     id="defs13" />
  <sodipodi:namedview
     pagecolor="#ffffff"
     bordercolor="#666666"
     borderopacity="1"
     objecttolerance="10"
     gridtolerance="10"
     guidetolerance="10"
     inkscape:pageopacity="0"
     inkscape:pageshadow="2"
     inkscape:window-width="1280"
     inkscape:window-height="947"
     id="namedview11"
     showgrid="false"
     inkscape:zoom="123.69665"
     inkscape:cx="19.684973"
     inkscape:cy="21.333333"
     inkscape:window-x="0"
     inkscape:window-y="0"
     inkscape:window-maximized="1"
     inkscape:current-layer="svg9" />
  <linearGradient
     id="_lgradient_28"
     x1="0.21875"
     y1="0.17506042"
     x2="1.0989902"
     y2="1.1181589"
     gradientTransform="matrix(30,0,0,30,1.0000001,1.0000001)"
     gradientUnits="userSpaceOnUse">
    <stop
       offset="0%"
       stop-opacity="1"
       style="stop-color:rgb(252,203,144)"
       id="stop2" />
    <stop
       offset="83.91304347826087%"
       stop-opacity="1"
       style="stop-color:rgb(213,126,235)"
       id="stop4" />
  </linearGradient>
  <g
     id="g816"
     transform="matrix(1.2,0,0,1.2,-1.1999994,-1.1999994)">
    <path
       inkscape:connector-curvature="0"
       style="fill:url(#_lgradient_28);stroke-width:1.25"
       id="path7"
       d="m 7.25,0.99999997 h 17.499999 c 3.45125,0 6.25,2.79874993 6.25,6.24999983 V 24.749999 c 0,3.45125 -2.79875,6.25 -6.25,6.25 H 7.25 c -3.4512501,0 -6.25,-2.79875 -6.25,-6.25 V 7.2499998 C 1,3.7987499 3.7987499,0.99999997 7.25,0.99999997 Z M 16.625,24.749999 h 7.499999 c 1.035,0 1.875,-0.84 1.875,-1.875 0,-1.035 -0.84,-1.875 -1.875,-1.875 H 16.625 c -1.035,0 -1.875,0.84 -1.875,1.875 0,1.035 0.84,1.875 1.875,1.875 z m -6.25875,-9.375 -3.8925002,4.37875 c -0.6874999,0.775 -0.6187499,1.96 0.155,2.6475 0.7750002,0.6875 1.9600002,0.61875 2.6475002,-0.155 l 5,-5.625 c 0.63125,-0.71125 0.63125,-1.78125 0,-2.492499 l -5,-5.6250002 c -0.6875,-0.77375 -1.8725,-0.8425 -2.6475002,-0.155 -0.7737499,0.6875 -0.8424999,1.8725002 -0.155,2.6475002 z" />
  </g>
</svg>
