<?xml version="1.0" encoding="UTF-8" standalone="no"?>
<!-- Generator: Gravit.io -->

<svg
   xmlns:dc="http://purl.org/dc/elements/1.1/"
   xmlns:cc="http://creativecommons.org/ns#"
   xmlns:rdf="http://www.w3.org/1999/02/22-rdf-syntax-ns#"
   xmlns:svg="http://www.w3.org/2000/svg"
   xmlns="http://www.w3.org/2000/svg"
   xmlns:sodipodi="http://sodipodi.sourceforge.net/DTD/sodipodi-0.dtd"
   xmlns:inkscape="http://www.inkscape.org/namespaces/inkscape"
   style="isolation:isolate"
   viewBox="0 0 36 36"
   width="48"
   height="48"
   version="1.1"
   id="svg11"
   sodipodi:docname="classviewer-member.svg"
   inkscape:version="0.92.4 (5da689c313, 2019-01-14)">
  <metadata
     id="metadata17">
    <rdf:RDF>
      <cc:Work
         rdf:about="">
        <dc:format>image/svg+xml</dc:format>
        <dc:type
           rdf:resource="http://purl.org/dc/dcmitype/StillImage" />
        <dc:title></dc:title>
      </cc:Work>
    </rdf:RDF>
  </metadata>
  <defs
     id="defs15">
    <linearGradient
       gradientUnits="userSpaceOnUse"
       gradientTransform="matrix(29.999999,0,0,29.999999,0.9999998,0.9999998)"
       y2="0.5"
       x2="1"
       y1="0.5"
       x1="0"
       id="_lgradient_7">
      <stop
         id="stop2"
         style="stop-color:rgb(255,224,49)"
         stop-opacity="1"
         offset="0%" />
      <stop
         id="stop4"
         style="stop-color:rgb(250,0,117)"
         stop-opacity="1"
         offset="100%" />
    </linearGradient>
  </defs>
  <sodipodi:namedview
     pagecolor="#ffffff"
     bordercolor="#666666"
     borderopacity="1"
     objecttolerance="10"
     gridtolerance="10"
     guidetolerance="10"
     inkscape:pageopacity="0"
     inkscape:pageshadow="2"
     inkscape:window-width="1280"
     inkscape:window-height="947"
     id="namedview13"
     showgrid="false"
     inkscape:zoom="123.69665"
     inkscape:cx="17.705998"
     inkscape:cy="21.14182"
     inkscape:window-x="0"
     inkscape:window-y="0"
     inkscape:window-maximized="1"
     inkscape:current-layer="svg11" />
  <g
     id="g824"
     transform="matrix(1.2,0,0,1.2,-1.1999993,-1.1999993)">
    <path
       d="m 13.528571,26.605714 c -0.851429,2.552857 -3.26,4.394285 -6.0999999,4.394285 -3.5499999,0 -6.4285713,-2.878571 -6.4285713,-6.428571 0,-2.798571 1.7885714,-5.18 4.2857142,-6.062857 V 3.1428569 c 0,-1.1828571 0.96,-2.1428571 2.1428571,-2.1428571 1.1828571,0 2.1428571,0.96 2.1428571,2.1428571 V 18.508571 c 1.7799998,0.63 3.1999998,2.02 3.8685718,3.781428 4.535714,-0.734285 8.115714,-4.314285 8.849999,-8.849999 -2.424285,-0.92 -4.147142,-3.264286 -4.147142,-6.0114289 0,-3.5499999 2.878571,-6.4285713 6.428571,-6.4285713 3.55,0 6.428571,2.8785714 6.428571,6.4285713 0,2.8399999 -1.841428,5.2485709 -4.394285,6.0999999 -0.824286,6.834286 -6.242857,12.252857 -13.077143,13.077143 z M 24.571428,9.5714282 c 1.182857,0 2.142857,-0.96 2.142857,-2.1428571 0,-1.1828571 -0.96,-2.1428571 -2.142857,-2.1428571 -1.182857,0 -2.142857,0.96 -2.142857,2.1428571 0,1.1828571 0.96,2.1428571 2.142857,2.1428571 z M 7.4285711,26.714285 c 1.1828571,0 2.1428571,-0.96 2.1428571,-2.142857 0,-1.182857 -0.96,-2.142857 -2.1428571,-2.142857 -1.1828571,0 -2.1428571,0.96 -2.1428571,2.142857 0,1.182857 0.96,2.142857 2.1428571,2.142857 z"
       id="path7"
       style="fill:url(#_lgradient_7);stroke-width:1.42857134"
       inkscape:connector-curvature="0" />
  </g>
</svg>
