<?xml version="1.0" encoding="UTF-8" standalone="no"?>
<!-- Generator: Gravit.io -->

<svg
   xmlns:dc="http://purl.org/dc/elements/1.1/"
   xmlns:cc="http://creativecommons.org/ns#"
   xmlns:rdf="http://www.w3.org/1999/02/22-rdf-syntax-ns#"
   xmlns:svg="http://www.w3.org/2000/svg"
   xmlns="http://www.w3.org/2000/svg"
   xmlns:sodipodi="http://sodipodi.sourceforge.net/DTD/sodipodi-0.dtd"
   xmlns:inkscape="http://www.inkscape.org/namespaces/inkscape"
   style="isolation:isolate"
   viewBox="0 0 36 36"
   width="48"
   height="48"
   version="1.1"
   id="svg34"
   sodipodi:docname="clion.svg"
   inkscape:version="0.92.4 (5da689c313, 2019-01-14)">
  <metadata
     id="metadata40">
    <rdf:RDF>
      <cc:Work
         rdf:about="">
        <dc:format>image/svg+xml</dc:format>
        <dc:type
           rdf:resource="http://purl.org/dc/dcmitype/StillImage" />
        <dc:title></dc:title>
      </cc:Work>
    </rdf:RDF>
  </metadata>
  <defs
     id="defs38" />
  <sodipodi:namedview
     pagecolor="#ffffff"
     bordercolor="#666666"
     borderopacity="1"
     objecttolerance="10"
     gridtolerance="10"
     guidetolerance="10"
     inkscape:pageopacity="0"
     inkscape:pageshadow="2"
     inkscape:window-width="640"
     inkscape:window-height="480"
     id="namedview36"
     showgrid="false"
     inkscape:zoom="29.365243"
     inkscape:cx="25.325443"
     inkscape:cy="32"
     inkscape:current-layer="svg34"
     units="px" />
  <linearGradient
     id="_lgradient_83"
     x1="0.54368931"
     y1="0.037227947"
     x2="0.67270768"
     y2="1.0061728"
     gradientTransform="matrix(30.35,0,0,48.33,-0.09,-0.15)"
     gradientUnits="userSpaceOnUse">
    <stop
       offset="0%"
       stop-opacity="1"
       style="stop-color:rgb(207,78,140)"
       id="stop2" />
    <stop
       offset="51.73913043478261%"
       stop-opacity="1"
       style="stop-color:rgb(11,174,200)"
       id="stop4" />
    <stop
       offset="97.82608695652173%"
       stop-opacity="1"
       style="stop-color:rgb(34,216,143)"
       id="stop6" />
  </linearGradient>
  <linearGradient
     id="_lgradient_84"
     x1="0"
     y1="0.5"
     x2="0.98779029"
     y2="0.34421042"
     gradientTransform="matrix(24.13,0,0,26.15,24.2,0.41)"
     gradientUnits="userSpaceOnUse">
    <stop
       offset="100%"
       stop-opacity="1"
       style="stop-color:rgb(34,216,143)"
       id="stop11" />
    <stop
       offset="100%"
       stop-opacity="1"
       style="stop-color:rgb(33,214,145)"
       id="stop13" />
  </linearGradient>
  <linearGradient
     id="_lgradient_85"
     x1="0"
     y1="0.5"
     x2="0.98779029"
     y2="0.34421042"
     gradientTransform="matrix(27.37,0,0,22.68,21.17,25.39)"
     gradientUnits="userSpaceOnUse">
    <stop
       offset="100%"
       stop-opacity="1"
       style="stop-color:rgb(34,216,143)"
       id="stop18" />
    <stop
       offset="100%"
       stop-opacity="1"
       style="stop-color:rgb(33,214,145)"
       id="stop20" />
  </linearGradient>
  <linearGradient
     id="_lgradient_86"
     x1="0.1124031"
     y1="0.096899226"
     x2="0.93652022"
     y2="0.99233419"
     gradientTransform="matrix(32.25,0,0,32.25,7.875,7.875)"
     gradientUnits="userSpaceOnUse">
    <stop
       offset="0%"
       stop-opacity="1"
       style="stop-color:rgb(207,78,140)"
       id="stop25" />
    <stop
       offset="51.73913043478261%"
       stop-opacity="1"
       style="stop-color:rgb(11,174,200)"
       id="stop27" />
    <stop
       offset="97.82608695652173%"
       stop-opacity="1"
       style="stop-color:rgb(34,216,143)"
       id="stop29" />
  </linearGradient>
  <g
     id="g851"
     transform="matrix(0.74028378,0,0,0.74028378,0.06662543,0.22208502)">
    <path
       id="path9"
       d="M 21,39.33 23,38 26.81,39.33 25.24,40.57 15.62,48.18 -0.09,36.17 2.54,7.39 18.15,-0.15 28.36,3.09 30.26,3.7 29.05,7.51 27.14,6.91 18.45,4.15 6.31,10.01 4.09,34.33 15.58,43.12 Z"
       style="fill:url(#_lgradient_83)"
       inkscape:connector-curvature="0" />
    <path
       id="path16"
       d="M 29.29,9 27.98,10.01 24.2,9.41 25.4,7.81 27.98,4.33 42,0.41 l 6.33,14.25 -7.73,10.3 -1.2,1.6 -2,-4 v 0 l 6.32,-8.42 -3.97,-8.95 -9.38,2.63 z"
       style="fill:url(#_lgradient_84)"
       inkscape:connector-curvature="0" />
    <path
       id="path23"
       d="m 39.06,30 -1.14,-0.92 v -3.69 l 1.85,0.76 8.77,3.64 -6.75,18.28 -14.23,-0.74 -4.97,-4.91 -1.42,-1.4 2.81,-2.85 1.43,1.41 3.88,3.84 9.77,0.51 4.4,-11.92 z"
       style="fill:url(#_lgradient_85)"
       inkscape:connector-curvature="0" />
    <path
       id="path32"
       d="m 37.321,15.973 v 0 c 0,0.773 0.628,1.402 1.402,1.402 v 0 c 0.774,0 1.402,-0.629 1.402,-1.402 v 0 -4.593 c 0,-1.934 -1.571,-3.505 -3.505,-3.505 H 11.38 c -1.934,0 -3.505,1.571 -3.505,3.505 v 13.321 0 c 0,0.774 0.628,1.402 1.402,1.402 v 0 c 0.774,0 1.402,-0.628 1.402,-1.402 v 0 -11.918 c 0,-1.161 0.943,-2.104 2.104,-2.104 h 22.434 c 1.161,0 2.104,0.943 2.104,2.104 z M 10.679,32.027 v 0 c 0,-0.773 -0.628,-1.402 -1.402,-1.402 v 0 c -0.774,0 -1.402,0.629 -1.402,1.402 v 0 4.593 c 0,1.934 1.571,3.505 3.505,3.505 h 25.24 c 1.934,0 3.505,-1.571 3.505,-3.505 v -13.896 0 c 0,-0.774 -0.628,-1.402 -1.402,-1.402 v 0 c -0.774,0 -1.402,0.628 -1.402,1.402 v 0 12.493 c 0,1.161 -0.943,2.104 -2.104,2.104 H 12.783 c -1.161,0 -2.104,-0.943 -2.104,-2.104 z m 2.171,1.348 H 24.1 V 35.25 H 12.85 Z M 12.625,19.2 c -0.038,-1.722 0.629,-3.385 1.847,-4.603 1.218,-1.218 2.881,-1.885 4.603,-1.847 2.325,0 3.75,0.75 4.875,1.95 l -1.725,2.025 c -0.975,-0.9 -1.95,-1.425 -3.15,-1.425 -2.1,0 -3.6,1.725 -3.6,3.9 0,2.1 1.5,3.9 3.6,3.9 1.425,0 2.325,-0.6 3.3,-1.425 L 24.1,23.4 c -1.275,1.35 -2.7,2.25 -5.1,2.25 -1.704,0 -3.337,-0.682 -4.535,-1.894 -1.197,-1.211 -1.86,-2.852 -1.84,-4.556 z m 13.35,-6.3 h 2.775 v 10.125 h 5.4 v 2.325 h -8.175 z"
       style="fill:url(#_lgradient_86);fill-rule:evenodd"
       inkscape:connector-curvature="0" />
  </g>
</svg>
