<?xml version="1.0" encoding="UTF-8" standalone="no"?>
<!-- Generator: Gravit.io -->

<svg
   xmlns:dc="http://purl.org/dc/elements/1.1/"
   xmlns:cc="http://creativecommons.org/ns#"
   xmlns:rdf="http://www.w3.org/1999/02/22-rdf-syntax-ns#"
   xmlns:svg="http://www.w3.org/2000/svg"
   xmlns="http://www.w3.org/2000/svg"
   xmlns:sodipodi="http://sodipodi.sourceforge.net/DTD/sodipodi-0.dtd"
   xmlns:inkscape="http://www.inkscape.org/namespaces/inkscape"
   style="isolation:isolate"
   viewBox="0 0 36 36"
   width="48"
   height="48"
   version="1.1"
   id="svg25"
   sodipodi:docname="CMakeSetup.svg"
   inkscape:version="0.92.4 (5da689c313, 2019-01-14)">
  <metadata
     id="metadata31">
    <rdf:RDF>
      <cc:Work
         rdf:about="">
        <dc:format>image/svg+xml</dc:format>
        <dc:type
           rdf:resource="http://purl.org/dc/dcmitype/StillImage" />
        <dc:title></dc:title>
      </cc:Work>
    </rdf:RDF>
  </metadata>
  <defs
     id="defs29" />
  <sodipodi:namedview
     pagecolor="#ffffff"
     bordercolor="#666666"
     borderopacity="1"
     objecttolerance="10"
     gridtolerance="10"
     guidetolerance="10"
     inkscape:pageopacity="0"
     inkscape:pageshadow="2"
     inkscape:window-width="640"
     inkscape:window-height="480"
     id="namedview27"
     showgrid="false"
     inkscape:zoom="29.365243"
     inkscape:cx="25.325443"
     inkscape:cy="32"
     inkscape:current-layer="svg25"
     units="px" />
  <linearGradient
     id="_lgradient_30"
     x1="0.33956665"
     y1="0.84695208"
     x2="0.11809503"
     y2="0.06428875"
     gradientTransform="matrix(27.02,0,0,41.72,19.837,2.748)"
     gradientUnits="userSpaceOnUse">
    <stop
       offset="2.1739130434782608%"
       stop-opacity="1"
       style="stop-color:rgb(242,79,92)"
       id="stop2" />
    <stop
       offset="49.56521739130435%"
       stop-opacity="1"
       style="stop-color:rgb(208,103,207)"
       id="stop4" />
    <stop
       offset="98.26086956521739%"
       stop-opacity="1"
       style="stop-color:rgb(0,115,255)"
       id="stop6" />
  </linearGradient>
  <linearGradient
     id="_lgradient_31"
     x1="0"
     y1="0.5"
     x2="1"
     y2="0.5"
     gradientTransform="matrix(33.53,0,0,23.38,-0.273,20.868)"
     gradientUnits="userSpaceOnUse">
    <stop
       offset="0%"
       stop-opacity="1"
       style="stop-color:rgb(67,233,123)"
       id="stop11" />
    <stop
       offset="97.82608695652173%"
       stop-opacity="1"
       style="stop-color:rgb(56,249,215)"
       id="stop13" />
  </linearGradient>
  <linearGradient
     id="_lgradient_32"
     x1="0.11290322"
     y1="0.94161731"
     x2="0.95972586"
     y2="0.067546442"
     gradientTransform="matrix(17.05,0,0,28.69,6.707,5.108)"
     gradientUnits="userSpaceOnUse">
    <stop
       offset="0%"
       stop-opacity="1"
       style="stop-color:rgb(0,198,255)"
       id="stop18" />
    <stop
       offset="98.69565217391305%"
       stop-opacity="1"
       style="stop-color:rgb(0,114,255)"
       id="stop20" />
  </linearGradient>
  <g
     id="g841"
     transform="matrix(0.82727253,0,0,0.82727253,-1.8545001,-1.8544127)">
    <path
       id="path9"
       d="M 22.427,6.438 22.267,5.108 22.69,4.44 c 0.589,-0.934 1.515,-0.915 2.065,0.042 l 0.332,0.576 20.32,36.784 c 0.8,1.45 0.187,2.167 -1.369,1.601 L 21.247,35.158 v 0 c -0.778,-0.281 -1.181,-1.141 -0.9,-1.92 v 0 c 0.282,-0.778 1.142,-1.181 1.92,-0.9 v 0 l 18.39,6.69 z"
       style="fill:url(#_lgradient_30)"
       inkscape:connector-curvature="0" />
    <path
       id="path16"
       d="m 31.757,41.248 v 0 c 0.828,0 1.5,0.672 1.5,1.5 v 0 c 0,0.828 -0.672,1.5 -1.5,1.5 v 0 H 4.727 c -2.759,0 -3.304,-1.464 -1.216,-3.268 L 24.527,22.829 c 1.253,-1.082 2.492,-0.635 2.764,0.998 l 0.946,5.671 v 0 c 0.138,0.817 -0.413,1.592 -1.23,1.73 v 0 c -0.816,0.138 -1.592,-0.413 -1.73,-1.23 v 0 l -0.56,-3.37 -16.93,14.62 z"
       style="fill:url(#_lgradient_31)"
       inkscape:connector-curvature="0" />
    <path
       id="path23"
       d="m 10.057,32.498 v 0 c -0.414,0.718 -1.332,0.964 -2.05,0.55 v 0 C 7.29,32.634 7.043,31.716 7.457,30.998 v 0 l 11.98,-20.96 2.83,-4.93 1.49,3.64 -1.68,2.71 z"
       style="fill:url(#_lgradient_32)"
       inkscape:connector-curvature="0" />
  </g>
</svg>
