<?xml version="1.0" encoding="UTF-8" standalone="no"?>
<!-- Generator: Gravit.io -->

<svg
   xmlns:dc="http://purl.org/dc/elements/1.1/"
   xmlns:cc="http://creativecommons.org/ns#"
   xmlns:rdf="http://www.w3.org/1999/02/22-rdf-syntax-ns#"
   xmlns:svg="http://www.w3.org/2000/svg"
   xmlns="http://www.w3.org/2000/svg"
   xmlns:sodipodi="http://sodipodi.sourceforge.net/DTD/sodipodi-0.dtd"
   xmlns:inkscape="http://www.inkscape.org/namespaces/inkscape"
   style="isolation:isolate"
   viewBox="0 0 36 36"
   width="48"
   height="48"
   version="1.1"
   id="svg30"
   sodipodi:docname="codeblocks.svg"
   inkscape:version="0.92.4 (5da689c313, 2019-01-14)">
  <metadata
     id="metadata36">
    <rdf:RDF>
      <cc:Work
         rdf:about="">
        <dc:format>image/svg+xml</dc:format>
        <dc:type
           rdf:resource="http://purl.org/dc/dcmitype/StillImage" />
        <dc:title></dc:title>
      </cc:Work>
    </rdf:RDF>
  </metadata>
  <defs
     id="defs34" />
  <sodipodi:namedview
     pagecolor="#ffffff"
     bordercolor="#666666"
     borderopacity="1"
     objecttolerance="10"
     gridtolerance="10"
     guidetolerance="10"
     inkscape:pageopacity="0"
     inkscape:pageshadow="2"
     inkscape:window-width="640"
     inkscape:window-height="480"
     id="namedview32"
     showgrid="false"
     inkscape:zoom="29.365243"
     inkscape:cx="25.325443"
     inkscape:cy="32"
     inkscape:current-layer="svg30"
     units="px" />
  <linearGradient
     id="_lgradient_35"
     x1="0.92934781"
     y1="0.097222224"
     x2="0.034903381"
     y2="0.92777777"
     gradientTransform="matrix(23,0,0,18,23,5)"
     gradientUnits="userSpaceOnUse">
    <stop
       offset="0%"
       stop-opacity="1"
       style="stop-color:rgb(67,233,123)"
       id="stop2" />
    <stop
       offset="97.82608695652173%"
       stop-opacity="1"
       style="stop-color:rgb(56,249,215)"
       id="stop4" />
  </linearGradient>
  <linearGradient
     id="_lgradient_36"
     x1="0.96875"
     y1="0.94999999"
     x2="-0.098260306"
     y2="-0.10219072"
     gradientTransform="matrix(20,0,0,20,2,5)"
     gradientUnits="userSpaceOnUse">
    <stop
       offset="0%"
       stop-opacity="1"
       style="stop-color:rgb(255,65,108)"
       id="stop9" />
    <stop
       offset="84.34782608695653%"
       stop-opacity="1"
       style="stop-color:rgb(255,75,43)"
       id="stop11" />
  </linearGradient>
  <linearGradient
     id="_lgradient_37"
     x1="0.043478262"
     y1="0.94444442"
     x2="0.98792273"
     y2="-0.070679009"
     gradientTransform="matrix(23,0,0,18,2,26)"
     gradientUnits="userSpaceOnUse">
    <stop
       offset="0%"
       stop-opacity="1"
       style="stop-color:rgb(247,242,6)"
       id="stop16" />
    <stop
       offset="97.82608695652173%"
       stop-opacity="1"
       style="stop-color:rgb(255,187,36)"
       id="stop18" />
  </linearGradient>
  <linearGradient
     id="_lgradient_38"
     x1="0.93124998"
     y1="0.96249998"
     x2="-0.06296806"
     y2="0.012610132"
     gradientTransform="matrix(20,0,0,20,26,24)"
     gradientUnits="userSpaceOnUse">
    <stop
       offset="0%"
       stop-opacity="1"
       style="stop-color:rgb(0,198,255)"
       id="stop23" />
    <stop
       offset="98.69565217391305%"
       stop-opacity="1"
       style="stop-color:rgb(0,114,255)"
       id="stop25" />
  </linearGradient>
  <g
     id="g847"
     transform="matrix(0.81818182,0,0,0.81818182,-1.6363637,-2.0454546)">
    <path
       id="path7"
       d="m 30,16 v 0 c 0,1.104 -0.896,2 -2,2 v 0 c -1.104,0 -2,-0.896 -2,-2 v 0 -8 c 0,-1.656 1.344,-3 3,-3 h 14 c 1.656,0 3,1.344 3,3 v 12 c 0,1.656 -1.344,3 -3,3 H 25 v 0 c -1.104,0 -2,-0.896 -2,-2 v 0 c 0,-1.104 0.896,-2 2,-2 v 0 H 42 V 9 H 30 Z"
       style="fill:url(#_lgradient_35)"
       inkscape:connector-curvature="0" />
    <path
       id="path14"
       d="m 14,19 v 0 c 1.104,0 2,0.896 2,2 v 0 c 0,1.104 -0.896,2 -2,2 v 0 H 5 C 3.344,23 2,21.656 2,20 V 8 C 2,6.344 3.344,5 5,5 h 14 c 1.656,0 3,1.344 3,3 v 15 0 c 0,1.104 -0.896,2 -2,2 v 0 c -1.104,0 -2,-0.896 -2,-2 V 23 9 H 6 v 10 z"
       style="fill:url(#_lgradient_36)"
       inkscape:connector-curvature="0" />
    <path
       id="path21"
       d="m 18,34 v 0 c 0,-1.104 0.896,-2 2,-2 v 0 c 1.104,0 2,0.896 2,2 v 0 7 c 0,1.656 -1.344,3 -3,3 H 5 C 3.344,44 2,42.656 2,41 V 29 c 0,-1.656 1.344,-3 3,-3 h 18 v 0 c 1.104,0 2,0.896 2,2 v 0 c 0,1.104 -0.896,2 -2,2 v 0 H 6 v 10 h 12 z"
       style="fill:url(#_lgradient_37)"
       inkscape:connector-curvature="0" />
    <path
       id="path28"
       d="m 34,30 v 0 c -1.104,0 -2,-0.896 -2,-2 v 0 c 0,-1.104 0.896,-2 2,-2 v 0 h 9 c 1.656,0 3,1.344 3,3 v 12 c 0,1.656 -1.344,3 -3,3 H 29 c -1.656,0 -3,-1.344 -3,-3 v -15 0 c 0,-1.104 0.896,-2 2,-2 v 0 c 1.104,0 2,0.896 2,2 v 0 14 H 42 V 30 Z"
       style="fill:url(#_lgradient_38)"
       inkscape:connector-curvature="0" />
  </g>
</svg>
