<?xml version="1.0" encoding="UTF-8" standalone="no"?>
<!-- Generator: Gravit.io -->

<svg
   xmlns:dc="http://purl.org/dc/elements/1.1/"
   xmlns:cc="http://creativecommons.org/ns#"
   xmlns:rdf="http://www.w3.org/1999/02/22-rdf-syntax-ns#"
   xmlns:svg="http://www.w3.org/2000/svg"
   xmlns="http://www.w3.org/2000/svg"
   xmlns:sodipodi="http://sodipodi.sourceforge.net/DTD/sodipodi-0.dtd"
   xmlns:inkscape="http://www.inkscape.org/namespaces/inkscape"
   style="isolation:isolate"
   viewBox="0 0 36 36"
   width="48"
   height="48"
   version="1.1"
   id="svg11"
   sodipodi:docname="com.github.fabiocolacio.marker.svg"
   inkscape:version="0.92.4 (5da689c313, 2019-01-14)">
  <metadata
     id="metadata17">
    <rdf:RDF>
      <cc:Work
         rdf:about="">
        <dc:format>image/svg+xml</dc:format>
        <dc:type
           rdf:resource="http://purl.org/dc/dcmitype/StillImage" />
        <dc:title></dc:title>
      </cc:Work>
    </rdf:RDF>
  </metadata>
  <defs
     id="defs15" />
  <sodipodi:namedview
     pagecolor="#ffffff"
     bordercolor="#666666"
     borderopacity="1"
     objecttolerance="10"
     gridtolerance="10"
     guidetolerance="10"
     inkscape:pageopacity="0"
     inkscape:pageshadow="2"
     inkscape:window-width="640"
     inkscape:window-height="480"
     id="namedview13"
     showgrid="false"
     inkscape:zoom="29.365243"
     inkscape:cx="25.325443"
     inkscape:cy="32"
     inkscape:current-layer="svg11"
     units="px" />
  <linearGradient
     id="_lgradient_0"
     x1="0.58405644"
     y1="0.069444448"
     x2="1.0054971"
     y2="1.0122981"
     gradientTransform="matrix(34.885,0,0,45,7,2)"
     gradientUnits="userSpaceOnUse">
    <stop
       offset="0%"
       stop-opacity="1"
       style="stop-color:rgb(34,216,143)"
       id="stop2" />
    <stop
       offset="51.73913043478261%"
       stop-opacity="1"
       style="stop-color:rgb(147,135,218)"
       id="stop4" />
    <stop
       offset="98.69565217391305%"
       stop-opacity="1"
       style="stop-color:rgb(255,89,230)"
       id="stop6" />
  </linearGradient>
  <g
     id="g825"
     transform="matrix(0.8000049,0,0,0.8000049,-1.5541105,-1.6002303)">
    <path
       id="path9"
       d="m 15.612,26.656 -1.157,1.933 c 0.56,0.719 1.058,1.484 1.487,2.287 0.618,1.186 1.033,2.46 1.22,3.784 0.056,0.452 0.098,0.909 0.095,1.361 0.372,-0.173 0.747,-0.333 1.126,-0.48 1.205,-0.456 2.467,-0.715 3.755,-0.783 0.833,-0.049 1.684,-0.03 2.516,0.06 l 1.145,-2.065 z m 2.053,-3.433 1.185,-1.98 v 0 c 0.566,-0.947 0.257,-2.176 -0.69,-2.743 v 0 c -0.947,-0.567 -2.176,-0.258 -2.743,0.689 v 0 l -5.134,8.582 c -0.226,0.378 -0.321,0.81 -0.269,1.249 0.043,0.434 0.232,0.838 0.531,1.157 0.732,0.764 1.352,1.636 1.856,2.566 0.404,0.766 0.672,1.603 0.8,2.46 0.108,0.834 0.066,1.683 -0.113,2.508 -0.23,0.969 -0.598,1.915 -1.094,2.783 q -0.253,0.443 -0.212,1.446 l 1.341,0.348 1.429,0.319 0.75,0.11 q 1.361,-1.516 2.166,-2.141 c 0.71,-0.543 1.491,-0.973 2.323,-1.291 0.821,-0.301 1.686,-0.482 2.57,-0.537 0.991,-0.059 1.989,0.025 2.965,0.225 0.853,0.172 1.73,-0.224 2.156,-0.994 L 41.503,12.653 c 0.802,-1.449 0.3,-3.315 -1.121,-4.165 L 31.002,2.877 30.282,2.446 C 28.861,1.596 26.924,1.998 25.959,3.343 l -6.339,8.84 v 0 c -0.647,0.899 -0.392,2.141 0.569,2.77 v 0 c 0.961,0.63 2.158,0.435 2.672,-0.435 v 0 l 5.951,-8.291 0.137,0.083 8.642,5.169 -9.852,17.773 z M 9,43 h 30 c 1.104,0 2,0.896 2,2 v 0 c 0,1.104 -0.896,2 -2,2 H 9 C 7.896,47 7,46.104 7,45 v 0 c 0,-1.104 0.896,-2 2,-2 z"
       style="fill:url(#_lgradient_0);fill-rule:evenodd"
       inkscape:connector-curvature="0" />
  </g>
</svg>
