<?xml version="1.0" encoding="UTF-8" standalone="no"?>
<!-- Generator: Gravit.io -->

<svg
   xmlns:dc="http://purl.org/dc/elements/1.1/"
   xmlns:cc="http://creativecommons.org/ns#"
   xmlns:rdf="http://www.w3.org/1999/02/22-rdf-syntax-ns#"
   xmlns:svg="http://www.w3.org/2000/svg"
   xmlns="http://www.w3.org/2000/svg"
   xmlns:sodipodi="http://sodipodi.sourceforge.net/DTD/sodipodi-0.dtd"
   xmlns:inkscape="http://www.inkscape.org/namespaces/inkscape"
   style="isolation:isolate"
   viewBox="0 0 36 36"
   width="48"
   height="48"
   version="1.1"
   id="svg11"
   sodipodi:docname="com.wps.Office.kprometheus.svg"
   inkscape:version="0.92.4 (5da689c313, 2019-01-14)">
  <metadata
     id="metadata17">
    <rdf:RDF>
      <cc:Work
         rdf:about="">
        <dc:format>image/svg+xml</dc:format>
        <dc:type
           rdf:resource="http://purl.org/dc/dcmitype/StillImage" />
        <dc:title></dc:title>
      </cc:Work>
    </rdf:RDF>
  </metadata>
  <defs
     id="defs15" />
  <sodipodi:namedview
     pagecolor="#ffffff"
     bordercolor="#666666"
     borderopacity="1"
     objecttolerance="10"
     gridtolerance="10"
     guidetolerance="10"
     inkscape:pageopacity="0"
     inkscape:pageshadow="2"
     inkscape:window-width="640"
     inkscape:window-height="480"
     id="namedview13"
     showgrid="false"
     inkscape:zoom="29.365243"
     inkscape:cx="25.325443"
     inkscape:cy="32"
     inkscape:current-layer="svg11"
     units="px" />
  <linearGradient
     id="_lgradient_79"
     x1="0"
     y1="0.5"
     x2="1"
     y2="0.5"
     gradientTransform="matrix(48.22,0,0,36.64,-0.11,6.747)"
     gradientUnits="userSpaceOnUse">
    <stop
       offset="0%"
       stop-opacity="1"
       style="stop-color:rgb(84,51,255)"
       id="stop2" />
    <stop
       offset="51.73913043478261%"
       stop-opacity="1"
       style="stop-color:rgb(32,189,255)"
       id="stop4" />
    <stop
       offset="98.26086956521739%"
       stop-opacity="1"
       style="stop-color:rgb(165,254,203)"
       id="stop6" />
  </linearGradient>
  <g
     id="g825"
     transform="matrix(0.79002893,0,0,0.79002893,-0.96069432,-0.9605462)">
    <path
       id="path9"
       d="m 21.05,13.267 v 0 c 0.491,0.988 0.088,2.191 -0.9,2.685 v 0 c -0.988,0.494 -2.189,0.093 -2.68,-0.895 v 0 L 16.206,12.535 C 15.712,11.548 14.414,10.747 13.31,10.747 h -5.2 c -1.104,0 -1.629,0.816 -1.172,1.821 l 9.198,20.239 c 0.229,0.502 0.6,0.502 0.828,0 L 27.982,8.568 C 28.439,7.563 29.706,6.747 30.81,6.747 h 13.3 c 2.208,0 3.258,1.632 2.344,3.641 L 33.316,39.276 c -0.914,2.01 -2.552,2.089 -3.656,0.177 l -5.01,-8.676 v 0 c -0.546,-0.955 -0.215,-2.178 0.74,-2.73 v 0 c 0.955,-0.552 2.178,-0.225 2.73,0.73 v 0 l 2.621,4.544 c 0.275,0.478 0.684,0.458 0.913,-0.044 l 9.409,-20.709 c 0.456,-1.005 -0.069,-1.821 -1.173,-1.821 h -6.51 c -1.104,0 -2.371,0.816 -2.827,1.821 L 18.205,39.745 c -0.913,2.01 -2.397,2.01 -3.311,0.001 L 1.546,10.388 C 0.632,8.379 1.682,6.747 3.89,6.747 h 11.89 c 1.104,0 2.402,0.801 2.897,1.788 z"
       style="fill:url(#_lgradient_79)"
       inkscape:connector-curvature="0" />
  </g>
</svg>
