<?xml version="1.0" encoding="UTF-8" standalone="no"?>
<!-- Generator: Gravit.io -->

<svg
   xmlns:dc="http://purl.org/dc/elements/1.1/"
   xmlns:cc="http://creativecommons.org/ns#"
   xmlns:rdf="http://www.w3.org/1999/02/22-rdf-syntax-ns#"
   xmlns:svg="http://www.w3.org/2000/svg"
   xmlns="http://www.w3.org/2000/svg"
   xmlns:sodipodi="http://sodipodi.sourceforge.net/DTD/sodipodi-0.dtd"
   xmlns:inkscape="http://www.inkscape.org/namespaces/inkscape"
   style="isolation:isolate"
   viewBox="0 0 36 36"
   width="48"
   height="48"
   version="1.1"
   id="svg9"
   sodipodi:docname="com.github.johnfactotum.Foliate.svg"
   inkscape:version="0.92.4 (5da689c313, 2019-01-14)">
  <metadata
     id="metadata15">
    <rdf:RDF>
      <cc:Work
         rdf:about="">
        <dc:format>image/svg+xml</dc:format>
        <dc:type
           rdf:resource="http://purl.org/dc/dcmitype/StillImage" />
        <dc:title></dc:title>
      </cc:Work>
    </rdf:RDF>
  </metadata>
  <defs
     id="defs13" />
  <sodipodi:namedview
     pagecolor="#ffffff"
     bordercolor="#666666"
     borderopacity="1"
     objecttolerance="10"
     gridtolerance="10"
     guidetolerance="10"
     inkscape:pageopacity="0"
     inkscape:pageshadow="2"
     inkscape:window-width="640"
     inkscape:window-height="480"
     id="namedview11"
     showgrid="false"
     inkscape:zoom="29.365243"
     inkscape:cx="25.325443"
     inkscape:cy="32"
     inkscape:current-layer="svg9"
     units="px" />
  <linearGradient
     id="_lgradient_16"
     x1="0.18336116"
     y1="0.24917752"
     x2="0.9027437"
     y2="0.90347725"
     gradientTransform="matrix(42.248,0,0,46,2.876,1)"
     gradientUnits="userSpaceOnUse">
    <stop
       offset="2.608695652173913%"
       stop-opacity="1"
       style="stop-color:rgb(179,255,171)"
       id="stop2" />
    <stop
       offset="98.69565217391305%"
       stop-opacity="1"
       style="stop-color:rgb(18,255,247)"
       id="stop4" />
  </linearGradient>
  <g
     id="g826"
     transform="matrix(0.7826087,0,0,0.7826087,-0.78264134,-0.7826088)">
    <path
       id="path7"
       d="m 14.376,5 h 5 v 13.38 l -1.793,-1.793 c -0.39,-0.39 -1.024,-0.39 -1.414,0 l -1.793,1.793 z m -3,30 h -3.5 c -0.343,0 -0.677,0.034 -1,0.1 V 8 c 0,-1.656 1.344,-3 3,-3 h 1.5 v 0 17.62 c 0,1.656 0.95,2.049 2.121,0.879 l 3.379,-3.379 3.379,3.379 c 1.17,1.17 2.121,0.777 2.121,-0.879 V 5 h 11.5 c 1.656,0 3,1.344 3,3 v 12 0 c 0,1.104 0.896,2 2,2 v 0 c 1.104,0 2,-0.896 2,-2 V 20 6 c 0,-2.76 -2.241,-5 -5,-5 h -28 c -2.76,0 -5,2.24 -5,5 v 33 1 1 1 c 0,2.76 2.24,5 5,5 h 16 v 0 c 1.104,0 2,-0.896 2,-2 v 0 c 0,-1.104 -0.896,-2 -2,-2 v 0 h -15 c -1.104,0 -2,-0.896 -2,-2 v 0 0 c 0,-1.104 0.896,-2 2,-2 h 11 c 1.104,0 2,-0.896 2,-2 v 0 c 0,-1.104 -0.896,-2 -2,-2 h -5.5 v -5 0 c 0,-0.828 -0.672,-1.5 -1.5,-1.5 v 0 c -0.828,0 -1.5,0.672 -1.5,1.5 v 0 z m 26.768,7.247 C 37.322,41.438 36.526,40.59 35.769,39.703 35.143,38.959 34.595,38.15 34.113,37.302 33.617,36.428 33.239,35.489 33.004,34.511 v 0 c -0.18,-0.699 0.241,-1.409 0.939,-1.585 v 0 c 0.698,-0.177 1.412,0.247 1.592,0.946 v 0 c 0.182,0.756 0.469,1.474 0.848,2.152 0.404,0.704 0.861,1.383 1.382,2.009 1.031,1.2 2.14,2.335 3.327,3.392 0.013,0 0.013,0.013 0.026,0.013 l 0.157,0.143 c 0.287,0.274 0.443,0.653 0.417,1.044 -0.026,0.405 -0.222,0.757 -0.548,0.992 -1.422,0.991 -3.105,1.552 -4.84,1.591 -0.835,-0.013 -1.657,-0.13 -2.452,-0.391 -0.9,-0.287 -1.761,-0.692 -2.557,-1.2 -0.966,-0.705 -1.853,-1.501 -2.675,-2.375 -0.73,-0.796 -1.382,-1.657 -1.93,-2.583 -1.018,-1.761 -1.566,-3.757 -1.566,-5.792 0.013,-1.709 0.352,-3.405 0.992,-5.01 0.73,-1.813 1.696,-3.535 2.857,-5.113 0.326,-0.457 0.848,-0.731 1.396,-0.744 0.547,0.013 1.056,0.274 1.369,0.704 1.057,1.344 2.322,2.505 3.744,3.445 1.396,0.9 2.844,1.695 4.345,2.4 0.808,0.378 1.552,0.848 2.243,1.396 0.679,0.548 1.253,1.2 1.722,1.931 0.47,0.782 0.822,1.643 1.018,2.543 0.222,1.044 0.326,2.101 0.313,3.157 0,0.666 -0.039,1.331 -0.091,1.983 v 0 c -0.058,0.72 -0.686,1.255 -1.403,1.194 v 0 c -0.716,-0.061 -1.251,-0.69 -1.193,-1.402 v 0 c 0.052,-0.6 0.078,-1.201 0.078,-1.801 0.013,-0.861 -0.078,-1.722 -0.261,-2.57 -0.13,-0.613 -0.365,-1.2 -0.691,-1.735 -0.3,-0.482 -0.679,-0.913 -1.122,-1.265 -0.522,-0.418 -1.109,-0.77 -1.722,-1.07 -1.605,-0.756 -3.17,-1.618 -4.658,-2.583 -1.343,-0.874 -2.557,-1.931 -3.626,-3.118 -0.744,1.135 -1.383,2.361 -1.892,3.627 -0.522,1.291 -0.796,2.661 -0.809,4.044 0,1.566 0.431,3.105 1.214,4.462 0.443,0.756 0.978,1.474 1.578,2.113 0.691,0.731 1.448,1.409 2.257,2.009 0.574,0.365 1.2,0.665 1.852,0.874 0.535,0.157 1.083,0.248 1.644,0.248 0.639,-0.013 1.266,-0.13 1.866,-0.339 z"
       style="fill:url(#_lgradient_16);fill-rule:evenodd"
       inkscape:connector-curvature="0" />
  </g>
</svg>
