<svg width="48" height="48" xmlns="http://www.w3.org/2000/svg">
 <defs>
  <linearGradient y2="1.072293" x2="1.016457" y1="0.009839" x1="-0.014458" id="_lgradient_16">
   <stop stop-color="rgb(254,172,94)" offset="1.3043478260869565%"/>
   <stop stop-color="rgb(199,121,208)" offset="53.04347826086957%"/>
   <stop stop-color="rgb(75,192,200)" offset="99.56521739130434%"/>
  </linearGradient>
 </defs>
 <g>
  <title>background</title>
  <rect fill="none" id="canvas_background" height="402" width="582" y="-1" x="-1"/>
 </g>
 <g>
  <title>Layer 1</title>
  <path id="svg_1" fill="url(#_lgradient_16)" fill-rule="evenodd" d="m20.795,36.614l0,5.545l6.41,0l0,-5.545l-6.41,0l0,0l0,0l0,0zm-4.272,0l0,5.545l-6.409,0c-1.179,0 -2.137,0.957 -2.137,2.136l0,0c0,1.18 0.958,2.137 2.137,2.137l27.772,0c1.179,0 2.137,-0.957 2.137,-2.137l0,0c0,-1.179 -0.958,-2.136 -2.137,-2.136l-6.409,0l0,-5.545l10.682,0c2.948,0 5.341,-2.394 5.341,-5.341l0,-8.546l0,0c0,-1.179 -0.957,-2.136 -2.136,-2.136l0,0c-1.179,0 -2.137,0.957 -2.137,2.136l0,0l0,8.546c0,0.589 -0.478,1.068 -1.068,1.068l-36.318,0c-0.59,0 -1.068,-0.479 -1.068,-1.068l0,-21.364c0,-0.589 0.478,-1.068 1.068,-1.068l36.318,0c0.59,0 1.068,0.479 1.068,1.068l0,3.205l0,0c0,1.179 0.958,2.136 2.137,2.136l0,0c1.179,0 2.136,-0.957 2.136,-2.136l0,0l0,-3.205c0,-2.948 -2.393,-5.341 -5.341,-5.341l-36.318,0c-2.948,0 -5.341,2.393 -5.341,5.341l0,21.364c0,2.947 2.393,5.341 5.341,5.341l10.682,0l0,0l0,0l0,0z"/>
 </g>
</svg>