<?xml version="1.0" encoding="UTF-8" standalone="no"?>
<!-- Generator: Gravit.io -->

<svg
   xmlns:dc="http://purl.org/dc/elements/1.1/"
   xmlns:cc="http://creativecommons.org/ns#"
   xmlns:rdf="http://www.w3.org/1999/02/22-rdf-syntax-ns#"
   xmlns:svg="http://www.w3.org/2000/svg"
   xmlns="http://www.w3.org/2000/svg"
   xmlns:sodipodi="http://sodipodi.sourceforge.net/DTD/sodipodi-0.dtd"
   xmlns:inkscape="http://www.inkscape.org/namespaces/inkscape"
   style="isolation:isolate"
   viewBox="0 0 36 36"
   width="48"
   height="48"
   version="1.1"
   id="svg9"
   sodipodi:docname="copyq.svg"
   inkscape:version="0.92.4 (5da689c313, 2019-01-14)">
  <metadata
     id="metadata15">
    <rdf:RDF>
      <cc:Work
         rdf:about="">
        <dc:format>image/svg+xml</dc:format>
        <dc:type
           rdf:resource="http://purl.org/dc/dcmitype/StillImage" />
        <dc:title></dc:title>
      </cc:Work>
    </rdf:RDF>
  </metadata>
  <defs
     id="defs13" />
  <sodipodi:namedview
     pagecolor="#ffffff"
     bordercolor="#666666"
     borderopacity="1"
     objecttolerance="10"
     gridtolerance="10"
     guidetolerance="10"
     inkscape:pageopacity="0"
     inkscape:pageshadow="2"
     inkscape:window-width="640"
     inkscape:window-height="480"
     id="namedview11"
     showgrid="false"
     inkscape:zoom="29.365243"
     inkscape:cx="25.325443"
     inkscape:cy="32"
     inkscape:current-layer="svg9"
     units="px" />
  <linearGradient
     id="_lgradient_73"
     x1="0.67180997"
     y1="0.020570019"
     x2="0.42214948"
     y2="0.96016449"
     gradientTransform="matrix(42,0,0,42.81,3.5,2.69)"
     gradientUnits="userSpaceOnUse">
    <stop
       offset="0%"
       stop-opacity="1"
       style="stop-color:rgb(26,108,255)"
       id="stop2" />
    <stop
       offset="100%"
       stop-opacity="1"
       style="stop-color:rgb(197,34,255)"
       id="stop4" />
  </linearGradient>
  <g
     id="g826"
     transform="matrix(0.84091635,0,0,0.84091635,-2.6024506,-2.2616938)">
    <path
       id="path7"
       d="m 25.386,31.626 -3.947,5.92 C 21.205,39.55 20.301,41.427 18.86,42.86 17.18,44.55 14.89,45.5 12.5,45.5 10.11,45.5 7.82,44.55 6.14,42.86 4.45,41.18 3.5,38.89 3.5,36.5 v 0 0 c 0,-2.39 0.95,-4.68 2.64,-6.36 1.68,-1.69 3.97,-2.64 6.36,-2.64 2.39,0 4.68,0.95 6.36,2.64 0.848,0.843 1.51,1.84 1.959,2.926 v 0 0 L 24.087,28.165 24.07,28.12 24.132,28.097 30.75,18.17 v 0 c 0.458,-0.69 1.39,-0.878 2.08,-0.42 v 0 c 0.69,0.458 0.878,1.39 0.42,2.08 v 0 l -5.818,8.726 1.285,3.426 c 0.389,-0.668 0.866,-1.288 1.423,-1.842 1.68,-1.69 3.97,-2.64 6.36,-2.64 2.39,0 4.68,0.95 6.36,2.64 1.69,1.68 2.64,3.97 2.64,6.36 0,2.39 -0.95,4.68 -2.64,6.36 -1.68,1.69 -3.97,2.64 -6.36,2.64 -2.39,0 -4.68,-0.95 -6.36,-2.64 -1.482,-1.473 -2.395,-3.415 -2.597,-5.482 v 0 z M 6.5,36.5 c 0,-1.59 0.63,-3.12 1.76,-4.24 1.12,-1.13 2.65,-1.76 4.24,-1.76 1.59,0 3.12,0.63 4.24,1.76 1.13,1.12 1.76,2.65 1.76,4.24 0,1.59 -0.63,3.12 -1.76,4.24 -1.12,1.13 -2.65,1.76 -4.24,1.76 -1.59,0 -3.12,-0.63 -4.24,-1.76 C 7.13,39.62 6.5,38.09 6.5,36.5 Z m 24,0 c 0,-1.59 0.63,-3.12 1.76,-4.24 1.12,-1.13 2.65,-1.76 4.24,-1.76 1.59,0 3.12,0.63 4.24,1.76 1.13,1.12 1.76,2.65 1.76,4.24 0,1.59 -0.63,3.12 -1.76,4.24 -1.12,1.13 -2.65,1.76 -4.24,1.76 -1.59,0 -3.12,-0.63 -4.24,-1.76 C 31.13,39.62 30.5,38.09 30.5,36.5 Z M 25.38,13.12 22.45,7.25 c 0,0 -0.01,-0.01 -0.01,-0.01 C 22.21,6.77 21.86,6.36 21.42,6.07 21.09,5.83 20.69,5.71 20.28,5.7 c -0.21,0 -0.42,0.05 -0.61,0.14 -0.26,0.13 -0.47,0.34 -0.61,0.6 -0.18,0.34 -0.27,0.71 -0.26,1.09 0,0.47 0.11,0.94 0.33,1.37 0,0 0,0 0,0.01 l 3.99,7.98 z m 1.83,-3.05 2.44,-4.41 c 0.53,-0.89 1.27,-1.63 2.15,-2.16 0.85,-0.52 1.82,-0.8 2.81,-0.81 0.72,-0.01 1.42,0.15 2.06,0.47 0.81,0.41 1.48,1.06 1.91,1.87 0.42,0.77 0.63,1.64 0.62,2.52 0,0.94 -0.23,1.86 -0.65,2.7 l -2.21,4.42 v 0 c -0.37,0.74 -1.27,1.04 -2.01,0.67 v 0 c -0.74,-0.37 -1.04,-1.27 -0.67,-2.01 v 0 l 2.21,-4.42 c 0,-0.01 0,-0.01 0,-0.01 C 36.09,8.47 36.2,8 36.2,7.53 36.21,7.15 36.12,6.78 35.94,6.44 35.8,6.19 35.59,5.98 35.33,5.84 35.12,5.74 34.88,5.68 34.64,5.69 c -0.45,0 -0.89,0.13 -1.27,0.37 -0.47,0.28 -0.86,0.67 -1.14,1.14 0,0 0,0 0,0 l -3.43,6.05 -4.89,8.145 c -0.569,0.947 -1.431,0.913 -1.924,-0.074 L 16.45,10.25 C 16.03,9.41 15.8,8.49 15.8,7.55 15.79,6.67 16,5.8 16.42,5.03 16.85,4.22 17.51,3.57 18.33,3.16 18.94,2.85 19.62,2.69 20.31,2.7 c 1,0.01 1.98,0.32 2.81,0.89 0.86,0.59 1.55,1.39 2.01,2.32 z"
       style="fill:url(#_lgradient_73);fill-rule:evenodd"
       inkscape:connector-curvature="0" />
  </g>
</svg>
