<svg width="48" height="48" xmlns="http://www.w3.org/2000/svg">
 <defs>
  <linearGradient y2="1.072293" x2="1.016457" y1="0.009839" x1="-0.014458" id="_lgradient_2">
   <stop stop-color="rgb(254,172,94)" offset="1.3043478260869565%"/>
   <stop stop-color="rgb(199,121,208)" offset="53.04347826086957%"/>
   <stop stop-color="rgb(75,192,200)" offset="99.56521739130434%"/>
  </linearGradient>
 </defs>
 <g>
  <title>background</title>
  <rect fill="none" id="canvas_background" height="41" width="50" y="-1" x="-1"/>
 </g>
 <g>
  <title>Layer 1</title>
  <path id="svg_1" fill="url(#_lgradient_2)" fill-rule="evenodd" d="m33.045001,31.545001l0,0l-1.545,0l0,0l0,0l0,0l-4.568,0c-0.213,0 -0.387,-0.173 -0.387,-0.386l0,-7.727c0,-0.213 0.174,-0.387 0.387,-0.387l13.136,0c0.213,0 0.387,0.174 0.387,0.387l0,1.159l0,0c0,0.426 0.346,0.773 0.772,0.773l0,0c0.427,0 0.773,-0.347 0.773,-0.773l0,0l0,-1.159c0,-1.066 -0.866,-1.932 -1.932,-1.932l-13.136,0c-1.066,0 -1.932,0.866 -1.932,1.932l0,7.727c0,1.066 0.866,1.932 1.932,1.932l4.568,0l0,3.091l1.545,0l0,-3.091l0.955,0l0,3.091l1.545,0l0,-3.091l4.523,0c1.066,0 1.932,-0.866 1.932,-1.932l0,-3.091l0,0c0,-0.426 -0.346,-0.773 -0.773,-0.773l0,0c-0.426,0 -0.772,0.347 -0.772,0.773l0,0l0,3.091c0,0.213 -0.174,0.386 -0.387,0.386l-4.523,0l0,0l-1.545,0l0,0l0,0l-0.955,0zm-24.045,-12.995l0,0c-0.58,0 -1.05,-0.47 -1.05,-1.05l0,0c0,-0.58 0.47,-1.05 1.05,-1.05l0,0l5.65,0c0.552,0 1.358,-0.269 1.8,-0.6l6.4,-4.8c0.442,-0.331 1.248,-0.6 1.8,-0.6l19.4,0c1.656,0 3,1.344 3,3l0,26.1c0,1.656 -1.344,3 -3,3l-40.1,0c-1.656,0 -3,-1.344 -3,-3l0,-11.05l0,0c0,-0.58 0.47,-1.05 1.05,-1.05l0,0c0.58,0 1.05,0.47 1.05,1.05l0,0l0,10.45c0,0.828 0.672,1.5 1.5,1.5l38.9,0c0.828,0 1.5,-0.672 1.5,-1.5l0,-24.9c0,-0.828 -0.672,-1.5 -1.5,-1.5l-18.1,0c-0.552,0 -1.358,0.269 -1.8,0.6l-6.4,4.8c-0.442,0.331 -1.248,0.6 -1.8,0.6l-6.35,0l0,0l0,0l0,0l0,0zm-5.95,1.95l0,0c0,0.58 -0.47,1.05 -1.05,1.05l0,0c-0.58,0 -1.05,-0.47 -1.05,-1.05l0,0l0,-12.05c0,-1.656 1.344,-3 3,-3l12.48,0c0.552,0 1.317,0.317 1.707,0.707l2.603,2.603l0,0c0.408,0.408 0.408,1.072 0,1.48l0,0c-0.408,0.408 -1.072,0.408 -1.48,0l0,0l-2.69,-2.69l-12.02,0c-0.828,0 -1.5,0.672 -1.5,1.5l0,11.45l0,0l0,0l0,0l0,0zm25.427,15.682l10.046,0c0.426,0 0.772,0.346 0.772,0.773l0,0c0,0.426 -0.346,0.772 -0.772,0.772l-10.046,0c-0.426,0 -0.772,-0.346 -0.772,-0.772l0,0c0,-0.427 0.346,-0.773 0.772,-0.773l0,0l0,0l0,0z"/>
 </g>
</svg>