<?xml version="1.0" encoding="UTF-8" standalone="no"?>
<svg
   xmlns:dc="http://purl.org/dc/elements/1.1/"
   xmlns:cc="http://creativecommons.org/ns#"
   xmlns:rdf="http://www.w3.org/1999/02/22-rdf-syntax-ns#"
   xmlns:svg="http://www.w3.org/2000/svg"
   xmlns="http://www.w3.org/2000/svg"
   xmlns:sodipodi="http://sodipodi.sourceforge.net/DTD/sodipodi-0.dtd"
   xmlns:inkscape="http://www.inkscape.org/namespaces/inkscape"
   width="48"
   height="48"
   version="1.1"
   id="svg21"
   sodipodi:docname="cs-desktop.svg"
   inkscape:version="0.92.4 (5da689c313, 2019-01-14)">
  <metadata
     id="metadata25">
    <rdf:RDF>
      <cc:Work
         rdf:about="">
        <dc:format>image/svg+xml</dc:format>
        <dc:type
           rdf:resource="http://purl.org/dc/dcmitype/StillImage" />
        <dc:title></dc:title>
      </cc:Work>
    </rdf:RDF>
  </metadata>
  <sodipodi:namedview
     pagecolor="#ffffff"
     bordercolor="#666666"
     borderopacity="1"
     objecttolerance="10"
     gridtolerance="10"
     guidetolerance="10"
     inkscape:pageopacity="0"
     inkscape:pageshadow="2"
     inkscape:window-width="640"
     inkscape:window-height="480"
     id="namedview23"
     showgrid="false"
     inkscape:zoom="77.799289"
     inkscape:cx="30.812504"
     inkscape:cy="35.179338"
     inkscape:current-layer="svg21" />
  <defs
     id="defs9">
    <linearGradient
       y2="50.42083"
       x2="42.888725"
       y1="6.4820938"
       x1="0.25431383"
       id="_lgradient_2"
       gradientTransform="matrix(1.5475423,0,0,1.2454191,-1.3188734,-1.3188737)"
       gradientUnits="userSpaceOnUse">
      <stop
         stop-color="rgb(254,172,94)"
         offset="1.3043478260869565%"
         id="stop2" />
      <stop
         stop-color="rgb(199,121,208)"
         offset="53.04347826086957%"
         id="stop4" />
      <stop
         stop-color="rgb(75,192,200)"
         offset="99.56521739130434%"
         id="stop6" />
    </linearGradient>
  </defs>
  <g
     id="g820"
     transform="scale(0.75)">
    <path
       id="svg_1"
       d="m 44.55705,42.47462 v 0 h -2.144902 v 0 0 0 h -6.341692 c -0.295705,0 -0.537267,-0.240174 -0.537267,-0.535879 V 31.211453 c 0,-0.295705 0.241562,-0.537267 0.537267,-0.537267 h 18.236529 c 0.295705,0 0.537267,0.241562 0.537267,0.537267 v 1.609024 0 c 0,0.59141 0.480347,1.073145 1.071757,1.073145 v 0 c 0.592798,0 1.073145,-0.481735 1.073145,-1.073145 v 0 -1.609024 c 0,-1.479913 -1.202256,-2.682169 -2.682169,-2.682169 H 36.070456 c -1.479914,0 -2.68217,1.202256 -2.68217,2.682169 v 10.727288 c 0,1.479914 1.202256,2.68217 2.68217,2.68217 h 6.341692 v 4.291193 h 2.144902 v -4.291193 h 1.325813 v 4.291193 h 2.144903 v -4.291193 h 6.279219 c 1.479913,0 2.682169,-1.202256 2.682169,-2.68217 v -4.291193 0 c 0,-0.59141 -0.480347,-1.073144 -1.073145,-1.073144 v 0 c -0.59141,0 -1.071757,0.481735 -1.071757,1.073144 v 0 4.291193 c 0,0.295705 -0.241562,0.535879 -0.537267,0.535879 h -6.279219 v 0 h -2.144903 v 0 0 z M 11.175705,24.433839 v 0 c -0.805206,0 -1.457701,-0.652495 -1.457701,-1.457701 v 0 c 0,-0.805206 0.652495,-1.4577 1.457701,-1.4577 v 0 h 7.843818 c 0.766334,0 1.885293,-0.373449 2.498915,-0.832972 l 8.885033,-6.663775 c 0.613622,-0.459522 1.732581,-0.832971 2.498915,-0.832971 H 59.835141 C 62.134143,13.18872 64,15.054577 64,17.353579 v 36.234273 c 0,2.299002 -1.865857,4.164859 -4.164859,4.164859 H 4.164859 C 1.8658568,57.752711 0,55.886854 0,53.587852 v -15.340564 0 c 0,-0.805206 0.6524946,-1.457701 1.4577007,-1.457701 v 0 c 0.805206,0 1.4577006,0.652495 1.4577006,1.457701 v 0 14.507592 c 0,1.149501 0.9329284,2.08243 2.0824295,2.08243 H 59.002169 c 1.149501,0 2.08243,-0.932929 2.08243,-2.08243 V 18.18655 c 0,-1.149501 -0.932929,-2.082429 -2.08243,-2.082429 H 33.874187 c -0.766335,0 -1.885293,0.373449 -2.498916,0.832972 l -8.885032,6.663774 c -0.613623,0.459523 -1.732582,0.832972 -2.498916,0.832972 z m -8.2603037,2.707158 v 0 c 0,0.805206 -0.6524946,1.457701 -1.4577006,1.457701 v 0 C 0.6524946,28.598698 0,27.946203 0,27.140997 v 0 -16.72885 C 0,8.1131453 1.8658568,6.2472885 4.164859,6.2472885 h 17.325813 c 0.766335,0 1.828374,0.4400868 2.369805,0.9815184 l 3.61371,3.6137091 v 0 c 0.56642,0.566421 0.56642,1.488243 0,2.054664 v 0 c -0.566421,0.56642 -1.488243,0.56642 -2.054664,0 v 0 L 21.685033,9.1626898 H 4.9978308 c -1.1495011,0 -2.0824295,0.9329282 -2.0824295,2.0824292 z M 38.215358,48.912104 h 13.946724 c 0.59141,0 1.071757,0.480347 1.071757,1.073145 v 0 c 0,0.59141 -0.480347,1.071757 -1.071757,1.071757 H 38.215358 c -0.59141,0 -1.071757,-0.480347 -1.071757,-1.071757 v 0 c 0,-0.592798 0.480347,-1.073145 1.071757,-1.073145 z"
       inkscape:connector-curvature="0"
       style="fill:url(#_lgradient_2);fill-rule:evenodd;stroke-width:1.38828635" />
  </g>
</svg>
