<?xml version="1.0" encoding="UTF-8" standalone="no"?>
<!-- Generator: Gravit.io -->

<svg
   xmlns:dc="http://purl.org/dc/elements/1.1/"
   xmlns:cc="http://creativecommons.org/ns#"
   xmlns:rdf="http://www.w3.org/1999/02/22-rdf-syntax-ns#"
   xmlns:svg="http://www.w3.org/2000/svg"
   xmlns="http://www.w3.org/2000/svg"
   xmlns:sodipodi="http://sodipodi.sourceforge.net/DTD/sodipodi-0.dtd"
   xmlns:inkscape="http://www.inkscape.org/namespaces/inkscape"
   style="isolation:isolate"
   viewBox="0 0 36 36"
   width="48"
   height="48"
   version="1.1"
   id="svg53"
   sodipodi:docname="darktable.svg"
   inkscape:version="0.92.4 (5da689c313, 2019-01-14)">
  <metadata
     id="metadata59">
    <rdf:RDF>
      <cc:Work
         rdf:about="">
        <dc:format>image/svg+xml</dc:format>
        <dc:type
           rdf:resource="http://purl.org/dc/dcmitype/StillImage" />
        <dc:title></dc:title>
      </cc:Work>
    </rdf:RDF>
  </metadata>
  <defs
     id="defs57" />
  <sodipodi:namedview
     pagecolor="#ffffff"
     bordercolor="#666666"
     borderopacity="1"
     objecttolerance="10"
     gridtolerance="10"
     guidetolerance="10"
     inkscape:pageopacity="0"
     inkscape:pageshadow="2"
     inkscape:window-width="640"
     inkscape:window-height="480"
     id="namedview55"
     showgrid="false"
     inkscape:zoom="29.365243"
     inkscape:cx="25.325443"
     inkscape:cy="32"
     inkscape:current-layer="svg53"
     units="px" />
  <linearGradient
     id="_lgradient_91"
     x1="-0.014458464"
     y1="0.009839246"
     x2="1.0164566"
     y2="1.072293"
     gradientTransform="scale(48,48.458)"
     gradientUnits="userSpaceOnUse">
    <stop
       offset="0%"
       stop-opacity="1"
       style="stop-color:rgb(249,212,35)"
       id="stop2" />
    <stop
       offset="51.56237565086822%"
       stop-opacity="1"
       style="stop-color:rgb(255,78,80)"
       id="stop4" />
    <stop
       offset="99.1304347826087%"
       stop-opacity="1"
       style="stop-color:rgb(138,35,135)"
       id="stop6" />
  </linearGradient>
  <linearGradient
     id="_lgradient_92"
     x1="0"
     y1="0.5"
     x2="1"
     y2="0.5"
     gradientTransform="matrix(14.704,0,0,10.48,23.928,9.663)"
     gradientUnits="userSpaceOnUse">
    <stop
       offset="0%"
       stop-opacity="1"
       style="stop-color:rgb(255,224,49)"
       id="stop11" />
    <stop
       offset="98.69565217391305%"
       stop-opacity="1"
       style="stop-color:rgb(252,82,82)"
       id="stop13" />
  </linearGradient>
  <linearGradient
     id="_lgradient_93"
     x1="0"
     y1="0.5"
     x2="0.90748805"
     y2="0.92007786"
     gradientTransform="matrix(11.949,0,0,13.387,28.021,19.787)"
     gradientUnits="userSpaceOnUse">
    <stop
       offset="0%"
       stop-opacity="1"
       style="stop-color:rgb(247,241,7)"
       id="stop18" />
    <stop
       offset="83.88839793817618%"
       stop-opacity="1"
       style="stop-color:rgb(255,187,36)"
       id="stop20" />
  </linearGradient>
  <linearGradient
     id="_lgradient_94"
     x1="0"
     y1="0.5"
     x2="1"
     y2="0.5"
     gradientTransform="matrix(12.548,0,0,13.789,23.367,26.18)"
     gradientUnits="userSpaceOnUse">
    <stop
       offset="0%"
       stop-opacity="1"
       style="stop-color:rgb(67,233,123)"
       id="stop25" />
    <stop
       offset="97.82608695652173%"
       stop-opacity="1"
       style="stop-color:rgb(56,249,215)"
       id="stop27" />
  </linearGradient>
  <linearGradient
     id="_lgradient_95"
     x1="0"
     y1="0.5"
     x2="0.90748805"
     y2="0.92007786"
     gradientTransform="matrix(14.704,0,0,10.48,10.337,28.827)"
     gradientUnits="userSpaceOnUse">
    <stop
       offset="0%"
       stop-opacity="1"
       style="stop-color:rgb(0,196,255)"
       id="stop32" />
    <stop
       offset="83.88839793817618%"
       stop-opacity="1"
       style="stop-color:rgb(0,114,255)"
       id="stop34" />
  </linearGradient>
  <linearGradient
     id="_lgradient_96"
     x1="0"
     y1="0.5"
     x2="1.0529515"
     y2="0.90931696"
     gradientTransform="matrix(11.949,0,0,13.387,9,15.796)"
     gradientUnits="userSpaceOnUse">
    <stop
       offset="0%"
       stop-opacity="1"
       style="stop-color:rgb(88,0,226)"
       id="stop39" />
    <stop
       offset="100%"
       stop-opacity="1"
       style="stop-color:rgb(255,0,230)"
       id="stop41" />
  </linearGradient>
  <linearGradient
     id="_lgradient_97"
     x1="0"
     y1="0.5"
     x2="0.90748805"
     y2="0.92007786"
     gradientTransform="matrix(12.548,0,0,13.789,13.054,9)"
     gradientUnits="userSpaceOnUse">
    <stop
       offset="0%"
       stop-opacity="1"
       style="stop-color:rgb(255,65,108)"
       id="stop46" />
    <stop
       offset="84.34782608695653%"
       stop-opacity="1"
       style="stop-color:rgb(255,75,43)"
       id="stop48" />
  </linearGradient>
  <g
     id="g873"
     transform="matrix(0.74999895,0,0,0.74999895,2.52e-5,-8.6358327e-8)">
    <path
       id="path9"
       d="m 18.81,44.008 v 0 c 1.065,0.292 1.697,1.407 1.41,2.489 v 0 c -0.287,1.082 -1.385,1.724 -2.45,1.433 v 0 C 12.67,46.538 8.16,43.47 4.95,39.213 1.74,34.957 0,29.745 0,24.381 0,17.92 2.53,11.713 7.03,7.142 11.53,2.57 17.64,0 24,0 30.36,0 36.47,2.57 40.97,7.142 45.47,11.713 48,17.92 48,24.381 c 0,5.344 -1.73,10.535 -4.91,14.782 -3.19,4.246 -7.66,7.314 -12.73,8.736 v 0 c -1.065,0.297 -2.167,-0.34 -2.46,-1.422 v 0 c -0.293,-1.082 0.335,-2.202 1.4,-2.499 v 0 C 33.52,42.799 37.25,40.239 39.91,36.704 42.56,33.159 44,28.831 44,24.381 44,18.997 41.89,13.826 38.14,10.017 34.39,6.207 29.3,4.064 24,4.064 18.7,4.064 13.61,6.207 9.86,10.017 6.11,13.826 4,18.997 4,24.381 c 0,4.47 1.45,8.818 4.13,12.364 2.67,3.545 6.43,6.105 10.68,7.263 z"
       style="fill:url(#_lgradient_91)"
       inkscape:connector-curvature="0" />
    <path
       id="path16"
       d="m 27.662,9.663 -3.734,10.48 14.704,-2.439 C 36.454,13.58 32.442,10.55 27.662,9.663 Z"
       style="fill:url(#_lgradient_92)"
       inkscape:connector-curvature="0" />
    <path
       id="path23"
       d="m 39.092,19.787 -11.071,2.052 9.494,11.335 c 2.533,-3.921 3.189,-8.862 1.578,-13.387 z"
       style="fill:url(#_lgradient_93)"
       inkscape:connector-curvature="0" />
    <path
       id="path30"
       d="m 35.915,34.609 -7.338,-8.429 -5.21,13.775 c 4.712,0.202 9.38,-1.709 12.549,-5.346 z"
       style="fill:url(#_lgradient_94)"
       inkscape:connector-curvature="0" />
    <path
       id="path37"
       d="m 21.307,39.307 3.734,-10.48 -14.704,2.439 c 2.178,4.123 6.19,7.153 10.97,8.04 z"
       style="fill:url(#_lgradient_95)"
       inkscape:connector-curvature="0" />
    <path
       id="path44"
       d="M 9.877,29.183 20.949,27.131 11.455,15.796 C 8.921,19.717 8.266,24.658 9.877,29.183 Z"
       style="fill:url(#_lgradient_96)"
       inkscape:connector-curvature="0" />
    <path
       id="path51"
       d="m 13.054,14.361 7.339,8.428 5.209,-13.774 c -4.711,-0.203 -9.378,1.708 -12.547,5.346 z"
       style="fill:url(#_lgradient_97)"
       inkscape:connector-curvature="0" />
  </g>
</svg>
