<?xml version="1.0" encoding="UTF-8" standalone="no"?>
<!-- Generator: Gravit.io -->

<svg
   xmlns:dc="http://purl.org/dc/elements/1.1/"
   xmlns:cc="http://creativecommons.org/ns#"
   xmlns:rdf="http://www.w3.org/1999/02/22-rdf-syntax-ns#"
   xmlns:svg="http://www.w3.org/2000/svg"
   xmlns="http://www.w3.org/2000/svg"
   xmlns:sodipodi="http://sodipodi.sourceforge.net/DTD/sodipodi-0.dtd"
   xmlns:inkscape="http://www.inkscape.org/namespaces/inkscape"
   style="isolation:isolate"
   viewBox="0 0 36 36"
   width="48"
   height="48"
   version="1.1"
   id="svg48"
   sodipodi:docname="datagrip.svg"
   inkscape:version="0.92.4 (5da689c313, 2019-01-14)">
  <metadata
     id="metadata54">
    <rdf:RDF>
      <cc:Work
         rdf:about="">
        <dc:format>image/svg+xml</dc:format>
        <dc:type
           rdf:resource="http://purl.org/dc/dcmitype/StillImage" />
        <dc:title></dc:title>
      </cc:Work>
    </rdf:RDF>
  </metadata>
  <defs
     id="defs52" />
  <sodipodi:namedview
     pagecolor="#ffffff"
     bordercolor="#666666"
     borderopacity="1"
     objecttolerance="10"
     gridtolerance="10"
     guidetolerance="10"
     inkscape:pageopacity="0"
     inkscape:pageshadow="2"
     inkscape:window-width="640"
     inkscape:window-height="480"
     id="namedview50"
     showgrid="false"
     inkscape:zoom="26.102437"
     inkscape:cx="28.491123"
     inkscape:cy="36"
     inkscape:current-layer="svg48" />
  <linearGradient
     id="_lgradient_61"
     x1="0.040624999"
     y1="0.054347824"
     x2="0.96835077"
     y2="0.97395134"
     gradientTransform="matrix(34.87,0,0,24.82,0.98,29.03)"
     gradientUnits="userSpaceOnUse">
    <stop
       offset="0%"
       stop-opacity="1"
       style="stop-color:rgb(240,107,169)"
       id="stop2" />
    <stop
       offset="98.69565217391305%"
       stop-opacity="1"
       style="stop-color:rgb(66,216,246)"
       id="stop4" />
  </linearGradient>
  <linearGradient
     id="_lgradient_62"
     x1="-3.8208334e-05"
     y1="0.50000006"
     x2="0.99996185"
     y2="0.50000006"
     gradientTransform="matrix(20.23,0,0,14.3,19.77,39.7)"
     gradientUnits="userSpaceOnUse">
    <stop
       offset="0%"
       stop-opacity="1"
       style="stop-color:rgb(211,0,220)"
       id="stop9" />
    <stop
       offset="100%"
       stop-opacity="1"
       style="stop-color:rgb(135,0,255)"
       id="stop11" />
  </linearGradient>
  <linearGradient
     id="_lgradient_63"
     x1="0.38025743"
     y1="-0.21428572"
     x2="0.56187135"
     y2="1.0689856"
     gradientTransform="matrix(26.05,0,0,12.25,22.95,0.02)"
     gradientUnits="userSpaceOnUse">
    <stop
       offset="0%"
       stop-opacity="1"
       style="stop-color:rgb(24,208,173)"
       id="stop16" />
    <stop
       offset="90.44964029999998%"
       stop-opacity="1"
       style="stop-color:rgb(7,195,242)"
       id="stop18" />
  </linearGradient>
  <linearGradient
     id="_lgradient_64"
     x1="-3.8208334e-05"
     y1="0.50000006"
     x2="1.5833334"
     y2="0.90909094"
     gradientTransform="matrix(9.51,0,0,25.35,44.77,9.88)"
     gradientUnits="userSpaceOnUse">
    <stop
       offset="0%"
       stop-opacity="1"
       style="stop-color:rgb(211,0,220)"
       id="stop23" />
    <stop
       offset="100%"
       stop-opacity="1"
       style="stop-color:rgb(135,0,255)"
       id="stop25" />
  </linearGradient>
  <linearGradient
     id="_lgradient_65"
     x1="0"
     y1="0.5"
     x2="1"
     y2="0.5"
     gradientTransform="matrix(48.19,0,0,40.02,1.5,2.16)"
     gradientUnits="userSpaceOnUse">
    <stop
       offset="0%"
       stop-opacity="1"
       style="stop-color:rgb(34,216,143)"
       id="stop30" />
    <stop
       offset="51.73913043478261%"
       stop-opacity="1"
       style="stop-color:rgb(147,135,218)"
       id="stop32" />
    <stop
       offset="98.69565217391305%"
       stop-opacity="1"
       style="stop-color:rgb(255,89,230)"
       id="stop34" />
  </linearGradient>
  <linearGradient
     id="_lgradient_66"
     x1="-0.35344827"
     y1="0.40517241"
     x2="1.2100486"
     y2="0.47504938"
     gradientTransform="matrix(29,0,0,29,12,13)"
     gradientUnits="userSpaceOnUse">
    <stop
       offset="0%"
       stop-opacity="1"
       style="stop-color:rgb(34,216,143)"
       id="stop39" />
    <stop
       offset="51.73913043478261%"
       stop-opacity="1"
       style="stop-color:rgb(147,135,218)"
       id="stop41" />
    <stop
       offset="98.69565217391305%"
       stop-opacity="1"
       style="stop-color:rgb(255,89,230)"
       id="stop43" />
  </linearGradient>
  <g
     id="g870"
     transform="matrix(0.66691367,0,0,0.66691367,-0.4268247,-0.01333823)">
    <path
       id="path7"
       d="m 33.89,49.54 1.96,0.39 -0.78,3.92 -1.96,-0.39 -32.13,-6.42 4.6,-16.09 0.55,-1.92 3.84,1.1 -0.55,1.92 -3.4,11.91 z"
       style="fill:url(#_lgradient_61)"
       inkscape:connector-curvature="0" />
    <path
       id="path14"
       d="M 34.59,42.91 35.18,41 40,40 38.41,44.09 35.18,54 23.31,44.1 19.77,41 l 4.34,-1.3 1.6,1.2 7.72,5.79 z"
       style="fill:url(#_lgradient_62)"
       inkscape:connector-curvature="0" />
    <path
       id="path21"
       d="M 27.01,9.06 25.759,9.82 22.95,7.19 24.51,5.94 31.89,0.02 45.61,7.84 49,9.82 45.06,12.27 43.39,11.16 32.1,4.98 Z"
       style="fill:url(#_lgradient_63)"
       inkscape:connector-curvature="0" />
    <path
       id="path28"
       d="m 46.05,12.71 -0.44,-1.95 3.9,-0.88 0.44,1.95 4.33,19.07 -5.78,3.33 -1.73,1 -2,-3.46 1.73,-1 3.22,-1.86 z"
       style="fill:url(#_lgradient_64)"
       inkscape:connector-curvature="0" />
    <path
       id="path37"
       d="m 12.82,30.99 1.5,1.32 -1.5,3.66 -2.64,-1.96 -8.68,-7.6 V 2.16 l 48.19,7.66 -3.47,32.36 -5.35,-1.78 -1.9,-0.64 1.27,-3.79 1.89,0.63 0.65,0.22 L 45.31,13.18 5.5,6.84 v 17.75 z"
       style="fill:url(#_lgradient_65)"
       inkscape:connector-curvature="0" />
    <path
       id="path46"
       d="m 38.478,34.718 v 0 c 0,-0.695 0.565,-1.26 1.261,-1.26 v 0 c 0.696,0 1.261,0.565 1.261,1.26 v 0 4.13 C 41,40.588 39.588,42 37.848,42 H 15.152 C 13.412,42 12,40.588 12,38.848 v -11.978 0 c 0,-0.696 0.565,-1.261 1.261,-1.261 v 0 c 0.696,0 1.261,0.565 1.261,1.261 v 0 10.717 c 0,1.044 0.847,1.891 1.891,1.891 h 20.174 c 1.044,0 1.891,-0.847 1.891,-1.891 z M 14.522,20.282 v 0 c 0,0.695 -0.565,1.26 -1.261,1.26 v 0 C 12.565,21.542 12,20.977 12,20.282 v 0 -4.13 C 12,14.412 13.412,13 15.152,13 H 37.848 C 39.588,13 41,14.412 41,16.152 v 12.495 0 c 0,0.696 -0.565,1.261 -1.261,1.261 v 0 c -0.696,0 -1.261,-0.565 -1.261,-1.261 v 0 -11.234 c 0,-1.044 -0.847,-1.891 -1.891,-1.891 H 16.413 c -1.044,0 -1.891,0.847 -1.891,1.891 z M 16.5,34 h 9 v 2.5 h -9 z m 6.389,-10.208 v 0 0 q 0,-3.459 -3.055,-3.459 v 0 h -1.212 v 6.992 h 0.977 v 0 q 3.29,0 3.29,-3.533 z m 7.696,1.278 v -1.895 h 4.26 v 5.568 0 q -1.036,0.338 -1.95,0.474 v 0 0 q -0.915,0.135 -1.869,0.135 v 0 0 q -2.432,0 -3.713,-1.428 v 0 0 q -1.282,-1.429 -1.282,-4.102 v 0 0 q 0,-2.6 1.487,-4.055 v 0 0 q 1.488,-1.454 4.125,-1.454 v 0 0 q 1.652,0 3.187,0.661 v 0 l -0.756,1.822 v 0 q -1.175,-0.588 -2.446,-0.588 v 0 0 q -1.476,0 -2.365,0.992 v 0 0 q -0.889,0.991 -0.889,2.666 v 0 0 q 0,1.748 0.716,2.67 v 0 0 q 0.716,0.921 2.083,0.921 v 0 0 q 0.712,0 1.446,-0.146 v 0 -2.241 z m -5.331,-1.336 v 0 0 q 0,2.651 -1.509,4.061 v 0 0 q -1.509,1.41 -4.359,1.41 v 0 H 16.345 V 18.467 h 3.371 v 0 q 2.63,0 4.084,1.388 v 0 0 q 1.454,1.389 1.454,3.879 z"
       style="fill:url(#_lgradient_66);fill-rule:evenodd"
       inkscape:connector-curvature="0" />
  </g>
</svg>
