<?xml version="1.0" encoding="UTF-8" standalone="no"?>
<!-- Generator: Gravit.io -->

<svg
   xmlns:dc="http://purl.org/dc/elements/1.1/"
   xmlns:cc="http://creativecommons.org/ns#"
   xmlns:rdf="http://www.w3.org/1999/02/22-rdf-syntax-ns#"
   xmlns:svg="http://www.w3.org/2000/svg"
   xmlns="http://www.w3.org/2000/svg"
   xmlns:sodipodi="http://sodipodi.sourceforge.net/DTD/sodipodi-0.dtd"
   xmlns:inkscape="http://www.inkscape.org/namespaces/inkscape"
   style="isolation:isolate"
   viewBox="0 0 36 36"
   width="48"
   height="48"
   version="1.1"
   id="svg18"
   sodipodi:docname="dbeaver.svg"
   inkscape:version="0.92.4 (5da689c313, 2019-01-14)">
  <metadata
     id="metadata24">
    <rdf:RDF>
      <cc:Work
         rdf:about="">
        <dc:format>image/svg+xml</dc:format>
        <dc:type
           rdf:resource="http://purl.org/dc/dcmitype/StillImage" />
        <dc:title></dc:title>
      </cc:Work>
    </rdf:RDF>
  </metadata>
  <defs
     id="defs22" />
  <sodipodi:namedview
     pagecolor="#ffffff"
     bordercolor="#666666"
     borderopacity="1"
     objecttolerance="10"
     gridtolerance="10"
     guidetolerance="10"
     inkscape:pageopacity="0"
     inkscape:pageshadow="2"
     inkscape:window-width="640"
     inkscape:window-height="480"
     id="namedview20"
     showgrid="false"
     inkscape:zoom="29.365243"
     inkscape:cx="25.325443"
     inkscape:cy="32"
     inkscape:current-layer="svg18"
     units="px" />
  <linearGradient
     id="_lgradient_3"
     x1="-0.014458464"
     y1="0.009839246"
     x2="1.0164566"
     y2="1.072293"
     gradientTransform="matrix(47,0,0,40.159,0.5,0.92)"
     gradientUnits="userSpaceOnUse">
    <stop
       offset="1.3043478260869565%"
       stop-opacity="1"
       style="stop-color:rgb(254,172,94)"
       id="stop2" />
    <stop
       offset="53.04347826086957%"
       stop-opacity="1"
       style="stop-color:rgb(199,121,208)"
       id="stop4" />
    <stop
       offset="99.56521739130434%"
       stop-opacity="1"
       style="stop-color:rgb(75,192,200)"
       id="stop6" />
  </linearGradient>
  <linearGradient
     id="_lgradient_4"
     x1="0.54298681"
     y1="-0.26555973"
     x2="0.51975447"
     y2="0.98335701"
     gradientTransform="matrix(9.221,0,0,5.792,19.39,23.939)"
     gradientUnits="userSpaceOnUse">
    <stop
       offset="3.0434782608695654%"
       stop-opacity="1"
       style="stop-color:rgb(166,124,243)"
       id="stop11" />
    <stop
       offset="98.69565217391305%"
       stop-opacity="1"
       style="stop-color:rgb(88,78,123)"
       id="stop13" />
  </linearGradient>
  <g
     id="g836"
     transform="matrix(0.76595745,0,0,0.76595745,-0.3829788,1.9146473)">
    <path
       id="path9"
       d="m 5.841,10.881 v 0 C 5.638,10.368 5.532,9.82 5.532,9.272 5.51,7.837 6.196,6.488 7.373,5.664 l 1.21,-0.825 c 0.685,-0.471 1.499,-0.717 2.334,-0.706 1.159,-0.02 2.265,0.448 3.068,1.273 -2.777,1.021 -5.329,2.637 -7.457,4.765 -0.234,0.233 -0.461,0.471 -0.687,0.71 z M 3.706,13.692 3.294,12.954 3.23,12.837 c 0,0 0,0 0,-0.011 C 2.631,11.745 2.32,10.524 2.32,9.282 2.299,6.798 3.498,4.454 5.532,3.03 c 0,0 0.011,0 0.011,-0.011 L 6.774,2.184 c 0,0 0,0 0,0 1.22,-0.835 2.666,-1.274 4.132,-1.263 2.238,-0.022 4.368,0.974 5.792,2.698 0,0.01 0.011,0.01 0.011,0.01 l 0.129,0.161 0.552,0.687 c 1.209,-0.22 2.443,-0.334 3.687,-0.334 h 5.846 c 1.047,0 2.088,0.081 3.112,0.238 L 30.509,3.79 30.638,3.629 c 0.011,0 0.011,0 0.011,-0.01 1.423,-1.724 3.554,-2.72 5.792,-2.698 1.477,-0.011 2.912,0.428 4.132,1.263 0,0 0,0 0.011,0 l 1.22,0.835 c 0,0.011 0.011,0.011 0.011,0.011 2.034,1.424 3.233,3.768 3.212,6.252 0,1.242 -0.311,2.463 -0.899,3.544 -0.011,0.011 -0.011,0.011 -0.011,0.011 l -0.064,0.117 -0.112,0.201 c 2.305,3.391 3.559,7.418 3.559,11.576 v 13.137 0 c 0,0.886 -0.72,1.606 -1.606,1.606 v 0 c -0.886,0 -1.606,-0.72 -1.606,-1.606 v 0 -13.137 c 0,-4.603 -1.831,-9.036 -5.085,-12.29 C 35.948,9.186 31.526,7.355 26.923,7.355 h -5.846 c -4.603,0 -9.025,1.831 -12.28,5.086 -3.254,3.254 -5.085,7.687 -5.085,12.29 v 13.137 0 c 0,0.886 -0.72,1.606 -1.606,1.606 v 0 C 1.22,39.474 0.5,38.754 0.5,37.868 v 0 -13.137 c 0,-3.94 1.126,-7.763 3.206,-11.039 z M 33.534,5.243 v 0 c 0.784,-0.724 1.817,-1.129 2.896,-1.11 0.835,-0.011 1.649,0.235 2.334,0.706 l 1.22,0.825 c 1.167,0.824 1.852,2.173 1.831,3.608 0.006,0.368 -0.043,0.736 -0.159,1.088 -0.06,-0.064 -0.121,-0.127 -0.184,-0.189 -2.25,-2.25 -4.974,-3.928 -7.938,-4.928 z m -5.252,28.898 v 4.797 h -3.211 v -3.212 -1.07 h -2.142 v 1.07 3.212 h -3.211 v -4.797 c 0.117,0.01 0.236,0.016 0.356,0.016 1.999,0 3.9,-1.745 3.9,-1.745 h 0.055 c 0,0 1.899,1.742 3.897,1.745 0.12,0 0.239,-0.006 0.356,-0.016 z M 12.759,18.597 c 0,-0.429 0.171,-0.835 0.471,-1.135 0.299,-0.3 0.706,-0.471 1.134,-0.471 0.429,0 0.836,0.171 1.135,0.471 0.3,0.3 0.471,0.706 0.471,1.135 0,0.428 -0.171,0.835 -0.471,1.134 -0.299,0.3 -0.706,0.472 -1.135,0.472 -0.428,0 -0.835,-0.172 -1.134,-0.472 -0.3,-0.299 -0.471,-0.706 -0.471,-1.134 z m 19.271,0 c 0,-0.429 0.171,-0.835 0.471,-1.135 0.299,-0.3 0.706,-0.471 1.135,-0.471 0.428,0 0.835,0.171 1.134,0.471 0.3,0.3 0.471,0.706 0.471,1.135 0,0.428 -0.171,0.835 -0.471,1.134 -0.299,0.3 -0.706,0.472 -1.134,0.472 -0.429,0 -0.836,-0.172 -1.135,-0.472 -0.3,-0.299 -0.471,-0.706 -0.471,-1.134 z m -1.606,14.662 v 0.326 7.495 h -5.353 v 0 0 0 0 h -2.142 -5.353 v -7.495 -0.326 c -0.872,-0.72 -1.427,-1.809 -1.427,-3.028 0,-2.168 1.134,-5.796 3.301,-5.73 l 9.17,0.278 c 2.167,0.065 3.231,3.284 3.231,5.452 0,1.219 -0.555,2.308 -1.427,3.028 z M 9.547,18.597 c 0,-1.274 0.503,-2.506 1.413,-3.405 0.899,-0.91 2.13,-1.413 3.404,-1.413 1.274,0 2.506,0.503 3.405,1.413 0.91,0.899 1.413,2.131 1.413,3.405 0,1.274 -0.503,2.505 -1.413,3.404 -0.899,0.91 -2.131,1.413 -3.405,1.413 -1.274,0 -2.505,-0.503 -3.404,-1.413 -0.91,-0.899 -1.413,-2.13 -1.413,-3.404 z m 19.271,0 c 0,-1.274 0.503,-2.506 1.413,-3.405 0.899,-0.91 2.131,-1.413 3.405,-1.413 1.274,0 2.505,0.503 3.404,1.413 0.91,0.899 1.413,2.131 1.413,3.405 0,1.274 -0.503,2.505 -1.413,3.404 -0.899,0.91 -2.13,1.413 -3.404,1.413 -1.274,0 -2.506,-0.503 -3.405,-1.413 -0.91,-0.899 -1.413,-2.13 -1.413,-3.404 z"
       style="fill:url(#_lgradient_3);fill-rule:evenodd"
       inkscape:connector-curvature="0" />
    <path
       id="path16"
       d="m 28.563,25.413 c 0.463,2.03 -2.563,4.318 -4.515,4.318 -1.951,0 -5.076,-2.264 -4.612,-4.318 0.355,-1.575 2.661,-1.472 4.612,-1.472 1.951,0 4.163,-0.071 4.515,1.472 z"
       style="fill:url(#_lgradient_4)"
       inkscape:connector-curvature="0" />
  </g>
</svg>
