<?xml version="1.0" encoding="UTF-8" standalone="no"?>
<!-- Generator: Gravit.io -->

<svg
   xmlns:dc="http://purl.org/dc/elements/1.1/"
   xmlns:cc="http://creativecommons.org/ns#"
   xmlns:rdf="http://www.w3.org/1999/02/22-rdf-syntax-ns#"
   xmlns:svg="http://www.w3.org/2000/svg"
   xmlns="http://www.w3.org/2000/svg"
   xmlns:sodipodi="http://sodipodi.sourceforge.net/DTD/sodipodi-0.dtd"
   xmlns:inkscape="http://www.inkscape.org/namespaces/inkscape"
   style="isolation:isolate"
   viewBox="0 0 36 36"
   width="48"
   height="48"
   version="1.1"
   id="svg11"
   sodipodi:docname="dconf-editor.svg"
   inkscape:version="0.92.4 (5da689c313, 2019-01-14)">
  <metadata
     id="metadata17">
    <rdf:RDF>
      <cc:Work
         rdf:about="">
        <dc:format>image/svg+xml</dc:format>
        <dc:type
           rdf:resource="http://purl.org/dc/dcmitype/StillImage" />
        <dc:title></dc:title>
      </cc:Work>
    </rdf:RDF>
  </metadata>
  <defs
     id="defs15" />
  <sodipodi:namedview
     pagecolor="#ffffff"
     bordercolor="#666666"
     borderopacity="1"
     objecttolerance="10"
     gridtolerance="10"
     guidetolerance="10"
     inkscape:pageopacity="0"
     inkscape:pageshadow="2"
     inkscape:window-width="640"
     inkscape:window-height="480"
     id="namedview13"
     showgrid="false"
     inkscape:zoom="29.365243"
     inkscape:cx="25.325443"
     inkscape:cy="32"
     inkscape:current-layer="svg11"
     units="px" />
  <linearGradient
     id="_lgradient_2"
     x1="0.34027779"
     y1="0.036585364"
     x2="1.0087188"
     y2="1.0127324"
     gradientTransform="matrix(43.76,0,0,44.88,1.25,0.25)"
     gradientUnits="userSpaceOnUse">
    <stop
       offset="0%"
       stop-opacity="1"
       style="stop-color:rgb(156,51,196)"
       id="stop2" />
    <stop
       offset="51.30434782608696%"
       stop-opacity="1"
       style="stop-color:rgb(255,25,80)"
       id="stop4" />
    <stop
       offset="98.69565217391305%"
       stop-opacity="1"
       style="stop-color:rgb(255,135,36)"
       id="stop6" />
  </linearGradient>
  <g
     id="g825"
     transform="matrix(0.80213904,0,0,0.80213904,-0.5534622,-0.20053482)">
    <path
       id="path9"
       d="m 23.638,25.491 v 0 c 0.697,-0.446 1.627,-0.242 2.075,0.455 v 0 c 0.447,0.697 0.245,1.624 -0.452,2.069 v 0 c -1.154,0.749 -2.431,1.291 -3.761,1.62 -3.214,0.794 -6.627,0.278 -9.46,-1.432 C 9.206,26.493 7.16,23.713 6.365,20.5 5.571,17.286 6.087,13.873 7.797,11.04 9.507,8.206 12.287,6.16 15.5,5.365 c 3.214,-0.794 6.627,-0.278 9.46,1.432 2.834,1.71 4.88,4.49 5.675,7.703 0.233,0.942 0.359,1.91 0.363,2.888 v 0 c 0.011,0.827 -0.652,1.505 -1.48,1.514 v 0 c -0.828,0.008 -1.509,-0.656 -1.52,-1.484 v 0 C 27.99,16.679 27.9,15.939 27.722,15.22 27.118,12.774 25.566,10.665 23.411,9.364 21.256,8.063 18.667,7.673 16.22,8.278 c -2.446,0.604 -4.555,2.156 -5.856,4.311 -1.301,2.155 -1.691,4.744 -1.086,7.191 0.604,2.446 2.156,4.555 4.311,5.856 2.155,1.301 4.744,1.691 7.191,1.086 1.009,-0.249 1.978,-0.664 2.858,-1.231 z m 3.488,-4.015 v 0 c 0.344,-0.75 1.234,-1.076 1.989,-0.728 v 0 c 0.754,0.348 1.083,1.24 0.734,1.992 v 0 c -0.222,0.477 -0.468,0.94 -0.751,1.38 v 0 c -0.439,0.706 -1.367,0.921 -2.07,0.481 v 0 c -0.703,-0.44 -0.915,-1.366 -0.475,-2.066 v 0 c 0.215,-0.342 0.407,-0.688 0.573,-1.059 z M 22.43,13.43 v 0 c 0.762,-0.596 1.862,-0.462 2.455,0.3 v 0 c 0.593,0.762 0.452,1.864 -0.315,2.46 v 0 l -6.701,5.212 c -0.872,0.678 -2.139,0.529 -2.83,-0.333 L 12.13,17.44 v 0 c -0.602,-0.756 -0.478,-1.858 0.275,-2.46 v 0 c 0.753,-0.602 1.858,-0.481 2.465,0.27 v 0 l 2,2.5 z M 9.4,7.19 v 0 C 8.677,7.83 7.57,7.763 6.93,7.04 v 0 C 6.29,6.317 6.357,5.21 7.08,4.57 v 0 C 10.23,1.79 14.3,0.25 18.5,0.25 c 4.57,0 8.96,1.82 12.2,5.05 3.23,3.24 5.05,7.63 5.05,12.2 0,4.57 -1.82,8.96 -5.05,12.2 -3.24,3.23 -7.63,5.05 -12.2,5.05 -4.55,0 -8.92,-1.8 -12.15,-5 -3.23,-3.2 -5.06,-7.56 -5.1,-12.11 v 0 C 1.244,16.674 2.024,15.883 2.99,15.875 v 0 c 0.966,-0.008 1.754,0.769 1.76,1.735 v 0 c 0.03,3.63 1.49,7.1 4.07,9.65 2.57,2.56 6.05,3.99 9.68,3.99 3.65,0 7.15,-1.45 9.72,-4.03 2.58,-2.57 4.03,-6.07 4.03,-9.72 0,-3.65 -1.45,-7.15 -4.03,-9.72 C 25.65,5.2 22.15,3.75 18.5,3.75 c -3.35,0 -6.59,1.23 -9.1,3.44 z m -3.76,5.44 v 0 c -0.342,0.905 -1.355,1.362 -2.26,1.02 v 0 C 2.475,13.308 2.018,12.295 2.36,11.39 v 0 C 2.61,10.76 2.89,10.13 3.2,9.53 v 0 C 3.647,8.669 4.707,8.335 5.565,8.785 v 0 c 0.858,0.45 1.188,1.51 0.735,2.365 v 0 c -0.25,0.48 -0.47,0.98 -0.66,1.48 z m 28.29,17.95 v 0 c -0.651,-0.717 -0.6,-1.826 0.115,-2.475 v 0 c 0.715,-0.648 1.824,-0.597 2.475,0.115 v 0 l 7.27,8.02 c 0.79,0.86 1.22,1.98 1.22,3.14 0,1.36 -0.59,2.66 -1.62,3.54 l -1.2,1.04 c 0,0 0,0 0,0 -0.88,0.76 -2,1.17 -3.15,1.17 -1.36,0 -2.66,-0.57 -3.57,-1.57 0,0 0,0 -0.01,0 l -7.27,-8.02 v 0 c -0.651,-0.717 -0.6,-1.826 0.115,-2.475 v 0 c 0.715,-0.649 1.824,-0.592 2.475,0.125 v 0 l 7.27,8.01 c 0.26,0.28 0.61,0.43 0.99,0.43 0.31,0 0.62,-0.11 0.86,-0.32 l 1.2,-1.04 c 0,0 0,0 0,0 0.26,-0.22 0.41,-0.54 0.41,-0.89 0,-0.29 -0.11,-0.57 -0.3,-0.79 -0.01,0 -0.01,0 -0.01,0 z"
       style="fill:url(#_lgradient_2);fill-rule:evenodd"
       inkscape:connector-curvature="0" />
  </g>
</svg>
