<?xml version="1.0" encoding="UTF-8" standalone="no"?>
<!-- Generator: Gravit.io -->

<svg
   xmlns:dc="http://purl.org/dc/elements/1.1/"
   xmlns:cc="http://creativecommons.org/ns#"
   xmlns:rdf="http://www.w3.org/1999/02/22-rdf-syntax-ns#"
   xmlns:svg="http://www.w3.org/2000/svg"
   xmlns="http://www.w3.org/2000/svg"
   xmlns:sodipodi="http://sodipodi.sourceforge.net/DTD/sodipodi-0.dtd"
   xmlns:inkscape="http://www.inkscape.org/namespaces/inkscape"
   style="isolation:isolate"
   viewBox="0 0 36 36"
   width="48"
   height="48"
   version="1.1"
   id="svg21"
   sodipodi:docname="deadbeef.svg"
   inkscape:version="0.92.4 (5da689c313, 2019-01-14)">
  <metadata
     id="metadata27">
    <rdf:RDF>
      <cc:Work
         rdf:about="">
        <dc:format>image/svg+xml</dc:format>
        <dc:type
           rdf:resource="http://purl.org/dc/dcmitype/StillImage" />
        <dc:title></dc:title>
      </cc:Work>
    </rdf:RDF>
  </metadata>
  <defs
     id="defs25" />
  <sodipodi:namedview
     pagecolor="#ffffff"
     bordercolor="#666666"
     borderopacity="1"
     objecttolerance="10"
     gridtolerance="10"
     guidetolerance="10"
     inkscape:pageopacity="0"
     inkscape:pageshadow="2"
     inkscape:window-width="640"
     inkscape:window-height="480"
     id="namedview23"
     showgrid="false"
     inkscape:zoom="29.365243"
     inkscape:cx="25.325443"
     inkscape:cy="32"
     inkscape:current-layer="svg21"
     units="px" />
  <linearGradient
     id="_lgradient_37"
     x1="0.24305555"
     y1="-0.33333334"
     x2="0.3779321"
     y2="1.4502314"
     gradientTransform="matrix(18,0,0,24,16.797,12)"
     gradientUnits="userSpaceOnUse">
    <stop
       offset="0%"
       stop-opacity="1"
       style="stop-color:rgb(67,233,123)"
       id="stop2" />
    <stop
       offset="97.82608695652173%"
       stop-opacity="1"
       style="stop-color:rgb(56,249,215)"
       id="stop4" />
  </linearGradient>
  <linearGradient
     id="_lgradient_38"
     x1="26.915047"
     y1="5.5212808"
     x2="27.938162"
     y2="45.167011"
     gradientTransform="scale(0.8660254,1.1547005)"
     gradientUnits="userSpaceOnUse">
    <stop
       offset="0%"
       stop-opacity="1"
       style="stop-color:rgb(67,233,123)"
       id="stop7" />
    <stop
       offset="97.82608695652173%"
       stop-opacity="1"
       style="stop-color:rgb(56,249,215)"
       id="stop9" />
  </linearGradient>
  <linearGradient
     id="_lgradient_39"
     x1="0.39980158"
     y1="0.20242152"
     x2="0.36506835"
     y2="1.1185315"
     gradientTransform="matrix(46.808,0,0,47,0.564,0.5)"
     gradientUnits="userSpaceOnUse">
    <stop
       offset="0%"
       stop-opacity="1"
       style="stop-color:rgb(67,233,123)"
       id="stop14" />
    <stop
       offset="97.82608695652173%"
       stop-opacity="1"
       style="stop-color:rgb(56,249,215)"
       id="stop16" />
  </linearGradient>
  <g
     id="g839"
     transform="matrix(0.76595696,0,0,0.76595696,-0.35893112,-0.38295552)">
    <path
       id="path12"
       stroke-miterlimit="4"
       d="m 16.797,12 v 12 l 6.75,-4.5 5.596,3.731 1.154,0.769 -13.5,9 v 3 l 18,-12 -9,-6 z"
       style="vector-effect:non-scaling-stroke;fill:url(#_lgradient_37);fill-rule:evenodd;stroke:url(#_lgradient_38);stroke-width:2;stroke-linecap:butt;stroke-linejoin:miter;stroke-miterlimit:4"
       inkscape:connector-curvature="0" />
    <path
       id="path19"
       d="m 32.917,6.952 v 0 C 31.873,6.403 31.47,5.109 32.019,4.064 v 0 C 32.568,3.02 33.862,2.617 34.907,3.166 v 0 c 4.449,2.342 8.042,6.053 10.235,10.577 v 0 c 0.519,1.063 0.078,2.345 -0.984,2.861 v 0 c -1.063,0.517 -2.347,0.074 -2.866,-0.989 v 0 C 39.495,11.904 36.564,8.877 32.917,6.952 Z M 23.817,4.5 v 0 c 1.103,-0.006 1.995,-0.906 1.99,-2.01 v 0 C 25.801,1.386 24.9,0.494 23.797,0.5 v 0 c -5.76,0.03 -11.31,2.18 -15.59,6.03 -4.28,3.86 -7,9.15 -7.63,14.88 v 0 c -0.122,1.098 0.671,2.089 1.77,2.21 v 0 c 1.098,0.121 2.088,-0.672 2.21,-1.77 v 0 c 0.52,-4.75 2.78,-9.15 6.33,-12.34 3.55,-3.2 8.15,-4.98 12.93,-5.01 z M 5.737,31 v 0 C 5.339,29.968 4.179,29.453 3.147,29.85 v 0 c -1.033,0.397 -1.548,1.558 -1.15,2.59 v 0 c 1.91,4.93 5.42,9.08 9.97,11.78 v 0 c 0.949,0.563 2.177,0.249 2.74,-0.7 v 0 c 0.563,-0.949 0.249,-2.177 -0.7,-2.74 v 0 C 10.227,38.54 7.317,35.1 5.737,31 Z m 17.57,12.49 v 0 c -1.104,-0.017 -2.014,0.866 -2.03,1.97 v 0 c -0.017,1.104 0.866,2.013 1.97,2.03 v 0 l 0.66,0.01 c 0.01,0 0.02,0 0.03,0 5.91,0 11.61,-2.23 15.95,-6.24 4.34,-4.01 7.02,-9.52 7.48,-15.41 v 0 c 0.082,-1.098 -0.742,-2.062 -1.84,-2.15 v 0 c -1.099,-0.088 -2.062,0.736 -2.15,1.84 v 0 c -0.38,4.88 -2.6,9.45 -6.2,12.78 -3.6,3.33 -8.32,5.18 -13.22,5.18 z"
       style="fill:url(#_lgradient_39);fill-rule:evenodd"
       inkscape:connector-curvature="0" />
  </g>
</svg>
