<?xml version="1.0" encoding="UTF-8" standalone="no"?>
<!-- Generator: Gravit.io -->

<svg
   xmlns:dc="http://purl.org/dc/elements/1.1/"
   xmlns:cc="http://creativecommons.org/ns#"
   xmlns:rdf="http://www.w3.org/1999/02/22-rdf-syntax-ns#"
   xmlns:svg="http://www.w3.org/2000/svg"
   xmlns="http://www.w3.org/2000/svg"
   xmlns:sodipodi="http://sodipodi.sourceforge.net/DTD/sodipodi-0.dtd"
   xmlns:inkscape="http://www.inkscape.org/namespaces/inkscape"
   style="isolation:isolate"
   viewBox="0 0 36 36"
   width="48"
   height="48"
   version="1.1"
   id="svg16"
   sodipodi:docname="dia.svg"
   inkscape:version="0.92.4 (5da689c313, 2019-01-14)">
  <metadata
     id="metadata22">
    <rdf:RDF>
      <cc:Work
         rdf:about="">
        <dc:format>image/svg+xml</dc:format>
        <dc:type
           rdf:resource="http://purl.org/dc/dcmitype/StillImage" />
        <dc:title></dc:title>
      </cc:Work>
    </rdf:RDF>
  </metadata>
  <defs
     id="defs20" />
  <sodipodi:namedview
     pagecolor="#ffffff"
     bordercolor="#666666"
     borderopacity="1"
     objecttolerance="10"
     gridtolerance="10"
     guidetolerance="10"
     inkscape:pageopacity="0"
     inkscape:pageshadow="2"
     inkscape:window-width="640"
     inkscape:window-height="480"
     id="namedview18"
     showgrid="false"
     inkscape:zoom="29.365243"
     inkscape:cx="25.325443"
     inkscape:cy="32"
     inkscape:current-layer="svg16"
     units="px" />
  <linearGradient
     id="_lgradient_10"
     x1="0"
     y1="0.5"
     x2="0.98779029"
     y2="0.34421042"
     gradientTransform="matrix(34.445,0,0,40.476,6.778,3.762)"
     gradientUnits="userSpaceOnUse">
    <stop
       offset="100%"
       stop-opacity="1"
       style="stop-color:rgb(34,216,143)"
       id="stop2" />
    <stop
       offset="100%"
       stop-opacity="1"
       style="stop-color:rgb(33,214,145)"
       id="stop4" />
  </linearGradient>
  <linearGradient
     id="_lgradient_11"
     x1="0"
     y1="0.5"
     x2="1"
     y2="0.5"
     gradientTransform="matrix(0.198,-13.388,17.85,0.263,17.342,25.129)"
     gradientUnits="userSpaceOnUse">
    <stop
       offset="0%"
       stop-opacity="1"
       style="stop-color:rgb(255,224,49)"
       id="stop9" />
    <stop
       offset="98.69565217391305%"
       stop-opacity="1"
       style="stop-color:rgb(252,82,82)"
       id="stop11" />
  </linearGradient>
  <g
     id="g831"
     transform="matrix(0.88941595,0,0,0.88941595,-3.3459828,-3.3459828)">
    <path
       id="path7"
       d="M 12.341,32.687 V 8.531 h 4.372 V 32.687 H 27.44 c 0.5,-0.012 0.989,-0.12 1.454,-0.298 0.477,-0.155 0.918,-0.382 1.312,-0.692 1.013,-0.835 1.955,-1.753 2.814,-2.742 0.751,-0.859 1.395,-1.789 1.955,-2.778 0.942,-1.646 1.443,-3.506 1.478,-5.401 C 36.418,18.856 35.905,16.96 34.951,15.279 34.391,14.254 33.735,13.3 32.972,12.406 32.113,11.369 31.16,10.415 30.134,9.532 29.753,9.223 29.324,8.996 28.859,8.841 28.405,8.65 27.929,8.543 27.44,8.531 h -3.971 v 0 c -1.316,0 -2.384,-1.069 -2.384,-2.385 v 0 c 0,-1.316 1.068,-2.384 2.384,-2.384 v 0 h 4.007 c 0.023,0 0.047,0 0.059,0 1.025,0.024 2.039,0.226 2.993,0.608 0.965,0.346 1.872,0.858 2.67,1.514 1.228,1.049 2.373,2.206 3.422,3.446 0.954,1.121 1.789,2.337 2.504,3.636 1.335,2.385 2.063,5.067 2.098,7.81 -0.035,2.718 -0.751,5.389 -2.098,7.75 -0.715,1.263 -1.55,2.456 -2.504,3.553 -1.049,1.204 -2.194,2.324 -3.422,3.326 -0.81,0.644 -1.716,1.133 -2.682,1.467 -0.954,0.369 -1.967,0.56 -2.981,0.584 -0.024,0 -0.036,0 -0.059,0 H 16.713 v 2.329 h 4.372 L 14.527,44.238 7.97,39.785 h 4.371 V 37.456 H 9.162 v 0 c -1.316,0 -2.384,-1.069 -2.384,-2.385 v 0 c 0,-1.316 1.068,-2.384 2.384,-2.384 v 0 z M 9.162,3.762 h 5.167 c 1.316,0 2.384,1.068 2.384,2.384 V 8.531 H 9.162 C 7.846,8.531 6.778,7.462 6.778,6.146 v 0 c 0,-1.316 1.068,-2.384 2.384,-2.384 z"
       inkscape:connector-curvature="0"
       style="fill:url(#_lgradient_10);fill-rule:evenodd" />
    <path
       id="path14"
       d="m 23.825,22.745 v 0 c 0.684,0.01 1.231,0.574 1.221,1.258 v 0 c -0.01,0.684 -0.574,1.232 -1.258,1.221 v 0 L 21.474,25.19 c -2.28,-0.033 -3.082,-1.586 -1.789,-3.465 l 4.437,-6.448 c 1.293,-1.878 3.347,-1.848 4.584,0.068 l 4.245,6.576 c 1.237,1.916 0.39,3.444 -1.89,3.411 l -2.314,-0.034 v 0 c -0.685,-0.01 -1.232,-0.574 -1.222,-1.258 v 0 c 0.01,-0.684 0.574,-1.232 1.258,-1.222 v 0 l 1.818,0.027 -3.305,-5.12 c -0.495,-0.767 -1.317,-0.779 -1.834,-0.027 l -3.455,5.02 z"
       inkscape:connector-curvature="0"
       style="fill:url(#_lgradient_11)" />
  </g>
</svg>
