<?xml version="1.0" encoding="UTF-8" standalone="no"?>
<!-- Generator: Gravit.io -->

<svg
   xmlns:dc="http://purl.org/dc/elements/1.1/"
   xmlns:cc="http://creativecommons.org/ns#"
   xmlns:rdf="http://www.w3.org/1999/02/22-rdf-syntax-ns#"
   xmlns:svg="http://www.w3.org/2000/svg"
   xmlns="http://www.w3.org/2000/svg"
   xmlns:sodipodi="http://sodipodi.sourceforge.net/DTD/sodipodi-0.dtd"
   xmlns:inkscape="http://www.inkscape.org/namespaces/inkscape"
   style="isolation:isolate"
   viewBox="0 0 36 36"
   width="48"
   height="48"
   version="1.1"
   id="svg9"
   sodipodi:docname="dialog-question.svg"
   inkscape:version="0.92.4 (5da689c313, 2019-01-14)">
  <metadata
     id="metadata15">
    <rdf:RDF>
      <cc:Work
         rdf:about="">
        <dc:format>image/svg+xml</dc:format>
        <dc:type
           rdf:resource="http://purl.org/dc/dcmitype/StillImage" />
        <dc:title></dc:title>
      </cc:Work>
    </rdf:RDF>
  </metadata>
  <defs
     id="defs13" />
  <sodipodi:namedview
     pagecolor="#ffffff"
     bordercolor="#666666"
     borderopacity="1"
     objecttolerance="10"
     gridtolerance="10"
     guidetolerance="10"
     inkscape:pageopacity="0"
     inkscape:pageshadow="2"
     inkscape:window-width="640"
     inkscape:window-height="480"
     id="namedview11"
     showgrid="false"
     inkscape:zoom="29.365243"
     inkscape:cx="25.325443"
     inkscape:cy="32"
     inkscape:current-layer="svg9"
     units="px" />
  <linearGradient
     id="_lgradient_0"
     x1="0"
     y1="0.5"
     x2="0.90748805"
     y2="0.92007786"
     gradientTransform="matrix(44,0,0,43.946,2,2.054)"
     gradientUnits="userSpaceOnUse">
    <stop
       offset="0%"
       stop-opacity="1"
       style="stop-color:rgb(0,196,255)"
       id="stop2" />
    <stop
       offset="83.88839793817618%"
       stop-opacity="1"
       style="stop-color:rgb(0,114,255)"
       id="stop4" />
  </linearGradient>
  <g
     id="g826"
     transform="matrix(0.81818182,0,0,0.81818182,-1.6363637,-1.6585611)">
    <path
       id="path7"
       d="m 24,38 v 0 c -1.104,0 -2,-0.896 -2,-2 v 0 c 0,-1.104 0.896,-2 2,-2 v 0 c 1.104,0 2,0.896 2,2 v 0 c 0,1.104 -0.896,2 -2,2 z m 6.14,-15.5 -1.8,1.84 C 26.9,25.8 26,27 26,30 h -4 v -1 c 0,-2.2 0.9,-4.2 2.34,-5.66 l 2.48,-2.52 C 27.56,20.1 28,19.1 28,18 c 0,-2.2 -1.8,-4 -4,-4 -2.2,0 -4,1.8 -4,4 h -4 c 0,-4.42 3.58,-8 8,-8 4.42,0 8,3.58 8,8 0,1.76 -0.72,3.36 -1.86,4.5 z M 25.34,6.05 v 0 C 24.242,5.967 23.415,5.006 23.495,3.905 v 0 C 23.575,2.804 24.536,1.977 25.64,2.06 v 0 C 31.17,2.47 36.35,4.96 40.13,9.03 43.9,13.1 46,18.45 46,24 46,29.83 43.68,35.43 39.56,39.56 35.43,43.68 29.83,46 24,46 18.17,46 12.57,43.68 8.44,39.56 4.32,35.43 2,29.83 2,24 v 0 c 0,-1.104 0.896,-2 2,-2 v 0 c 1.104,0 2,0.896 2,2 v 0 c 0,4.77 1.9,9.35 5.27,12.73 C 14.65,40.1 19.23,42 24,42 28.77,42 33.35,40.1 36.73,36.73 40.1,33.35 42,28.77 42,24 42,19.46 40.29,15.08 37.2,11.75 34.11,8.42 29.87,6.39 25.34,6.05 Z M 8.06,15.63 v 0 c -0.513,0.977 -1.723,1.353 -2.7,0.84 v 0 C 4.383,15.957 4.007,14.747 4.52,13.77 v 0 C 6.71,9.61 10.18,6.25 14.41,4.2 v 0 c 0.993,-0.486 2.192,-0.073 2.675,0.92 v 0 c 0.483,0.993 0.068,2.194 -0.925,2.68 v 0 c -3.47,1.68 -6.3,4.42 -8.1,7.83 z"
       style="fill:url(#_lgradient_0);fill-rule:evenodd"
       inkscape:connector-curvature="0" />
  </g>
</svg>
