<?xml version="1.0" encoding="UTF-8" standalone="no"?>
<!-- Generator: Gravit.io -->

<svg
   xmlns:dc="http://purl.org/dc/elements/1.1/"
   xmlns:cc="http://creativecommons.org/ns#"
   xmlns:rdf="http://www.w3.org/1999/02/22-rdf-syntax-ns#"
   xmlns:svg="http://www.w3.org/2000/svg"
   xmlns="http://www.w3.org/2000/svg"
   xmlns:sodipodi="http://sodipodi.sourceforge.net/DTD/sodipodi-0.dtd"
   xmlns:inkscape="http://www.inkscape.org/namespaces/inkscape"
   style="isolation:isolate"
   viewBox="0 0 36 36"
   width="48"
   height="48"
   version="1.1"
   id="svg9"
   sodipodi:docname="dialog-password.svg"
   inkscape:version="0.92.4 (5da689c313, 2019-01-14)">
  <metadata
     id="metadata15">
    <rdf:RDF>
      <cc:Work
         rdf:about="">
        <dc:format>image/svg+xml</dc:format>
        <dc:type
           rdf:resource="http://purl.org/dc/dcmitype/StillImage" />
        <dc:title></dc:title>
      </cc:Work>
    </rdf:RDF>
  </metadata>
  <defs
     id="defs13" />
  <sodipodi:namedview
     pagecolor="#ffffff"
     bordercolor="#666666"
     borderopacity="1"
     objecttolerance="10"
     gridtolerance="10"
     guidetolerance="10"
     inkscape:pageopacity="0"
     inkscape:pageshadow="2"
     inkscape:window-width="640"
     inkscape:window-height="480"
     id="namedview11"
     showgrid="false"
     inkscape:zoom="29.365243"
     inkscape:cx="25.325443"
     inkscape:cy="32"
     inkscape:current-layer="svg9"
     units="px" />
  <linearGradient
     id="_lgradient_8"
     x1="0"
     y1="0.5"
     x2="0.90748805"
     y2="0.92007786"
     gradientTransform="matrix(38.852,0,0,41.519,4.574,3.241)"
     gradientUnits="userSpaceOnUse">
    <stop
       offset="0%"
       stop-opacity="1"
       style="stop-color:rgb(247,241,7)"
       id="stop2" />
    <stop
       offset="83.88839793817618%"
       stop-opacity="1"
       style="stop-color:rgb(255,187,36)"
       id="stop4" />
  </linearGradient>
  <g
     id="g826"
     transform="matrix(0.86708642,0,0,0.86708642,-2.8100418,-2.8099212)">
    <path
       id="path7"
       d="m 27.67,21.725 v 0 c 0.252,-0.983 1.266,-1.521 2.262,-1.199 v 0 c 0.996,0.322 1.599,1.39 1.346,2.383 v 0 l -0.266,0.998 3.37,0.554 c 0.731,0.12 1.301,0.819 1.272,1.559 l -0.156,3.965 3.17,0.474 4.758,5.671 -0.537,7.231 c -0.055,0.739 -0.701,1.343 -1.442,1.347 L 33.343,44.759 17.497,25.875 14.214,26.56 c -0.725,0.151 -1.701,-0.187 -2.177,-0.755 L 5.368,17.858 C 4.892,17.29 4.537,16.228 4.577,15.488 l 0.101,-1.887 c 0.04,-0.74 0.533,-1.728 1.101,-2.204 l 8.866,-7.44 c 0.568,-0.476 1.626,-0.791 2.362,-0.701 l 1.876,0.228 c 0.736,0.089 1.72,0.623 2.196,1.19 l 6.42,7.651 c 0.477,0.568 0.831,1.63 0.791,2.37 l -0.131,2.452 v 0 c -0.055,1.032 -0.935,1.77 -1.964,1.648 v 0 c -1.029,-0.123 -1.814,-1.064 -1.754,-2.1 v 0 l 0.112,-2.25 -6.072,-7.237 -1.474,-0.179 -8.613,7.228 -0.08,1.482 5.824,6.94 4.588,-0.97 16.17,19.271 4.415,-0.032 0.281,-3.757 -2.71,-3.229 -4.766,-0.704 C 31.383,33.15 30.776,32.46 30.762,31.719 L 30.707,28.874 27.337,28.32 C 26.606,28.2 26.164,27.52 26.35,26.803 Z m -14.119,-8.17 c 0,-1.104 0.896,-2 2,-2 1.104,0 2,0.896 2,2 0,1.103 -0.896,2 -2,2 -1.104,0 -2,-0.897 -2,-2 z"
       style="fill:url(#_lgradient_8);fill-rule:evenodd"
       inkscape:connector-curvature="0" />
  </g>
</svg>
