<?xml version="1.0" encoding="UTF-8" standalone="no"?>
<!-- Generator: Gravit.io -->

<svg
   xmlns:dc="http://purl.org/dc/elements/1.1/"
   xmlns:cc="http://creativecommons.org/ns#"
   xmlns:rdf="http://www.w3.org/1999/02/22-rdf-syntax-ns#"
   xmlns:svg="http://www.w3.org/2000/svg"
   xmlns="http://www.w3.org/2000/svg"
   xmlns:sodipodi="http://sodipodi.sourceforge.net/DTD/sodipodi-0.dtd"
   xmlns:inkscape="http://www.inkscape.org/namespaces/inkscape"
   style="isolation:isolate"
   viewBox="0 0 36 36"
   width="48"
   height="48"
   version="1.1"
   id="svg9"
   sodipodi:docname="diodon.svg"
   inkscape:version="0.92.4 (5da689c313, 2019-01-14)">
  <metadata
     id="metadata15">
    <rdf:RDF>
      <cc:Work
         rdf:about="">
        <dc:format>image/svg+xml</dc:format>
        <dc:type
           rdf:resource="http://purl.org/dc/dcmitype/StillImage" />
        <dc:title></dc:title>
      </cc:Work>
    </rdf:RDF>
  </metadata>
  <defs
     id="defs13" />
  <sodipodi:namedview
     pagecolor="#ffffff"
     bordercolor="#666666"
     borderopacity="1"
     objecttolerance="10"
     gridtolerance="10"
     guidetolerance="10"
     inkscape:pageopacity="0"
     inkscape:pageshadow="2"
     inkscape:window-width="640"
     inkscape:window-height="480"
     id="namedview11"
     showgrid="false"
     inkscape:zoom="29.365243"
     inkscape:cx="25.325443"
     inkscape:cy="32"
     inkscape:current-layer="svg9"
     units="px" />
  <linearGradient
     id="_lgradient_14"
     x1="0.061897106"
     y1="0.14716151"
     x2="0.99042481"
     y2="0.98658085"
     gradientTransform="matrix(42,0,0,43,3,2.5)"
     gradientUnits="userSpaceOnUse">
    <stop
       offset="0%"
       stop-opacity="1"
       style="stop-color:rgb(22,181,228)"
       id="stop2" />
    <stop
       offset="98.26086956521739%"
       stop-opacity="1"
       style="stop-color:rgb(245,32,250)"
       id="stop4" />
  </linearGradient>
  <g
     id="g826"
     transform="matrix(0.8372093,0,0,0.8372093,-2.0930232,-2.0930232)">
    <path
       id="path7"
       d="M 22.51,11.5 H 14.42 V 9.36 h 4.23 c 0.35,0 0.69,-0.13 0.96,-0.35 0.27,-0.22 0.45,-0.53 0.52,-0.88 0.08,-0.44 0.24,-0.87 0.46,-1.26 0.14,-0.27 0.34,-0.5 0.58,-0.68 0.26,-0.21 0.56,-0.36 0.88,-0.45 0.57,-0.16 1.16,-0.24 1.75,-0.24 0.59,0 1.18,0.08 1.75,0.25 0.32,0.09 0.62,0.24 0.88,0.45 0.24,0.18 0.43,0.41 0.58,0.67 0.22,0.39 0.37,0.82 0.46,1.26 0.06,0.35 0.24,0.66 0.51,0.88 0.27,0.22 0.61,0.35 0.96,0.35 h 3.64 v 2.14 z m 15.99,0 v 0 C 37.672,11.5 37,10.828 37,10 v 0 c 0,-0.828 0.672,-1.5 1.5,-1.5 v 0 H 41 c 2.208,0 4,1.792 4,4 v 29 c 0,2.208 -1.792,4 -4,4 H 7 c -2.208,0 -4,-1.792 -4,-4 v -29 c 0,-2.208 1.792,-4 4,-4 h 1.5 v 0 C 9.328,8.5 10,9.172 10,10 v 0 c 0,0.828 -0.672,1.5 -1.5,1.5 v 0 H 8 c -1.104,0 -2,0.896 -2,2 v 27 c 0,1.104 0.896,2 2,2 h 32 c 1.104,0 2,-0.896 2,-2 v -27 c 0,-1.104 -0.896,-2 -2,-2 z M 18.5,24 v 0 c 1.104,0 2,0.896 2,2 v 0 c 0,1.104 -0.896,2 -2,2 v 0 c -1.104,0 -2,-0.896 -2,-2 v 0 c 0,-1.104 0.896,-2 2,-2 z m 6,0 h 6 c 0.552,0 1,0.448 1,1 v 2 c 0,0.552 -0.448,1 -1,1 h -6 c -0.552,0 -1,-0.448 -1,-1 v -2 c 0,-0.552 0.448,-1 1,-1 z m 0,7 h 6 c 0.552,0 1,0.448 1,1 v 2 c 0,0.552 -0.448,1 -1,1 h -6 c -0.552,0 -1,-0.448 -1,-1 v -2 c 0,-0.552 0.448,-1 1,-1 z M 22.51,14.5 h -9.09 c -1.104,0 -2,-0.896 -2,-2 V 8.36 c 0,-1.104 0.896,-2 2,-2 h 4.1 C 17.65,6.03 17.8,5.71 17.97,5.4 18.31,4.79 18.77,4.25 19.33,3.82 19.9,3.38 20.54,3.05 21.24,2.86 22.07,2.62 22.93,2.5 23.8,2.5 c 0.87,0 1.74,0.12 2.57,0.36 0.7,0.2 1.35,0.53 1.92,0.98 0.55,0.43 1,0.96 1.34,1.57 0.17,0.31 0.32,0.62 0.44,0.95 h 3.51 c 1.104,0 2,0.896 2,2 v 4.14 c 0,1.104 -0.896,2 -2,2 z m -8.01,6 h 19 v 17 h -19 z m -3,-3 h 25 v 23 h -25 z m 7,13.5 v 0 c 1.104,0 2,0.896 2,2 v 0 c 0,1.104 -0.896,2 -2,2 v 0 c -1.104,0 -2,-0.896 -2,-2 v 0 c 0,-1.104 0.896,-2 2,-2 z"
       inkscape:connector-curvature="0"
       style="fill:url(#_lgradient_14);fill-rule:evenodd" />
  </g>
</svg>
