<?xml version="1.0" encoding="UTF-8" standalone="no"?>
<!-- Generator: Gravit.io -->

<svg
   xmlns:dc="http://purl.org/dc/elements/1.1/"
   xmlns:cc="http://creativecommons.org/ns#"
   xmlns:rdf="http://www.w3.org/1999/02/22-rdf-syntax-ns#"
   xmlns:svg="http://www.w3.org/2000/svg"
   xmlns="http://www.w3.org/2000/svg"
   xmlns:sodipodi="http://sodipodi.sourceforge.net/DTD/sodipodi-0.dtd"
   xmlns:inkscape="http://www.inkscape.org/namespaces/inkscape"
   style="isolation:isolate"
   viewBox="0 0 36 36"
   width="48"
   height="48"
   version="1.1"
   id="svg5305"
   sodipodi:docname="discord-canary.svg"
   inkscape:version="0.92.4 (5da689c313, 2019-01-14)">
  <metadata
     id="metadata5311">
    <rdf:RDF>
      <cc:Work
         rdf:about="">
        <dc:format>image/svg+xml</dc:format>
        <dc:type
           rdf:resource="http://purl.org/dc/dcmitype/StillImage" />
        <dc:title></dc:title>
      </cc:Work>
    </rdf:RDF>
  </metadata>
  <defs
     id="defs5309" />
  <sodipodi:namedview
     pagecolor="#ffffff"
     bordercolor="#666666"
     borderopacity="1"
     objecttolerance="10"
     gridtolerance="10"
     guidetolerance="10"
     inkscape:pageopacity="0"
     inkscape:pageshadow="2"
     inkscape:window-width="1440"
     inkscape:window-height="852"
     id="namedview5307"
     showgrid="false"
     inkscape:zoom="29.118476"
     inkscape:cx="-27.341291"
     inkscape:cy="32"
     inkscape:window-x="0"
     inkscape:window-y="27"
     inkscape:window-maximized="1"
     inkscape:current-layer="svg5305"
     units="px" />
  <linearGradient
     id="_lgradient_1"
     x1="0"
     y1="0.5"
     x2="0.90748805"
     y2="0.92007786"
     gradientTransform="matrix(45.953,0,0,38.048,1.048,4.184)"
     gradientUnits="userSpaceOnUse">
    <stop
       offset="0%"
       stop-opacity="1"
       style="stop-color:#f3eb24;stop-opacity:1"
       id="stop5298" />
    <stop
       offset="83.88839793817618%"
       stop-opacity="1"
       style="stop-color:#f3a324;stop-opacity:1"
       id="stop5300" />
  </linearGradient>
  <g
     id="g816"
     transform="matrix(0.78340479,0,0,0.78340479,-0.82128526,-0.181254)">
    <path
       id="path5303"
       d="M 16.563,4.246 C 16.356,4.18 16.13,4.17 15.9,4.2 v 0 C 14.64,4.36 13.39,4.62 12.18,4.99 11.24,5.27 10.34,5.68 9.51,6.21 8.82,6.66 8.2,7.22 7.68,7.85 7.25,8.39 6.85,8.94 6.48,9.52 6.23,9.89 5.98,10.26 5.72,10.63 4.12,13.25 2.93,16.1 2.19,19.08 1.4,22.3 1.02,25.61 1.05,28.92 c 0,2.58 0.19,5.15 0.55,7.7 0.71,0.86 1.46,1.7 2.24,2.5 0.6,0.61 1.25,1.17 1.96,1.65 0.73,0.49 1.53,0.87 2.37,1.11 0.91,0.25 1.84,0.37 2.77,0.35 0.87,0 1.74,-0.08 2.59,-0.21 1.04,-0.16 2.06,-0.36 3.08,-0.6 0.58,-0.13 1.06,-0.52 1.33,-1.05 l 1.85,-3.7 0.405,-0.814 c 1.053,0.101 2.113,0.149 3.176,0.144 1.476,-0.007 2.951,-0.097 4.416,-0.27 v 0 0 0 l 0.473,0.94 1.85,3.7 c 0.26,0.53 0.75,0.92 1.32,1.05 1.02,0.24 2.05,0.44 3.08,0.6 0.86,0.13 1.73,0.21 2.6,0.21 0.93,0.02 1.86,-0.1 2.76,-0.35 0.85,-0.24 1.65,-0.62 2.38,-1.11 0.7,-0.48 1.36,-1.04 1.96,-1.65 0.78,-0.8 1.53,-1.64 2.24,-2.5 C 46.81,34.07 46.99,31.5 47,28.92 47.03,25.61 46.64,22.3 45.86,19.08 45.12,16.1 43.93,13.25 42.33,10.63 42.07,10.26 41.81,9.89 41.57,9.52 41.2,8.94 40.8,8.39 40.37,7.85 39.84,7.22 39.22,6.66 38.54,6.21 37.71,5.68 36.81,5.27 35.87,4.99 34.65,4.62 32.41,4.36 31.15,4.2 v 0 C 30.915,4.169 30.684,4.181 30.473,4.25 v 0 C 29.38,4.126 28.444,4.505 28.14,5.26 v 0 L 26.558,9.216 C 25.498,9.126 24.434,9.08 23.371,9.08 22.389,9.075 21.41,9.115 20.436,9.2 L 18.86,5.26 v 0 C 18.559,4.514 17.64,4.134 16.563,4.246 Z m -0.814,4.017 c -0.819,0.132 -1.63,0.32 -2.429,0.557 -0.57,0.17 -1.12,0.42 -1.63,0.74 -0.34,0.23 -0.65,0.51 -0.92,0.83 -0.33,0.41 -0.65,0.85 -0.93,1.3 -0.26,0.39 -0.52,0.77 -0.78,1.14 -1.35,2.24 -2.36,4.67 -2.98,7.2 -0.71,2.91 -1.06,5.88 -1.03,8.87 0,2.02 0.12,4.03 0.36,6.03 0.42,0.48 0.85,0.95 1.3,1.4 0.41,0.42 0.85,0.8 1.34,1.13 0.37,0.25 0.78,0.44 1.21,0.57 0.53,0.14 1.08,0.21 1.64,0.2 0.68,0 1.35,-0.06 2.03,-0.16 0.62,-0.1 1.24,-0.21 1.86,-0.34 l 1.27,-2.548 v 0 c -1.379,-0.32 -2.738,-0.731 -4.069,-1.232 v 0 c -1.033,-0.392 -1.552,-1.548 -1.16,-2.58 v 0 c 0.391,-1.032 1.547,-1.552 2.58,-1.16 v 0 c 3.17,1.2 6.55,1.81 9.94,1.79 1.84,0 3.68,-0.16 5.5,-0.45 1.98,-0.33 3.94,-0.79 5.86,-1.38 v 0 c 1.054,-0.326 2.174,0.266 2.5,1.32 v 0 c 0.325,1.054 -0.266,2.174 -1.32,2.5 v 0 c -1.307,0.406 -2.634,0.754 -3.975,1.043 l 1.344,2.697 c 0.62,0.13 1.24,0.24 1.86,0.34 0.67,0.1 1.35,0.16 2.03,0.16 0.55,0.01 1.11,-0.06 1.64,-0.2 0.43,-0.13 0.84,-0.32 1.21,-0.57 0.48,-0.33 0.93,-0.71 1.34,-1.13 0.44,-0.45 0.87,-0.92 1.29,-1.4 0.24,-2 0.36,-4.01 0.37,-6.03 0.02,-2.99 -0.32,-5.96 -1.03,-8.87 -0.63,-2.53 -1.63,-4.96 -2.98,-7.2 -0.27,-0.37 -0.53,-0.75 -0.78,-1.14 -0.29,-0.45 -0.6,-0.89 -0.94,-1.3 C 37.01,10.07 36.7,9.79 36.36,9.56 35.85,9.24 35.3,8.99 34.72,8.82 33.892,8.572 32.357,8.378 31.258,8.245 l -0.616,1.54 c 1.776,0.337 3.529,0.77 5.249,1.305 v 0 c 1.054,0.326 1.645,1.446 1.32,2.5 v 0 c -0.326,1.054 -1.446,1.646 -2.5,1.32 v 0 C 32.878,14.347 31.008,13.902 29.12,13.576 L 29.11,13.6 28.997,13.555 c -0.049,-0.009 -0.098,-0.017 -0.146,-0.025 -1.82,-0.3 -3.66,-0.45 -5.5,-0.45 -1.825,-0.011 -3.646,0.161 -5.433,0.509 L 17.89,13.6 17.888,13.595 c -1.524,0.298 -3.023,0.724 -4.477,1.275 v 0 0 0 0 c -1.033,0.392 -2.189,-0.128 -2.58,-1.16 v 0 c -0.392,-1.032 0.127,-2.188 1.16,-2.58 v 0 c 1.431,-0.543 2.896,-0.979 4.382,-1.307 z m 0.089,14.777 c 0,-1.932 1.568,-3.5 3.5,-3.5 1.932,0 3.5,1.568 3.5,3.5 0,1.932 -1.568,3.5 -3.5,3.5 -1.932,0 -3.5,-1.568 -3.5,-3.5 z m 9.324,0 c 0,-1.932 1.568,-3.5 3.5,-3.5 1.932,0 3.5,1.568 3.5,3.5 0,1.932 -1.568,3.5 -3.5,3.5 -1.932,0 -3.5,-1.568 -3.5,-3.5 z"
       style="fill:url(#_lgradient_1);fill-rule:evenodd"
       inkscape:connector-curvature="0" />
  </g>
</svg>
