<?xml version="1.0" encoding="UTF-8" standalone="no"?>
<!-- Generator: Gravit.io -->

<svg
   xmlns:dc="http://purl.org/dc/elements/1.1/"
   xmlns:cc="http://creativecommons.org/ns#"
   xmlns:rdf="http://www.w3.org/1999/02/22-rdf-syntax-ns#"
   xmlns:svg="http://www.w3.org/2000/svg"
   xmlns="http://www.w3.org/2000/svg"
   xmlns:sodipodi="http://sodipodi.sourceforge.net/DTD/sodipodi-0.dtd"
   xmlns:inkscape="http://www.inkscape.org/namespaces/inkscape"
   style="isolation:isolate"
   viewBox="0 0 36 36"
   width="48"
   height="48"
   version="1.1"
   id="svg21"
   sodipodi:docname="disk-usage-analyzer.svg"
   inkscape:version="0.92.4 (5da689c313, 2019-01-14)">
  <metadata
     id="metadata27">
    <rdf:RDF>
      <cc:Work
         rdf:about="">
        <dc:format>image/svg+xml</dc:format>
        <dc:type
           rdf:resource="http://purl.org/dc/dcmitype/StillImage" />
        <dc:title></dc:title>
      </cc:Work>
    </rdf:RDF>
  </metadata>
  <defs
     id="defs25" />
  <sodipodi:namedview
     pagecolor="#ffffff"
     bordercolor="#666666"
     borderopacity="1"
     objecttolerance="10"
     gridtolerance="10"
     guidetolerance="10"
     inkscape:pageopacity="0"
     inkscape:pageshadow="2"
     inkscape:window-width="640"
     inkscape:window-height="480"
     id="namedview23"
     showgrid="false"
     inkscape:zoom="29.365243"
     inkscape:cx="25.325443"
     inkscape:cy="32"
     inkscape:current-layer="svg21"
     units="px" />
  <linearGradient
     id="_lgradient_5"
     x1="0.06818182"
     y1="0.23295455"
     x2="0.93843019"
     y2="0.77938956"
     gradientTransform="matrix(40,0,0,46,2.75,1)"
     gradientUnits="userSpaceOnUse">
    <stop
       offset="0%"
       stop-opacity="1"
       style="stop-color:rgb(48,207,208)"
       id="stop2" />
    <stop
       offset="98.26086956521739%"
       stop-opacity="1"
       style="stop-color:rgb(51,8,103)"
       id="stop4" />
  </linearGradient>
  <linearGradient
     id="_lgradient_6"
     x1="0.41703096"
     y1="0.019248826"
     x2="0.67953813"
     y2="0.96413201"
     gradientTransform="matrix(22,0,0,22,23.25,24)"
     gradientUnits="userSpaceOnUse">
    <stop
       offset="28.000000000000004%"
       stop-opacity="1"
       style="stop-color:rgb(0,205,215)"
       id="stop9" />
    <stop
       offset="94%"
       stop-opacity="1"
       style="stop-color:rgb(32,134,215)"
       id="stop11" />
  </linearGradient>
  <linearGradient
     id="_lgradient_7"
     x1="32.341888"
     y1="23.942652"
     x2="38.379536"
     y2="45.6749"
     gradientTransform="scale(0.99999699,1.000003)"
     gradientUnits="userSpaceOnUse">
    <stop
       offset="28.000000000000004%"
       stop-opacity="1"
       style="stop-color:rgb(0,205,215)"
       id="stop14" />
    <stop
       offset="94%"
       stop-opacity="1"
       style="stop-color:rgb(32,134,215)"
       id="stop16" />
  </linearGradient>
  <g
     id="g839"
     transform="matrix(0.7826087,0,0,0.7826087,-0.97826097,-0.7826088)">
    <path
       id="path7"
       d="m 21.25,19.5 c 0,-0.4 0.16,-0.78 0.44,-1.06 0.28,-0.28 0.66,-0.44 1.06,-0.44 0.4,0 0.78,0.16 1.06,0.44 0.28,0.28 0.44,0.66 0.44,1.06 0,0.4 -0.16,0.78 -0.44,1.06 C 23.53,20.84 23.15,21 22.75,21 22.35,21 21.97,20.84 21.69,20.56 21.41,20.28 21.25,19.9 21.25,19.5 Z m 0.73,-6 v 0 c -0.552,-0.017 -0.984,-0.478 -0.965,-1.03 v 0 c 0.019,-0.552 0.483,-0.987 1.035,-0.97 v 0 c 2.01,0.07 3.94,0.81 5.48,2.1 1.54,1.29 2.61,3.06 3.02,5.02 v 0 c 0.116,0.541 -0.227,1.074 -0.765,1.19 v 0 C 29.247,19.926 28.716,19.581 28.6,19.04 v 0 c -0.33,-1.53 -1.16,-2.91 -2.35,-3.91 -1.2,-1 -2.7,-1.58 -4.27,-1.63 z m 2.34,16.38 0.47,2.96 C 24.11,32.95 23.43,33 22.75,33 19.3,33 15.99,31.63 13.56,29.19 11.12,26.76 9.75,23.45 9.75,20 c 0,-3.45 1.37,-6.76 3.81,-9.19 C 15.99,8.37 19.3,7 22.75,7 c 3.45,0 6.76,1.37 9.19,3.81 2.44,2.43 3.81,5.74 3.81,9.19 0,2.23 -0.57,4.42 -1.66,6.36 L 31.47,24.89 C 32.31,23.4 32.75,21.71 32.75,20 32.75,17.35 31.7,14.8 29.82,12.93 27.95,11.05 25.4,10 22.75,10 c -2.65,0 -5.2,1.05 -7.07,2.93 -1.88,1.87 -2.93,4.42 -2.93,7.07 0,2.65 1.05,5.2 2.93,7.07 1.87,1.88 4.42,2.93 7.07,2.93 0.53,0 1.05,-0.04 1.57,-0.12 z M 18.25,19.5 c 0,-1.19 0.47,-2.34 1.32,-3.18 0.84,-0.85 1.99,-1.32 3.18,-1.32 1.19,0 2.34,0.47 3.18,1.32 0.85,0.84 1.32,1.99 1.32,3.18 0,1.19 -0.47,2.34 -1.32,3.18 C 25.09,23.53 23.94,24 22.75,24 21.56,24 20.41,23.53 19.57,22.68 18.72,21.84 18.25,20.69 18.25,19.5 Z m 2.5,27.5 h -13 c -2.76,0 -5,-2.24 -5,-5 V 6 c 0,-2.76 2.24,-5 5,-5 h 30 c 2.76,0 5,2.24 5,5 v 14.5 0 c 0,1.104 -0.896,2 -2,2 v 0 c -1.104,0 -2,-0.896 -2,-2 v 0 V 8 c 0,-1.656 -1.344,-3 -3,-3 h -26 c -1.656,0 -3,1.344 -3,3 v 32 c 0,1.656 1.344,3 3,3 h 11 c 1.104,0 2,0.896 2,2 v 0 c 0,1.104 -0.896,2 -2,2 z"
       style="fill:url(#_lgradient_5);fill-rule:evenodd"
       inkscape:connector-curvature="0" />
    <path
       id="path19"
       stroke-miterlimit="3"
       d="m 25.25,34.33 v 0 c -0.041,0.549 -0.522,0.963 -1.074,0.923 v 0 C 23.625,35.212 23.211,34.732 23.253,34.18 v 0 c 0.205,-2.765 1.452,-5.355 3.489,-7.245 C 28.78,25.05 31.458,24 34.236,24 c 2.919,0 5.722,1.16 7.79,3.22 2.063,2.065 3.224,4.865 3.224,7.78 0,2.915 -1.161,5.715 -3.224,7.78 -2.068,2.06 -4.871,3.22 -7.79,3.22 v 0 c -0.552,0 -1.001,-0.448 -1.001,-1 v 0 c 0,-0.552 0.449,-1 1.001,-1 v 0 c 2.388,0 4.681,-0.95 6.373,-2.635 1.687,-1.69 2.639,-3.98 2.639,-6.365 0,-2.385 -0.952,-4.675 -2.639,-6.365 C 38.917,26.95 36.624,26 34.236,26 c -2.272,0 -4.465,0.855 -6.132,2.4 -1.667,1.545 -2.683,3.665 -2.854,5.93 z m 4.796,8.64 v 0 c 0.489,0.257 0.678,0.862 0.421,1.35 v 0 c -0.257,0.488 -0.863,0.677 -1.352,0.42 v 0 C 27.033,43.645 25.35,41.91 24.324,39.795 v 0 c -0.243,-0.497 -0.037,-1.096 0.461,-1.337 v 0 c 0.497,-0.242 1.098,-0.035 1.341,0.462 v 0 c 0.841,1.735 2.213,3.15 3.92,4.05 z m 3.647,-10.423 h 1.114 c 0.419,0 0.76,0.341 0.76,0.761 v 8.138 c 0,0.42 -0.341,0.761 -0.76,0.761 h -1.114 c -0.419,0 -0.76,-0.341 -0.76,-0.761 v -8.138 c 0,-0.42 0.341,-0.761 0.76,-0.761 z m -0.639,-4.259 v 0 c -0.659,0.66 -0.659,1.731 0,2.391 v 0 c 0.66,0.66 1.732,0.66 2.392,0 v 0 c 0.659,-0.66 0.659,-1.731 0,-2.391 v 0 c -0.66,-0.66 -1.732,-0.66 -2.392,0 z"
       style="vector-effect:non-scaling-stroke;fill:url(#_lgradient_6);fill-rule:evenodd;stroke:url(#_lgradient_7);stroke-width:1;stroke-linecap:square;stroke-linejoin:miter;stroke-miterlimit:3"
       inkscape:connector-curvature="0" />
  </g>
</svg>
