<?xml version="1.0" encoding="UTF-8" standalone="no"?>
<!-- Generator: Gravit.io -->

<svg
   xmlns:dc="http://purl.org/dc/elements/1.1/"
   xmlns:cc="http://creativecommons.org/ns#"
   xmlns:rdf="http://www.w3.org/1999/02/22-rdf-syntax-ns#"
   xmlns:svg="http://www.w3.org/2000/svg"
   xmlns="http://www.w3.org/2000/svg"
   xmlns:sodipodi="http://sodipodi.sourceforge.net/DTD/sodipodi-0.dtd"
   xmlns:inkscape="http://www.inkscape.org/namespaces/inkscape"
   style="isolation:isolate"
   viewBox="0 0 36 36"
   width="48"
   height="48"
   version="1.1"
   id="svg28"
   sodipodi:docname="disk-utility.svg"
   inkscape:version="0.92.4 (5da689c313, 2019-01-14)">
  <metadata
     id="metadata34">
    <rdf:RDF>
      <cc:Work
         rdf:about="">
        <dc:format>image/svg+xml</dc:format>
        <dc:type
           rdf:resource="http://purl.org/dc/dcmitype/StillImage" />
        <dc:title></dc:title>
      </cc:Work>
    </rdf:RDF>
  </metadata>
  <defs
     id="defs32" />
  <sodipodi:namedview
     pagecolor="#ffffff"
     bordercolor="#666666"
     borderopacity="1"
     objecttolerance="10"
     gridtolerance="10"
     guidetolerance="10"
     inkscape:pageopacity="0"
     inkscape:pageshadow="2"
     inkscape:window-width="640"
     inkscape:window-height="480"
     id="namedview30"
     showgrid="false"
     inkscape:zoom="29.365243"
     inkscape:cx="25.325443"
     inkscape:cy="32"
     inkscape:current-layer="svg28"
     units="px" />
  <linearGradient
     id="_lgradient_4"
     x1="19.865625"
     y1="15.48913"
     x2="28.215157"
     y2="23.765562"
     gradientUnits="userSpaceOnUse">
    <stop
       offset="0%"
       stop-opacity="1"
       style="stop-color:rgb(240,107,169)"
       id="stop2" />
    <stop
       offset="98.69565217391305%"
       stop-opacity="1"
       style="stop-color:rgb(66,216,246)"
       id="stop4" />
  </linearGradient>
  <linearGradient
     id="_lgradient_5"
     x1="0.040624999"
     y1="0.054347824"
     x2="0.96835077"
     y2="0.97395134"
     gradientTransform="matrix(25.983,0,0,31.605,10.516,7.003)"
     gradientUnits="userSpaceOnUse">
    <stop
       offset="0%"
       stop-opacity="1"
       style="stop-color:rgb(240,107,169)"
       id="stop9" />
    <stop
       offset="98.69565217391305%"
       stop-opacity="1"
       style="stop-color:rgb(66,216,246)"
       id="stop11" />
  </linearGradient>
  <linearGradient
     id="_lgradient_6"
     x1="12.20773"
     y1="7.5285501"
     x2="39.730385"
     y2="34.810242"
     gradientTransform="scale(0.90976463,1.0991854)"
     gradientUnits="userSpaceOnUse">
    <stop
       offset="0%"
       stop-opacity="1"
       style="stop-color:rgb(240,107,169)"
       id="stop14" />
    <stop
       offset="98.69565217391305%"
       stop-opacity="1"
       style="stop-color:rgb(66,216,246)"
       id="stop16" />
  </linearGradient>
  <linearGradient
     id="_lgradient_7"
     x1="0.040624999"
     y1="0.054347824"
     x2="0.96835077"
     y2="0.97395134"
     gradientTransform="matrix(40,0,0,46,4,1)"
     gradientUnits="userSpaceOnUse">
    <stop
       offset="0%"
       stop-opacity="1"
       style="stop-color:rgb(240,107,169)"
       id="stop21" />
    <stop
       offset="98.69565217391305%"
       stop-opacity="1"
       style="stop-color:rgb(66,216,246)"
       id="stop23" />
  </linearGradient>
  <g
     id="g844"
     transform="matrix(0.7826087,0,0,0.7826087,-0.7826088,-0.7826088)">
    <path
       id="path7"
       stroke-miterlimit="3"
       d="m 21,19.5 c 0,-1.656 1.344,-3 3,-3 1.656,0 3,1.344 3,3 0,1.656 -1.344,3 -3,3 -1.656,0 -3,-1.344 -3,-3 z"
       inkscape:connector-curvature="0"
       style="vector-effect:non-scaling-stroke;fill:none;stroke:url(#_lgradient_4);stroke-width:3;stroke-linecap:square;stroke-linejoin:miter;stroke-miterlimit:3" />
    <path
       id="path19"
       stroke-miterlimit="3"
       d="m 19.454,31.147 c 0.736,0.287 1.503,0.506 2.29,0.651 3.256,0.597 6.632,-0.126 9.356,-2.005 2.723,-1.88 4.597,-4.779 5.195,-8.035 C 36.892,18.502 36.169,15.127 34.29,12.403 32.41,9.679 29.511,7.805 26.255,7.208 22.468,6.513 18.567,7.607 15.699,10.162 v 0 c -0.415,0.367 -0.454,1 -0.086,1.412 v 0 c 0.367,0.413 0.998,0.449 1.408,0.081 v 0 0 c 2.418,-2.149 5.696,-3.063 8.873,-2.48 2.735,0.502 5.17,2.077 6.743,4.368 1.584,2.284 2.192,5.12 1.69,7.854 -0.501,2.735 -2.077,5.17 -4.368,6.743 -2.283,1.584 -5.119,2.192 -7.854,1.69 -0.555,-0.102 -1.098,-0.248 -1.624,-0.435 l 2.508,-4.278 v 0 c 0.558,-0.952 0.309,-1.168 -0.555,-0.481 l -4.408,3.501 C 17.04,27.455 16.168,26.603 15.457,25.612 13.87,23.399 13.217,20.646 13.619,17.954 v 0 c 0.078,-0.547 -0.303,-1.056 -0.849,-1.137 v 0 c -0.546,-0.08 -1.053,0.298 -1.131,0.845 v 0 c -0.486,3.205 0.307,6.472 2.191,9.115 0.727,1.015 1.595,1.906 2.57,2.651 l -4.923,3.911 c -0.688,0.547 -1.099,1.688 -0.918,2.547 l 0.147,0.693 c 0.181,0.859 1.029,1.689 1.892,1.853 l 0.763,0.144 c 0.863,0.164 1.924,-0.318 2.368,-1.076 z m -1.448,-0.675 c -0.07,-0.038 -0.14,-0.077 -0.209,-0.117 v 0 l -5.181,4.114 c -0.344,0.273 -0.551,0.844 -0.461,1.274 l 0.053,0.25 c 0.09,0.43 0.513,0.845 0.945,0.927 l 0.184,0.035 c 0.431,0.082 0.962,-0.16 1.184,-0.539 z M 23.23,12.5 v 0 c -0.552,-0.017 -0.984,-0.478 -0.965,-1.03 v 0 c 0.019,-0.552 0.483,-0.987 1.035,-0.97 v 0 c 2.01,0.07 3.94,0.81 5.48,2.1 1.54,1.29 2.61,3.06 3.02,5.02 v 0 c 0.116,0.541 -0.227,1.074 -0.765,1.19 v 0 c -0.538,0.116 -1.069,-0.229 -1.185,-0.77 v 0 c -0.33,-1.53 -1.16,-2.91 -2.35,-3.91 -1.2,-1 -2.7,-1.58 -4.27,-1.63 z"
       inkscape:connector-curvature="0"
       style="vector-effect:non-scaling-stroke;fill:url(#_lgradient_5);fill-rule:evenodd;stroke:url(#_lgradient_6);stroke-width:1;stroke-linecap:square;stroke-linejoin:miter;stroke-miterlimit:3" />
    <path
       id="path26"
       d="m 40,31.35 v 0 c 0,-1.104 0.896,-2 2,-2 v 0 c 1.104,0 2,0.896 2,2 v 0 V 42 c 0,2.76 -2.24,5 -5,5 H 9 C 6.24,47 4,44.76 4,42 V 6 C 4,3.24 6.24,1 9,1 h 30 c 2.76,0 5,2.24 5,5 v 7.5 0 c 0,1.104 -0.896,2 -2,2 v 0 c -1.104,0 -2,-0.896 -2,-2 v 0 V 8 C 40,6.344 38.656,5 37,5 H 11 C 9.344,5 8,6.344 8,8 v 32 c 0,1.656 1.344,3 3,3 h 26 c 1.656,0 3,-1.344 3,-3 z m 1.947,-11.847 h 0.106 c 1.075,0 1.947,0.872 1.947,1.947 v 2.603 C 44,25.128 43.128,26 42.053,26 H 41.947 C 40.872,26 40,25.128 40,24.053 V 21.45 c 0,-1.075 0.872,-1.947 1.947,-1.947 z M 33,39 c 0,-1.104 0.896,-2 2,-2 1.104,0 2,0.896 2,2 0,1.104 -0.896,2 -2,2 -1.104,0 -2,-0.896 -2,-2 z"
       inkscape:connector-curvature="0"
       style="fill:url(#_lgradient_7);fill-rule:evenodd" />
  </g>
</svg>
