<?xml version="1.0" encoding="UTF-8" standalone="no"?>
<!-- Generator: Gravit.io -->

<svg
   xmlns:dc="http://purl.org/dc/elements/1.1/"
   xmlns:cc="http://creativecommons.org/ns#"
   xmlns:rdf="http://www.w3.org/1999/02/22-rdf-syntax-ns#"
   xmlns:svg="http://www.w3.org/2000/svg"
   xmlns="http://www.w3.org/2000/svg"
   xmlns:sodipodi="http://sodipodi.sourceforge.net/DTD/sodipodi-0.dtd"
   xmlns:inkscape="http://www.inkscape.org/namespaces/inkscape"
   style="isolation:isolate"
   viewBox="0 0 36 36"
   width="48"
   height="48"
   version="1.1"
   id="svg16"
   sodipodi:docname="disk-burner.svg"
   inkscape:version="0.92.4 (5da689c313, 2019-01-14)">
  <metadata
     id="metadata22">
    <rdf:RDF>
      <cc:Work
         rdf:about="">
        <dc:format>image/svg+xml</dc:format>
        <dc:type
           rdf:resource="http://purl.org/dc/dcmitype/StillImage" />
        <dc:title></dc:title>
      </cc:Work>
    </rdf:RDF>
  </metadata>
  <defs
     id="defs20" />
  <sodipodi:namedview
     pagecolor="#ffffff"
     bordercolor="#666666"
     borderopacity="1"
     objecttolerance="10"
     gridtolerance="10"
     guidetolerance="10"
     inkscape:pageopacity="0"
     inkscape:pageshadow="2"
     inkscape:window-width="640"
     inkscape:window-height="480"
     id="namedview18"
     showgrid="false"
     inkscape:zoom="29.365243"
     inkscape:cx="25.325443"
     inkscape:cy="32"
     inkscape:current-layer="svg16"
     units="px" />
  <linearGradient
     id="_lgradient_14"
     x1="0.62099254"
     y1="0.043614805"
     x2="0.4883253"
     y2="0.96253371"
     gradientTransform="matrix(14.133,0,0,18.5,30.723,27.568)"
     gradientUnits="userSpaceOnUse">
    <stop
       offset="0%"
       stop-opacity="1"
       style="stop-color:rgb(255,224,49)"
       id="stop2" />
    <stop
       offset="100%"
       stop-opacity="1"
       style="stop-color:rgb(250,0,117)"
       id="stop4" />
  </linearGradient>
  <linearGradient
     id="_lgradient_15"
     x1="0.061897106"
     y1="0.14716151"
     x2="0.99042481"
     y2="0.98658085"
     gradientTransform="matrix(47,0,0,47,0.5,0.5)"
     gradientUnits="userSpaceOnUse">
    <stop
       offset="0%"
       stop-opacity="1"
       style="stop-color:rgb(22,181,228)"
       id="stop9" />
    <stop
       offset="98.26086956521739%"
       stop-opacity="1"
       style="stop-color:rgb(245,32,250)"
       id="stop11" />
  </linearGradient>
  <g
     id="g831"
     transform="matrix(0.76595745,0,0,0.76595745,-0.3829788,-0.3829788)">
    <path
       id="path7"
       d="m 39.974,27.569 c -5.782,2.313 -9.251,7.731 -9.251,11.563 0,3.786 3.035,6.858 6.805,6.93 -1.884,-0.037 -3.401,-1.569 -3.401,-3.462 0,-1.915 1.734,-4.625 4.625,-5.781 0,4.047 3.103,4.632 2.312,6.938 -0.448,1.307 -1.542,2.299 -3.439,2.31 0.011,0 0.024,10e-4 0.036,10e-4 3.831,0 6.035,-1.996 6.937,-4.625 1.583,-4.611 -4.625,-5.781 -4.625,-13.875 z"
       inkscape:connector-curvature="0"
       style="fill:url(#_lgradient_14)" />
    <path
       id="path14"
       d="m 26.89,43.29 v 0 c 1.093,-0.166 2.112,0.587 2.275,1.68 v 0 c 0.163,1.093 -0.592,2.11 -1.685,2.27 v 0 C 26.33,47.41 25.16,47.5 24,47.5 17.77,47.5 11.79,45.02 7.38,40.62 2.98,36.21 0.5,30.23 0.5,24 0.5,17.77 2.98,11.79 7.38,7.38 11.79,2.98 17.77,0.5 24,0.5 c 6.23,0 12.21,2.48 16.62,6.88 4.4,4.41 6.88,10.39 6.88,16.62 0,1.7 -0.18,3.4 -0.55,5.07 v 0 c -0.237,1.076 -1.304,1.757 -2.38,1.52 v 0 c -1.076,-0.237 -1.762,-1.304 -1.53,-2.38 v 0 C 43.35,26.83 43.5,25.42 43.5,24 43.5,18.83 41.44,13.87 37.79,10.21 34.13,6.56 29.17,4.5 24,4.5 18.83,4.5 13.87,6.56 10.21,10.21 6.56,13.87 4.5,18.83 4.5,24 c 0,5.17 2.06,10.13 5.71,13.79 3.66,3.65 8.62,5.71 13.79,5.71 0.97,0 1.93,-0.07 2.89,-0.21 z m -7.12,-4.38 v 0 c 0.53,0.155 0.837,0.71 0.685,1.24 v 0 c -0.152,0.53 -0.705,0.839 -1.235,0.69 v 0 C 15.56,39.8 12.33,37.59 10.04,34.55 7.74,31.51 6.5,27.81 6.5,24 c 0,-2.46 0.52,-4.9 1.53,-7.15 v 0 c 0.221,-0.502 0.81,-0.729 1.315,-0.505 v 0 c 0.505,0.224 0.731,0.817 0.505,1.325 v 0 C 8.96,19.66 8.5,21.82 8.5,24 c 0,3.37 1.1,6.65 3.13,9.35 2.03,2.69 4.89,4.64 8.14,5.56 z M 25.69,8.59 v 0 C 25.144,8.529 24.747,8.034 24.805,7.485 v 0 C 24.863,6.936 25.358,6.539 25.91,6.6 v 0 c 4.28,0.47 8.25,2.51 11.12,5.72 2.88,3.21 4.47,7.37 4.47,11.68 0,0.01 0,0.01 0,0.02 l -0.01,0.65 v 0 c -0.011,0.552 -0.468,0.993 -1.02,0.985 v 0 C 39.918,25.647 39.479,25.192 39.49,24.64 v 0 l 0.01,-0.65 c 0,-3.82 -1.41,-7.5 -3.96,-10.34 C 32.99,10.81 29.48,9.01 25.69,8.59 Z M 19.5,24 c 0,-1.19 0.47,-2.34 1.32,-3.18 0.84,-0.85 1.99,-1.32 3.18,-1.32 1.19,0 2.34,0.47 3.18,1.32 0.85,0.84 1.32,1.99 1.32,3.18 v 0 c 0,1.19 -0.47,2.34 -1.32,3.18 -0.84,0.85 -1.99,1.32 -3.18,1.32 v 0 c -1.19,0 -2.34,-0.47 -3.18,-1.32 C 19.97,26.34 19.5,25.19 19.5,24 Z m -4,0 c 0,-2.25 0.9,-4.42 2.49,-6.01 1.59,-1.59 3.76,-2.49 6.01,-2.49 2.25,0 4.42,0.9 6.01,2.49 1.59,1.59 2.49,3.76 2.49,6.01 v 0 c 0,2.25 -0.9,4.42 -2.49,6.01 C 28.42,31.6 26.25,32.5 24,32.5 v 0 c -2.25,0 -4.42,-0.9 -6.01,-2.49 C 16.4,28.42 15.5,26.25 15.5,24 Z"
       inkscape:connector-curvature="0"
       style="fill:url(#_lgradient_15);fill-rule:evenodd" />
  </g>
</svg>
