<?xml version="1.0" encoding="UTF-8" standalone="no"?>
<!-- Generator: Gravit.io -->

<svg
   xmlns:dc="http://purl.org/dc/elements/1.1/"
   xmlns:cc="http://creativecommons.org/ns#"
   xmlns:rdf="http://www.w3.org/1999/02/22-rdf-syntax-ns#"
   xmlns:svg="http://www.w3.org/2000/svg"
   xmlns="http://www.w3.org/2000/svg"
   xmlns:sodipodi="http://sodipodi.sourceforge.net/DTD/sodipodi-0.dtd"
   xmlns:inkscape="http://www.inkscape.org/namespaces/inkscape"
   style="isolation:isolate"
   viewBox="0 0 36 36"
   width="48"
   height="48"
   version="1.1"
   id="svg9"
   sodipodi:docname="distributor-logo-ubuntu-mate.svg"
   inkscape:version="0.92.4 (5da689c313, 2019-01-14)">
  <metadata
     id="metadata15">
    <rdf:RDF>
      <cc:Work
         rdf:about="">
        <dc:format>image/svg+xml</dc:format>
        <dc:type
           rdf:resource="http://purl.org/dc/dcmitype/StillImage" />
        <dc:title></dc:title>
      </cc:Work>
    </rdf:RDF>
  </metadata>
  <defs
     id="defs13" />
  <sodipodi:namedview
     pagecolor="#ffffff"
     bordercolor="#666666"
     borderopacity="1"
     objecttolerance="10"
     gridtolerance="10"
     guidetolerance="10"
     inkscape:pageopacity="0"
     inkscape:pageshadow="2"
     inkscape:window-width="640"
     inkscape:window-height="480"
     id="namedview11"
     showgrid="false"
     inkscape:zoom="29.365243"
     inkscape:cx="25.325443"
     inkscape:cy="32"
     inkscape:current-layer="svg9"
     units="px" />
  <linearGradient
     id="_lgradient_35"
     x1="0.99411762"
     y1="0.48015597"
     x2="0.00018059855"
     y2="0.45213065"
     gradientTransform="matrix(47.058,0,0,46.985,0.495,0.559)"
     gradientUnits="userSpaceOnUse">
    <stop
       offset="0%"
       stop-opacity="1"
       style="stop-color:rgb(17,153,142)"
       id="stop2" />
    <stop
       offset="99.1304347826087%"
       stop-opacity="1"
       style="stop-color:rgb(56,239,125)"
       id="stop4" />
  </linearGradient>
  <g
     id="g826"
     transform="matrix(0.76501411,0,0,0.76501411,-0.37869586,-0.39961803)">
    <path
       id="path7"
       d="m 25.631,43.272 v 0 c -1.174,0.099 -2.049,1.135 -1.953,2.312 v 0 c 0.096,1.176 1.132,2.051 2.312,1.952 v 0 C 31.9,47.044 37.416,44.331 41.419,39.942 45.412,35.553 47.606,29.811 47.552,23.875 47.496,17.64 44.96,11.674 40.514,7.297 36.057,2.93 30.046,0.504 23.811,0.56 17.576,0.616 11.61,3.152 7.233,7.598 2.866,12.054 0.439,18.066 0.496,24.301 v 0 c 0.01,1.18 0.978,2.13 2.158,2.119 v 0 c 1.181,-0.01 2.13,-0.977 2.12,-2.158 v 0 C 4.727,19.161 6.715,14.244 10.287,10.597 13.869,6.96 18.748,4.884 23.85,4.838 c 5.101,-0.046 10.018,1.941 13.665,5.513 3.637,3.582 5.713,8.462 5.759,13.563 0.044,4.855 -1.742,9.556 -5.015,13.147 -3.272,3.591 -7.787,5.803 -12.628,6.211 z M 7.058,33.194 v 0 C 6.499,32.154 5.202,31.763 4.162,32.321 v 0 C 3.122,32.88 2.731,34.177 3.29,35.217 v 0 c 2.382,4.428 6.126,7.988 10.669,10.139 v 0 c 1.067,0.51 2.345,0.057 2.852,-1.01 v 0 c 0.507,-1.067 0.052,-2.347 -1.015,-2.857 v 0 C 12.069,39.726 9.016,36.823 7.058,33.194 Z M 27.342,9.408 35.111,14 27.333,18.592 Z M 24,11.769 c 0.57,0 1.127,0.045 1.675,0.122 v 1.701 C 25.13,13.504 24.571,13.453 24,13.453 c -4.442,0 -8.241,2.723 -9.8,6.597 L 12.759,19.199 C 14.63,14.838 18.964,11.769 24,11.769 Z m 0,4.158 c 0.571,0 1.128,0.068 1.667,0.182 v 1.728 C 25.135,17.696 24.577,17.621 24,17.621 c -2.918,0 -5.354,1.938 -6.12,4.6 L 16.387,21.335 C 17.492,18.193 20.492,15.927 24,15.927 Z m 9.809,0.773 c 1.521,2.039 2.422,4.568 2.422,7.3 0,2.774 -0.935,5.34 -2.5,7.396 l -1.45,-0.86 C 33.7,28.741 34.547,26.474 34.547,24 c 0,-2.428 -0.817,-4.662 -2.188,-6.441 z m -3.62,2.144 c 1.172,1.402 1.884,3.198 1.884,5.156 0,2.002 -0.742,3.845 -1.962,5.26 l -1.484,-0.877 c 1.085,-1.14 1.753,-2.675 1.753,-4.384 0,-1.66 -0.628,-3.164 -1.658,-4.297 z M 9.842,19.408 17.611,24 9.833,28.592 Z m 8.038,6.371 c 0.767,2.66 3.203,4.592 6.12,4.592 0.577,0 1.135,-0.077 1.667,-0.217 v 1.736 c -0.538,0.114 -1.095,0.182 -1.666,0.182 -3.511,0 -6.511,-2.27 -7.613,-5.416 z m -3.68,2.17 c 1.558,3.875 5.358,6.597 9.8,6.597 0.566,0 1.118,-0.044 1.658,-0.13 v 1.693 c -0.541,0.075 -1.094,0.121 -1.657,0.121 -5.036,0 -9.37,-3.069 -11.241,-7.431 z m 13.134,1.606 7.769,4.583 -7.778,4.592 z"
       style="fill:url(#_lgradient_35);fill-rule:evenodd"
       inkscape:connector-curvature="0" />
  </g>
</svg>
