<?xml version="1.0" encoding="UTF-8" standalone="no"?>
<!-- Generator: Gravit.io -->

<svg
   xmlns:dc="http://purl.org/dc/elements/1.1/"
   xmlns:cc="http://creativecommons.org/ns#"
   xmlns:rdf="http://www.w3.org/1999/02/22-rdf-syntax-ns#"
   xmlns:svg="http://www.w3.org/2000/svg"
   xmlns="http://www.w3.org/2000/svg"
   xmlns:sodipodi="http://sodipodi.sourceforge.net/DTD/sodipodi-0.dtd"
   xmlns:inkscape="http://www.inkscape.org/namespaces/inkscape"
   style="isolation:isolate"
   viewBox="0 0 36 36"
   width="48"
   height="48"
   version="1.1"
   id="svg9"
   sodipodi:docname="distributor-logo-ubuntu-budgie.svg"
   inkscape:version="0.92.4 (5da689c313, 2019-01-14)">
  <metadata
     id="metadata15">
    <rdf:RDF>
      <cc:Work
         rdf:about="">
        <dc:format>image/svg+xml</dc:format>
        <dc:type
           rdf:resource="http://purl.org/dc/dcmitype/StillImage" />
        <dc:title></dc:title>
      </cc:Work>
    </rdf:RDF>
  </metadata>
  <defs
     id="defs13" />
  <sodipodi:namedview
     pagecolor="#ffffff"
     bordercolor="#666666"
     borderopacity="1"
     objecttolerance="10"
     gridtolerance="10"
     guidetolerance="10"
     inkscape:pageopacity="0"
     inkscape:pageshadow="2"
     inkscape:window-width="640"
     inkscape:window-height="480"
     id="namedview11"
     showgrid="false"
     inkscape:zoom="29.365243"
     inkscape:cx="25.325443"
     inkscape:cy="32"
     inkscape:current-layer="svg9"
     units="px" />
  <linearGradient
     id="_lgradient_34"
     x1="0.22078557"
     y1="0.047239967"
     x2="0.9022491"
     y2="0.90614605"
     gradientTransform="matrix(47.058,0,0,46.985,0.495,0.559)"
     gradientUnits="userSpaceOnUse">
    <stop
       offset="2.608695652173913%"
       stop-opacity="1"
       style="stop-color:rgb(237,184,212)"
       id="stop2" />
    <stop
       offset="98.69565217391305%"
       stop-opacity="1"
       style="stop-color:rgb(162,110,245)"
       id="stop4" />
  </linearGradient>
  <g
     id="g826"
     transform="matrix(0.76501466,0,0,0.76501466,-0.37870239,-0.39981223)">
    <path
       id="path7"
       d="m 22.417,4.831 v 0 C 23.591,4.732 24.466,3.696 24.37,2.519 v 0 C 24.273,1.342 23.237,0.467 22.058,0.567 v 0 C 16.148,1.059 10.632,3.772 6.629,8.161 2.636,12.55 0.442,18.292 0.496,24.227 c 0.056,6.235 2.592,12.202 7.038,16.579 4.456,4.366 10.468,6.793 16.703,6.737 6.235,-0.057 12.201,-2.592 16.578,-7.038 4.366,-4.457 6.793,-10.468 6.737,-16.703 v 0 c -0.011,-1.181 -0.978,-2.13 -2.158,-2.12 v 0 c -1.181,0.011 -2.131,0.978 -2.12,2.159 v 0 c 0.046,5.101 -1.941,10.017 -5.513,13.665 -3.582,3.636 -8.462,5.713 -13.563,5.759 C 19.097,43.311 14.18,41.323 10.533,37.752 6.896,34.17 4.82,29.29 4.774,24.189 4.73,19.333 6.516,14.633 9.789,11.041 13.061,7.45 17.576,5.238 22.417,4.831 Z M 40.99,14.909 v 0 c 0.558,1.04 1.856,1.431 2.896,0.872 v 0 c 1.039,-0.558 1.43,-1.856 0.872,-2.895 v 0 C 42.376,8.458 38.632,4.898 34.088,2.747 v 0 C 33.021,2.237 31.743,2.689 31.237,3.756 v 0 c -0.507,1.068 -0.052,2.348 1.015,2.858 v 0 c 3.727,1.763 6.78,4.666 8.738,8.295 z M 28.172,8.001 c -0.378,0.005 -0.769,0.04 -1.236,0.133 -0.85,0.168 -1.737,0.683 -2.486,1.204 -2.542,1.771 -3.214,5.232 -1.505,7.731 1.43,2.092 4.102,2.824 6.433,2.024 0.492,-0.169 0.689,-0.187 1.07,-0.219 0.492,-0.041 1.284,0.02 1.994,0.37 0.577,0.284 1.071,0.533 1.391,1.194 0.083,0.172 0.23,0.478 0.262,0.865 0.05,0.615 -0.073,0.915 -0.481,1.697 0.648,-0.523 0.959,-0.609 1.921,-1.779 C 37.45,18.892 37.55,15.001 35.464,11.95 33.918,9.688 31.55,8.243 29.319,8.056 28.911,8.022 28.549,7.996 28.172,8.001 Z m -13.503,7 c -2.63,0.058 -5.374,1.816 -6.741,4.698 -1.158,2.441 -1.214,5.185 -0.266,7.195 0.347,0.735 0.629,1.298 1.25,2.01 0.566,0.648 1.443,1.158 2.258,1.545 2.769,1.315 6.047,0.192 7.327,-2.504 0,0 0,-0.002 0,-0.002 1.069,-2.256 0.368,-4.914 -1.469,-6.524 -0.388,-0.339 -0.5,-0.5 -0.717,-0.812 -0.279,-0.403 -0.621,-1.113 -0.676,-1.895 -0.044,-0.636 -0.079,-1.183 0.325,-1.783 0.105,-0.156 0.294,-0.432 0.607,-0.648 0.499,-0.346 0.814,-0.389 1.682,-0.422 -0.766,-0.301 -0.992,-0.526 -2.465,-0.778 -0.367,-0.062 -0.74,-0.088 -1.115,-0.08 z m 16.082,12 c -0.18,-0.004 -0.362,0.003 -0.545,0.017 v -0.002 c -2.457,0.197 -4.38,2.087 -4.85,4.426 -0.099,0.493 -0.181,0.667 -0.341,1.002 -0.206,0.432 -0.646,1.069 -1.287,1.496 -0.522,0.348 -0.973,0.643 -1.685,0.595 -0.185,-0.013 -0.514,-0.038 -0.854,-0.196 -0.541,-0.254 -0.732,-0.498 -1.189,-1.214 0.122,0.794 0.04,1.092 0.551,2.46 1.018,2.723 4.237,4.674 7.822,4.387 2.657,-0.212 5.031,-1.503 6.281,-3.286 0.457,-0.651 0.798,-1.164 1.1,-2.037 0.275,-0.794 0.278,-1.784 0.207,-2.662 -0.227,-2.795 -2.506,-4.924 -5.21,-4.986 z"
       style="fill:url(#_lgradient_34);fill-rule:evenodd"
       inkscape:connector-curvature="0" />
  </g>
</svg>
