<?xml version="1.0" encoding="UTF-8" standalone="no"?>
<!-- Generator: Gravit.io -->

<svg
   xmlns:dc="http://purl.org/dc/elements/1.1/"
   xmlns:cc="http://creativecommons.org/ns#"
   xmlns:rdf="http://www.w3.org/1999/02/22-rdf-syntax-ns#"
   xmlns:svg="http://www.w3.org/2000/svg"
   xmlns="http://www.w3.org/2000/svg"
   xmlns:sodipodi="http://sodipodi.sourceforge.net/DTD/sodipodi-0.dtd"
   xmlns:inkscape="http://www.inkscape.org/namespaces/inkscape"
   style="isolation:isolate"
   viewBox="0 0 36 36"
   width="48"
   height="48"
   version="1.1"
   id="svg14"
   sodipodi:docname="distributor-logo-elementary.svg"
   inkscape:version="0.92.4 (5da689c313, 2019-01-14)">
  <metadata
     id="metadata20">
    <rdf:RDF>
      <cc:Work
         rdf:about="">
        <dc:format>image/svg+xml</dc:format>
        <dc:type
           rdf:resource="http://purl.org/dc/dcmitype/StillImage" />
        <dc:title></dc:title>
      </cc:Work>
    </rdf:RDF>
  </metadata>
  <defs
     id="defs18" />
  <sodipodi:namedview
     pagecolor="#ffffff"
     bordercolor="#666666"
     borderopacity="1"
     objecttolerance="10"
     gridtolerance="10"
     guidetolerance="10"
     inkscape:pageopacity="0"
     inkscape:pageshadow="2"
     inkscape:window-width="640"
     inkscape:window-height="480"
     id="namedview16"
     showgrid="false"
     inkscape:zoom="29.365243"
     inkscape:cx="25.325443"
     inkscape:cy="32"
     inkscape:current-layer="svg14"
     units="px" />
  <linearGradient
     id="_lgradient_24"
     x1="0"
     y1="0.5"
     x2="1"
     y2="0.5"
     gradientTransform="matrix(45,0,0,45,1.5,1.5)"
     gradientUnits="userSpaceOnUse">
    <stop
       offset="0%"
       stop-opacity="1"
       style="stop-color:rgb(117,127,154)"
       id="stop2" />
    <stop
       offset="98.69565217391305%"
       stop-opacity="1"
       style="stop-color:rgb(215,221,232)"
       id="stop4" />
  </linearGradient>
  <linearGradient
     id="_lgradient_25"
     x1="0.5"
     y1="24"
     x2="47.5"
     y2="24"
     gradientUnits="userSpaceOnUse">
    <stop
       offset="0%"
       stop-opacity="1"
       style="stop-color:rgb(117,127,154)"
       id="stop7" />
    <stop
       offset="98.69565217391305%"
       stop-opacity="1"
       style="stop-color:rgb(215,221,232)"
       id="stop9" />
  </linearGradient>
  <g
     id="g828"
     transform="matrix(0.76595745,0,0,0.76595745,-0.3829788,-0.3829788)">
    <path
       id="path12"
       stroke-miterlimit="4"
       d="M 24,1.5 C 11.573,1.5 1.5,11.573 1.5,24 1.5,36.427 11.573,46.5 24,46.5 36.427,46.5 46.5,36.427 46.5,24 46.5,11.573 36.427,1.5 24,1.5 Z m 0,1.875 c 9.448,0 17.412,6.353 19.854,15.019 -2.104,4.339 -5.097,8.245 -8.742,11.402 -1.751,1.517 -3.663,2.869 -5.775,3.82 -2.112,0.952 -4.435,1.492 -6.748,1.36 -1.738,-0.1 -3.454,-0.584 -4.976,-1.428 4.033,-2.185 7.672,-5.098 10.65,-8.587 1.955,-2.29 3.666,-4.892 4.324,-7.831 0.33,-1.469 0.386,-3.007 0.078,-4.481 C 32.357,11.176 31.676,9.771 30.645,8.674 29.637,7.603 28.315,6.844 26.897,6.452 25.479,6.061 23.97,6.031 22.523,6.295 c -2.893,0.529 -5.477,2.211 -7.549,4.299 -3.652,3.68 -5.91,8.873 -5.496,14.041 0.207,2.584 1.073,5.124 2.557,7.249 0.331,0.475 0.696,0.927 1.085,1.355 -2.161,0.757 -4.4,1.295 -6.67,1.598 C 4.501,31.688 3.375,27.976 3.375,24 3.375,12.609 12.609,3.375 24,3.375 Z m 0.131,4.167 c 1.45,0.002 2.91,0.441 4.067,1.315 1.042,0.787 1.814,1.908 2.252,3.138 0.438,1.231 0.55,2.567 0.401,3.865 -0.299,2.596 -1.608,4.975 -3.19,7.055 -2.801,3.681 -6.524,6.628 -10.664,8.69 -0.424,0.212 -0.854,0.412 -1.287,0.605 -0.901,-0.788 -1.673,-1.723 -2.262,-2.765 -1.229,-2.178 -1.635,-4.765 -1.396,-7.254 0.238,-2.49 1.092,-4.889 2.24,-7.111 1.331,-2.577 3.145,-5.017 5.684,-6.417 1.269,-0.701 2.705,-1.123 4.155,-1.121 z M 44.44,21.239 c 0.121,0.903 0.185,1.825 0.185,2.761 0,11.391 -9.234,20.625 -20.625,20.625 -6.397,0 -12.114,-2.912 -15.898,-7.484 2.335,-0.53 4.618,-1.292 6.807,-2.261 0.957,0.729 2.014,1.327 3.138,1.758 3.236,1.24 6.911,1.061 10.186,-0.073 3.275,-1.134 6.179,-3.169 8.712,-5.536 3.016,-2.82 5.559,-6.143 7.495,-9.79 z"
       inkscape:connector-curvature="0"
       style="vector-effect:non-scaling-stroke;fill:url(#_lgradient_24);stroke:url(#_lgradient_25);stroke-width:2;stroke-linecap:butt;stroke-linejoin:miter;stroke-miterlimit:4" />
  </g>
</svg>
