<?xml version="1.0" encoding="UTF-8" standalone="no"?>
<!-- Generator: Gravit.io -->

<svg
   xmlns:dc="http://purl.org/dc/elements/1.1/"
   xmlns:cc="http://creativecommons.org/ns#"
   xmlns:rdf="http://www.w3.org/1999/02/22-rdf-syntax-ns#"
   xmlns:svg="http://www.w3.org/2000/svg"
   xmlns="http://www.w3.org/2000/svg"
   xmlns:sodipodi="http://sodipodi.sourceforge.net/DTD/sodipodi-0.dtd"
   xmlns:inkscape="http://www.inkscape.org/namespaces/inkscape"
   style="isolation:isolate"
   viewBox="0 0 36 36"
   width="48"
   height="48"
   version="1.1"
   id="svg16"
   sodipodi:docname="distributor-logo-ubuntu-studio.svg"
   inkscape:version="0.92.4 (5da689c313, 2019-01-14)">
  <metadata
     id="metadata22">
    <rdf:RDF>
      <cc:Work
         rdf:about="">
        <dc:format>image/svg+xml</dc:format>
        <dc:type
           rdf:resource="http://purl.org/dc/dcmitype/StillImage" />
        <dc:title></dc:title>
      </cc:Work>
    </rdf:RDF>
  </metadata>
  <defs
     id="defs20" />
  <sodipodi:namedview
     pagecolor="#ffffff"
     bordercolor="#666666"
     borderopacity="1"
     objecttolerance="10"
     gridtolerance="10"
     guidetolerance="10"
     inkscape:pageopacity="0"
     inkscape:pageshadow="2"
     inkscape:window-width="640"
     inkscape:window-height="480"
     id="namedview18"
     showgrid="false"
     inkscape:zoom="29.365243"
     inkscape:cx="25.325443"
     inkscape:cy="32"
     inkscape:current-layer="svg16"
     units="px" />
  <linearGradient
     id="_lgradient_36"
     x1="16.492592"
     y1="22.429102"
     x2="37.985546"
     y2="22.429102"
     gradientTransform="scale(0.93454581,1.0700385)"
     gradientUnits="userSpaceOnUse">
    <stop
       offset="0%"
       stop-opacity="1"
       style="stop-color:rgb(0,198,255)"
       id="stop2" />
    <stop
       offset="98.69565217391305%"
       stop-opacity="1"
       style="stop-color:rgb(0,114,255)"
       id="stop4" />
  </linearGradient>
  <linearGradient
     id="_lgradient_37"
     x1="-3.8208334e-05"
     y1="0.50000006"
     x2="0.99996185"
     y2="0.50000006"
     gradientTransform="matrix(47.058,0,0,46.985,0.495,0.559)"
     gradientUnits="userSpaceOnUse">
    <stop
       offset="0%"
       stop-opacity="1"
       style="stop-color:rgb(0,198,255)"
       id="stop9" />
    <stop
       offset="98.69565217391305%"
       stop-opacity="1"
       style="stop-color:rgb(0,114,255)"
       id="stop11" />
  </linearGradient>
  <g
     id="g831"
     transform="matrix(0.76501466,0,0,0.76501466,-0.37870239,-0.39963126)">
    <path
       id="path7"
       stroke-miterlimit="4"
       d="m 16.929,16.929 c 2.86,-2.86 7.161,-3.716 10.898,-2.168 C 31.564,16.309 34,19.955 34,24 c 0,4.045 -2.436,7.691 -6.173,9.239 -3.737,1.548 -8.038,0.692 -10.898,-2.168"
       style="vector-effect:non-scaling-stroke;fill:none;stroke:url(#_lgradient_36);stroke-width:3;stroke-linecap:round;stroke-linejoin:miter;stroke-miterlimit:4"
       inkscape:connector-curvature="0" />
    <path
       id="path14"
       d="m 22.417,43.272 v 0 c 1.174,0.099 2.049,1.135 1.953,2.312 v 0 c -0.097,1.176 -1.133,2.051 -2.312,1.952 v 0 C 16.148,47.044 10.632,44.331 6.629,39.942 2.636,35.553 0.442,29.811 0.496,23.875 0.552,17.64 3.088,11.674 7.534,7.297 11.99,2.93 18.002,0.504 24.237,0.56 c 6.235,0.056 12.201,2.592 16.578,7.038 4.366,4.456 6.793,10.468 6.737,16.703 v 0 c -0.011,1.18 -0.978,2.13 -2.158,2.119 v 0 c -1.181,-0.01 -2.131,-0.977 -2.12,-2.158 v 0 C 43.32,19.161 41.333,14.244 37.761,10.597 34.179,6.96 29.299,4.884 24.198,4.838 19.097,4.792 14.18,6.779 10.533,10.351 6.896,13.933 4.82,18.813 4.774,23.914 4.73,28.769 6.516,33.47 9.789,37.061 c 3.272,3.591 7.787,5.803 12.628,6.211 z M 40.99,33.194 v 0 c 0.558,-1.04 1.856,-1.431 2.896,-0.873 v 0 c 1.039,0.559 1.43,1.856 0.872,2.896 v 0 c -2.382,4.428 -6.126,7.988 -10.67,10.139 v 0 c -1.067,0.51 -2.345,0.057 -2.851,-1.01 v 0 c -0.507,-1.067 -0.052,-2.347 1.015,-2.857 v 0 c 3.727,-1.763 6.78,-4.666 8.738,-8.295 z M 21,24 c 0,-0.8 0.32,-1.56 0.88,-2.12 C 22.44,21.32 23.2,21 24,21 c 0.8,0 1.56,0.32 2.12,0.88 C 26.68,22.44 27,23.2 27,24 27,24.8 26.68,25.56 26.12,26.12 25.56,26.68 24.8,27 24,27 23.2,27 22.44,26.68 21.88,26.12 21.32,25.56 21,24.8 21,24 Z m -5.24,2.1 c 0.1,0.39 0.04,0.8 -0.16,1.14 -0.2,0.34 -0.53,0.59 -0.92,0.69 -0.38,0.1 -0.79,0.04 -1.13,-0.16 C 13.2,27.56 12.96,27.23 12.86,26.85 12.62,25.92 12.5,24.96 12.5,24 c 0,-0.96 0.12,-1.92 0.36,-2.85 0.1,-0.38 0.34,-0.71 0.69,-0.92 0.34,-0.2 0.75,-0.26 1.13,-0.16 0.39,0.1 0.72,0.35 0.92,0.69 0.2,0.34 0.26,0.75 0.16,1.14 -0.17,0.68 -0.26,1.39 -0.26,2.1 0,0.71 0.09,1.42 0.26,2.1 z m -5.16,1.95 c 0.11,0.38 0.07,0.79 -0.12,1.14 C 10.3,29.54 9.98,29.8 9.59,29.92 9.21,30.03 8.8,29.99 8.45,29.8 8.1,29.61 7.84,29.29 7.73,28.91 7.24,27.32 7,25.66 7,24 7,22.34 7.24,20.68 7.73,19.09 7.84,18.71 8.1,18.39 8.45,18.2 8.8,18.01 9.21,17.97 9.6,18.08 c 0.38,0.12 0.7,0.38 0.88,0.73 0.19,0.35 0.23,0.76 0.12,1.14 -0.4,1.32 -0.6,2.68 -0.6,4.05 0,1.37 0.2,2.73 0.6,4.05 z M 27.18,10.37 C 26.79,10.28 26.46,10.03 26.25,9.7 26.04,9.36 25.97,8.95 26.06,8.56 c 0.09,-0.38 0.33,-0.72 0.67,-0.93 0.34,-0.21 0.74,-0.28 1.13,-0.19 3.37,0.79 6.41,2.58 8.73,5.14 0.27,0.3 0.41,0.69 0.39,1.08 -0.02,0.4 -0.19,0.77 -0.49,1.04 -0.29,0.27 -0.68,0.41 -1.08,0.39 -0.4,-0.02 -0.77,-0.2 -1.04,-0.49 -1.91,-2.11 -4.42,-3.59 -7.19,-4.23 z M 18,24 c 0,-1.59 0.63,-3.12 1.76,-4.24 C 20.88,18.63 22.41,18 24,18 c 1.59,0 3.12,0.63 4.24,1.76 1.13,1.12 1.76,2.65 1.76,4.24 0,1.59 -0.63,3.12 -1.76,4.24 C 27.12,29.37 25.59,30 24,30 22.41,30 20.88,29.37 19.76,28.24 18.63,27.12 18,25.59 18,24 Z m 16.38,9.39 c 0.27,-0.29 0.64,-0.47 1.04,-0.49 0.4,-0.02 0.79,0.12 1.08,0.39 0.3,0.26 0.47,0.64 0.49,1.03 0.02,0.4 -0.12,0.79 -0.38,1.09 -2.32,2.56 -5.37,4.36 -8.74,5.14 -0.39,0.1 -0.8,0.03 -1.14,-0.18 -0.33,-0.21 -0.57,-0.55 -0.66,-0.93 -0.1,-0.39 -0.03,-0.8 0.18,-1.14 0.21,-0.34 0.55,-0.58 0.93,-0.67 2.78,-0.64 5.29,-2.12 7.2,-4.24 z"
       style="fill:url(#_lgradient_37);fill-rule:evenodd"
       inkscape:connector-curvature="0" />
  </g>
</svg>
