<?xml version="1.0" encoding="UTF-8" standalone="no"?>
<!-- Generator: Gravit.io -->

<svg
   xmlns:dc="http://purl.org/dc/elements/1.1/"
   xmlns:cc="http://creativecommons.org/ns#"
   xmlns:rdf="http://www.w3.org/1999/02/22-rdf-syntax-ns#"
   xmlns:svg="http://www.w3.org/2000/svg"
   xmlns="http://www.w3.org/2000/svg"
   xmlns:sodipodi="http://sodipodi.sourceforge.net/DTD/sodipodi-0.dtd"
   xmlns:inkscape="http://www.inkscape.org/namespaces/inkscape"
   style="isolation:isolate"
   viewBox="0 0 36 36"
   width="48"
   height="48"
   version="1.1"
   id="svg13"
   sodipodi:docname="distributor-logo-linux-mint.svg"
   inkscape:version="0.92.4 (5da689c313, 2019-01-14)">
  <metadata
     id="metadata19">
    <rdf:RDF>
      <cc:Work
         rdf:about="">
        <dc:format>image/svg+xml</dc:format>
        <dc:type
           rdf:resource="http://purl.org/dc/dcmitype/StillImage" />
        <dc:title></dc:title>
      </cc:Work>
    </rdf:RDF>
  </metadata>
  <defs
     id="defs17" />
  <sodipodi:namedview
     pagecolor="#ffffff"
     bordercolor="#666666"
     borderopacity="1"
     objecttolerance="10"
     gridtolerance="10"
     guidetolerance="10"
     inkscape:pageopacity="0"
     inkscape:pageshadow="2"
     inkscape:window-width="640"
     inkscape:window-height="480"
     id="namedview15"
     showgrid="false"
     inkscape:zoom="29.365243"
     inkscape:cx="25.325443"
     inkscape:cy="32"
     inkscape:current-layer="svg13"
     units="px" />
  <linearGradient
     id="_lgradient_29"
     x1="1.5627142"
     y1="0.54316336"
     x2="-0.052491475"
     y2="0.53895819"
     gradientTransform="matrix(45,0,0,39.194,1.5,4.403)"
     gradientUnits="userSpaceOnUse">
    <stop
       offset="34.94098066785295%"
       stop-opacity="1"
       style="stop-color:rgb(178,229,107)"
       id="stop2" />
    <stop
       offset="53.84922244785295%"
       stop-opacity="1"
       style="stop-color:rgb(194,233,100)"
       id="stop4" />
    <stop
       offset="90.40515655585295%"
       stop-opacity="1"
       style="stop-color:rgb(236,244,81)"
       id="stop6" />
    <stop
       offset="100%"
       stop-opacity="1"
       style="stop-color:rgb(250,247,75)"
       id="stop8" />
  </linearGradient>
  <g
     id="g827"
     transform="matrix(0.8,0,0,0.8,-1.2,-1.2)">
    <path
       id="path11"
       d="m 14.565,10.21 v 20.322 c 0,3.194 2.589,5.807 5.806,5.807 h 13.064 c 3.217,0 5.807,-2.613 5.807,-5.807 V 19.645 c 0,-2.758 -2.275,-5.08 -5.081,-5.08 -1.425,0 -2.706,0.58 -3.629,1.596 -0.923,-1.016 -2.203,-1.596 -3.629,-1.596 -2.806,0 -5.08,2.322 -5.08,5.08 v 8.71 h 2.903 v -8.71 c 0,-1.161 0.975,-2.177 2.177,-2.177 1.202,0 2.178,1.016 2.178,2.177 v 8.71 h 2.903 v -8.71 c 0,-1.161 0.975,-2.177 2.177,-2.177 1.202,0 2.178,1.016 2.178,2.177 v 10.887 c 0,1.597 -1.295,2.903 -2.904,2.903 H 20.371 c -1.608,0 -2.903,-1.306 -2.903,-2.903 V 10.21 Z M 4.403,7.306 H 32.12 c 6.402,0 11.477,5.075 11.477,11.477 V 40.694 H 21.686 C 15.285,40.694 10.21,35.619 10.21,29.217 V 16.016 C 10.211,14.496 8.826,13.111 7.306,13.113 H 4.403 Z M 1.5,4.403 v 11.613 h 5.806 v 13.201 c 0,7.961 6.419,14.38 14.38,14.38 H 46.5 V 18.783 c 0,-7.961 -6.419,-14.38 -14.38,-14.38 z"
       inkscape:connector-curvature="0"
       style="fill:url(#_lgradient_29);fill-rule:evenodd" />
  </g>
</svg>
