<?xml version="1.0" encoding="UTF-8" standalone="no"?>
<!-- Generator: Gravit.io -->

<svg
   xmlns:dc="http://purl.org/dc/elements/1.1/"
   xmlns:cc="http://creativecommons.org/ns#"
   xmlns:rdf="http://www.w3.org/1999/02/22-rdf-syntax-ns#"
   xmlns:svg="http://www.w3.org/2000/svg"
   xmlns="http://www.w3.org/2000/svg"
   xmlns:sodipodi="http://sodipodi.sourceforge.net/DTD/sodipodi-0.dtd"
   xmlns:inkscape="http://www.inkscape.org/namespaces/inkscape"
   style="isolation:isolate"
   viewBox="0 0 36 36"
   width="48"
   height="48"
   version="1.1"
   id="svg9"
   sodipodi:docname="distributor-logo-kali-linux.svg"
   inkscape:version="0.92.4 (5da689c313, 2019-01-14)">
  <metadata
     id="metadata15">
    <rdf:RDF>
      <cc:Work
         rdf:about="">
        <dc:format>image/svg+xml</dc:format>
        <dc:type
           rdf:resource="http://purl.org/dc/dcmitype/StillImage" />
        <dc:title></dc:title>
      </cc:Work>
    </rdf:RDF>
  </metadata>
  <defs
     id="defs13" />
  <sodipodi:namedview
     pagecolor="#ffffff"
     bordercolor="#666666"
     borderopacity="1"
     objecttolerance="10"
     gridtolerance="10"
     guidetolerance="10"
     inkscape:pageopacity="0"
     inkscape:pageshadow="2"
     inkscape:window-width="640"
     inkscape:window-height="480"
     id="namedview11"
     showgrid="false"
     inkscape:zoom="29.365243"
     inkscape:cx="25.325443"
     inkscape:cy="32"
     inkscape:current-layer="svg9"
     units="px" />
  <linearGradient
     id="_lgradient_28"
     x1="0"
     y1="0.5"
     x2="1"
     y2="0.5"
     gradientTransform="matrix(43.93,0,0,43,2,2.5)"
     gradientUnits="userSpaceOnUse">
    <stop
       offset="0%"
       stop-opacity="1"
       style="stop-color:rgb(88,0,226)"
       id="stop2" />
    <stop
       offset="100%"
       stop-opacity="1"
       style="stop-color:rgb(255,0,230)"
       id="stop4" />
  </linearGradient>
  <g
     id="g826"
     transform="matrix(0.81948555,0,0,0.81948555,-1.6389712,-1.6676532)">
    <path
       id="path7"
       d="m 42.489,23.362 c 0.007,0.213 0.011,0.425 0.011,0.638 0,1.21 -0.12,2.41 -0.12,2.41 -0.127,0.651 0.431,1.31 1.245,1.47 v 0 c 0.814,0.16 1.596,-0.328 1.745,-1.09 0,0 0.13,-1.39 0.13,-2.79 C 45.5,18.3 43.23,12.83 39.2,8.8 35.17,4.77 29.7,2.5 24,2.5 c -2.47,0 -4.92,0.42 -4.92,0.42 -1.286,0.458 -2.104,1.464 -1.825,2.245 v 0 0 c 0.279,0.781 1.401,1.092 2.505,0.695 0,0 2.11,-0.36 4.24,-0.36 4.9,0 9.61,1.95 13.08,5.42 3.288,3.288 5.211,7.689 5.407,12.31 -0.813,-0.217 -1.596,-0.54 -2.132,-1.209 -0.091,-0.112 0.292,-0.01 0.213,-0.185 -0.055,-0.149 -0.107,-0.236 -0.183,-0.365 -0.319,-0.472 -0.646,-0.941 -0.932,-1.434 -0.333,-0.006 -0.666,-0.01 -0.998,-0.016 -0.418,-0.492 -0.88,-0.941 -1.307,-1.425 0.036,0.266 0.084,0.531 0.084,0.8 -0.285,-0.163 -0.567,-0.334 -0.822,-0.542 -0.278,-0.252 -0.535,-0.527 -0.808,-0.784 0.035,0.195 0.073,0.389 0.105,0.584 -0.562,-0.225 -1.089,-0.564 -1.484,-1.027 -0.006,0.115 -0.011,0.229 -0.016,0.344 -0.351,-0.135 -0.694,-0.286 -1.045,-0.422 -0.883,-0.332 -1.758,-0.714 -2.691,-0.883 -1.028,-0.052 -2.114,0.087 -3.086,-0.332 -0.671,-0.261 -1.22,-0.788 -1.541,-1.43 C 25.258,13.81 25.338,12.51 25.508,11.322 24.761,10.827 23.952,10.434 23.121,10.102 22.733,9.963 22.37,9.76 21.965,9.672 20.502,9.189 19.004,8.817 17.49,8.537 16.832,8.392 16.159,8.324 15.502,8.178 14.873,8.057 14.236,7.992 13.6,7.916 10.578,7.568 7.533,7.436 4.492,7.463 4.077,7.466 3.66,7.458 3.244,7.461 v 0 C 2.828,7.464 2.413,7.479 2,7.531 c 4.577,0.083 9.166,0.458 13.648,1.422 0.866,0.113 1.703,0.371 2.547,0.586 0.409,0.096 0.791,0.278 1.198,0.383 0.678,0.172 1.34,0.399 2.011,0.598 0.411,0.178 0.855,0.259 1.262,0.445 0.609,0.259 1.203,0.549 1.795,0.846 0.076,0.051 0.197,0.076 0.219,0.181 0.153,0.644 0.235,1.304 0.422,1.94 0.351,1.19 0.798,2.362 1.431,3.433 -0.674,0.321 -1.256,0.806 -1.765,1.346 -0.726,0.799 -1.29,1.763 -1.532,2.82 -0.294,1.082 -0.233,2.13 0.022,3.213 0.277,0.969 0.771,1.676 1.443,2.428 1.348,1.535 3.446,2.423 5.49,2.187 2.464,-0.198 5.031,0.198 7.196,1.436 1.136,0.657 2.21,1.465 3.021,2.508 1.103,1.253 1.932,2.825 2.565,4.365 0.092,0.232 0.176,0.47 0.304,0.686 0,-0.289 -0.106,-0.559 -0.203,-0.825 -0.295,-0.786 -0.628,-1.66 -1.045,-2.39 -0.491,-0.877 -1.031,-1.734 -1.711,-2.479 -0.992,-1.195 -2.203,-2.216 -3.588,-2.928 1.056,0.136 2.084,0.443 3.086,0.793 1.073,0.384 2.104,0.892 3.03,1.559 0.914,0.741 1.719,1.627 2.312,2.648 0.308,0.494 0.503,1.147 0.772,1.661 -0.237,-1.191 -0.833,-2.386 -1.58,-3.332 -0.442,-0.574 -1.004,-1.033 -1.555,-1.495 -1.272,-1.003 -2.751,-1.713 -4.281,-2.226 -2.809,-0.922 -5.781,-1.275 -8.729,-1.274 -0.712,0.004 -1.431,-0.089 -2.101,-0.339 -1.548,-0.556 -2.767,-1.723 -3.147,-3.323 -0.49,-1.737 0.054,-3.61 1.332,-4.877 1.038,-1.06 2.551,-1.664 4.037,-1.519 1.536,0.11 2.996,0.647 4.43,1.172 1.173,0.458 2.353,0.911 3.486,1.465 0.03,0.327 0.056,0.662 0.176,0.972 0.161,0.317 0.507,0.469 0.815,0.612 0.585,0.262 1.14,0.496 1.638,0.902 0.369,0.298 0.675,0.661 1.026,0.978 0.117,-0.187 0.136,-0.233 0.169,-0.298 0.019,-0.02 0.006,0.001 0.032,-0.028 0.217,-0.228 0.522,-0.306 0.811,-0.421 z M 38.29,37.99 v 0 c 0.591,0.58 0.443,1.691 -0.329,2.48 C 35.32,43.17 29.78,45.5 24,45.5 18.3,45.5 12.83,43.23 8.8,39.2 4.77,35.17 2.5,29.7 2.5,24 c 0,-1.78 0.22,-3.55 0.22,-3.55 0.237,-0.949 1.082,-1.556 1.885,-1.355 v 0 c 0.803,0.201 1.289,1.033 1.085,1.855 0,0 -0.19,1.52 -0.19,3.05 0,4.9 1.95,9.61 5.42,13.08 3.47,3.47 8.18,5.42 13.08,5.42 4.97,0 9.74,-2.01 11.82,-4.132 0.773,-0.788 1.879,-0.958 2.47,-0.378 z M 24.451,12.223 c -5.543,-0.047 -11.105,0.208 -16.584,1.093 -1.435,0.241 -2.879,0.461 -4.283,0.85 4.694,-0.66 9.423,-1.106 14.164,-1.211 2.309,-0.015 4.623,0.059 6.922,0.289 -0.077,-0.339 -0.156,-0.679 -0.219,-1.021 z m 0.362,1.502 c -3.119,0.293 -6.18,1.034 -9.149,2.017 -2.052,0.704 -4.067,1.527 -6.008,2.498 -0.689,0.347 -1.385,0.682 -2.039,1.094 0.738,-0.316 1.457,-0.675 2.203,-0.971 4.855,-1.996 9.999,-3.395 15.258,-3.664 -0.101,-0.321 -0.196,-0.645 -0.265,-0.974 z m 6.183,1.025 c 0.551,0.248 1.131,0.422 1.678,0.68 1.67,0.73 3.274,1.64 4.685,2.8 0.511,0.424 0.988,0.89 1.401,1.409 0.108,0.118 0.288,0.029 0.428,0.05 C 39.031,19.4 38.744,19.214 38.521,18.98 37.394,17.874 36.1,16.942 34.701,16.211 33.522,15.599 32.29,15.064 30.996,14.75 Z"
       style="fill:url(#_lgradient_28);fill-rule:evenodd"
       inkscape:connector-curvature="0" />
  </g>
</svg>
