<?xml version="1.0" encoding="UTF-8" standalone="no"?>
<!-- Generator: Gravit.io -->

<svg
   xmlns:dc="http://purl.org/dc/elements/1.1/"
   xmlns:cc="http://creativecommons.org/ns#"
   xmlns:rdf="http://www.w3.org/1999/02/22-rdf-syntax-ns#"
   xmlns:svg="http://www.w3.org/2000/svg"
   xmlns="http://www.w3.org/2000/svg"
   xmlns:sodipodi="http://sodipodi.sourceforge.net/DTD/sodipodi-0.dtd"
   xmlns:inkscape="http://www.inkscape.org/namespaces/inkscape"
   style="isolation:isolate"
   viewBox="0 0 36 36"
   width="48"
   height="48"
   version="1.1"
   id="svg9"
   sodipodi:docname="distributor-logo-ubuntu.svg"
   inkscape:version="0.92.4 (5da689c313, 2019-01-14)">
  <metadata
     id="metadata15">
    <rdf:RDF>
      <cc:Work
         rdf:about="">
        <dc:format>image/svg+xml</dc:format>
        <dc:type
           rdf:resource="http://purl.org/dc/dcmitype/StillImage" />
        <dc:title></dc:title>
      </cc:Work>
    </rdf:RDF>
  </metadata>
  <defs
     id="defs13" />
  <sodipodi:namedview
     pagecolor="#ffffff"
     bordercolor="#666666"
     borderopacity="1"
     objecttolerance="10"
     gridtolerance="10"
     guidetolerance="10"
     inkscape:pageopacity="0"
     inkscape:pageshadow="2"
     inkscape:window-width="640"
     inkscape:window-height="480"
     id="namedview11"
     showgrid="false"
     inkscape:zoom="29.365243"
     inkscape:cx="25.325443"
     inkscape:cy="32"
     inkscape:current-layer="svg9"
     units="px" />
  <linearGradient
     id="_lgradient_33"
     x1="0"
     y1="0.5"
     x2="1"
     y2="0.5"
     gradientTransform="matrix(46.808,0,0,47,0.564,0.5)"
     gradientUnits="userSpaceOnUse">
    <stop
       offset="0%"
       stop-opacity="1"
       style="stop-color:rgb(255,95,109)"
       id="stop2" />
    <stop
       offset="98.26086956521739%"
       stop-opacity="1"
       style="stop-color:rgb(255,195,113)"
       id="stop4" />
  </linearGradient>
  <g
     id="g826"
     transform="matrix(0.76595696,0,0,0.76595696,-0.35893112,-0.38295552)">
    <path
       id="path7"
       d="m 32.917,6.952 v 0 C 31.873,6.403 31.47,5.109 32.019,4.064 v 0 C 32.568,3.02 33.862,2.617 34.907,3.166 v 0 c 4.449,2.342 8.042,6.053 10.235,10.577 v 0 c 0.519,1.063 0.078,2.345 -0.984,2.861 v 0 c -1.063,0.517 -2.347,0.074 -2.866,-0.989 v 0 C 39.495,11.904 36.564,8.877 32.917,6.952 Z M 23.817,4.5 v 0 c 1.103,-0.006 1.995,-0.906 1.99,-2.01 v 0 C 25.801,1.386 24.9,0.494 23.797,0.5 v 0 c -5.76,0.03 -11.31,2.18 -15.59,6.03 -4.28,3.86 -7,9.15 -7.63,14.88 v 0 c -0.122,1.098 0.671,2.089 1.77,2.21 v 0 c 1.098,0.121 2.088,-0.672 2.21,-1.77 v 0 c 0.52,-4.75 2.78,-9.15 6.33,-12.34 3.55,-3.2 8.15,-4.98 12.93,-5.01 z M 5.737,31 v 0 C 5.339,29.968 4.179,29.453 3.147,29.85 v 0 c -1.033,0.397 -1.548,1.558 -1.15,2.59 v 0 c 1.91,4.93 5.42,9.08 9.97,11.78 v 0 c 0.949,0.563 2.177,0.249 2.74,-0.7 v 0 c 0.563,-0.949 0.249,-2.177 -0.7,-2.74 v 0 C 10.227,38.54 7.317,35.1 5.737,31 Z m 17.57,12.49 v 0 c -1.104,-0.017 -2.014,0.866 -2.03,1.97 v 0 c -0.017,1.104 0.866,2.013 1.97,2.03 v 0 l 0.66,0.01 c 0.01,0 0.02,0 0.03,0 5.91,0 11.61,-2.23 15.95,-6.24 4.34,-4.01 7.02,-9.52 7.48,-15.41 v 0 c 0.082,-1.098 -0.742,-2.062 -1.84,-2.15 v 0 c -1.099,-0.088 -2.062,0.736 -2.15,1.84 v 0 c -0.38,4.88 -2.6,9.45 -6.2,12.78 -3.6,3.33 -8.32,5.18 -13.22,5.18 z M 30.93,9.119 c -0.136,-0.008 -0.27,-0.007 -0.402,0.002 -0.881,0.062 -1.697,0.55 -2.172,1.373 -0.758,1.315 -0.304,2.986 1.013,3.746 1.315,0.758 2.989,0.317 3.747,-1.002 0.76,-1.311 0.324,-3.013 -0.991,-3.771 C 31.755,9.253 31.338,9.145 30.93,9.119 Z m -7.217,2.914 c -1.901,0 -3.679,0.449 -5.273,1.24 l 1.91,3.45 c 1.029,-0.481 2.156,-0.764 3.363,-0.764 4.202,0 7.67,3.215 8.031,7.326 l 3.901,-0.049 c -0.195,-3.029 -1.52,-5.755 -3.555,-7.756 -1.048,0.393 -2.237,0.333 -3.281,-0.273 -1.044,-0.604 -1.704,-1.612 -1.885,-2.721 -1.018,-0.279 -2.105,-0.453 -3.211,-0.453 z m -6.621,2.016 c -2.408,1.608 -4.182,4.076 -4.928,6.957 0.873,0.709 1.397,1.768 1.397,2.982 0,1.206 -0.523,2.305 -1.397,3.018 0.746,2.88 2.52,5.337 4.928,6.945 l 2.015,-3.389 c -2.067,-1.453 -3.412,-3.855 -3.412,-6.574 0,-2.722 1.345,-5.121 3.412,-6.574 z m -7.387,7.195 c -1.521,0 -2.744,1.223 -2.744,2.744 0,1.516 1.223,2.744 2.744,2.744 1.523,0 2.758,-1.228 2.758,-2.744 0,-1.521 -1.235,-2.744 -2.758,-2.744 z m 22.039,3.473 c -0.361,4.104 -3.829,7.326 -8.031,7.326 -1.208,0 -2.334,-0.271 -3.363,-0.752 l -1.91,3.424 c 1.594,0.794 3.372,1.228 5.273,1.228 1.106,0 2.193,-0.147 3.211,-0.429 0.181,-1.107 0.84,-2.113 1.885,-2.719 1.046,-0.604 2.233,-0.662 3.281,-0.264 2.035,-2.003 3.36,-4.723 3.555,-7.756 z m -1.205,8.674 c -0.398,0.033 -0.8,0.166 -1.17,0.38 -1.317,0.755 -1.771,2.423 -1.013,3.735 0.76,1.319 2.453,1.761 3.769,1.004 1.317,-0.759 1.75,-2.433 0.99,-3.748 -0.475,-0.823 -1.302,-1.309 -2.183,-1.371 -0.132,-0.011 -0.26,-0.011 -0.393,0 z"
       style="fill:url(#_lgradient_33);fill-rule:evenodd"
       inkscape:connector-curvature="0" />
  </g>
</svg>
