<?xml version="1.0" encoding="UTF-8" standalone="no"?>
<!-- Generator: Gravit.io -->

<svg
   xmlns:dc="http://purl.org/dc/elements/1.1/"
   xmlns:cc="http://creativecommons.org/ns#"
   xmlns:rdf="http://www.w3.org/1999/02/22-rdf-syntax-ns#"
   xmlns:svg="http://www.w3.org/2000/svg"
   xmlns="http://www.w3.org/2000/svg"
   xmlns:sodipodi="http://sodipodi.sourceforge.net/DTD/sodipodi-0.dtd"
   xmlns:inkscape="http://www.inkscape.org/namespaces/inkscape"
   style="isolation:isolate"
   viewBox="0 0 36 36"
   width="48"
   height="48"
   version="1.1"
   id="svg9"
   sodipodi:docname="distributor-logo-antergos.svg"
   inkscape:version="0.92.4 (5da689c313, 2019-01-14)">
  <metadata
     id="metadata15">
    <rdf:RDF>
      <cc:Work
         rdf:about="">
        <dc:format>image/svg+xml</dc:format>
        <dc:type
           rdf:resource="http://purl.org/dc/dcmitype/StillImage" />
        <dc:title></dc:title>
      </cc:Work>
    </rdf:RDF>
  </metadata>
  <defs
     id="defs13" />
  <sodipodi:namedview
     pagecolor="#ffffff"
     bordercolor="#666666"
     borderopacity="1"
     objecttolerance="10"
     gridtolerance="10"
     guidetolerance="10"
     inkscape:pageopacity="0"
     inkscape:pageshadow="2"
     inkscape:window-width="640"
     inkscape:window-height="480"
     id="namedview11"
     showgrid="false"
     inkscape:zoom="29.365243"
     inkscape:cx="25.325443"
     inkscape:cy="32"
     inkscape:current-layer="svg9"
     units="px" />
  <linearGradient
     id="_lgradient_14"
     x1="-3.8208334e-05"
     y1="0.50000006"
     x2="0.99996185"
     y2="0.50000006"
     gradientTransform="matrix(43.002,0,0,43.004,2.499,2.5)"
     gradientUnits="userSpaceOnUse">
    <stop
       offset="0%"
       stop-opacity="1"
       style="stop-color:rgb(0,198,255)"
       id="stop2" />
    <stop
       offset="98.69565217391305%"
       stop-opacity="1"
       style="stop-color:rgb(0,114,255)"
       id="stop4" />
  </linearGradient>
  <g
     id="g826"
     transform="matrix(0.83713667,0,0,0.83713667,-2.0912801,-2.0928416)">
    <path
       id="path7"
       d="m 24,5.5 c 0.88,0.03 1.75,0.25 2.54,0.64 1.11,0.53 2.14,1.19 3.07,1.98 1.14,0.94 2.21,1.98 3.18,3.09 1.09,1.24 2.11,2.54 3.04,3.89 1.93,2.77 3.54,5.74 4.8,8.87 0.57,1.4 1.04,2.84 1.39,4.31 0.3,1.22 0.46,2.48 0.48,3.74 0.01,1.18 -0.17,2.35 -0.54,3.46 -0.31,0.91 -0.78,1.76 -1.39,2.49 -0.6,0.72 -1.32,1.33 -2.11,1.83 -0.85,0.53 -1.75,0.96 -2.7,1.28 -1,0.35 -2.03,0.62 -3.07,0.81 -1.04,0.2 -2.1,0.34 -3.15,0.43 -1.85,0.14 -3.69,0.2 -5.54,0.18 -1.85,0.02 -3.69,-0.04 -5.54,-0.18 C 17.41,42.23 16.35,42.09 15.31,41.89 14.27,41.7 13.24,41.43 12.24,41.08 11.29,40.76 10.39,40.33 9.54,39.8 8.75,39.3 8.03,38.69 7.43,37.97 6.82,37.24 6.35,36.39 6.04,35.48 5.67,34.37 5.49,33.2 5.5,32.02 5.52,30.76 5.68,29.5 5.98,28.28 6.33,26.81 6.8,25.37 7.37,23.97 c 1.26,-3.13 2.87,-6.1 4.8,-8.87 0.93,-1.35 1.95,-2.65 3.04,-3.89 C 16.18,10.1 17.25,9.06 18.39,8.12 19.32,7.33 20.35,6.67 21.45,6.14 22.25,5.75 23.11,5.53 24,5.5 Z m 0,-3 c 1.34,0.03 2.67,0.35 3.87,0.95 1.31,0.63 2.54,1.43 3.66,2.37 1.26,1.04 2.44,2.18 3.52,3.41 1.16,1.32 2.25,2.71 3.25,4.17 2.05,2.94 3.77,6.11 5.11,9.44 0.63,1.54 1.14,3.12 1.52,4.73 0.36,1.44 0.55,2.92 0.57,4.41 0.02,1.52 -0.22,3.02 -0.69,4.46 -0.43,1.26 -1.09,2.43 -1.94,3.46 -0.81,0.96 -1.76,1.78 -2.82,2.44 -1.04,0.65 -2.15,1.18 -3.31,1.58 -1.14,0.39 -2.31,0.7 -3.5,0.92 -1.15,0.22 -2.3,0.37 -3.46,0.47 -1.93,0.15 -3.85,0.21 -5.78,0.19 -1.93,0.02 -3.85,-0.04 -5.78,-0.19 -1.16,-0.1 -2.31,-0.25 -3.46,-0.47 C 13.57,44.62 12.4,44.31 11.26,43.92 10.1,43.52 8.99,42.99 7.95,42.34 6.89,41.68 5.94,40.86 5.13,39.9 4.28,38.87 3.62,37.7 3.19,36.44 2.72,35 2.48,33.5 2.5,31.98 2.52,30.49 2.71,29.01 3.07,27.57 3.45,25.96 3.96,24.38 4.59,22.84 5.93,19.51 7.65,16.34 9.7,13.4 10.7,11.94 11.79,10.55 12.96,9.23 14.03,8 15.21,6.86 16.47,5.82 17.59,4.88 18.82,4.08 20.14,3.44 21.34,2.85 22.66,2.53 24,2.5 Z M 24.066,13 c -0.041,0.004 -0.078,0.022 -0.107,0.051 -3.25,3.133 -7.03,5.278 -10.727,6.454 -0.042,0.014 -0.078,0.042 -0.1,0.081 -0.579,0.992 -0.942,2.471 -1.076,4.02 -0.134,1.548 -0.036,3.164 0.34,4.422 0.017,0.057 0.062,0.102 0.119,0.12 0.057,0.017 0.119,0.005 0.166,-0.032 2.653,-2.153 8.684,-4.802 12.65,-14.869 0.022,-0.056 0.015,-0.119 -0.019,-0.168 C 25.278,13.029 25.222,13 25.163,13 h -1.08 c -0.006,0 -0.012,0 -0.018,0 z m 3.248,0.36 c -0.08,0.004 -0.148,0.061 -0.166,0.139 -1.944,8.259 -4.227,16.18 -9.664,21.2 -0.037,0.034 -0.058,0.082 -0.059,0.132 0,0.05 0.02,0.098 0.057,0.133 2.134,1.994 5.249,2.311 8.785,1.85 0.064,-0.008 0.118,-0.05 0.143,-0.109 3.919,-9.26 3.617,-17.542 1.078,-23.236 -0.031,-0.069 -0.1,-0.111 -0.174,-0.107 z m 3.231,1.444 c -0.061,0.005 -0.114,0.041 -0.142,0.095 -0.029,0.053 -0.028,0.118 0.001,0.171 2.903,5.493 3.368,11.353 3.576,16.88 0.003,0.088 0.069,0.16 0.156,0.172 0.087,0.011 0.169,-0.041 0.196,-0.125 0.811,-2.581 1.812,-5.258 1.65,-8.107 -0.162,-2.85 -1.503,-5.852 -5.305,-9.043 -0.032,-0.028 -0.073,-0.043 -0.115,-0.043 -0.006,-10e-4 -0.012,-10e-4 -0.017,0 z"
       style="fill:url(#_lgradient_14);fill-rule:evenodd"
       inkscape:connector-curvature="0" />
  </g>
</svg>
