<?xml version="1.0" encoding="UTF-8" standalone="no"?>
<!-- Generator: Gravit.io -->

<svg
   xmlns:dc="http://purl.org/dc/elements/1.1/"
   xmlns:cc="http://creativecommons.org/ns#"
   xmlns:rdf="http://www.w3.org/1999/02/22-rdf-syntax-ns#"
   xmlns:svg="http://www.w3.org/2000/svg"
   xmlns="http://www.w3.org/2000/svg"
   xmlns:sodipodi="http://sodipodi.sourceforge.net/DTD/sodipodi-0.dtd"
   xmlns:inkscape="http://www.inkscape.org/namespaces/inkscape"
   style="isolation:isolate"
   viewBox="0 0 36 36"
   width="48"
   height="48"
   version="1.1"
   id="svg9"
   sodipodi:docname="distributor-logo-opensuse.svg"
   inkscape:version="0.92.4 (5da689c313, 2019-01-14)">
  <metadata
     id="metadata15">
    <rdf:RDF>
      <cc:Work
         rdf:about="">
        <dc:format>image/svg+xml</dc:format>
        <dc:type
           rdf:resource="http://purl.org/dc/dcmitype/StillImage" />
        <dc:title></dc:title>
      </cc:Work>
    </rdf:RDF>
  </metadata>
  <defs
     id="defs13" />
  <sodipodi:namedview
     pagecolor="#ffffff"
     bordercolor="#666666"
     borderopacity="1"
     objecttolerance="10"
     gridtolerance="10"
     guidetolerance="10"
     inkscape:pageopacity="0"
     inkscape:pageshadow="2"
     inkscape:window-width="640"
     inkscape:window-height="480"
     id="namedview11"
     showgrid="false"
     inkscape:zoom="29.365243"
     inkscape:cx="25.325443"
     inkscape:cy="32"
     inkscape:current-layer="svg9"
     units="px" />
  <linearGradient
     id="_lgradient_31"
     x1="0"
     y1="0.5"
     x2="1"
     y2="0.5"
     gradientTransform="matrix(39.802,0,0,45.5,4.099,1.25)"
     gradientUnits="userSpaceOnUse">
    <stop
       offset="0%"
       stop-opacity="1"
       style="stop-color:rgb(67,233,123)"
       id="stop2" />
    <stop
       offset="97.82608695652173%"
       stop-opacity="1"
       style="stop-color:rgb(56,249,215)"
       id="stop4" />
  </linearGradient>
  <g
     id="g826"
     transform="matrix(0.79120879,0,0,0.79120879,-0.98901096,-0.98901096)">
    <path
       id="path7"
       d="M 21.138,1.25 C 12.413,1.25 7.428,4.822 4.174,8.847 6.667,9.531 8.41,10.101 8.971,10.286 8.978,9.91 9.038,6.514 9.038,6.514 L 9.087,6.405 9.213,6.367 c 0.768,0.111 17.125,2.53 24.014,6.545 0.853,0.502 1.272,1.025 1.8,1.565 1.904,1.968 4.434,10.164 4.702,11.858 l -0.109,0.174 c -0.099,0.037 -0.339,0.205 -0.652,0.419 -1.608,1.123 -5.366,3.755 -10.184,3.326 -4.333,-0.386 -9.987,-2.872 -16.806,-7.363 0.301,0.708 1.717,4.075 1.955,4.64 l 0.098,0.116 c 0.987,0.51 10.462,5.341 15.163,5.242 3.793,-0.075 7.844,-1.926 9.464,-2.898 l 0.516,-0.098 c 0.144,0.114 0.122,0.333 0.077,0.536 -0.099,0.465 -0.322,1.317 -0.477,1.713 l -0.127,0.33 c -0.183,0.49 -0.364,0.962 -0.709,1.245 -0.956,0.87 -2.485,1.558 -4.873,2.605 -3.693,1.613 -9.678,2.629 -15.241,2.597 -1.991,-0.045 -3.919,-0.264 -5.611,-0.457 -3.531,-0.403 -6.4,-0.726 -8.114,0.604 4.168,4.711 10.256,7.684 17.042,7.684 12.564,0 22.76,-10.185 22.76,-22.75 0,-12.563 -10.196,-22.749 -22.76,-22.749 z m 6.013,12.041 c -1.74,0.025 -3.38,0.677 -4.66,1.877 -1.37,1.269 -2.158,3.006 -2.224,4.874 -0.126,3.851 2.906,7.102 6.759,7.246 1.876,0.061 3.652,-0.607 5.018,-1.887 1.362,-1.274 2.148,-2.998 2.217,-4.864 0.132,-3.857 -2.899,-7.107 -6.759,-7.246 -0.116,-0.004 -0.235,-0.003 -0.351,0 z m -0.185,2.062 c 0.16,-0.009 0.314,-0.005 0.477,0 2.691,0.095 4.807,2.351 4.716,5.047 -0.039,1.298 -0.593,2.515 -1.545,3.408 -0.953,0.884 -2.194,1.341 -3.501,1.301 -2.69,-0.1 -4.798,-2.364 -4.709,-5.057 0.041,-1.303 0.601,-2.508 1.548,-3.395 0.83,-0.779 1.891,-1.235 3.014,-1.304 z m 1.284,2.443 c -1.199,0 -2.168,0.65 -2.168,1.448 0,0.795 0.969,1.45 2.168,1.45 1.196,0 2.158,-0.653 2.158,-1.45 0,-0.798 -0.962,-1.448 -2.158,-1.448 z"
       inkscape:connector-curvature="0"
       style="fill:url(#_lgradient_31)" />
  </g>
</svg>
