<?xml version="1.0" encoding="UTF-8" standalone="no"?>
<!-- Generator: Gravit.io -->

<svg
   xmlns:dc="http://purl.org/dc/elements/1.1/"
   xmlns:cc="http://creativecommons.org/ns#"
   xmlns:rdf="http://www.w3.org/1999/02/22-rdf-syntax-ns#"
   xmlns:svg="http://www.w3.org/2000/svg"
   xmlns="http://www.w3.org/2000/svg"
   xmlns:sodipodi="http://sodipodi.sourceforge.net/DTD/sodipodi-0.dtd"
   xmlns:inkscape="http://www.inkscape.org/namespaces/inkscape"
   style="isolation:isolate"
   viewBox="0 0 36 36"
   width="48"
   height="48"
   version="1.1"
   id="svg9"
   sodipodi:docname="distributor-logo-debian.svg"
   inkscape:version="0.92.4 (5da689c313, 2019-01-14)">
  <metadata
     id="metadata15">
    <rdf:RDF>
      <cc:Work
         rdf:about="">
        <dc:format>image/svg+xml</dc:format>
        <dc:type
           rdf:resource="http://purl.org/dc/dcmitype/StillImage" />
        <dc:title></dc:title>
      </cc:Work>
    </rdf:RDF>
  </metadata>
  <defs
     id="defs13" />
  <sodipodi:namedview
     pagecolor="#ffffff"
     bordercolor="#666666"
     borderopacity="1"
     objecttolerance="10"
     gridtolerance="10"
     guidetolerance="10"
     inkscape:pageopacity="0"
     inkscape:pageshadow="2"
     inkscape:window-width="640"
     inkscape:window-height="480"
     id="namedview11"
     showgrid="false"
     inkscape:zoom="29.365243"
     inkscape:cx="25.325443"
     inkscape:cy="32"
     inkscape:current-layer="svg9"
     units="px" />
  <linearGradient
     id="_lgradient_22"
     x1="0"
     y1="0.5"
     x2="1"
     y2="0.5"
     gradientTransform="matrix(34,0,0,44.201,7,1.9)"
     gradientUnits="userSpaceOnUse">
    <stop
       offset="0%"
       stop-opacity="1"
       style="stop-color:rgb(242,55,239)"
       id="stop2" />
    <stop
       offset="98.69565217391305%"
       stop-opacity="1"
       style="stop-color:rgb(252,82,82)"
       id="stop4" />
  </linearGradient>
  <g
     id="g826"
     transform="matrix(0.81447964,0,0,0.81447964,-1.5475114,-1.5475114)">
    <path
       id="path7"
       d="m 37.049,20.817 c 0.042,1.193 -0.334,1.773 -0.673,2.797 l -0.612,0.318 c -0.499,1.014 0.05,0.644 -0.308,1.45 -0.781,0.724 -2.366,2.265 -2.873,2.406 -0.371,-0.008 0.251,-0.457 0.332,-0.632 -1.044,0.748 -0.838,1.123 -2.435,1.579 l -0.047,-0.109 c -3.937,1.935 -9.406,-1.899 -9.334,-7.13 -0.042,0.332 -0.12,0.249 -0.207,0.382 -0.203,-2.691 1.19,-5.394 3.54,-6.499 2.299,-1.187 4.993,-0.701 6.639,0.903 -0.904,-1.237 -2.704,-2.549 -4.836,-2.427 -2.09,0.035 -4.045,1.422 -4.698,2.928 -1.07,0.704 -1.195,2.714 -1.661,3.082 -0.628,4.818 1.181,6.899 4.24,9.348 0.48,0.338 0.135,0.39 0.2,0.648 -1.017,-0.497 -1.947,-1.247 -2.712,-2.166 0.406,0.621 0.844,1.224 1.411,1.698 -0.959,-0.338 -2.24,-2.425 -2.613,-2.51 1.652,3.089 6.702,5.418 9.347,4.262 -1.224,0.047 -2.779,0.026 -4.153,-0.505 -0.579,-0.31 -1.363,-0.952 -1.223,-1.072 3.609,1.407 7.337,1.065 10.459,-1.549 0.795,-0.647 1.663,-1.746 1.914,-1.761 -0.378,0.594 0.065,0.286 -0.225,0.809 0.79,-1.333 -0.345,-0.543 0.817,-2.302 l 0.429,0.617 c -0.16,-1.108 1.317,-2.452 1.166,-4.202 0.339,-0.535 0.378,0.577 0.019,1.808 0.499,-1.366 0.132,-1.586 0.259,-2.713 0.138,0.379 0.321,0.781 0.414,1.181 -0.325,-1.32 0.332,-2.223 0.496,-2.99 -0.162,-0.074 -0.502,0.583 -0.58,-0.976 0.012,-0.677 0.181,-0.355 0.246,-0.522 -0.127,-0.076 -0.461,-0.595 -0.664,-1.591 0.146,-0.235 0.393,0.607 0.594,0.641 -0.129,-0.792 -0.351,-1.395 -0.361,-2.003 -0.586,-1.279 -0.207,0.171 -0.682,-0.549 -0.623,-2.031 0.518,-0.472 0.595,-1.394 0.944,1.429 1.483,3.646 1.731,4.564 -0.189,-1.119 -0.494,-2.204 -0.867,-3.253 0.288,0.127 -0.463,-2.302 0.374,-0.694 -0.893,-3.428 -3.818,-6.632 -6.51,-8.135 0.329,0.315 0.744,0.71 0.596,0.772 C 33.253,4.494 33.489,4.429 33.297,4.077 32.207,3.614 32.134,4.115 31.414,4.078 29.358,2.939 28.962,3.06 27.069,2.347 l 0.086,0.42 C 25.794,2.293 25.569,2.946 24.097,2.768 24.008,2.696 24.569,2.504 25.031,2.434 23.714,2.616 23.776,2.163 22.487,2.484 22.805,2.251 23.141,2.097 23.48,1.9 22.406,1.968 20.916,2.552 21.376,2.02 19.625,2.836 16.514,3.982 14.769,5.692 L 14.714,5.309 c -0.8,1.002 -3.488,2.994 -3.702,4.294 l -0.214,0.052 c -0.416,0.736 -0.686,1.57 -1.016,2.327 -0.544,0.969 -0.797,0.373 -0.72,0.525 -1.071,2.268 -1.603,4.172 -2.062,5.736 0.327,0.511 0.008,3.076 0.131,5.129 -0.537,10.142 6.815,19.987 14.851,22.26 1.178,0.441 2.929,0.425 4.419,0.468 -1.757,-0.525 -1.984,-0.277 -3.697,-0.901 -1.235,-0.608 -1.506,-1.302 -2.381,-2.095 l 0.347,0.639 c -1.716,-0.636 -0.998,-0.785 -2.394,-1.248 l 0.37,-0.504 C 18.09,41.947 17.173,41.013 16.922,40.494 l -0.609,0.025 c -0.73,-0.941 -1.12,-1.62 -1.091,-2.147 l -0.197,0.366 c -0.224,-0.399 -2.691,-3.534 -1.411,-2.803 -0.238,-0.226 -0.554,-0.369 -0.896,-1.02 l 0.26,-0.311 c -0.614,-0.827 -1.133,-1.888 -1.093,-2.242 0.328,0.463 0.556,0.55 0.782,0.63 -1.555,-4.03 -1.643,-0.222 -2.82,-4.103 l 0.248,-0.02 C 9.905,28.567 9.788,28.242 9.635,27.921 l 0.109,-1.128 c -1.119,-1.349 -0.313,-5.747 -0.152,-8.16 0.113,-0.979 0.935,-2.024 1.561,-3.661 l -0.381,-0.069 c 0.729,-1.327 4.16,-5.331 5.75,-5.125 0.77,-1.01 -0.153,-0.004 -0.304,-0.258 1.692,-1.828 2.224,-1.291 3.365,-1.621 1.23,-0.762 -1.056,0.299 -0.473,-0.29 2.128,-0.568 1.508,-1.291 4.284,-1.579 0.293,0.174 -0.68,0.269 -0.923,0.495 1.772,-0.907 5.61,-0.7 8.103,0.502 2.892,1.412 6.142,5.585 6.271,9.511 l 0.146,0.041 c -0.074,1.561 0.228,3.367 -0.297,5.024 l 0.355,-0.785"
       inkscape:connector-curvature="0"
       style="fill:url(#_lgradient_22)" />
  </g>
</svg>
