<?xml version="1.0" encoding="UTF-8" standalone="no"?>
<!-- Generator: Gravit.io -->

<svg
   xmlns:dc="http://purl.org/dc/elements/1.1/"
   xmlns:cc="http://creativecommons.org/ns#"
   xmlns:rdf="http://www.w3.org/1999/02/22-rdf-syntax-ns#"
   xmlns:svg="http://www.w3.org/2000/svg"
   xmlns="http://www.w3.org/2000/svg"
   xmlns:sodipodi="http://sodipodi.sourceforge.net/DTD/sodipodi-0.dtd"
   xmlns:inkscape="http://www.inkscape.org/namespaces/inkscape"
   style="isolation:isolate"
   viewBox="0 0 36 36"
   width="48"
   height="48"
   version="1.1"
   id="svg9"
   sodipodi:docname="distributor-logo-fedora.svg"
   inkscape:version="0.92.4 (5da689c313, 2019-01-14)">
  <metadata
     id="metadata15">
    <rdf:RDF>
      <cc:Work
         rdf:about="">
        <dc:format>image/svg+xml</dc:format>
        <dc:type
           rdf:resource="http://purl.org/dc/dcmitype/StillImage" />
        <dc:title></dc:title>
      </cc:Work>
    </rdf:RDF>
  </metadata>
  <defs
     id="defs13" />
  <sodipodi:namedview
     pagecolor="#ffffff"
     bordercolor="#666666"
     borderopacity="1"
     objecttolerance="10"
     gridtolerance="10"
     guidetolerance="10"
     inkscape:pageopacity="0"
     inkscape:pageshadow="2"
     inkscape:window-width="640"
     inkscape:window-height="480"
     id="namedview11"
     showgrid="false"
     inkscape:zoom="29.365243"
     inkscape:cx="25.325443"
     inkscape:cy="32"
     inkscape:current-layer="svg9"
     units="px" />
  <linearGradient
     id="_lgradient_26"
     x1="0.06818182"
     y1="0.23295455"
     x2="0.93843019"
     y2="0.77938956"
     gradientTransform="matrix(46,0,0,46,1,1)"
     gradientUnits="userSpaceOnUse">
    <stop
       offset="0%"
       stop-opacity="1"
       style="stop-color:rgb(48,207,208)"
       id="stop2" />
    <stop
       offset="98.26086956521739%"
       stop-opacity="1"
       style="stop-color:rgb(51,8,103)"
       id="stop4" />
  </linearGradient>
  <g
     id="g826"
     transform="matrix(0.7826087,0,0,0.7826087,-0.7826088,-0.7826088)">
    <path
       id="path7"
       d="m 24.07,5 c 5.02,0.02 9.84,2.03 13.39,5.59 C 41.01,14.15 43,18.97 43,24 43,29.04 41,33.87 37.44,37.43 33.88,40.99 29.05,43 24.01,43 H 6.26 C 5.93,43 5.6,42.87 5.37,42.63 5.13,42.4 5,42.07 5,41.74 V 23.99 C 5,18.96 7.01,14.12 10.57,10.56 14.13,7 18.97,5 24,5 c 0.02,0 0.05,0 0.07,0 z M 23.93,1 C 23.95,1 23.98,1 24,1 30.1,1 35.95,3.42 40.26,7.74 44.58,12.05 47,17.9 47,24 47,30.1 44.58,35.95 40.27,40.26 35.96,44.57 30.11,47 24.01,47 c 0,0 0,0 0,0 H 6.26 C 4.86,47 3.53,46.45 2.54,45.46 1.55,44.47 1,43.14 1,41.74 V 23.99 c 0,0 0,0 0,0 C 1,17.91 3.42,12.07 7.72,7.76 12.01,3.45 17.84,1.02 23.93,1 Z M 30,9 c -4.971,0 -9,4.029 -9,9 v 5 h -5 c -0.067,0 -0.133,0.003 -0.199,0.01 -0.002,0 -0.003,0 -0.004,0 C 14.776,23.114 14,23.974 14,25 c 0,1.105 0.895,2 2,2 h 3.98 C 20.444,27 21,26.999 21,28.098 V 32 c 0,2.761 -2.239,5 -5,5 -0.768,0 -1.486,-0.187 -2.137,-0.496 C 13.593,36.375 13.3,36.301 13,36.301 c -1.105,0 -2,0.895 -2,2 10e-4,0.756 0.428,1.446 1.104,1.785 0,0.006 -10e-4,0.011 0,0.018 C 13.284,40.672 14.602,41 16,41 c 4.971,0 9,-4.029 9,-9 v -5 h 4 c 1.105,0 2,-0.895 2,-2 0,-1.105 -0.895,-2 -2,-2 H 26.02 C 25.556,23 25,23.001 25,21.902 V 18 c 0,-2.761 2.239,-5 5,-5 0.504,0 0.981,0.098 1.439,0.236 0,-0.005 -0.001,-0.012 -0.001,-0.017 0.182,0.054 0.372,0.081 0.562,0.082 1.105,0 2,-0.896 2,-2 0,-0.187 -0.026,-0.373 -0.078,-0.553 0.001,-0.031 0.008,-0.059 0.008,-0.09 -0.017,-0.026 -0.048,-0.053 -0.067,-0.08 V 10.576 C 33.614,9.936 33.054,9.468 32.379,9.338 32.365,9.33 32.35,9.324 32.336,9.316 Z"
       inkscape:connector-curvature="0"
       style="fill:url(#_lgradient_26);fill-rule:evenodd" />
  </g>
</svg>
