<?xml version="1.0" encoding="UTF-8" standalone="no"?>
<!-- Generator: Gravit.io -->

<svg
   xmlns:dc="http://purl.org/dc/elements/1.1/"
   xmlns:cc="http://creativecommons.org/ns#"
   xmlns:rdf="http://www.w3.org/1999/02/22-rdf-syntax-ns#"
   xmlns:svg="http://www.w3.org/2000/svg"
   xmlns="http://www.w3.org/2000/svg"
   xmlns:sodipodi="http://sodipodi.sourceforge.net/DTD/sodipodi-0.dtd"
   xmlns:inkscape="http://www.inkscape.org/namespaces/inkscape"
   style="isolation:isolate"
   viewBox="0 0 36 36"
   width="48"
   height="48"
   version="1.1"
   id="svg9"
   sodipodi:docname="dockbarx.svg"
   inkscape:version="0.92.4 (5da689c313, 2019-01-14)">
  <metadata
     id="metadata15">
    <rdf:RDF>
      <cc:Work
         rdf:about="">
        <dc:format>image/svg+xml</dc:format>
        <dc:type
           rdf:resource="http://purl.org/dc/dcmitype/StillImage" />
        <dc:title></dc:title>
      </cc:Work>
    </rdf:RDF>
  </metadata>
  <defs
     id="defs13" />
  <sodipodi:namedview
     pagecolor="#ffffff"
     bordercolor="#666666"
     borderopacity="1"
     objecttolerance="10"
     gridtolerance="10"
     guidetolerance="10"
     inkscape:pageopacity="0"
     inkscape:pageshadow="2"
     inkscape:window-width="640"
     inkscape:window-height="480"
     id="namedview11"
     showgrid="false"
     inkscape:zoom="29.365243"
     inkscape:cx="25.325443"
     inkscape:cy="32"
     inkscape:current-layer="svg9"
     units="px" />
  <linearGradient
     id="_lgradient_0"
     x1="-3.8208334e-05"
     y1="0.50000006"
     x2="0.99996185"
     y2="0.50000006"
     gradientTransform="matrix(44,0,0,44,2,2)"
     gradientUnits="userSpaceOnUse">
    <stop
       offset="0%"
       stop-opacity="1"
       style="stop-color:rgb(211,0,220)"
       id="stop2" />
    <stop
       offset="100%"
       stop-opacity="1"
       style="stop-color:rgb(135,0,255)"
       id="stop4" />
  </linearGradient>
  <g
     id="g826"
     transform="matrix(0.81818182,0,0,0.81818182,-1.6363637,-1.6363637)">
    <path
       id="path7"
       d="m 10,35 v 0 C 8.896,35 8,34.104 8,33 v 0 c 0,-1.104 0.896,-2 2,-2 v 0 h 34 c 1.104,0 2,0.896 2,2 v 6 c 0,3.863 -3.137,7 -7,7 H 9 C 5.137,46 2,42.863 2,39 v -19 0 c 0,-1.104 0.896,-2 2,-2 v 0 c 1.104,0 2,0.896 2,2 v 0 17 c 0,2.76 2.24,5 5,5 h 26 c 2.76,0 5,-2.24 5,-5 V 35 Z M 6,11 v 0 c 0,1.104 -0.896,2 -2,2 v 0 C 2.896,13 2,12.104 2,11 V 11 9 C 2,5.137 5.137,2 9,2 h 30 c 3.863,0 7,3.137 7,7 v 16 0 c 0,1.104 -0.896,2 -2,2 v 0 c -1.104,0 -2,-0.896 -2,-2 V 25 11 C 42,8.24 39.76,6 37,6 H 11 C 8.24,6 6,8.24 6,11 Z m 20.625,26 v 0 c 0.828,0 1.5,0.672 1.5,1.5 v 0 c 0,0.828 -0.672,1.5 -1.5,1.5 v 0 h -5.25 v 0 c -0.828,0 -1.5,-0.672 -1.5,-1.5 v 0 c 0,-0.828 0.672,-1.5 1.5,-1.5 v 0 z M 15.25,37 v 0 c 0.828,0 1.5,0.672 1.5,1.5 v 0 c 0,0.828 -0.672,1.5 -1.5,1.5 v 0 H 10 v 0 C 9.172,40 8.5,39.328 8.5,38.5 v 0 C 8.5,37.672 9.172,37 10,37 v 0 z m 23,0 v 0 c 0.828,0 1.5,0.672 1.5,1.5 v 0 c 0,0.828 -0.672,1.5 -1.5,1.5 v 0 H 33 v 0 c -0.828,0 -1.5,-0.672 -1.5,-1.5 v 0 C 31.5,37.672 32.172,37 33,37 v 0 z M 15.38,20.479 v 0 0 q 0.743,0 1.089,-0.431 v 0 0 q 0.345,-0.432 0.377,-1.466 v 0 -0.21 0 q 0,-1.143 -0.352,-1.638 v 0 0 q -0.352,-0.495 -1.146,-0.495 v 0 0 q -0.647,0 -1.006,0.549 v 0 0 q -0.359,0.549 -0.359,1.597 v 0 0 q 0,1.047 0.362,1.571 v 0 0 q 0.362,0.523 1.035,0.523 z m 8.626,-4.265 v 0 0 q -0.717,0 -1.047,0.441 v 0 0 q -0.33,0.441 -0.343,1.457 v 0 0.209 0 q 0,1.143 0.34,1.638 v 0 0 q 0.339,0.495 1.076,0.495 v 0 0 q 0.596,0 0.949,-0.549 v 0 0 q 0.352,-0.549 0.352,-1.596 v 0 0 q 0,-1.048 -0.355,-1.571 v 0 0 q -0.356,-0.524 -0.972,-0.524 z m 9.42,1.003 3.136,4.678 h -2.247 l -2.158,-3.51 -2.158,3.51 h -2.108 l 3.079,-4.786 -2.882,-4.494 h 2.171 l 1.999,3.339 1.962,-3.339 h 2.12 z m -18.725,4.805 v 0 0 q -1.251,0 -1.965,-0.971 v 0 0 Q 12.022,20.08 12.022,18.359 v 0 0 q 0,-1.745 0.727,-2.72 v 0 0 q 0.727,-0.974 2.002,-0.974 v 0 0 q 1.34,0 2.044,1.041 v 0 h 0.064 v 0 q -0.146,-0.793 -0.146,-1.415 v 0 -2.273 h 1.942 v 9.877 H 17.17 l -0.375,-0.92 h -0.082 v 0 q -0.66,1.047 -2.012,1.047 z m 9.927,-7.357 v 0 0 q 1.257,0 1.968,0.981 v 0 0 q 0.711,0.98 0.711,2.688 v 0 0 q 0,1.758 -0.733,2.723 v 0 0 q -0.733,0.965 -1.996,0.965 v 0 0 q -1.251,0 -1.962,-0.908 v 0 h -0.133 l -0.324,0.781 H 20.68 v -9.877 h 1.936 v 2.298 0 q 0,0.438 -0.076,1.403 v 0 h 0.076 v 0 q 0.679,-1.054 2.012,-1.054 z"
       inkscape:connector-curvature="0"
       style="fill:url(#_lgradient_0);fill-rule:evenodd" />
  </g>
</svg>
