<?xml version="1.0" encoding="UTF-8" standalone="no"?>
<!-- Generator: Gravit.io -->

<svg
   xmlns:dc="http://purl.org/dc/elements/1.1/"
   xmlns:cc="http://creativecommons.org/ns#"
   xmlns:rdf="http://www.w3.org/1999/02/22-rdf-syntax-ns#"
   xmlns:svg="http://www.w3.org/2000/svg"
   xmlns="http://www.w3.org/2000/svg"
   xmlns:sodipodi="http://sodipodi.sourceforge.net/DTD/sodipodi-0.dtd"
   xmlns:inkscape="http://www.inkscape.org/namespaces/inkscape"
   style="isolation:isolate"
   viewBox="0 0 36 36"
   width="48"
   height="48"
   version="1.1"
   id="svg28"
   sodipodi:docname="document-viewer.svg"
   inkscape:version="0.92.4 (5da689c313, 2019-01-14)">
  <metadata
     id="metadata34">
    <rdf:RDF>
      <cc:Work
         rdf:about="">
        <dc:format>image/svg+xml</dc:format>
        <dc:type
           rdf:resource="http://purl.org/dc/dcmitype/StillImage" />
        <dc:title></dc:title>
      </cc:Work>
    </rdf:RDF>
  </metadata>
  <defs
     id="defs32" />
  <sodipodi:namedview
     pagecolor="#ffffff"
     bordercolor="#666666"
     borderopacity="1"
     objecttolerance="10"
     gridtolerance="10"
     guidetolerance="10"
     inkscape:pageopacity="0"
     inkscape:pageshadow="2"
     inkscape:window-width="640"
     inkscape:window-height="480"
     id="namedview30"
     showgrid="false"
     inkscape:zoom="29.365243"
     inkscape:cx="25.325443"
     inkscape:cy="32"
     inkscape:current-layer="svg28"
     units="px" />
  <linearGradient
     id="_lgradient_8"
     x1="0.22078557"
     y1="0.047239967"
     x2="0.9022491"
     y2="0.90614605"
     gradientTransform="matrix(13.421,0,0,8,28.414,32)"
     gradientUnits="userSpaceOnUse">
    <stop
       offset="2.608695652173913%"
       stop-opacity="1"
       style="stop-color:rgb(237,184,212)"
       id="stop2" />
    <stop
       offset="98.69565217391305%"
       stop-opacity="1"
       style="stop-color:rgb(162,110,245)"
       id="stop4" />
  </linearGradient>
  <linearGradient
     id="_lgradient_9"
     x1="0.22078557"
     y1="0.047239967"
     x2="0.9022491"
     y2="0.90614605"
     gradientTransform="matrix(20,0,0,20,25.124,26)"
     gradientUnits="userSpaceOnUse">
    <stop
       offset="2.608695652173913%"
       stop-opacity="1"
       style="stop-color:rgb(237,184,212)"
       id="stop9" />
    <stop
       offset="98.69565217391305%"
       stop-opacity="1"
       style="stop-color:rgb(162,110,245)"
       id="stop11" />
  </linearGradient>
  <linearGradient
     id="_lgradient_10"
     x1="29.261122"
     y1="26.491774"
     x2="43.571712"
     y2="44.528618"
     gradientTransform="scale(0.99998993,1.0000101)"
     gradientUnits="userSpaceOnUse">
    <stop
       offset="2.608695652173913%"
       stop-opacity="1"
       style="stop-color:rgb(237,184,212)"
       id="stop14" />
    <stop
       offset="98.69565217391305%"
       stop-opacity="1"
       style="stop-color:rgb(162,110,245)"
       id="stop16" />
  </linearGradient>
  <linearGradient
     id="_lgradient_11"
     x1="0.22078557"
     y1="0.047239967"
     x2="0.9022491"
     y2="0.90614605"
     gradientTransform="matrix(38,0,0,44,2.876,2)"
     gradientUnits="userSpaceOnUse">
    <stop
       offset="2.608695652173913%"
       stop-opacity="1"
       style="stop-color:rgb(237,184,212)"
       id="stop21" />
    <stop
       offset="98.69565217391305%"
       stop-opacity="1"
       style="stop-color:rgb(162,110,245)"
       id="stop23" />
  </linearGradient>
  <g
     id="g844"
     transform="matrix(0.80898876,0,0,0.80898876,-1.6179774,-1.6179774)">
    <path
       id="path7"
       d="m 35.124,32 c -2.564,0 -4.889,1.403 -6.605,3.682 -0.14,0.186 -0.14,0.447 0,0.634 1.716,2.281 4.041,3.684 6.605,3.684 2.564,0 4.89,-1.403 6.606,-3.682 0.14,-0.186 0.14,-0.447 0,-0.634 C 40.014,33.403 37.688,32 35.124,32 Z m 0.184,6.817 c -1.702,0.107 -3.108,-1.296 -3.001,-3.001 0.088,-1.406 1.228,-2.545 2.633,-2.633 1.702,-0.107 3.108,1.296 3.001,3.001 -0.091,1.403 -1.23,2.542 -2.633,2.633 z m -0.085,-1.302 c -0.917,0.058 -1.675,-0.697 -1.614,-1.614 0.046,-0.758 0.661,-1.37 1.419,-1.419 0.917,-0.058 1.675,0.697 1.614,1.614 -0.049,0.761 -0.664,1.373 -1.419,1.419 z"
       style="fill:url(#_lgradient_8)"
       inkscape:connector-curvature="0" />
    <path
       id="path19"
       stroke-miterlimit="3"
       d="m 26.943,35.391 v 0 c -0.038,0.499 -0.475,0.875 -0.977,0.839 v 0 c -0.501,-0.037 -0.877,-0.474 -0.839,-0.975 v 0 c 0.186,-2.514 1.32,-4.869 3.172,-6.587 C 30.151,26.955 32.586,26 35.112,26 c 2.653,0 5.202,1.055 7.081,2.927 1.875,1.878 2.931,4.423 2.931,7.073 0,2.65 -1.056,5.195 -2.931,7.073 C 40.314,44.945 37.765,46 35.112,46 v 0 c -0.503,0 -0.91,-0.407 -0.91,-0.909 v 0 c 0,-0.502 0.407,-0.909 0.91,-0.909 v 0 c 2.171,0 4.255,-0.864 5.793,-2.396 1.534,-1.536 2.399,-3.618 2.399,-5.786 0,-2.168 -0.865,-4.25 -2.399,-5.786 -1.538,-1.532 -3.622,-2.396 -5.793,-2.396 -2.066,0 -4.06,0.777 -5.575,2.182 -1.516,1.405 -2.44,3.332 -2.594,5.391 z m 4.36,7.854 v 0 c 0.444,0.234 0.615,0.784 0.382,1.228 v 0 c -0.234,0.444 -0.784,0.615 -1.229,0.382 v 0 c -1.893,-0.996 -3.422,-2.573 -4.355,-4.496 v 0 c -0.221,-0.451 -0.034,-0.996 0.418,-1.216 v 0 c 0.453,-0.219 0.999,-0.031 1.22,0.421 v 0 c 0.765,1.577 2.012,2.863 3.564,3.681 z"
       style="vector-effect:non-scaling-stroke;fill:url(#_lgradient_9);fill-rule:evenodd;stroke:url(#_lgradient_10);stroke-width:1;stroke-linecap:square;stroke-linejoin:miter;stroke-miterlimit:3"
       inkscape:connector-curvature="0" />
    <path
       id="path26"
       d="m 21.876,42 v 0 c 1.104,0 2,0.896 2,2 v 0 c 0,1.104 -0.896,2 -2,2 v 0 h -14 c -2.76,0 -5,-2.24 -5,-5 V 7 c 0,-2.76 2.24,-5 5,-5 h 28 c 2.759,0 5,2.24 5,5 v 14 0 c 0,1.104 -0.896,2 -2,2 v 0 c -1.104,0 -2,-0.896 -2,-2 V 21 9 c 0,-1.656 -1.344,-3 -3,-3 h -24 c -1.656,0 -3,1.344 -3,3 v 30 c 0,1.656 1.344,3 3,3 z M 10.5,10 h 10.248 c 0.828,0 1.5,0.672 1.5,1.5 v 1 c 0,0.828 -0.672,1.5 -1.5,1.5 H 10.5 C 9.672,14 9,13.328 9,12.5 v -1 C 9,10.672 9.672,10 10.5,10 Z m 0,16 h 12.248 c 0.828,0 1.5,0.672 1.5,1.5 v 1 c 0,0.828 -0.672,1.5 -1.5,1.5 H 10.5 C 9.672,30 9,29.328 9,28.5 v -1 C 9,26.672 9.672,26 10.5,26 Z m 0,-8 h 18.248 c 0.828,0 1.5,0.672 1.5,1.5 v 1 c 0,0.828 -0.672,1.5 -1.5,1.5 H 10.5 C 9.672,22 9,21.328 9,20.5 v -1 C 9,18.672 9.672,18 10.5,18 Z"
       style="fill:url(#_lgradient_11);fill-rule:evenodd"
       inkscape:connector-curvature="0" />
  </g>
</svg>
