<?xml version="1.0" encoding="UTF-8" standalone="no"?>
<!-- Generator: Gravit.io -->

<svg
   xmlns:dc="http://purl.org/dc/elements/1.1/"
   xmlns:cc="http://creativecommons.org/ns#"
   xmlns:rdf="http://www.w3.org/1999/02/22-rdf-syntax-ns#"
   xmlns:svg="http://www.w3.org/2000/svg"
   xmlns="http://www.w3.org/2000/svg"
   xmlns:sodipodi="http://sodipodi.sourceforge.net/DTD/sodipodi-0.dtd"
   xmlns:inkscape="http://www.inkscape.org/namespaces/inkscape"
   style="isolation:isolate"
   viewBox="0 0 36 36"
   width="48"
   height="48"
   version="1.1"
   id="svg9"
   sodipodi:docname="draw.io.svg"
   inkscape:version="0.92.4 (5da689c313, 2019-01-14)">
  <metadata
     id="metadata15">
    <rdf:RDF>
      <cc:Work
         rdf:about="">
        <dc:format>image/svg+xml</dc:format>
        <dc:type
           rdf:resource="http://purl.org/dc/dcmitype/StillImage" />
        <dc:title></dc:title>
      </cc:Work>
    </rdf:RDF>
  </metadata>
  <defs
     id="defs13" />
  <sodipodi:namedview
     pagecolor="#ffffff"
     bordercolor="#666666"
     borderopacity="1"
     objecttolerance="10"
     gridtolerance="10"
     guidetolerance="10"
     inkscape:pageopacity="0"
     inkscape:pageshadow="2"
     inkscape:window-width="640"
     inkscape:window-height="480"
     id="namedview11"
     showgrid="false"
     inkscape:zoom="29.365243"
     inkscape:cx="25.325443"
     inkscape:cy="32"
     inkscape:current-layer="svg9"
     units="px" />
  <linearGradient
     id="_lgradient_60"
     x1="0"
     y1="0.5"
     x2="0.90748805"
     y2="0.92007786"
     gradientTransform="matrix(42,0,0,-42,3,45)"
     gradientUnits="userSpaceOnUse">
    <stop
       offset="0%"
       stop-opacity="1"
       style="stop-color:rgb(247,241,7)"
       id="stop2" />
    <stop
       offset="83.88839793817618%"
       stop-opacity="1"
       style="stop-color:rgb(255,187,36)"
       id="stop4" />
  </linearGradient>
  <g
     id="g826"
     transform="matrix(0.85714286,0,0,0.85714286,-2.5714286,-2.5714286)">
    <path
       id="path7"
       d="M 34.5,44.933 C 34.342,44.978 34.174,45 34,45 v 0 H 8 C 5.24,45 3,42.76 3,40 v -19 0 c 0,-1.104 0.896,-2 2,-2 v 0 c 1.104,0 2,0.896 2,2 v 0 0 0 17 c 0,1.656 1.344,3 3,3 h 24 v 0 c 0.174,0 0.342,0.022 0.5,0.067 C 34.658,41.022 34.826,41 35,41 v 0 h 3 c 1.656,0 3,-1.344 3,-3 v -3 0 c 0,-1.104 0.896,-2 2,-2 v 0 c 1.104,0 2,0.896 2,2 v 0 5 c 0,2.76 -2.24,5 -5,5 h -5 v 0 c -0.174,0 -0.342,-0.022 -0.5,-0.067 z M 13,7 v 0 c 1.104,0 2,-0.896 2,-2 V 5 C 15,3.896 14.104,3 13,3 V 3 H 8 C 5.24,3 3,5.24 3,8 v 5 0 c 0,1.104 0.896,2 2,2 v 0 c 1.104,0 2,-0.896 2,-2 v 0 -3 C 7,8.344 8.344,7 10,7 Z m 28,19 v 0 c 0,1.104 0.896,2 2,2 v 0 c 1.104,0 2,-0.896 2,-2 V 26 8 C 45,5.24 42.76,3 40,3 H 22 v 0 c -1.104,0 -2,0.896 -2,2 v 0 c 0,1.104 0.896,2 2,2 v 0 h 16 c 1.656,0 3,1.344 3,3 z m -23.767,0.6 2.914,-5.243 C 19.374,21.182 18.8,20.494 18.8,19.667 v -5.2 c 0,-0.961 0.773,-1.734 1.733,-1.734 v 0 h 6.934 c 0.96,0 1.733,0.773 1.733,1.734 v 5.2 c 0,0.926 -0.72,1.678 -1.633,1.73 l 2.601,5.203 v 0 h 5.099 c 0.96,0 1.733,0.773 1.733,1.733 v 5.2 c 0,0.961 -0.773,1.734 -1.733,1.734 h -6.934 c -0.96,0 -1.733,-0.773 -1.733,-1.734 v -5.2 c 0,-0.926 0.72,-1.679 1.633,-1.73 L 25.63,21.4 h -3.531 l -2.888,5.2 h 0.456 c 0.96,0 1.733,0.773 1.733,1.733 v 5.2 c 0,0.961 -0.773,1.734 -1.733,1.734 H 12.733 C 11.773,35.267 11,34.494 11,33.533 v -5.2 c 0,-0.96 0.773,-1.733 1.733,-1.733 v 0 z"
       inkscape:connector-curvature="0"
       style="fill:url(#_lgradient_60);fill-rule:evenodd" />
  </g>
</svg>
