<?xml version="1.0" encoding="UTF-8" standalone="no"?>
<!-- Generator: Gravit.io -->

<svg
   xmlns:dc="http://purl.org/dc/elements/1.1/"
   xmlns:cc="http://creativecommons.org/ns#"
   xmlns:rdf="http://www.w3.org/1999/02/22-rdf-syntax-ns#"
   xmlns:svg="http://www.w3.org/2000/svg"
   xmlns="http://www.w3.org/2000/svg"
   xmlns:sodipodi="http://sodipodi.sourceforge.net/DTD/sodipodi-0.dtd"
   xmlns:inkscape="http://www.inkscape.org/namespaces/inkscape"
   style="isolation:isolate"
   viewBox="0 0 36 36"
   width="48"
   height="48"
   version="1.1"
   id="svg9"
   sodipodi:docname="drive-optical.svg"
   inkscape:version="0.92.4 (5da689c313, 2019-01-14)">
  <metadata
     id="metadata15">
    <rdf:RDF>
      <cc:Work
         rdf:about="">
        <dc:format>image/svg+xml</dc:format>
        <dc:type
           rdf:resource="http://purl.org/dc/dcmitype/StillImage" />
        <dc:title></dc:title>
      </cc:Work>
    </rdf:RDF>
  </metadata>
  <defs
     id="defs13" />
  <sodipodi:namedview
     pagecolor="#ffffff"
     bordercolor="#666666"
     borderopacity="1"
     objecttolerance="10"
     gridtolerance="10"
     guidetolerance="10"
     inkscape:pageopacity="0"
     inkscape:pageshadow="2"
     inkscape:window-width="640"
     inkscape:window-height="480"
     id="namedview11"
     showgrid="false"
     inkscape:zoom="29.365243"
     inkscape:cx="25.325443"
     inkscape:cy="32"
     inkscape:current-layer="svg9"
     units="px" />
  <linearGradient
     id="_lgradient_18"
     x1="-3.8208334e-05"
     y1="0.50000006"
     x2="0.99996185"
     y2="0.50000006"
     gradientTransform="matrix(47,0,0,47,0.5,0.5)"
     gradientUnits="userSpaceOnUse">
    <stop
       offset="0%"
       stop-opacity="1"
       style="stop-color:rgb(211,0,220)"
       id="stop2" />
    <stop
       offset="100%"
       stop-opacity="1"
       style="stop-color:rgb(135,0,255)"
       id="stop4" />
  </linearGradient>
  <g
     id="g826"
     transform="matrix(0.76595745,0,0,0.76595745,-0.3829788,-0.3829788)">
    <path
       id="path7"
       d="m 24.154,14.001 -0.028,-2.5 v 0 c 3.265,0.033 6.404,1.349 8.714,3.659 2.34,2.34 3.66,5.53 3.66,8.84 0,3.31 -1.32,6.5 -3.66,8.84 -2.245,2.245 -5.273,3.552 -8.439,3.654 L 24.374,33.993 C 26.889,33.899 29.288,32.861 31.07,31.07 32.95,29.2 34,26.65 34,24 34,21.35 32.95,18.8 31.07,16.93 29.236,15.086 26.749,14.041 24.154,14.001 Z m 0.044,4.002 0.132,11.988 C 25.8,29.91 27.198,29.292 28.24,28.24 29.37,27.12 30,25.59 30,24 30,22.41 29.37,20.88 28.24,19.76 27.167,18.677 25.716,18.053 24.198,18.003 Z M 24.082,7.5 24.049,4.5 c 5.153,0.013 10.093,2.072 13.741,5.71 3.65,3.66 5.71,8.62 5.71,13.79 0,5.17 -2.06,10.13 -5.71,13.79 -3.547,3.537 -8.315,5.581 -13.312,5.704 v 0 0 l -0.033,-3 C 28.654,40.38 32.675,38.655 35.67,35.67 38.76,32.57 40.5,28.37 40.5,24 40.5,19.63 38.76,15.43 35.67,12.33 32.589,9.259 28.423,7.522 24.082,7.5 Z M 0.5,24 C 0.5,17.77 2.98,11.79 7.38,7.38 11.79,2.98 17.77,0.5 24,0.5 c 6.23,0 12.21,2.48 16.62,6.88 4.4,4.41 6.88,10.39 6.88,16.62 0,6.23 -2.48,12.21 -6.88,16.62 C 36.21,45.02 30.23,47.5 24,47.5 17.77,47.5 11.79,45.02 7.38,40.62 2.98,36.21 0.5,30.23 0.5,24 Z"
       inkscape:connector-curvature="0"
       style="fill:url(#_lgradient_18);fill-rule:evenodd" />
  </g>
</svg>
