<?xml version="1.0" encoding="UTF-8" standalone="no"?>
<!-- Generator: Gravit.io -->

<svg
   xmlns:dc="http://purl.org/dc/elements/1.1/"
   xmlns:cc="http://creativecommons.org/ns#"
   xmlns:rdf="http://www.w3.org/1999/02/22-rdf-syntax-ns#"
   xmlns:svg="http://www.w3.org/2000/svg"
   xmlns="http://www.w3.org/2000/svg"
   xmlns:sodipodi="http://sodipodi.sourceforge.net/DTD/sodipodi-0.dtd"
   xmlns:inkscape="http://www.inkscape.org/namespaces/inkscape"
   style="isolation:isolate"
   viewBox="0 0 36 36"
   width="48"
   height="48"
   version="1.1"
   id="svg16"
   sodipodi:docname="eclipse.svg"
   inkscape:version="0.92.4 (5da689c313, 2019-01-14)">
  <metadata
     id="metadata22">
    <rdf:RDF>
      <cc:Work
         rdf:about="">
        <dc:format>image/svg+xml</dc:format>
        <dc:type
           rdf:resource="http://purl.org/dc/dcmitype/StillImage" />
        <dc:title></dc:title>
      </cc:Work>
    </rdf:RDF>
  </metadata>
  <defs
     id="defs20" />
  <sodipodi:namedview
     pagecolor="#ffffff"
     bordercolor="#666666"
     borderopacity="1"
     objecttolerance="10"
     gridtolerance="10"
     guidetolerance="10"
     inkscape:pageopacity="0"
     inkscape:pageshadow="2"
     inkscape:window-width="640"
     inkscape:window-height="480"
     id="namedview18"
     showgrid="false"
     inkscape:zoom="29.365243"
     inkscape:cx="25.325443"
     inkscape:cy="32"
     inkscape:current-layer="svg16"
     units="px" />
  <linearGradient
     id="_lgradient_39"
     x1="-3.8208334e-05"
     y1="0.50000006"
     x2="0.99996185"
     y2="0.50000006"
     gradientTransform="matrix(39.273,0,0,39.273,7.727,4.364)"
     gradientUnits="userSpaceOnUse">
    <stop
       offset="0%"
       stop-opacity="1"
       style="stop-color:rgb(211,0,220)"
       id="stop2" />
    <stop
       offset="100%"
       stop-opacity="1"
       style="stop-color:rgb(135,0,255)"
       id="stop4" />
  </linearGradient>
  <linearGradient
     id="_lgradient_40"
     x1="0"
     y1="0.5"
     x2="1"
     y2="0.5"
     gradientTransform="matrix(23.5,0,0,42.204,1,2.796)"
     gradientUnits="userSpaceOnUse">
    <stop
       offset="0%"
       stop-opacity="1"
       style="stop-color:rgb(247,242,6)"
       id="stop9" />
    <stop
       offset="97.82608695652173%"
       stop-opacity="1"
       style="stop-color:rgb(255,187,36)"
       id="stop11" />
  </linearGradient>
  <g
     id="g831"
     transform="matrix(0.7826087,0,0,0.7826087,-0.7826088,-0.70278271)">
    <path
       id="path7"
       d="m 43.055,27.727 v 0 h 1.427 c 1.104,0 1.966,0.427 1.925,0.952 0,0 -0.191,0.951 -0.525,1.876 -1.364,3.827 -3.873,7.136 -7.182,9.481 -3.318,2.337 -7.282,3.6 -11.336,3.6 -5.164,0 -10.128,-2.036 -13.8,-5.663 C 9.891,34.336 7.791,29.4 7.727,24.236 v 0 c 0,-1.083 0.896,-1.963 2,-1.963 h 0.909 v 0 H 43.272 C 42.882,18.663 41.267,15.268 38.673,12.682 35.673,9.682 31.6,8 27.364,8 c -3.3,0 -6.528,1.018 -9.219,2.918 -2.161,1.528 -3.902,3.557 -5.08,5.9 v 0 h 24.844 c 1.004,0 1.818,0.815 1.818,1.818 v 0 c 0,1.004 -0.814,1.819 -1.818,1.819 H 11.682 v 0 0 H 10 c -1.104,0 -1.963,-0.415 -1.918,-0.927 0,0 0.308,-0.998 0.782,-2.128 1.363,-3.809 3.872,-7.118 7.181,-9.445 3.31,-2.337 7.264,-3.591 11.319,-3.591 0,0 0,0 0,0 v 0 c 5.209,0 10.2,2.072 13.881,5.745 C 44.927,13.791 47,18.791 47,24 c 0,0.009 0,0.018 0,0.036 L 46.991,24.7 47,25.909 h -1.833 v 0 0 H 11.478 c 0.433,3.575 2.059,6.923 4.64,9.473 2.991,2.954 7.037,4.618 11.246,4.618 3.309,0 6.536,-1.027 9.236,-2.936 2.096,-1.482 3.797,-3.44 4.968,-5.7 H 17 c -1.003,0 -1.818,-0.815 -1.818,-1.819 v 0 c 0,-1.003 0.815,-1.818 1.818,-1.818 z M 27.364,8 Z"
       style="fill:url(#_lgradient_39);fill-rule:evenodd"
       inkscape:connector-curvature="0" />
    <path
       id="path14"
       d="M 24.5,2.948 C 23.716,2.842 22.914,2.796 22.102,2.796 10.456,2.796 1,12.251 1,23.898 1,35.544 10.456,45 22.102,45 22.914,45 23.716,44.954 24.5,44.848 13.978,43.67 5.796,34.732 5.796,23.898 5.796,13.064 13.978,4.126 24.5,2.948 Z"
       style="fill:url(#_lgradient_40);fill-rule:evenodd"
       inkscape:connector-curvature="0" />
  </g>
</svg>
