<?xml version="1.0" encoding="UTF-8" standalone="no"?>
<!-- Generator: Gravit.io -->

<svg
   xmlns:dc="http://purl.org/dc/elements/1.1/"
   xmlns:cc="http://creativecommons.org/ns#"
   xmlns:rdf="http://www.w3.org/1999/02/22-rdf-syntax-ns#"
   xmlns:svg="http://www.w3.org/2000/svg"
   xmlns="http://www.w3.org/2000/svg"
   xmlns:sodipodi="http://sodipodi.sourceforge.net/DTD/sodipodi-0.dtd"
   xmlns:inkscape="http://www.inkscape.org/namespaces/inkscape"
   style="isolation:isolate"
   viewBox="0 0 36 36"
   width="48"
   height="48"
   version="1.1"
   id="svg9"
   sodipodi:docname="eddy.svg"
   inkscape:version="0.92.4 (5da689c313, 2019-01-14)">
  <metadata
     id="metadata15">
    <rdf:RDF>
      <cc:Work
         rdf:about="">
        <dc:format>image/svg+xml</dc:format>
        <dc:type
           rdf:resource="http://purl.org/dc/dcmitype/StillImage" />
        <dc:title></dc:title>
      </cc:Work>
    </rdf:RDF>
  </metadata>
  <defs
     id="defs13" />
  <sodipodi:namedview
     pagecolor="#ffffff"
     bordercolor="#666666"
     borderopacity="1"
     objecttolerance="10"
     gridtolerance="10"
     guidetolerance="10"
     inkscape:pageopacity="0"
     inkscape:pageshadow="2"
     inkscape:window-width="640"
     inkscape:window-height="480"
     id="namedview11"
     showgrid="false"
     inkscape:zoom="29.365243"
     inkscape:cx="25.325443"
     inkscape:cy="32"
     inkscape:current-layer="svg9"
     units="px" />
  <linearGradient
     id="_lgradient_2"
     x1="0"
     y1="0.5"
     x2="1"
     y2="0.5"
     gradientTransform="matrix(43,0,0,43,2.5,2.5)"
     gradientUnits="userSpaceOnUse">
    <stop
       offset="0%"
       stop-opacity="1"
       style="stop-color:rgb(255,229,59)"
       id="stop2" />
    <stop
       offset="98.69565217391305%"
       stop-opacity="1"
       style="stop-color:rgb(255,0,91)"
       id="stop4" />
  </linearGradient>
  <g
     id="g826"
     transform="matrix(0.8372093,0,0,0.8372093,-2.0930232,-2.0930232)">
    <path
       id="path7"
       d="m 45.5,10.5 v -5 c 0,-1.656 -1.344,-3 -3,-3 h -37 c -1.656,0 -3,1.344 -3,3 v 6.5 0 c 0,0.828 0.672,1.5 1.5,1.5 v 0 c 0.828,0 1.5,-0.672 1.5,-1.5 v 0 -5.5 c 0,-0.552 0.448,-1 1,-1 h 35 c 0.552,0 1,0.448 1,1 V 10 10.5 H 10 v 0 c -0.828,0 -1.5,0.672 -1.5,1.5 v 0 c 0,0.828 0.672,1.5 1.5,1.5 v 0 h 34 v 0 c 0.828,0 1.5,-1.344 1.5,-3 z M 31.334,26.805 c 0.023,0.626 -0.183,0.931 -0.369,1.468 L 30.63,28.44 c -0.274,0.532 0.027,0.338 -0.169,0.761 -0.428,0.38 -1.297,1.189 -1.576,1.263 -0.203,-0.004 0.138,-0.24 0.182,-0.332 -0.572,0.393 -0.459,0.59 -1.335,0.829 l -0.025,-0.057 c -2.158,1.016 -5.157,-0.997 -5.117,-3.742 -0.023,0.174 -0.066,0.13 -0.114,0.2 -0.111,-1.412 0.653,-2.831 1.941,-3.411 1.26,-0.624 2.737,-0.368 3.639,0.474 -0.495,-0.65 -1.482,-1.338 -2.651,-1.274 -1.145,0.018 -2.217,0.746 -2.575,1.537 -0.587,0.369 -0.655,1.424 -0.911,1.617 -0.344,2.529 0.647,3.621 2.325,4.907 0.263,0.178 0.074,0.205 0.109,0.34 -0.557,-0.261 -1.067,-0.654 -1.487,-1.137 0.223,0.326 0.463,0.643 0.774,0.891 -0.526,-0.177 -1.228,-1.273 -1.432,-1.317 0.905,1.621 3.674,2.844 5.124,2.237 -0.671,0.025 -1.523,0.014 -2.277,-0.265 -0.317,-0.163 -0.747,-0.5 -0.67,-0.563 1.978,0.739 4.022,0.559 5.733,-0.813 0.436,-0.339 0.912,-0.916 1.05,-0.924 -0.207,0.312 0.035,0.15 -0.124,0.425 0.433,-0.7 -0.189,-0.285 0.448,-1.209 l 0.236,0.324 c -0.089,-0.581 0.721,-1.287 0.639,-2.205 0.186,-0.281 0.207,0.302 0.01,0.948 0.273,-0.717 0.072,-0.832 0.142,-1.424 0.076,0.199 0.176,0.41 0.227,0.621 -0.178,-0.694 0.182,-1.167 0.272,-1.57 -0.089,-0.039 -0.275,0.306 -0.318,-0.512 0.006,-0.356 0.099,-0.186 0.135,-0.274 -0.07,-0.04 -0.253,-0.313 -0.364,-0.835 0.08,-0.124 0.215,0.318 0.325,0.336 -0.071,-0.415 -0.192,-0.732 -0.197,-1.051 -0.322,-0.671 -0.114,0.089 -0.374,-0.288 -0.342,-1.066 0.283,-0.248 0.326,-0.732 0.518,0.75 0.813,1.914 0.949,2.395 -0.104,-0.587 -0.271,-1.156 -0.476,-1.707 0.158,0.067 -0.253,-1.208 0.205,-0.364 -0.489,-1.8 -2.093,-3.481 -3.568,-4.27 0.18,0.165 0.407,0.372 0.326,0.405 -0.734,-0.437 -0.605,-0.471 -0.71,-0.656 -0.598,-0.243 -0.638,0.02 -1.033,10e-4 C 27.117,17.421 26.9,17.484 25.863,17.11 l 0.047,0.221 c -0.747,-0.249 -0.87,0.094 -1.677,0 -0.049,-0.038 0.259,-0.138 0.512,-0.175 -0.722,0.095 -0.688,-0.143 -1.394,0.026 0.174,-0.122 0.358,-0.203 0.544,-0.307 -0.589,0.036 -1.406,0.343 -1.154,0.064 -0.96,0.428 -2.665,1.03 -3.622,1.927 l -0.03,-0.201 c -0.438,0.526 -1.912,1.572 -2.029,2.254 l -0.118,0.027 c -0.227,0.386 -0.375,0.824 -0.556,1.221 -0.299,0.509 -0.438,0.196 -0.395,0.276 -0.587,1.19 -0.879,2.19 -1.131,3.01 0.18,0.268 0.005,1.615 0.072,2.692 -0.294,5.324 3.736,10.492 8.142,11.685 0.646,0.231 1.606,0.223 2.422,0.246 -0.963,-0.276 -1.087,-0.146 -2.027,-0.473 -0.677,-0.32 -0.825,-0.684 -1.305,-1.1 l 0.19,0.336 c -0.94,-0.333 -0.547,-0.412 -1.312,-0.655 L 21.245,37.92 C 20.94,37.896 20.437,37.406 20.3,37.134 l -0.334,0.013 C 19.565,36.653 19.352,36.296 19.367,36.02 l -0.107,0.192 c -0.122,-0.21 -1.475,-1.855 -0.773,-1.472 -0.131,-0.118 -0.304,-0.193 -0.492,-0.535 l 0.143,-0.163 c -0.337,-0.435 -0.622,-0.991 -0.6,-1.177 0.18,0.243 0.305,0.289 0.429,0.33 -0.853,-2.115 -0.901,-0.116 -1.546,-2.153 l 0.136,-0.011 c -0.104,-0.158 -0.168,-0.329 -0.252,-0.497 l 0.059,-0.592 c -0.613,-0.709 -0.171,-3.017 -0.082,-4.283 0.061,-0.515 0.512,-1.063 0.855,-1.922 l -0.209,-0.036 c 0.4,-0.697 2.281,-2.798 3.152,-2.691 0.423,-0.53 -0.083,-0.002 -0.166,-0.135 0.927,-0.959 1.219,-0.678 1.845,-0.851 0.674,-0.4 -0.58,0.157 -0.26,-0.152 1.167,-0.298 0.827,-0.678 2.349,-0.829 0.16,0.092 -0.373,0.141 -0.507,0.26 0.972,-0.476 3.076,-0.367 4.443,0.264 1.585,0.741 3.367,2.931 3.438,4.992 l 0.08,0.022 c -0.041,0.819 0.125,1.766 -0.163,2.637 z M 42.5,18 v 0 c 0,-0.828 0.672,-1.5 1.5,-1.5 v 0 c 0.828,0 1.5,0.672 1.5,1.5 v 0 24.5 c 0,1.656 -1.344,3 -3,3 h -37 c -1.656,0 -3,-1.344 -3,-3 V 18 18 c 0,-0.828 0.672,-1.5 1.5,-1.5 v 0 c 0.828,0 1.5,0.672 1.5,1.5 v 0 23.5 c 0,0.552 0.448,1 1,1 h 35 c 0.552,0 1,-0.448 1,-1 z"
       inkscape:connector-curvature="0"
       style="fill:url(#_lgradient_2);fill-rule:evenodd" />
  </g>
</svg>
