<?xml version="1.0" encoding="UTF-8" standalone="no"?>
<!-- Generator: Gravit.io -->

<svg
   xmlns:dc="http://purl.org/dc/elements/1.1/"
   xmlns:cc="http://creativecommons.org/ns#"
   xmlns:rdf="http://www.w3.org/1999/02/22-rdf-syntax-ns#"
   xmlns:svg="http://www.w3.org/2000/svg"
   xmlns="http://www.w3.org/2000/svg"
   xmlns:sodipodi="http://sodipodi.sourceforge.net/DTD/sodipodi-0.dtd"
   xmlns:inkscape="http://www.inkscape.org/namespaces/inkscape"
   style="isolation:isolate"
   viewBox="0 0 36 36"
   width="48"
   height="48"
   version="1.1"
   id="svg9"
   sodipodi:docname="electron.svg"
   inkscape:version="0.92.4 (5da689c313, 2019-01-14)">
  <metadata
     id="metadata15">
    <rdf:RDF>
      <cc:Work
         rdf:about="">
        <dc:format>image/svg+xml</dc:format>
        <dc:type
           rdf:resource="http://purl.org/dc/dcmitype/StillImage" />
        <dc:title></dc:title>
      </cc:Work>
    </rdf:RDF>
  </metadata>
  <defs
     id="defs13" />
  <sodipodi:namedview
     pagecolor="#ffffff"
     bordercolor="#666666"
     borderopacity="1"
     objecttolerance="10"
     gridtolerance="10"
     guidetolerance="10"
     inkscape:pageopacity="0"
     inkscape:pageshadow="2"
     inkscape:window-width="640"
     inkscape:window-height="480"
     id="namedview11"
     showgrid="false"
     inkscape:zoom="5.4444145"
     inkscape:cx="136.59646"
     inkscape:cy="172.59666"
     inkscape:current-layer="svg9" />
  <linearGradient
     id="_lgradient_2"
     x1="0"
     y1="0.5"
     x2="1"
     y2="0.5"
     gradientTransform="scale(258.895)"
     gradientUnits="userSpaceOnUse">
    <stop
       offset="0%"
       stop-opacity="1"
       style="stop-color:rgb(24,208,173)"
       id="stop2" />
    <stop
       offset="90.44964029999998%"
       stop-opacity="1"
       style="stop-color:rgb(7,195,242)"
       id="stop4" />
  </linearGradient>
  <g
     id="g826"
     transform="scale(0.13905251)">
    <path
       id="path7"
       d="m 129.15,43.219 c 3.423,0.002 6.262,2.649 6.504,6.064 -0.04,0.265 -0.046,0.533 -0.02,0.8 -0.191,3.446 -3.032,6.148 -6.484,6.163 -1.73,0 -3.389,-0.687 -4.613,-1.91 -1.223,-1.224 -1.91,-2.883 -1.91,-4.613 0.011,-3.595 2.928,-6.504 6.523,-6.504 z m 47.827,29.116 c -1.937,-0.053 -3.875,0.014 -5.803,0.201 -1.163,0.117 -2.174,0.845 -2.653,1.911 -0.48,1.065 -0.354,2.306 0.33,3.253 0.684,0.948 1.821,1.458 2.983,1.339 13.608,-1.401 24.154,3.902 28.016,13.408 3.842,9.485 1.301,24.433 -14.548,43.164 -0.808,0.883 -1.068,2.138 -0.677,3.269 0.391,1.131 1.371,1.957 2.552,2.152 1.181,0.195 2.374,-0.273 3.107,-1.219 16.73,-19.771 20.692,-37.261 15.609,-49.828 -4.482,-11.006 -15.689,-17.329 -28.936,-17.67 z m -90.951,0.201 c -15.869,0.28 -26.715,5.203 -32.658,13.247 -7.905,10.726 -6.044,25.815 2.661,39.362 1.009,1.422 2.957,1.8 4.424,0.858 1.466,-0.943 1.933,-2.871 1.059,-4.38 -7.764,-12.067 -8.765,-24.013 -2.901,-31.978 5.883,-7.964 19.591,-13.127 43.964,-9.325 1.169,0.217 2.362,-0.219 3.116,-1.137 0.754,-0.919 0.949,-2.174 0.509,-3.278 -0.44,-1.104 -1.445,-1.881 -2.624,-2.029 -5.801,-0.942 -11.673,-1.384 -17.55,-1.32 z m 43.124,42.363 c -3.462,-0.005 -6.784,1.368 -9.232,3.816 -2.448,2.448 -3.82,5.77 -3.815,9.232 0.005,3.455 1.383,6.766 3.83,9.206 2.446,2.439 5.762,3.806 9.217,3.801 7.179,-0.011 12.996,-5.828 13.007,-13.007 0.006,-3.455 -1.362,-6.771 -3.801,-9.218 -2.439,-2.447 -5.751,-3.824 -9.206,-3.83 z m -71.7,52.15 c 3.595,0 6.513,2.908 6.524,6.503 0,1.73 -0.688,3.39 -1.911,4.613 -1.224,1.224 -2.883,1.911 -4.613,1.911 -3.595,-0.011 -6.504,-2.929 -6.504,-6.524 0.011,-3.587 2.917,-6.492 6.504,-6.503 z m 143.38,0 c 3.588,0.011 6.493,2.916 6.504,6.503 0,3.595 -2.908,6.513 -6.504,6.524 -1.73,0 -3.389,-0.687 -4.613,-1.911 -1.223,-1.223 -1.91,-2.883 -1.91,-4.613 0.011,-3.595 2.928,-6.503 6.523,-6.503 z m -107.82,9.705 c -0.976,0.081 -1.863,0.596 -2.418,1.403 -0.554,0.806 -0.717,1.82 -0.444,2.759 0,0 2.542,9.366 8.545,18.811 6.003,9.425 15.929,19.431 30.457,19.431 19.131,0 30.217,-21.212 30.217,-21.212 0.605,-1.022 0.608,-2.292 0.006,-3.316 -0.602,-1.023 -1.713,-1.639 -2.9,-1.607 -1.187,0.032 -2.263,0.707 -2.809,1.761 0,0 -10.506,17.87 -24.534,17.87 -11.526,0 -19.531,-7.924 -24.934,-16.409 -5.403,-8.485 -7.764,-17.03 -7.764,-17.03 -0.359,-1.418 -1.619,-2.425 -3.082,-2.461 -0.113,-0.006 -0.227,-0.006 -0.34,0 z M 129.15,36.695 c -3.462,-0.005 -6.784,1.368 -9.232,3.816 -2.448,2.448 -3.82,5.77 -3.815,9.232 0.005,3.455 1.383,6.766 3.83,9.206 2.446,2.439 5.762,3.806 9.217,3.801 5.161,-0.007 9.83,-3.06 11.907,-7.784 15.649,11.166 23.453,32.878 26.014,55.931 2.802,24.814 -0.52,50.909 -5.182,64.877 -0.568,1.712 0.359,3.561 2.071,4.13 1.713,0.568 3.562,-0.358 4.132,-2.069 5.103,-15.349 8.365,-41.804 5.463,-67.678 C 170.734,84.943 161.949,60.009 142.017,47.842 141.076,41.458 135.603,36.726 129.15,36.715 Z m 22.353,37.782 c -0.134,-0.008 -0.267,-0.008 -0.4,0 -0.184,0.024 -0.364,0.065 -0.541,0.12 -25.523,6.128 -49.321,17.972 -69.599,34.639 -19.211,16.009 -32.818,35.56 -33.218,55.651 -2.134,2.383 -3.316,5.467 -3.322,8.665 0,3.459 1.375,6.775 3.822,9.219 2.448,2.444 5.766,3.814 9.225,3.809 7.187,-0.011 13.007,-5.841 13.007,-13.028 0.006,-3.455 -1.362,-6.77 -3.801,-9.217 -2.44,-2.447 -5.751,-3.825 -9.206,-3.83 -0.956,0.002 -1.909,0.109 -2.842,0.32 2.022,-15.929 13.608,-32.518 30.497,-46.606 19.517,-15.993 42.391,-27.376 66.918,-33.299 1.596,-0.351 2.687,-1.829 2.55,-3.458 -0.137,-1.629 -1.458,-2.905 -3.09,-2.985 z m -80.986,61.894 c -1.327,-0.02 -2.534,0.766 -3.052,1.987 -0.519,1.222 -0.246,2.636 0.691,3.577 19.931,20.611 44.745,35.82 68.078,43.744 22.853,7.764 44.465,8.685 58.893,-0.4 1.776,0.867 3.727,1.319 5.703,1.321 3.459,0 6.776,-1.376 9.219,-3.823 2.444,-2.447 3.814,-5.766 3.809,-9.225 0,-3.455 -1.373,-6.768 -3.816,-9.211 -2.443,-2.443 -5.757,-3.816 -9.212,-3.816 -3.458,-0.005 -6.777,1.365 -9.224,3.809 -2.448,2.443 -3.823,5.76 -3.823,9.218 0.008,2.541 0.76,5.025 2.161,7.144 -11.906,6.324 -30.837,5.864 -51.629,-1.2 -22.252,-7.545 -46.306,-22.293 -65.476,-42.084 -0.601,-0.647 -1.439,-1.022 -2.322,-1.041 z M 128.936,21.039 c 28.618,0 56.063,11.368 76.299,31.604 20.236,20.236 31.605,47.682 31.605,76.3 0,28.618 -11.369,56.064 -31.605,76.3 -20.236,20.236 -47.681,31.605 -76.299,31.605 -28.618,0 -56.064,-11.369 -76.3,-31.605 -20.236,-20.236 -31.605,-47.682 -31.605,-76.3 0,-28.618 11.369,-56.064 31.605,-76.3 20.236,-20.236 47.682,-31.604 76.3,-31.604 z M 129.447,0 C 95.116,0 62.19,13.638 37.914,37.914 13.638,62.19 0,95.116 0,129.447 c 0,34.332 13.638,67.257 37.914,91.533 24.276,24.276 57.202,37.915 91.533,37.915 34.332,0 67.257,-13.639 91.533,-37.915 24.276,-24.276 37.915,-57.201 37.915,-91.533 0,-34.331 -13.639,-67.257 -37.915,-91.533 C 196.704,13.638 163.779,0 129.447,0 Z"
       style="fill:url(#_lgradient_2);fill-rule:evenodd"
       inkscape:connector-curvature="0" />
  </g>
</svg>
