<?xml version="1.0" encoding="UTF-8" standalone="no"?>
<!-- Generator: Gravit.io -->

<svg
   xmlns:dc="http://purl.org/dc/elements/1.1/"
   xmlns:cc="http://creativecommons.org/ns#"
   xmlns:rdf="http://www.w3.org/1999/02/22-rdf-syntax-ns#"
   xmlns:svg="http://www.w3.org/2000/svg"
   xmlns="http://www.w3.org/2000/svg"
   xmlns:sodipodi="http://sodipodi.sourceforge.net/DTD/sodipodi-0.dtd"
   xmlns:inkscape="http://www.inkscape.org/namespaces/inkscape"
   style="isolation:isolate"
   viewBox="0 0 36 36"
   width="48"
   height="48"
   version="1.1"
   id="svg11"
   sodipodi:docname="epiphany.svg"
   inkscape:version="0.92.4 (5da689c313, 2019-01-14)">
  <metadata
     id="metadata17">
    <rdf:RDF>
      <cc:Work
         rdf:about="">
        <dc:format>image/svg+xml</dc:format>
        <dc:type
           rdf:resource="http://purl.org/dc/dcmitype/StillImage" />
        <dc:title></dc:title>
      </cc:Work>
    </rdf:RDF>
  </metadata>
  <defs
     id="defs15" />
  <sodipodi:namedview
     pagecolor="#ffffff"
     bordercolor="#666666"
     borderopacity="1"
     objecttolerance="10"
     gridtolerance="10"
     guidetolerance="10"
     inkscape:pageopacity="0"
     inkscape:pageshadow="2"
     inkscape:window-width="640"
     inkscape:window-height="480"
     id="namedview13"
     showgrid="false"
     inkscape:zoom="29.365243"
     inkscape:cx="25.325443"
     inkscape:cy="32"
     inkscape:current-layer="svg11"
     units="px" />
  <linearGradient
     id="_lgradient_1"
     x1="0"
     y1="0.5"
     x2="1"
     y2="0.5"
     gradientTransform="matrix(47,0,0,47,0.5,0.5)"
     gradientUnits="userSpaceOnUse">
    <stop
       offset="0%"
       stop-opacity="1"
       style="stop-color:rgb(84,51,255)"
       id="stop2" />
    <stop
       offset="51.73913043478261%"
       stop-opacity="1"
       style="stop-color:rgb(32,189,255)"
       id="stop4" />
    <stop
       offset="98.26086956521739%"
       stop-opacity="1"
       style="stop-color:rgb(165,254,203)"
       id="stop6" />
  </linearGradient>
  <g
     id="g825"
     transform="matrix(0.76595745,0,0,0.76595745,-0.3829788,-0.3829788)">
    <path
       id="path9"
       d="M 24,4 C 21.099,4 18.354,4.623 15.871,5.725 L 19,8 v 2.666 L 21.334,13 H 23 V 11.699 L 25,10 V 8.666 L 26,7.334 V 4.1 C 25.342,4.035 24.675,4 24,4 Z M 10.775,9 C 6.926,12.393 4.392,17.237 4.045,22.705 L 11,28.666 v -2 l -1.666,-1.332 2,-2.301 h 1.332 L 14,24.365 14.041,21.865 16,20 h 1 v -1.334 l 2,-1.332 v -2 L 17.242,14.041 14,14 v 3 H 12.666 L 11,15.334 V 14 l 2.334,-2 H 15 V 10.666 L 14,9 Z M 34,10 32,12 v 1.033 h 2 V 12.02 h 1.033 v 2.322 L 34.365,15 H 31 v 1 h -1 v 2 h -3 v 2.967 h 4 v -0.934 h 2 v 0.666 l 1.666,1.334 H 35 V 21.365 L 34.666,20.699 V 20.033 H 36 L 38,22 h 2 v 0.301 L 39.334,23 H 38 l 5.545,5.236 C 43.837,26.871 44,25.456 44,24 44,18.535 41.823,13.603 38.295,10 h -3.629 z m 4,13 H 34 L 33,22 H 28.666 L 26,24.666 v 2.668 L 28.666,30 h 2 L 32,31.334 V 32 l 1,0.666 v 4 l 3.053,3.289 C 37.549,38.825 38.876,37.493 40,35.992 V 31.334 L 41,30 v -2.666 l -3,-3.033 z m -19.83,1 c -0.192,0.005 -0.376,0.076 -0.519,0.202 L 5.272,34.045 c -0.514,0.449 -0.258,1.282 0.423,1.377 l 4.8,0.678 -2.249,3.896 c -0.503,0.871 -0.205,1.978 0.666,2.481 l 0.482,0.279 c 0.871,0.503 1.977,0.205 2.48,-0.666 l 2.336,-4.047 3.423,2.775 c 0.527,0.429 1.325,0.062 1.326,-0.609 L 19,24.795 C 19.001,24.349 18.626,23.989 18.17,24 Z M 4.42,30.09 v 0 c 0.243,0.789 -0.201,1.629 -0.99,1.875 v 0 C 2.641,32.211 1.803,31.769 1.56,30.98 v 0 C 0.85,28.72 0.5,26.37 0.5,24 0.5,17.77 2.98,11.79 7.38,7.38 11.79,2.98 17.77,0.5 24,0.5 c 6.23,0 12.21,2.48 16.62,6.88 4.4,4.41 6.88,10.39 6.88,16.62 0,6.23 -2.48,12.21 -6.88,16.62 -4.41,4.4 -10.39,6.88 -16.62,6.88 -2.46,0 -4.91,-0.38 -7.26,-1.14 v 0 c -0.789,-0.259 -1.222,-1.109 -0.965,-1.895 v 0 c 0.257,-0.786 1.106,-1.219 1.895,-0.965 v 0 c 2.04,0.66 4.18,1 6.33,1 5.43,0 10.65,-2.16 14.5,-6 3.84,-3.85 6,-9.07 6,-14.5 0,-5.43 -2.16,-10.65 -6,-14.5 -3.85,-3.84 -9.07,-6 -14.5,-6 -5.43,0 -10.65,2.16 -14.5,6 -3.84,3.85 -6,9.07 -6,14.5 0,2.06 0.31,4.12 0.92,6.09 z"
       inkscape:connector-curvature="0"
       style="fill:url(#_lgradient_1);fill-rule:evenodd" />
  </g>
</svg>
