<?xml version="1.0" encoding="UTF-8" standalone="no"?>
<!-- Generator: Gravit.io -->

<svg
   xmlns:dc="http://purl.org/dc/elements/1.1/"
   xmlns:cc="http://creativecommons.org/ns#"
   xmlns:rdf="http://www.w3.org/1999/02/22-rdf-syntax-ns#"
   xmlns:svg="http://www.w3.org/2000/svg"
   xmlns="http://www.w3.org/2000/svg"
   xmlns:sodipodi="http://sodipodi.sourceforge.net/DTD/sodipodi-0.dtd"
   xmlns:inkscape="http://www.inkscape.org/namespaces/inkscape"
   style="isolation:isolate"
   viewBox="0 0 36 36"
   width="48"
   height="48"
   version="1.1"
   id="svg37"
   sodipodi:docname="falkon.svg"
   inkscape:version="0.92.4 (5da689c313, 2019-01-14)">
  <metadata
     id="metadata43">
    <rdf:RDF>
      <cc:Work
         rdf:about="">
        <dc:format>image/svg+xml</dc:format>
        <dc:type
           rdf:resource="http://purl.org/dc/dcmitype/StillImage" />
        <dc:title></dc:title>
      </cc:Work>
    </rdf:RDF>
  </metadata>
  <defs
     id="defs41" />
  <sodipodi:namedview
     pagecolor="#ffffff"
     bordercolor="#666666"
     borderopacity="1"
     objecttolerance="10"
     gridtolerance="10"
     guidetolerance="10"
     inkscape:pageopacity="0"
     inkscape:pageshadow="2"
     inkscape:window-width="640"
     inkscape:window-height="480"
     id="namedview39"
     showgrid="false"
     inkscape:zoom="29.365243"
     inkscape:cx="25.325443"
     inkscape:cy="32"
     inkscape:current-layer="svg37"
     units="px" />
  <linearGradient
     id="_lgradient_80"
     x1="0.22078557"
     y1="0.047239967"
     x2="0.9022491"
     y2="0.90614605"
     gradientTransform="matrix(44.072,0,0,44,2,2)"
     gradientUnits="userSpaceOnUse">
    <stop
       offset="2.608695652173913%"
       stop-opacity="1"
       style="stop-color:rgb(237,184,212)"
       id="stop2" />
    <stop
       offset="98.69565217391305%"
       stop-opacity="1"
       style="stop-color:rgb(162,110,245)"
       id="stop4" />
  </linearGradient>
  <linearGradient
     id="_lgradient_81"
     x1="0.22078557"
     y1="0.047239967"
     x2="0.9022491"
     y2="0.90614605"
     gradientTransform="matrix(4.97,0,0,3.727,26.132,10.523)"
     gradientUnits="userSpaceOnUse">
    <stop
       offset="2.608695652173913%"
       stop-opacity="1"
       style="stop-color:rgb(237,184,212)"
       id="stop9" />
    <stop
       offset="98.69565217391305%"
       stop-opacity="1"
       style="stop-color:rgb(162,110,245)"
       id="stop11" />
  </linearGradient>
  <linearGradient
     id="_lgradient_82"
     x1="0"
     y1="0.5"
     x2="0.90748805"
     y2="0.92007786"
     gradientTransform="matrix(33.938,0,0,24.372,3.835,19.557)"
     gradientUnits="userSpaceOnUse">
    <stop
       offset="0%"
       stop-opacity="1"
       style="stop-color:rgb(247,241,7)"
       id="stop16" />
    <stop
       offset="83.88839793817618%"
       stop-opacity="1"
       style="stop-color:rgb(255,187,36)"
       id="stop18" />
  </linearGradient>
  <linearGradient
     id="_lgradient_83"
     x1="0"
     y1="0.5"
     x2="0.90748805"
     y2="0.92007786"
     gradientTransform="matrix(9.764,0,0,2.119,8.428,5.415)"
     gradientUnits="userSpaceOnUse">
    <stop
       offset="0%"
       stop-opacity="1"
       style="stop-color:rgb(247,241,7)"
       id="stop23" />
    <stop
       offset="83.88839793817618%"
       stop-opacity="1"
       style="stop-color:rgb(255,187,36)"
       id="stop25" />
  </linearGradient>
  <linearGradient
     id="_lgradient_84"
     x1="0"
     y1="0.5"
     x2="0.90748805"
     y2="0.92007786"
     gradientTransform="matrix(22.592,0,0,9.937,3.54,15.522)"
     gradientUnits="userSpaceOnUse">
    <stop
       offset="0%"
       stop-opacity="1"
       style="stop-color:rgb(247,241,7)"
       id="stop30" />
    <stop
       offset="83.88839793817618%"
       stop-opacity="1"
       style="stop-color:rgb(255,187,36)"
       id="stop32" />
  </linearGradient>
  <g
     id="g855"
     transform="matrix(0.81685031,0,0,0.81685031,-1.6337007,-1.6044074)">
    <path
       id="path7"
       d="M 2,35.08 V 35.04 C 2,35.03 2,35.03 2,35.02 2.01,33.24 2.23,31.47 2.64,29.73 2.89,28.66 3.2,27.59 3.55,26.54 3.17,26.51 2.82,26.34 2.57,26.06 2.31,25.78 2.17,25.41 2.17,25.04 2.12,24.85 2.1,24.66 2.1,24.46 2.09,24.43 2.1,24.4 2.1,24.37 V 24.23 C 2.11,24.2 2.11,24.18 2.11,24.16 2.28,22.33 2.6,20.53 3.05,18.75 3.54,16.73 4.26,14.77 5.18,12.91 5.65,11.98 6.2,11.09 6.82,10.25 7.43,9.42 8.14,8.67 8.94,8.02 9.22,7.79 9.52,7.57 9.83,7.37 7.44,7.13 5.05,7.04 2.65,7.11 6.02,4.9 9.77,3.35 13.71,2.53 15.43,2.18 17.17,2 18.92,2 c 0.01,0 0.01,0 0.01,0 h 0.08 c 2.14,0 4.27,0.32 6.33,0.94 1.72,0.53 3.36,1.28 4.9,2.21 1.25,0.77 2.42,1.64 3.51,2.61 0.76,0.67 1.48,1.38 2.18,2.12 0.15,0.16 0.29,0.31 0.44,0.46 1.21,0.28 2.39,0.71 3.49,1.27 1.11,0.57 2.13,1.29 3.03,2.14 0.83,0.78 1.53,1.68 2.09,2.68 0.81,1.47 1.19,3.14 1.07,4.82 -1.2,-0.1 -2.4,-0.14 -3.6,-0.14 -1.67,0 -3.33,0.09 -4.99,0.28 -0.89,0.24 -1.76,0.59 -2.58,1.02 -0.58,0.31 -1.1,0.7 -1.54,1.18 -0.33,0.35 -0.58,0.76 -0.75,1.21 -0.16,0.45 -0.25,0.92 -0.26,1.4 v 0.16 c 0.01,0.51 0.08,1.02 0.21,1.51 0.15,0.58 0.34,1.14 0.59,1.68 0.55,1.2 1.23,2.34 2.01,3.4 1.52,2.09 3.26,4.01 5.21,5.7 C 35.45,43.36 28.92,45.99 22.14,46 16.57,45.99 11.14,44.22 6.64,40.93 6.61,40.91 6.58,40.89 6.55,40.86 6.54,40.85 6.52,40.84 6.51,40.83 6.35,40.71 6.18,40.62 5.99,40.55 5.8,40.48 5.6,40.43 5.39,40.38 4.97,40.3 4.55,40.17 4.15,40 3.43,39.67 2.81,39.14 2.37,38.47 2.35,37.99 2.29,37.51 2.22,37.04 2.17,36.68 2.12,36.33 2.08,35.97 2.04,35.7 2.01,35.42 2,35.14 2,35.12 2,35.1 2,35.08 Z m 7.51,4.18 C 9.64,38.94 9.65,38.58 9.53,38.24 9.42,37.91 9.2,37.63 8.9,37.44 8.6,37.26 8.24,37.19 7.9,37.24 7.55,37.29 7.23,37.46 7,37.72 c -0.01,0 -0.02,0 -0.03,-0.01 0.58,-0.92 1.2,-1.8 1.87,-2.66 0.53,0.55 0.88,1.25 1.01,2 0.12,0.76 0,1.53 -0.33,2.22 0,0 -0.01,0 -0.01,-0.01 z M 6.97,37.71 C 6.65,37.6 6.31,37.51 5.98,37.44 5.77,37.4 5.57,37.34 5.38,37.27 5.34,37.25 5.31,37.23 5.27,37.2 5.25,37 5.22,36.8 5.19,36.6 5.14,36.25 5.09,35.91 5.05,35.56 5.02,35.39 5.01,35.22 5,35.05 v -0.01 c 0.01,-1.55 0.2,-3.1 0.56,-4.62 0.46,-1.94 1.09,-3.84 1.89,-5.67 0.17,-0.31 0.32,-0.63 0.47,-0.96 0.03,-0.07 0.06,-0.15 0.1,-0.22 0.28,-0.24 0.54,-0.49 0.8,-0.74 0.4,-0.4 0.79,-0.8 1.18,-1.21 l 0.34,-0.35 c 0.47,-0.48 0.55,-1.22 0.21,-1.8 C 10.22,18.89 9.53,18.6 8.88,18.78 8.45,18.89 8.02,19.02 7.6,19.17 7.26,19.3 6.95,19.48 6.67,19.7 c -0.26,0.2 -0.51,0.42 -0.75,0.65 -0.07,0.07 -0.14,0.13 -0.21,0.2 0.07,-0.36 0.16,-0.72 0.25,-1.08 0.44,-1.8 1.08,-3.56 1.9,-5.22 0.39,-0.78 0.85,-1.52 1.37,-2.21 0.46,-0.63 1.01,-1.2 1.61,-1.7 0.56,-0.46 1.18,-0.82 1.85,-1.07 0.69,-0.26 1.42,-0.39 2.16,-0.39 0.76,0 1.52,0.12 2.25,0.35 C 17.6,8.88 17.9,8.31 17.91,7.7 17.93,7.09 17.66,6.51 17.18,6.13 16.97,5.95 16.74,5.81 16.49,5.69 16.13,5.53 15.77,5.39 15.4,5.28 16.56,5.1 17.74,5 18.93,5 h 0.08 c 0,0 0,0 0,0 1.84,0 3.68,0.28 5.45,0.81 1.48,0.46 2.89,1.1 4.22,1.9 1.09,0.67 2.12,1.43 3.07,2.28 0.69,0.62 1.36,1.27 2,1.95 0.17,0.19 0.36,0.37 0.54,0.56 0.26,0.28 0.58,0.5 0.93,0.66 1.14,0.22 2.24,0.6 3.28,1.12 0.85,0.44 1.64,1 2.33,1.65 0.61,0.57 1.12,1.23 1.52,1.95 0.04,0.08 0.08,0.15 0.12,0.23 -0.01,0 -0.01,0 -0.02,0 -1.85,0 -3.7,0.11 -5.54,0.33 -1.2,0.3 -2.35,0.74 -3.44,1.32 -0.87,0.46 -1.66,1.07 -2.33,1.79 -0.6,0.64 -1.06,1.4 -1.37,2.22 -0.27,0.76 -0.42,1.56 -0.44,2.37 0,0 0,0.01 0,0.01 v 0.18 c 0,0.01 0,0.02 0,0.04 0.01,0.76 0.11,1.52 0.3,2.26 0.2,0.74 0.45,1.47 0.77,2.17 0.64,1.38 1.42,2.7 2.32,3.93 0.96,1.32 2.02,2.59 3.15,3.78 -3.99,2.91 -8.8,4.48 -13.73,4.49 -4.48,-0.01 -8.86,-1.3 -12.62,-3.73"
       style="fill:url(#_lgradient_80);fill-rule:evenodd"
       inkscape:connector-curvature="0" />
    <path
       id="path14"
       d="m 26.132,10.802 c 0,0 4.397,-1.728 4.97,3.412 -4.336,0.449 -4.97,-3.412 -4.97,-3.412 z"
       style="fill:url(#_lgradient_81);fill-rule:evenodd"
       inkscape:connector-curvature="0" />
    <path
       id="path21"
       d="m 5.86,43.929 c 0,0 8.247,-23.297 31.913,-24.19 0,0 -20.372,-3.298 -33.936,18.187 -0.075,3.04 2.023,6.003 2.023,6.003 z"
       style="fill:url(#_lgradient_82);fill-rule:evenodd"
       inkscape:connector-curvature="0" />
    <path
       id="path28"
       d="m 8.428,5.741 c 0,0 5.903,0.343 8.011,1.793 C 17.318,7.353 18.066,6.75 18.193,5.93 17.438,5.617 10.526,5.054 8.428,5.741 Z"
       style="fill:url(#_lgradient_83);fill-rule:evenodd"
       inkscape:connector-curvature="0" />
    <path
       id="path35"
       d="m 3.573,25.459 c 0,0 7.64,-8.876 22.559,-9.937 0,0 -20.559,0.918 -22.264,6.653 -0.474,1.379 -0.295,3.284 -0.295,3.284 z"
       style="fill:url(#_lgradient_84);fill-rule:evenodd"
       inkscape:connector-curvature="0" />
  </g>
</svg>
