<?xml version="1.0" encoding="UTF-8" standalone="no"?>
<!-- Generator: Gravit.io -->

<svg
   xmlns:dc="http://purl.org/dc/elements/1.1/"
   xmlns:cc="http://creativecommons.org/ns#"
   xmlns:rdf="http://www.w3.org/1999/02/22-rdf-syntax-ns#"
   xmlns:svg="http://www.w3.org/2000/svg"
   xmlns="http://www.w3.org/2000/svg"
   xmlns:sodipodi="http://sodipodi.sourceforge.net/DTD/sodipodi-0.dtd"
   xmlns:inkscape="http://www.inkscape.org/namespaces/inkscape"
   style="isolation:isolate"
   viewBox="0 0 36 36"
   width="48"
   height="48"
   version="1.1"
   id="svg9"
   sodipodi:docname="ferdi.svg"
   inkscape:version="0.92.4 (5da689c313, 2019-01-14)">
  <metadata
     id="metadata15">
    <rdf:RDF>
      <cc:Work
         rdf:about="">
        <dc:format>image/svg+xml</dc:format>
        <dc:type
           rdf:resource="http://purl.org/dc/dcmitype/StillImage" />
        <dc:title></dc:title>
      </cc:Work>
    </rdf:RDF>
  </metadata>
  <defs
     id="defs13" />
  <sodipodi:namedview
     pagecolor="#ffffff"
     bordercolor="#666666"
     borderopacity="1"
     objecttolerance="10"
     gridtolerance="10"
     guidetolerance="10"
     inkscape:pageopacity="0"
     inkscape:pageshadow="2"
     inkscape:window-width="640"
     inkscape:window-height="480"
     id="namedview11"
     showgrid="false"
     inkscape:zoom="29.365243"
     inkscape:cx="25.325443"
     inkscape:cy="32"
     inkscape:current-layer="svg9"
     units="px" />
  <linearGradient
     id="_lgradient_12"
     x1="0.97408402"
     y1="0.44924641"
     x2="-0.060099464"
     y2="0.49890792"
     gradientTransform="matrix(47.058,0,0,46.985,0.495,0.559)"
     gradientUnits="userSpaceOnUse">
    <stop
       offset="0%"
       stop-opacity="1"
       style="stop-color:rgb(88,0,226)"
       id="stop2" />
    <stop
       offset="100%"
       stop-opacity="1"
       style="stop-color:rgb(255,0,230)"
       id="stop4" />
  </linearGradient>
  <g
     id="g826"
     transform="matrix(0.76501466,0,0,0.76501466,-0.37870239,-0.39981223)">
    <path
       id="path7"
       d="m 22.417,4.831 v 0 C 23.591,4.732 24.466,3.696 24.37,2.519 v 0 C 24.273,1.342 23.237,0.467 22.058,0.567 v 0 C 16.148,1.059 10.632,3.772 6.629,8.161 2.636,12.55 0.442,18.292 0.496,24.227 c 0.056,6.235 2.592,12.202 7.038,16.579 4.456,4.366 10.468,6.793 16.703,6.737 6.235,-0.057 12.201,-2.592 16.578,-7.038 4.366,-4.457 6.793,-10.468 6.737,-16.703 v 0 c -0.011,-1.181 -0.978,-2.13 -2.158,-2.12 v 0 c -1.181,0.011 -2.131,0.978 -2.12,2.159 v 0 c 0.046,5.101 -1.941,10.017 -5.513,13.665 -3.582,3.636 -8.462,5.713 -13.563,5.759 C 19.097,43.311 14.18,41.323 10.533,37.752 6.896,34.17 4.82,29.29 4.774,24.189 4.73,19.333 6.516,14.633 9.789,11.041 13.061,7.45 17.576,5.238 22.417,4.831 Z M 40.99,14.909 v 0 c 0.558,1.04 1.856,1.431 2.896,0.872 v 0 c 1.039,-0.558 1.43,-1.856 0.872,-2.895 v 0 C 42.376,8.458 38.632,4.898 34.088,2.747 v 0 C 33.021,2.237 31.743,2.689 31.237,3.756 v 0 c -0.507,1.068 -0.052,2.348 1.015,2.858 v 0 c 3.727,1.763 6.78,4.666 8.738,8.295 z m -12.286,-0.57 c -0.584,-0.021 -1.252,0.211 -2.282,0.598 -1.094,0.411 -2.218,0.746 -2.498,0.746 -0.282,-10e-4 -1.146,-0.268 -1.925,-0.598 -1.937,-0.825 -2.712,-0.935 -3.504,-0.497 -0.351,0.194 -1.653,1.414 -2.898,2.708 -1.891,1.966 -2.447,2.423 -3.382,2.796 -1.47,0.589 -2.709,0.731 -3.727,0.426 -1.382,-0.414 -2.127,0.362 -1.533,1.592 0.566,1.172 2.829,2.235 5.829,2.737 4.165,0.697 6.923,0.05 9.851,-2.308 0.561,-0.452 1.186,-0.821 1.386,-0.821 0.2,0 0.88,0.418 1.512,0.927 1.5,1.207 2.231,1.59 4.009,2.114 1.266,0.373 1.754,0.414 3.534,0.303 3.742,-0.234 6.246,-1.024 7.564,-2.388 0.445,-0.459 0.611,-0.812 0.611,-1.289 0,-0.957 -0.517,-1.197 -1.836,-0.859 -0.8,0.207 -1.245,0.211 -2.051,0.03 -1.973,-0.442 -2.865,-1.053 -5.164,-3.521 -1.788,-1.918 -2.525,-2.66 -3.496,-2.696 z m -5.782,11.78 c -0.323,0 -0.629,0.145 -0.834,0.395 -0.204,0.249 -0.287,0.578 -0.224,0.894 l 1.079,5.391 c 0.101,0.504 0.543,0.866 1.057,0.866 0.513,0 0.956,-0.362 1.057,-0.866 l 1.078,-5.391 c 0.063,-0.316 -0.019,-0.645 -0.224,-0.894 -0.204,-0.25 -0.51,-0.395 -0.833,-0.395 z"
       style="fill:url(#_lgradient_12);fill-rule:evenodd"
       inkscape:connector-curvature="0" />
  </g>
</svg>
