<svg width="48" height="48" xmlns="http://www.w3.org/2000/svg">
 <defs>
  <linearGradient y2="0.972393" x2="0.951472" y1="0.059783" x1="-0.008152" id="_lgradient_4">
   <stop stop-color="rgb(0,255,255)" offset="0%"/>
   <stop stop-color="rgb(165,83,168)" offset="98.26086956521739%"/>
  </linearGradient>
 </defs>
 <g>
  <title>background</title>
  <rect fill="none" id="canvas_background" height="402" width="582" y="-1" x="-1"/>
 </g>
 <g>
  <title>Layer 1</title>
  <path id="svg_1" fill="url(#_lgradient_4)" fill-rule="evenodd" d="m43,12.55l0,0c0,1.104 0.896,2 2,2l0,0c1.104,0 2,-0.896 2,-2l0,0l0,-6.55c0,-2.76 -2.24,-5 -5,-5l-36,0c-2.76,0 -5,2.24 -5,5l0,19l0,0c0,1.104 0.896,2 2,2l0,0c1.104,0 2,-0.896 2,-2l0,0l0,-17c0,-1.656 1.344,-3 3,-3l32,0c1.656,0 3,1.344 3,3l0,4.55l0,0l0,0zm-38,22.9l0,0c0,-1.104 -0.896,-2 -2,-2l0,0c-1.104,0 -2,0.896 -2,2l0,0l0,6.55c0,2.76 2.24,5 5,5l36,0c2.76,0 5,-2.24 5,-5l0,-19.82l0,0c0,-1.104 -0.896,-2 -2,-2l0,0c-1.104,0 -2,0.896 -2,2l0,0l0,17.82c0,1.656 -1.344,3 -3,3l-32,0c-1.656,0 -3,-1.344 -3,-3l0,-4.55l0,0l0,0z"/>
 </g>
</svg>