<?xml version="1.0" encoding="UTF-8" standalone="no"?>
<svg
   xmlns:dc="http://purl.org/dc/elements/1.1/"
   xmlns:cc="http://creativecommons.org/ns#"
   xmlns:rdf="http://www.w3.org/1999/02/22-rdf-syntax-ns#"
   xmlns:svg="http://www.w3.org/2000/svg"
   xmlns="http://www.w3.org/2000/svg"
   xmlns:sodipodi="http://sodipodi.sourceforge.net/DTD/sodipodi-0.dtd"
   xmlns:inkscape="http://www.inkscape.org/namespaces/inkscape"
   viewBox="0 0 36 36"
   width="48"
   height="48"
   version="1.1"
   id="svg19"
   sodipodi:docname="file.svg"
   inkscape:version="0.92.4 (5da689c313, 2019-01-14)">
  <metadata
     id="metadata23">
    <rdf:RDF>
      <cc:Work
         rdf:about="">
        <dc:format>image/svg+xml</dc:format>
        <dc:type
           rdf:resource="http://purl.org/dc/dcmitype/StillImage" />
        <dc:title></dc:title>
      </cc:Work>
    </rdf:RDF>
  </metadata>
  <sodipodi:namedview
     pagecolor="#ffffff"
     bordercolor="#666666"
     borderopacity="1"
     objecttolerance="10"
     gridtolerance="10"
     guidetolerance="10"
     inkscape:pageopacity="0"
     inkscape:pageshadow="2"
     inkscape:window-width="640"
     inkscape:window-height="480"
     id="namedview21"
     showgrid="false"
     inkscape:zoom="6.8319386"
     inkscape:cx="-86.541229"
     inkscape:cy="6.531885"
     inkscape:current-layer="svg19" />
  <defs
     id="defs7">
    <linearGradient
       y2="45.730076"
       x2="44.767712"
       y1="3.7500179"
       x1="0.62500799"
       id="_lgradient_4"
       gradientUnits="userSpaceOnUse"
       gradientTransform="translate(-266,-176)">
      <stop
         stop-color="rgb(0,255,255)"
         offset="0%"
         id="stop2" />
      <stop
         stop-color="rgb(165,83,168)"
         offset="98.26086956521739%"
         id="stop4" />
    </linearGradient>
  </defs>
  <g
     id="g816"
     transform="matrix(0.7826087,0,0,0.7826087,207.39131,136.95652)">
    <path
       id="svg_1"
       d="m -223,-163.45 v 0 c 0,1.104 0.896,2 2,2 v 0 c 1.104,0 2,-0.896 2,-2 v 0 -6.55 c 0,-2.76 -2.24,-5 -5,-5 h -36 c -2.76,0 -5,2.24 -5,5 v 19 0 c 0,1.104 0.896,2 2,2 v 0 c 1.104,0 2,-0.896 2,-2 v 0 -17 c 0,-1.656 1.344,-3 3,-3 h 32 c 1.656,0 3,1.344 3,3 z m -38,22.9 v 0 c 0,-1.104 -0.896,-2 -2,-2 v 0 c -1.104,0 -2,0.896 -2,2 v 0 6.55 c 0,2.76 2.24,5 5,5 h 36 c 2.76,0 5,-2.24 5,-5 v -19.82 0 c 0,-1.104 -0.896,-2 -2,-2 v 0 c -1.104,0 -2,0.896 -2,2 v 0 17.82 c 0,1.656 -1.344,3 -3,3 h -32 c -1.656,0 -3,-1.344 -3,-3 z"
       style="fill:url(#_lgradient_4);fill-rule:evenodd"
       inkscape:connector-curvature="0" />
  </g>
</svg>
