<?xml version="1.0" encoding="UTF-8" standalone="no"?>
<svg
   xmlns:dc="http://purl.org/dc/elements/1.1/"
   xmlns:cc="http://creativecommons.org/ns#"
   xmlns:rdf="http://www.w3.org/1999/02/22-rdf-syntax-ns#"
   xmlns:svg="http://www.w3.org/2000/svg"
   xmlns="http://www.w3.org/2000/svg"
   xmlns:xlink="http://www.w3.org/1999/xlink"
   xmlns:sodipodi="http://sodipodi.sourceforge.net/DTD/sodipodi-0.dtd"
   xmlns:inkscape="http://www.inkscape.org/namespaces/inkscape"
   id="Firefox_-_Large"
   data-name="Firefox - Large"
   viewBox="0 0 36 36"
   width="48"
   height="48"
   version="1.1"
   sodipodi:docname="firefox-developer.svg"
   inkscape:version="0.92.4 (5da689c313, 2019-01-14)">
  <metadata
     id="metadata230">
    <rdf:RDF>
      <cc:Work
         rdf:about="">
        <dc:format>image/svg+xml</dc:format>
        <dc:type
           rdf:resource="http://purl.org/dc/dcmitype/StillImage" />
        <dc:title>firefox-logo</dc:title>
      </cc:Work>
    </rdf:RDF>
  </metadata>
  <sodipodi:namedview
     pagecolor="#ffffff"
     bordercolor="#666666"
     borderopacity="1"
     objecttolerance="10"
     gridtolerance="10"
     guidetolerance="10"
     inkscape:pageopacity="0"
     inkscape:pageshadow="2"
     inkscape:window-width="1366"
     inkscape:window-height="713"
     id="namedview228"
     showgrid="false"
     inkscape:zoom="36.758129"
     inkscape:cx="14.83184"
     inkscape:cy="26.598936"
     inkscape:window-x="0"
     inkscape:window-y="25"
     inkscape:window-maximized="1"
     inkscape:current-layer="g225" />
  <defs
     id="defs194">
    <radialGradient
       id="radial-gradient"
       cx="-14480.522"
       cy="-8329.0791"
       fx="-14509.281"
       r="450.875"
       gradientTransform="matrix(0.762,0.034,-0.05,1.12,11560.893,10069.103)"
       gradientUnits="userSpaceOnUse"
       xlink:href="#linear-gradient-6">
      <stop
         offset="0.045"
         stop-color="#ffea00"
         id="stop2" />
      <stop
         offset="0.12"
         stop-color="#ffde00"
         id="stop4" />
      <stop
         offset="0.254"
         stop-color="#ffbf00"
         id="stop6" />
      <stop
         offset="0.429"
         stop-color="#ff8e00"
         id="stop8" />
      <stop
         offset="0.769"
         stop-color="#ff272d"
         id="stop10" />
      <stop
         offset="0.872"
         stop-color="#e0255a"
         id="stop12" />
      <stop
         offset="0.953"
         stop-color="#cc2477"
         id="stop14" />
      <stop
         offset="1"
         stop-color="#c42482"
         id="stop16" />
    </radialGradient>
    <radialGradient
       id="radial-gradient-2"
       cx="-7529.6689"
       cy="-7921.6079"
       r="791.229"
       gradientTransform="matrix(1.225,0,0,1.225,9921.963,9899.103)"
       gradientUnits="userSpaceOnUse">
      <stop
         offset="0"
         stop-color="#00ccda"
         id="stop19" />
      <stop
         offset="0.22"
         stop-color="#0083ff"
         id="stop21" />
      <stop
         offset="0.261"
         stop-color="#007af9"
         id="stop23" />
      <stop
         offset="0.33"
         stop-color="#0060e8"
         id="stop25" />
      <stop
         offset="0.333"
         stop-color="#005fe7"
         id="stop27" />
      <stop
         offset="0.438"
         stop-color="#2639ad"
         id="stop29" />
      <stop
         offset="0.522"
         stop-color="#401e84"
         id="stop31" />
      <stop
         offset="0.566"
         stop-color="#4a1475"
         id="stop33" />
    </radialGradient>
    <linearGradient
       id="linear-gradient"
       x1="575.66901"
       y1="731.18799"
       x2="384.23099"
       y2="104.96"
       gradientUnits="userSpaceOnUse"
       gradientTransform="matrix(0.09784201,0,0,0.09784201,14.494763,193.15606)">
      <stop
         offset="0"
         stop-color="#000f43"
         stop-opacity="0.4"
         id="stop36" />
      <stop
         offset="0.485"
         stop-color="#001962"
         stop-opacity="0.173"
         id="stop38" />
      <stop
         offset="1"
         stop-color="#002079"
         stop-opacity="0"
         id="stop40" />
    </linearGradient>
    <radialGradient
       id="radial-gradient-3"
       cx="-8260.9404"
       cy="-6516.5562"
       r="266.88599"
       gradientTransform="matrix(1.219,0.123,-0.123,1.219,10296.265,9597.23)"
       gradientUnits="userSpaceOnUse">
      <stop
         offset="0.003"
         stop-color="#ffea00"
         id="stop43" />
      <stop
         offset="0.497"
         stop-color="#ff272d"
         id="stop45" />
      <stop
         offset="1"
         stop-color="#c42482"
         id="stop47" />
    </radialGradient>
    <radialGradient
       id="radial-gradient-4"
       cx="-8285.0869"
       cy="-6772.4678"
       r="445.67801"
       gradientTransform="matrix(1.219,0.123,-0.123,1.219,10296.265,9597.23)"
       gradientUnits="userSpaceOnUse">
      <stop
         offset="0.003"
         stop-color="#ffe900"
         id="stop50" />
      <stop
         offset="0.157"
         stop-color="#ffaf0e"
         id="stop52" />
      <stop
         offset="0.316"
         stop-color="#ff7a1b"
         id="stop54" />
      <stop
         offset="0.472"
         stop-color="#ff4e26"
         id="stop56" />
      <stop
         offset="0.621"
         stop-color="#ff2c2e"
         id="stop58" />
      <stop
         offset="0.762"
         stop-color="#ff1434"
         id="stop60" />
      <stop
         offset="0.892"
         stop-color="#ff0538"
         id="stop62" />
      <stop
         offset="1"
         stop-color="#ff0039"
         id="stop64" />
    </radialGradient>
    <radialGradient
       id="radial-gradient-5"
       cx="-8222.0508"
       cy="-6359.332"
       r="408.95801"
       gradientTransform="matrix(1.219,0.123,-0.123,1.219,10296.265,9597.23)"
       gradientUnits="userSpaceOnUse">
      <stop
         offset="0.003"
         stop-color="#ff272d"
         id="stop67" />
      <stop
         offset="0.497"
         stop-color="#c42482"
         id="stop69" />
      <stop
         offset="0.986"
         stop-color="#620700"
         id="stop71" />
    </radialGradient>
    <radialGradient
       id="radial-gradient-6"
       cx="750.18903"
       cy="396.04099"
       fx="778.1665"
       fy="382.2124"
       r="782.17999"
       gradientUnits="userSpaceOnUse"
       xlink:href="#radial-gradient-5">
      <stop
         offset="0.156"
         stop-color="#ffea00"
         id="stop74" />
      <stop
         offset="0.231"
         stop-color="#ffde00"
         id="stop76" />
      <stop
         offset="0.365"
         stop-color="#ffbf00"
         id="stop78" />
      <stop
         offset="0.541"
         stop-color="#ff8e00"
         id="stop80" />
      <stop
         offset="0.763"
         stop-color="#ff272d"
         id="stop82" />
      <stop
         offset="0.796"
         stop-color="#f92433"
         id="stop84" />
      <stop
         offset="0.841"
         stop-color="#e91c45"
         id="stop86" />
      <stop
         offset="0.893"
         stop-color="#cf0e62"
         id="stop88" />
      <stop
         offset="0.935"
         stop-color="#b5007f"
         id="stop90" />
    </radialGradient>
    <radialGradient
       id="radial-gradient-7"
       cx="691.33899"
       cy="3.289"
       r="923.61499"
       gradientUnits="userSpaceOnUse">
      <stop
         offset="0.279"
         stop-color="#ffea00"
         id="stop93" />
      <stop
         offset="0.402"
         stop-color="#fd0"
         id="stop95" />
      <stop
         offset="0.63"
         stop-color="#ffba00"
         id="stop97" />
      <stop
         offset="0.856"
         stop-color="#ff9100"
         id="stop99" />
      <stop
         offset="0.933"
         stop-color="#ff6711"
         id="stop101" />
      <stop
         offset="0.994"
         stop-color="#ff4a1d"
         id="stop103" />
    </radialGradient>
    <linearGradient
       id="linear-gradient-2"
       x1="-8944.6504"
       y1="-6677.7422"
       x2="-8660.2891"
       y2="-6750.2261"
       gradientTransform="matrix(1.219,0.123,-0.123,1.219,10296.265,9597.23)"
       gradientUnits="userSpaceOnUse">
      <stop
         offset="0"
         stop-color="#c42482"
         stop-opacity="0.5"
         id="stop106" />
      <stop
         offset="0.474"
         stop-color="#ff272d"
         stop-opacity="0.5"
         id="stop108" />
      <stop
         offset="0.486"
         stop-color="#ff2c2c"
         stop-opacity="0.513"
         id="stop110" />
      <stop
         offset="0.675"
         stop-color="#ff7a1a"
         stop-opacity="0.72"
         id="stop112" />
      <stop
         offset="0.829"
         stop-color="#ffb20d"
         stop-opacity="0.871"
         id="stop114" />
      <stop
         offset="0.942"
         stop-color="#ffd605"
         stop-opacity="0.964"
         id="stop116" />
      <stop
         offset="1"
         stop-color="#ffe302"
         id="stop118" />
    </linearGradient>
    <linearGradient
       id="linear-gradient-3"
       x1="245.347"
       y1="-1082.012"
       x2="190.77499"
       y2="-1221.859"
       gradientTransform="matrix(0.0973528,0.0097842,-0.0097842,0.0973528,86.357373,306.70802)"
       gradientUnits="userSpaceOnUse">
      <stop
         offset="0"
         stop-color="#891551"
         stop-opacity="0.6"
         id="stop121" />
      <stop
         offset="1"
         stop-color="#c42482"
         stop-opacity="0"
         id="stop123" />
    </linearGradient>
    <linearGradient
       id="linear-gradient-4"
       x1="22.040001"
       y1="718.82703"
       x2="116.148"
       y2="825.71399"
       gradientTransform="matrix(0.995,0.1,-0.1,0.995,305.439,-246.471)"
       gradientUnits="userSpaceOnUse">
      <stop
         offset="0.005"
         stop-color="#891551"
         stop-opacity="0.5"
         id="stop126" />
      <stop
         offset="0.484"
         stop-color="#ff272d"
         stop-opacity="0.5"
         id="stop128" />
      <stop
         offset="1"
         stop-color="#ff272d"
         stop-opacity="0"
         id="stop130" />
    </linearGradient>
    <linearGradient
       id="linear-gradient-5"
       x1="200.104"
       y1="904.61603"
       x2="200.17101"
       y2="829.83502"
       gradientTransform="matrix(0.995,0.1,-0.1,0.995,305.439,-246.471)"
       gradientUnits="userSpaceOnUse">
      <stop
         offset="0"
         stop-color="#c42482"
         id="stop133" />
      <stop
         offset="0.083"
         stop-color="#c42482"
         stop-opacity="0.81"
         id="stop135" />
      <stop
         offset="0.206"
         stop-color="#c42482"
         stop-opacity="0.565"
         id="stop137" />
      <stop
         offset="0.328"
         stop-color="#c42482"
         stop-opacity="0.362"
         id="stop139" />
      <stop
         offset="0.447"
         stop-color="#c42482"
         stop-opacity="0.204"
         id="stop141" />
      <stop
         offset="0.562"
         stop-color="#c42482"
         stop-opacity="0.091"
         id="stop143" />
      <stop
         offset="0.673"
         stop-color="#c42482"
         stop-opacity="0.023"
         id="stop145" />
      <stop
         offset="0.773"
         stop-color="#c42482"
         stop-opacity="0"
         id="stop147" />
    </linearGradient>
    <linearGradient
       id="linear-gradient-6"
       x1="655.53101"
       y1="38.119999"
       x2="961.18701"
       y2="721.61499"
       gradientUnits="userSpaceOnUse">
      <stop
         offset="0"
         stop-color="#fff14f"
         id="stop150" />
      <stop
         offset="0.268"
         stop-color="#ffee4c"
         id="stop152" />
      <stop
         offset="0.452"
         stop-color="#ffe643"
         id="stop154" />
      <stop
         offset="0.612"
         stop-color="#ffd834"
         id="stop156" />
      <stop
         offset="0.757"
         stop-color="#ffc41e"
         id="stop158" />
      <stop
         offset="0.892"
         stop-color="#ffab02"
         id="stop160" />
      <stop
         offset="0.902"
         stop-color="#ffa900"
         id="stop162" />
      <stop
         offset="0.949"
         stop-color="#ffa000"
         id="stop164" />
      <stop
         offset="1"
         stop-color="#ff9100"
         id="stop166" />
    </linearGradient>
    <linearGradient
       id="linear-gradient-7"
       x1="715.88501"
       y1="431.20999"
       x2="571.09802"
       y2="819.96002"
       gradientUnits="userSpaceOnUse">
      <stop
         offset="0"
         stop-color="#ff8e00"
         id="stop169" />
      <stop
         offset="0.04"
         stop-color="#ff8e00"
         stop-opacity="0.858"
         id="stop171" />
      <stop
         offset="0.084"
         stop-color="#ff8e00"
         stop-opacity="0.729"
         id="stop173" />
      <stop
         offset="0.13"
         stop-color="#ff8e00"
         stop-opacity="0.628"
         id="stop175" />
      <stop
         offset="0.178"
         stop-color="#ff8e00"
         stop-opacity="0.557"
         id="stop177" />
      <stop
         offset="0.227"
         stop-color="#ff8e00"
         stop-opacity="0.514"
         id="stop179" />
      <stop
         offset="0.282"
         stop-color="#ff8e00"
         stop-opacity="0.5"
         id="stop181" />
      <stop
         offset="0.389"
         stop-color="#ff8e00"
         stop-opacity="0.478"
         id="stop183" />
      <stop
         offset="0.524"
         stop-color="#ff8e00"
         stop-opacity="0.416"
         id="stop185" />
      <stop
         offset="0.676"
         stop-color="#ff8e00"
         stop-opacity="0.314"
         id="stop187" />
      <stop
         offset="0.838"
         stop-color="#ff8e00"
         stop-opacity="0.172"
         id="stop189" />
      <stop
         offset="1"
         stop-color="#ff8e00"
         stop-opacity="0"
         id="stop191" />
    </linearGradient>
    <radialGradient
       inkscape:collect="always"
       xlink:href="#radial-gradient-2"
       id="radialGradient944"
       cx="500.34323"
       cy="501.00012"
       fx="500.34323"
       fy="501.00012"
       r="465.34323"
       gradientTransform="matrix(0.08885387,0,0,0.09260721,132.92396,196.91817)"
       gradientUnits="userSpaceOnUse" />
  </defs>
  <title
     id="title196">firefox-logo</title>
  <g
     id="g225"
     transform="matrix(0.12996686,0,0,0.12996686,-2.9146925,-12.179072)">
    <g
       id="g958"
       transform="matrix(2.9143793,0,0,2.9143793,-355.90577,-472.84598)">
      <path
         inkscape:connector-curvature="0"
         style="fill:none;stroke-width:0.09784201"
         d="m 175.87079,289.4437 c 23.99438,0 43.43206,-19.54286 43.43206,-43.64027 0,-24.09741 -19.43768,-43.64018 -43.40878,-43.64018 -23.97109,0 -43.40858,19.54287 -43.40858,43.64018 -0.0465,24.1207 19.4141,43.64027 43.3853,43.64027 z"
         data-name="&lt;Path&gt;"
         id="_Path_" />
      <path
         inkscape:connector-curvature="0"
         id="path203"
         style="fill:none;stroke-width:0.09784201"
         d="m 198.67071,278.88362 c 15.93553,-1.8453 22.98984,-18.26711 13.93085,-18.58999 -8.18282,-0.26153 -21.47897,19.46078 -13.93085,18.58999 z" />
      <path
         inkscape:connector-curvature="0"
         id="path205"
         style="fill:none;stroke-width:0.09784201"
         d="m 213.74885,256.93922 c 10.96379,-6.38067 8.10514,-20.16328 8.10514,-20.16328 0,0 -4.23128,4.91538 -7.10578,12.75077 -2.83947,7.75877 -7.59097,11.26631 -0.99936,7.41251 z" />
      <path
         inkscape:connector-curvature="0"
         id="path207"
         style="fill:none;stroke-width:0.09784201"
         d="m 178.94322,287.03914 c 15.28556,4.87752 28.4231,-7.16399 20.32501,-11.1853 -7.3627,-3.62661 -27.57999,8.87897 -20.32501,11.1853 z" />
      <path
         inkscape:connector-curvature="0"
         id="path209"
         style="fill:none;fill-opacity:1;stroke:url(#radialGradient944);stroke-width:5.78477335;stroke-miterlimit:4;stroke-dasharray:none"
         d="m 213.94527,261.37251 c 0.33765,-0.47652 0.79435,-2.00232 1.19775,-2.68436 2.45077,-3.95604 2.4681,-7.11036 2.4681,-7.18259 1.48021,-7.39433 1.34595,-10.41368 0.43538,-15.99752 -0.73313,-4.49601 -3.93818,-10.9372 -6.71469,-14.03891 -2.86109,-3.19563 -0.84535,-2.15444 -3.61564,-4.48872 -2.42811,-2.69165 -4.78238,-5.35709 -6.06454,-6.42902 -9.26533,-7.74602 -9.05599,-9.39132 -8.87757,-9.67184 -0.0301,0.033 -0.0744,0.0819 -0.13079,0.14599 -0.10974,-0.43743 -0.18722,-0.80528 -0.18722,-0.80528 0,0 -5.06467,5.06467 -6.13091,13.50579 -0.69609,5.5108 1.36683,11.25565 4.35384,14.92745 a 33.885933,33.885933 0 0 0 5.24237,5.15352 v -0.002 c 2.25689,3.24112 3.49907,7.24061 3.49907,11.54292 0,10.773 -8.73798,19.50618 -19.51693,19.50618 a 19.58828,19.58828 0 0 1 -4.36575,-0.49039 c -5.08564,-0.96921 -8.02244,-3.53469 -9.4871,-5.27632 -0.83941,-0.99818 -1.19633,-1.72581 -1.19633,-1.72581 4.55669,1.63234 9.59497,1.29087 12.65883,-0.40144 3.08758,-1.71177 4.95574,-2.98069 6.47185,-2.48035 1.49452,0.49811 2.68437,-0.94781 1.61714,-2.44668 -1.0459,-1.49675 -3.7674,-3.64035 -7.8083,-3.04645 -3.09114,0.45023 -5.92273,2.64429 -9.97296,0.51935 a 8.5577826,8.5577826 0 0 1 -0.76005,-0.44604 c -0.26701,-0.15736 0.86792,0.23946 0.60305,0.0606 -0.78814,-0.38368 -2.18341,-1.21979 -2.54504,-1.5171 -0.0603,-0.0495 0.61158,0.19202 0.55089,0.14217 -3.78704,-2.79436 -3.31425,-4.68198 -3.1951,-5.86596 0.0953,-0.94718 0.78316,-2.16092 1.94226,-2.65317 0.55978,0.27376 0.90862,0.48274 0.90862,0.48274 0,0 -0.23884,-0.43716 -0.36794,-0.66756 0.0452,-0.0172 0.0883,-0.0129 0.13328,-0.0301 0.45866,0.19832 1.47284,0.71341 2.00685,1.02804 0.69546,0.43956 0.91715,0.83149 0.91715,0.83149 0,0 0.18313,-0.0903 0.0476,-0.47359 -0.0495,-0.15718 -0.26026,-0.65672 -0.94914,-1.16087 l 0.0431,0.004 a 8.0724629,8.0724629 0 0 1 1.16701,0.72621 c 0.19424,-0.63273 0.54361,-1.29345 0.46675,-2.47538 -0.0469,-0.83097 -0.0252,-1.04626 -0.18873,-1.36711 -0.14634,-0.27545 0.0821,-0.38314 0.33605,-0.0967 a 2.6689925,2.6689925 0 0 0 -0.21716,-0.65246 l 0.002,-0.0215 c 0.31721,-0.9901 6.71158,-3.56526 7.177,-3.8663 a 6.2473156,6.2473156 0 0 0 1.88148,-1.83305 c 0.35541,-0.5078 0.62322,-1.22023 0.68844,-2.30087 0.0219,-0.48692 -0.12804,-0.87228 -1.82151,-1.24085 -1.0164,-0.22125 -2.58884,-0.43654 -5.01429,-0.66409 -1.76819,-0.15603 -2.80574,-1.30402 -3.39528,-2.36352 -0.1076,-0.22826 -0.21725,-0.43538 -0.32698,-0.6417 a 4.7188513,4.7188513 0 0 1 -0.25155,-0.74282 14.080673,14.080673 0 0 1 5.44488,-6.75849 c 0.14216,-0.11622 -0.56867,0.0298 -0.4265,-0.0864 0.16598,-0.13551 1.24955,-0.52664 1.45427,-0.61478 0.24994,-0.10539 -1.07016,-0.60776 -2.23547,-0.48568 -1.18683,0.11986 -1.4389,0.24666 -2.07234,0.48745 0.26291,-0.23448 1.09876,-0.54201 0.90284,-0.53979 -1.2795,0.17576 -2.86998,0.84225 -4.22944,1.59698 a 0.85975003,0.85975003 0 0 1 0.0821,-0.38314 c -0.63344,0.2407 -2.1891,1.21499 -2.64198,2.03919 a 3.5086616,3.5086616 0 0 0 0.0261,-0.47572 7.8793834,7.8793834 0 0 0 -1.29727,1.2173 l -0.0237,0.0194 c -3.67384,-1.32615 -6.90679,-1.41198 -9.6426,-0.81746 -0.59852,-0.53854 -1.56081,-1.35289 -2.92258,-4.03396 -0.0925,-0.16145 -0.14217,0.33364 -0.21325,0.17424 -0.52913,-1.22734 -0.84882,-3.23819 -0.79631,-4.62449 0,0 -1.0945,0.49883 -2.00037,2.5821 -0.1682,0.37451 -0.27607,0.5811 -0.38385,0.78768 -0.0496,0.0602 0.1124,-0.68417 0.0865,-0.64365 -0.15745,0.26656 -0.56476,0.63903 -0.7438,1.12116 -0.12297,0.35728 -0.29544,0.55738 -0.40553,1.00298 l -0.0259,0.0409 c -0.009,-0.13133 0.0326,-0.54032 0.002,-0.45644 a 20.978398,20.978398 0 0 0 -1.09361,2.65149 c -0.48772,1.60345 -1.05549,3.78606 -1.1455,6.62538 -0.0217,0.2153 -0.002,0.45636 -0.022,0.65015 -1.1551,1.31895 -1.94217,2.43575 -2.23974,3.01463 -1.49337,2.30763 -3.13894,5.9039 -4.73413,11.59259 a 28.35709,28.35709 0 0 1 2.53571,-4.44172 c -1.3265,3.01952 -2.60875,7.76121 -2.86509,15.0634 a 38.964376,38.964376 0 0 1 1.23258,-4.46402 c -0.22907,4.86919 0.33809,10.90592 3.41634,17.71684 1.82772,4.00615 6.03504,12.14179 16.31535,18.49049 l -8.8e-4,6.8e-4 c 0,0 3.49729,2.60342 9.50887,4.55457 0.44427,0.16118 0.89432,0.31987 1.3536,0.47385 -0.14412,-0.0582 -0.28353,-0.11942 -0.41894,-0.18232 a 43.083731,43.083731 0 0 0 12.33291,1.81261 c 15.56542,0.0132 20.15615,-6.23754 20.15615,-6.23754 0,0 -0.0162,0.0122 -0.0456,0.0335 q 0.32947,-0.31019 0.63468,-0.64481 c -2.45583,2.31908 -8.06038,2.47298 -10.156,2.30567 3.57397,-1.04963 5.92575,-1.93755 10.50031,-3.68913 q 0.80297,-0.29766 1.64219,-0.67884 c 0.0605,-0.0267 0.12156,-0.0555 0.18233,-0.0832 0.11098,-0.0517 0.22089,-0.10058 0.33294,-0.15496 a 31.028215,31.028215 0 0 0 6.24305,-3.90841 c 4.59374,-3.66967 5.59326,-7.24666 6.11572,-9.60511 -0.0729,0.22605 -0.29988,0.75304 -0.45937,1.09433 -1.18309,2.53073 -3.80659,4.08363 -6.65587,5.41546 a 61.219694,61.219694 0 0 0 3.76634,-5.5475 c 0.93003,-0.92257 1.22023,-2.36573 1.91471,-3.33549 z" />
      <path
         inkscape:connector-curvature="0"
         id="path213"
         style="fill:none;stroke-width:0.09784201"
         d="m 175.82382,225.33126 c 0.0384,-0.85807 -0.40663,-1.43436 -7.50272,-2.09998 -2.91951,-0.26956 -4.03745,-2.96794 -4.37823,-4.10359 -1.03811,2.69701 -1.46675,5.52709 -1.23634,8.95029 0.15753,2.24254 1.6642,4.64955 2.38441,6.06278 0,0 0.16007,-0.20801 0.23394,-0.28492 1.35619,-1.41195 7.03837,-3.5633 7.57219,-3.86877 0.58843,-0.3717 2.82793,-2.00801 2.92675,-4.65581 z" />
      <path
         inkscape:connector-curvature="0"
         id="path219"
         style="fill:none;stroke-width:0.09784201"
         d="m 160.90115,258.41429 c 4.83751,1.68356 10.47301,1.38828 13.8469,-0.47532 2.25868,-1.25737 5.15627,-3.27125 6.93915,-2.77412 -1.54365,-0.61014 -2.71277,-0.89525 -4.11915,-0.96491 -0.23952,0 -0.52658,-0.005 -0.78743,-0.0313 a 13.328821,13.328821 0 0 0 -1.5417,0.0844 c -0.87079,0.08 -1.8361,0.62942 -2.71365,0.54127 -0.0474,-0.005 0.85123,-0.36926 0.77814,-0.35272 -0.46494,0.097 -0.9701,0.1179 -1.50383,0.18404 -0.33922,0.0378 -0.63098,0.0802 -0.96776,0.0942 -10.07596,0.85445 -18.59164,-5.46086 -18.59164,-5.46086 -0.72481,2.44116 3.24503,7.26966 8.66107,9.15528 z" />
      <path
         inkscape:connector-curvature="0"
         id="path223"
         style="fill:none;stroke-width:0.09784201"
         d="m 207.25283,246.48255 c -3.56165,-7.35782 -8.007,-10.56703 -12.21205,-14.04532 0.48921,0.6849 0.60975,0.92686 0.88057,1.36979 3.70107,3.9446 9.1587,13.56638 5.19639,25.64508 -7.4584,22.73603 -37.29179,12.02967 -40.41951,9.0222 1.26529,13.15868 23.28992,19.4554 37.63004,10.92211 8.16002,-7.72453 14.76122,-20.8561 8.92456,-32.91386 z" />
    </g>
  </g>
</svg>
