<?xml version="1.0" encoding="UTF-8" standalone="no"?>
<!-- Generator: Gravit.io -->

<svg
   xmlns:dc="http://purl.org/dc/elements/1.1/"
   xmlns:cc="http://creativecommons.org/ns#"
   xmlns:rdf="http://www.w3.org/1999/02/22-rdf-syntax-ns#"
   xmlns:svg="http://www.w3.org/2000/svg"
   xmlns="http://www.w3.org/2000/svg"
   xmlns:sodipodi="http://sodipodi.sourceforge.net/DTD/sodipodi-0.dtd"
   xmlns:inkscape="http://www.inkscape.org/namespaces/inkscape"
   style="isolation:isolate"
   viewBox="0 0 36 36"
   width="48"
   height="48"
   version="1.1"
   id="svg16"
   sodipodi:docname="firewall-config.svg"
   inkscape:version="0.92.4 (5da689c313, 2019-01-14)">
  <metadata
     id="metadata22">
    <rdf:RDF>
      <cc:Work
         rdf:about="">
        <dc:format>image/svg+xml</dc:format>
        <dc:type
           rdf:resource="http://purl.org/dc/dcmitype/StillImage" />
        <dc:title></dc:title>
      </cc:Work>
    </rdf:RDF>
  </metadata>
  <defs
     id="defs20" />
  <sodipodi:namedview
     pagecolor="#ffffff"
     bordercolor="#666666"
     borderopacity="1"
     objecttolerance="10"
     gridtolerance="10"
     guidetolerance="10"
     inkscape:pageopacity="0"
     inkscape:pageshadow="2"
     inkscape:window-width="640"
     inkscape:window-height="480"
     id="namedview18"
     showgrid="false"
     inkscape:zoom="29.365243"
     inkscape:cx="25.325443"
     inkscape:cy="32"
     inkscape:current-layer="svg16"
     units="px" />
  <linearGradient
     id="_lgradient_3"
     x1="0"
     y1="0.5"
     x2="1"
     y2="0.5"
     gradientTransform="matrix(36,0,0,46.469,6,0.7)"
     gradientUnits="userSpaceOnUse">
    <stop
       offset="0%"
       stop-opacity="1"
       style="stop-color:rgb(88,0,226)"
       id="stop2" />
    <stop
       offset="100%"
       stop-opacity="1"
       style="stop-color:rgb(255,0,230)"
       id="stop4" />
  </linearGradient>
  <linearGradient
     id="_lgradient_4"
     x1="0.62099254"
     y1="0.043614805"
     x2="0.4883253"
     y2="0.96253371"
     gradientTransform="matrix(15.1,0,0,19.766,16.45,14.117)"
     gradientUnits="userSpaceOnUse">
    <stop
       offset="0%"
       stop-opacity="1"
       style="stop-color:rgb(255,224,49)"
       id="stop9" />
    <stop
       offset="100%"
       stop-opacity="1"
       style="stop-color:rgb(250,0,117)"
       id="stop11" />
  </linearGradient>
  <g
     id="g831"
     transform="matrix(0.77471039,0,0,0.77471039,-0.59304936,-0.54229729)">
    <path
       id="path7"
       d="m 37.1,25.37 v 0 c 0.348,-1.049 1.481,-1.618 2.53,-1.27 v 0 c 1.049,0.348 1.618,1.481 1.27,2.53 v 0 l -0.62,1.87 c 0,0 0,0.01 0,0.01 -0.69,2.04 -1.58,4 -2.66,5.85 -1.08,1.89 -2.33,3.69 -3.72,5.36 -1.32,1.6 -2.79,3.08 -4.4,4.39 -0.74,0.61 -1.52,1.17 -2.34,1.68 -0.76,0.48 -1.57,0.89 -2.41,1.23 -0.46,0.19 -0.98,0.2 -1.45,0.02 l -1.02,-0.38 c -0.01,0 -0.01,0 -0.02,0 -2.32,-0.9 -4.48,-2.18 -6.39,-3.78 C 13.91,41.25 12.19,39.36 10.75,37.27 9.29,35.18 8.13,32.9 7.29,30.5 6.46,28.15 6.02,25.68 6,23.19 6,23.18 6,23.18 6,23.17 V 11.11 C 6,8.902 7.398,7.15 9.12,7.2 v 0 c 2.29,-0.02 4.55,-0.48 6.67,-1.35 1.19,-0.49 2.34,-1.07 3.44,-1.74 1.63,-0.99 3.16,-2.14 4.58,-3.41 1.83,1.17 3.73,2.24 5.67,3.21 1.31,0.66 2.64,1.25 4.01,1.77 1.16,0.44 2.34,0.8 3.55,1.07 1,0.24 2.02,0.38 3.05,0.42 0.51,0.03 1,0.25 1.36,0.62 C 41.8,8.16 42,8.66 42,9.17 v 7 0 c 0,1.104 -0.896,2 -2,2 v 0 c -1.104,0 -2,-0.896 -2,-2 v 0 V 11 C 37.37,10.91 36.75,10.79 36.14,10.65 34.75,10.33 33.4,9.92 32.07,9.42 30.58,8.85 29.11,8.21 27.69,7.49 26.49,6.89 25.32,6.26 24.16,5.59 23.24,6.28 22.3,6.92 21.32,7.52 20.04,8.31 18.7,8.99 17.3,9.55 14.98,10.51 12.51,11.06 10,11.18 v 11.98 c 0.02,2.05 0.38,4.08 1.06,6.01 0.72,2.07 1.72,4.03 2.97,5.82 1.24,1.8 2.72,3.42 4.41,4.82 1.56,1.32 3.34,2.37 5.25,3.11 l 0.25,0.09 c 0.38,-0.18 0.75,-0.39 1.1,-0.61 0.67,-0.42 1.32,-0.88 1.93,-1.38 1.4,-1.15 2.69,-2.44 3.84,-3.85 1.25,-1.5 2.37,-3.11 3.35,-4.81 0.95,-1.62 1.73,-3.34 2.32,-5.12 z"
       style="fill:url(#_lgradient_3)"
       inkscape:connector-curvature="0" />
    <path
       id="path14"
       d="m 26.333,14.118 c -6.177,2.471 -9.883,8.26 -9.883,12.354 0,4.045 3.243,7.328 7.27,7.405 -2.013,-0.04 -3.634,-1.677 -3.634,-3.699 0,-2.047 1.853,-4.942 4.942,-6.177 0,4.324 3.316,4.949 2.47,7.412 -0.479,1.397 -1.648,2.457 -3.674,2.468 0.012,0 0.025,0.002 0.038,0.002 4.094,0 6.448,-2.133 7.412,-4.942 1.691,-4.926 -4.941,-6.176 -4.941,-14.824 z"
       style="fill:url(#_lgradient_4)"
       inkscape:connector-curvature="0" />
  </g>
</svg>
