<?xml version="1.0" encoding="UTF-8" standalone="no"?>
<!-- Generator: Gravit.io -->

<svg
   xmlns:dc="http://purl.org/dc/elements/1.1/"
   xmlns:cc="http://creativecommons.org/ns#"
   xmlns:rdf="http://www.w3.org/1999/02/22-rdf-syntax-ns#"
   xmlns:svg="http://www.w3.org/2000/svg"
   xmlns="http://www.w3.org/2000/svg"
   xmlns:sodipodi="http://sodipodi.sourceforge.net/DTD/sodipodi-0.dtd"
   xmlns:inkscape="http://www.inkscape.org/namespaces/inkscape"
   style="isolation:isolate"
   viewBox="0 0 36 36"
   width="48"
   height="48"
   version="1.1"
   id="svg30"
   sodipodi:docname="flameshot.svg"
   inkscape:version="0.92.4 (5da689c313, 2019-01-14)">
  <metadata
     id="metadata36">
    <rdf:RDF>
      <cc:Work
         rdf:about="">
        <dc:format>image/svg+xml</dc:format>
        <dc:type
           rdf:resource="http://purl.org/dc/dcmitype/StillImage" />
        <dc:title></dc:title>
      </cc:Work>
    </rdf:RDF>
  </metadata>
  <defs
     id="defs34" />
  <sodipodi:namedview
     pagecolor="#ffffff"
     bordercolor="#666666"
     borderopacity="1"
     objecttolerance="10"
     gridtolerance="10"
     guidetolerance="10"
     inkscape:pageopacity="0"
     inkscape:pageshadow="2"
     inkscape:window-width="640"
     inkscape:window-height="480"
     id="namedview32"
     showgrid="false"
     units="px"
     inkscape:zoom="82.518609"
     inkscape:cx="30.773106"
     inkscape:cy="31.330142"
     inkscape:current-layer="svg30" />
  <linearGradient
     id="_lgradient_50"
     x1="1.0056819"
     y1="0.10869565"
     x2="0.022727238"
     y2="0.93478262"
     gradientTransform="matrix(22.440394,0,0,23.460412,15.839877,13.799821)"
     gradientUnits="userSpaceOnUse">
    <stop
       offset="0%"
       stop-opacity="1"
       style="stop-color:rgb(26,108,255)"
       id="stop2" />
    <stop
       offset="100%"
       stop-opacity="1"
       style="stop-color:rgb(197,34,255)"
       id="stop4" />
  </linearGradient>
  <linearGradient
     id="_lgradient_51"
     x1="0"
     y1="0.5"
     x2="1"
     y2="0.5"
     gradientTransform="matrix(14.280251,0,0,27.540483,14.819859,9.7197494)"
     gradientUnits="userSpaceOnUse">
    <stop
       offset="0%"
       stop-opacity="1"
       style="stop-color:rgb(255,224,49)"
       id="stop9" />
    <stop
       offset="100%"
       stop-opacity="1"
       style="stop-color:rgb(250,0,117)"
       id="stop11" />
  </linearGradient>
  <linearGradient
     id="_lgradient_52"
     x1="0"
     y1="0.5"
     x2="1"
     y2="0.5"
     gradientTransform="matrix(9.1801611,0,0,25.500447,11.759806,11.759785)"
     gradientUnits="userSpaceOnUse">
    <stop
       offset="0%"
       stop-opacity="1"
       style="stop-color:rgb(247,242,6)"
       id="stop16" />
    <stop
       offset="97.82608695652173%"
       stop-opacity="1"
       style="stop-color:rgb(255,187,36)"
       id="stop18" />
  </linearGradient>
  <linearGradient
     id="_lgradient_53"
     x1="0.1143617"
     y1="0.82672405"
     x2="0.8742736"
     y2="0.17809705"
     gradientTransform="matrix(47.940841,0,0,48.000002,0.02959967,-1.1691e-6)"
     gradientUnits="userSpaceOnUse">
    <stop
       offset="0%"
       stop-opacity="1"
       style="stop-color:rgb(52,148,230)"
       id="stop23" />
    <stop
       offset="98.69565217391305%"
       stop-opacity="1"
       style="stop-color:rgb(236,110,173)"
       id="stop25" />
  </linearGradient>
  <g
     id="g839"
     transform="scale(0.74999997)">
    <path
       id="path7"
       d="m 25.865633,21.366314 c 11.95563,-2.321561 12.414638,-7.566493 12.414638,-7.566493 0,0 -0.941477,16.256025 -9.67895,17.1159 -11.072294,1.090399 -12.726763,6.344512 -12.726763,6.344512 0,0 -0.226444,-1.68711 0.472268,-3.888309 1.397425,-4.405457 4.830805,-11.094734 9.518807,-12.00561 z"
       inkscape:connector-curvature="0"
       style="fill:url(#_lgradient_50);stroke-width:1.02001786" />
    <path
       id="path14"
       d="m 18.26854,20.953207 c 9.948234,-4.268775 9.037358,-11.2334576 9.037358,-11.2334576 0,0 5.492797,14.2078296 -2.741808,17.5198276 -9.197501,3.700625 -8.788474,10.020656 -8.788474,10.020656 0,0 -3.349739,-13.799822 2.492924,-16.307026 z"
       inkscape:connector-curvature="0"
       style="fill:url(#_lgradient_51);stroke-width:1.02001786" />
    <path
       id="path21"
       d="m 12.652321,24.511029 c 5.568278,-7.494072 4.315696,-12.751244 4.315696,-12.751244 0,0 7.134005,9.1312 2.27974,14.7872 -5.422415,6.317991 -3.38952,10.713248 -3.38952,10.713248 0,0 -6.3985718,-8.449829 -3.205916,-12.749204 z"
       inkscape:connector-curvature="0"
       style="fill:url(#_lgradient_52);stroke-width:1.02001786" />
    <path
       id="path28"
       d="m 4.3881362,22.538314 v 0 c -0.089762,1.198521 -1.13834,2.100217 -2.3399211,2.012496 v 0 C 0.84765403,24.46411 -0.0540418,23.41553 0.03571978,22.210889 v 0 C 0.48350764,16.178503 3.1998153,10.527604 7.6399532,6.4036712 12.079071,2.290959 17.915614,-1.1691e-6 23.97044,-1.1691e-6 30.330251,-1.1691e-6 36.439139,2.5306632 40.944558,7.0258821 45.439777,11.531301 47.970441,17.640188 47.970441,24 c 0,6.359812 -2.530664,12.468699 -7.025883,16.974118 -4.505419,4.495219 -10.614307,7.025883 -16.974118,7.025883 v 0 c -1.204641,0 -2.181818,-0.977177 -2.181818,-2.181818 v 0 c 0,-1.204641 0.977177,-2.181818 2.181818,-2.181818 v 0 c 5.203111,0 10.200179,-2.072677 13.887544,-5.748821 3.676144,-3.687365 5.74882,-8.683413 5.74882,-13.887544 0,-5.204131 -2.072676,-10.200179 -5.74882,-13.887544 C 34.170619,6.4363118 29.173551,4.3636354 23.97044,4.3636354 c -4.953207,0 -9.730971,1.8656127 -13.363255,5.2367719 C 6.9738815,12.970546 4.7594227,17.596328 4.3881362,22.538314 Z M 14.83924,41.389265 v 0 c 1.065918,0.55999 1.476985,1.879893 0.916996,2.945812 v 0 c -0.55999,1.064899 -1.879893,1.475966 -2.945812,0.915976 v 0 C 8.2723643,42.862171 4.60642,39.076885 2.3705408,34.462324 v 0 C 1.8401314,33.378045 2.2899593,32.070382 3.3742384,31.544052 v 0 c 1.083259,-0.527349 2.393982,-0.07548 2.9233713,1.008798 v 0 c 1.8329721,3.785287 4.8216243,6.872881 8.5416303,8.836415 z"
       inkscape:connector-curvature="0"
       style="fill:url(#_lgradient_53);fill-rule:evenodd;stroke-width:1.02001786" />
  </g>
</svg>
