<svg width="48" height="48" xmlns="http://www.w3.org/2000/svg">
 <defs>
  <linearGradient y2="0.5" x2="1" y1="0.5" x1="0" id="_lgradient_0">
   <stop stop-color="rgb(0,255,169)" offset="0%"/>
   <stop stop-color="rgb(240,116,179)" offset="100%"/>
  </linearGradient>
 </defs>
 <g>
  <title>background</title>
  <rect fill="none" id="canvas_background" height="41" width="50" y="-1" x="-1"/>
 </g>
 <g>
  <title>Layer 1</title>
  <path id="svg_1" fill="url(#_lgradient_0)" fill-rule="evenodd" d="m9,18.550001l0,0c-0.58,0 -1.05,-0.47 -1.05,-1.05l0,0c0,-0.58 0.47,-1.05 1.05,-1.05l0,0l5.65,0c0.552,0 1.358,-0.269 1.8,-0.6l6.4,-4.8c0.442,-0.331 1.248,-0.6 1.8,-0.6l19.4,0c1.656,0 3,1.344 3,3l0,26.1c0,1.656 -1.344,3 -3,3l-40.1,0c-1.656,0 -3,-1.344 -3,-3l0,-11.05l0,0c0,-0.58 0.47,-1.05 1.05,-1.05l0,0c0.58,0 1.05,0.47 1.05,1.05l0,0l0,10.45c0,0.828 0.672,1.5 1.5,1.5l38.9,0c0.828,0 1.5,-0.672 1.5,-1.5l0,-24.9c0,-0.828 -0.672,-1.5 -1.5,-1.5l-18.1,0c-0.552,0 -1.358,0.269 -1.8,0.6l-6.4,4.8c-0.442,0.331 -1.248,0.6 -1.8,0.6l-6.35,0l0,0zm-5.95,1.95l0,0c0,0.58 -0.47,1.05 -1.05,1.05l0,0c-0.58,0 -1.05,-0.47 -1.05,-1.05l0,0l0,-12.05c0,-1.656 1.344,-3 3,-3l12.48,0c0.552,0 1.317,0.317 1.707,0.707l2.603,2.603l0,0c0.408,0.408 0.408,1.072 0,1.48l0,0c-0.408,0.408 -1.072,0.408 -1.48,0l0,0l-2.69,-2.69l-12.02,0c-0.828,0 -1.5,0.672 -1.5,1.5l0,11.45l0,0zm34.49,9.09l-0.76,0l0,5.91l-2.66,0l0,-4.43l-4.9,0l0,4.43l-2.6,0l0,-5.91l-1.09,0l6.13,-5.75l5.88,5.75l0,0zm-12.92,2l-4.15,0l11.21,-10.52l10.78,10.52l-3.68,0l0,5.91l-6.66,0l0,-4.43l-0.9,0l0,4.43l-6.6,0l0,-5.91l0,0z"/>
 </g>
</svg>