<?xml version="1.0" encoding="UTF-8" standalone="no"?>
<svg
   xmlns:dc="http://purl.org/dc/elements/1.1/"
   xmlns:cc="http://creativecommons.org/ns#"
   xmlns:rdf="http://www.w3.org/1999/02/22-rdf-syntax-ns#"
   xmlns:svg="http://www.w3.org/2000/svg"
   xmlns="http://www.w3.org/2000/svg"
   xmlns:sodipodi="http://sodipodi.sourceforge.net/DTD/sodipodi-0.dtd"
   xmlns:inkscape="http://www.inkscape.org/namespaces/inkscape"
   viewBox="0 0 36 36"
   width="48"
   height="48"
   version="1.1"
   id="svg19"
   sodipodi:docname="folder-music.svg"
   inkscape:version="0.92.4 (5da689c313, 2019-01-14)">
  <metadata
     id="metadata23">
    <rdf:RDF>
      <cc:Work
         rdf:about="">
        <dc:format>image/svg+xml</dc:format>
        <dc:type
           rdf:resource="http://purl.org/dc/dcmitype/StillImage" />
        <dc:title />
      </cc:Work>
    </rdf:RDF>
  </metadata>
  <sodipodi:namedview
     pagecolor="#ffffff"
     bordercolor="#666666"
     borderopacity="1"
     objecttolerance="10"
     gridtolerance="10"
     guidetolerance="10"
     inkscape:pageopacity="0"
     inkscape:pageshadow="2"
     inkscape:window-width="640"
     inkscape:window-height="480"
     id="namedview21"
     showgrid="false"
     inkscape:zoom="9.724911"
     inkscape:cx="25.776711"
     inkscape:cy="26.413131"
     inkscape:current-layer="svg19" />
  <defs
     id="defs7">
    <linearGradient
       y2="44.125839"
       x2="38.382214"
       y1="26.753139"
       x1="0.85223734"
       id="_lgradient_5"
       gradientTransform="matrix(0.87049257,0,0,0.70054828,-0.74186641,-0.74186589)"
       gradientUnits="userSpaceOnUse">
      <stop
         stop-color="rgb(0,255,216)"
         offset="0%"
         id="stop2" />
      <stop
         stop-color="rgb(0,255,184)"
         offset="83.88839793817618%"
         id="stop4" />
    </linearGradient>
  </defs>
  <path
     inkscape:connector-curvature="0"
     style="fill:url(#_lgradient_5);fill-rule:evenodd;stroke-width:0.78091109"
     d="m 6.2863339,13.744035 v 0 c -0.4529284,0 -0.8199566,-0.367029 -0.8199566,-0.819957 v 0 c 0,-0.452928 0.3670282,-0.819957 0.8199566,-0.819957 v 0 h 4.4121471 c 0.431063,0 1.060478,-0.210065 1.40564,-0.468546 L 17.101952,7.8872016 C 17.447115,7.6287201 18.076529,7.418655 18.507592,7.418655 H 33.657267 C 34.950455,7.418655 36,8.4681995 36,9.7613879 V 30.143167 C 36,31.436356 34.950455,32.4859 33.657267,32.4859 H 2.3427331 C 1.0495444,32.4859 -1.5e-7,31.436356 -1.5e-7,30.143167 v -8.629067 0 c 0,-0.452929 0.3670282,-0.819957 0.8199566,-0.819957 v 0 c 0.45292845,0 0.81995665,0.367028 0.81995665,0.819957 v 0 8.16052 c 0,0.646595 0.5247722,1.171367 1.1713666,1.171367 H 33.18872 c 0.646594,0 1.171366,-0.524772 1.171366,-1.171367 V 10.229935 c 0,-0.6465941 -0.524772,-1.1713671 -1.171366,-1.1713671 H 19.05423 c -0.431063,0 -1.060477,0.210065 -1.40564,0.468547 l -4.997831,3.7483731 c -0.345163,0.258482 -0.974577,0.468547 -1.40564,0.468547 z m -4.6464208,1.522776 v 0 c 0,0.452929 -0.3670282,0.819957 -0.81995665,0.819957 v 0 c -0.4529284,0 -0.8199566,-0.367028 -0.8199566,-0.819957 v 0 -9.4099778 c 0,-1.2931887 1.04954455,-2.3427331 2.34273325,-2.3427331 h 9.7457699 c 0.431063,0 1.02846,0.2475488 1.333015,0.5521041 l 2.032712,2.0327114 v 0 c 0.318612,0.3186118 0.318612,0.8371364 0,1.1557481 v 0 c -0.318612,0.3186117 -0.837137,0.3186117 -1.155749,0 v 0 L 12.197831,5.1540133 H 2.8112797 c -0.6465944,0 -1.1713666,0.5247722 -1.1713666,1.1713666 z M 21.347766,27.114794 c -0.843384,0 -1.529805,-0.686421 -1.529805,-1.529805 0,-0.843384 0.686421,-1.529805 1.529805,-1.529805 0.843383,0 1.529804,0.686421 1.529804,1.529805 0,0.843384 -0.686421,1.529805 -1.529804,1.529805 z m 2.566854,-9.407636 c 0,-0.245206 0.174143,-0.458395 0.415445,-0.508373 l 6.065336,-1.274447 c 0.03514,-0.007 0.07106,-0.01093 0.106204,-0.01093 0.117918,0 0.232711,0.04061 0.326421,0.116355 0.121822,0.09918 0.191323,0.245987 0.191323,0.40217 v 0.75436 l -7.104729,1.511062 z m 7.56859,-2.480954 c -0.364685,-0.296746 -0.837917,-0.412321 -1.299436,-0.31705 l -6.066117,1.274447 c -0.718438,0.148373 -1.240087,0.789501 -1.240087,1.523557 v 5.817788 c -0.427158,-0.318612 -0.956616,-0.506812 -1.529804,-0.506812 -1.415011,0 -2.566855,1.151063 -2.566855,2.566855 0,1.415011 1.151844,2.566855 2.566855,2.566855 1.411887,0 2.560607,-1.145597 2.566854,-2.555141 0,-7.81e-4 0,-0.0024 0,-0.0031 v -5.835748 l 7.104729,-1.511063 v 3.618764 c -0.427939,-0.318612 -0.957397,-0.506812 -1.529805,-0.506812 -1.415792,0 -2.566854,1.151063 -2.566854,2.566855 0,1.415011 1.151062,2.566855 2.566854,2.566855 0.277224,0 0.550543,-0.04451 0.812148,-0.131193 0.271757,-0.09059 0.418568,-0.384209 0.327982,-0.655966 -0.09059,-0.271757 -0.384208,-0.418568 -0.655965,-0.327982 -0.155401,0.05154 -0.318612,0.07809 -0.484165,0.07809 -0.843384,0 -1.529805,-0.686421 -1.529805,-1.529805 0,-0.843384 0.686421,-1.529805 1.529805,-1.529805 0.843384,0 1.529805,0.686421 1.529805,1.529805 v 0.0031 c 0,0.286595 0.231931,0.518525 0.518525,0.518525 0.286594,0 0.518525,-0.23193 0.518525,-0.518525 v -7.496746 0 0 c 0,-0.469327 -0.209284,-0.90898 -0.573189,-1.205726 z"
     id="svg_1" />
</svg>
