<?xml version="1.0" encoding="UTF-8" standalone="no"?>
<svg
   xmlns:dc="http://purl.org/dc/elements/1.1/"
   xmlns:cc="http://creativecommons.org/ns#"
   xmlns:rdf="http://www.w3.org/1999/02/22-rdf-syntax-ns#"
   xmlns:svg="http://www.w3.org/2000/svg"
   xmlns="http://www.w3.org/2000/svg"
   xmlns:sodipodi="http://sodipodi.sourceforge.net/DTD/sodipodi-0.dtd"
   xmlns:inkscape="http://www.inkscape.org/namespaces/inkscape"
   viewBox="0 0 36 36"
   width="48"
   height="48"
   version="1.1"
   id="svg19"
   sodipodi:docname="folder-videos.svg"
   inkscape:version="0.92.4 (5da689c313, 2019-01-14)">
  <metadata
     id="metadata23">
    <rdf:RDF>
      <cc:Work
         rdf:about="">
        <dc:format>image/svg+xml</dc:format>
        <dc:type
           rdf:resource="http://purl.org/dc/dcmitype/StillImage" />
        <dc:title />
      </cc:Work>
    </rdf:RDF>
  </metadata>
  <sodipodi:namedview
     pagecolor="#ffffff"
     bordercolor="#666666"
     borderopacity="1"
     objecttolerance="10"
     gridtolerance="10"
     guidetolerance="10"
     inkscape:pageopacity="0"
     inkscape:pageshadow="2"
     inkscape:window-width="640"
     inkscape:window-height="480"
     id="namedview21"
     showgrid="false"
     inkscape:zoom="13.753101"
     inkscape:cx="23.975828"
     inkscape:cy="23.61372"
     inkscape:current-layer="svg19" />
  <defs
     id="defs7">
    <linearGradient
       y2="26.753139"
       x2="42.206558"
       y1="26.753139"
       x1="0.85066581"
       id="_lgradient_9"
       gradientTransform="matrix(0.80259415,0,0,0.64590551,0.72,3.0419996)"
       gradientUnits="userSpaceOnUse">
      <stop
         stop-color="rgb(0,198,255)"
         offset="0%"
         id="stop2" />
      <stop
         stop-color="rgb(0,114,255)"
         offset="98.69565217391305%"
         id="stop4" />
    </linearGradient>
  </defs>
  <g
     id="g820"
     transform="matrix(1.0845987,0,0,1.0845987,-1.5227775,-4.0412149)">
    <path
       id="svg_1"
       d="m 7.2000007,16.398 v 0 c -0.4176,0 -0.756,-0.3384 -0.756,-0.756 v 0 c 0,-0.4176 0.3384,-0.756 0.756,-0.756 v 0 h 4.0680003 c 0.39744,0 0.97776,-0.19368 1.296,-0.432 l 4.608,-3.456 c 0.31824,-0.23832 0.89856,-0.432 1.296,-0.432 h 13.968 c 1.19232,0 2.16,0.96768 2.16,2.16 v 18.792 c 0,1.19232 -0.96768,2.16 -2.16,2.16 H 3.5640007 c -1.19232,0 -2.16,-0.96768 -2.16,-2.16 v -7.956 0 c 0,-0.4176 0.3384,-0.756 0.756,-0.756 v 0 c 0.4176,0 0.756,0.3384 0.756,0.756 v 0 7.524 c 0,0.59616 0.48384,1.08 1.08,1.08 H 32.004001 c 0.59616,0 1.08,-0.48384 1.08,-1.08 V 13.158 c 0,-0.59616 -0.48384,-1.08 -1.08,-1.08 h -13.032 c -0.39744,0 -0.97776,0.19368 -1.296,0.432 l -4.608,3.456 c -0.31824,0.23832 -0.89856,0.432 -1.296,0.432 z m -4.284,1.404 v 0 c 0,0.4176 -0.3384,0.756 -0.756,0.756 v 0 c -0.4176,0 -0.756,-0.3384 -0.756,-0.756 v 0 -8.6759997 c 0,-1.19232 0.96768,-2.16 2.16,-2.16 h 8.9856003 c 0.39744,0 0.94824,0.22824 1.22904,0.50904 l 1.87416,1.87416 v 0 c 0.29376,0.29376 0.29376,0.7718397 0,1.0655997 v 0 c -0.29376,0.29376 -0.77184,0.29376 -1.0656,0 v 0 l -1.9368,-1.9367997 H 3.9960007 c -0.59616,0 -1.08,0.48384 -1.08,1.08 z M 22.803121,29.12328 c 0.13824,0 0.27144,0.04824 0.37008,0.13536 0.09648,0.08496 0.1512,0.20232 0.1512,0.324 0,0.12168 -0.05472,0.23904 -0.1512,0.324 -0.09864,0.08712 -0.23184,0.13536 -0.37008,0.13536 h -2.37168 c -0.94464,0 -1.71144,-0.7668 -1.71144,-1.71144 v -7.3692 c 0,-0.94464 0.7668,-1.71144 1.71144,-1.71144 h 8.81712 c 0.94464,0 1.71144,0.7668 1.71144,1.71144 v 7.3692 c 0,0.94464 -0.7668,1.71144 -1.71144,1.71144 h -2.37168 c -0.13824,0 -0.27144,-0.04824 -0.37008,-0.13536 -0.09648,-0.08496 -0.1512,-0.20232 -0.1512,-0.324 0,-0.12168 0.05472,-0.23904 0.1512,-0.324 0.09864,-0.08712 0.23184,-0.13536 0.37008,-0.13536 h 1.81872 c 0.67464,0 1.22256,-0.54792 1.22256,-1.22256 V 21.3912 c 0,-0.67536 -0.54792,-1.22328 -1.22256,-1.22328 h -7.7112 c -0.67464,0 -1.22256,0.54792 -1.22256,1.22328 v 6.50952 c 0,0.67464 0.54792,1.22256 1.22256,1.22256 z m 2.51352,-3.86136 -0.49824,0.26352 c -0.64152,0.33984 -1.1628,0.02592 -1.1628,-0.70056 v -0.35784 c 0,-0.72648 0.52128,-1.0404 1.1628,-0.70056 l 0.49824,0.26352 c 0.64224,0.33984 0.64224,0.89208 0,1.23192 z m 1.78272,0.24624 -3.3336,1.76472 c -0.64224,0.33984 -1.16352,0.02592 -1.16352,-0.69984 v -3.85416 c 0,-0.72648 0.52128,-1.03968 1.16352,-0.69984 l 3.3336,1.76472 c 0.89856,0.47592 0.89856,1.24848 0,1.7244 z"
       style="fill:url(#_lgradient_9);fill-rule:evenodd;stroke-width:0.72000003"
       inkscape:connector-curvature="0" />
  </g>
</svg>
