<svg width="48" height="48" xmlns="http://www.w3.org/2000/svg">
 <defs>
  <linearGradient y2="0.5" x2="1" y1="0.5" x1="0" id="_lgradient_8">
   <stop stop-color="rgb(255,224,49)" offset="0%"/>
   <stop stop-color="rgb(250,0,117)" offset="100%"/>
  </linearGradient>
 </defs>
 <g>
  <title>background</title>
  <rect fill="none" id="canvas_background" height="41" width="50" y="-1" x="-1"/>
 </g>
 <g>
  <title>Layer 1</title>
  <path id="svg_1" fill="url(#_lgradient_8)" fill-rule="evenodd" d="m24.507001,34.694001c0.051,0.503 0.476,0.896 0.993,0.896l13.5,0c0.552,0 1,-0.448 1,-1l0,-4.517l-4.542,3.11c-0.683,0.467 -1.713,0.372 -2.299,-0.214l-2.555,-2.555c-0.196,-0.196 -0.527,-0.212 -0.741,-0.038l-5.083,4.154l0,0c-0.079,0.079 -0.172,0.137 -0.273,0.164l0,0zm-15.507,-16.144l0,0c-0.58,0 -1.05,-0.47 -1.05,-1.05l0,0c0,-0.58 0.47,-1.05 1.05,-1.05l0,0l5.65,0c0.552,0 1.358,-0.269 1.8,-0.6l6.4,-4.8c0.442,-0.331 1.248,-0.6 1.8,-0.6l19.4,0c1.656,0 3,1.344 3,3l0,26.1c0,1.656 -1.344,3 -3,3l-40.1,0c-1.656,0 -3,-1.344 -3,-3l0,-11.05l0,0c0,-0.58 0.47,-1.05 1.05,-1.05l0,0c0.58,0 1.05,0.47 1.05,1.05l0,0l0,10.45c0,0.828 0.672,1.5 1.5,1.5l38.9,0c0.828,0 1.5,-0.672 1.5,-1.5l0,-24.9c0,-0.828 -0.672,-1.5 -1.5,-1.5l-18.1,0c-0.552,0 -1.358,0.269 -1.8,0.6l-6.4,4.8c-0.442,0.331 -1.248,0.6 -1.8,0.6l-6.35,0l0,0l0,0l0,0zm-5.95,1.95l0,0c0,0.58 -0.47,1.05 -1.05,1.05l0,0c-0.58,0 -1.05,-0.47 -1.05,-1.05l0,0l0,-12.05c0,-1.656 1.344,-3 3,-3l12.48,0c0.552,0 1.317,0.317 1.707,0.707l2.603,2.603l0,0c0.408,0.408 0.408,1.072 0,1.48l0,0c-0.408,0.408 -1.072,0.408 -1.48,0l0,0l-2.69,-2.69l-12.02,0c-0.828,0 -1.5,0.672 -1.5,1.5l0,11.45l0,0l0,0l0,0zm21.45,12.309l0,-6.309c0,-0.552 0.448,-1 1,-1l2.775,0l0,0c0.552,0 1,-0.448 1,-1l0,0c0,-0.552 -0.448,-1 -1,-1l0,0l-4.275,0c-0.828,0 -1.5,0.672 -1.5,1.5l0,11.09c0,0.828 0.672,1.5 1.5,1.5l16.5,0c0.828,0 1.5,-0.672 1.5,-1.5l0,-11.09c0,-0.828 -0.672,-1.5 -1.5,-1.5l-8.045,0l0,0c-0.552,0 -1,0.448 -1,1l0,0c0,0.552 0.448,1 1,1l0,0l0,0l6.545,0c0.552,0 1,0.448 1,1l0,1.792c-0.09,0.032 -0.175,0.081 -0.25,0.148l0,0l-5.05,3.259c-0.232,0.15 -0.578,0.113 -0.774,-0.083l-2.615,-2.615c-0.586,-0.586 -1.574,-0.627 -2.206,-0.092l-4.605,3.9l0,0zm10.75,-4.976c0,-0.69 0.56,-1.25 1.25,-1.25c0.69,0 1.25,0.56 1.25,1.25c0,0.69 -0.56,1.25 -1.25,1.25c-0.69,0 -1.25,-0.56 -1.25,-1.25z"/>
 </g>
</svg>