<?xml version="1.0" encoding="UTF-8" standalone="no"?>
<svg
   xmlns:dc="http://purl.org/dc/elements/1.1/"
   xmlns:cc="http://creativecommons.org/ns#"
   xmlns:rdf="http://www.w3.org/1999/02/22-rdf-syntax-ns#"
   xmlns:svg="http://www.w3.org/2000/svg"
   xmlns="http://www.w3.org/2000/svg"
   xmlns:xlink="http://www.w3.org/1999/xlink"
   xmlns:sodipodi="http://sodipodi.sourceforge.net/DTD/sodipodi-0.dtd"
   xmlns:inkscape="http://www.inkscape.org/namespaces/inkscape"
   width="48"
   height="48"
   version="1.1"
   id="svg21"
   sodipodi:docname="folder-unlocked.svg"
   inkscape:version="0.92.4 (5da689c313, 2019-01-14)">
  <metadata
     id="metadata25">
    <rdf:RDF>
      <cc:Work
         rdf:about="">
        <dc:format>image/svg+xml</dc:format>
        <dc:type
           rdf:resource="http://purl.org/dc/dcmitype/StillImage" />
      </cc:Work>
    </rdf:RDF>
  </metadata>
  <sodipodi:namedview
     pagecolor="#ffffff"
     bordercolor="#666666"
     borderopacity="1"
     objecttolerance="10"
     gridtolerance="10"
     guidetolerance="10"
     inkscape:pageopacity="0"
     inkscape:pageshadow="2"
     inkscape:window-width="1280"
     inkscape:window-height="947"
     id="namedview23"
     showgrid="false"
     inkscape:zoom="9.5069995"
     inkscape:cx="19.993958"
     inkscape:cy="34.414828"
     inkscape:window-x="0"
     inkscape:window-y="0"
     inkscape:window-maximized="1"
     inkscape:current-layer="svg21" />
  <defs
     id="defs9">
    <linearGradient
       inkscape:collect="always"
       id="linearGradient1415">
      <stop
         style="stop-color:#f7f107;stop-opacity:1;"
         offset="0"
         id="stop1411" />
      <stop
         style="stop-color:#ffbb24;stop-opacity:1"
         offset="1"
         id="stop1413" />
    </linearGradient>
    <linearGradient
       y2="50.420831"
       x2="42.888724"
       y1="6.4820938"
       x1="0.25431382"
       id="_lgradient_2"
       gradientTransform="scale(1.1147141,0.89709098)"
       gradientUnits="userSpaceOnUse">
      <stop
         stop-color="rgb(254,172,94)"
         offset="1.3043478260869565%"
         id="stop2" />
      <stop
         stop-color="rgb(199,121,208)"
         offset="53.04347826086957%"
         id="stop4" />
      <stop
         stop-color="rgb(75,192,200)"
         offset="99.56521739130434%"
         id="stop6" />
    </linearGradient>
    <linearGradient
       id="_lgradient_8"
       x1="0"
       y1="0.5"
       x2="0.90748805"
       y2="0.92007786"
       gradientTransform="matrix(15.908242,0,0,17.000265,26.091753,20.727147)"
       gradientUnits="userSpaceOnUse">
      <stop
         offset="0%"
         stop-opacity="1"
         style="stop-color:rgb(247,241,7)"
         id="stop817" />
      <stop
         offset="83.88839793817618%"
         stop-opacity="1"
         style="stop-color:rgb(255,187,36)"
         id="stop819" />
    </linearGradient>
    <linearGradient
       inkscape:collect="always"
       xlink:href="#linearGradient1415"
       id="linearGradient1417"
       x1="0.950001"
       y1="24.000001"
       x2="47.050001"
       y2="24.000001"
       gradientUnits="userSpaceOnUse" />
  </defs>
  <g
     id="g1401"
     style="fill-opacity:1;fill:url(#linearGradient1417)">
    <path
       sodipodi:nodetypes="ccccccsccsssssssccccccsssssssccscccccccccsssscccccccssccc"
       id="svg_1"
       d="m 9.000001,18.550001 v 0 c -0.58,0 -1.05,-0.47 -1.05,-1.05 v 0 c 0,-0.58 0.47,-1.05 1.05,-1.05 v 0 h 5.65 c 0.552,0 1.358,-0.269 1.8,-0.6 l 6.4,-4.8 c 0.442,-0.331 1.248,-0.6 1.8,-0.6 h 19.4 c 1.656,0 3,1.344 3,3 v 26.1 c 0,1.656 -1.344,3 -3,3 h -40.1 c -1.656,0 -3,-1.344 -3,-3 v -11.05 0 c 0,-0.58 0.47,-1.05 1.05,-1.05 v 0 c 0.58,0 1.05,0.47 1.05,1.05 v 0 10.45 c 0,0.828 0.672,1.5 1.5,1.5 h 38.9 c 0.828,0 1.5,-0.672 1.5,-1.5 v -24.9 c 0,-0.828 -0.672,-1.5 -1.5,-1.5 h -18.1 c -0.552,0 -1.358,0.269 -1.8,0.6 l -6.4,4.8 c -0.442,0.331 -1.248,0.6 -1.8,0.6 h -6.35 v 0 z m -5.95,1.95 v 0 c 0,0.58 -0.47,1.05 -1.05,1.05 v 0 c -0.58,0 -1.05,-0.47 -1.05,-1.05 v 0 -12.05 c 0,-1.656 1.344,-3 3,-3 h 12.48 c 0.552,0 1.317,0.317 1.707,0.707 l 2.603,2.603 v 0 c 0.408,0.408 0.408,1.072 0,1.48 v 0 c -0.408,0.408 -1.072,0.408 -1.48,0 v 0 l -2.69,-2.69 h -12.02 c -0.828,0 -1.5,0.672 -1.5,1.5 v 11.45 0 z"
       style="fill:url(#linearGradient1417);fill-rule:evenodd;fill-opacity:1"
       inkscape:connector-curvature="0" />
    <path
       id="path822"
       d="m 35.548584,28.295559 v 0 c 0.103183,-0.402496 0.518373,-0.622784 0.926192,-0.490939 v 0 c 0.40782,0.131845 0.654723,0.569146 0.55113,0.975737 v 0 l -0.108915,0.408639 1.379871,0.226839 c 0.299314,0.04913 0.532704,0.335346 0.52083,0.638345 l -0.06387,1.623498 1.29798,0.194083 1.948199,2.322033 -0.219879,2.960787 c -0.02252,0.30259 -0.28703,0.549902 -0.590438,0.55154 l -3.318243,0.02088 -6.488263,-7.732195 -1.34425,0.280479 c -0.296861,0.06183 -0.696492,-0.07657 -0.891393,-0.309139 l -2.730672,-3.253959 c -0.194902,-0.232571 -0.340259,-0.667415 -0.323881,-0.970414 l 0.04135,-0.772646 c 0.01638,-0.302999 0.218241,-0.707543 0.450813,-0.902444 l 3.63025,-3.046364 c 0.232571,-0.194902 0.665778,-0.323881 0.967138,-0.28703 l 0.768143,0.09336 c 0.30136,0.03644 0.704267,0.255092 0.899168,0.487254 l 2.628717,3.132759 c 0.195311,0.232572 0.340259,0.667416 0.323881,0.970414 l -0.05364,1.00399 v 0 c -0.02252,0.42256 -0.382842,0.72474 -0.804174,0.674786 v 0 c -0.421332,-0.05036 -0.742756,-0.435663 -0.718189,-0.85986 v 0 l 0.04586,-0.92128 -2.486225,-2.963244 -0.603541,-0.07329 -3.526657,2.959559 -0.03276,0.606816 2.38468,2.841635 1.878592,-0.39718 6.620928,7.890655 1.807754,-0.0131 0.115058,-1.538332 -1.10963,-1.322138 -1.951474,-0.288258 C 37.068891,32.973615 36.82035,32.691088 36.814618,32.38768 l -0.02252,-1.164907 -1.379871,-0.226839 c -0.299314,-0.04913 -0.480294,-0.327566 -0.404135,-0.621147 z m -5.781131,-3.345267 c 0,-0.452041 0.366874,-0.818915 0.818916,-0.818915 0.452041,0 0.818915,0.366874 0.818915,0.818915 0,0.451632 -0.366874,0.818915 -0.818915,0.818915 -0.452042,0 -0.818916,-0.367283 -0.818916,-0.818915 z"
       style="isolation:isolate;fill:url(#linearGradient1417);fill-rule:evenodd;stroke-width:0.40945747;fill-opacity:1"
       inkscape:connector-curvature="0" />
  </g>
</svg>
