<svg width="48" height="48" xmlns="http://www.w3.org/2000/svg">
 <defs>
  <linearGradient y2="0.920078" x2="0.907488" y1="0.5" x1="0" id="_lgradient_5">
   <stop stop-color="rgb(0,255,216)" offset="0%"/>
   <stop stop-color="rgb(0,255,184)" offset="83.88839793817618%"/>
  </linearGradient>
 </defs>
 <g>
  <title>background</title>
  <rect fill="none" id="canvas_background" height="41" width="50" y="-1" x="-1"/>
 </g>
 <g>
  <title>Layer 1</title>
  <path id="svg_1" fill="url(#_lgradient_5)" fill-rule="evenodd" d="m9.000001,18.550001l0,0c-0.58,0 -1.05,-0.47 -1.05,-1.05l0,0c0,-0.58 0.47,-1.05 1.05,-1.05l0,0l5.65,0c0.552,0 1.358,-0.269 1.8,-0.6l6.4,-4.8c0.442,-0.331 1.248,-0.6 1.8,-0.6l19.4,0c1.656,0 3,1.344 3,3l0,26.1c0,1.656 -1.344,3 -3,3l-40.1,0c-1.656,0 -3,-1.344 -3,-3l0,-11.05l0,0c0,-0.58 0.47,-1.05 1.05,-1.05l0,0c0.58,0 1.05,0.47 1.05,1.05l0,0l0,10.45c0,0.828 0.672,1.5 1.5,1.5l38.9,0c0.828,0 1.5,-0.672 1.5,-1.5l0,-24.9c0,-0.828 -0.672,-1.5 -1.5,-1.5l-18.1,0c-0.552,0 -1.358,0.269 -1.8,0.6l-6.4,4.8c-0.442,0.331 -1.248,0.6 -1.8,0.6l-6.35,0l0,0zm-5.95,1.95l0,0c0,0.58 -0.47,1.05 -1.05,1.05l0,0c-0.58,0 -1.05,-0.47 -1.05,-1.05l0,0l0,-12.05c0,-1.656 1.344,-3 3,-3l12.48,0c0.552,0 1.317,0.317 1.707,0.707l2.603,2.603l0,0c0.408,0.408 0.408,1.072 0,1.48l0,0c-0.408,0.408 -1.072,0.408 -1.48,0l0,0l-2.69,-2.69l-12.02,0c-0.828,0 -1.5,0.672 -1.5,1.5l0,11.45l0,0zm25.237,15.172c-1.08,0 -1.959,-0.879 -1.959,-1.959c0,-1.08 0.879,-1.959 1.959,-1.959c1.08,0 1.959,0.879 1.959,1.959c0,1.08 -0.879,1.959 -1.959,1.959l0,0zm3.287,-12.047c0,-0.314 0.223,-0.587 0.532,-0.651l7.767,-1.632c0.045,-0.009 0.091,-0.014 0.136,-0.014c0.151,0 0.298,0.052 0.418,0.149c0.156,0.127 0.245,0.315 0.245,0.515l0,0.966l-9.098,1.935l0,-1.268l0,0zm9.692,-3.177c-0.467,-0.38 -1.073,-0.528 -1.664,-0.406l-7.768,1.632c-0.92,0.19 -1.588,1.011 -1.588,1.951l0,7.45c-0.547,-0.408 -1.225,-0.649 -1.959,-0.649c-1.812,0 -3.287,1.474 -3.287,3.287c0,1.812 1.475,3.287 3.287,3.287c1.808,0 3.279,-1.467 3.287,-3.272c0,-0.001 0,-0.003 0,-0.004l0,-7.473l9.098,-1.935l0,4.634c-0.548,-0.408 -1.226,-0.649 -1.959,-0.649c-1.813,0 -3.287,1.474 -3.287,3.287c0,1.812 1.474,3.287 3.287,3.287c0.355,0 0.705,-0.057 1.04,-0.168c0.348,-0.116 0.536,-0.492 0.42,-0.84c-0.116,-0.348 -0.492,-0.536 -0.84,-0.42c-0.199,0.066 -0.408,0.1 -0.62,0.1c-1.08,0 -1.959,-0.879 -1.959,-1.959c0,-1.08 0.879,-1.959 1.959,-1.959c1.08,0 1.959,0.879 1.959,1.959l0,0.004c0,0.367 0.297,0.664 0.664,0.664c0.367,0 0.664,-0.297 0.664,-0.664l0,-9.6l0,0l0,0c0,-0.601 -0.268,-1.164 -0.734,-1.544l0,0l0,0z"/>
 </g>
</svg>