<?xml version="1.0" encoding="UTF-8" standalone="no"?>
<svg
   xmlns:dc="http://purl.org/dc/elements/1.1/"
   xmlns:cc="http://creativecommons.org/ns#"
   xmlns:rdf="http://www.w3.org/1999/02/22-rdf-syntax-ns#"
   xmlns:svg="http://www.w3.org/2000/svg"
   xmlns="http://www.w3.org/2000/svg"
   xmlns:xlink="http://www.w3.org/1999/xlink"
   xmlns:sodipodi="http://sodipodi.sourceforge.net/DTD/sodipodi-0.dtd"
   xmlns:inkscape="http://www.inkscape.org/namespaces/inkscape"
   width="48"
   height="48"
   version="1.1"
   id="svg841"
   sodipodi:docname="folder-bookmark.svg"
   inkscape:version="0.92.4 (5da689c313, 2019-01-14)">
  <metadata
     id="metadata845">
    <rdf:RDF>
      <cc:Work
         rdf:about="">
        <dc:format>image/svg+xml</dc:format>
        <dc:type
           rdf:resource="http://purl.org/dc/dcmitype/StillImage" />
        <dc:title />
      </cc:Work>
    </rdf:RDF>
  </metadata>
  <sodipodi:namedview
     pagecolor="#ffffff"
     bordercolor="#666666"
     borderopacity="1"
     objecttolerance="10"
     gridtolerance="10"
     guidetolerance="10"
     inkscape:pageopacity="0"
     inkscape:pageshadow="2"
     inkscape:window-width="1280"
     inkscape:window-height="947"
     id="namedview843"
     showgrid="false"
     inkscape:zoom="12.222872"
     inkscape:cx="24.305536"
     inkscape:cy="22.938861"
     inkscape:window-x="0"
     inkscape:window-y="0"
     inkscape:window-maximized="1"
     inkscape:current-layer="g823" />
  <defs
     id="defs829">
    <linearGradient
       inkscape:collect="always"
       id="linearGradient888">
      <stop
         style="stop-color:#f237ef;stop-opacity:1"
         offset="0"
         id="stop884" />
      <stop
         style="stop-color:#fc5252;stop-opacity:1"
         offset="1"
         id="stop886" />
    </linearGradient>
    <linearGradient
       gradientUnits="userSpaceOnUse"
       gradientTransform="matrix(28.810036,0,0,42.00016,9.9005176,4.061139)"
       y2="0.5"
       x2="1"
       y1="0.5"
       x1="0"
       id="linearGradient874">
      <stop
         id="stop870"
         style="stop-color:rgb(242,55,239)"
         stop-opacity="1"
         offset="0%" />
      <stop
         id="stop872"
         style="stop-color:rgb(252,82,82)"
         stop-opacity="1"
         offset="98.69565217391305%" />
    </linearGradient>
    <linearGradient
       gradientUnits="userSpaceOnUse"
       gradientTransform="matrix(11.661205,0,0,17.000065,30.338796,20.727)"
       y2="0.5"
       x2="1"
       y1="0.5"
       x1="0"
       id="linearGradient864">
      <stop
         id="stop860"
         style="stop-color:rgb(242,55,239)"
         stop-opacity="1"
         offset="0%" />
      <stop
         id="stop862"
         style="stop-color:rgb(252,82,82)"
         stop-opacity="1"
         offset="98.69565217391305%" />
    </linearGradient>
    <linearGradient
       gradientUnits="userSpaceOnUse"
       gradientTransform="matrix(11.661205,0,0,17.000065,30.338796,20.727)"
       y2="0.5"
       x2="1"
       y1="0.5"
       x1="0"
       id="linearGradient858">
      <stop
         id="stop854"
         style="stop-color:#1737ef;stop-opacity:1"
         stop-opacity="1"
         offset="0%" />
      <stop
         id="stop856"
         style="stop-color:#fc1452;stop-opacity:1"
         stop-opacity="1"
         offset="98.69565217391305%" />
    </linearGradient>
    <linearGradient
       y2="50.420831"
       x2="42.888724"
       y1="6.4820938"
       x1="0.25431382"
       id="_lgradient_2"
       gradientTransform="scale(1.1147141,0.89709098)"
       gradientUnits="userSpaceOnUse">
      <stop
         stop-color="rgb(254,172,94)"
         offset="1.3043478260869565%"
         id="stop822" />
      <stop
         stop-color="rgb(199,121,208)"
         offset="53.04347826086957%"
         id="stop824" />
      <stop
         stop-color="rgb(75,192,200)"
         offset="99.56521739130434%"
         id="stop826" />
    </linearGradient>
    <linearGradient
       id="_lgradient_1"
       x1="0"
       y1="0.5"
       x2="1"
       y2="0.5"
       gradientTransform="matrix(11.661205,0,0,17.000065,30.338796,20.727)"
       gradientUnits="userSpaceOnUse">
      <stop
         offset="0%"
         stop-opacity="1"
         style="stop-color:rgb(242,55,239)"
         id="stop9" />
      <stop
         offset="98.69565217391305%"
         stop-opacity="1"
         style="stop-color:rgb(252,82,82)"
         id="stop11" />
    </linearGradient>
    <linearGradient
       inkscape:collect="always"
       xlink:href="#_lgradient_1"
       id="linearGradient831"
       x1="0.950001"
       y1="24.000002"
       x2="47.049999"
       y2="24.000002"
       gradientUnits="userSpaceOnUse" />
    <linearGradient
       id="_lgradient_1-3"
       x1="0"
       y1="0.5"
       x2="1"
       y2="0.5"
       gradientTransform="matrix(28.810036,0,0,42.00016,9.9005176,4.061139)"
       gradientUnits="userSpaceOnUse">
      <stop
         offset="0%"
         stop-opacity="1"
         style="stop-color:rgb(242,55,239)"
         id="stop9-6" />
      <stop
         offset="98.69565217391305%"
         stop-opacity="1"
         style="stop-color:rgb(252,82,82)"
         id="stop11-7" />
    </linearGradient>
    <linearGradient
       inkscape:collect="always"
       xlink:href="#linearGradient888"
       id="linearGradient890"
       x1="0.950001"
       y1="24.000001"
       x2="47.050001"
       y2="24.000001"
       gradientUnits="userSpaceOnUse" />
  </defs>
  <g
     id="g823"
     style="fill-opacity:1.0;fill:url(#linearGradient831)">
    <g
       id="g882"
       style="fill:url(#linearGradient890);fill-opacity:1">
      <path
         inkscape:connector-curvature="0"
         style="fill:url(#linearGradient890);fill-opacity:1;fill-rule:evenodd"
         d="m 9.000001,18.550001 v 0 c -0.58,0 -1.05,-0.47 -1.05,-1.05 v 0 c 0,-0.58 0.47,-1.05 1.05,-1.05 v 0 h 5.65 c 0.552,0 1.358,-0.269 1.8,-0.6 l 6.4,-4.8 c 0.442,-0.331 1.248,-0.6 1.8,-0.6 h 19.4 c 1.656,0 3,1.344 3,3 v 26.1 c 0,1.656 -1.344,3 -3,3 h -40.1 c -1.656,0 -3,-1.344 -3,-3 v -11.05 0 c 0,-0.58 0.47,-1.05 1.05,-1.05 v 0 c 0.58,0 1.05,0.47 1.05,1.05 v 0 10.45 c 0,0.828 0.672,1.5 1.5,1.5 h 38.9 c 0.828,0 1.5,-0.672 1.5,-1.5 v -24.9 c 0,-0.828 -0.672,-1.5 -1.5,-1.5 h -18.1 c -0.552,0 -1.358,0.269 -1.8,0.6 l -6.4,4.8 c -0.442,0.331 -1.248,0.6 -1.8,0.6 z m -5.95,1.95 v 0 c 0,0.58 -0.47,1.05 -1.05,1.05 v 0 c -0.58,0 -1.05,-0.47 -1.05,-1.05 v 0 -12.05 c 0,-1.656 1.344,-3 3,-3 h 12.48 c 0.552,0 1.317,0.317 1.707,0.707 l 2.603,2.603 v 0 c 0.408,0.408 0.408,1.072 0,1.48 v 0 c -0.408,0.408 -1.072,0.408 -1.48,0 v 0 l -2.69,-2.69 h -12.02 c -0.828,0 -1.5,0.672 -1.5,1.5 z"
         id="svg_1"
         sodipodi:nodetypes="ccccccsccsssssssccccccsssssssccscccccccccsssscccccccssccc" />
      <path
         id="path14"
         d="m 37.680983,21.443503 v 0 c -0.238326,0 -0.432193,-0.211792 -0.432193,-0.471751 v 0 C 37.24879,20.711084 37.442657,20.5 37.680983,20.5 v 0 h 3.455361 c 0.476652,0 0.863657,0.422877 0.863657,0.943503 v 15.463685 c 0,0.520627 -0.329429,0.721794 -0.735384,0.448377 l -4.566819,-3.067096 c -0.405956,-0.272708 -1.057526,-0.25996 -1.454736,0.02905 l -4.185645,3.047253 c -0.396481,0.288294 -0.718622,0.100585 -0.718622,-0.420042 V 21.443503 c 0,-0.520626 0.387007,-0.943503 0.863658,-0.943503 h 3.023169 v 0 c 0.238326,0 0.432194,0.211084 0.432194,0.471752 v 0 c 0,0.259959 -0.193868,0.471751 -0.432194,0.471751 v 0 h -2.590974 c -0.238327,0 -0.432195,0.211084 -0.432195,0.471044 v 13.738178 c 0,0.259958 0.161071,0.354168 0.359311,0.209668 l 4.023846,-2.92897 c 0.198241,-0.1445 0.524025,-0.150877 0.72664,-0.01417 l 4.456037,2.995552 c 0.203342,0.136001 0.368057,0.03541 0.368057,-0.224542 V 21.914545 c 0,-0.25996 -0.193868,-0.471044 -0.432194,-0.471044 z m -3.093135,4.007766 -0.02187,0.0015 -0.02114,0.0021 -0.02186,0.0015 -0.02041,0.0028 -0.0204,0.0035 -0.02114,0.0028 -0.01968,0.005 -0.02114,0.0042 -0.01967,0.0056 -0.01968,0.0056 -0.01968,0.0064 -0.01968,0.007 -0.01822,0.0078 -0.01968,0.0078 -0.01822,0.0078 -0.01896,0.0092 -0.01822,0.0092 -0.01822,0.0092 -0.01749,0.01062 -0.01749,0.01062 -0.01749,0.01134 -0.01677,0.01133 -0.01749,0.01275 -0.01603,0.01205 -0.01677,0.01275 -0.0153,0.01346 -0.01603,0.01417 -0.01531,0.01346 -0.01458,0.01487 -0.0153,0.01487 -0.01458,0.01558 -0.01385,0.01558 -0.01385,0.017 -0.01313,0.01629 -0.01313,0.01629 -0.01313,0.017 -0.01167,0.017 -0.01166,0.01841 -0.01166,0.01771 -0.01166,0.01912 -0.0102,0.01842 -0.0102,0.01913 -0.0102,0.01842 -0.0095,0.01984 -0.008,0.01983 -0.0087,0.01983 -0.0087,0.01983 -0.0072,0.02054 -0.0066,0.02125 -0.0072,0.02054 -0.0066,0.02054 -0.0058,0.02195 -0.0051,0.02125 -0.0051,0.02195 -0.0044,0.02267 -0.0044,0.02196 -0.0022,0.02267 -0.0028,0.02267 -0.0028,0.02267 -0.0015,0.02338 -0.0015,0.02338 -0.0015,0.02338 v 0.02408 l 7.29e-4,0.02691 7.29e-4,0.02691 0.0015,0.02762 0.0022,0.02834 0.0028,0.02834 0.0036,0.02905 0.0028,0.02904 0.0051,0.02975 0.0058,0.03045 0.0058,0.03045 0.0073,0.03117 0.0073,0.03118 0.008,0.03187 0.0087,0.03329 0.0102,0.03258 0.0102,0.03258 0.0102,0.034 0.01239,0.03329 0.01239,0.03471 0.01239,0.034 0.01385,0.03471 0.0153,0.03471 0.01458,0.03542 0.01603,0.03471 0.01603,0.03613 0.01749,0.03612 0.01749,0.03613 0.01822,0.03612 0.01895,0.03613 0.01968,0.03683 0.0204,0.03684 0.01967,0.03471 0.04373,0.07579 0.04591,0.07367 0.04738,0.07437 0.0481,0.07437 0.05175,0.07367 0.05247,0.07437 0.05393,0.07367 0.05539,0.07225 0.05685,0.07296 0.05831,0.07155 0.05831,0.07154 0.06049,0.07083 0.05975,0.06941 0.06195,0.06871 0.06122,0.068 0.06122,0.06658 0.06268,0.06517 0.06122,0.06445 0.06268,0.06304 0.06122,0.06163 0.06122,0.06021 0.06122,0.05879 0.05977,0.05667 0.05975,0.05595 0.05831,0.05383 0.05612,0.05171 0.112238,0.09988 0.104951,0.09137 0.09839,0.08358 0.01093,0.0092 0.01166,-0.0092 0.09766,-0.08358 0.10568,-0.09137 0.112239,-0.09988 0.05611,-0.05171 0.05831,-0.05383 0.05904,-0.05595 0.06049,-0.05667 0.06049,-0.05879 0.06195,-0.06021 0.06122,-0.06163 0.06195,-0.06304 0.06195,-0.06445 0.06195,-0.06517 0.06195,-0.06658 0.06122,-0.068 0.06122,-0.06871 0.06049,-0.06941 0.05977,-0.07083 0.05904,-0.07154 0.05758,-0.07155 0.05757,-0.07296 0.05466,-0.07225 0.05466,-0.07367 0.05248,-0.07437 0.05101,-0.07367 0.04883,-0.07437 0.04738,-0.07437 0.04591,-0.07367 0.043,-0.07579 0.0204,-0.03471 0.01968,-0.03684 0.0204,-0.03683 0.01822,-0.03613 0.01896,-0.03612 0.01749,-0.03613 0.01677,-0.03612 0.01677,-0.03613 0.0153,-0.03471 0.01531,-0.03542 0.01458,-0.03471 0.01385,-0.03471 0.01313,-0.034 0.01166,-0.03471 0.01239,-0.03329 0.01093,-0.034 0.0102,-0.03258 0.0095,-0.03258 0.0087,-0.03329 0.0087,-0.03187 0.0073,-0.03118 0.0073,-0.03117 0.0051,-0.03045 0.0058,-0.03045 0.0051,-0.02975 0.0036,-0.02904 0.0036,-0.02905 0.0029,-0.02834 0.0022,-0.02834 0.0015,-0.02762 7.29e-4,-0.02691 7.29e-4,-0.02691 v -0.02408 l -0.0015,-0.02338 -0.0015,-0.02338 -0.0015,-0.02338 -0.0029,-0.02267 -0.0028,-0.02267 -0.0028,-0.02267 -0.0044,-0.02196 -0.0044,-0.02267 -0.0051,-0.02195 -0.0044,-0.02125 -0.0058,-0.02195 -0.0065,-0.02054 -0.0073,-0.02054 -0.0073,-0.02125 -0.0073,-0.02054 -0.008,-0.01983 -0.0087,-0.01983 -0.0087,-0.01983 -0.0095,-0.01984 -0.0095,-0.01842 -0.0102,-0.01913 -0.01093,-0.01842 -0.01167,-0.01912 -0.01093,-0.01771 -0.01166,-0.01841 -0.01239,-0.017 -0.01239,-0.017 -0.01313,-0.01629 -0.01385,-0.01629 -0.01311,-0.017 -0.01458,-0.01558 -0.01458,-0.01558 -0.01458,-0.01487 -0.01531,-0.01487 -0.01458,-0.01346 -0.01603,-0.01417 -0.01603,-0.01346 -0.01603,-0.01275 -0.01676,-0.01205 -0.01676,-0.01275 -0.01749,-0.01133 -0.01677,-0.01134 -0.01749,-0.01062 -0.01822,-0.01062 -0.01749,-0.0092 -0.01896,-0.0092 -0.01822,-0.0092 -0.01896,-0.0078 -0.01895,-0.0078 -0.01895,-0.0078 -0.01896,-0.007 -0.02041,-0.0064 -0.01895,-0.0056 -0.0204,-0.0056 -0.02041,-0.0042 -0.0204,-0.005 -0.0204,-0.0028 -0.02041,-0.0035 -0.02113,-0.0028 -0.02114,-0.0015 -0.02186,-0.0021 -0.02113,-0.0015 h -0.02114 l -0.02916,7.28e-4 -0.02769,0.0021 -0.02769,0.0021 -0.02696,0.0028 -0.02696,0.005 -0.02551,0.005 -0.02696,0.0056 -0.02551,0.007 -0.02478,0.0078 -0.02551,0.0085 -0.02478,0.01062 -0.02478,0.0099 -0.02333,0.01134 -0.02333,0.01133 -0.02405,0.01346 -0.02259,0.01346 -0.02259,0.01346 -0.02187,0.01558 -0.02114,0.01629 -0.02186,0.01629 -0.01968,0.017 -0.02114,0.01771 -0.01895,0.01912 -0.01968,0.01912 -0.01822,0.01983 -0.01822,0.02054 -0.01676,0.02054 -0.01676,0.02195 -0.01677,0.02195 -0.01531,0.02267 -0.0153,0.02338 -0.425635,0.711878 h -0.386244 l -0.425635,-0.711878 -0.01458,-0.02338 -0.01603,-0.02267 -0.01603,-0.02195 -0.01677,-0.02195 -0.01749,-0.02054 -0.01749,-0.02054 -0.01896,-0.01983 -0.01896,-0.01912 -0.01968,-0.01912 -0.0204,-0.01771 -0.0204,-0.017 -0.02114,-0.01629 -0.02187,-0.01629 -0.02186,-0.01558 -0.02187,-0.01346 -0.02333,-0.01346 -0.02333,-0.01346 -0.02406,-0.01133 -0.02333,-0.01134 -0.02405,-0.0099 -0.02551,-0.01062 -0.02478,-0.0085 -0.02478,-0.0078 -0.02623,-0.007 -0.02623,-0.0056 -0.02551,-0.005 -0.02769,-0.005 -0.02697,-0.0028 -0.02696,-0.0021 -0.02842,-0.0021 -0.02916,-7.28e-4 z m 2.684263,-0.779879 0.04008,0.0015 0.03935,0.0021 0.03936,0.0042 0.03863,0.0042 0.03863,0.0064 0.03863,0.007 0.0379,0.0078 0.0379,0.0085 0.03717,0.01062 0.03644,0.01062 0.03717,0.01205 0.03571,0.01276 0.03644,0.01346 0.03571,0.01487 0.03498,0.01558 0.03425,0.01629 0.03425,0.01841 0.03352,0.01771 0.0328,0.01912 0.0328,0.01984 0.0328,0.02125 0.03134,0.02126 0.03134,0.02267 0.03062,0.02338 0.02988,0.02408 0.02989,0.02409 0.02915,0.0255 0.02769,0.0262 0.02769,0.02691 0.0277,0.02762 0.02623,0.02905 0.02624,0.02905 0.02551,0.02905 0.02478,0.03045 0.02333,0.03187 0.02406,0.03117 0.02259,0.03187 0.02186,0.03329 0.02114,0.03329 0.02113,0.034 0.01896,0.03471 0.01896,0.03471 0.01822,0.03613 0.01822,0.03612 0.01603,0.03683 0.01676,0.03755 0.01458,0.03684 0.01458,0.03825 0.01385,0.03967 0.01166,0.03895 0.01239,0.03895 0.01093,0.04038 0.0095,0.03967 0.0095,0.04108 0.008,0.04109 0.0073,0.0418 0.0066,0.0418 0.0051,0.04249 0.0044,0.0418 0.0036,0.0432 0.0022,0.0432 0.0015,0.0432 7.29e-4,0.04391 -7.29e-4,0.04605 -0.0015,0.04605 -0.0022,0.04605 -0.0036,0.04605 -0.0044,0.04605 -0.0058,0.04605 -0.0066,0.04676 -0.0073,0.04605 -0.0087,0.04605 -0.0087,0.04605 -0.01021,0.04605 -0.01093,0.04604 -0.01166,0.04605 -0.01239,0.04605 -0.01385,0.04605 -0.01458,0.04605 -0.01458,0.04534 -0.01603,0.04605 -0.01603,0.04534 -0.01749,0.04605 -0.01822,0.04533 -0.01896,0.04534 -0.01895,0.04534 -0.02041,0.04534 -0.0204,0.04533 -0.02187,0.04534 -0.02186,0.04462 -0.02259,0.04462 -0.02333,0.04391 -0.02405,0.04462 -0.02406,0.04462 -0.02478,0.04462 -0.05175,0.08713 -0.0532,0.08783 -0.05467,0.08571 -0.05757,0.08642 -0.05758,0.085 -0.06049,0.08358 -0.06049,0.08288 -0.06268,0.08146 -0.06341,0.08146 -0.06414,0.08004 -0.06486,0.07863 -0.06632,0.07721 -0.06632,0.0765 -0.06632,0.07508 -0.06705,0.07367 -0.06705,0.07225 -0.06705,0.07154 -0.06632,0.06871 -0.06705,0.068 -0.06633,0.06587 -0.0656,0.06517 -0.06486,0.06233 -0.06486,0.06163 -0.06268,0.05949 -0.06268,0.05667 -0.06122,0.05667 -0.118069,0.105542 -0.112239,0.09633 -0.104223,0.08925 -0.09621,0.08004 -0.08746,0.07013 -0.07653,0.06092 -0.06414,0.051 -0.0911,0.06871 -0.03208,0.02408 -0.03207,-0.02408 -0.0911,-0.06871 -0.06414,-0.051 -0.07653,-0.06092 -0.08673,-0.07013 -0.0962,-0.08004 -0.104221,-0.08925 -0.112967,-0.09633 -0.11807,-0.105542 -0.0605,-0.05667 -0.06268,-0.05667 -0.06342,-0.05949 -0.06414,-0.06163 -0.06486,-0.06233 -0.06632,-0.06517 -0.06632,-0.06587 -0.06632,-0.068 -0.06632,-0.06871 -0.06778,-0.07154 -0.06705,-0.07225 -0.06632,-0.07367 -0.06705,-0.07508 -0.06632,-0.0765 -0.0656,-0.07721 -0.06486,-0.07863 -0.06487,-0.08004 -0.06268,-0.08146 -0.06268,-0.08146 -0.06122,-0.08288 -0.05975,-0.08358 -0.05831,-0.085 -0.05685,-0.08642 -0.05539,-0.08571 -0.0532,-0.08783 -0.05101,-0.08713 -0.02551,-0.04462 -0.02406,-0.04462 -0.02333,-0.04462 -0.02406,-0.04391 -0.02186,-0.04462 -0.02259,-0.04462 -0.02114,-0.04534 -0.02041,-0.04533 -0.0204,-0.04534 -0.01895,-0.04534 -0.01896,-0.04534 -0.01895,-0.04533 -0.01677,-0.04605 -0.01676,-0.04534 -0.01531,-0.04605 -0.0153,-0.04534 -0.01385,-0.04605 -0.01385,-0.04605 -0.01313,-0.04605 -0.01166,-0.04605 -0.0102,-0.04604 -0.01093,-0.04605 -0.0087,-0.04605 -0.008,-0.04605 -0.0073,-0.04605 -0.0065,-0.04676 -0.0058,-0.04605 -0.0051,-0.04605 -0.0036,-0.04605 -0.0022,-0.04605 -0.0015,-0.04605 -7.29e-4,-0.04605 7.29e-4,-0.04391 0.0015,-0.0432 0.0022,-0.0432 0.0036,-0.0432 0.0044,-0.0418 0.0058,-0.04249 0.0066,-0.0418 0.0072,-0.0418 0.0073,-0.04109 0.0095,-0.04108 0.0102,-0.03967 0.01093,-0.04038 0.01166,-0.03895 0.01239,-0.03895 0.01385,-0.03967 0.01385,-0.03825 0.0153,-0.03683 0.01603,-0.03755 0.01676,-0.03684 0.01749,-0.03612 0.01822,-0.03613 0.01968,-0.03471 0.01895,-0.03471 0.02041,-0.034 0.02187,-0.03329 0.02114,-0.03329 0.02333,-0.03187 0.02333,-0.03117 0.02405,-0.03187 0.02478,-0.03045 0.02478,-0.02905 0.02696,-0.02905 0.02623,-0.02905 0.02697,-0.02762 0.02769,-0.02691 0.02842,-0.0262 0.02915,-0.0255 0.02915,-0.02409 0.02988,-0.02408 0.03133,-0.02338 0.03134,-0.02267 0.03134,-0.02126 0.03207,-0.02125 0.0328,-0.01984 0.0328,-0.01912 0.03425,-0.01771 0.03425,-0.01841 0.03425,-0.01629 0.03498,-0.01558 0.03571,-0.01487 0.03571,-0.01346 0.03571,-0.01276 0.03717,-0.01205 0.03644,-0.01062 0.03716,-0.01062 0.0379,-0.0085 0.0379,-0.0078 0.03863,-0.007 0.03863,-0.0064 0.03863,-0.0042 0.03935,-0.0042 0.03936,-0.0021 0.04008,-0.0015 0.04008,-7.28e-4 0.05175,7.28e-4 0.05101,0.0028 0.05029,0.0042 0.05029,0.007 0.05029,0.0078 0.04883,0.0092 0.04883,0.01133 0.04811,0.01346 0.04738,0.01417 0.04665,0.01629 0.04592,0.01771 0.04591,0.01983 0.04445,0.02125 0.04445,0.02195 0.04373,0.02408 0.04227,0.0248 0.04082,0.02692 0.04082,0.02762 0.04008,0.02904 0.03936,0.03045 0.0379,0.03187 0.03718,0.034 0.03644,0.034 0.03571,0.03542 0.03425,0.03684 0.0328,0.03755 0.03208,0.03895 0.03134,0.04038 0.02988,0.04038 0.02915,0.0425 0.02696,0.0432 0.02624,0.04321 0.02696,-0.04321 0.02696,-0.0432 0.02915,-0.0425 0.02915,-0.04038 0.03208,-0.04038 0.03207,-0.03895 0.0328,-0.03755 0.03425,-0.03684 0.03498,-0.03542 0.03644,-0.034 0.03716,-0.034 0.0379,-0.03187 0.03935,-0.03045 0.04008,-0.02904 0.04082,-0.02762 0.04155,-0.02692 0.043,-0.0248 0.043,-0.02408 0.04445,-0.02195 0.04373,-0.02125 0.04591,-0.01983 0.04591,-0.01771 0.04738,-0.01629 0.04738,-0.01417 0.04738,-0.01346 0.04883,-0.01133 0.04956,-0.0092 0.05029,-0.0078 0.04956,-0.007 0.05101,-0.0042 0.05101,-0.0028 0.05101,-7.28e-4 z"
         style="clip-rule:evenodd;isolation:isolate;fill:url(#linearGradient890);fill-opacity:1;fill-rule:evenodd;stroke-width:0.71850765;stroke-linejoin:round;stroke-miterlimit:1.41420996"
         inkscape:connector-curvature="0" />
    </g>
  </g>
</svg>
