<?xml version="1.0" encoding="UTF-8" standalone="no"?>
<svg
   xmlns:dc="http://purl.org/dc/elements/1.1/"
   xmlns:cc="http://creativecommons.org/ns#"
   xmlns:rdf="http://www.w3.org/1999/02/22-rdf-syntax-ns#"
   xmlns:svg="http://www.w3.org/2000/svg"
   xmlns="http://www.w3.org/2000/svg"
   xmlns:xlink="http://www.w3.org/1999/xlink"
   xmlns:sodipodi="http://sodipodi.sourceforge.net/DTD/sodipodi-0.dtd"
   xmlns:inkscape="http://www.inkscape.org/namespaces/inkscape"
   viewBox="0 0 36 36"
   width="48"
   height="48"
   version="1.1"
   id="svg21"
   sodipodi:docname="folder-important.svg"
   inkscape:version="0.92.4 (5da689c313, 2019-01-14)">
  <metadata
     id="metadata25">
    <rdf:RDF>
      <cc:Work
         rdf:about="">
        <dc:format>image/svg+xml</dc:format>
        <dc:type
           rdf:resource="http://purl.org/dc/dcmitype/StillImage" />
        <dc:title></dc:title>
      </cc:Work>
    </rdf:RDF>
  </metadata>
  <sodipodi:namedview
     pagecolor="#ffffff"
     bordercolor="#666666"
     borderopacity="1"
     objecttolerance="10"
     gridtolerance="10"
     guidetolerance="10"
     inkscape:pageopacity="0"
     inkscape:pageshadow="2"
     inkscape:window-width="1280"
     inkscape:window-height="947"
     id="namedview23"
     showgrid="false"
     inkscape:zoom="106.16835"
     inkscape:cx="22.753177"
     inkscape:cy="25.092997"
     inkscape:window-x="0"
     inkscape:window-y="0"
     inkscape:window-maximized="1"
     inkscape:current-layer="svg21" />
  <defs
     id="defs9">
    <linearGradient
       inkscape:collect="always"
       id="linearGradient1417">
      <stop
         style="stop-color:#00ffff;stop-opacity:1;"
         offset="0"
         id="stop1413" />
      <stop
         style="stop-color:#a553a8;stop-opacity:1"
         offset="1"
         id="stop1415" />
    </linearGradient>
    <linearGradient
       y2="50.42083"
       x2="42.888725"
       y1="6.4820938"
       x1="0.25431383"
       id="_lgradient_2"
       gradientTransform="scale(1.1147141,0.89709098)"
       gradientUnits="userSpaceOnUse">
      <stop
         stop-color="rgb(254,172,94)"
         offset="1.3043478260869565%"
         id="stop2" />
      <stop
         stop-color="rgb(199,121,208)"
         offset="53.04347826086957%"
         id="stop4" />
      <stop
         stop-color="rgb(75,192,200)"
         offset="99.56521739130434%"
         id="stop6" />
    </linearGradient>
    <linearGradient
       id="_lgradient_46"
       x1="-0.0081521738"
       y1="0.059782609"
       x2="0.95147175"
       y2="0.97239321"
       gradientTransform="matrix(16.979047,0,0,17,25.020954,20.727001)"
       gradientUnits="userSpaceOnUse">
      <stop
         offset="0%"
         stop-opacity="1"
         style="stop-color:rgb(0,255,255)"
         id="stop817" />
      <stop
         offset="98.26086956521739%"
         stop-opacity="1"
         style="stop-color:rgb(165,83,168)"
         id="stop819" />
    </linearGradient>
    <linearGradient
       inkscape:collect="always"
       xlink:href="#linearGradient1417"
       id="linearGradient828"
       gradientUnits="userSpaceOnUse"
       x1="0.950001"
       y1="24.000002"
       x2="47.049999"
       y2="24.000002" />
    <linearGradient
       inkscape:collect="always"
       xlink:href="#linearGradient1417"
       id="linearGradient830"
       gradientUnits="userSpaceOnUse"
       x1="0.950001"
       y1="24.000002"
       x2="47.049999"
       y2="24.000002" />
  </defs>
  <g
     id="g836"
     transform="matrix(0.78091106,0,0,0.78091106,-0.74186622,-0.74186622)">
    <path
       sodipodi:nodetypes="ccccccsccsssssssccccccsssssssccscccccccccsssscccccccssccc"
       id="svg_1"
       d="m 9.000001,18.550001 v 0 c -0.58,0 -1.05,-0.47 -1.05,-1.05 v 0 c 0,-0.58 0.47,-1.05 1.05,-1.05 v 0 h 5.65 c 0.552,0 1.358,-0.269 1.8,-0.6 l 6.4,-4.8 c 0.442,-0.331 1.248,-0.6 1.8,-0.6 h 19.4 c 1.656,0 3,1.344 3,3 v 26.1 c 0,1.656 -1.344,3 -3,3 h -40.1 c -1.656,0 -3,-1.344 -3,-3 v -11.05 0 c 0,-0.58 0.47,-1.05 1.05,-1.05 v 0 c 0.58,0 1.05,0.47 1.05,1.05 v 0 10.45 c 0,0.828 0.672,1.5 1.5,1.5 h 38.9 c 0.828,0 1.5,-0.672 1.5,-1.5 v -24.9 c 0,-0.828 -0.672,-1.5 -1.5,-1.5 h -18.1 c -0.552,0 -1.358,0.269 -1.8,0.6 l -6.4,4.8 c -0.442,0.331 -1.248,0.6 -1.8,0.6 z m -5.95,1.95 v 0 c 0,0.58 -0.47,1.05 -1.05,1.05 v 0 c -0.58,0 -1.05,-0.47 -1.05,-1.05 v 0 -12.05 c 0,-1.656 1.344,-3 3,-3 h 12.48 c 0.552,0 1.317,0.317 1.707,0.707 l 2.603,2.603 v 0 c 0.408,0.408 0.408,1.072 0,1.48 v 0 c -0.408,0.408 -1.072,0.408 -1.48,0 v 0 l -2.69,-2.69 h -12.02 c -0.828,0 -1.5,0.672 -1.5,1.5 z"
       style="fill:url(#linearGradient828);fill-opacity:1;fill-rule:evenodd"
       inkscape:connector-curvature="0" />
    <path
       id="path822"
       d="m 33.1084,30.998963 h 0.804156 c 0.303455,0 0.549471,-0.246015 0.549471,-0.549471 v -5.880169 c 0,-0.303094 -0.246016,-0.549471 -0.549471,-0.549471 H 33.1084 c -0.303456,0 -0.549471,0.246377 -0.549471,0.549471 v 5.880169 c 0,0.303456 0.246015,0.549471 0.549471,0.549471 z m -0.461686,3.077543 v 0 c -0.476858,-0.476859 -0.476858,-1.250669 0,-1.727528 v 0 c 0.476858,-0.476858 1.250669,-0.476858 1.727528,0 v 0 c 0.476858,0.476859 0.476858,1.250669 0,1.727528 v 0 c -0.476859,0.476858 -1.25067,0.476858 -1.727528,0 z m -6.082111,-4.331825 v 0 c -0.03179,-0.424476 -0.403162,-0.743826 -0.828722,-0.712758 v 0 c -0.425199,0.03071 -0.74455,0.402078 -0.712759,0.828722 v 0 c 0.158591,2.13647 1.120617,4.137829 2.693166,5.598389 1.572187,1.456585 3.639296,2.267967 5.783713,2.267967 2.252433,0 4.415998,-0.896277 6.011667,-2.488333 1.592056,-1.59567 2.488333,-3.759234 2.488333,-6.011667 0,-2.252433 -0.896277,-4.415997 -2.488333,-6.011666 -1.595669,-1.592057 -3.759234,-2.488334 -6.011667,-2.488334 v 0 c -0.426644,0 -0.772727,0.346084 -0.772727,0.772727 v 0 c 0,0.426644 0.346083,0.772728 0.772727,0.772728 v 0 c 1.842769,0 3.612564,0.734072 4.918505,2.03604 1.301968,1.305942 2.036041,3.075375 2.036041,4.918505 0,1.84313 -0.734073,3.612563 -2.036041,4.918505 -1.305941,1.301968 -3.075736,2.036041 -4.918505,2.036041 -1.754261,0 -3.446385,-0.660738 -4.732819,-1.854691 -1.286795,-1.19359 -2.071082,-2.831888 -2.202579,-4.582175 z m 3.701432,-6.676378 v 0 c 0.377513,-0.19833 0.523099,-0.665795 0.324769,-1.043308 v 0 c -0.19833,-0.377152 -0.665795,-0.522738 -1.043308,-0.324408 v 0 c -1.607229,0.846062 -2.905585,2.186684 -3.697458,3.821008 v 0 c -0.187854,0.384016 -0.02854,0.847146 0.355476,1.033554 v 0 c 0.383654,0.18677 0.847868,0.02673 1.03536,-0.357282 v 0 c 0.649178,-1.340622 1.707659,-2.434145 3.025161,-3.129564 z"
       style="isolation:isolate;fill:url(#linearGradient830);fill-opacity:1;fill-rule:evenodd;stroke-width:0.3612563"
       inkscape:connector-curvature="0" />
  </g>
</svg>
