<svg width="48" height="48" xmlns="http://www.w3.org/2000/svg">
 <defs>
  <linearGradient y2="0.5" x2="1" y1="0.5" x1="0" id="_lgradient_1">
   <stop stop-color="rgb(255,143,195)" offset="0%"/>
   <stop stop-color="rgb(161,161,255)" offset="100%"/>
  </linearGradient>
 </defs>
 <g>
  <title>background</title>
  <rect fill="none" id="canvas_background" height="41" width="50" y="-1" x="-1"/>
 </g>
 <g>
  <title>Layer 1</title>
  <path id="svg_1" fill="url(#_lgradient_1)" fill-rule="evenodd" d="m9.000001,18.550001l0,0c-0.58,0 -1.05,-0.47 -1.05,-1.05l0,0c0,-0.58 0.47,-1.05 1.05,-1.05l0,0l5.65,0c0.552,0 1.358,-0.269 1.8,-0.6l6.4,-4.8c0.442,-0.331 1.248,-0.6 1.8,-0.6l19.4,0c1.656,0 3,1.344 3,3l0,26.1c0,1.656 -1.344,3 -3,3l-40.1,0c-1.656,0 -3,-1.344 -3,-3l0,-11.05l0,0c0,-0.58 0.47,-1.05 1.05,-1.05l0,0c0.58,0 1.05,0.47 1.05,1.05l0,0l0,10.45c0,0.828 0.672,1.5 1.5,1.5l38.9,0c0.828,0 1.5,-0.672 1.5,-1.5l0,-24.9c0,-0.828 -0.672,-1.5 -1.5,-1.5l-18.1,0c-0.552,0 -1.358,0.269 -1.8,0.6l-6.4,4.8c-0.442,0.331 -1.248,0.6 -1.8,0.6l-6.35,0l0,0zm-5.95,1.95l0,0c0,0.58 -0.47,1.05 -1.05,1.05l0,0c-0.58,0 -1.05,-0.47 -1.05,-1.05l0,0l0,-12.05c0,-1.656 1.344,-3 3,-3l12.48,0c0.552,0 1.317,0.317 1.707,0.707l2.603,2.603l0,0c0.408,0.408 0.408,1.072 0,1.48l0,0c-0.408,0.408 -1.072,0.408 -1.48,0l0,0l-2.69,-2.69l-12.02,0c-0.828,0 -1.5,0.672 -1.5,1.5l0,11.45l0,0zm30.4,0c-4.709,0 -8.5,3.791 -8.5,8.5c0,3.796 2.465,6.991 5.887,8.089l0,-1.766c-2.151,0.475 -2.604,-0.946 -2.604,-0.946c-0.352,-0.908 -0.859,-1.15 -0.859,-1.15c-0.703,-0.487 0.052,-0.479 0.052,-0.479c0.776,0.055 1.185,0.811 1.185,0.811c0.69,1.201 1.811,0.855 2.251,0.654c0.071,-0.508 0.271,-0.856 0.492,-1.052c-1.717,-0.199 -3.206,-1.297 -3.206,-4.309c0,-0.858 0.623,-1.984 1.118,-2.533c-0.08,-0.199 -0.347,-1.423 0.075,-2.505c0,0 0.04,-0.013 0.124,-0.017c0.252,-0.011 0.818,0.466 1.926,1.229c0.669,-0.192 1.525,-0.282 2.059,-0.286c0.603,-0.005 1.3,0.098 1.929,0.286c1.108,-0.763 1.816,-1.242 2.067,-1.231l0.002,0c0.084,0.004 0.125,0.017 0.125,0.017c0.422,1.082 0.156,2.308 0.076,2.507c0.496,0.549 1.114,1.675 1.114,2.533c0,3.02 -1.808,4.108 -3.53,4.303c0.277,0.242 0.346,0.723 0.346,1.456c0,0.886 -0.002,1.461 -0.004,1.827l0,0.786c3.673,-0.94 6.375,-4.25 6.375,-8.224c0,-4.709 -3.791,-8.5 -8.5,-8.5z"/>
 </g>
</svg>