<svg width="48" height="48" xmlns="http://www.w3.org/2000/svg">
 <defs>
  <linearGradient y2="0.5" x2="0.999962" y1="0.5" x1="-0.000038" id="_lgradient_9">
   <stop stop-color="rgb(0,198,255)" offset="0%"/>
   <stop stop-color="rgb(0,114,255)" offset="98.69565217391305%"/>
  </linearGradient>
 </defs>
 <g>
  <title>background</title>
  <rect fill="none" id="canvas_background" height="41" width="50" y="-1" x="-1"/>
 </g>
 <g>
  <title>Layer 1</title>
  <path id="svg_1" fill="url(#_lgradient_9)" fill-rule="evenodd" d="m9.000001,18.550001l0,0c-0.58,0 -1.05,-0.47 -1.05,-1.05l0,0c0,-0.58 0.47,-1.05 1.05,-1.05l0,0l5.65,0c0.552,0 1.358,-0.269 1.8,-0.6l6.4,-4.8c0.442,-0.331 1.248,-0.6 1.8,-0.6l19.4,0c1.656,0 3,1.344 3,3l0,26.1c0,1.656 -1.344,3 -3,3l-40.1,0c-1.656,0 -3,-1.344 -3,-3l0,-11.05l0,0c0,-0.58 0.47,-1.05 1.05,-1.05l0,0c0.58,0 1.05,0.47 1.05,1.05l0,0l0,10.45c0,0.828 0.672,1.5 1.5,1.5l38.9,0c0.828,0 1.5,-0.672 1.5,-1.5l0,-24.9c0,-0.828 -0.672,-1.5 -1.5,-1.5l-18.1,0c-0.552,0 -1.358,0.269 -1.8,0.6l-6.4,4.8c-0.442,0.331 -1.248,0.6 -1.8,0.6l-6.35,0l0,0l0,0zm-5.95,1.95l0,0c0,0.58 -0.47,1.05 -1.05,1.05l0,0c-0.58,0 -1.05,-0.47 -1.05,-1.05l0,0l0,-12.05c0,-1.656 1.344,-3 3,-3l12.48,0c0.552,0 1.317,0.317 1.707,0.707l2.603,2.603l0,0c0.408,0.408 0.408,1.072 0,1.48l0,0c-0.408,0.408 -1.072,0.408 -1.48,0l0,0l-2.69,-2.69l-12.02,0c-0.828,0 -1.5,0.672 -1.5,1.5l0,11.45l0,0l0,0zm27.621,15.724c0.192,0 0.377,0.067 0.514,0.188c0.134,0.118 0.21,0.281 0.21,0.45c0,0.169 -0.076,0.332 -0.21,0.45c-0.137,0.121 -0.322,0.188 -0.514,0.188l-3.294,0c-1.312,0 -2.377,-1.065 -2.377,-2.377l0,-10.235c0,-1.312 1.065,-2.377 2.377,-2.377l12.246,0c1.312,0 2.377,1.065 2.377,2.377l0,10.235c0,1.312 -1.065,2.377 -2.377,2.377l-3.294,0c-0.192,0 -0.377,-0.067 -0.514,-0.188c-0.134,-0.118 -0.21,-0.281 -0.21,-0.45c0,-0.169 0.076,-0.332 0.21,-0.45c0.137,-0.121 0.322,-0.188 0.514,-0.188l2.526,0c0.937,0 1.698,-0.761 1.698,-1.698l0,-9.041c0,-0.938 -0.761,-1.699 -1.698,-1.699l-10.71,0c-0.937,0 -1.698,0.761 -1.698,1.699l0,9.041c0,0.937 0.761,1.698 1.698,1.698l2.526,0l0,0zm3.491,-5.363l-0.692,0.366c-0.891,0.472 -1.615,0.036 -1.615,-0.973l0,-0.497c0,-1.009 0.724,-1.445 1.615,-0.973l0.692,0.366c0.892,0.472 0.892,1.239 0,1.711l0,0zm2.476,0.342l-4.63,2.451c-0.892,0.472 -1.616,0.036 -1.616,-0.972l0,-5.353c0,-1.009 0.724,-1.444 1.616,-0.972l4.63,2.451c1.248,0.661 1.248,1.734 0,2.395l0,0z"/>
 </g>
</svg>