<?xml version="1.0" encoding="UTF-8" standalone="no"?>
<svg
   xmlns:dc="http://purl.org/dc/elements/1.1/"
   xmlns:cc="http://creativecommons.org/ns#"
   xmlns:rdf="http://www.w3.org/1999/02/22-rdf-syntax-ns#"
   xmlns:svg="http://www.w3.org/2000/svg"
   xmlns="http://www.w3.org/2000/svg"
   xmlns:xlink="http://www.w3.org/1999/xlink"
   xmlns:sodipodi="http://sodipodi.sourceforge.net/DTD/sodipodi-0.dtd"
   xmlns:inkscape="http://www.inkscape.org/namespaces/inkscape"
   width="48"
   height="48"
   version="1.1"
   id="svg21"
   sodipodi:docname="folder-development.svg"
   inkscape:version="0.92.4 (5da689c313, 2019-01-14)">
  <metadata
     id="metadata25">
    <rdf:RDF>
      <cc:Work
         rdf:about="">
        <dc:format>image/svg+xml</dc:format>
        <dc:type
           rdf:resource="http://purl.org/dc/dcmitype/StillImage" />
      </cc:Work>
    </rdf:RDF>
  </metadata>
  <sodipodi:namedview
     pagecolor="#ffffff"
     bordercolor="#666666"
     borderopacity="1"
     objecttolerance="10"
     gridtolerance="10"
     guidetolerance="10"
     inkscape:pageopacity="0"
     inkscape:pageshadow="2"
     inkscape:window-width="1280"
     inkscape:window-height="947"
     id="namedview23"
     showgrid="false"
     inkscape:zoom="13.865082"
     inkscape:cx="25.871997"
     inkscape:cy="23.145513"
     inkscape:window-x="0"
     inkscape:window-y="0"
     inkscape:window-maximized="1"
     inkscape:current-layer="g1484" />
  <defs
     id="defs9">
    <linearGradient
       inkscape:collect="always"
       id="linearGradient1444">
      <stop
         style="stop-color:#22d88f;stop-opacity:1;"
         offset="0"
         id="stop1440" />
      <stop
         id="stop1448"
         offset="0.51491541"
         style="stop-color:#9387da;stop-opacity:1" />
      <stop
         style="stop-color:#ff59e6;stop-opacity:1"
         offset="1"
         id="stop1442" />
    </linearGradient>
    <linearGradient
       y2="50.420831"
       x2="42.888724"
       y1="6.4820938"
       x1="0.25431382"
       id="_lgradient_2"
       gradientTransform="scale(1.1147141,0.89709098)"
       gradientUnits="userSpaceOnUse">
      <stop
         stop-color="rgb(254,172,94)"
         offset="1.3043478260869565%"
         id="stop2" />
      <stop
         stop-color="rgb(199,121,208)"
         offset="53.04347826086957%"
         id="stop4" />
      <stop
         stop-color="rgb(75,192,200)"
         offset="99.56521739130434%"
         id="stop6" />
    </linearGradient>
    <linearGradient
       id="_lgradient_32"
       x1="0.18229167"
       y1="0.09375"
       x2="0.82610589"
       y2="0.96131611"
       gradientTransform="matrix(17.000003,0,0,14.166669,24.999998,23.560332)"
       gradientUnits="userSpaceOnUse">
      <stop
         offset="0%"
         stop-opacity="1"
         style="stop-color:rgb(34,216,143)"
         id="stop2-3" />
      <stop
         offset="51.73913043478261%"
         stop-opacity="1"
         style="stop-color:rgb(147,135,218)"
         id="stop4-6" />
      <stop
         offset="98.69565217391305%"
         stop-opacity="1"
         style="stop-color:rgb(255,89,230)"
         id="stop6-7" />
    </linearGradient>
    <linearGradient
       inkscape:collect="always"
       xlink:href="#linearGradient1444"
       id="linearGradient1520"
       x1="0.450001"
       y1="24.000002"
       x2="47.549999"
       y2="24.000002"
       gradientUnits="userSpaceOnUse" />
  </defs>
  <g
     id="g1412"
     style="fill:#22d88f;fill-opacity:1;stroke:none;stroke-opacity:1">
    <g
       id="g1484">
      <g
         id="g1496"
         style="stroke:none;fill-opacity:1;fill:url(#linearGradient1520)">
        <path
           sodipodi:nodetypes="ccccccsccsssssssccccccsssssssccscccccccccsssscccccccssccc"
           id="svg_1"
           d="m 9.000001,18.550001 v 0 c -0.58,0 -1.05,-0.47 -1.05,-1.05 v 0 c 0,-0.58 0.47,-1.05 1.05,-1.05 v 0 h 5.65 c 0.552,0 1.358,-0.269 1.8,-0.6 l 6.4,-4.8 c 0.442,-0.331 1.248,-0.6 1.8,-0.6 h 19.4 c 1.656,0 3,1.344 3,3 v 26.1 c 0,1.656 -1.344,3 -3,3 h -40.1 c -1.656,0 -3,-1.344 -3,-3 v -11.05 0 c 0,-0.58 0.47,-1.05 1.05,-1.05 v 0 c 0.58,0 1.05,0.47 1.05,1.05 v 0 10.45 c 0,0.828 0.672,1.5 1.5,1.5 h 38.9 c 0.828,0 1.5,-0.672 1.5,-1.5 v -24.9 c 0,-0.828 -0.672,-1.5 -1.5,-1.5 h -18.1 c -0.552,0 -1.358,0.269 -1.8,0.6 l -6.4,4.8 c -0.442,0.331 -1.248,0.6 -1.8,0.6 h -6.35 v 0 z m -5.95,1.95 v 0 c 0,0.58 -0.47,1.05 -1.05,1.05 v 0 c -0.58,0 -1.05,-0.47 -1.05,-1.05 v 0 -12.05 c 0,-1.656 1.344,-3 3,-3 h 12.48 c 0.552,0 1.317,0.317 1.707,0.707 l 2.603,2.603 v 0 c 0.408,0.408 0.408,1.072 0,1.48 v 0 c -0.408,0.408 -1.072,0.408 -1.48,0 v 0 l -2.69,-2.69 h -12.02 c -0.828,0 -1.5,0.672 -1.5,1.5 v 11.45 0 z"
           style="fill:url(#linearGradient1520);fill-rule:evenodd;fill-opacity:1;stroke:none;stroke-opacity:1"
           inkscape:connector-curvature="0" />
        <path
           id="path9"
           d="m 27.730624,30.647208 c 0.441292,0.21675 0.78625,0.458292 1.034875,0.72675 0.248625,0.26775 0.422167,0.609167 0.522042,1.024959 0.09917,0.415083 0.14875,0.94775 0.14875,1.596584 0,0.486625 0.01417,0.84575 0.04179,1.076666 0.02833,0.230917 0.08429,0.406584 0.167875,0.527 0.08429,0.120417 0.184875,0.199042 0.303167,0.236584 0.118292,0.03683 0.320167,0.07225 0.605625,0.10625 0.235875,0.02479 0.432083,0.116167 0.587208,0.273417 0.155125,0.15725 0.233042,0.363375 0.233042,0.619083 0,0.595 -0.456875,0.8925 -1.369917,0.8925 -0.56525,0 -1.070291,-0.0935 -1.514416,-0.2805 -0.444834,-0.186292 -0.787667,-0.4505 -1.029917,-0.792625 -0.24225,-0.341417 -0.366917,-0.733834 -0.373292,-1.175834 -0.01842,-0.747291 -0.03683,-1.34725 -0.05596,-1.799875 -0.01842,-0.451917 -0.04604,-0.744458 -0.08358,-0.877625 -0.0935,-0.329375 -0.231625,-0.577292 -0.415083,-0.744459 -0.18275,-0.167166 -0.422167,-0.323708 -0.717542,-0.468208 -0.294667,-0.145208 -0.504333,-0.275542 -0.629,-0.391 -0.123958,-0.115459 -0.186292,-0.298917 -0.186292,-0.549667 0,-0.363375 0.179917,-0.636792 0.540459,-0.818125 0.447666,-0.221709 0.765708,-0.409417 0.955541,-0.564542 0.189125,-0.155125 0.323,-0.354167 0.400917,-0.597125 0.07721,-0.243667 0.122542,-0.509292 0.134583,-0.796875 0.01275,-0.287584 0.03117,-0.979626 0.05596,-2.075417 0.01912,-0.678584 0.290416,-1.220459 0.816,-1.626334 0.524875,-0.405875 1.225417,-0.608458 2.101625,-0.608458 0.913042,0 1.369917,0.292541 1.369917,0.877625 0,0.265625 -0.07579,0.474583 -0.228083,0.626875 -0.152292,0.152292 -0.349917,0.240833 -0.592167,0.265625 -0.360542,0.03896 -0.612,0.09846 -0.755084,0.177083 -0.142375,0.07862 -0.235875,0.230917 -0.279083,0.456875 -0.04392,0.225959 -0.07154,0.663709 -0.08429,1.312542 -0.01204,0.634667 -0.06021,1.154584 -0.1445,1.559751 -0.08358,0.405875 -0.248625,0.750833 -0.493708,1.036291 -0.245792,0.285459 -0.601375,0.543292 -1.067458,0.774209 z m 11.538752,0 c -0.441292,0.21675 -0.78625,0.458292 -1.034875,0.72675 -0.248625,0.26775 -0.422167,0.609167 -0.522042,1.024959 -0.09917,0.415083 -0.14875,0.94775 -0.14875,1.596584 0,0.486625 -0.01417,0.84575 -0.04179,1.076666 -0.02833,0.230917 -0.08429,0.406584 -0.167875,0.527 -0.08429,0.120417 -0.184875,0.199042 -0.303167,0.236584 -0.118292,0.03683 -0.320167,0.07225 -0.605625,0.10625 -0.235875,0.02479 -0.432083,0.116167 -0.587208,0.273417 -0.155125,0.15725 -0.233042,0.363375 -0.233042,0.619083 0,0.595 0.456875,0.8925 1.369917,0.8925 0.56525,0 1.070292,-0.0935 1.514417,-0.2805 0.444833,-0.186292 0.787666,-0.4505 1.029916,-0.792625 0.24225,-0.341417 0.366917,-0.733834 0.373292,-1.175834 0.01842,-0.747291 0.03683,-1.34725 0.05596,-1.799875 0.01842,-0.451917 0.04604,-0.744458 0.08358,-0.877625 0.0935,-0.329375 0.231625,-0.577292 0.415083,-0.744459 0.18275,-0.167166 0.422167,-0.323708 0.717542,-0.468208 0.294667,-0.145208 0.504333,-0.275542 0.629,-0.391 0.123958,-0.115459 0.186292,-0.298917 0.186292,-0.549667 0,-0.363375 -0.179917,-0.636792 -0.540459,-0.818125 -0.447666,-0.221709 -0.765708,-0.409417 -0.955542,-0.564542 -0.189125,-0.155125 -0.323,-0.354167 -0.400916,-0.597125 -0.07721,-0.243667 -0.122542,-0.509292 -0.134584,-0.796875 -0.01275,-0.287584 -0.03117,-0.979626 -0.05596,-2.075417 -0.01913,-0.678584 -0.290417,-1.220459 -0.816,-1.626334 -0.524874,-0.405875 -1.225415,-0.608458 -2.101624,-0.608458 -0.913042,0 -1.369917,0.292541 -1.369917,0.877625 0,0.265625 0.07579,0.474583 0.228083,0.626875 0.152292,0.152292 0.349917,0.240833 0.592167,0.265625 0.360542,0.03896 0.612,0.09846 0.755084,0.177083 0.142375,0.07862 0.235875,0.230917 0.279083,0.456875 0.04392,0.225959 0.07154,0.663709 0.08429,1.312542 0.01204,0.634667 0.06021,1.154584 0.1445,1.559751 0.08358,0.405875 0.248625,0.750833 0.493708,1.036291 0.245792,0.285459 0.601376,0.543292 1.067459,0.774209 z"
           style="isolation:isolate;fill:url(#linearGradient1520);fill-rule:evenodd;stroke-width:0.70833343;fill-opacity:1;stroke:none;stroke-opacity:1"
           inkscape:connector-curvature="0" />
      </g>
    </g>
  </g>
</svg>
