<?xml version="1.0" encoding="UTF-8" standalone="no"?>
<svg
   xmlns:dc="http://purl.org/dc/elements/1.1/"
   xmlns:cc="http://creativecommons.org/ns#"
   xmlns:rdf="http://www.w3.org/1999/02/22-rdf-syntax-ns#"
   xmlns:svg="http://www.w3.org/2000/svg"
   xmlns="http://www.w3.org/2000/svg"
   xmlns:sodipodi="http://sodipodi.sourceforge.net/DTD/sodipodi-0.dtd"
   xmlns:inkscape="http://www.inkscape.org/namespaces/inkscape"
   viewBox="0 0 36 36"
   width="48"
   height="48"
   version="1.1"
   id="svg19"
   sodipodi:docname="folder-download.svg"
   inkscape:version="0.92.4 (5da689c313, 2019-01-14)">
  <metadata
     id="metadata23">
    <rdf:RDF>
      <cc:Work
         rdf:about="">
        <dc:format>image/svg+xml</dc:format>
        <dc:type
           rdf:resource="http://purl.org/dc/dcmitype/StillImage" />
        <dc:title />
      </cc:Work>
    </rdf:RDF>
  </metadata>
  <sodipodi:namedview
     pagecolor="#ffffff"
     bordercolor="#666666"
     borderopacity="1"
     objecttolerance="10"
     gridtolerance="10"
     guidetolerance="10"
     inkscape:pageopacity="0"
     inkscape:pageshadow="2"
     inkscape:window-width="640"
     inkscape:window-height="480"
     id="namedview21"
     showgrid="false"
     inkscape:zoom="9.724911"
     inkscape:cx="25.485715"
     inkscape:cy="31.881429"
     inkscape:current-layer="svg19" />
  <defs
     id="defs7">
    <linearGradient
       y2="26.753139"
       x2="42.208134"
       y1="26.753139"
       x1="0.85223734"
       id="_lgradient_7"
       gradientTransform="matrix(0.80259415,0,0,0.64590551,0.72,3.0419996)"
       gradientUnits="userSpaceOnUse">
      <stop
         stop-color="rgb(52,148,230)"
         offset="0%"
         id="stop2" />
      <stop
         stop-color="rgb(236,110,173)"
         offset="98.69565217391305%"
         id="stop4" />
    </linearGradient>
  </defs>
  <g
     id="g2488"
     transform="matrix(1.0845987,0,0,1.0845987,-1.5227775,-4.0412149)">
    <path
       id="svg_1"
       d="m 7.2000007,16.398 v 0 c -0.4176,0 -0.756,-0.3384 -0.756,-0.756 v 0 c 0,-0.4176 0.3384,-0.756 0.756,-0.756 v 0 h 4.0680003 c 0.39744,0 0.97776,-0.19368 1.296,-0.432 l 4.608,-3.456 c 0.31824,-0.23832 0.89856,-0.432 1.296,-0.432 h 13.968 c 1.19232,0 2.16,0.96768 2.16,2.16 v 18.792 c 0,1.19232 -0.96768,2.16 -2.16,2.16 H 3.5640007 c -1.19232,0 -2.16,-0.96768 -2.16,-2.16 v -7.956 0 c 0,-0.4176 0.3384,-0.756 0.756,-0.756 v 0 c 0.4176,0 0.756,0.3384 0.756,0.756 v 0 7.524 c 0,0.59616 0.48384,1.08 1.08,1.08 H 32.004001 c 0.59616,0 1.08,-0.48384 1.08,-1.08 V 13.158 c 0,-0.59616 -0.48384,-1.08 -1.08,-1.08 h -13.032 c -0.39744,0 -0.97776,0.19368 -1.296,0.432 l -4.608,3.456 c -0.31824,0.23832 -0.89856,0.432 -1.296,0.432 z m -4.284,1.404 v 0 c 0,0.4176 -0.3384,0.756 -0.756,0.756 v 0 c -0.4176,0 -0.756,-0.3384 -0.756,-0.756 v 0 -8.6759997 c 0,-1.19232 0.96768,-2.16 2.16,-2.16 h 8.9856003 c 0.39744,0 0.94824,0.22824 1.22904,0.50904 l 1.87416,1.87416 v 0 c 0.29376,0.29376 0.29376,0.7718397 0,1.0655997 v 0 c -0.29376,0.29376 -0.77184,0.29376 -1.0656,0 v 0 l -1.9368,-1.9367997 H 3.9960007 c -0.59616,0 -1.08,0.48384 -1.08,1.08 z m 22.3956003,4.38336 v 0 c 0,-0.3456 0.2808,-0.6264 0.62568,-0.6264 v 0 c 0.3456,0 0.6264,0.2808 0.6264,0.6264 v 0 2.58552 l 2.02824,-1.35144 c 0.71928,-0.47952 1.60848,-0.23688 1.98432,0.54072 l 0.21456,0.44424 c 0.37656,0.7776 0.10296,1.80504 -0.60984,2.2932 l -4.46184,3.05208 c -0.57096,0.38952 -1.49688,0.38952 -2.06712,0 l -4.46184,-3.05208 c -0.71352,-0.48816 -0.98712,-1.5156 -0.61056,-2.2932 l 0.21456,-0.44424 c 0.37656,-0.7776 1.26504,-1.02024 1.98432,-0.54072 l 2.02824,1.35144 v -6.34248 0 c 0,-0.3456 0.2808,-0.6264 0.6264,-0.6264 v 0 c 0.3456,0 0.6264,0.2808 0.6264,0.6264 v 0 8.05824 c 0,0.3456 -0.234,0.47016 -0.52128,0.27864 l -3.14064,-2.09448 c -0.28728,-0.19152 -0.58824,-0.09648 -0.67104,0.21312 v 0 c -0.08352,0.30888 0.08064,0.71856 0.36648,0.91368 l 4.07592,2.79 c 0.28512,0.19512 0.74808,0.19512 1.0332,0 l 4.07592,-2.79 c 0.28512,-0.19512 0.44928,-0.6048 0.36648,-0.91368 v 0 c -0.0828,-0.3096 -0.38376,-0.40464 -0.67104,-0.21312 l -3.14136,2.09448 c -0.28728,0.19152 -0.52056,0.06696 -0.52056,-0.27864 z m 0,-2.81808 c 0,-0.3456 0.2808,-0.6264 0.62568,-0.6264 0.3456,0 0.6264,0.2808 0.6264,0.6264 0,0.3456 -0.2808,0.6264 -0.6264,0.6264 -0.34488,0 -0.62568,-0.2808 -0.62568,-0.6264 z"
       style="fill:url(#_lgradient_7);fill-rule:evenodd;stroke-width:0.72000003"
       inkscape:connector-curvature="0" />
  </g>
</svg>
