<svg width="48" height="48" xmlns="http://www.w3.org/2000/svg">
 <defs>
  <linearGradient y2="1.072293" x2="1.016457" y1="0.009839" x1="-0.014458" id="_lgradient_3">
   <stop stop-color="rgb(249,212,35)" offset="0%"/>
   <stop stop-color="rgb(255,78,80)" offset="51.56237565086822%"/>
   <stop stop-color="rgb(138,35,135)" offset="99.1304347826087%"/>
  </linearGradient>
  <linearGradient y2="1.236328" x2="1.261092" y1="0.009838" x1="-0.014458" id="_lgradient_4">
   <stop stop-color="rgb(249,212,35)" offset="0%"/>
   <stop stop-color="rgb(255,78,80)" offset="51.56237565086822%"/>
   <stop stop-color="rgb(138,35,135)" offset="99.1304347826087%"/>
  </linearGradient>
 </defs>
 <g>
  <title>background</title>
  <rect fill="none" id="canvas_background" height="41" width="50" y="-1" x="-1"/>
 </g>
 <g>
  <title>Layer 1</title>
  <g id="svg_4">
   <path id="svg_1" fill="url(#_lgradient_3)" fill-rule="evenodd" d="m9.000001,18.550001l0,0c-0.58,0 -1.05,-0.47 -1.05,-1.05l0,0c0,-0.58 0.47,-1.05 1.05,-1.05l0,0l5.65,0c0.552,0 1.358,-0.269 1.8,-0.6l6.4,-4.8c0.442,-0.331 1.248,-0.6 1.8,-0.6l19.4,0c1.656,0 3,1.344 3,3l0,26.1c0,1.656 -1.344,3 -3,3l-40.1,0c-1.656,0 -3,-1.344 -3,-3l0,-11.05l0,0c0,-0.58 0.47,-1.05 1.05,-1.05l0,0c0.58,0 1.05,0.47 1.05,1.05l0,0l0,10.45c0,0.828 0.672,1.5 1.5,1.5l38.9,0c0.828,0 1.5,-0.672 1.5,-1.5l0,-24.9c0,-0.828 -0.672,-1.5 -1.5,-1.5l-18.1,0c-0.552,0 -1.358,0.269 -1.8,0.6l-6.4,4.8c-0.442,0.331 -1.248,0.6 -1.8,0.6l-6.35,0zm-5.95,1.95l0,0c0,0.58 -0.47,1.05 -1.05,1.05l0,0c-0.58,0 -1.05,-0.47 -1.05,-1.05l0,0l0,-12.05c0,-1.656 1.344,-3 3,-3l12.48,0c0.552,0 1.317,0.317 1.707,0.707l2.603,2.603l0,0c0.408,0.408 0.408,1.072 0,1.48l0,0c-0.408,0.408 -1.072,0.408 -1.48,0l0,0l-2.69,-2.69l-12.02,0c-0.828,0 -1.5,0.672 -1.5,1.5l0,11.45z"/>
   <path id="svg_2" fill="url(#_lgradient_4)" d="m32.036001,28.698001l-0.63,-0.444l0.889,-1.264l0.633,0.448l8.125,5.741c0.523,0.369 0.947,1.189 0.947,1.828l0,1.948c0,0.639 -0.519,1.159 -1.159,1.159l-14.682,0c-0.64,0 -1.159,-0.52 -1.159,-1.159l0,-1.975c0,-0.639 0.44,-1.435 0.982,-1.775l4.296,-2.699l0,0c0.362,-0.228 0.84,-0.12 1.066,0.242l0,0c0.226,0.361 0.117,0.838 -0.243,1.064l0,0l-4.229,2.661c-0.18,0.114 -0.327,0.379 -0.327,0.592l0,1.117c0,0.213 0.174,0.386 0.387,0.386l13.136,0c0.213,0 0.387,-0.173 0.387,-0.386l0,-1.144c0,-0.213 -0.142,-0.486 -0.316,-0.609l-8.103,-5.731z"/>
   <circle id="svg_3" stroke-miterlimit="3" stroke-linecap="square" stroke="rgb(253,124,64)" stroke-width="1.5" fill="none" r="3.284091" cy="24.784092" cx="33.500001"/>
  </g>
 </g>
</svg>