<?xml version="1.0" encoding="UTF-8" standalone="no"?>
<svg
   xmlns:dc="http://purl.org/dc/elements/1.1/"
   xmlns:cc="http://creativecommons.org/ns#"
   xmlns:rdf="http://www.w3.org/1999/02/22-rdf-syntax-ns#"
   xmlns:svg="http://www.w3.org/2000/svg"
   xmlns="http://www.w3.org/2000/svg"
   xmlns:sodipodi="http://sodipodi.sourceforge.net/DTD/sodipodi-0.dtd"
   xmlns:inkscape="http://www.inkscape.org/namespaces/inkscape"
   viewBox="0 0 36 36"
   width="48"
   height="48"
   version="1.1"
   id="svg19"
   sodipodi:docname="folder-pictures.svg"
   inkscape:version="0.92.4 (5da689c313, 2019-01-14)">
  <metadata
     id="metadata23">
    <rdf:RDF>
      <cc:Work
         rdf:about="">
        <dc:format>image/svg+xml</dc:format>
        <dc:type
           rdf:resource="http://purl.org/dc/dcmitype/StillImage" />
        <dc:title />
      </cc:Work>
    </rdf:RDF>
  </metadata>
  <sodipodi:namedview
     pagecolor="#ffffff"
     bordercolor="#666666"
     borderopacity="1"
     objecttolerance="10"
     gridtolerance="10"
     guidetolerance="10"
     inkscape:pageopacity="0"
     inkscape:pageshadow="2"
     inkscape:window-width="640"
     inkscape:window-height="480"
     id="namedview21"
     showgrid="false"
     inkscape:zoom="9.724911"
     inkscape:cx="22.535585"
     inkscape:cy="24.085103"
     inkscape:current-layer="svg19" />
  <defs
     id="defs7">
    <linearGradient
       y2="26.753139"
       x2="42.208134"
       y1="26.753139"
       x1="0.85223734"
       id="_lgradient_8"
       gradientTransform="matrix(0.80259415,0,0,0.64590551,0.72,3.0419996)"
       gradientUnits="userSpaceOnUse">
      <stop
         stop-color="rgb(255,224,49)"
         offset="0%"
         id="stop2" />
      <stop
         stop-color="rgb(250,0,117)"
         offset="100%"
         id="stop4" />
    </linearGradient>
  </defs>
  <g
     id="g2561"
     transform="matrix(1.0845987,0,0,1.0845987,-1.5227775,-4.0412149)">
    <path
       id="svg_1"
       d="m 18.365041,28.02168 c 0.03672,0.36216 0.34272,0.64512 0.71496,0.64512 h 9.72 c 0.39744,0 0.72,-0.32256 0.72,-0.72 v -3.25224 l -3.27024,2.2392 c -0.49176,0.33624 -1.23336,0.26784 -1.65528,-0.15408 l -1.8396,-1.8396 c -0.14112,-0.14112 -0.37944,-0.15264 -0.53352,-0.02736 l -3.65976,2.99088 v 0 c -0.05688,0.05688 -0.12384,0.09864 -0.19656,0.11808 z M 7.2000007,16.398 v 0 c -0.4176,0 -0.756,-0.3384 -0.756,-0.756 v 0 c 0,-0.4176 0.3384,-0.756 0.756,-0.756 v 0 h 4.0680003 c 0.39744,0 0.97776,-0.19368 1.296,-0.432 l 4.608,-3.456 c 0.31824,-0.23832 0.89856,-0.432 1.296,-0.432 h 13.968 c 1.19232,0 2.16,0.96768 2.16,2.16 v 18.792 c 0,1.19232 -0.96768,2.16 -2.16,2.16 H 3.5640007 c -1.19232,0 -2.16,-0.96768 -2.16,-2.16 v -7.956 0 c 0,-0.4176 0.3384,-0.756 0.756,-0.756 v 0 c 0.4176,0 0.756,0.3384 0.756,0.756 v 0 7.524 c 0,0.59616 0.48384,1.08 1.08,1.08 H 32.004001 c 0.59616,0 1.08,-0.48384 1.08,-1.08 V 13.158 c 0,-0.59616 -0.48384,-1.08 -1.08,-1.08 h -13.032 c -0.39744,0 -0.97776,0.19368 -1.296,0.432 l -4.608,3.456 c -0.31824,0.23832 -0.89856,0.432 -1.296,0.432 z m -4.284,1.404 v 0 c 0,0.4176 -0.3384,0.756 -0.756,0.756 v 0 c -0.4176,0 -0.756,-0.3384 -0.756,-0.756 v 0 -8.6759997 c 0,-1.19232 0.96768,-2.16 2.16,-2.16 h 8.9856003 c 0.39744,0 0.94824,0.22824 1.22904,0.50904 l 1.87416,1.87416 v 0 c 0.29376,0.29376 0.29376,0.7718397 0,1.0655997 v 0 c -0.29376,0.29376 -0.77184,0.29376 -1.0656,0 v 0 l -1.9368,-1.9367997 H 3.9960007 c -0.59616,0 -1.08,0.48384 -1.08,1.08 z M 18.360001,26.66448 V 22.122 c 0,-0.39744 0.32256,-0.72 0.72,-0.72 h 1.998 v 0 c 0.39744,0 0.72,-0.32256 0.72,-0.72 v 0 c 0,-0.39744 -0.32256,-0.72 -0.72,-0.72 v 0 h -3.078 c -0.59616,0 -1.08,0.48384 -1.08,1.08 v 7.9848 c 0,0.59616 0.48384,1.08 1.08,1.08 h 11.88 c 0.59616,0 1.08,-0.48384 1.08,-1.08 V 21.042 c 0,-0.59616 -0.48384,-1.08 -1.08,-1.08 h -5.7924 v 0 c -0.39744,0 -0.72,0.32256 -0.72,0.72 v 0 c 0,0.39744 0.32256,0.72 0.72,0.72 v 0 0 h 4.7124 c 0.39744,0 0.72,0.32256 0.72,0.72 v 1.29024 c -0.0648,0.02304 -0.126,0.05832 -0.18,0.10656 v 0 l -3.636,2.34648 c -0.16704,0.108 -0.41616,0.08136 -0.55728,-0.05976 l -1.8828,-1.8828 c -0.42192,-0.42192 -1.13328,-0.45144 -1.58832,-0.06624 z m 7.74,-3.58272 c 0,-0.4968 0.4032,-0.9 0.9,-0.9 0.4968,0 0.9,0.4032 0.9,0.9 0,0.4968 -0.4032,0.9 -0.9,0.9 -0.4968,0 -0.9,-0.4032 -0.9,-0.9 z"
       style="fill:url(#_lgradient_8);fill-rule:evenodd;stroke-width:0.72000003"
       inkscape:connector-curvature="0" />
  </g>
</svg>
