<?xml version="1.0" encoding="UTF-8" standalone="no"?>
<svg
   xmlns:dc="http://purl.org/dc/elements/1.1/"
   xmlns:cc="http://creativecommons.org/ns#"
   xmlns:rdf="http://www.w3.org/1999/02/22-rdf-syntax-ns#"
   xmlns:svg="http://www.w3.org/2000/svg"
   xmlns="http://www.w3.org/2000/svg"
   xmlns:sodipodi="http://sodipodi.sourceforge.net/DTD/sodipodi-0.dtd"
   xmlns:inkscape="http://www.inkscape.org/namespaces/inkscape"
   viewBox="0 0 36 36"
   width="48"
   height="48"
   version="1.1"
   id="svg31"
   sodipodi:docname="folder-publicshare.svg"
   inkscape:version="0.92.4 (5da689c313, 2019-01-14)">
  <metadata
     id="metadata35">
    <rdf:RDF>
      <cc:Work
         rdf:about="">
        <dc:format>image/svg+xml</dc:format>
        <dc:type
           rdf:resource="http://purl.org/dc/dcmitype/StillImage" />
        <dc:title />
      </cc:Work>
    </rdf:RDF>
  </metadata>
  <sodipodi:namedview
     pagecolor="#ffffff"
     bordercolor="#666666"
     borderopacity="1"
     objecttolerance="10"
     gridtolerance="10"
     guidetolerance="10"
     inkscape:pageopacity="0"
     inkscape:pageshadow="2"
     inkscape:window-width="640"
     inkscape:window-height="480"
     id="namedview33"
     showgrid="false"
     inkscape:zoom="9.724911"
     inkscape:cx="22.125817"
     inkscape:cy="23.534814"
     inkscape:current-layer="svg31" />
  <defs
     id="defs16">
    <linearGradient
       y2="50.42083"
       x2="42.888725"
       y1="6.4820938"
       x1="0.25431383"
       id="_lgradient_3"
       gradientTransform="matrix(0.80259415,0,0,0.64590551,0.72,3.0419996)"
       gradientUnits="userSpaceOnUse">
      <stop
         stop-color="rgb(249,212,35)"
         offset="0%"
         id="stop2" />
      <stop
         stop-color="rgb(255,78,80)"
         offset="51.56237565086822%"
         id="stop4" />
      <stop
         stop-color="rgb(138,35,135)"
         offset="99.1304347826087%"
         id="stop6" />
    </linearGradient>
    <linearGradient
       y2="50.366997"
       x2="37.565125"
       y1="33.500729"
       x1="20.0242"
       id="_lgradient_4"
       gradientTransform="matrix(0.89007473,0,0,0.58242301,0.72,3.0419996)"
       gradientUnits="userSpaceOnUse">
      <stop
         stop-color="rgb(249,212,35)"
         offset="0%"
         id="stop9" />
      <stop
         stop-color="rgb(255,78,80)"
         offset="51.56237565086822%"
         id="stop11" />
      <stop
         stop-color="rgb(138,35,135)"
         offset="99.1304347826087%"
         id="stop13" />
    </linearGradient>
  </defs>
  <g
     id="g2570"
     transform="matrix(1.0845987,0,0,1.0845987,-1.5227775,-4.0412149)">
    <path
       inkscape:connector-curvature="0"
       style="fill:url(#_lgradient_3);fill-rule:evenodd;stroke-width:0.72000003"
       d="m 7.2000007,16.398 v 0 c -0.4176,0 -0.756,-0.3384 -0.756,-0.756 v 0 c 0,-0.4176 0.3384,-0.756 0.756,-0.756 v 0 h 4.0680003 c 0.39744,0 0.97776,-0.19368 1.296,-0.432 l 4.608,-3.456 c 0.31824,-0.23832 0.89856,-0.432 1.296,-0.432 h 13.968 c 1.19232,0 2.16,0.96768 2.16,2.16 v 18.792 c 0,1.19232 -0.96768,2.16 -2.16,2.16 H 3.5640007 c -1.19232,0 -2.16,-0.96768 -2.16,-2.16 v -7.956 0 c 0,-0.4176 0.3384,-0.756 0.756,-0.756 v 0 c 0.4176,0 0.756,0.3384 0.756,0.756 v 0 7.524 c 0,0.59616 0.48384,1.08 1.08,1.08 H 32.004001 c 0.59616,0 1.08,-0.48384 1.08,-1.08 V 13.158 c 0,-0.59616 -0.48384,-1.08 -1.08,-1.08 h -13.032 c -0.39744,0 -0.97776,0.19368 -1.296,0.432 l -4.608,3.456 c -0.31824,0.23832 -0.89856,0.432 -1.296,0.432 z m -4.284,1.404 v 0 c 0,0.4176 -0.3384,0.756 -0.756,0.756 v 0 c -0.4176,0 -0.756,-0.3384 -0.756,-0.756 v 0 -8.6759997 c 0,-1.19232 0.96768,-2.16 2.16,-2.16 h 8.9856003 c 0.39744,0 0.94824,0.22824 1.22904,0.50904 l 1.87416,1.87416 v 0 c 0.29376,0.29376 0.29376,0.7718397 0,1.0655997 v 0 c -0.29376,0.29376 -0.77184,0.29376 -1.0656,0 v 0 l -1.9368,-1.9367997 H 3.9960007 c -0.59616,0 -1.08,0.48384 -1.08,1.08 z"
       id="svg_1" />
    <path
       inkscape:connector-curvature="0"
       style="fill:url(#_lgradient_4);stroke-width:0.72000003"
       d="m 23.785921,23.70456 -0.4536,-0.31968 0.64008,-0.91008 0.45576,0.32256 5.85,4.13352 c 0.37656,0.26568 0.68184,0.85608 0.68184,1.31616 v 1.40256 c 0,0.46008 -0.37368,0.83448 -0.83448,0.83448 h -10.57104 c -0.4608,0 -0.83448,-0.3744 -0.83448,-0.83448 v -1.422 c 0,-0.46008 0.3168,-1.0332 0.70704,-1.278 l 3.09312,-1.94328 v 0 c 0.26064,-0.16416 0.6048,-0.0864 0.76752,0.17424 v 0 c 0.16272,0.25992 0.08424,0.60336 -0.17496,0.76608 v 0 l -3.04488,1.91592 c -0.1296,0.08208 -0.23544,0.27288 -0.23544,0.42624 v 0.80424 c 0,0.15336 0.12528,0.27792 0.27864,0.27792 h 9.45792 c 0.15336,0 0.27864,-0.12456 0.27864,-0.27792 v -0.82368 c 0,-0.15336 -0.10224,-0.34992 -0.22752,-0.43848 z"
       id="svg_2" />
    <circle
       style="fill:none;stroke:#fd7c40;stroke-width:1.08000004;stroke-linecap:square;stroke-miterlimit:3"
       cx="24.84"
       cy="20.886545"
       r="2.3645456"
       stroke-miterlimit="3"
       id="svg_3" />
  </g>
</svg>
