<svg width="48" height="48" xmlns="http://www.w3.org/2000/svg">
 <defs>
  <linearGradient y2="0.5" x2="0.999962" y1="0.5" x1="-0.000038" id="_lgradient_6">
   <stop stop-color="rgb(211,0,220)" offset="0%"/>
   <stop stop-color="rgb(135,0,255)" offset="100%"/>
  </linearGradient>
 </defs>
 <g>
  <title>background</title>
  <rect fill="none" id="canvas_background" height="41" width="50" y="-1" x="-1"/>
 </g>
 <g>
  <title>Layer 1</title>
  <path id="svg_1" fill="url(#_lgradient_6)" fill-rule="evenodd" d="m9.000001,18.550001l0,0c-0.58,0 -1.05,-0.47 -1.05,-1.05l0,0c0,-0.58 0.47,-1.05 1.05,-1.05l0,0l5.65,0c0.552,0 1.358,-0.269 1.8,-0.6l6.4,-4.8c0.442,-0.331 1.248,-0.6 1.8,-0.6l19.4,0c1.656,0 3,1.344 3,3l0,26.1c0,1.656 -1.344,3 -3,3l-40.1,0c-1.656,0 -3,-1.344 -3,-3l0,-11.05l0,0c0,-0.58 0.47,-1.05 1.05,-1.05l0,0c0.58,0 1.05,0.47 1.05,1.05l0,0l0,10.45c0,0.828 0.672,1.5 1.5,1.5l38.9,0c0.828,0 1.5,-0.672 1.5,-1.5l0,-24.9c0,-0.828 -0.672,-1.5 -1.5,-1.5l-18.1,0c-0.552,0 -1.358,0.269 -1.8,0.6l-6.4,4.8c-0.442,0.331 -1.248,0.6 -1.8,0.6l-6.35,0l0,0zm-5.95,1.95l0,0c0,0.58 -0.47,1.05 -1.05,1.05l0,0c-0.58,0 -1.05,-0.47 -1.05,-1.05l0,0l0,-12.05c0,-1.656 1.344,-3 3,-3l12.48,0c0.552,0 1.317,0.317 1.707,0.707l2.603,2.603l0,0c0.408,0.408 0.408,1.072 0,1.48l0,0c-0.408,0.408 -1.072,0.408 -1.48,0l0,0l-2.69,-2.69l-12.02,0c-0.828,0 -1.5,0.672 -1.5,1.5l0,11.45l0,0zm29.744,1.478l0,0c0.408,0 0.739,-0.331 0.739,-0.739l0,0c0,-0.408 -0.331,-0.739 -0.739,-0.739l0,0l-5.946,0c-1.02,0 -1.848,0.828 -1.848,1.848l0,13.304c0,1.02 0.828,1.848 1.848,1.848l13.304,0c1.02,0 1.848,-0.828 1.848,-1.848l0,-7.358c0,-0.408 -0.331,-0.739 -0.739,-0.739l-4.838,0c-0.204,0 -0.369,-0.166 -0.369,-0.37l0,-3.3c0,-0.204 0.129,-0.266 0.288,-0.139l3.718,2.974l0,0c0.318,0.255 0.783,0.203 1.038,-0.115l0,0c0.255,-0.318 0.204,-0.783 -0.114,-1.038l0,0l-5.543,-4.434c-0.478,-0.382 -0.866,-0.195 -0.866,0.417l0,6.375c0,0.611 0.497,1.108 1.109,1.108l4.099,0c0.408,0 0.739,0.331 0.739,0.739l0,5.141c0,0.612 -0.497,1.109 -1.109,1.109l-11.826,0c-0.612,0 -1.109,-0.497 -1.109,-1.109l0,-11.826c0,-0.612 0.497,-1.109 1.109,-1.109l5.207,0z"/>
 </g>
</svg>