<?xml version="1.0" encoding="UTF-8" standalone="no"?>
<svg
   xmlns:dc="http://purl.org/dc/elements/1.1/"
   xmlns:cc="http://creativecommons.org/ns#"
   xmlns:rdf="http://www.w3.org/1999/02/22-rdf-syntax-ns#"
   xmlns:svg="http://www.w3.org/2000/svg"
   xmlns="http://www.w3.org/2000/svg"
   xmlns:xlink="http://www.w3.org/1999/xlink"
   xmlns:sodipodi="http://sodipodi.sourceforge.net/DTD/sodipodi-0.dtd"
   xmlns:inkscape="http://www.inkscape.org/namespaces/inkscape"
   viewBox="0 0 36 36"
   width="48"
   height="48"
   version="1.1"
   id="svg21"
   sodipodi:docname="folder-temp.svg"
   inkscape:version="0.92.4 (5da689c313, 2019-01-14)">
  <metadata
     id="metadata25">
    <rdf:RDF>
      <cc:Work
         rdf:about="">
        <dc:format>image/svg+xml</dc:format>
        <dc:type
           rdf:resource="http://purl.org/dc/dcmitype/StillImage" />
        <dc:title></dc:title>
      </cc:Work>
    </rdf:RDF>
  </metadata>
  <sodipodi:namedview
     pagecolor="#ffffff"
     bordercolor="#666666"
     borderopacity="1"
     objecttolerance="10"
     gridtolerance="10"
     guidetolerance="10"
     inkscape:pageopacity="0"
     inkscape:pageshadow="2"
     inkscape:window-width="1280"
     inkscape:window-height="947"
     id="namedview23"
     showgrid="false"
     inkscape:zoom="109.64926"
     inkscape:cx="21.909818"
     inkscape:cy="23.973912"
     inkscape:window-x="0"
     inkscape:window-y="0"
     inkscape:window-maximized="1"
     inkscape:current-layer="svg21" />
  <defs
     id="defs9">
    <linearGradient
       inkscape:collect="always"
       id="linearGradient867">
      <stop
         style="stop-color:#59c173;stop-opacity:1;"
         offset="0"
         id="stop863" />
      <stop
         id="stop871"
         offset="0.5105325"
         style="stop-color:#a17fe0;stop-opacity:1" />
      <stop
         style="stop-color:#5d26c1;stop-opacity:1"
         offset="1"
         id="stop865" />
    </linearGradient>
    <linearGradient
       y2="50.42083"
       x2="42.888725"
       y1="6.4820938"
       x1="0.25431383"
       id="_lgradient_2"
       gradientTransform="scale(1.1147141,0.89709098)"
       gradientUnits="userSpaceOnUse">
      <stop
         stop-color="rgb(254,172,94)"
         offset="1.3043478260869565%"
         id="stop2" />
      <stop
         stop-color="rgb(199,121,208)"
         offset="53.04347826086957%"
         id="stop4" />
      <stop
         stop-color="rgb(75,192,200)"
         offset="99.56521739130434%"
         id="stop6" />
    </linearGradient>
    <linearGradient
       id="_lgradient_1"
       x1="0"
       y1="0.5"
       x2="1"
       y2="0.5"
       gradientTransform="matrix(17.000002,0,0,17.000002,25.000051,20.727001)"
       gradientUnits="userSpaceOnUse">
      <stop
         offset="2.1739130434782608%"
         stop-opacity="1"
         style="stop-color:rgb(89,193,115)"
         id="stop2-3" />
      <stop
         offset="47.391304347826086%"
         stop-opacity="1"
         style="stop-color:rgb(161,127,224)"
         id="stop4-6" />
      <stop
         offset="98.69565217391305%"
         stop-opacity="1"
         style="stop-color:rgb(93, 38, 193);stop-opacity:0"
         id="stop6-7" />
    </linearGradient>
    <linearGradient
       inkscape:collect="always"
       xlink:href="#linearGradient867"
       id="linearGradient869"
       x1="0.950001"
       y1="24.000002"
       x2="47.049999"
       y2="24.000002"
       gradientUnits="userSpaceOnUse" />
    <linearGradient
       inkscape:collect="always"
       xlink:href="#linearGradient867"
       id="linearGradient831"
       gradientUnits="userSpaceOnUse"
       x1="0.950001"
       y1="24.000002"
       x2="47.049999"
       y2="24.000002" />
  </defs>
  <g
     id="g837"
     transform="matrix(0.78091106,0,0,0.78091106,-0.74186622,-0.74186622)">
    <path
       sodipodi:nodetypes="ccccccsccsssssssccccccsssssssccscccccccccsssscccccccssccc"
       id="svg_1"
       d="m 9.000001,18.550001 v 0 c -0.58,0 -1.05,-0.47 -1.05,-1.05 v 0 c 0,-0.58 0.47,-1.05 1.05,-1.05 v 0 h 5.65 c 0.552,0 1.358,-0.269 1.8,-0.6 l 6.4,-4.8 c 0.442,-0.331 1.248,-0.6 1.8,-0.6 h 19.4 c 1.656,0 3,1.344 3,3 v 26.1 c 0,1.656 -1.344,3 -3,3 h -40.1 c -1.656,0 -3,-1.344 -3,-3 v -11.05 0 c 0,-0.58 0.47,-1.05 1.05,-1.05 v 0 c 0.58,0 1.05,0.47 1.05,1.05 v 0 10.45 c 0,0.828 0.672,1.5 1.5,1.5 h 38.9 c 0.828,0 1.5,-0.672 1.5,-1.5 v -24.9 c 0,-0.828 -0.672,-1.5 -1.5,-1.5 h -18.1 c -0.552,0 -1.358,0.269 -1.8,0.6 l -6.4,4.8 c -0.442,0.331 -1.248,0.6 -1.8,0.6 z m -5.95,1.95 v 0 c 0,0.58 -0.47,1.05 -1.05,1.05 v 0 c -0.58,0 -1.05,-0.47 -1.05,-1.05 v 0 -12.05 c 0,-1.656 1.344,-3 3,-3 h 12.48 c 0.552,0 1.317,0.317 1.707,0.707 l 2.603,2.603 v 0 c 0.408,0.408 0.408,1.072 0,1.48 v 0 c -0.408,0.408 -1.072,0.408 -1.48,0 v 0 l -2.69,-2.69 h -12.02 c -0.828,0 -1.5,0.672 -1.5,1.5 z"
       style="fill:url(#linearGradient869);fill-opacity:1;fill-rule:evenodd"
       inkscape:connector-curvature="0" />
    <path
       id="path9"
       d="m 33.646711,28.102441 1.87398,-1.87398 c 0.25172,-0.25175 0.65978,-0.25175 0.91153,0 0.25174,0.25171 0.25174,0.65978 0,0.91152 v 0 l -1.87402,1.87402 c 0.003,0.0301 0.004,0.0606 0.004,0.0914 0,0.55533 -0.4518,1.00712 -1.00712,1.00712 -0.12976,0 -0.25384,-0.0247 -0.36786,-0.0696 l -3.07886,3.07889 c -0.0786,0.0787 -0.18175,0.11801 -0.28485,0.11801 -0.10309,0 -0.20615,-0.0394 -0.28485,-0.11801 -0.15731,-0.15735 -0.15731,-0.41241 0,-0.56973 l 3.07886,-3.07886 c -0.0449,-0.11399 -0.0696,-0.2381 -0.0696,-0.36786 0,-0.0308 10e-4,-0.0613 0.004,-0.0914 l -2.7286,-2.7286 c -0.25175,-0.25171 -0.25175,-0.65978 0,-0.91152 0.25171,-0.25175 0.65978,-0.25175 0.91153,0 l 2.72856,2.72856 c 0.0301,-0.003 0.0607,-0.004 0.0915,-0.004 0.0308,0 0.0614,0.001 0.0915,0.004 z m -4.76448,1.40586 h -0.60427 c -0.22249,0 -0.40285,-0.1804 -0.40285,-0.40286 0,-0.22246 0.18036,-0.40285 0.40285,-0.40285 h 0.60427 c 0.22249,0 0.40285,0.18039 0.40285,0.40285 0,0.22246 -0.18036,0.40286 -0.40285,0.40286 z m 4.67297,-4.67301 c -0.22249,0 -0.40285,-0.18039 -0.40285,-0.40285 v -0.60423 c 0,-0.22247 0.18036,-0.40286 0.40285,-0.40286 0.22249,0 0.40285,0.18039 0.40285,0.40286 v 0.60426 c 0,0.22243 -0.18036,0.40282 -0.40285,0.40282 z m 5.27724,4.67301 h -0.60426 c -0.2225,0 -0.40286,-0.1804 -0.40286,-0.40286 0,-0.22246 0.18036,-0.40285 0.40286,-0.40285 h 0.60426 c 0.22249,0 0.40285,0.18039 0.40285,0.40285 0,0.22246 -0.18036,0.40286 -0.40285,0.40286 z m -5.27724,5.27723 c -0.22249,0 -0.40285,-0.18039 -0.40285,-0.40285 v -0.60426 c 0,-0.22246 0.18036,-0.40286 0.40285,-0.40286 0.22249,0 0.40285,0.1804 0.40285,0.40286 v 0.60426 c 0,0.22246 -0.18036,0.40285 -0.40285,0.40285 z m -0.0552,-12.44715 c 3.80448,0 6.88862,3.08414 6.88862,6.88862 0,3.80448 -3.08414,6.88862 -6.88862,6.88862 -3.80448,0 -6.88862,-3.08414 -6.88862,-6.88862 0,-3.80448 3.08414,-6.88862 6.88862,-6.88862 z m 0,-1.61138 c -4.69442,0 -8.5,3.80558 -8.5,8.5 0,4.69442 3.80558,8.5 8.5,8.5 4.69442,0 8.5,-3.80558 8.5,-8.5 0,-4.69442 -3.80558,-8.5 -8.5,-8.5 z"
       style="isolation:isolate;fill:url(#linearGradient831);fill-opacity:1;fill-rule:evenodd;stroke-width:0.03320312"
       inkscape:connector-curvature="0" />
  </g>
</svg>
