<svg width="48" height="48" xmlns="http://www.w3.org/2000/svg">
 <defs>
  <linearGradient y2="0.5" x2="1" y1="0.5" x1="0" id="_lgradient_7">
   <stop stop-color="rgb(52,148,230)" offset="0%"/>
   <stop stop-color="rgb(236,110,173)" offset="98.69565217391305%"/>
  </linearGradient>
 </defs>
 <g>
  <title>background</title>
  <rect fill="none" id="canvas_background" height="41" width="50" y="-1" x="-1"/>
 </g>
 <g>
  <title>Layer 1</title>
  <path id="svg_1" fill="url(#_lgradient_7)" fill-rule="evenodd" d="m9.000001,18.550001l0,0c-0.58,0 -1.05,-0.47 -1.05,-1.05l0,0c0,-0.58 0.47,-1.05 1.05,-1.05l0,0l5.65,0c0.552,0 1.358,-0.269 1.8,-0.6l6.4,-4.8c0.442,-0.331 1.248,-0.6 1.8,-0.6l19.4,0c1.656,0 3,1.344 3,3l0,26.1c0,1.656 -1.344,3 -3,3l-40.1,0c-1.656,0 -3,-1.344 -3,-3l0,-11.05l0,0c0,-0.58 0.47,-1.05 1.05,-1.05l0,0c0.58,0 1.05,0.47 1.05,1.05l0,0l0,10.45c0,0.828 0.672,1.5 1.5,1.5l38.9,0c0.828,0 1.5,-0.672 1.5,-1.5l0,-24.9c0,-0.828 -0.672,-1.5 -1.5,-1.5l-18.1,0c-0.552,0 -1.358,0.269 -1.8,0.6l-6.4,4.8c-0.442,0.331 -1.248,0.6 -1.8,0.6l-6.35,0l0,0l0,0zm-5.95,1.95l0,0c0,0.58 -0.47,1.05 -1.05,1.05l0,0c-0.58,0 -1.05,-0.47 -1.05,-1.05l0,0l0,-12.05c0,-1.656 1.344,-3 3,-3l12.48,0c0.552,0 1.317,0.317 1.707,0.707l2.603,2.603l0,0c0.408,0.408 0.408,1.072 0,1.48l0,0c-0.408,0.408 -1.072,0.408 -1.48,0l0,0l-2.69,-2.69l-12.02,0c-0.828,0 -1.5,0.672 -1.5,1.5l0,11.45l0,0l0,0zm31.105,6.088l0,0c0,-0.48 0.39,-0.87 0.869,-0.87l0,0c0.48,0 0.87,0.39 0.87,0.87l0,0l0,3.591l2.817,-1.877c0.999,-0.666 2.234,-0.329 2.756,0.751l0.298,0.617c0.523,1.08 0.143,2.507 -0.847,3.185l-6.197,4.239c-0.793,0.541 -2.079,0.541 -2.871,0l-6.197,-4.239c-0.991,-0.678 -1.371,-2.105 -0.848,-3.185l0.298,-0.617c0.523,-1.08 1.757,-1.417 2.756,-0.751l2.817,1.877l0,-8.809l0,0c0,-0.48 0.39,-0.87 0.87,-0.87l0,0c0.48,0 0.87,0.39 0.87,0.87l0,0l0,11.192c0,0.48 -0.325,0.653 -0.724,0.387l-4.362,-2.909c-0.399,-0.266 -0.817,-0.134 -0.932,0.296l0,0c-0.116,0.429 0.112,0.998 0.509,1.269l5.661,3.875c0.396,0.271 1.039,0.271 1.435,0l5.661,-3.875c0.396,-0.271 0.624,-0.84 0.509,-1.269l0,0c-0.115,-0.43 -0.533,-0.562 -0.932,-0.296l-4.363,2.909c-0.399,0.266 -0.723,0.093 -0.723,-0.387l0,-5.974l0,0zm0,-3.914c0,-0.48 0.39,-0.87 0.869,-0.87c0.48,0 0.87,0.39 0.87,0.87c0,0.48 -0.39,0.87 -0.87,0.87c-0.479,0 -0.869,-0.39 -0.869,-0.87z"/>
 </g>
</svg>