<?xml version="1.0" encoding="UTF-8" standalone="no"?>
<svg
   xmlns:dc="http://purl.org/dc/elements/1.1/"
   xmlns:cc="http://creativecommons.org/ns#"
   xmlns:rdf="http://www.w3.org/1999/02/22-rdf-syntax-ns#"
   xmlns:svg="http://www.w3.org/2000/svg"
   xmlns="http://www.w3.org/2000/svg"
   xmlns:xlink="http://www.w3.org/1999/xlink"
   xmlns:sodipodi="http://sodipodi.sourceforge.net/DTD/sodipodi-0.dtd"
   xmlns:inkscape="http://www.inkscape.org/namespaces/inkscape"
   viewBox="0 0 36 36"
   width="48"
   height="48"
   version="1.1"
   id="svg21"
   sodipodi:docname="folder-locked.svg"
   inkscape:version="0.92.4 (5da689c313, 2019-01-14)">
  <metadata
     id="metadata25">
    <rdf:RDF>
      <cc:Work
         rdf:about="">
        <dc:format>image/svg+xml</dc:format>
        <dc:type
           rdf:resource="http://purl.org/dc/dcmitype/StillImage" />
        <dc:title></dc:title>
      </cc:Work>
    </rdf:RDF>
  </metadata>
  <sodipodi:namedview
     pagecolor="#ffffff"
     bordercolor="#666666"
     borderopacity="1"
     objecttolerance="10"
     gridtolerance="10"
     guidetolerance="10"
     inkscape:pageopacity="0"
     inkscape:pageshadow="2"
     inkscape:window-width="1280"
     inkscape:window-height="947"
     id="namedview23"
     showgrid="false"
     inkscape:zoom="106.16835"
     inkscape:cx="22.76607"
     inkscape:cy="24.155839"
     inkscape:window-x="0"
     inkscape:window-y="0"
     inkscape:window-maximized="1"
     inkscape:current-layer="svg21" />
  <defs
     id="defs9">
    <linearGradient
       inkscape:collect="always"
       id="linearGradient1423">
      <stop
         style="stop-color:#00cdd7;stop-opacity:1;"
         offset="0"
         id="stop1419" />
      <stop
         style="stop-color:#2086d7;stop-opacity:1"
         offset="1"
         id="stop1421" />
    </linearGradient>
    <linearGradient
       y2="50.42083"
       x2="42.888725"
       y1="6.4820938"
       x1="0.25431383"
       id="_lgradient_2"
       gradientTransform="scale(1.1147141,0.89709098)"
       gradientUnits="userSpaceOnUse">
      <stop
         stop-color="rgb(254,172,94)"
         offset="1.3043478260869565%"
         id="stop2" />
      <stop
         stop-color="rgb(199,121,208)"
         offset="53.04347826086957%"
         id="stop4" />
      <stop
         stop-color="rgb(75,192,200)"
         offset="99.56521739130434%"
         id="stop6" />
    </linearGradient>
    <linearGradient
       id="_lgradient_22"
       x1="0.41703096"
       y1="0.019248826"
       x2="0.67953813"
       y2="0.96413201"
       gradientTransform="matrix(14.03979,0,0,16.999969,27.960211,20.727031)"
       gradientUnits="userSpaceOnUse">
      <stop
         offset="28.000000000000004%"
         stop-opacity="1"
         style="stop-color:rgb(0,205,215)"
         id="stop817" />
      <stop
         offset="94%"
         stop-opacity="1"
         style="stop-color:rgb(32,134,215)"
         id="stop819" />
    </linearGradient>
    <linearGradient
       inkscape:collect="always"
       xlink:href="#linearGradient1423"
       id="linearGradient828"
       gradientUnits="userSpaceOnUse"
       x1="0.950001"
       y1="24.000002"
       x2="47.049999"
       y2="24.000002" />
    <linearGradient
       inkscape:collect="always"
       xlink:href="#linearGradient1423"
       id="linearGradient830"
       gradientUnits="userSpaceOnUse"
       x1="0.950001"
       y1="24.000002"
       x2="47.049999"
       y2="24.000002" />
  </defs>
  <g
     id="g836"
     transform="matrix(0.78091106,0,0,0.78091106,-0.74186622,-0.74186622)">
    <path
       sodipodi:nodetypes="ccccccsccsssssssccccccsssssssccscccccccccsssscccccccssccc"
       id="svg_1"
       d="m 9.000001,18.550001 v 0 c -0.58,0 -1.05,-0.47 -1.05,-1.05 v 0 c 0,-0.58 0.47,-1.05 1.05,-1.05 v 0 h 5.65 c 0.552,0 1.358,-0.269 1.8,-0.6 l 6.4,-4.8 c 0.442,-0.331 1.248,-0.6 1.8,-0.6 h 19.4 c 1.656,0 3,1.344 3,3 v 26.1 c 0,1.656 -1.344,3 -3,3 h -40.1 c -1.656,0 -3,-1.344 -3,-3 v -11.05 0 c 0,-0.58 0.47,-1.05 1.05,-1.05 v 0 c 0.58,0 1.05,0.47 1.05,1.05 v 0 10.45 c 0,0.828 0.672,1.5 1.5,1.5 h 38.9 c 0.828,0 1.5,-0.672 1.5,-1.5 v -24.9 c 0,-0.828 -0.672,-1.5 -1.5,-1.5 h -18.1 c -0.552,0 -1.358,0.269 -1.8,0.6 l -6.4,4.8 c -0.442,0.331 -1.248,0.6 -1.8,0.6 z m -5.95,1.95 v 0 c 0,0.58 -0.47,1.05 -1.05,1.05 v 0 c -0.58,0 -1.05,-0.47 -1.05,-1.05 v 0 -12.05 c 0,-1.656 1.344,-3 3,-3 h 12.48 c 0.552,0 1.317,0.317 1.707,0.707 l 2.603,2.603 v 0 c 0.408,0.408 0.408,1.072 0,1.48 v 0 c -0.408,0.408 -1.072,0.408 -1.48,0 v 0 l -2.69,-2.69 h -12.02 c -0.828,0 -1.5,0.672 -1.5,1.5 z"
       style="fill:url(#linearGradient828);fill-opacity:1;fill-rule:evenodd"
       inkscape:connector-curvature="0" />
    <path
       id="path822"
       d="M 37.381649,27.012424 H 31.839627 V 26.642956 24.79931 c 0,-0.114535 0.01478,-0.225376 0.04064,-0.336216 0.03325,-0.144093 0.07389,-0.288185 0.129314,-0.424889 0.05173,-0.136703 0.114535,-0.269711 0.188429,-0.399025 0.05542,-0.09976 0.121924,-0.192124 0.199513,-0.277101 0.199513,-0.217986 0.421193,-0.421194 0.661348,-0.602233 0.177345,-0.133009 0.373162,-0.247544 0.57637,-0.339911 0.177345,-0.07759 0.365773,-0.136703 0.554202,-0.17365 0.188429,-0.03325 0.380553,-0.04803 0.568981,-0.03695 0.214292,0.01108 0.424889,0.04064 0.628096,0.09237 0.18104,0.04803 0.358384,0.114535 0.524645,0.199513 0.169955,0.08498 0.328827,0.192123 0.472919,0.314048 0.169956,0.140398 0.325132,0.299269 0.46553,0.472919 0.343605,0.424889 0.532034,0.956923 0.532034,1.50743 v 1.847341 z m -1.724308,5.853115 c 0.404937,-0.234243 0.677605,-0.672063 0.677605,-1.173062 0,-0.747803 -0.607036,-1.354839 -1.35484,-1.354839 -0.747803,0 -1.35484,0.607036 -1.35484,1.354839 0,0.500999 0.272668,0.938819 0.677605,1.173062 v 1.084758 c 0,0.249022 0.202099,0.45149 0.45149,0.45149 h 0.45149 c 0.249391,0 0.45149,-0.202468 0.45149,-0.45149 z m -7.69713,-0.495826 c 0,-0.407893 0.331044,-0.738937 0.738937,-0.738937 0.407892,0 0.738936,0.331044 0.738936,0.738937 0,0.407892 -0.331044,0.738936 -0.738936,0.738936 -0.407893,0 -0.738937,-0.331044 -0.738937,-0.738936 z m 10.899311,-5.357289 h 1.662607 c 0.815785,0 1.477872,0.662087 1.477872,1.477873 v 7.758831 c 0,0.815786 -0.662087,1.477873 -1.477872,1.477873 H 29.438084 c -0.815786,0 -1.477873,-0.662087 -1.477873,-1.477873 v -1.847341 0 c 0,-0.407892 0.331044,-0.738936 0.738937,-0.738936 v 0 c 0.407892,0 0.738936,0.331044 0.738936,0.738936 v 0 1.108405 c 0,0.407893 0.331043,0.738936 0.738936,0.738936 h 8.1283 V 33.48994 c 0,-0.312201 0.248282,-0.566025 0.554202,-0.566025 v 0 0 c 0.305919,0 0.554202,0.253824 0.554202,0.566025 v 2.759188 0 h 0.369468 c 0.407893,0 0.738937,-0.331043 0.738937,-0.738936 v -6.280959 c 0,-0.407893 -0.331044,-0.738936 -0.738937,-0.738936 H 30.17702 c -0.407893,0 -0.738936,0.331043 -0.738936,0.738936 v 1.108405 0 c 0,0.407893 -0.331044,0.738936 -0.738936,0.738936 v 0 c -0.407893,0 -0.738937,-0.331043 -0.738937,-0.738936 v 0 -1.847341 c 0,-0.815786 0.662087,-1.477873 1.477873,-1.477873 h 0.92367 v -0.369468 -1.847341 c 0,-0.0037 0,-0.0037 0,-0.0074 0.0037,-0.217986 0.02956,-0.435972 0.07759,-0.650264 0.04803,-0.214291 0.110841,-0.428583 0.192124,-0.631791 0.07759,-0.206902 0.17365,-0.406414 0.28449,-0.598538 0.107146,-0.192123 0.23646,-0.369468 0.384247,-0.535729 0.262323,-0.288185 0.554203,-0.554202 0.86825,-0.790662 0.269712,-0.203207 0.561592,-0.373162 0.868251,-0.509866 0.280795,-0.125619 0.57637,-0.217986 0.879334,-0.277101 0.302964,-0.05542 0.609622,-0.07759 0.916281,-0.06281 0.310353,0.01478 0.620706,0.06281 0.92367,0.140398 0.288186,0.07389 0.565287,0.177344 0.827609,0.314047 0.266017,0.136704 0.517255,0.29927 0.746326,0.491393 0.247543,0.206902 0.469224,0.432278 0.672432,0.683516 0.554202,0.690906 0.857166,1.548072 0.857166,2.434796 v 1.84734 0.369468 z m -0.554202,4.618352 c 0,-0.305919 0.248282,-0.554202 0.554202,-0.554202 0.305919,0 0.554202,0.248283 0.554202,0.554202 0,0.30592 -0.248283,0.554203 -0.554202,0.554203 -0.30592,0 -0.554202,-0.248283 -0.554202,-0.554203 z"
       style="isolation:isolate;fill:url(#linearGradient830);fill-opacity:1;fill-rule:evenodd;stroke-width:0.36946815"
       inkscape:connector-curvature="0" />
  </g>
</svg>
