<?xml version="1.0" encoding="UTF-8" standalone="no"?>
<svg
   xmlns:dc="http://purl.org/dc/elements/1.1/"
   xmlns:cc="http://creativecommons.org/ns#"
   xmlns:rdf="http://www.w3.org/1999/02/22-rdf-syntax-ns#"
   xmlns:svg="http://www.w3.org/2000/svg"
   xmlns="http://www.w3.org/2000/svg"
   xmlns:sodipodi="http://sodipodi.sourceforge.net/DTD/sodipodi-0.dtd"
   xmlns:inkscape="http://www.inkscape.org/namespaces/inkscape"
   viewBox="0 0 36 36"
   width="48"
   height="48"
   version="1.1"
   id="svg21"
   sodipodi:docname="folder-templates.svg"
   inkscape:version="0.92.4 (5da689c313, 2019-01-14)">
  <metadata
     id="metadata25">
    <rdf:RDF>
      <cc:Work
         rdf:about="">
        <dc:format>image/svg+xml</dc:format>
        <dc:type
           rdf:resource="http://purl.org/dc/dcmitype/StillImage" />
        <dc:title />
      </cc:Work>
    </rdf:RDF>
  </metadata>
  <sodipodi:namedview
     pagecolor="#ffffff"
     bordercolor="#666666"
     borderopacity="1"
     objecttolerance="10"
     gridtolerance="10"
     guidetolerance="10"
     inkscape:pageopacity="0"
     inkscape:pageshadow="2"
     inkscape:window-width="640"
     inkscape:window-height="480"
     id="namedview23"
     showgrid="false"
     inkscape:zoom="9.724911"
     inkscape:cx="16.543899"
     inkscape:cy="24.236086"
     inkscape:current-layer="svg21" />
  <defs
     id="defs9">
    <linearGradient
       y2="26.753139"
       x2="42.208134"
       y1="26.753139"
       x1="0.85223734"
       id="_lgradient_1"
       gradientTransform="matrix(0.80259415,0,0,0.64590551,0.72,3.0419996)"
       gradientUnits="userSpaceOnUse">
      <stop
         stop-color="rgb(198,255,221)"
         offset="2.608695652173913%"
         id="stop2" />
      <stop
         stop-color="rgb(251,215,134)"
         offset="51.73913043478261%"
         id="stop4" />
      <stop
         stop-color="rgb(247,121,125)"
         offset="99.1304347826087%"
         id="stop6" />
    </linearGradient>
  </defs>
  <g
     id="g2518"
     transform="matrix(1.0845987,0,0,1.0845987,-1.5227775,-4.0412149)">
    <path
       id="svg_1"
       d="m 7.2000007,16.398 v 0 c -0.4176,0 -0.756,-0.3384 -0.756,-0.756 v 0 c 0,-0.4176 0.3384,-0.756 0.756,-0.756 v 0 h 4.0680003 c 0.39744,0 0.97776,-0.19368 1.296,-0.432 l 4.608,-3.456 c 0.31824,-0.23832 0.89856,-0.432 1.296,-0.432 h 13.968 c 1.19232,0 2.16,0.96768 2.16,2.16 v 18.792 c 0,1.19232 -0.96768,2.16 -2.16,2.16 H 3.5640007 c -1.19232,0 -2.16,-0.96768 -2.16,-2.16 v -7.956 0 c 0,-0.4176 0.3384,-0.756 0.756,-0.756 v 0 c 0.4176,0 0.756,0.3384 0.756,0.756 v 0 7.524 c 0,0.59616 0.48384,1.08 1.08,1.08 H 32.004001 c 0.59616,0 1.08,-0.48384 1.08,-1.08 V 13.158 c 0,-0.59616 -0.48384,-1.08 -1.08,-1.08 h -13.032 c -0.39744,0 -0.97776,0.19368 -1.296,0.432 l -4.608,3.456 c -0.31824,0.23832 -0.89856,0.432 -1.296,0.432 z m -4.284,1.404 v 0 c 0,0.4176 -0.3384,0.756 -0.756,0.756 v 0 c -0.4176,0 -0.756,-0.3384 -0.756,-0.756 v 0 -8.6759997 c 0,-1.19232 0.96768,-2.16 2.16,-2.16 h 8.9856003 c 0.39744,0 0.94824,0.22824 1.22904,0.50904 l 1.87416,1.87416 v 0 c 0.29376,0.29376 0.29376,0.7718397 0,1.0655997 v 0 c -0.29376,0.29376 -0.77184,0.29376 -1.0656,0 v 0 l -1.9368,-1.9367997 H 3.9960007 c -0.59616,0 -1.08,0.48384 -1.08,1.08 z m 21.4156803,1.06416 v 0 c 0.29376,0 0.53208,-0.23832 0.53208,-0.53208 v 0 c 0,-0.29376 -0.23832,-0.53208 -0.53208,-0.53208 v 0 h -4.28112 c -0.7344,0 -1.33056,0.59616 -1.33056,1.33056 v 9.57888 c 0,0.7344 0.59616,1.33056 1.33056,1.33056 h 9.57888 c 0.7344,0 1.33056,-0.59616 1.33056,-1.33056 v -5.29776 c 0,-0.29376 -0.23832,-0.53208 -0.53208,-0.53208 h -3.48336 c -0.14688,0 -0.26568,-0.11952 -0.26568,-0.2664 v -2.376 c 0,-0.14688 0.09288,-0.19152 0.20736,-0.10008 l 2.67696,2.14128 v 0 c 0.22896,0.1836 0.56376,0.14616 0.74736,-0.0828 v 0 c 0.1836,-0.22896 0.14688,-0.56376 -0.08208,-0.74736 v 0 l -3.99096,-3.19248 c -0.34416,-0.27504 -0.62352,-0.1404 -0.62352,0.30024 v 4.59 c 0,0.43992 0.35784,0.79776 0.79848,0.79776 h 2.95128 c 0.29376,0 0.53208,0.23832 0.53208,0.53208 v 3.70152 c 0,0.44064 -0.35784,0.79848 -0.79848,0.79848 h -8.51472 c -0.44064,0 -0.79848,-0.35784 -0.79848,-0.79848 v -8.51472 c 0,-0.44064 0.35784,-0.79848 0.79848,-0.79848 z m -0.45504,8.38224 h -2.36304 v -2.36304 z m 1.66032,0.79776 h -4.55544 c -0.14688,0 -0.26568,-0.1188 -0.26568,-0.26568 v -4.55544 c 0,-0.14688 0.08424,-0.18216 0.18792,-0.07848 l 4.71168,4.71168 c 0.10368,0.10368 0.0684,0.18792 -0.07848,0.18792 z"
       style="fill:url(#_lgradient_1);fill-rule:evenodd;stroke-width:0.72000003"
       inkscape:connector-curvature="0" />
  </g>
</svg>
