<?xml version="1.0" encoding="UTF-8" standalone="no"?>
<svg
   xmlns:dc="http://purl.org/dc/elements/1.1/"
   xmlns:cc="http://creativecommons.org/ns#"
   xmlns:rdf="http://www.w3.org/1999/02/22-rdf-syntax-ns#"
   xmlns:svg="http://www.w3.org/2000/svg"
   xmlns="http://www.w3.org/2000/svg"
   xmlns:sodipodi="http://sodipodi.sourceforge.net/DTD/sodipodi-0.dtd"
   xmlns:inkscape="http://www.inkscape.org/namespaces/inkscape"
   viewBox="0 0 36 36"
   width="48"
   height="48"
   version="1.1"
   id="svg19"
   sodipodi:docname="folder-home.svg"
   inkscape:version="0.92.4 (5da689c313, 2019-01-14)">
  <metadata
     id="metadata23">
    <rdf:RDF>
      <cc:Work
         rdf:about="">
        <dc:format>image/svg+xml</dc:format>
        <dc:type
           rdf:resource="http://purl.org/dc/dcmitype/StillImage" />
        <dc:title />
      </cc:Work>
    </rdf:RDF>
  </metadata>
  <sodipodi:namedview
     pagecolor="#ffffff"
     bordercolor="#666666"
     borderopacity="1"
     objecttolerance="10"
     gridtolerance="10"
     guidetolerance="10"
     inkscape:pageopacity="0"
     inkscape:pageshadow="2"
     inkscape:window-width="640"
     inkscape:window-height="480"
     id="namedview21"
     showgrid="false"
     inkscape:zoom="9.724911"
     inkscape:cx="29.497441"
     inkscape:cy="21.520529"
     inkscape:current-layer="svg19" />
  <defs
     id="defs7">
    <linearGradient
       y2="26.753139"
       x2="42.20813"
       y1="26.753139"
       x1="0.85223645"
       id="_lgradient_0"
       gradientTransform="matrix(0.87049257,0,0,0.70054828,-0.74186551,-0.74186614)"
       gradientUnits="userSpaceOnUse">
      <stop
         stop-color="rgb(0,255,169)"
         offset="0%"
         id="stop2" />
      <stop
         stop-color="rgb(240,116,179)"
         offset="100%"
         id="stop4" />
    </linearGradient>
  </defs>
  <path
     inkscape:connector-curvature="0"
     style="fill:url(#_lgradient_0);fill-rule:evenodd;stroke-width:0.78091109"
     d="m 6.2863341,13.744034 v 0 c -0.4529285,0 -0.8199567,-0.367028 -0.8199567,-0.819956 v 0 c 0,-0.452929 0.3670282,-0.819957 0.8199567,-0.819957 v 0 h 4.4121479 c 0.431062,0 1.060477,-0.210065 1.405639,-0.468546 L 17.101952,7.8872016 C 17.447115,7.62872 18.076529,7.418655 18.507592,7.418655 H 33.657267 C 34.950456,7.418655 36,8.4681994 36,9.7613881 V 30.143167 C 36,31.436356 34.950456,32.4859 33.657267,32.4859 H 2.3427332 C 1.0495445,32.4859 0,31.436356 0,30.143167 v -8.629067 0 c 0,-0.452929 0.3670282,-0.819957 0.8199566,-0.819957 v 0 c 0.4529284,0 0.8199566,0.367028 0.8199566,0.819957 v 0 8.16052 c 0,0.646595 0.5247723,1.171367 1.1713666,1.171367 H 33.18872 c 0.646595,0 1.171367,-0.524772 1.171367,-1.171367 V 10.229935 c 0,-0.6465949 -0.524772,-1.1713669 -1.171367,-1.1713669 H 19.05423 c -0.431063,0 -1.060477,0.210065 -1.40564,0.4685469 l -4.997831,3.748373 c -0.345162,0.258481 -0.974577,0.468546 -1.40564,0.468546 z m -4.6464209,1.522777 v 0 c 0,0.452928 -0.3670282,0.819957 -0.8199566,0.819957 v 0 C 0.3670282,16.086768 0,15.719739 0,15.266811 v 0 -9.4099778 C 0,4.5636445 1.0495445,3.5141 2.3427332,3.5141 h 9.7457698 c 0.431063,0 1.02846,0.2475488 1.333015,0.5521041 l 2.032712,2.0327115 v 0 c 0.318612,0.3186117 0.318612,0.8371363 0,1.1557481 v 0 c -0.318612,0.3186117 -0.837137,0.3186117 -1.155748,0 v 0 L 12.197831,5.1540132 H 2.8112798 c -0.6465943,0 -1.1713666,0.5247723 -1.1713666,1.1713666 z m 26.9336228,7.098482 h -0.593493 v 4.615184 H 25.90282 v -3.459436 h -3.826464 v 3.459436 h -2.030369 v -4.615184 h -0.851193 l 4.786985,-4.490239 z m -10.089371,1.561822 h -3.240781 l 8.754013,-8.215185 8.418221,8.215185 h -2.873752 v 4.615184 h -5.200868 v -3.459436 h -0.70282 v 3.459436 h -5.154013 z"
     id="svg_1" />
</svg>
