<?xml version="1.0" encoding="UTF-8" standalone="no"?>
<svg
   xmlns:dc="http://purl.org/dc/elements/1.1/"
   xmlns:cc="http://creativecommons.org/ns#"
   xmlns:rdf="http://www.w3.org/1999/02/22-rdf-syntax-ns#"
   xmlns:svg="http://www.w3.org/2000/svg"
   xmlns="http://www.w3.org/2000/svg"
   xmlns:xlink="http://www.w3.org/1999/xlink"
   xmlns:sodipodi="http://sodipodi.sourceforge.net/DTD/sodipodi-0.dtd"
   xmlns:inkscape="http://www.inkscape.org/namespaces/inkscape"
   width="48"
   height="48"
   version="1.1"
   id="svg21"
   sodipodi:docname="folder-cloud.svg"
   inkscape:version="0.92.4 (5da689c313, 2019-01-14)">
  <metadata
     id="metadata25">
    <rdf:RDF>
      <cc:Work
         rdf:about="">
        <dc:format>image/svg+xml</dc:format>
        <dc:type
           rdf:resource="http://purl.org/dc/dcmitype/StillImage" />
      </cc:Work>
    </rdf:RDF>
  </metadata>
  <sodipodi:namedview
     pagecolor="#ffffff"
     bordercolor="#666666"
     borderopacity="1"
     objecttolerance="10"
     gridtolerance="10"
     guidetolerance="10"
     inkscape:pageopacity="0"
     inkscape:pageshadow="2"
     inkscape:window-width="1280"
     inkscape:window-height="947"
     id="namedview23"
     showgrid="false"
     inkscape:zoom="12.623619"
     inkscape:cx="22.527222"
     inkscape:cy="25.055872"
     inkscape:window-x="0"
     inkscape:window-y="0"
     inkscape:window-maximized="1"
     inkscape:current-layer="svg21" />
  <defs
     id="defs9">
    <linearGradient
       inkscape:collect="always"
       id="linearGradient859">
      <stop
         style="stop-color:#e96ba9;stop-opacity:1;"
         offset="0"
         id="stop855" />
      <stop
         style="stop-color:#42d8f6;stop-opacity:1"
         offset="1"
         id="stop857" />
    </linearGradient>
    <linearGradient
       y2="50.420831"
       x2="42.888724"
       y1="6.4820938"
       x1="0.25431382"
       id="_lgradient_2"
       gradientTransform="scale(1.1147141,0.89709098)"
       gradientUnits="userSpaceOnUse">
      <stop
         stop-color="rgb(254,172,94)"
         offset="1.3043478260869565%"
         id="stop2" />
      <stop
         stop-color="rgb(199,121,208)"
         offset="53.04347826086957%"
         id="stop4" />
      <stop
         stop-color="rgb(75,192,200)"
         offset="99.56521739130434%"
         id="stop6" />
    </linearGradient>
    <linearGradient
       id="_lgradient_8"
       x1="0.040624999"
       y1="0.054347824"
       x2="0.96835077"
       y2="0.97395134"
       gradientTransform="matrix(17,0,0,17,25.000002,21.113502)"
       gradientUnits="userSpaceOnUse">
      <stop
         offset="0%"
         stop-opacity="1"
         style="stop-color:rgb(240,107,169)"
         id="stop848" />
      <stop
         offset="98.69565217391305%"
         stop-opacity="1"
         style="stop-color:rgb(66,216,246)"
         id="stop850" />
    </linearGradient>
    <linearGradient
       id="_lgradient_8-3"
       x1="0.040624999"
       y1="0.054347824"
       x2="0.96835077"
       y2="0.97395134"
       gradientTransform="matrix(8.159515,0,0,8.159515,22.310906,35.363052)"
       gradientUnits="userSpaceOnUse">
      <stop
         offset="0%"
         stop-opacity="1"
         style="stop-color:#e96ba9;stop-opacity:1"
         id="stop848-6" />
      <stop
         offset="98.69565217391305%"
         stop-opacity="1"
         style="stop-color:#42d8f6;stop-opacity:1"
         id="stop850-7" />
    </linearGradient>
    <linearGradient
       inkscape:collect="always"
       xlink:href="#linearGradient859"
       id="linearGradient861"
       x1="0.950001"
       y1="24.000001"
       x2="47.050001"
       y2="24.000001"
       gradientUnits="userSpaceOnUse" />
  </defs>
  <g
     id="g843"
     style="fill:url(#linearGradient861);fill-opacity:1">
    <path
       sodipodi:nodetypes="ccccccsccsssssssccccccsssssssccscccccccccsssscccccccssccc"
       id="svg_1"
       d="m 9.000001,18.550001 v 0 c -0.58,0 -1.05,-0.47 -1.05,-1.05 v 0 c 0,-0.58 0.47,-1.05 1.05,-1.05 v 0 h 5.65 c 0.552,0 1.358,-0.269 1.8,-0.6 l 6.4,-4.8 c 0.442,-0.331 1.248,-0.6 1.8,-0.6 h 19.4 c 1.656,0 3,1.344 3,3 v 26.1 c 0,1.656 -1.344,3 -3,3 h -40.1 c -1.656,0 -3,-1.344 -3,-3 v -11.05 0 c 0,-0.58 0.47,-1.05 1.05,-1.05 v 0 c 0.58,0 1.05,0.47 1.05,1.05 v 0 10.45 c 0,0.828 0.672,1.5 1.5,1.5 h 38.9 c 0.828,0 1.5,-0.672 1.5,-1.5 v -24.9 c 0,-0.828 -0.672,-1.5 -1.5,-1.5 h -18.1 c -0.552,0 -1.358,0.269 -1.8,0.6 l -6.4,4.8 c -0.442,0.331 -1.248,0.6 -1.8,0.6 z m -5.95,1.95 v 0 c 0,0.58 -0.47,1.05 -1.05,1.05 v 0 c -0.58,0 -1.05,-0.47 -1.05,-1.05 v 0 -12.05 c 0,-1.656 1.344,-3 3,-3 h 12.48 c 0.552,0 1.317,0.317 1.707,0.707 l 2.603,2.603 v 0 c 0.408,0.408 0.408,1.072 0,1.48 v 0 c -0.408,0.408 -1.072,0.408 -1.48,0 v 0 l -2.69,-2.69 h -12.02 c -0.828,0 -1.5,0.672 -1.5,1.5 z"
       style="fill:url(#linearGradient861);fill-opacity:1;fill-rule:evenodd;stroke:none;stroke-opacity:1"
       inkscape:connector-curvature="0" />
    <path
       id="path853"
       d="m 32.776597,27.341236 c -0.841682,-0.07234 -1.662745,-0.270193 -2.436427,-0.585958 -0.08682,0.503488 -0.142862,1.011318 -0.168905,1.52132 v 0 h 2.60534 z m 1.446808,3.52e-4 c 0.840957,-0.07234 1.662383,-0.269468 2.43751,-0.584149 v 0 c 0.08609,0.502765 0.141779,1.010235 0.167822,1.519148 h -2.60534 z m -1.446808,3.678873 c -0.821064,0.07017 -1.622597,0.260063 -2.379638,0.562085 -0.119007,-0.613447 -0.19424,-1.235213 -0.225703,-1.85915 v 0 h 2.605341 z m 1.446808,-3.54e-4 c 0.821064,0.07052 1.622597,0.260425 2.379638,0.562448 0.119007,-0.61381 0.19424,-1.235213 0.225703,-1.859151 h -2.605341 z m -1.446808,1.453319 c -0.694469,0.07161 -1.370851,0.245959 -2.00817,0.515064 v 0 0 c 0.136362,0.404383 0.304191,0.798277 0.499872,1.180235 0.151904,0.292978 0.329148,0.575105 0.531702,0.839148 0.17001,0.220638 0.361703,0.423192 0.575107,0.600425 0.124424,0.101277 0.258255,0.187365 0.401489,0.260065 z m 1.446808,0 c 0.694469,0.07198 1.370851,0.247044 2.007809,0.516512 -0.136362,0.40366 -0.30383,0.797191 -0.499511,1.178787 -0.151904,0.292978 -0.329148,0.575105 -0.531702,0.839148 -0.17001,0.220638 -0.361703,0.423192 -0.575107,0.600425 -0.124424,0.101277 -0.258255,0.187365 -0.401489,0.260065 z m -1.446808,-6.585147 c -0.732809,-0.07596 -1.445724,-0.266577 -2.112703,-0.561725 v 0 0 c 0.155905,-0.514702 0.358086,-1.014573 0.604405,-1.495277 0.151904,-0.292978 0.329148,-0.575105 0.531702,-0.839148 0.17001,-0.22064 0.361703,-0.423191 0.575107,-0.600425 0.124424,-0.101277 0.258255,-0.187365 0.401489,-0.260065 z m 1.446808,0 c 0.732086,-0.07559 1.445361,-0.264768 2.113787,-0.558109 -0.155885,-0.515424 -0.358447,-1.016743 -0.605489,-1.498893 -0.151904,-0.292978 -0.329148,-0.575105 -0.531702,-0.839148 -0.17001,-0.22064 -0.361703,-0.423191 -0.575107,-0.600425 -0.124424,-0.101277 -0.258255,-0.187365 -0.401489,-0.260065 z m 6.292533,2.388319 c -0.119716,-1.158171 -0.524831,-2.266427 -1.173362,-3.226746 v 0 l -0.200032,0.177594 c -0.355192,0.315766 -0.734256,0.598979 -1.134659,0.844212 v 0 c 0.145758,0.72666 0.235468,1.464533 0.269468,2.204938 z m 0,1.446806 c -0.129133,1.248598 -0.589575,2.43932 -1.328171,3.449555 v 0 c -0.387746,-0.349406 -0.804787,-0.660108 -1.247511,-0.924511 0.0058,-0.02423 0.01083,-0.04846 0.01583,-0.07269 0.17651,-0.806233 0.283212,-1.627659 0.321192,-2.452341 z m -14.031874,0 c 0.129133,1.249321 0.589937,2.440043 1.328894,3.450639 0.387383,-0.349404 0.804064,-0.660469 1.247149,-0.924872 -0.0062,-0.02461 -0.01125,-0.04884 -0.01625,-0.07342 -0.176511,-0.806233 -0.283213,-1.627659 -0.321192,-2.452341 z m 3.728426,5.514151 c -0.51217,-0.267299 -0.992149,-0.599702 -1.427999,-0.98998 0.222446,-0.200741 0.456106,-0.385935 0.700616,-0.554489 0.141779,0.387021 0.308171,0.765362 0.495532,1.133936 0.07198,0.139988 0.148654,0.277425 0.231851,0.410533 z m 7.302405,-1.544106 c 0.24451,0.168551 0.478893,0.353381 0.701339,0.553403 -0.436211,0.390638 -0.916192,0.723404 -1.428722,0.990703 0.08319,-0.133112 0.159864,-0.270553 0.231851,-0.410533 0.187366,-0.368213 0.353744,-0.746552 0.495532,-1.133573 z M 30.205619,22.774023 c -0.587766,0.306362 -1.128511,0.700616 -1.606321,1.167573 0.245959,0.238362 0.508193,0.457192 0.782001,0.657575 0.163135,-0.489021 0.364957,-0.965022 0.59934,-1.426191 0.06982,-0.136008 0.144321,-0.269468 0.22498,-0.398957 z m 7.410553,1.818999 c 0.196761,-0.136362 0.384127,-0.286829 0.564254,-0.447064 l 0.233297,-0.206887 v 0 c -0.485764,-0.470213 -1.031934,-0.864468 -1.622594,-1.170467 0.08211,0.131299 0.157343,0.266574 0.228234,0.404382 0.233298,0.458638 0.434403,0.93283 0.596809,1.420043 z m -10.927023,2.569532 v 0 c -0.107798,0.383404 -0.507467,0.606936 -0.891594,0.499149 v 0 C 25.413426,27.553905 25.18881,27.153512 25.296598,26.7683 v 0 l 0.03979,-0.144676 v 0 c 0.109965,-0.385212 0.511084,-0.60983 0.895211,-0.500956 v 0 c 0.384129,0.108881 0.607299,0.50819 0.49734,0.891594 v 0 z m -0.242339,1.114044 c -0.798639,0 -1.446809,0.324083 -1.446809,0.723403 v 0 0 c 0,0 0,0 0,0 0,2.253405 0.897022,4.416383 2.48851,6.011489 1.595108,1.59149 3.758086,2.48851 6.011491,2.48851 v 0 0 0 c 2.253403,0 4.416381,-0.89702 6.011489,-2.48851 1.591488,-1.595106 2.48851,-3.758084 2.48851,-6.011489 v 0 c 0,-2.253405 -0.897022,-4.416383 -2.48851,-6.011489 C 37.916383,21.397022 35.753405,20.5 33.500002,20.5 v 0 c 0,0 0,0 0,0 v 0 c -2.926172,0.0035 -5.653405,1.511917 -7.205107,3.993192 v 0 c -0.211596,0.33747 -0.108507,0.783086 0.22968,0.994682 v 0 c 0.338193,0.211595 0.784895,0.109589 0.99649,-0.227872 v 0 0 0 c 0.04486,-0.07161 0.09115,-0.142509 0.138905,-0.211959 0.41053,0.388107 0.856148,0.731362 1.331785,1.022171 v 0 c -0.145405,0.728106 -0.235106,1.464894 -0.269106,2.206384 z"
       style="isolation:isolate;fill:url(#linearGradient861);fill-opacity:1;fill-rule:evenodd;stroke:none;stroke-width:0.36170211;stroke-opacity:1"
       inkscape:connector-curvature="0" />
  </g>
</svg>
