<?xml version="1.0" encoding="UTF-8" standalone="no"?>
<svg
   xmlns:dc="http://purl.org/dc/elements/1.1/"
   xmlns:cc="http://creativecommons.org/ns#"
   xmlns:rdf="http://www.w3.org/1999/02/22-rdf-syntax-ns#"
   xmlns:svg="http://www.w3.org/2000/svg"
   xmlns="http://www.w3.org/2000/svg"
   xmlns:sodipodi="http://sodipodi.sourceforge.net/DTD/sodipodi-0.dtd"
   xmlns:inkscape="http://www.inkscape.org/namespaces/inkscape"
   viewBox="0 0 36 36"
   width="48"
   height="48"
   version="1.1"
   id="svg19"
   sodipodi:docname="folder-github.svg"
   inkscape:version="0.92.4 (5da689c313, 2019-01-14)">
  <metadata
     id="metadata23">
    <rdf:RDF>
      <cc:Work
         rdf:about="">
        <dc:format>image/svg+xml</dc:format>
        <dc:type
           rdf:resource="http://purl.org/dc/dcmitype/StillImage" />
        <dc:title />
      </cc:Work>
    </rdf:RDF>
  </metadata>
  <sodipodi:namedview
     pagecolor="#ffffff"
     bordercolor="#666666"
     borderopacity="1"
     objecttolerance="10"
     gridtolerance="10"
     guidetolerance="10"
     inkscape:pageopacity="0"
     inkscape:pageshadow="2"
     inkscape:window-width="640"
     inkscape:window-height="480"
     id="namedview21"
     showgrid="false"
     inkscape:zoom="9.724911"
     inkscape:cx="31.806179"
     inkscape:cy="28.445337"
     inkscape:current-layer="svg19" />
  <defs
     id="defs7">
    <linearGradient
       y2="26.753139"
       x2="42.208134"
       y1="26.753139"
       x1="0.85223734"
       id="_lgradient_1"
       gradientTransform="matrix(0.87049257,0,0,0.70054828,-0.74186641,-0.74186589)"
       gradientUnits="userSpaceOnUse">
      <stop
         stop-color="rgb(255,143,195)"
         offset="0%"
         id="stop2" />
      <stop
         stop-color="rgb(161,161,255)"
         offset="100%"
         id="stop4" />
    </linearGradient>
  </defs>
  <path
     inkscape:connector-curvature="0"
     style="fill:url(#_lgradient_1);fill-rule:evenodd;stroke-width:0.78091109"
     d="m 6.2863339,13.744035 v 0 c -0.4529284,0 -0.8199566,-0.367029 -0.8199566,-0.819957 v 0 c 0,-0.452928 0.3670282,-0.819957 0.8199566,-0.819957 v 0 h 4.4121471 c 0.431063,0 1.060478,-0.210065 1.40564,-0.468546 L 17.101952,7.8872016 C 17.447115,7.6287201 18.076529,7.418655 18.507592,7.418655 H 33.657267 C 34.950455,7.418655 36,8.4681995 36,9.7613879 V 30.143167 C 36,31.436356 34.950455,32.4859 33.657267,32.4859 H 2.3427331 C 1.0495444,32.4859 -1.5e-7,31.436356 -1.5e-7,30.143167 v -8.629067 0 c 0,-0.452929 0.3670282,-0.819957 0.8199566,-0.819957 v 0 c 0.45292845,0 0.81995665,0.367028 0.81995665,0.819957 v 0 8.16052 c 0,0.646595 0.5247722,1.171367 1.1713666,1.171367 H 33.18872 c 0.646594,0 1.171366,-0.524772 1.171366,-1.171367 V 10.229935 c 0,-0.6465941 -0.524772,-1.1713671 -1.171366,-1.1713671 H 19.05423 c -0.431063,0 -1.060477,0.210065 -1.40564,0.468547 l -4.997831,3.7483731 c -0.345163,0.258482 -0.974577,0.468547 -1.40564,0.468547 z m -4.6464208,1.522776 v 0 c 0,0.452929 -0.3670282,0.819957 -0.81995665,0.819957 v 0 c -0.4529284,0 -0.8199566,-0.367028 -0.8199566,-0.819957 v 0 -9.4099778 c 0,-1.2931887 1.04954455,-2.3427331 2.34273325,-2.3427331 h 9.7457699 c 0.431063,0 1.02846,0.2475488 1.333015,0.5521041 l 2.032712,2.0327114 v 0 c 0.318612,0.3186118 0.318612,0.8371364 0,1.1557481 v 0 c -0.318612,0.3186117 -0.837137,0.3186117 -1.155749,0 v 0 L 12.197831,5.1540133 H 2.8112797 c -0.6465944,0 -1.1713666,0.5247722 -1.1713666,1.1713666 z m 23.7396959,0 c -3.67731,0 -6.637744,2.960434 -6.637744,6.637744 0,2.964339 1.924946,5.459349 4.597224,6.31679 v -1.379089 c -1.67974,0.370933 -2.033493,-0.738742 -2.033493,-0.738742 -0.27488,-0.709067 -0.670802,-0.898048 -0.670802,-0.898048 -0.548981,-0.380303 0.04061,-0.374056 0.04061,-0.374056 0.605987,0.04295 0.92538,0.633319 0.92538,0.633319 0.538828,0.937874 1.41423,0.667679 1.757831,0.510716 0.05544,-0.396703 0.211626,-0.66846 0.384208,-0.821519 -1.340825,-0.155401 -2.503601,-1.012842 -2.503601,-3.364946 0,-0.670021 0.486508,-1.549327 0.873058,-1.978047 -0.06247,-0.155402 -0.270976,-1.111237 0.05857,-1.956183 0,0 0.03124,-0.01019 0.09683,-0.01328 0.196789,-0.0086 0.638785,0.363905 1.504034,0.95974 0.52243,-0.149935 1.19089,-0.220217 1.607896,-0.223341 0.47089,-0.0039 1.015185,0.07653 1.506378,0.223341 0.865249,-0.595835 1.418134,-0.969892 1.614143,-0.961302 h 0.0015 c 0.0656,0.0031 0.09761,0.01328 0.09761,0.01328 0.329545,0.844945 0.121822,1.802342 0.05935,1.957744 0.387332,0.42872 0.869935,1.308026 0.869935,1.978047 0,2.358352 -1.411887,3.207983 -2.756616,3.360261 0.216313,0.18898 0.270196,0.564598 0.270196,1.137006 0,0.691887 -0.0015,1.140911 -0.0031,1.426725 v 0.613796 c 2.868287,-0.734057 4.978308,-3.318872 4.978308,-6.422213 0,-3.67731 -2.960434,-6.637744 -6.637744,-6.637744 z"
     id="svg_1" />
</svg>
