<?xml version="1.0" encoding="UTF-8" standalone="no"?>
<!-- Generator: Gravit.io -->

<svg
   xmlns:dc="http://purl.org/dc/elements/1.1/"
   xmlns:cc="http://creativecommons.org/ns#"
   xmlns:rdf="http://www.w3.org/1999/02/22-rdf-syntax-ns#"
   xmlns:svg="http://www.w3.org/2000/svg"
   xmlns="http://www.w3.org/2000/svg"
   xmlns:sodipodi="http://sodipodi.sourceforge.net/DTD/sodipodi-0.dtd"
   xmlns:inkscape="http://www.inkscape.org/namespaces/inkscape"
   style="isolation:isolate"
   viewBox="0 0 36 36"
   width="48"
   height="48"
   version="1.1"
   id="svg11"
   sodipodi:docname="font-viewer.svg"
   inkscape:version="0.92.4 (5da689c313, 2019-01-14)">
  <metadata
     id="metadata17">
    <rdf:RDF>
      <cc:Work
         rdf:about="">
        <dc:format>image/svg+xml</dc:format>
        <dc:type
           rdf:resource="http://purl.org/dc/dcmitype/StillImage" />
        <dc:title></dc:title>
      </cc:Work>
    </rdf:RDF>
  </metadata>
  <defs
     id="defs15" />
  <sodipodi:namedview
     pagecolor="#ffffff"
     bordercolor="#666666"
     borderopacity="1"
     objecttolerance="10"
     gridtolerance="10"
     guidetolerance="10"
     inkscape:pageopacity="0"
     inkscape:pageshadow="2"
     inkscape:window-width="640"
     inkscape:window-height="480"
     id="namedview13"
     showgrid="false"
     inkscape:zoom="29.365243"
     inkscape:cx="25.325443"
     inkscape:cy="32"
     inkscape:current-layer="svg11"
     units="px" />
  <linearGradient
     id="_lgradient_49"
     x1="0"
     y1="0.5"
     x2="1"
     y2="0.5"
     gradientTransform="matrix(43.76,0,0,44.88,1.25,0.25)"
     gradientUnits="userSpaceOnUse">
    <stop
       offset="0%"
       stop-opacity="1"
       style="stop-color:rgb(84,51,255)"
       id="stop2" />
    <stop
       offset="51.73913043478261%"
       stop-opacity="1"
       style="stop-color:rgb(32,189,255)"
       id="stop4" />
    <stop
       offset="98.26086956521739%"
       stop-opacity="1"
       style="stop-color:rgb(165,254,203)"
       id="stop6" />
  </linearGradient>
  <g
     id="g825"
     transform="matrix(0.80213904,0,0,0.80213904,-0.5534622,-0.20053482)">
    <path
       id="path9"
       d="m 9.4,7.19 v 0 C 8.677,7.83 7.57,7.763 6.93,7.04 v 0 C 6.29,6.317 6.357,5.21 7.08,4.57 v 0 C 10.23,1.79 14.3,0.25 18.5,0.25 c 4.57,0 8.96,1.82 12.2,5.05 3.23,3.24 5.05,7.63 5.05,12.2 0,4.57 -1.82,8.96 -5.05,12.2 -3.24,3.23 -7.63,5.05 -12.2,5.05 -4.55,0 -8.92,-1.8 -12.15,-5 -3.23,-3.2 -5.06,-7.56 -5.1,-12.11 v 0 C 1.244,16.674 2.024,15.883 2.99,15.875 v 0 c 0.966,-0.008 1.754,0.769 1.76,1.735 v 0 c 0.03,3.63 1.49,7.1 4.07,9.65 2.57,2.56 6.05,3.99 9.68,3.99 3.65,0 7.15,-1.45 9.72,-4.03 2.58,-2.57 4.03,-6.07 4.03,-9.72 0,-3.65 -1.45,-7.15 -4.03,-9.72 C 25.65,5.2 22.15,3.75 18.5,3.75 c -3.35,0 -6.59,1.23 -9.1,3.44 z m -3.76,5.44 v 0 c -0.342,0.905 -1.355,1.362 -2.26,1.02 v 0 C 2.475,13.308 2.018,12.295 2.36,11.39 v 0 C 2.61,10.76 2.89,10.13 3.2,9.53 v 0 C 3.647,8.669 4.707,8.335 5.565,8.785 v 0 c 0.858,0.45 1.188,1.51 0.735,2.365 v 0 c -0.25,0.48 -0.47,0.98 -0.66,1.48 z m 28.29,17.95 v 0 c -0.651,-0.717 -0.6,-1.826 0.115,-2.475 v 0 c 0.715,-0.648 1.824,-0.597 2.475,0.115 v 0 l 7.27,8.02 c 0.79,0.86 1.22,1.98 1.22,3.14 0,1.36 -0.59,2.66 -1.62,3.54 l -1.2,1.04 c 0,0 0,0 0,0 -0.88,0.76 -2,1.17 -3.15,1.17 -1.36,0 -2.66,-0.57 -3.57,-1.57 0,0 0,0 -0.01,0 l -7.27,-8.02 v 0 c -0.651,-0.717 -0.6,-1.826 0.115,-2.475 v 0 c 0.715,-0.649 1.824,-0.592 2.475,0.125 v 0 l 7.27,8.01 c 0.26,0.28 0.61,0.43 0.99,0.43 0.31,0 0.62,-0.11 0.86,-0.32 l 1.2,-1.04 c 0,0 0,0 0,0 0.26,-0.22 0.41,-0.54 0.41,-0.89 0,-0.29 -0.11,-0.57 -0.3,-0.79 -0.01,0 -0.01,0 -0.01,0 z M 26.694,19.016 v -0.758 l -0.972,0.033 v 0 q -1.096,0.033 -1.632,0.395 v 0 0 q -0.535,0.363 -0.535,1.104 v 0 0 q 0,1.063 1.219,1.063 v 0 0 q 0.873,0 1.397,-0.503 v 0 0 q 0.523,-0.502 0.523,-1.334 z m 2.496,3.509 h -1.755 l -0.486,-1.252 h -0.066 v 0 q -0.634,0.799 -1.306,1.108 v 0 0 q -0.671,0.309 -1.75,0.309 v 0 0 q -1.327,0 -2.089,-0.758 v 0 0 q -0.762,-0.758 -0.762,-2.158 v 0 0 q 0,-1.467 1.026,-2.163 v 0 0 q 1.026,-0.696 3.094,-0.77 v 0 l 1.598,-0.05 v -0.403 0 q 0,-1.401 -1.434,-1.401 v 0 0 q -1.104,0 -2.595,0.667 v 0 l -0.832,-1.697 v 0 q 1.59,-0.832 3.526,-0.832 v 0 0 q 1.854,0 2.842,0.808 v 0 0 q 0.989,0.807 0.989,2.455 v 0 z M 12.357,17.516 h 3.139 v 0 Q 14.285,13.62 14.133,13.109 v 0 0 Q 13.98,12.598 13.915,12.301 v 0 0 q -0.272,1.055 -1.558,5.215 z m 7.374,5.009 h -2.752 l -0.873,-2.867 h -4.391 l -0.873,2.867 H 8.09 l 4.251,-12.094 h 3.122 z"
       style="fill:url(#_lgradient_49);fill-rule:evenodd"
       inkscape:connector-curvature="0" />
  </g>
</svg>
