<?xml version="1.0" encoding="UTF-8" standalone="no"?>
<!-- Generator: Gravit.io -->

<svg
   xmlns:dc="http://purl.org/dc/elements/1.1/"
   xmlns:cc="http://creativecommons.org/ns#"
   xmlns:rdf="http://www.w3.org/1999/02/22-rdf-syntax-ns#"
   xmlns:svg="http://www.w3.org/2000/svg"
   xmlns="http://www.w3.org/2000/svg"
   xmlns:sodipodi="http://sodipodi.sourceforge.net/DTD/sodipodi-0.dtd"
   xmlns:inkscape="http://www.inkscape.org/namespaces/inkscape"
   style="isolation:isolate"
   viewBox="0 0 36 36"
   width="48"
   height="48"
   version="1.1"
   id="svg30"
   sodipodi:docname="freecad.svg"
   inkscape:version="0.92.4 (5da689c313, 2019-01-14)">
  <metadata
     id="metadata36">
    <rdf:RDF>
      <cc:Work
         rdf:about="">
        <dc:format>image/svg+xml</dc:format>
        <dc:type
           rdf:resource="http://purl.org/dc/dcmitype/StillImage" />
        <dc:title></dc:title>
      </cc:Work>
    </rdf:RDF>
  </metadata>
  <defs
     id="defs34" />
  <sodipodi:namedview
     pagecolor="#ffffff"
     bordercolor="#666666"
     borderopacity="1"
     objecttolerance="10"
     gridtolerance="10"
     guidetolerance="10"
     inkscape:pageopacity="0"
     inkscape:pageshadow="2"
     inkscape:window-width="640"
     inkscape:window-height="480"
     id="namedview32"
     showgrid="false"
     inkscape:zoom="29.365243"
     inkscape:cx="25.325443"
     inkscape:cy="32"
     inkscape:current-layer="svg30"
     units="px" />
  <linearGradient
     id="_lgradient_26"
     x1="-0.014458464"
     y1="0.009839246"
     x2="1.0164566"
     y2="1.072293"
     gradientTransform="matrix(44,0,0,44,2,2)"
     gradientUnits="userSpaceOnUse">
    <stop
       offset="0%"
       stop-opacity="1"
       style="stop-color:rgb(249,212,35)"
       id="stop2" />
    <stop
       offset="51.56237565086822%"
       stop-opacity="1"
       style="stop-color:rgb(255,78,80)"
       id="stop4" />
    <stop
       offset="99.1304347826087%"
       stop-opacity="1"
       style="stop-color:rgb(138,35,135)"
       id="stop6" />
  </linearGradient>
  <linearGradient
     id="_lgradient_27"
     x1="0"
     y1="0.5"
     x2="0.90748805"
     y2="0.92007786"
     gradientTransform="matrix(10.9,0,0,11,29.798,29.5)"
     gradientUnits="userSpaceOnUse">
    <stop
       offset="0%"
       stop-opacity="1"
       style="stop-color:rgb(0,196,255)"
       id="stop11" />
    <stop
       offset="83.88839793817618%"
       stop-opacity="1"
       style="stop-color:rgb(0,114,255)"
       id="stop13" />
  </linearGradient>
  <linearGradient
     id="_lgradient_28"
     x1="0"
     y1="0.5"
     x2="0.90748805"
     y2="0.92007786"
     gradientTransform="matrix(20,0,0,20,25.248,25)"
     gradientUnits="userSpaceOnUse">
    <stop
       offset="0%"
       stop-opacity="1"
       style="stop-color:rgb(0,196,255)"
       id="stop18" />
    <stop
       offset="83.88839793817618%"
       stop-opacity="1"
       style="stop-color:rgb(0,114,255)"
       id="stop20" />
  </linearGradient>
  <linearGradient
     id="_lgradient_29"
     x1="24.748672"
     y1="34.999649"
     x2="43.805729"
     y2="43.821194"
     gradientTransform="scale(0.99998993,1.0000101)"
     gradientUnits="userSpaceOnUse">
    <stop
       offset="0%"
       stop-opacity="1"
       style="stop-color:rgb(0,196,255)"
       id="stop23" />
    <stop
       offset="83.88839793817618%"
       stop-opacity="1"
       style="stop-color:rgb(0,114,255)"
       id="stop25" />
  </linearGradient>
  <g
     id="g846"
     transform="matrix(0.81818182,0,0,0.81818182,-1.6363637,-1.6363637)">
    <path
       id="path9"
       d="m 21,42 v 0 c 1.104,0 2,0.896 2,2 v 0 c 0,1.104 -0.896,2 -2,2 v 0 H 7 C 4.24,46 2,43.76 2,41 v -15 0 c 0,-1.104 0.896,-2 2,-2 v 0 c 1.104,0 2,0.896 2,2 v 0 13 c 0,1.656 1.344,3 3,3 z M 6,16 v 0 c 0,1.104 -0.896,2 -2,2 v 0 C 2.896,18 2,17.104 2,16 V 16 7 C 2,4.24 4.24,2 7,2 h 34 c 2.76,0 5,2.24 5,5 v 13 0 c 0,1.104 -0.896,2 -2,2 v 0 c -1.104,0 -2,-0.896 -2,-2 V 20 9 C 42,7.344 40.656,6 39,6 H 9 C 7.344,6 6,7.344 6,9 Z m 10,-5 h 16 v 6 H 20 v 5 h 5.999 v 4 H 20 v 11 h -4 z"
       inkscape:connector-curvature="0"
       style="fill:url(#_lgradient_26);fill-rule:evenodd" />
    <path
       id="path16"
       d="m 33.874,29.5 -0.121,1.449 c -0.459,0.17 -0.886,0.417 -1.263,0.73 l -1.316,-0.62 -1.375,2.382 1.195,0.83 c -0.043,0.24 -0.065,0.484 -0.066,0.729 0,0.245 0.021,0.49 0.063,0.732 l -1.193,0.827 1.375,2.382 1.314,-0.619 c 0.378,0.312 0.806,0.558 1.266,0.726 l 0.12,1.452 h 2.75 l 0.121,-1.449 c 0.459,-0.17 0.886,-0.417 1.263,-0.73 l 1.316,0.62 1.375,-2.382 -1.195,-0.83 c 0.042,-0.24 0.065,-0.484 0.066,-0.729 0,-0.245 -0.021,-0.49 -0.063,-0.732 l 1.192,-0.827 -1.375,-2.381 -1.313,0.618 c -0.378,-0.311 -0.806,-0.556 -1.266,-0.724 l -0.121,-1.452 h -2.75 z m 1.375,3.928 c 0.417,0 0.817,0.166 1.111,0.46 0.295,0.295 0.461,0.695 0.461,1.112 0,0.416 -0.166,0.816 -0.461,1.111 -0.294,0.294 -0.694,0.46 -1.111,0.46 -0.417,0 -0.816,-0.166 -1.111,-0.46 -0.295,-0.295 -0.46,-0.695 -0.46,-1.111 0,-0.417 0.165,-0.817 0.46,-1.112 0.295,-0.294 0.694,-0.46 1.111,-0.46 z"
       inkscape:connector-curvature="0"
       style="fill:url(#_lgradient_27)" />
    <path
       id="path28"
       stroke-miterlimit="3"
       d="m 27.067,34.391 v 0 c -0.038,0.499 -0.475,0.875 -0.976,0.839 v 0 c -0.501,-0.037 -0.878,-0.474 -0.84,-0.975 v 0 c 0.187,-2.514 1.32,-4.869 3.172,-6.587 C 30.275,25.955 32.71,25 35.236,25 c 2.653,0 5.202,1.055 7.081,2.927 1.876,1.878 2.931,4.423 2.931,7.073 0,2.65 -1.055,5.195 -2.931,7.073 C 40.438,43.945 37.889,45 35.236,45 v 0 c -0.502,0 -0.91,-0.407 -0.91,-0.909 v 0 c 0,-0.502 0.408,-0.909 0.91,-0.909 v 0 c 2.171,0 4.255,-0.864 5.794,-2.396 1.533,-1.536 2.398,-3.618 2.398,-5.786 0,-2.168 -0.865,-4.25 -2.398,-5.786 -1.539,-1.532 -3.623,-2.396 -5.794,-2.396 -2.066,0 -4.06,0.777 -5.575,2.182 -1.516,1.405 -2.439,3.332 -2.594,5.391 z m 4.36,7.854 v 0 c 0.444,0.234 0.616,0.784 0.382,1.228 v 0 c -0.234,0.444 -0.784,0.615 -1.229,0.382 v 0 c -1.893,-0.996 -3.422,-2.573 -4.355,-4.496 v 0 c -0.221,-0.451 -0.034,-0.996 0.419,-1.216 v 0 c 0.452,-0.219 0.998,-0.031 1.219,0.421 v 0 c 0.765,1.577 2.012,2.863 3.564,3.681 z"
       inkscape:connector-curvature="0"
       style="vector-effect:non-scaling-stroke;fill:url(#_lgradient_28);fill-rule:evenodd;stroke:url(#_lgradient_29);stroke-width:1;stroke-linecap:square;stroke-linejoin:miter;stroke-miterlimit:3" />
  </g>
</svg>
