<?xml version="1.0" encoding="UTF-8" standalone="no"?>
<!-- Generator: Gravit.io -->

<svg
   xmlns:dc="http://purl.org/dc/elements/1.1/"
   xmlns:cc="http://creativecommons.org/ns#"
   xmlns:rdf="http://www.w3.org/1999/02/22-rdf-syntax-ns#"
   xmlns:svg="http://www.w3.org/2000/svg"
   xmlns="http://www.w3.org/2000/svg"
   xmlns:sodipodi="http://sodipodi.sourceforge.net/DTD/sodipodi-0.dtd"
   xmlns:inkscape="http://www.inkscape.org/namespaces/inkscape"
   style="isolation:isolate"
   viewBox="0 0 36 36"
   width="48"
   height="48"
   version="1.1"
   id="svg9"
   sodipodi:docname="fritzing.svg"
   inkscape:version="0.92.4 (5da689c313, 2019-01-14)">
  <metadata
     id="metadata15">
    <rdf:RDF>
      <cc:Work
         rdf:about="">
        <dc:format>image/svg+xml</dc:format>
        <dc:type
           rdf:resource="http://purl.org/dc/dcmitype/StillImage" />
        <dc:title></dc:title>
      </cc:Work>
    </rdf:RDF>
  </metadata>
  <defs
     id="defs13" />
  <sodipodi:namedview
     pagecolor="#ffffff"
     bordercolor="#666666"
     borderopacity="1"
     objecttolerance="10"
     gridtolerance="10"
     guidetolerance="10"
     inkscape:pageopacity="0"
     inkscape:pageshadow="2"
     inkscape:window-width="640"
     inkscape:window-height="480"
     id="namedview11"
     showgrid="false"
     inkscape:zoom="29.365243"
     inkscape:cx="25.325443"
     inkscape:cy="32"
     inkscape:current-layer="svg9"
     units="px" />
  <linearGradient
     id="_lgradient_25"
     x1="0"
     y1="0.5"
     x2="1"
     y2="0.5"
     gradientTransform="matrix(46,0,0,46,1,1)"
     gradientUnits="userSpaceOnUse">
    <stop
       offset="0%"
       stop-opacity="1"
       style="stop-color:rgb(255,224,49)"
       id="stop2" />
    <stop
       offset="98.69565217391305%"
       stop-opacity="1"
       style="stop-color:rgb(252,82,82)"
       id="stop4" />
  </linearGradient>
  <g
     id="g826"
     transform="matrix(0.78260833,0,0,0.78260833,-0.78260842,-0.78259992)">
    <path
       id="path7"
       d="m 20.5,33.333 c 0,-0.412 0.163,-0.809 0.459,-1.096 0.288,-0.296 0.684,-0.459 1.097,-0.459 v 0 c 0.412,0 0.808,0.163 1.096,0.459 0.296,0.287 0.459,0.684 0.459,1.096 0,0.413 -0.163,0.809 -0.459,1.097 -0.288,0.296 -0.684,0.459 -1.096,0.459 -0.413,0 -0.809,-0.163 -1.097,-0.459 C 20.663,34.142 20.5,33.746 20.5,33.333 Z M 42.818,22.599 v 0 c 0.086,1.148 1.092,2.013 2.245,1.929 v 0 c 1.152,-0.084 2.018,-1.089 1.931,-2.243 v 0 C 46.565,16.504 43.958,11.089 39.698,7.137 35.438,3.195 29.838,1 24.028,1 17.926,1 12.064,3.425 7.741,7.733 3.428,12.05 1,17.905 1,24 1,30.095 3.428,35.95 7.741,40.267 12.064,44.575 17.926,47 24.028,47 v 0 c 1.156,0 2.094,-0.937 2.094,-2.091 v 0 c 0,-1.154 -0.938,-2.091 -2.094,-2.091 v 0 c -4.993,0 -9.787,-1.986 -13.325,-5.509 C 7.176,33.775 5.187,28.987 5.187,24 c 0,-4.987 1.989,-9.775 5.516,-13.309 3.538,-3.523 8.332,-5.509 13.325,-5.509 4.753,0 9.337,1.788 12.823,5.018 3.486,3.23 5.611,7.663 5.967,12.399 z M 20.5,28.933 v -7.266 h -2.434 c -0.803,0 -1.455,-0.652 -1.455,-1.455 v -0.201 c 0,-0.803 0.652,-1.455 1.455,-1.455 H 20.5 V 15.444 C 20.5,12.44 22.94,10 25.944,10 h 3.889 v 0 c 0.859,0 1.556,0.697 1.556,1.556 v 0 c 0,0.858 -0.697,1.555 -1.556,1.555 v 0 h -3.111 c -1.717,0 -3.111,1.394 -3.111,3.111 v 2.334 h 2.434 c 0.803,0 1.455,0.652 1.455,1.455 v 0.201 c 0,0.803 -0.652,1.455 -1.455,1.455 h -2.434 v 7.266 c 0.65,0.23 1.248,0.604 1.742,1.103 0.879,0.871 1.369,2.061 1.369,3.297 0,1.237 -0.49,2.427 -1.369,3.298 C 24.482,37.51 23.292,38 22.056,38 20.819,38 19.629,37.51 18.758,36.631 17.879,35.76 17.389,34.57 17.389,33.333 v 0 c 0,-1.236 0.49,-2.426 1.369,-3.297 0.494,-0.499 1.092,-0.873 1.742,-1.103 z m 12.29,11.732 v 0 c -1.023,0.536 -1.417,1.801 -0.88,2.822 v 0 c 0.538,1.022 1.804,1.415 2.827,0.878 v 0 c 4.354,-2.289 7.871,-5.917 10.017,-10.339 v 0 c 0.508,-1.039 0.077,-2.292 -0.963,-2.797 v 0 c -1.04,-0.505 -2.297,-0.071 -2.805,0.967 v 0 c -1.759,3.628 -4.627,6.587 -8.196,8.469 z"
       style="fill:url(#_lgradient_25);fill-rule:evenodd"
       inkscape:connector-curvature="0" />
  </g>
</svg>
