<?xml version="1.0" encoding="UTF-8" standalone="no"?>
<!-- Generator: Gravit.io -->

<svg
   xmlns:dc="http://purl.org/dc/elements/1.1/"
   xmlns:cc="http://creativecommons.org/ns#"
   xmlns:rdf="http://www.w3.org/1999/02/22-rdf-syntax-ns#"
   xmlns:svg="http://www.w3.org/2000/svg"
   xmlns="http://www.w3.org/2000/svg"
   xmlns:sodipodi="http://sodipodi.sourceforge.net/DTD/sodipodi-0.dtd"
   xmlns:inkscape="http://www.inkscape.org/namespaces/inkscape"
   style="isolation:isolate"
   viewBox="0 0 36 36"
   width="48"
   height="48"
   version="1.1"
   id="svg28"
   sodipodi:docname="geany.svg"
   inkscape:version="0.92.4 (5da689c313, 2019-01-14)">
  <metadata
     id="metadata34">
    <rdf:RDF>
      <cc:Work
         rdf:about="">
        <dc:format>image/svg+xml</dc:format>
        <dc:type
           rdf:resource="http://purl.org/dc/dcmitype/StillImage" />
        <dc:title></dc:title>
      </cc:Work>
    </rdf:RDF>
  </metadata>
  <defs
     id="defs32" />
  <sodipodi:namedview
     pagecolor="#ffffff"
     bordercolor="#666666"
     borderopacity="1"
     objecttolerance="10"
     gridtolerance="10"
     guidetolerance="10"
     inkscape:pageopacity="0"
     inkscape:pageshadow="2"
     inkscape:window-width="640"
     inkscape:window-height="480"
     id="namedview30"
     showgrid="false"
     inkscape:zoom="29.365243"
     inkscape:cx="25.325443"
     inkscape:cy="32"
     inkscape:current-layer="svg28"
     units="px" />
  <linearGradient
     id="_lgradient_15"
     x1="0"
     y1="0.5"
     x2="1"
     y2="0.5"
     gradientTransform="matrix(46.987,0,0,30.8,0.507,8.6)"
     gradientUnits="userSpaceOnUse">
    <stop
       offset="0%"
       stop-opacity="1"
       style="stop-color:rgb(247,242,6)"
       id="stop2" />
    <stop
       offset="97.82608695652173%"
       stop-opacity="1"
       style="stop-color:rgb(255,187,36)"
       id="stop4" />
  </linearGradient>
  <linearGradient
     id="_lgradient_16"
     x1="0.0063853231"
     y1="29.49073"
     x2="39.06303"
     y2="29.49073"
     gradientTransform="scale(1.2285785,0.81394881)"
     gradientUnits="userSpaceOnUse">
    <stop
       offset="0%"
       stop-opacity="1"
       style="stop-color:rgb(247,242,6)"
       id="stop7" />
    <stop
       offset="97.82608695652173%"
       stop-opacity="1"
       style="stop-color:rgb(255,187,36)"
       id="stop9" />
  </linearGradient>
  <linearGradient
     id="_lgradient_17"
     x1="0"
     y1="0.5"
     x2="0.90748805"
     y2="0.92007786"
     gradientTransform="matrix(17,0,0,7.933,21,20)"
     gradientUnits="userSpaceOnUse">
    <stop
       offset="0%"
       stop-opacity="1"
       style="stop-color:rgb(255,65,108)"
       id="stop14" />
    <stop
       offset="84.34782608695653%"
       stop-opacity="1"
       style="stop-color:rgb(255,75,43)"
       id="stop16" />
  </linearGradient>
  <linearGradient
     id="_lgradient_18"
     x1="0"
     y1="0.5"
     x2="1"
     y2="0.5"
     gradientTransform="matrix(44,0,0,46,2,1)"
     gradientUnits="userSpaceOnUse">
    <stop
       offset="0%"
       stop-opacity="1"
       style="stop-color:rgb(247,242,6)"
       id="stop21" />
    <stop
       offset="97.82608695652173%"
       stop-opacity="1"
       style="stop-color:rgb(255,187,36)"
       id="stop23" />
  </linearGradient>
  <g
     id="g844"
     transform="matrix(0.75024766,0,0,0.75024766,-0.00588565,-0.00594384)">
    <path
       id="path12"
       stroke-miterlimit="4"
       d="m 25.484,13.882 c 0.286,-1.578 1.278,-2.571 2.453,-3.041 0.038,-0.011 0.074,-0.026 0.11,-0.041 0.508,-0.188 1.047,-0.28 1.576,-0.28 0.541,0 1.061,0.094 1.535,0.274 0.012,0.005 0.024,0.01 0.036,0.014 0.454,0.177 0.865,0.431 1.214,0.758 0.62,0.58 1.019,1.369 1.176,2.316 z m 8.912,23.601 H 23.883 v -3.308 h 10.513 z m 7.87,-10.497 c 0.335,-1.403 0.489,-2.963 0.449,-4.639 -0.025,-1.021 -0.183,-1.983 -0.454,-2.867 1.867,0.232 3.316,1.826 3.316,3.753 0,1.926 -1.447,3.519 -3.311,3.753 z M 41.792,17.533 H 41.414 C 40.142,15.371 38.035,13.997 35.521,13.89 35.341,12.386 34.728,11.111 33.718,10.166 33.352,9.824 32.943,9.536 32.501,9.302 30.437,8.355 28.524,8.377 26.699,9.304 c -0.461,0.239 -0.891,0.534 -1.277,0.885 -0.768,0.699 -1.664,1.893 -1.886,3.762 -1.872,0.283 -3.437,1.425 -3.963,2.971 -0.308,0.915 -0.814,1.5 -1.545,1.788 -1.295,0.51 -3.018,0.011 -4.101,-0.572 L 10.594,16.347 C 10.038,16.048 9.649,15.818 9.337,15.633 8.059,14.877 7.86,14.859 5.63,14.859 H 1.465 c -0.434,0 -0.814,0.292 -0.926,0.711 -0.112,0.419 0.072,0.861 0.448,1.078 l 3.277,1.887 4.767,4.61 c 0.38,0.369 0.987,0.358 1.355,-0.022 0.368,-0.38 0.358,-0.987 -0.023,-1.355 L 5.511,17.075 C 5.455,17.02 5.392,16.972 5.323,16.933 L 5.05,16.776 h 0.58 c 0.972,0 1.508,0 1.818,0.061 0.231,0.046 0.392,0.137 0.913,0.445 0.309,0.184 0.734,0.435 1.325,0.753 l 3.333,1.791 c 1.513,0.815 3.808,1.417 5.712,0.667 1.252,-0.494 2.172,-1.517 2.657,-2.956 0.343,-1.007 1.627,-1.739 3.054,-1.739 h 10.763 c 3.149,0 5.501,2.774 5.594,6.595 0.046,1.957 -0.193,3.717 -0.692,5.194 -0.021,0.047 -0.038,0.097 -0.051,0.149 -0.416,1.175 -1,2.164 -1.739,2.92 -1.038,1.064 -2.313,1.603 -3.791,1.603 H 23.75 c -2.536,0 -4.05,-1.464 -5.968,-3.316 l -1.203,-1.129 c -0.38,-0.368 -0.987,-0.358 -1.355,0.023 -0.368,0.38 -0.358,0.987 0.023,1.355 l 1.203,1.129 c 1.654,1.597 3.233,3.122 5.517,3.655 v 4.466 c 0,0.529 0.429,0.958 0.958,0.958 h 12.429 c 0.53,0 0.959,-0.429 0.959,-0.958 v -4.483 c 1.269,-0.317 2.416,-0.981 3.375,-1.963 0.808,-0.828 1.464,-1.862 1.956,-3.062 h 0.148 c 3.144,0 5.701,-2.558 5.701,-5.701 0,-3.143 -2.557,-5.7 -5.701,-5.7 z m -29.539,8.45 c 0,-0.295 0.24,-0.534 0.534,-0.534 0.295,0 0.534,0.239 0.534,0.534 0,0.294 -0.239,0.533 -0.534,0.533 -0.294,0 -0.534,-0.239 -0.534,-0.533 z"
       style="vector-effect:non-scaling-stroke;fill:url(#_lgradient_15);fill-rule:evenodd;stroke:url(#_lgradient_16);stroke-width:0.99800003;stroke-linecap:butt;stroke-linejoin:miter;stroke-miterlimit:4"
       inkscape:connector-curvature="0" />
    <path
       id="path19"
       d="M 23.833,22.267 21,25.1 23.833,27.933 26.667,25.1 Z M 29.5,20 l -2.833,2.833 2.833,2.834 2.833,-2.834 z m 5.667,2.267 -2.834,2.833 2.834,2.833 L 38,25.1 Z"
       style="fill:url(#_lgradient_17);fill-rule:evenodd"
       inkscape:connector-curvature="0" />
    <path
       id="path26"
       d="m 6,9 v 0 c 0,1.104 -0.896,2 -2,2 v 0 C 2.896,11 2,10.104 2,9 V 9 6 C 2,3.24 4.24,1 7,1 h 34 c 2.76,0 5,2.24 5,5 v 5 0 c 0,1.104 -0.896,2 -2,2 v 0 c -1.104,0 -2,-0.896 -2,-2 V 11 8 C 42,6.344 40.656,5 39,5 H 9 C 7.344,5 6,6.344 6,8 Z m 36,26 v 0 c 0,-1.104 0.896,-2 2,-2 v 0 c 1.104,0 2,0.896 2,2 v 0 7 c 0,2.76 -2.24,5 -5,5 H 7 C 4.24,47 2,44.76 2,42 v -13 0 c 0,-1.104 0.896,-2 2,-2 v 0 c 1.104,0 2,0.896 2,2 v 0 11 c 0,1.656 1.344,3 3,3 h 30 c 1.656,0 3,-1.344 3,-3 z"
       style="fill:url(#_lgradient_18);fill-rule:evenodd"
       inkscape:connector-curvature="0" />
  </g>
</svg>
