<?xml version="1.0" encoding="UTF-8" standalone="no"?>
<!-- Generator: Gravit.io -->

<svg
   xmlns:dc="http://purl.org/dc/elements/1.1/"
   xmlns:cc="http://creativecommons.org/ns#"
   xmlns:rdf="http://www.w3.org/1999/02/22-rdf-syntax-ns#"
   xmlns:svg="http://www.w3.org/2000/svg"
   xmlns="http://www.w3.org/2000/svg"
   xmlns:sodipodi="http://sodipodi.sourceforge.net/DTD/sodipodi-0.dtd"
   xmlns:inkscape="http://www.inkscape.org/namespaces/inkscape"
   style="isolation:isolate"
   viewBox="0 0 36 36"
   width="48"
   height="48"
   version="1.1"
   id="svg9"
   sodipodi:docname="github-desktop.svg"
   inkscape:version="0.92.4 (5da689c313, 2019-01-14)">
  <metadata
     id="metadata15">
    <rdf:RDF>
      <cc:Work
         rdf:about="">
        <dc:format>image/svg+xml</dc:format>
        <dc:type
           rdf:resource="http://purl.org/dc/dcmitype/StillImage" />
        <dc:title></dc:title>
      </cc:Work>
    </rdf:RDF>
  </metadata>
  <defs
     id="defs13" />
  <sodipodi:namedview
     pagecolor="#ffffff"
     bordercolor="#666666"
     borderopacity="1"
     objecttolerance="10"
     gridtolerance="10"
     guidetolerance="10"
     inkscape:pageopacity="0"
     inkscape:pageshadow="2"
     inkscape:window-width="640"
     inkscape:window-height="480"
     id="namedview11"
     showgrid="false"
     inkscape:zoom="29.365243"
     inkscape:cx="25.325443"
     inkscape:cy="32"
     inkscape:current-layer="svg9"
     units="px" />
  <linearGradient
     id="_lgradient_7"
     x1="0.67180997"
     y1="0.020570019"
     x2="0.42214948"
     y2="0.96016449"
     gradientTransform="matrix(47,0,0,47.058,0.5,0.471)"
     gradientUnits="userSpaceOnUse">
    <stop
       offset="0%"
       stop-opacity="1"
       style="stop-color:rgb(26,108,255)"
       id="stop2" />
    <stop
       offset="100%"
       stop-opacity="1"
       style="stop-color:rgb(197,34,255)"
       id="stop4" />
  </linearGradient>
  <g
     id="g826"
     transform="matrix(0.76501339,0,0,0.76501339,-0.36030612,-0.36032136)">
    <path
       id="path7"
       d="m 30.003,42.269 c 2.832,-0.925 5.434,-2.512 7.583,-4.654 C 41.19,34 43.222,29.102 43.222,24 43.222,18.898 41.19,14 37.586,10.385 33.971,6.781 29.072,4.749 23.971,4.749 v 0 c -1.181,0 -2.139,-0.958 -2.139,-2.139 v 0 c 0,-1.181 0.958,-2.139 2.139,-2.139 v 0 c 6.235,0 12.224,2.481 16.641,6.888 4.407,4.417 6.888,10.406 6.888,16.641 0,6.235 -2.481,12.224 -6.888,16.641 -4.417,4.407 -10.406,6.888 -16.641,6.888 -5.936,0 -11.658,-2.246 -16.01,-6.278 C 3.608,37.208 0.945,31.668 0.506,25.754 v 0 C 0.418,24.573 1.302,23.545 2.479,23.46 v 0 c 1.178,-0.086 2.206,0.798 2.294,1.973 v 0 0 c 0.364,4.845 2.535,9.38 6.097,12.684 2.574,2.39 5.736,4.007 9.127,4.711 -0.001,-1.471 -0.003,-2.749 -0.005,-3.119 -5.265,1.178 -6.16,-2.615 -6.16,-2.615 -0.861,-2.253 -2.102,-2.854 -2.102,-2.854 -1.718,-1.209 0.129,-1.185 0.129,-1.185 1.9,0.137 2.901,2.011 2.901,2.011 1.688,2.98 4.191,2.121 5.269,1.622 0.172,-1.26 0.501,-2.123 1.041,-2.61 C 16.867,33.586 13,31.912 13,24.439 c 0,-2.128 0.186,-3.87 1.396,-5.232 -0.195,-0.493 -0.847,-2.476 0.184,-5.16 1.81,-0.085 3.409,1.896 5.02,2.654 1.731,-0.504 3.772,-0.715 5.341,-0.701 1.587,0.014 3.699,0.259 5.159,0.701 1.218,-0.855 3.081,-2.766 5.06,-2.697 l 0.305,0.043 c 1.033,2.684 0.381,4.667 0.187,5.16 1.213,1.362 1.348,3.104 1.348,5.232 0,7.493 -4.126,9.143 -8.342,9.625 0.679,0.603 1.352,1.793 1.352,3.612 0,0.802 -0.004,2.605 -0.007,4.593 z M 15.019,6.952 v 0 c 1.045,-0.549 1.448,-1.843 0.899,-2.888 v 0 C 15.369,3.02 14.075,2.617 13.03,3.166 v 0 C 8.581,5.508 4.987,9.219 2.795,13.743 v 0 c -0.52,1.063 -0.079,2.345 0.984,2.861 v 0 c 1.062,0.517 2.347,0.074 2.866,-0.989 v 0 c 1.797,-3.711 4.727,-6.738 8.374,-8.663 z"
       style="fill:url(#_lgradient_7);fill-rule:evenodd"
       inkscape:connector-curvature="0" />
  </g>
</svg>
