<?xml version="1.0" encoding="UTF-8" standalone="no"?>
<!-- Generator: Gravit.io -->

<svg
   xmlns:dc="http://purl.org/dc/elements/1.1/"
   xmlns:cc="http://creativecommons.org/ns#"
   xmlns:rdf="http://www.w3.org/1999/02/22-rdf-syntax-ns#"
   xmlns:svg="http://www.w3.org/2000/svg"
   xmlns="http://www.w3.org/2000/svg"
   xmlns:sodipodi="http://sodipodi.sourceforge.net/DTD/sodipodi-0.dtd"
   xmlns:inkscape="http://www.inkscape.org/namespaces/inkscape"
   style="isolation:isolate"
   viewBox="0 0 36 36"
   width="48"
   height="48"
   version="1.1"
   id="svg9"
   sodipodi:docname="gitkraken.svg"
   inkscape:version="0.92.4 (5da689c313, 2019-01-14)">
  <metadata
     id="metadata15">
    <rdf:RDF>
      <cc:Work
         rdf:about="">
        <dc:format>image/svg+xml</dc:format>
        <dc:type
           rdf:resource="http://purl.org/dc/dcmitype/StillImage" />
        <dc:title></dc:title>
      </cc:Work>
    </rdf:RDF>
  </metadata>
  <defs
     id="defs13" />
  <sodipodi:namedview
     pagecolor="#ffffff"
     bordercolor="#666666"
     borderopacity="1"
     objecttolerance="10"
     gridtolerance="10"
     guidetolerance="10"
     inkscape:pageopacity="0"
     inkscape:pageshadow="2"
     inkscape:window-width="640"
     inkscape:window-height="480"
     id="namedview11"
     showgrid="false"
     inkscape:zoom="29.365243"
     inkscape:cx="25.325443"
     inkscape:cy="32"
     inkscape:current-layer="svg9"
     units="px" />
  <linearGradient
     id="_lgradient_10"
     x1="0"
     y1="0.5"
     x2="1"
     y2="0.5"
     gradientTransform="scale(48,47.249)"
     gradientUnits="userSpaceOnUse">
    <stop
       offset="0%"
       stop-opacity="1"
       style="stop-color:rgb(0,255,169)"
       id="stop2" />
    <stop
       offset="100%"
       stop-opacity="1"
       style="stop-color:rgb(240,116,179)"
       id="stop4" />
  </linearGradient>
  <g
     id="g826"
     transform="matrix(0.75,0,0,0.75,0,0.28155109)">
    <path
       id="path7"
       d="m 20.813,27.015 c 0.586,0 1.062,0.518 1.062,1.158 0,0.639 -0.476,1.158 -1.062,1.158 -0.587,0 -1.063,-0.519 -1.063,-1.158 0,-0.64 0.476,-1.158 1.063,-1.158 z m 6.375,0 c 0.586,0 1.062,0.518 1.062,1.158 0,0.639 -0.476,1.158 -1.062,1.158 -0.587,0 -1.063,-0.519 -1.063,-1.158 0,-0.64 0.476,-1.158 1.063,-1.158 z m -10e-4,8.872 c 2.522,-1.091 5.473,-3.399 6.949,-5.514 1.7,-2.42 2.614,-5.385 2.614,-8.431 0,-4.771 -2.263,-9.229 -5.982,-11.765 v 0 c -0.492,-0.339 -1.147,-0.176 -1.461,0.364 v 0 c -0.314,0.54 -0.164,1.254 0.335,1.593 v 0 0 c 3.092,2.119 4.983,5.836 4.983,9.82 0,2.536 -0.765,5.003 -2.178,7.018 -1.072,1.529 -2.469,2.738 -4.059,3.525 q 0.413,-1.096 0.924,-2.745 c 0.734,-0.772 0.775,-1.939 0.025,-2.82 l -0.419,-0.491 0.143,-0.9 c 0.212,-1.341 0.72,-2.349 1.471,-2.918 0.339,-0.257 0.683,-0.551 0.764,-0.656 0.182,-0.235 0.191,-1.411 0.017,-2.088 -0.478,-1.856 -2.981,-5.809 -4.829,-7.625 -1.05,-1.031 -1.873,-1.5 -2.667,-1.447 -0.477,0.032 -0.942,0.252 -1.442,0.651 -0.668,0.533 -2.38,2.492 -3.19,3.651 -1.729,2.475 -2.622,4.475 -2.622,5.864 0,0.922 0.075,1.07 0.807,1.599 0.809,0.587 1.278,1.445 1.523,2.798 l 0.195,1.082 -0.307,0.3 c -0.505,0.497 -0.717,1.053 -0.655,1.728 0.041,0.464 0.26,0.922 0.562,1.269 q 0.512,1.652 0.925,2.75 v 0 0 c -1.519,-0.75 -2.866,-1.884 -3.922,-3.319 -1.498,-2.061 -2.316,-4.609 -2.316,-7.226 0,-3.961 1.859,-7.643 4.909,-9.774 v 0 c 0.492,-0.339 0.638,-1.052 0.324,-1.592 v 0 c -0.314,-0.54 -0.969,-0.699 -1.461,-0.354 v 0 c -3.666,2.548 -5.897,6.972 -5.897,11.708 0,3.162 0.978,6.219 2.784,8.674 1.583,2.162 4.243,4.35 6.779,5.326 v 1.081 C 14.001,35.394 9.141,28.826 9.125,21.225 9.127,19.656 9.338,18.095 9.338,18.095 9.567,17.266 9.259,16.592 8.653,16.592 v 0 c -0.607,0 -1.262,0.678 -1.462,1.513 0,0 -0.186,1.556 -0.191,3.12 0.003,9.781 6.981,17.874 15.938,18.486 v -8.184 c 0.366,0.062 0.729,0.111 1.084,0.12 0.369,-0.016 0.705,-0.065 1.041,-0.113 v 8.161 C 34.013,39.084 40.989,30.999 41,21.225 40.993,19.661 40.804,18.104 40.804,18.104 40.602,17.27 39.946,16.592 39.34,16.592 v 0 c -0.606,0 -0.912,0.674 -0.682,1.503 0,0 0.213,1.56 0.217,3.13 -0.01,7.607 -4.871,14.184 -11.688,15.814 z M 18.81,43.32 v 0 c 1.065,0.287 1.697,1.385 1.41,2.45 v 0 c -0.287,1.065 -1.385,1.697 -2.45,1.41 v 0 C 12.67,45.81 8.16,42.79 4.95,38.6 1.74,34.41 0,29.28 0,24 0,17.64 2.53,11.53 7.03,7.03 11.53,2.53 17.64,0 24,0 30.36,0 36.47,2.53 40.97,7.03 45.47,11.53 48,17.64 48,24 c 0,5.26 -1.73,10.37 -4.91,14.55 -3.19,4.18 -7.66,7.2 -12.73,8.6 v 0 c -1.065,0.293 -2.167,-0.335 -2.46,-1.4 v 0 c -0.293,-1.065 0.335,-2.167 1.4,-2.46 v 0 C 33.52,42.13 37.25,39.61 39.91,36.13 42.56,32.64 44,28.38 44,24 44,18.7 41.89,13.61 38.14,9.86 34.39,6.11 29.3,4 24,4 18.7,4 13.61,6.11 9.86,9.86 6.11,13.61 4,18.7 4,24 c 0,4.4 1.45,8.68 4.13,12.17 2.67,3.49 6.43,6.01 10.68,7.15 z"
       style="fill:url(#_lgradient_10);fill-rule:evenodd"
       inkscape:connector-curvature="0" />
  </g>
</svg>
