<?xml version="1.0" encoding="UTF-8" standalone="no"?>
<!-- Generator: Gravit.io -->

<svg
   xmlns:dc="http://purl.org/dc/elements/1.1/"
   xmlns:cc="http://creativecommons.org/ns#"
   xmlns:rdf="http://www.w3.org/1999/02/22-rdf-syntax-ns#"
   xmlns:svg="http://www.w3.org/2000/svg"
   xmlns="http://www.w3.org/2000/svg"
   xmlns:sodipodi="http://sodipodi.sourceforge.net/DTD/sodipodi-0.dtd"
   xmlns:inkscape="http://www.inkscape.org/namespaces/inkscape"
   style="isolation:isolate"
   viewBox="0 0 36 36"
   width="48"
   height="48"
   version="1.1"
   id="svg16"
   sodipodi:docname="gnome-mpv.svg"
   inkscape:version="0.92.4 (5da689c313, 2019-01-14)">
  <metadata
     id="metadata22">
    <rdf:RDF>
      <cc:Work
         rdf:about="">
        <dc:format>image/svg+xml</dc:format>
        <dc:type
           rdf:resource="http://purl.org/dc/dcmitype/StillImage" />
        <dc:title></dc:title>
      </cc:Work>
    </rdf:RDF>
  </metadata>
  <defs
     id="defs20" />
  <sodipodi:namedview
     pagecolor="#ffffff"
     bordercolor="#666666"
     borderopacity="1"
     objecttolerance="10"
     gridtolerance="10"
     guidetolerance="10"
     inkscape:pageopacity="0"
     inkscape:pageshadow="2"
     inkscape:window-width="640"
     inkscape:window-height="480"
     id="namedview18"
     showgrid="false"
     inkscape:zoom="29.365243"
     inkscape:cx="25.325443"
     inkscape:cy="32"
     inkscape:current-layer="svg16"
     units="px" />
  <linearGradient
     id="_lgradient_7"
     x1="0.41703096"
     y1="0.019248826"
     x2="0.67953813"
     y2="0.96413201"
     gradientTransform="matrix(45.5,0,0,37.5,1.25,5.25)"
     gradientUnits="userSpaceOnUse">
    <stop
       offset="28.000000000000004%"
       stop-opacity="1"
       style="stop-color:rgb(0,205,215)"
       id="stop2" />
    <stop
       offset="94%"
       stop-opacity="1"
       style="stop-color:rgb(32,134,215)"
       id="stop4" />
  </linearGradient>
  <linearGradient
     id="_lgradient_8"
     x1="0.41703096"
     y1="0.019248826"
     x2="0.67953813"
     y2="0.96413201"
     gradientTransform="matrix(26,0,0,37.5,11.5,5.25)"
     gradientUnits="userSpaceOnUse">
    <stop
       offset="28.000000000000004%"
       stop-opacity="1"
       style="stop-color:rgb(0,205,215)"
       id="stop9" />
    <stop
       offset="94%"
       stop-opacity="1"
       style="stop-color:rgb(32,134,215)"
       id="stop11" />
  </linearGradient>
  <g
     id="g831"
     transform="matrix(0.79120879,0,0,0.79120879,-0.98901096,-0.98901096)">
    <path
       id="path7"
       d="m 4.75,31 v -6 0 H 12 V 22 H 4.75 V 16 H 12 V 13 H 4.75 v 0 -2.25 c 0,-1.104 0.896,-2 2,-2 H 27 v 0 c 0.966,0 1.75,-0.784 1.75,-1.75 V 7 C 28.75,6.034 27.966,5.25 27,5.25 v 0 H 5.25 c -2.208,0 -4,1.792 -4,4 v 29.5 c 0,2.208 1.792,4 4,4 H 11 11.5 l 1.25,-3.5 H 11 v 0 H 6.75 c -1.104,0 -2,-0.896 -2,-2 V 34 H 12 v -3 z m 38.5,3 v 3.25 c 0,1.104 -0.896,2 -2,2 H 21 v 0 c -0.966,0 -1.75,0.784 -1.75,1.75 v 0 c 0,0.966 0.784,1.75 1.75,1.75 v 0 h 21.75 c 2.208,0 4,-1.792 4,-4 V 9.25 c 0,-2.208 -1.792,-4 -4,-4 H 37.5 v 0 l -2.25,3.5 H 37 41.25 c 1.104,0 2,0.896 2,2 V 13 H 36 v 3 h 7.25 v 6 H 36 v 3 h 7.25 v 6 H 36 v 3 z M 27.3,24 19.5,29.2 V 18.8 Z m 5.4,0 -16.2,10.8 V 13.2 Z"
       inkscape:connector-curvature="0"
       style="fill:url(#_lgradient_7);fill-rule:evenodd" />
    <path
       id="path14"
       d="m 14.5,41 v 0 c 0,0.966 -1.344,1.75 -3,1.75 v 0 V 41 9 7.5 h 3 V 9 Z m 23,-2 v 1.5 h -3 V 39 7 7 c 0,-0.966 1.344,-1.75 3,-1.75 v 0 V 7 Z"
       inkscape:connector-curvature="0"
       style="fill:url(#_lgradient_8);fill-rule:evenodd" />
  </g>
</svg>
