<?xml version="1.0" encoding="UTF-8" standalone="no"?>
<!-- Generator: Gravit.io -->

<svg
   xmlns:dc="http://purl.org/dc/elements/1.1/"
   xmlns:cc="http://creativecommons.org/ns#"
   xmlns:rdf="http://www.w3.org/1999/02/22-rdf-syntax-ns#"
   xmlns:svg="http://www.w3.org/2000/svg"
   xmlns="http://www.w3.org/2000/svg"
   xmlns:sodipodi="http://sodipodi.sourceforge.net/DTD/sodipodi-0.dtd"
   xmlns:inkscape="http://www.inkscape.org/namespaces/inkscape"
   style="isolation:isolate"
   viewBox="0 0 36 36"
   width="48"
   height="48"
   version="1.1"
   id="svg16"
   sodipodi:docname="godot.svg"
   inkscape:version="0.92.4 (5da689c313, 2019-01-14)">
  <metadata
     id="metadata22">
    <rdf:RDF>
      <cc:Work
         rdf:about="">
        <dc:format>image/svg+xml</dc:format>
        <dc:type
           rdf:resource="http://purl.org/dc/dcmitype/StillImage" />
        <dc:title></dc:title>
      </cc:Work>
    </rdf:RDF>
  </metadata>
  <defs
     id="defs20" />
  <sodipodi:namedview
     pagecolor="#ffffff"
     bordercolor="#666666"
     borderopacity="1"
     objecttolerance="10"
     gridtolerance="10"
     guidetolerance="10"
     inkscape:pageopacity="0"
     inkscape:pageshadow="2"
     inkscape:window-width="640"
     inkscape:window-height="480"
     id="namedview18"
     showgrid="false"
     inkscape:zoom="29.365243"
     inkscape:cx="25.325443"
     inkscape:cy="32"
     inkscape:current-layer="svg16"
     units="px" />
  <linearGradient
     id="_lgradient_13"
     x1="0"
     y1="0.5"
     x2="0.90748805"
     y2="0.92007786"
     gradientTransform="matrix(35.07,0,0,6.2,4.33,30.53)"
     gradientUnits="userSpaceOnUse">
    <stop
       offset="2.1739130434782608%"
       stop-opacity="1"
       style="stop-color:rgb(0,177,255)"
       id="stop2" />
    <stop
       offset="83.88839793817618%"
       stop-opacity="1"
       style="stop-color:rgb(0,114,255)"
       id="stop4" />
  </linearGradient>
  <linearGradient
     id="_lgradient_14"
     x1="0"
     y1="0.5"
     x2="0.90748805"
     y2="0.92007786"
     gradientTransform="matrix(46.4,0,0,42.837,0.8,2.582)"
     gradientUnits="userSpaceOnUse">
    <stop
       offset="0%"
       stop-opacity="1"
       style="stop-color:rgb(0,196,255)"
       id="stop9" />
    <stop
       offset="83.88839793817618%"
       stop-opacity="1"
       style="stop-color:rgb(0,114,255)"
       id="stop11" />
  </linearGradient>
  <g
     id="g831"
     transform="matrix(0.77587043,0,0,0.77587043,-0.62089032,-0.62064782)">
    <path
       id="path7"
       d="m 37.9,30.53 h 1.5 v 3 h -1.5 -0.64 v 3.2 H 26.78 v -3.2 h -5.56 v 3.2 H 10.74 v -3.2 H 5.83 4.33 v -3 h 1.5 7.91 v 3.2 h 4.48 v -3.2 h 11.56 v 3.2 h 4.48 v -3.2 z"
       style="fill:url(#_lgradient_13)"
       inkscape:connector-curvature="0" />
    <path
       id="path14"
       d="m 12.777,23.476 c 0,-0.59 0.479,-1.069 1.069,-1.069 0.59,0 1.069,0.479 1.069,1.069 0,0.59 -0.479,1.069 -1.069,1.069 -0.59,0 -1.069,-0.479 -1.069,-1.069 z m 20.308,0 c 0,-0.59 0.479,-1.069 1.069,-1.069 0.59,0 1.069,0.479 1.069,1.069 0,0.59 -0.479,1.069 -1.069,1.069 -0.59,0 -1.069,-0.479 -1.069,-1.069 z m -9.619,-1.069 h 1.068 v 4.275 h -1.068 z m -12.292,1.069 c 0,-0.706 0.278,-1.39 0.78,-1.892 0.502,-0.502 1.186,-0.78 1.892,-0.78 0.705,0 1.389,0.278 1.892,0.78 0.502,0.502 0.78,1.186 0.78,1.892 0,0.705 -0.278,1.389 -0.78,1.892 -0.503,0.502 -1.187,0.78 -1.892,0.78 -0.706,0 -1.39,-0.278 -1.892,-0.78 -0.502,-0.503 -0.78,-1.187 -0.78,-1.892 z m 20.308,0 c 0,-0.706 0.278,-1.39 0.78,-1.892 0.503,-0.502 1.187,-0.78 1.892,-0.78 0.706,0 1.39,0.278 1.892,0.78 0.502,0.502 0.78,1.186 0.78,1.892 0,0.705 -0.278,1.389 -0.78,1.892 -0.502,0.502 -1.186,0.78 -1.892,0.78 -0.705,0 -1.389,-0.278 -1.892,-0.78 -0.502,-0.503 -0.78,-1.187 -0.78,-1.892 z m -8.016,-3.207 h 1.068 c 1.18,0 2.138,0.958 2.138,2.138 v 4.275 c 0,1.18 -0.958,2.138 -2.138,2.138 h -1.068 c -1.18,0 -2.138,-0.958 -2.138,-2.138 v -4.275 c 0,-1.18 0.958,-2.138 2.138,-2.138 z m -14.43,3.207 c 0,-1.272 0.502,-2.501 1.411,-3.399 0.898,-0.909 2.127,-1.411 3.399,-1.411 1.272,0 2.501,0.502 3.399,1.411 0.908,0.898 1.411,2.127 1.411,3.399 0,1.272 -0.503,2.501 -1.411,3.399 -0.898,0.908 -2.127,1.411 -3.399,1.411 -1.272,0 -2.501,-0.503 -3.399,-1.411 C 9.538,25.977 9.036,24.748 9.036,23.476 Z m 20.308,0 c 0,-1.272 0.503,-2.501 1.411,-3.399 0.898,-0.909 2.127,-1.411 3.399,-1.411 1.272,0 2.501,0.502 3.399,1.411 0.909,0.898 1.411,2.127 1.411,3.399 0,1.272 -0.502,2.501 -1.411,3.399 -0.898,0.908 -2.127,1.411 -3.399,1.411 -1.272,0 -2.501,-0.503 -3.399,-1.411 -0.908,-0.898 -1.411,-2.127 -1.411,-3.399 z M 7.433,25.614 v 0 c 0,0.884 -0.719,1.603 -1.603,1.603 v 0 c -0.885,0 -1.604,-0.719 -1.604,-1.603 v 0 -4.682 L 1.113,17.819 c -0.417,-0.418 -0.417,-1.095 0,-1.512 l 6.098,-6.099 c 0.418,-0.417 1.095,-0.417 1.512,0 l 1.767,1.767 3.121,-1.251 -0.859,-4.296 C 12.636,5.85 12.987,5.203 13.535,4.984 l 5.806,-2.318 c 0.548,-0.219 1.259,0.002 1.586,0.493 l 1.79,2.681 h 2.566 l 1.79,-2.681 C 27.4,2.668 28.111,2.447 28.659,2.666 l 5.806,2.318 c 0.548,0.219 0.899,0.866 0.783,1.444 l -0.859,4.296 3.121,1.251 1.767,-1.767 c 0.417,-0.417 1.094,-0.417 1.512,0 l 6.098,6.099 c 0.417,0.417 0.417,1.094 0,1.512 l -3.113,3.113 v 13.232 c 0,0.15 -0.022,0.3 -0.064,0.449 -0.246,0.866 -0.588,1.71 -1.005,2.512 -0.406,0.78 -0.898,1.507 -1.454,2.17 -0.566,0.695 -1.208,1.315 -1.913,1.87 -0.77,0.599 -1.593,1.133 -2.458,1.582 -0.374,0.193 -0.749,0.364 -1.123,0.535 -0.406,0.171 -0.823,0.331 -1.24,0.481 -1.304,0.47 -2.65,0.823 -4.018,1.058 -1.775,0.299 -3.56,0.491 -5.366,0.566 -2.416,0.096 -4.853,-0.032 -7.247,-0.374 -1.817,-0.267 -3.58,-0.769 -5.269,-1.486 C 11.708,43.132 10.832,42.672 9.998,42.138 9.207,41.636 8.47,41.069 7.786,40.438 7.112,39.808 6.492,39.124 5.936,38.397 5.359,37.627 4.846,36.815 4.408,35.971 4.29,35.746 4.226,35.49 4.226,35.233 v -2.137 -1.604 h 3.207 v 1.604 1.731 c 0.31,0.567 0.673,1.112 1.058,1.635 0.438,0.578 0.93,1.123 1.475,1.614 0.545,0.513 1.133,0.962 1.753,1.358 0.684,0.438 1.411,0.823 2.159,1.143 1.432,0.61 2.929,1.037 4.468,1.262 2.202,0.32 4.436,0.438 6.659,0.342 1.656,-0.064 3.313,-0.246 4.959,-0.524 1.176,-0.203 2.341,-0.513 3.474,-0.909 0.353,-0.128 0.705,-0.267 1.047,-0.416 0.31,-0.129 0.62,-0.278 0.92,-0.428 0.684,-0.363 1.336,-0.78 1.956,-1.261 0.523,-0.417 1.004,-0.887 1.432,-1.4 0.406,-0.492 0.769,-1.026 1.069,-1.604 0.288,-0.545 0.523,-1.122 0.705,-1.71 V 19.607 l 2.544,-2.544 -3.078,-3.079 -1.753,1.753 -7.568,-3.024 1.069,-5.345 -2.896,-1.165 -1.892,2.843 h -5.986 l -1.892,-2.843 -2.896,1.165 1.069,5.345 -7.568,3.024 -1.753,-1.753 -3.078,3.079 2.544,2.544 z"
       style="fill:url(#_lgradient_14);fill-rule:evenodd"
       inkscape:connector-curvature="0" />
  </g>
</svg>
