<?xml version="1.0" encoding="UTF-8" standalone="no"?>
<!-- Generator: Gravit.io -->

<svg
   xmlns:dc="http://purl.org/dc/elements/1.1/"
   xmlns:cc="http://creativecommons.org/ns#"
   xmlns:rdf="http://www.w3.org/1999/02/22-rdf-syntax-ns#"
   xmlns:svg="http://www.w3.org/2000/svg"
   xmlns="http://www.w3.org/2000/svg"
   xmlns:sodipodi="http://sodipodi.sourceforge.net/DTD/sodipodi-0.dtd"
   xmlns:inkscape="http://www.inkscape.org/namespaces/inkscape"
   style="isolation:isolate"
   viewBox="0 0 36 36"
   width="48"
   height="48"
   version="1.1"
   id="svg30"
   sodipodi:docname="goland.svg"
   inkscape:version="0.92.4 (5da689c313, 2019-01-14)">
  <metadata
     id="metadata36">
    <rdf:RDF>
      <cc:Work
         rdf:about="">
        <dc:format>image/svg+xml</dc:format>
        <dc:type
           rdf:resource="http://purl.org/dc/dcmitype/StillImage" />
        <dc:title></dc:title>
      </cc:Work>
    </rdf:RDF>
  </metadata>
  <defs
     id="defs34" />
  <sodipodi:namedview
     pagecolor="#ffffff"
     bordercolor="#666666"
     borderopacity="1"
     objecttolerance="10"
     gridtolerance="10"
     guidetolerance="10"
     inkscape:pageopacity="0"
     inkscape:pageshadow="2"
     inkscape:window-width="640"
     inkscape:window-height="480"
     id="namedview32"
     showgrid="false"
     inkscape:zoom="29.365243"
     inkscape:cx="25.325443"
     inkscape:cy="32"
     inkscape:current-layer="svg30"
     units="px" />
  <linearGradient
     id="_lgradient_57"
     x1="0.83536583"
     y1="0.0049999999"
     x2="0.58824003"
     y2="1.0536784"
     gradientTransform="matrix(25.46,0,0,30.4,22.31,18.28)"
     gradientUnits="userSpaceOnUse">
    <stop
       offset="0%"
       stop-opacity="1"
       style="stop-color:rgb(52,148,230)"
       id="stop2" />
    <stop
       offset="98.69565217391305%"
       stop-opacity="1"
       style="stop-color:rgb(236,110,173)"
       id="stop4" />
  </linearGradient>
  <linearGradient
     id="_lgradient_58"
     x1="0.67180997"
     y1="0.020570019"
     x2="0.73800904"
     y2="0.87405372"
     gradientTransform="matrix(33.67,0,0,47.5,-0.31,1)"
     gradientUnits="userSpaceOnUse">
    <stop
       offset="0%"
       stop-opacity="1"
       style="stop-color:rgb(26,108,255)"
       id="stop9" />
    <stop
       offset="98.26086956521739%"
       stop-opacity="1"
       style="stop-color:rgb(179,76,243)"
       id="stop11" />
  </linearGradient>
  <linearGradient
     id="_lgradient_59"
     x1="0.39980158"
     y1="0.20242152"
     x2="0.36506835"
     y2="1.1185315"
     gradientTransform="matrix(13.47,0,0,16.64,36,9.28)"
     gradientUnits="userSpaceOnUse">
    <stop
       offset="0%"
       stop-opacity="1"
       style="stop-color:rgb(67,233,123)"
       id="stop16" />
    <stop
       offset="97.82608695652173%"
       stop-opacity="1"
       style="stop-color:rgb(56,249,215)"
       id="stop18" />
  </linearGradient>
  <linearGradient
     id="_lgradient_60"
     x1="0.061897106"
     y1="0.14716151"
     x2="1.0166036"
     y2="1.2739059"
     gradientTransform="matrix(29,0,0,29,9.5,9.5)"
     gradientUnits="userSpaceOnUse">
    <stop
       offset="0%"
       stop-opacity="1"
       style="stop-color:rgb(22,181,228)"
       id="stop23" />
    <stop
       offset="98.26086956521739%"
       stop-opacity="1"
       style="stop-color:rgb(245,32,250)"
       id="stop25" />
  </linearGradient>
  <g
     id="g847"
     transform="matrix(0.723182,0,0,0.723182,0.22418644,0.03615912)">
    <path
       id="path7"
       d="m 39.25,21.96 -0.97,-1.75 3.51,-1.93 0.96,1.76 5.02,9.14 -10.15,19.5 -13.53,-6.9 -1.78,-0.91 1.82,-3.56 1.78,0.91 10,5.1 7.32,-14.09 z"
       style="fill:url(#_lgradient_57)"
       inkscape:connector-curvature="0" />
    <path
       id="path14"
       d="M 21.91,39.88 23.33,38.47 29.36,38 24.74,42.71 18.95,48.5 -0.31,37.27 5.58,28.07 0.14,20.63 10.71,1 h 18.65 l 3.27,8.27 0.73,1.86 -3.72,0.892 L 28.91,10.73 26.64,5 H 13.1 l -8.24,15.31 5.56,7.62 -5.11,7.99 12.99,7.58 z"
       style="fill:url(#_lgradient_58)"
       inkscape:connector-curvature="0" />
    <path
       id="path21"
       d="M 39.67,14.39 37.69,14.61 37.24,10.64 39.23,10.42 49.47,9.28 39.79,24.24 38.7,25.92 36,22.635 37.24,21 41.53,14.19 Z"
       style="fill:url(#_lgradient_59)"
       inkscape:connector-curvature="0" />
    <path
       id="path28"
       d="m 35.978,31.218 v 0 c 0,-0.695 0.565,-1.26 1.261,-1.26 v 0 c 0.696,0 1.261,0.565 1.261,1.26 v 0 4.13 c 0,1.74 -1.412,3.152 -3.152,3.152 H 12.652 C 10.912,38.5 9.5,37.088 9.5,35.348 v -11.978 0 c 0,-0.696 0.565,-1.261 1.261,-1.261 v 0 c 0.696,0 1.261,0.565 1.261,1.261 v 0 10.717 c 0,1.044 0.847,1.891 1.891,1.891 h 20.174 c 1.044,0 1.891,-0.847 1.891,-1.891 z M 12.022,16.782 v 0 c 0,0.695 -0.565,1.26 -1.261,1.26 v 0 c -0.696,0 -1.261,-0.565 -1.261,-1.26 v 0 -4.13 C 9.5,10.912 10.912,9.5 12.652,9.5 h 22.696 c 1.74,0 3.152,1.412 3.152,3.152 v 12.495 0 c 0,0.696 -0.565,1.261 -1.261,1.261 v 0 c -0.696,0 -1.261,-0.565 -1.261,-1.261 v 0 -11.234 c 0,-1.044 -0.847,-1.891 -1.891,-1.891 H 13.913 c -1.044,0 -1.891,0.847 -1.891,1.891 z m 6.494,4.448 v -1.821 h 4.094 v 5.35 0 q -0.995,0.325 -1.874,0.456 v 0 0 q -0.879,0.13 -1.796,0.13 v 0 0 q -2.337,0 -3.568,-1.373 v 0 0 Q 14.14,22.599 14.14,20.03 v 0 0 q 0,-2.499 1.429,-3.896 v 0 0 q 1.43,-1.398 3.964,-1.398 v 0 0 q 1.588,0 3.063,0.636 v 0 l -0.727,1.75 v 0 Q 20.74,16.557 19.518,16.557 v 0 0 q -1.418,0 -2.272,0.953 v 0 0 q -0.854,0.953 -0.854,2.563 v 0 0 q 0,1.679 0.688,2.565 v 0 0 q 0.688,0.886 2.001,0.886 v 0 0 q 0.684,0 1.39,-0.141 v 0 -2.153 z m 7.663,-1.2 v 0 0 q 0,1.729 0.656,2.605 v 0 0 q 0.657,0.875 1.962,0.875 v 0 0 q 2.619,0 2.619,-3.48 v 0 0 q 0,-3.487 -2.604,-3.487 v 0 0 q -1.306,0 -1.97,0.879 v 0 0 q -0.663,0.879 -0.663,2.608 z m 7.531,0 v 0 0 q 0,2.562 -1.27,3.939 v 0 0 q -1.271,1.376 -3.643,1.376 v 0 0 q -2.371,0 -3.642,-1.376 v 0 0 q -1.27,-1.377 -1.27,-3.953 v 0 0 q 0,-2.576 1.274,-3.935 v 0 0 q 1.274,-1.359 3.653,-1.359 v 0 0 q 2.378,0 3.638,1.37 v 0 0 q 1.26,1.369 1.26,3.938 z M 14,30.5 h 9 V 33 h -9 z"
       style="fill:url(#_lgradient_60);fill-rule:evenodd"
       inkscape:connector-curvature="0" />
  </g>
</svg>
