<?xml version="1.0" encoding="UTF-8" standalone="no"?>
<!-- Generator: Gravit.io -->

<svg
   xmlns:dc="http://purl.org/dc/elements/1.1/"
   xmlns:cc="http://creativecommons.org/ns#"
   xmlns:rdf="http://www.w3.org/1999/02/22-rdf-syntax-ns#"
   xmlns:svg="http://www.w3.org/2000/svg"
   xmlns="http://www.w3.org/2000/svg"
   xmlns:sodipodi="http://sodipodi.sourceforge.net/DTD/sodipodi-0.dtd"
   xmlns:inkscape="http://www.inkscape.org/namespaces/inkscape"
   style="isolation:isolate"
   viewBox="0 0 36 36"
   width="48"
   height="48"
   version="1.1"
   id="svg11"
   sodipodi:docname="google-chrome.svg"
   inkscape:version="0.92.4 (5da689c313, 2019-01-14)">
  <metadata
     id="metadata17">
    <rdf:RDF>
      <cc:Work
         rdf:about="">
        <dc:format>image/svg+xml</dc:format>
        <dc:type
           rdf:resource="http://purl.org/dc/dcmitype/StillImage" />
        <dc:title></dc:title>
      </cc:Work>
    </rdf:RDF>
  </metadata>
  <defs
     id="defs15" />
  <sodipodi:namedview
     pagecolor="#ffffff"
     bordercolor="#666666"
     borderopacity="1"
     objecttolerance="10"
     gridtolerance="10"
     guidetolerance="10"
     inkscape:pageopacity="0"
     inkscape:pageshadow="2"
     inkscape:window-width="640"
     inkscape:window-height="480"
     id="namedview13"
     showgrid="false"
     inkscape:zoom="29.365243"
     inkscape:cx="25.325443"
     inkscape:cy="32"
     inkscape:current-layer="svg11"
     units="px" />
  <linearGradient
     id="_lgradient_1"
     x1="0"
     y1="0.5"
     x2="1"
     y2="0.5"
     gradientTransform="matrix(48,0,0,48,0.066,-0.008)"
     gradientUnits="userSpaceOnUse">
    <stop
       offset="0.8695652173913043%"
       stop-opacity="1"
       style="stop-color:rgb(84,219,83)"
       id="stop2" />
    <stop
       offset="48.69565217391305%"
       stop-opacity="1"
       style="stop-color:rgb(255,220,50)"
       id="stop4" />
    <stop
       offset="100%"
       stop-opacity="1"
       style="stop-color:rgb(250,0,117)"
       id="stop6" />
  </linearGradient>
  <g
     id="g825"
     transform="matrix(0.75,0,0,0.75,-0.0495,0.006)">
    <path
       id="path9"
       d="m 41.037,7.021 c -4.533,-4.533 -10.56,-7.029 -16.971,-7.029 -6.41,0 -12.437,2.496 -16.97,7.029 -4.533,4.533 -7.03,10.56 -7.03,16.971 0,6.41 2.497,12.437 7.03,16.97 4.533,4.533 10.56,7.03 16.97,7.03 4.389,0 8.683,-1.196 12.419,-3.459 0.885,-0.537 1.169,-1.69 0.632,-2.575 -0.537,-0.886 -1.69,-1.169 -2.575,-0.633 -3.003,1.819 -6.435,2.821 -9.958,2.91 l 8.091,-14.582 c 1.076,-1.628 1.704,-3.579 1.704,-5.673 0,-2.485 -0.884,-4.768 -2.354,-6.551 h 11.2 c 0.707,2.059 1.091,4.267 1.091,6.563 0,3.992 -1.187,7.879 -3.433,11.239 -0.576,0.861 -0.345,2.025 0.516,2.601 0.861,0.575 2.026,0.344 2.601,-0.517 2.66,-3.979 4.066,-8.586 4.066,-13.323 0,-6.411 -2.496,-12.438 -7.029,-16.971 z M 3.816,23.992 c 0,-3.612 0.951,-7.006 2.615,-9.945 l 8.165,14.014 c 1.584,3.662 5.233,6.232 9.47,6.232 0.627,0 1.241,-0.056 1.836,-0.164 l -5.433,9.793 C 11.013,42.219 3.816,33.93 3.816,23.992 Z M 30.629,23.98 c 0,1.128 -0.286,2.19 -0.789,3.118 -0.072,0.087 -0.137,0.182 -0.194,0.285 l -0.178,0.321 c -1.185,1.714 -3.164,2.839 -5.402,2.839 -2.288,0 -4.306,-1.177 -5.481,-2.958 -0.042,-0.154 -0.105,-0.306 -0.189,-0.452 l -0.434,-0.744 c -0.295,-0.746 -0.458,-1.559 -0.458,-2.409 0,-3.618 2.944,-6.562 6.563,-6.562 0.025,0 0.051,0 0.077,0 0.067,0.007 0.135,0.011 0.204,0.011 h 0.108 c 3.438,0.202 6.173,3.063 6.173,6.551 z M 24.554,13.679 c -0.161,-0.007 -0.324,-0.011 -0.488,-0.011 -4.397,0 -8.161,2.767 -9.641,6.651 L 8.813,10.687 c 3.715,-4.254 9.176,-6.945 15.253,-6.945 7.403,0 13.891,3.992 17.423,9.937 z"
       style="fill:url(#_lgradient_1)"
       inkscape:connector-curvature="0" />
  </g>
</svg>
