<?xml version="1.0" encoding="UTF-8" standalone="no"?>
<!-- Generator: Gravit.io -->

<svg
   xmlns:dc="http://purl.org/dc/elements/1.1/"
   xmlns:cc="http://creativecommons.org/ns#"
   xmlns:rdf="http://www.w3.org/1999/02/22-rdf-syntax-ns#"
   xmlns:svg="http://www.w3.org/2000/svg"
   xmlns="http://www.w3.org/2000/svg"
   xmlns:sodipodi="http://sodipodi.sourceforge.net/DTD/sodipodi-0.dtd"
   xmlns:inkscape="http://www.inkscape.org/namespaces/inkscape"
   style="isolation:isolate"
   viewBox="0 0 36 36"
   width="48"
   height="48"
   version="1.1"
   id="svg9"
   sodipodi:docname="gufw.svg"
   inkscape:version="0.92.4 (5da689c313, 2019-01-14)">
  <metadata
     id="metadata15">
    <rdf:RDF>
      <cc:Work
         rdf:about="">
        <dc:format>image/svg+xml</dc:format>
        <dc:type
           rdf:resource="http://purl.org/dc/dcmitype/StillImage" />
        <dc:title></dc:title>
      </cc:Work>
    </rdf:RDF>
  </metadata>
  <defs
     id="defs13" />
  <sodipodi:namedview
     pagecolor="#ffffff"
     bordercolor="#666666"
     borderopacity="1"
     objecttolerance="10"
     gridtolerance="10"
     guidetolerance="10"
     inkscape:pageopacity="0"
     inkscape:pageshadow="2"
     inkscape:window-width="640"
     inkscape:window-height="480"
     id="namedview11"
     showgrid="false"
     inkscape:zoom="29.365243"
     inkscape:cx="25.325443"
     inkscape:cy="32"
     inkscape:current-layer="svg9"
     units="px" />
  <linearGradient
     id="_lgradient_1"
     x1="0"
     y1="0.5"
     x2="1"
     y2="0.5"
     gradientTransform="matrix(36,0,0,46.469,6,0.7)"
     gradientUnits="userSpaceOnUse">
    <stop
       offset="0%"
       stop-opacity="1"
       style="stop-color:rgb(0,255,169)"
       id="stop2" />
    <stop
       offset="100%"
       stop-opacity="1"
       style="stop-color:rgb(240,116,179)"
       id="stop4" />
  </linearGradient>
  <g
     id="g826"
     transform="matrix(0.77471039,0,0,0.77471039,-0.59304936,-0.54229729)">
    <path
       id="path7"
       d="m 37.1,25.37 v 0 c 0.348,-1.049 1.481,-1.618 2.53,-1.27 v 0 c 1.049,0.348 1.618,1.481 1.27,2.53 v 0 l -0.62,1.87 c 0,0 0,0.01 0,0.01 -0.69,2.04 -1.58,4 -2.66,5.85 -1.08,1.89 -2.33,3.69 -3.72,5.36 -1.32,1.6 -2.79,3.08 -4.4,4.39 -0.74,0.61 -1.52,1.17 -2.34,1.68 -0.76,0.48 -1.57,0.89 -2.41,1.23 -0.46,0.19 -0.98,0.2 -1.45,0.02 l -1.02,-0.38 c -0.01,0 -0.01,0 -0.02,0 -2.32,-0.9 -4.48,-2.18 -6.39,-3.78 C 13.91,41.25 12.19,39.36 10.75,37.27 9.29,35.18 8.13,32.9 7.29,30.5 6.46,28.15 6.02,25.68 6,23.19 6,23.18 6,23.18 6,23.17 V 11.11 C 6,8.902 7.398,7.15 9.12,7.2 v 0 c 2.29,-0.02 4.55,-0.48 6.67,-1.35 1.19,-0.49 2.34,-1.07 3.44,-1.74 1.63,-0.99 3.16,-2.14 4.58,-3.41 1.83,1.17 3.73,2.24 5.67,3.21 1.31,0.66 2.64,1.25 4.01,1.77 1.16,0.44 2.34,0.8 3.55,1.07 1,0.24 2.02,0.38 3.05,0.42 0.51,0.03 1,0.25 1.36,0.62 C 41.8,8.16 42,8.66 42,9.17 v 7 0 c 0,1.104 -0.896,2 -2,2 v 0 c -1.104,0 -2,-0.896 -2,-2 v 0 V 11 C 37.37,10.91 36.75,10.79 36.14,10.65 34.75,10.33 33.4,9.92 32.07,9.42 30.58,8.85 29.11,8.21 27.69,7.49 26.49,6.89 25.32,6.26 24.16,5.59 23.24,6.28 22.3,6.92 21.32,7.52 20.04,8.31 18.7,8.99 17.3,9.55 14.98,10.51 12.51,11.06 10,11.18 v 11.98 c 0.02,2.05 0.38,4.08 1.06,6.01 0.72,2.07 1.72,4.03 2.97,5.82 1.24,1.8 2.72,3.42 4.41,4.82 1.56,1.32 3.34,2.37 5.25,3.11 l 0.25,0.09 c 0.38,-0.18 0.75,-0.39 1.1,-0.61 0.67,-0.42 1.32,-0.88 1.93,-1.38 1.4,-1.15 2.69,-2.44 3.84,-3.85 1.25,-1.5 2.37,-3.11 3.35,-4.81 0.95,-1.62 1.73,-3.34 2.32,-5.12 z m -5.52,-0.84 v 0 c 0.259,-0.784 1.106,-1.209 1.89,-0.95 v 0 c 0.784,0.259 1.209,1.106 0.95,1.89 v 0 c -0.94,2.87 -2.32,4.58 -4.07,7.03 -1.82,2.52 -1.98,2.77 -4.42,4.68 v 0 c -0.651,0.513 -1.597,0.401 -2.11,-0.25 v 0 c -0.513,-0.651 -0.401,-1.597 0.25,-2.11 v 0 c 2.22,-1.74 2.19,-1.78 3.84,-4.07 1.58,-2.21 2.81,-3.64 3.67,-6.22 z M 15.5,24 v 0 c 0,0.828 -0.672,1.5 -1.5,1.5 v 0 c -0.828,0 -1.5,-0.672 -1.5,-1.5 v 0 -10 c 0,-0.36 0.13,-0.7 0.36,-0.97 0.23,-0.27 0.55,-0.45 0.9,-0.51 1.69,-0.27 3.35,-0.72 4.94,-1.35 1.57,-0.62 3.06,-1.42 4.43,-2.39 v 0 c 0.679,-0.48 1.618,-0.321 2.095,0.355 v 0 c 0.477,0.676 0.318,1.61 -0.355,2.085 v 0 c -1.58,1.12 -3.28,2.04 -5.07,2.74 -1.39,0.55 -2.83,0.98 -4.3,1.29 V 24 Z m 10,-0.066 v 0 c 0,0.828 -0.672,1.5 -1.5,1.5 v 0 c -0.828,0 -1.5,-0.672 -1.5,-1.5 v 0 -2 0 c 0,-0.827 0.672,-1.5 1.5,-1.5 v 0 c 0.828,0 1.5,0.673 1.5,1.5 v 0 z"
       style="fill:url(#_lgradient_1);fill-rule:evenodd"
       inkscape:connector-curvature="0" />
  </g>
</svg>
