<?xml version="1.0" encoding="UTF-8" standalone="no"?>
<!-- Generator: Gravit.io -->

<svg
   xmlns:dc="http://purl.org/dc/elements/1.1/"
   xmlns:cc="http://creativecommons.org/ns#"
   xmlns:rdf="http://www.w3.org/1999/02/22-rdf-syntax-ns#"
   xmlns:svg="http://www.w3.org/2000/svg"
   xmlns="http://www.w3.org/2000/svg"
   xmlns:sodipodi="http://sodipodi.sourceforge.net/DTD/sodipodi-0.dtd"
   xmlns:inkscape="http://www.inkscape.org/namespaces/inkscape"
   style="isolation:isolate"
   viewBox="0 0 36 36"
   width="48"
   height="48"
   version="1.1"
   id="svg16"
   sodipodi:docname="homebank.svg"
   inkscape:version="0.92.4 (5da689c313, 2019-01-14)">
  <metadata
     id="metadata22">
    <rdf:RDF>
      <cc:Work
         rdf:about="">
        <dc:format>image/svg+xml</dc:format>
        <dc:type
           rdf:resource="http://purl.org/dc/dcmitype/StillImage" />
        <dc:title></dc:title>
      </cc:Work>
    </rdf:RDF>
  </metadata>
  <defs
     id="defs20" />
  <sodipodi:namedview
     pagecolor="#ffffff"
     bordercolor="#666666"
     borderopacity="1"
     objecttolerance="10"
     gridtolerance="10"
     guidetolerance="10"
     inkscape:pageopacity="0"
     inkscape:pageshadow="2"
     inkscape:window-width="640"
     inkscape:window-height="480"
     id="namedview18"
     showgrid="false"
     inkscape:zoom="29.365243"
     inkscape:cx="25.325443"
     inkscape:cy="32"
     inkscape:current-layer="svg16"
     units="px" />
  <linearGradient
     id="_lgradient_70"
     x1="0"
     y1="0.5"
     x2="1"
     y2="0.5"
     gradientTransform="matrix(34.417,0,0,34.418,6.792,6.791)"
     gradientUnits="userSpaceOnUse">
    <stop
       offset="0%"
       stop-opacity="1"
       style="stop-color:rgb(117,127,154)"
       id="stop2" />
    <stop
       offset="98.69565217391305%"
       stop-opacity="1"
       style="stop-color:rgb(215,221,232)"
       id="stop4" />
  </linearGradient>
  <linearGradient
     id="_lgradient_71"
     x1="0"
     y1="0.5"
     x2="1"
     y2="0.5"
     gradientTransform="matrix(47.5,0,0,47.5,0.25,0.25)"
     gradientUnits="userSpaceOnUse">
    <stop
       offset="0%"
       stop-opacity="1"
       style="stop-color:rgb(247,242,6)"
       id="stop9" />
    <stop
       offset="97.82608695652173%"
       stop-opacity="1"
       style="stop-color:rgb(255,187,36)"
       id="stop11" />
  </linearGradient>
  <g
     id="g831"
     transform="matrix(0.75789403,0,0,0.75789403,-0.18943989,-0.18945672)">
    <path
       id="path7"
       d="m 30.567,24.33 h -0.821 v 6.389 H 26.87 V 25.93 h -5.297 v 4.789 H 18.762 V 24.33 h -1.178 l 6.627,-6.216 z m 0.507,10.672 v 0 c 0.96,-0.613 2.24,-0.333 2.857,0.627 v 0 c 0.617,0.959 0.338,2.235 -0.622,2.848 v 0 c -1.589,1.031 -3.347,1.778 -5.179,2.23 -4.424,1.094 -9.123,0.384 -13.024,-1.971 C 11.205,36.382 8.387,32.554 7.293,28.13 6.2,23.706 6.91,19.006 9.265,15.105 c 2.354,-3.9 6.182,-6.719 10.606,-7.812 4.424,-1.094 9.124,-0.384 13.024,1.971 3.901,2.354 6.719,6.182 7.813,10.606 0.32,1.297 0.494,2.629 0.5,3.975 v 0 c 0.016,1.139 -0.897,2.073 -2.037,2.085 v 0 c -1.14,0.012 -2.078,-0.903 -2.094,-2.042 v 0 c -0.01,-1.019 -0.134,-2.038 -0.379,-3.027 -0.832,-3.368 -2.969,-6.272 -5.936,-8.063 -2.967,-1.791 -6.532,-2.328 -9.9,-1.496 -3.368,0.833 -6.272,2.969 -8.063,5.936 -1.791,2.968 -2.329,6.533 -1.496,9.901 0.833,3.368 2.969,6.272 5.936,8.063 2.967,1.791 6.532,2.328 9.9,1.496 1.39,-0.344 2.724,-0.915 3.935,-1.696 z M 16.6,26.492 H 12.114 L 24.232,15.119 35.886,26.492 h -3.978 v 6.389 h -7.2 v -4.789 h -0.973 v 4.789 H 16.6 Z m 19.088,2.833 v 0 c 0.472,-1.033 1.699,-1.482 2.737,-1.003 v 0 c 1.038,0.479 1.491,1.708 1.011,2.742 v 0 c -0.305,0.657 -0.644,1.294 -1.033,1.901 v 0 c -0.605,0.971 -1.882,1.268 -2.85,0.662 v 0 c -0.968,-0.606 -1.261,-1.881 -0.654,-2.845 v 0 c 0.295,-0.47 0.56,-0.947 0.789,-1.457 z"
       style="fill:url(#_lgradient_70);fill-rule:evenodd"
       inkscape:connector-curvature="0" />
    <path
       id="path14"
       d="m 11.471,9.805 v 0 C 10.476,10.687 8.952,10.594 8.07,9.599 v 0 C 7.189,8.603 7.281,7.079 8.277,6.198 v 0 C 12.614,2.37 18.217,0.25 24,0.25 c 6.292,0 12.336,2.506 16.797,6.953 4.447,4.461 6.953,10.505 6.953,16.797 0,6.292 -2.506,12.336 -6.953,16.797 C 36.336,45.244 30.292,47.75 24,47.75 17.736,47.75 11.719,45.272 7.272,40.866 2.825,36.46 0.305,30.457 0.25,24.193 v 0 c -0.008,-1.33 1.066,-2.419 2.396,-2.43 v 0 c 1.329,-0.012 2.415,1.059 2.423,2.388 v 0 c 0.041,4.998 2.051,9.776 5.603,13.287 3.539,3.524 8.33,5.493 13.328,5.493 5.025,0 9.844,-1.996 13.383,-5.548 3.552,-3.539 5.548,-8.358 5.548,-13.383 0,-5.025 -1.996,-9.844 -5.548,-13.383 C 33.844,7.065 29.025,5.069 24,5.069 c -4.612,0 -9.073,1.693 -12.529,4.736 z m -5.177,7.49 v 0 C 5.823,18.541 4.429,19.17 3.183,18.699 v 0 C 1.936,18.228 1.307,16.834 1.778,15.588 v 0 c 0.345,-0.868 0.73,-1.735 1.157,-2.561 v 0 C 3.55,11.841 5.009,11.382 6.191,12.001 v 0 c 1.182,0.619 1.635,2.078 1.012,3.256 v 0 c -0.344,0.661 -0.647,1.35 -0.909,2.038 z"
       style="fill:url(#_lgradient_71);fill-rule:evenodd"
       inkscape:connector-curvature="0" />
  </g>
</svg>
