<?xml version="1.0" encoding="UTF-8" standalone="no"?>
<!-- Generator: Gravit.io -->

<svg
   xmlns:dc="http://purl.org/dc/elements/1.1/"
   xmlns:cc="http://creativecommons.org/ns#"
   xmlns:rdf="http://www.w3.org/1999/02/22-rdf-syntax-ns#"
   xmlns:svg="http://www.w3.org/2000/svg"
   xmlns="http://www.w3.org/2000/svg"
   xmlns:sodipodi="http://sodipodi.sourceforge.net/DTD/sodipodi-0.dtd"
   xmlns:inkscape="http://www.inkscape.org/namespaces/inkscape"
   style="isolation:isolate"
   viewBox="0 0 36 36"
   width="48"
   height="48"
   version="1.1"
   id="svg9"
   sodipodi:docname="hp_logo.svg"
   inkscape:version="0.92.4 (5da689c313, 2019-01-14)">
  <metadata
     id="metadata15">
    <rdf:RDF>
      <cc:Work
         rdf:about="">
        <dc:format>image/svg+xml</dc:format>
        <dc:type
           rdf:resource="http://purl.org/dc/dcmitype/StillImage" />
        <dc:title></dc:title>
      </cc:Work>
    </rdf:RDF>
  </metadata>
  <defs
     id="defs13" />
  <sodipodi:namedview
     pagecolor="#ffffff"
     bordercolor="#666666"
     borderopacity="1"
     objecttolerance="10"
     gridtolerance="10"
     guidetolerance="10"
     inkscape:pageopacity="0"
     inkscape:pageshadow="2"
     inkscape:window-width="640"
     inkscape:window-height="480"
     id="namedview11"
     showgrid="false"
     inkscape:zoom="29.365243"
     inkscape:cx="25.325443"
     inkscape:cy="32"
     inkscape:current-layer="svg9"
     units="px" />
  <linearGradient
     id="_lgradient_18"
     x1="0"
     y1="0.5"
     x2="0.90748805"
     y2="0.92007786"
     gradientTransform="matrix(47,0,0,47.02,0.5,0.49)"
     gradientUnits="userSpaceOnUse">
    <stop
       offset="0%"
       stop-opacity="1"
       style="stop-color:rgb(0,196,255)"
       id="stop2" />
    <stop
       offset="83.88839793817618%"
       stop-opacity="1"
       style="stop-color:rgb(0,114,255)"
       id="stop4" />
  </linearGradient>
  <g
     id="g826"
     transform="matrix(0.76563165,0,0,0.76563165,-0.3751596,-0.3751596)">
    <path
       id="path7"
       d="m 17,46.01 c 3.235,-8.997 8.421,-21.945 11.569,-30.777 0.032,-0.066 0.053,-0.234 0.084,-0.302 v 0 0 -0.002 c 2.07,0.022 4.194,0.04 6.264,0.043 0.677,0.015 1.34,-0.075 2,0.131 0.759,0.206 1.463,0.794 1.694,1.567 0.174,0.604 0.042,1.242 -0.174,1.824 -1.319,3.85 -2.68,7.647 -4.041,11.479 -0.341,0.999 -1.888,1.615 -2.913,1.651 -1.616,0.032 -3.219,0.015 -4.832,0.047 -1.295,3.61 -3.181,7.944 -4.61,11.73 0.651,0.077 1.306,0.109 1.959,0.109 5.17,0 10.13,-2.06 13.79,-5.71 3.65,-3.66 5.71,-8.62 5.71,-13.79 0,-4.16 -1.33,-8.22 -3.8,-11.57 C 37.24,9.09 33.76,6.62 29.79,5.38 v 0 C 28.736,5.054 28.144,3.934 28.47,2.88 v 0 c 0.326,-1.054 1.446,-1.646 2.5,-1.32 v 0 c 4.79,1.49 8.98,4.47 11.95,8.51 2.98,4.04 4.58,8.93 4.58,13.94 0,6.23 -2.48,12.21 -6.88,16.62 -4.41,4.4 -10.39,6.88 -16.62,6.88 -1.4,0 -2.8,-0.12 -4.18,-0.37 C 18.672,46.921 17.742,46.554 17,46.01 Z M 17.728,5.556 C 14.82,13.894 11.901,22.981 9,31.019 c 0.216,0.063 0.429,0.037 0.653,0.041 1.229,-0.008 2.464,0.003 3.697,0 0.167,0 0.146,-0.242 0.217,-0.348 1.482,-4.183 2.987,-8.344 4.477,-12.523 0.089,-0.259 0.187,-0.536 0.304,-0.784 0.773,0.015 1.536,-0.011 2.305,0 -1.616,4.534 -3.227,9.095 -4.871,13.614 0.173,0.067 0.345,0.037 0.525,0.041 1.291,-0.011 2.577,0.018 3.868,0 1.46,-4.119 2.969,-8.231 4.437,-12.351 0.312,-0.84 0.357,-1.917 -0.176,-2.607 -1.13,-1.465 -3.639,-1.709 -5.261,-1.77 1.183,-3.351 2.41,-6.466 3.611,-9.892 v 0 0 L 24,0.49 C 22.824,0.513 21.584,0.607 20.31,0.8 14.78,1.68 9.75,4.5 6.12,8.75 2.49,13.01 0.5,18.42 0.5,24.01 c 0,7.56 3.66,14.68 9.8,19.09 v 0 c 0.894,0.646 2.144,0.442 2.79,-0.455 v 0 c 0.646,-0.897 0.44,-2.149 -0.46,-2.795 v 0 C 7.54,36.19 4.5,30.29 4.5,24.01 4.5,19.37 6.15,14.88 9.16,11.35 11.457,8.665 14.42,6.668 17.728,5.556 Z m 14.818,11.802 c 0.065,0.007 0.131,0.017 0.195,0.008 0.599,0.011 1.188,-0.014 1.783,0 -1.389,3.967 -2.803,7.936 -4.172,11.915 -0.776,0.053 -1.574,0.003 -2.351,0 1.414,-3.943 2.808,-7.883 4.219,-11.833 0.031,-0.035 0.088,-0.075 0.13,-0.086 v 0.004 c 0.064,-0.019 0.13,-0.015 0.196,-0.008 z"
       inkscape:connector-curvature="0"
       style="fill:url(#_lgradient_18);fill-rule:evenodd" />
  </g>
</svg>
