<?xml version="1.0" encoding="UTF-8" standalone="no"?>
<!-- Generator: Gravit.io -->

<svg
   xmlns:dc="http://purl.org/dc/elements/1.1/"
   xmlns:cc="http://creativecommons.org/ns#"
   xmlns:rdf="http://www.w3.org/1999/02/22-rdf-syntax-ns#"
   xmlns:svg="http://www.w3.org/2000/svg"
   xmlns="http://www.w3.org/2000/svg"
   xmlns:sodipodi="http://sodipodi.sourceforge.net/DTD/sodipodi-0.dtd"
   xmlns:inkscape="http://www.inkscape.org/namespaces/inkscape"
   style="isolation:isolate"
   viewBox="0 0 36 36"
   width="48"
   height="48"
   version="1.1"
   id="svg11"
   sodipodi:docname="image-loading.svg"
   inkscape:version="0.92.4 (5da689c313, 2019-01-14)">
  <metadata
     id="metadata17">
    <rdf:RDF>
      <cc:Work
         rdf:about="">
        <dc:format>image/svg+xml</dc:format>
        <dc:type
           rdf:resource="http://purl.org/dc/dcmitype/StillImage" />
        <dc:title></dc:title>
      </cc:Work>
    </rdf:RDF>
  </metadata>
  <defs
     id="defs15" />
  <sodipodi:namedview
     pagecolor="#ffffff"
     bordercolor="#666666"
     borderopacity="1"
     objecttolerance="10"
     gridtolerance="10"
     guidetolerance="10"
     inkscape:pageopacity="0"
     inkscape:pageshadow="2"
     inkscape:window-width="640"
     inkscape:window-height="480"
     id="namedview13"
     showgrid="false"
     inkscape:zoom="29.365243"
     inkscape:cx="25.325443"
     inkscape:cy="32"
     inkscape:current-layer="svg11"
     units="px" />
  <linearGradient
     id="_lgradient_15"
     x1="-0.014458464"
     y1="0.009839246"
     x2="1.0164566"
     y2="1.072293"
     gradientTransform="matrix(43,0,0,39.775,2.5,4.112)"
     gradientUnits="userSpaceOnUse">
    <stop
       offset="1.3043478260869565%"
       stop-opacity="1"
       style="stop-color:rgb(254,172,94)"
       id="stop2" />
    <stop
       offset="53.04347826086957%"
       stop-opacity="1"
       style="stop-color:rgb(199,121,208)"
       id="stop4" />
    <stop
       offset="99.56521739130434%"
       stop-opacity="1"
       style="stop-color:rgb(75,192,200)"
       id="stop6" />
  </linearGradient>
  <g
     id="g825"
     transform="matrix(0.8372093,0,0,0.8372093,-2.0930232,-2.0930232)">
    <path
       id="path9"
       d="m 29.375,14.862 c 0,-2.076 1.686,-3.762 3.763,-3.762 2.076,0 3.762,1.686 3.762,3.762 0,2.077 -1.686,3.763 -3.762,3.763 -2.077,0 -3.763,-1.686 -3.763,-3.763 z M 6.8,28.193 16.527,20.079 c 1.822,-1.521 4.664,-1.391 6.341,0.288 l 4.267,4.273 c 0.839,0.839 2.356,1.043 3.386,0.454 l 9.746,-5.57 C 40.782,19.23 41.2,18.509 41.2,17.916 v -6.278 c 0,-1.78 -1.445,-3.226 -3.225,-3.226 H 10.025 C 8.245,8.412 6.8,9.858 6.8,11.638 Z m 34.4,0.645 v 0 c 0,-1.187 0.963,-2.15 2.15,-2.15 v 0 c 1.187,0 2.15,0.963 2.15,2.15 v 0 9.675 c 0,2.966 -2.408,5.375 -5.375,5.375 H 7.875 C 4.908,43.888 2.5,41.479 2.5,38.513 V 9.487 C 2.5,6.521 4.908,4.112 7.875,4.112 h 32.25 c 2.967,0 5.375,2.409 5.375,5.375 v 9.847 c 0,1.187 -0.836,2.628 -1.867,3.217 l -11.954,6.83 c -2.061,1.177 -5.097,0.772 -6.776,-0.905 L 21.092,24.67 C 20.253,23.832 18.831,23.767 17.919,24.527 L 8.176,32.643 6.8,33.782 v 2.581 c 0,1.779 1.445,3.225 3.225,3.225 h 27.95 c 1.78,0 3.225,-1.446 3.225,-3.225 z"
       inkscape:connector-curvature="0"
       style="fill:url(#_lgradient_15);fill-rule:evenodd" />
  </g>
</svg>
