<?xml version="1.0" encoding="UTF-8" standalone="no"?>
<!-- Generator: Gravit.io -->

<svg
   xmlns:dc="http://purl.org/dc/elements/1.1/"
   xmlns:cc="http://creativecommons.org/ns#"
   xmlns:rdf="http://www.w3.org/1999/02/22-rdf-syntax-ns#"
   xmlns:svg="http://www.w3.org/2000/svg"
   xmlns="http://www.w3.org/2000/svg"
   xmlns:sodipodi="http://sodipodi.sourceforge.net/DTD/sodipodi-0.dtd"
   xmlns:inkscape="http://www.inkscape.org/namespaces/inkscape"
   style="isolation:isolate"
   viewBox="0 0 48 48"
   width="48"
   height="48"
   version="1.1"
   id="svg23"
   sodipodi:docname="inkscape.svg"
   inkscape:version="0.92.4 (5da689c313, 2019-01-14)">
  <metadata
     id="metadata29">
    <rdf:RDF>
      <cc:Work
         rdf:about="">
        <dc:format>image/svg+xml</dc:format>
        <dc:type
           rdf:resource="http://purl.org/dc/dcmitype/StillImage" />
        <dc:title></dc:title>
      </cc:Work>
    </rdf:RDF>
  </metadata>
  <defs
     id="defs27" />
  <sodipodi:namedview
     pagecolor="#ffffff"
     bordercolor="#666666"
     borderopacity="1"
     objecttolerance="10"
     gridtolerance="10"
     guidetolerance="10"
     inkscape:pageopacity="0"
     inkscape:pageshadow="2"
     inkscape:window-width="640"
     inkscape:window-height="480"
     id="namedview25"
     showgrid="false"
     inkscape:zoom="39.153656"
     inkscape:cx="18.994082"
     inkscape:cy="24"
     inkscape:current-layer="svg23" />
  <linearGradient
     id="_lgradient_8"
     x1="-1.735528"
     y1="0.17491145"
     x2="1.0229365"
     y2="0.5042963"
     gradientTransform="matrix(21.681,0,0,15.11,13.273,10.89)"
     gradientUnits="userSpaceOnUse">
    <stop
       offset="0%"
       stop-opacity="1"
       style="stop-color:rgb(242,55,239)"
       id="stop2" />
    <stop
       offset="98.69565217391305%"
       stop-opacity="1"
       style="stop-color:rgb(252,82,82)"
       id="stop4" />
  </linearGradient>
  <linearGradient
     id="_lgradient_9"
     x1="0"
     y1="0.5"
     x2="1"
     y2="0.5"
     gradientTransform="matrix(48,0,0,38.08,0,0.17)"
     gradientUnits="userSpaceOnUse">
    <stop
       offset="0%"
       stop-opacity="1"
       style="stop-color:rgb(242,55,239)"
       id="stop9" />
    <stop
       offset="98.69565217391305%"
       stop-opacity="1"
       style="stop-color:rgb(252,82,82)"
       id="stop11" />
  </linearGradient>
  <linearGradient
     id="_lgradient_10"
     x1="0"
     y1="0.5"
     x2="1"
     y2="0.5"
     gradientTransform="matrix(21.36,0,0,9.92,13.32,38.32)"
     gradientUnits="userSpaceOnUse">
    <stop
       offset="0%"
       stop-opacity="1"
       style="stop-color:rgb(242,55,239)"
       id="stop16" />
    <stop
       offset="98.69565217391305%"
       stop-opacity="1"
       style="stop-color:rgb(252,82,82)"
       id="stop18" />
  </linearGradient>
  <g
     id="g839"
     transform="matrix(1.0385311,0,0,1.0385311,-0.92636004,-1.4628992)">
    <path
       id="path7"
       d="m 24.663,15.119 4.284,4.052 1.83,1.731 c 0.569,0.539 -0.367,0.688 -0.702,0.735 -1.145,0.161 -1.838,-1.71 -2.993,-1.75 -1.58,-0.053 -3.051,2.177 -4.247,2.112 -1.083,-0.06 -0.986,-2.196 -1.934,-2.104 -0.729,0.07 -0.203,1.625 -1.151,1.87 -0.381,0.08 -3.274,-0.21 -2.269,-0.942 0.045,-0.043 0.092,-0.088 0.14,-0.134 0.485,-0.462 1.133,-1.043 1.635,-1.518 l 4.284,-4.052 c 0.155,-0.146 0.355,-0.23 0.557,-0.23 0.204,-0.002 0.409,0.082 0.566,0.23 z M 14.91,17.75 c 0.29,-0.27 0.58,-0.54 0.87,-0.81 0.25,-0.23 0.49,-0.45 0.73,-0.68 l 4.27,-4.04 c 0.88,-0.84 2.04,-1.31 3.26,-1.33 0.01,0 0.03,0 0.04,0 h 0.01 c 0.02,0 0.04,0 0.06,0 1.22,0.01 2.39,0.49 3.27,1.33 l 4.28,4.05 1.74,1.65 c 0.9,0.79 1.45,1.91 1.51,3.11 0.06,1.39 -0.58,2.73 -1.7,3.57 -0.43,0.32 -0.91,0.57 -1.42,0.73 -0.42,0.13 -0.85,0.23 -1.29,0.28 -0.06,0.01 -0.12,0.01 -0.18,0.02 l -0.14,0.01 c -0.16,0.01 -0.31,0.01 -0.46,0 -1.08,-0.04 -2.12,-0.42 -2.98,-1.07 -0.02,-0.02 -0.04,-0.03 -0.06,-0.05 -0.26,0.2 -0.54,0.38 -0.81,0.56 -0.84,0.54 -1.79,0.85 -2.78,0.91 C 23.01,26 22.89,26 22.78,26 h -0.05 c -0.1,-0.01 -0.2,-0.01 -0.3,-0.02 -0.51,-0.05 -1.01,-0.19 -1.49,-0.4 -0.11,0.04 -0.22,0.07 -0.33,0.09 -0.38,0.08 -0.76,0.12 -1.14,0.11 -0.71,-0.01 -1.43,-0.09 -2.13,-0.25 -0.51,-0.11 -1.02,-0.27 -1.49,-0.5 -0.48,-0.22 -0.92,-0.52 -1.3,-0.89 -0.88,-0.86 -1.34,-2.05 -1.27,-3.28 0.08,-1.22 0.68,-2.34 1.63,-3.11 z"
       style="fill:url(#_lgradient_8);fill-rule:evenodd"
       inkscape:connector-curvature="0" />
    <path
       id="path14"
       d="m 19.6,33.84 v 0 c 0.9,0.64 1.11,1.888 0.47,2.785 v 0 c -0.64,0.897 -1.89,1.105 -2.79,0.465 v 0 L 2.391,25.811 C 1.072,24.812 0.955,23.054 2.131,21.889 L 21.929,2.281 c 1.176,-1.165 3.084,-1.163 4.257,0.005 l 19.688,19.598 c 1.173,1.168 1.057,2.931 -0.26,3.935 L 30.83,37.09 v 0 c -0.894,0.64 -2.142,0.432 -2.785,-0.465 v 0 C 27.402,35.728 27.61,34.48 28.51,33.84 v 0 L 41.92,23.69 24.06,5.83 6,24 Z"
       style="fill:url(#_lgradient_9)"
       inkscape:connector-curvature="0" />
    <path
       id="path21"
       d="m 31.11,39.21 v 0 c 0.982,-0.491 2.181,-0.09 2.675,0.895 v 0 c 0.494,0.985 0.093,2.188 -0.895,2.685 v 0 l -7.185,4.405 c -0.941,0.577 -2.469,0.577 -3.41,0 L 15.11,42.79 v 0 c -0.988,-0.497 -1.389,-1.7 -0.895,-2.685 v 0 c 0.494,-0.985 1.693,-1.386 2.675,-0.895 v 0 l 5.425,3.472 c 0.93,0.595 2.44,0.595 3.37,0 z"
       style="fill:url(#_lgradient_10)"
       inkscape:connector-curvature="0" />
  </g>
</svg>
