<?xml version="1.0" encoding="UTF-8" standalone="no"?>
<!-- Generator: Gravit.io -->

<svg
   xmlns:dc="http://purl.org/dc/elements/1.1/"
   xmlns:cc="http://creativecommons.org/ns#"
   xmlns:rdf="http://www.w3.org/1999/02/22-rdf-syntax-ns#"
   xmlns:svg="http://www.w3.org/2000/svg"
   xmlns="http://www.w3.org/2000/svg"
   xmlns:sodipodi="http://sodipodi.sourceforge.net/DTD/sodipodi-0.dtd"
   xmlns:inkscape="http://www.inkscape.org/namespaces/inkscape"
   style="isolation:isolate"
   viewBox="0 0 48 48"
   width="48"
   height="48"
   version="1.1"
   id="svg9"
   sodipodi:docname="input-mouse.svg"
   inkscape:version="0.92.4 (5da689c313, 2019-01-14)">
  <metadata
     id="metadata15">
    <rdf:RDF>
      <cc:Work
         rdf:about="">
        <dc:format>image/svg+xml</dc:format>
        <dc:type
           rdf:resource="http://purl.org/dc/dcmitype/StillImage" />
        <dc:title></dc:title>
      </cc:Work>
    </rdf:RDF>
  </metadata>
  <defs
     id="defs13" />
  <sodipodi:namedview
     pagecolor="#ffffff"
     bordercolor="#666666"
     borderopacity="1"
     objecttolerance="10"
     gridtolerance="10"
     guidetolerance="10"
     inkscape:pageopacity="0"
     inkscape:pageshadow="2"
     inkscape:window-width="640"
     inkscape:window-height="480"
     id="namedview11"
     showgrid="false"
     inkscape:zoom="39.153656"
     inkscape:cx="18.994082"
     inkscape:cy="24"
     inkscape:current-layer="svg9" />
  <linearGradient
     id="_lgradient_5"
     x1="0"
     y1="0.5"
     x2="1"
     y2="0.5"
     gradientTransform="matrix(30.08,0,0,43.5,8.96,2.5)"
     gradientUnits="userSpaceOnUse">
    <stop
       offset="0%"
       stop-opacity="1"
       style="stop-color:rgb(253,116,108)"
       id="stop2" />
    <stop
       offset="98.26086956521739%"
       stop-opacity="1"
       style="stop-color:rgb(255,144,104)"
       id="stop4" />
  </linearGradient>
  <g
     id="g826"
     transform="matrix(1.1034483,0,0,1.1034483,-2.4827592,-2.7586213)">
    <path
       id="path7"
       d="m 36.957,25.169 c 0.027,0.003 0.053,0.005 0.079,0.007 v 0 c 1.019,0.061 1.896,-0.719 1.958,-1.74 v 0 c 0.027,-0.445 0.046,-0.889 0.046,-1.333 0,0 0,0 0,-0.009 V 21.992 18.077 C 39.058,13.986 37.485,10.052 34.662,7.091 31.886,4.175 28.026,2.519 24,2.5 19.974,2.519 16.114,4.175 13.338,7.091 10.515,10.052 8.942,13.986 8.96,18.077 v 12.346 c -0.018,4.091 1.555,8.025 4.378,10.986 2.776,2.916 6.627,4.572 10.662,4.591 3.785,-0.009 7.432,-1.499 10.135,-4.156 2.702,-2.684 4.368,-6.247 4.664,-10.042 v 0 c 0.082,-1.016 -0.677,-1.908 -1.693,-1.99 v 0 c -1.017,-0.081 -1.909,0.678 -1.99,1.694 v 0 0 c -0.241,2.916 -1.509,5.646 -3.582,7.701 -2.009,1.971 -4.72,3.082 -7.534,3.091 -3.017,-0.019 -5.905,-1.259 -7.987,-3.443 -2.157,-2.268 -3.36,-5.285 -3.351,-8.422 0,0 0,0 0,-0.01 V 18.077 c 0,-0.01 0,-0.01 0,-0.01 -0.009,-3.137 1.194,-6.154 3.351,-8.422 2.082,-2.184 4.97,-3.424 7.987,-3.443 3.017,0.019 5.905,1.259 7.987,3.443 2.157,2.268 3.36,5.285 3.351,8.422 0,0 0,0 0,0.01 v 3.396 H 16.745 c -1.104,0 -2,0.83 -2,1.851 v 0 c 0,1.022 0.896,1.852 2,1.852 H 36.957 Z M 24,10.069 v 0 c 1.022,0 1.851,0.859 1.851,1.916 v 4.099 C 25.851,17.142 25.022,18 24,18 v 0 c -1.022,0 -1.851,-0.858 -1.851,-1.916 v -4.099 c 0,-1.057 0.829,-1.916 1.851,-1.916 z"
       style="fill:url(#_lgradient_5);fill-rule:evenodd"
       inkscape:connector-curvature="0" />
  </g>
</svg>
