<?xml version="1.0" encoding="UTF-8" standalone="no"?>
<!-- Generator: Gravit.io -->

<svg
   xmlns:dc="http://purl.org/dc/elements/1.1/"
   xmlns:cc="http://creativecommons.org/ns#"
   xmlns:rdf="http://www.w3.org/1999/02/22-rdf-syntax-ns#"
   xmlns:svg="http://www.w3.org/2000/svg"
   xmlns="http://www.w3.org/2000/svg"
   xmlns:sodipodi="http://sodipodi.sourceforge.net/DTD/sodipodi-0.dtd"
   xmlns:inkscape="http://www.inkscape.org/namespaces/inkscape"
   style="isolation:isolate"
   viewBox="0 0 36 36"
   width="48"
   height="48"
   version="1.1"
   id="svg11"
   sodipodi:docname="input-keyboard.svg"
   inkscape:version="0.92.4 (5da689c313, 2019-01-14)">
  <metadata
     id="metadata17">
    <rdf:RDF>
      <cc:Work
         rdf:about="">
        <dc:format>image/svg+xml</dc:format>
        <dc:type
           rdf:resource="http://purl.org/dc/dcmitype/StillImage" />
        <dc:title></dc:title>
      </cc:Work>
    </rdf:RDF>
  </metadata>
  <defs
     id="defs15" />
  <sodipodi:namedview
     pagecolor="#ffffff"
     bordercolor="#666666"
     borderopacity="1"
     objecttolerance="10"
     gridtolerance="10"
     guidetolerance="10"
     inkscape:pageopacity="0"
     inkscape:pageshadow="2"
     inkscape:window-width="640"
     inkscape:window-height="480"
     id="namedview13"
     showgrid="false"
     inkscape:zoom="29.365243"
     inkscape:cx="25.325443"
     inkscape:cy="32"
     inkscape:current-layer="svg11"
     units="px" />
  <linearGradient
     id="_lgradient_72"
     x1="0"
     y1="0.5"
     x2="1"
     y2="0.5"
     gradientTransform="matrix(44,0,0,28,2,10)"
     gradientUnits="userSpaceOnUse">
    <stop
       offset="0%"
       stop-opacity="1"
       style="stop-color:rgb(84,51,255)"
       id="stop2" />
    <stop
       offset="51.73913043478261%"
       stop-opacity="1"
       style="stop-color:rgb(32,189,255)"
       id="stop4" />
    <stop
       offset="98.26086956521739%"
       stop-opacity="1"
       style="stop-color:rgb(165,254,203)"
       id="stop6" />
  </linearGradient>
  <g
     id="g825"
     transform="matrix(0.81818182,0,0,0.81818182,-1.6363637,-1.6363637)">
    <path
       id="path9"
       d="m 15,28 h 18 c 0.552,0 1,0.448 1,1 v 2 c 0,0.552 -0.448,1 -1,1 H 15 c -0.552,0 -1,-0.448 -1,-1 v -2 c 0,-0.552 0.448,-1 1,-1 z m 22,0 h 2 c 0.552,0 1,0.448 1,1 v 2 c 0,0.552 -0.448,1 -1,1 h -2 c -0.552,0 -1,-0.448 -1,-1 v -2 c 0,-0.552 0.448,-1 1,-1 z M 9,28 h 2 c 0.552,0 1,0.448 1,1 v 2 c 0,0.552 -0.448,1 -1,1 H 9 C 8.448,32 8,31.552 8,31 v -2 c 0,-0.552 0.448,-1 1,-1 z m 2,-6 h 2 c 0.552,0 1,0.448 1,1 v 2 c 0,0.552 -0.448,1 -1,1 h -2 c -0.552,0 -1,-0.448 -1,-1 v -2 c 0,-0.552 0.448,-1 1,-1 z m 0,-6 h 2 c 0.552,0 1,0.448 1,1 v 2 c 0,0.552 -0.448,1 -1,1 h -2 c -0.552,0 -1,-0.448 -1,-1 v -2 c 0,-0.552 0.448,-1 1,-1 z m 6,6 h 2 c 0.552,0 1,0.448 1,1 v 2 c 0,0.552 -0.448,1 -1,1 h -2 c -0.552,0 -1,-0.448 -1,-1 v -2 c 0,-0.552 0.448,-1 1,-1 z m 0,-6 h 2 c 0.552,0 1,0.448 1,1 v 2 c 0,0.552 -0.448,1 -1,1 h -2 c -0.552,0 -1,-0.448 -1,-1 v -2 c 0,-0.552 0.448,-1 1,-1 z m 6,6 h 2 c 0.552,0 1,0.448 1,1 v 2 c 0,0.552 -0.448,1 -1,1 h -2 c -0.552,0 -1,-0.448 -1,-1 v -2 c 0,-0.552 0.448,-1 1,-1 z m 0,-6 h 2 c 0.552,0 1,0.448 1,1 v 2 c 0,0.552 -0.448,1 -1,1 h -2 c -0.552,0 -1,-0.448 -1,-1 v -2 c 0,-0.552 0.448,-1 1,-1 z m 6,6 h 2 c 0.552,0 1,0.448 1,1 v 2 c 0,0.552 -0.448,1 -1,1 h -2 c -0.552,0 -1,-0.448 -1,-1 v -2 c 0,-0.552 0.448,-1 1,-1 z m 0,-6 h 2 c 0.552,0 1,0.448 1,1 v 2 c 0,0.552 -0.448,1 -1,1 h -2 c -0.552,0 -1,-0.448 -1,-1 v -2 c 0,-0.552 0.448,-1 1,-1 z m 6,6 h 2 c 0.552,0 1,0.448 1,1 v 2 c 0,0.552 -0.448,1 -1,1 h -2 c -0.552,0 -1,-0.448 -1,-1 v -2 c 0,-0.552 0.448,-1 1,-1 z m 0,-6 h 2 c 0.552,0 1,0.448 1,1 v 2 c 0,0.552 -0.448,1 -1,1 h -2 c -0.552,0 -1,-0.448 -1,-1 v -2 c 0,-0.552 0.448,-1 1,-1 z m 7,9 v 0 c 0,-1.104 0.896,-2 2,-2 v 0 c 1.104,0 2,0.896 2,2 v 0 10 c 0,1.656 -1.344,3 -3,3 H 5 C 3.344,38 2,36.656 2,35 v -4 0 c 0,-1.104 0.896,-2 2,-2 v 0 c 1.104,0 2,0.896 2,2 v 0 2 c 0,0.552 0.448,1 1,1 h 34 c 0.552,0 1,-0.448 1,-1 z M 6,23 v 0 c 0,1.104 -0.896,2 -2,2 v 0 C 2.896,25 2,24.104 2,23 v 0 -10 c 0,-1.656 1.344,-3 3,-3 h 38 c 1.656,0 3,1.344 3,3 v 4 0 c 0,1.104 -0.896,2 -2,2 v 0 c -1.104,0 -2,-0.896 -2,-2 v 0 -2 c 0,-0.552 -0.448,-1 -1,-1 H 7 c -0.552,0 -1,0.448 -1,1 z"
       inkscape:connector-curvature="0"
       style="fill:url(#_lgradient_72);fill-rule:evenodd" />
  </g>
</svg>
