<?xml version="1.0" encoding="UTF-8" standalone="no"?>
<!-- Generator: Gravit.io -->

<svg
   xmlns:dc="http://purl.org/dc/elements/1.1/"
   xmlns:cc="http://creativecommons.org/ns#"
   xmlns:rdf="http://www.w3.org/1999/02/22-rdf-syntax-ns#"
   xmlns:svg="http://www.w3.org/2000/svg"
   xmlns="http://www.w3.org/2000/svg"
   xmlns:sodipodi="http://sodipodi.sourceforge.net/DTD/sodipodi-0.dtd"
   xmlns:inkscape="http://www.inkscape.org/namespaces/inkscape"
   style="isolation:isolate"
   viewBox="0 0 36 36"
   width="48"
   height="48"
   version="1.1"
   id="svg18"
   sodipodi:docname="jetbrains-toolbox.svg"
   inkscape:version="0.92.4 (5da689c313, 2019-01-14)">
  <metadata
     id="metadata24">
    <rdf:RDF>
      <cc:Work
         rdf:about="">
        <dc:format>image/svg+xml</dc:format>
        <dc:type
           rdf:resource="http://purl.org/dc/dcmitype/StillImage" />
        <dc:title></dc:title>
      </cc:Work>
    </rdf:RDF>
  </metadata>
  <defs
     id="defs22" />
  <sodipodi:namedview
     pagecolor="#ffffff"
     bordercolor="#666666"
     borderopacity="1"
     objecttolerance="10"
     gridtolerance="10"
     guidetolerance="10"
     inkscape:pageopacity="0"
     inkscape:pageshadow="2"
     inkscape:window-width="640"
     inkscape:window-height="480"
     id="namedview20"
     showgrid="false"
     inkscape:zoom="29.365243"
     inkscape:cx="25.325443"
     inkscape:cy="32"
     inkscape:current-layer="svg18"
     units="px" />
  <linearGradient
     id="_lgradient_32"
     x1="-0.014458464"
     y1="0.009839246"
     x2="1.0164566"
     y2="1.072293"
     gradientTransform="matrix(-41.26,0,0,45.921,44.63,1.12)"
     gradientUnits="userSpaceOnUse">
    <stop
       offset="0%"
       stop-opacity="1"
       style="stop-color:rgb(249,212,35)"
       id="stop2" />
    <stop
       offset="51.56237565086822%"
       stop-opacity="1"
       style="stop-color:rgb(255,78,80)"
       id="stop4" />
    <stop
       offset="99.1304347826087%"
       stop-opacity="1"
       style="stop-color:rgb(138,35,135)"
       id="stop6" />
  </linearGradient>
  <linearGradient
     id="_lgradient_33"
     x1="1.075"
     y1="0.17104998"
     x2="-0.0047081499"
     y2="0.80991757"
     gradientTransform="matrix(10,0,0,8.921,28,29.287)"
     gradientUnits="userSpaceOnUse">
    <stop
       offset="0%"
       stop-opacity="1"
       style="stop-color:rgb(117,127,154)"
       id="stop11" />
    <stop
       offset="98.69565217391305%"
       stop-opacity="1"
       style="stop-color:rgb(215,221,232)"
       id="stop13" />
  </linearGradient>
  <g
     id="g836"
     transform="matrix(0.78394598,0,0,0.78394598,-0.81470352,-0.8778976)">
    <path
       id="path9"
       d="m 35.01,11.55 v 0 c 0.9,0.646 2.152,0.442 2.795,-0.455 v 0 C 38.448,10.198 38.24,8.946 37.34,8.3 v 0 L 25.844,1.543 C 24.893,0.984 23.344,0.978 22.388,1.53 L 5.102,11.51 c -0.956,0.552 -1.732,1.896 -1.732,3 v 18.07 c 0,1.104 0.774,2.452 1.727,3.009 L 24.273,46.801 C 25.226,47.358 26,46.914 26,45.81 v -12.09 0 c 0,-1.104 -0.896,-2 -2,-2 v 0 c -1.104,0 -2,0.896 -2,2 v 0 5.3 c 0,0.552 -0.387,0.775 -0.865,0.498 L 7.37,31.52 V 14.82 L 23.88,5.29 Z m -5.59,28.63 v 0 c -0.944,0.574 -1.248,1.806 -0.68,2.75 v 0 c 0.568,0.944 1.796,1.248 2.74,0.68 v 0 l 11.403,-6.356 c 0.964,-0.538 1.747,-1.87 1.747,-2.974 V 13.81 c 0,-1.104 -0.776,-1.552 -1.732,-1 L 24.976,23.16 c -0.478,0.276 -1.258,0.283 -1.741,0.016 L 12.98,17.5 v 0 c -0.905,-0.635 -2.158,-0.42 -2.795,0.48 v 0 c -0.637,0.9 -0.42,2.15 0.485,2.79 v 0 l 11.488,6.63 c 0.956,0.552 2.508,0.552 3.464,0 L 40.63,18.74 v 15.29 z"
       style="fill:url(#_lgradient_32);fill-rule:evenodd"
       inkscape:connector-curvature="0" />
    <path
       id="path16"
       d="m 28,35.534 v 1.674 c 0,0.551 0.397,0.791 0.885,0.535 l 8.23,-4.318 C 37.603,33.168 38,32.512 38,31.96 v -1.673 c 0,-0.552 -0.397,-0.792 -0.885,-0.536 l -8.23,4.318 C 28.397,34.326 28,34.982 28,35.534 Z"
       style="fill:url(#_lgradient_33)"
       inkscape:connector-curvature="0" />
  </g>
</svg>
