<?xml version="1.0" encoding="UTF-8" standalone="no"?>
<!-- Generator: Gravit.io -->

<svg
   xmlns:dc="http://purl.org/dc/elements/1.1/"
   xmlns:cc="http://creativecommons.org/ns#"
   xmlns:rdf="http://www.w3.org/1999/02/22-rdf-syntax-ns#"
   xmlns:svg="http://www.w3.org/2000/svg"
   xmlns="http://www.w3.org/2000/svg"
   xmlns:sodipodi="http://sodipodi.sourceforge.net/DTD/sodipodi-0.dtd"
   xmlns:inkscape="http://www.inkscape.org/namespaces/inkscape"
   style="isolation:isolate"
   viewBox="0 0 36 36"
   width="48"
   height="48"
   version="1.1"
   id="svg26"
   sodipodi:docname="kaffeine.svg"
   inkscape:version="0.92.4 (5da689c313, 2019-01-14)">
  <metadata
     id="metadata32">
    <rdf:RDF>
      <cc:Work
         rdf:about="">
        <dc:format>image/svg+xml</dc:format>
        <dc:type
           rdf:resource="http://purl.org/dc/dcmitype/StillImage" />
        <dc:title></dc:title>
      </cc:Work>
    </rdf:RDF>
  </metadata>
  <defs
     id="defs30" />
  <sodipodi:namedview
     pagecolor="#ffffff"
     bordercolor="#666666"
     borderopacity="1"
     objecttolerance="10"
     gridtolerance="10"
     guidetolerance="10"
     inkscape:pageopacity="0"
     inkscape:pageshadow="2"
     inkscape:window-width="640"
     inkscape:window-height="480"
     id="namedview28"
     showgrid="false"
     inkscape:zoom="29.365243"
     inkscape:cx="25.325443"
     inkscape:cy="32"
     inkscape:current-layer="svg26"
     units="px" />
  <linearGradient
     id="_lgradient_13"
     x1="0"
     y1="0.5"
     x2="1"
     y2="0.5"
     gradientTransform="matrix(46.5,0,0,43,0.75,1.5)"
     gradientUnits="userSpaceOnUse">
    <stop
       offset="0%"
       stop-opacity="1"
       style="stop-color:rgb(64,224,208)"
       id="stop8" />
    <stop
       offset="51.73913043478261%"
       stop-opacity="1"
       style="stop-color:rgb(255,140,0)"
       id="stop10" />
    <stop
       offset="98.69565217391305%"
       stop-opacity="1"
       style="stop-color:rgb(255,0,128)"
       id="stop12" />
  </linearGradient>
  <linearGradient
     id="_lgradient_14"
     x1="0"
     y1="0.5"
     x2="1"
     y2="0.5"
     gradientTransform="matrix(44,0,0,3,2,11)"
     gradientUnits="userSpaceOnUse">
    <stop
       offset="0%"
       stop-opacity="1"
       style="stop-color:rgb(64,224,208)"
       id="stop17" />
    <stop
       offset="51.73913043478261%"
       stop-opacity="1"
       style="stop-color:rgb(255,140,0)"
       id="stop19" />
    <stop
       offset="98.69565217391305%"
       stop-opacity="1"
       style="stop-color:rgb(255,0,128)"
       id="stop21" />
  </linearGradient>
  <g
     id="g844"
     transform="matrix(0.77419355,0,0,0.77419355,-0.5806452,0.19354835)">
    <path
       id="path2"
       stroke-miterlimit="3"
       d="m 12,4 4,4 -4,4"
       inkscape:connector-curvature="0"
       style="vector-effect:non-scaling-stroke;fill:none;stroke:#a7b35f;stroke-width:2;stroke-linecap:square;stroke-linejoin:miter;stroke-miterlimit:3" />
    <path
       id="path4"
       stroke-miterlimit="3"
       d="m 23,4 4,4 -4,4"
       inkscape:connector-curvature="0"
       style="vector-effect:non-scaling-stroke;fill:none;stroke:#f88f07;stroke-width:2;stroke-linecap:square;stroke-linejoin:miter;stroke-miterlimit:3" />
    <path
       id="path6"
       stroke-miterlimit="3"
       d="m 33,4 4,4 -4,4"
       inkscape:connector-curvature="0"
       style="vector-effect:non-scaling-stroke;fill:none;stroke:#ff5533;stroke-width:2;stroke-linecap:square;stroke-linejoin:miter;stroke-miterlimit:3" />
    <path
       id="path15"
       d="m 16.263,41.011 c 0.525,0 1.029,0.183 1.405,0.514 0.366,0.323 0.574,0.768 0.574,1.23 0,0.463 -0.208,0.908 -0.574,1.23 -0.376,0.332 -0.88,0.515 -1.405,0.515 H 7.253 C 3.664,44.5 0.75,41.586 0.75,37.997 V 8.003 C 0.75,4.414 3.664,1.5 7.253,1.5 h 33.494 c 3.589,0 6.503,2.914 6.503,6.503 v 29.994 c 0,3.589 -2.914,6.503 -6.503,6.503 h -9.01 c -0.525,0 -1.029,-0.183 -1.405,-0.515 -0.366,-0.322 -0.574,-0.767 -0.574,-1.23 0,-0.462 0.208,-0.907 0.574,-1.23 0.376,-0.331 0.88,-0.514 1.405,-0.514 h 6.911 c 2.563,0 4.645,-2.082 4.645,-4.645 V 9.634 c 0,-2.563 -2.082,-4.645 -4.645,-4.645 H 9.352 c -2.563,0 -4.645,2.082 -4.645,4.645 v 26.732 c 0,2.563 2.082,4.645 4.645,4.645 z m 9.125,-11.315 -1.502,0.795 c -1.937,1.025 -3.51,0.078 -3.51,-2.113 v -1.08 c 0,-2.191 1.573,-3.138 3.51,-2.113 l 1.502,0.795 c 1.937,1.026 1.937,2.69 0,3.716 z m 5.378,0.743 -10.057,5.325 C 18.772,36.789 17.2,35.842 17.2,33.651 V 22.025 c 0,-2.191 1.572,-3.138 3.509,-2.113 l 10.057,5.325 c 2.712,1.436 2.712,3.766 0,5.202 z"
       style="fill:url(#_lgradient_13);fill-rule:evenodd"
       inkscape:connector-curvature="0" />
    <path
       id="path24"
       d="m 2,11 h 44 v 3 H 2 Z"
       style="fill:url(#_lgradient_14)"
       inkscape:connector-curvature="0" />
  </g>
</svg>
