<?xml version="1.0" encoding="UTF-8" standalone="no"?>
<!-- Generator: Gravit.io -->

<svg
   xmlns:dc="http://purl.org/dc/elements/1.1/"
   xmlns:cc="http://creativecommons.org/ns#"
   xmlns:rdf="http://www.w3.org/1999/02/22-rdf-syntax-ns#"
   xmlns:svg="http://www.w3.org/2000/svg"
   xmlns="http://www.w3.org/2000/svg"
   xmlns:sodipodi="http://sodipodi.sourceforge.net/DTD/sodipodi-0.dtd"
   xmlns:inkscape="http://www.inkscape.org/namespaces/inkscape"
   style="isolation:isolate"
   viewBox="0 0 36 36"
   width="48"
   height="48"
   version="1.1"
   id="svg37"
   sodipodi:docname="kdenlive.svg"
   inkscape:version="0.92.4 (5da689c313, 2019-01-14)">
  <metadata
     id="metadata43">
    <rdf:RDF>
      <cc:Work
         rdf:about="">
        <dc:format>image/svg+xml</dc:format>
        <dc:type
           rdf:resource="http://purl.org/dc/dcmitype/StillImage" />
        <dc:title></dc:title>
      </cc:Work>
    </rdf:RDF>
  </metadata>
  <defs
     id="defs41" />
  <sodipodi:namedview
     pagecolor="#ffffff"
     bordercolor="#666666"
     borderopacity="1"
     objecttolerance="10"
     gridtolerance="10"
     guidetolerance="10"
     inkscape:pageopacity="0"
     inkscape:pageshadow="2"
     inkscape:window-width="640"
     inkscape:window-height="480"
     id="namedview39"
     showgrid="false"
     inkscape:zoom="29.365243"
     inkscape:cx="25.325443"
     inkscape:cy="32"
     inkscape:current-layer="svg37"
     units="px" />
  <linearGradient
     id="_lgradient_47"
     x1="0"
     y1="0.5"
     x2="0.90748805"
     y2="0.92007786"
     gradientTransform="matrix(12,0,0,18,29,15)"
     gradientUnits="userSpaceOnUse">
    <stop
       offset="0%"
       stop-opacity="1"
       style="stop-color:rgb(0,196,255)"
       id="stop2" />
    <stop
       offset="83.88839793817618%"
       stop-opacity="1"
       style="stop-color:rgb(0,114,255)"
       id="stop4" />
  </linearGradient>
  <linearGradient
     id="_lgradient_48"
     x1="0"
     y1="0.5"
     x2="1"
     y2="0.5"
     gradientTransform="matrix(15,0,0,21,6,13)"
     gradientUnits="userSpaceOnUse">
    <stop
       offset="0%"
       stop-opacity="1"
       style="stop-color:rgb(178,254,250)"
       id="stop9" />
    <stop
       offset="98.26086956521739%"
       stop-opacity="1"
       style="stop-color:rgb(14,210,247)"
       id="stop11" />
  </linearGradient>
  <linearGradient
     id="_lgradient_49"
     x1="0"
     y1="0.5"
     x2="1"
     y2="0.5"
     gradientTransform="matrix(2,0,0,34,24,7)"
     gradientUnits="userSpaceOnUse">
    <stop
       offset="0%"
       stop-opacity="1"
       style="stop-color:rgb(255,153,102)"
       id="stop16" />
    <stop
       offset="98.26086956521739%"
       stop-opacity="1"
       style="stop-color:rgb(255,94,98)"
       id="stop18" />
  </linearGradient>
  <linearGradient
     id="_lgradient_50"
     x1="0"
     y1="0.5"
     x2="0.90748805"
     y2="0.92007786"
     gradientTransform="matrix(12,0,0,8,19,6)"
     gradientUnits="userSpaceOnUse">
    <stop
       offset="0%"
       stop-opacity="1"
       style="stop-color:rgb(255,65,108)"
       id="stop23" />
    <stop
       offset="84.34782608695653%"
       stop-opacity="1"
       style="stop-color:rgb(255,75,43)"
       id="stop25" />
  </linearGradient>
  <linearGradient
     id="_lgradient_51"
     x1="0"
     y1="0.5"
     x2="1"
     y2="0.5"
     gradientTransform="matrix(46,0,0,46,1,1)"
     gradientUnits="userSpaceOnUse">
    <stop
       offset="0%"
       stop-opacity="1"
       style="stop-color:rgb(88,0,226)"
       id="stop30" />
    <stop
       offset="100%"
       stop-opacity="1"
       style="stop-color:rgb(255,0,230)"
       id="stop32" />
  </linearGradient>
  <g
     id="g855"
     transform="matrix(0.7826087,0,0,0.7826087,-0.7826088,-0.7826088)">
    <path
       id="path7"
       d="m 30.037,15.001 c -0.491,0.03 -1.02,0.516 -1.019,1.054 L 29,31.945 c 0,0.718 0.939,1.342 1.476,0.916 l 10.119,-7.972 c 0.541,-0.421 0.539,-1.409 0,-1.832 l -10.1,-7.918 C 30.36,15.034 30.201,14.992 30.037,15.001 Z"
       inkscape:connector-curvature="0"
       style="fill:url(#_lgradient_47)" />
    <path
       id="path14"
       d="m 18,13 v 1 h 3 v -1 z m -3,4 v 1 h 6 v -1 z m -5,4 v 1 h 11 v -1 z m -4,4 v 1 H 17.875 21 v -1 z m 4,4 v 1 h 11 v -1 z m 5,4 v 1 h 6 v -1 z"
       inkscape:connector-curvature="0"
       style="fill:url(#_lgradient_48);fill-rule:evenodd" />
    <path
       id="path21"
       d="m 24,7 0.039,34 H 26 V 7 Z"
       inkscape:connector-curvature="0"
       style="fill:url(#_lgradient_49)" />
    <path
       id="path28"
       d="m 31,6 h -6 -6 l 3,4 3,4 3,-4 z"
       inkscape:connector-curvature="0"
       style="fill:url(#_lgradient_50)" />
    <path
       id="path35"
       d="m 5,12.55 v 0 c 0,1.104 -0.896,2 -2,2 v 0 c -1.104,0 -2,-0.896 -2,-2 v 0 V 6 C 1,3.24 3.24,1 6,1 h 36 c 2.76,0 5,2.24 5,5 v 19 0 c 0,1.104 -0.896,2 -2,2 v 0 c -1.104,0 -2,-0.896 -2,-2 V 25 8 C 43,6.344 41.656,5 40,5 H 8 C 6.344,5 5,6.344 5,8 Z m 38,22.9 v 0 c 0,-1.104 0.896,-2 2,-2 v 0 c 1.104,0 2,0.896 2,2 v 0 6.55 c 0,2.76 -2.24,5 -5,5 H 6 C 3.24,47 1,44.76 1,42 v -19.82 0 c 0,-1.104 0.896,-2 2,-2 v 0 c 1.104,0 2,0.896 2,2 v 0 V 40 c 0,1.656 1.344,3 3,3 h 32 c 1.656,0 3,-1.344 3,-3 z"
       inkscape:connector-curvature="0"
       style="fill:url(#_lgradient_51);fill-rule:evenodd" />
  </g>
</svg>
