<?xml version="1.0" encoding="UTF-8" standalone="no"?>
<!-- Generator: Gravit.io -->

<svg
   xmlns:dc="http://purl.org/dc/elements/1.1/"
   xmlns:cc="http://creativecommons.org/ns#"
   xmlns:rdf="http://www.w3.org/1999/02/22-rdf-syntax-ns#"
   xmlns:svg="http://www.w3.org/2000/svg"
   xmlns="http://www.w3.org/2000/svg"
   xmlns:sodipodi="http://sodipodi.sourceforge.net/DTD/sodipodi-0.dtd"
   xmlns:inkscape="http://www.inkscape.org/namespaces/inkscape"
   style="isolation:isolate"
   viewBox="0 0 36 36"
   width="48"
   height="48"
   version="1.1"
   id="svg9"
   sodipodi:docname="kdevelop.svg"
   inkscape:version="0.92.4 (5da689c313, 2019-01-14)">
  <metadata
     id="metadata15">
    <rdf:RDF>
      <cc:Work
         rdf:about="">
        <dc:format>image/svg+xml</dc:format>
        <dc:type
           rdf:resource="http://purl.org/dc/dcmitype/StillImage" />
        <dc:title></dc:title>
      </cc:Work>
    </rdf:RDF>
  </metadata>
  <defs
     id="defs13" />
  <sodipodi:namedview
     pagecolor="#ffffff"
     bordercolor="#666666"
     borderopacity="1"
     objecttolerance="10"
     gridtolerance="10"
     guidetolerance="10"
     inkscape:pageopacity="0"
     inkscape:pageshadow="2"
     inkscape:window-width="640"
     inkscape:window-height="480"
     id="namedview11"
     showgrid="false"
     inkscape:zoom="29.365243"
     inkscape:cx="25.325443"
     inkscape:cy="32"
     inkscape:current-layer="svg9"
     units="px" />
  <linearGradient
     id="_lgradient_39"
     x1="0.065124042"
     y1="0.23632972"
     x2="0.97769916"
     y2="0.76862186"
     gradientTransform="matrix(40.2,0,0,42.036,2.8,2.982)"
     gradientUnits="userSpaceOnUse">
    <stop
       offset="2.608695652173913%"
       stop-opacity="1"
       style="stop-color:rgb(179,255,171)"
       id="stop2" />
    <stop
       offset="98.69565217391305%"
       stop-opacity="1"
       style="stop-color:rgb(18,255,247)"
       id="stop4" />
  </linearGradient>
  <g
     id="g826"
     transform="matrix(0.85640265,0,0,0.85640265,-1.611612,-2.5536636)">
    <path
       id="path7"
       d="m 41.082,28.626 c -0.177,0.649 -0.391,1.287 -0.64,1.912 l 2.546,2.04 c -0.588,1.316 -1.311,2.568 -2.155,3.736 l -3.041,-1.185 c -0.841,1.049 -1.796,1.999 -2.849,2.834 l 1.193,3.06 c -1.167,0.845 -2.417,1.569 -3.731,2.159 l -2.057,-2.567 c -1.249,0.49 -2.55,0.838 -3.877,1.037 l -0.499,3.259 c -1.432,0.145 -2.875,0.143 -4.307,-0.007 v 0 l -0.5,-3.252 C 20.501,41.56 19.842,41.43 19.192,41.264 18.544,41.086 17.905,40.873 17.28,40.624 l -2.04,2.546 c -1.316,-0.588 -2.568,-1.311 -3.736,-2.155 l 1.185,-3.042 C 11.64,37.133 10.69,36.178 9.855,35.125 l -3.06,1.193 C 5.95,35.151 5.226,33.901 4.636,32.587 L 7.203,30.53 C 6.713,29.281 6.365,27.98 6.167,26.653 L 2.908,26.154 C 2.762,24.722 2.764,23.279 2.914,21.847 l 3.252,-0.5 c 0.092,-0.664 0.222,-1.323 0.388,-1.973 0.178,-0.649 0.391,-1.287 0.64,-1.912 l -2.546,-2.04 c 0.589,-1.316 1.311,-2.568 2.155,-3.736 l 3.042,1.185 c 0.84,-1.049 1.795,-1.999 2.849,-2.834 L 11.5,6.977 c 1.167,-0.845 2.417,-1.569 3.732,-2.159 l 2.056,2.567 c 1.249,-0.49 2.55,-0.838 3.877,-1.037 l 0.499,-3.259 c 1.432,-0.145 2.876,-0.143 4.307,0.007 l 0.5,3.252 c 0.664,0.092 1.323,0.222 1.973,0.388 0.649,0.178 1.287,0.391 1.912,0.64 l 2.04,-2.546 c 1.316,0.588 2.568,1.311 3.736,2.155 l -1.185,3.042 c 1.049,0.84 1.999,1.795 2.834,2.848 l 3.06,-1.193 c 0.845,1.167 1.569,2.417 2.159,3.731 l -2.566,2.057 c 0.346,0.884 0.622,1.794 0.622,1.794 0.111,0.511 -0.246,0.927 -0.798,0.927 h -1.24 c -0.552,0 -1.111,-0.435 -1.247,-0.97 -0.067,-0.266 -0.558,-1.458 -1.206,-2.58 -1.952,-3.381 -5.167,-5.848 -8.937,-6.858 -3.771,-1.01 -7.789,-0.482 -11.169,1.47 -3.381,1.952 -5.848,5.167 -6.858,8.938 -1.01,3.77 -0.481,7.788 1.47,11.168 1.952,3.381 5.167,5.848 8.938,6.858 3.77,1.01 7.788,0.482 11.168,-1.47 3.381,-1.952 5.848,-5.167 6.599,-7.972 0.143,-0.533 0.707,-0.966 1.259,-0.966 h 1.239 c 0.552,0 0.945,0.245 0.877,0.546 q 0,0 -0.069,0.271 z M 15,27.702 l 5.267,5.267 2.633,-7.9 z m 3.154,-13.104 v 0 c -0.547,0.338 -1.268,0.169 -1.609,-0.376 v 0 c -0.341,-0.545 -0.174,-1.265 0.373,-1.606 v 0 c 2.127,-1.323 4.581,-2.022 7.082,-2.022 2.267,0 4.5,0.577 6.488,1.672 v 0 c 0.563,0.313 0.766,1.023 0.454,1.586 v 0 c -0.312,0.563 -1.022,0.767 -1.585,0.455 v 0 c -1.638,-0.91 -3.48,-1.382 -5.357,-1.382 -2.069,0 -4.092,0.577 -5.846,1.673 z M 14.26,29.275 v 0 c 0.309,0.566 0.1,1.275 -0.466,1.583 v 0 c -0.567,0.307 -1.274,0.097 -1.58,-0.47 v 0 C 11.147,28.43 10.594,26.232 10.594,24 c 0,-1.702 0.32,-3.387 0.95,-4.96 v 0 c 0.238,-0.599 0.917,-0.891 1.515,-0.653 v 0 c 0.599,0.238 0.891,0.917 0.653,1.515 v 0 c -0.525,1.3 -0.787,2.693 -0.787,4.098 0,1.842 0.461,3.655 1.335,5.275 z m 14.875,4.535 v 0 c 0.57,-0.296 1.275,-0.074 1.574,0.495 v 0 c 0.299,0.57 0.08,1.275 -0.49,1.574 v 0 c -1.917,1.003 -4.051,1.527 -6.219,1.527 -2.087,0 -4.15,-0.483 -6.015,-1.422 v 0 c -0.576,-0.289 -0.809,-0.992 -0.519,-1.568 v 0 c 0.289,-0.576 0.992,-0.808 1.568,-0.519 v 0 c 1.539,0.776 3.241,1.178 4.966,1.178 1.789,0 3.55,-0.431 5.135,-1.265 z m 5.246,-13.68 v 0 c -0.225,-0.602 0.082,-1.273 0.685,-1.498 v 0 c 0.603,-0.226 1.276,0.083 1.501,0.687 v 0 c 0.554,1.498 0.839,3.084 0.839,4.681 0,2.11 -0.495,4.197 -1.457,6.08 v 0 c -0.289,0.572 -0.991,0.799 -1.565,0.507 v 0 c -0.574,-0.293 -0.803,-0.996 -0.51,-1.568 v 0 c 0.793,-1.557 1.201,-3.276 1.201,-5.019 0,-1.323 -0.233,-2.629 -0.694,-3.87 z M 14.26,32.807 c 0,-0.643 0.522,-1.165 1.166,-1.165 0.643,0 1.165,0.522 1.165,1.165 0,0.644 -0.522,1.166 -1.165,1.166 -0.644,0 -1.166,-0.522 -1.166,-1.166 z M 31.91,16.038 c 0,-0.644 0.522,-1.166 1.166,-1.166 0.643,0 1.165,0.522 1.165,1.166 0,0.643 -0.522,1.166 -1.165,1.166 -0.644,0 -1.166,-0.523 -1.166,-1.166 z m -18.673,0 c 0,0.643 0.522,1.166 1.166,1.166 0.643,0 1.165,-0.523 1.165,-1.166 0,-0.644 -0.522,-1.166 -1.165,-1.166 -0.644,0 -1.166,0.522 -1.166,1.166 z m 18.405,16.769 c 0,0.644 0.522,1.166 1.165,1.166 0.644,0 1.166,-0.522 1.166,-1.166 0,-0.643 -0.522,-1.165 -1.166,-1.165 -0.643,0 -1.165,0.522 -1.165,1.165 z"
       style="fill:url(#_lgradient_39);fill-rule:evenodd"
       inkscape:connector-curvature="0" />
  </g>
</svg>
