<?xml version="1.0" encoding="UTF-8" standalone="no"?>
<!-- Generator: Gravit.io -->

<svg
   xmlns:dc="http://purl.org/dc/elements/1.1/"
   xmlns:cc="http://creativecommons.org/ns#"
   xmlns:rdf="http://www.w3.org/1999/02/22-rdf-syntax-ns#"
   xmlns:svg="http://www.w3.org/2000/svg"
   xmlns="http://www.w3.org/2000/svg"
   xmlns:sodipodi="http://sodipodi.sourceforge.net/DTD/sodipodi-0.dtd"
   xmlns:inkscape="http://www.inkscape.org/namespaces/inkscape"
   style="isolation:isolate"
   viewBox="0 0 36 36"
   width="48"
   height="48"
   version="1.1"
   id="svg9"
   sodipodi:docname="keepassxc.svg"
   inkscape:version="0.92.4 (5da689c313, 2019-01-14)">
  <metadata
     id="metadata15">
    <rdf:RDF>
      <cc:Work
         rdf:about="">
        <dc:format>image/svg+xml</dc:format>
        <dc:type
           rdf:resource="http://purl.org/dc/dcmitype/StillImage" />
        <dc:title></dc:title>
      </cc:Work>
    </rdf:RDF>
  </metadata>
  <defs
     id="defs13" />
  <sodipodi:namedview
     pagecolor="#ffffff"
     bordercolor="#666666"
     borderopacity="1"
     objecttolerance="10"
     gridtolerance="10"
     guidetolerance="10"
     inkscape:pageopacity="0"
     inkscape:pageshadow="2"
     inkscape:window-width="640"
     inkscape:window-height="480"
     id="namedview11"
     showgrid="false"
     inkscape:zoom="29.365243"
     inkscape:cx="25.325443"
     inkscape:cy="32"
     inkscape:current-layer="svg9"
     units="px" />
  <linearGradient
     id="_lgradient_2"
     x1="0"
     y1="0.5"
     x2="0.90748805"
     y2="0.92007786"
     gradientTransform="scale(48,47.249)"
     gradientUnits="userSpaceOnUse">
    <stop
       offset="0%"
       stop-opacity="1"
       style="stop-color:rgb(0,255,216)"
       id="stop2" />
    <stop
       offset="83.88839793817618%"
       stop-opacity="1"
       style="stop-color:rgb(0,255,184)"
       id="stop4" />
  </linearGradient>
  <g
     id="g826"
     transform="matrix(0.75,0,0,0.75,0,0.28155109)">
    <path
       id="path7"
       d="m 27.345,22.329 v 0 c 0.636,-0.426 1.5,-0.253 1.929,0.386 v 0 c 0.428,0.638 0.255,1.506 -0.386,1.937 v 0 l -0.651,0.428 1.712,1.862 c 0.373,0.406 0.364,1.057 -0.02,1.453 l -2.054,2.114 1.636,1.728 v 5.33 l -3.897,3.741 c -0.399,0.382 -1.076,0.418 -1.513,0.08 L 19.289,37.66 V 19.909 l -2.294,-1.15 C 16.502,18.512 16.101,17.863 16.101,17.311 V 9.907 c 0,-0.552 0.317,-1.317 0.707,-1.707 L 17.801,7.207 C 18.191,6.817 18.956,6.5 19.508,6.5 h 8.984 c 0.552,0 1.317,0.317 1.707,0.707 L 31.192,8.2 c 0.39,0.39 0.707,1.155 0.707,1.707 v 7.125 c 0,0.552 -0.317,1.317 -0.707,1.707 l -1.291,1.291 v 0 c -0.544,0.544 -1.429,0.544 -1.975,0 v 0 c -0.546,-0.544 -0.544,-1.426 0.005,-1.97 v 0 l 1.18,-1.189 V 10.068 L 28.33,9.288 h -8.66 l -0.781,0.78 v 6.524 l 3.187,1.589 v 18.113 l 2.621,2.026 2.026,-1.942 v -3.035 l -2.462,-2.592 c -0.38,-0.401 -0.396,-1.065 -0.035,-1.483 l 1.372,-1.59 -1.711,-1.862 c -0.374,-0.406 -0.304,-0.985 0.156,-1.29 z M 18.81,43.32 v 0 c 1.065,0.287 1.697,1.385 1.41,2.45 v 0 c -0.287,1.065 -1.385,1.697 -2.45,1.41 v 0 C 12.67,45.81 8.16,42.79 4.95,38.6 1.74,34.41 0,29.28 0,24 0,17.64 2.53,11.53 7.03,7.03 11.53,2.53 17.64,0 24,0 30.36,0 36.47,2.53 40.97,7.03 45.47,11.53 48,17.64 48,24 c 0,5.26 -1.73,10.37 -4.91,14.55 -3.19,4.18 -7.66,7.2 -12.73,8.6 v 0 c -1.065,0.293 -2.167,-0.335 -2.46,-1.4 v 0 c -0.293,-1.065 0.335,-2.167 1.4,-2.46 v 0 C 33.52,42.13 37.25,39.61 39.91,36.13 42.56,32.64 44,28.38 44,24 44,18.7 41.89,13.61 38.14,9.86 34.39,6.11 29.3,4 24,4 18.7,4 13.61,6.11 9.86,9.86 6.11,13.61 4,18.7 4,24 c 0,4.4 1.45,8.68 4.13,12.17 2.67,3.49 6.43,6.01 10.68,7.15 z"
       style="fill:url(#_lgradient_2);fill-rule:evenodd"
       inkscape:connector-curvature="0" />
  </g>
</svg>
