<?xml version="1.0" encoding="UTF-8" standalone="no"?>
<!-- Generator: Gravit.io -->

<svg
   xmlns:dc="http://purl.org/dc/elements/1.1/"
   xmlns:cc="http://creativecommons.org/ns#"
   xmlns:rdf="http://www.w3.org/1999/02/22-rdf-syntax-ns#"
   xmlns:svg="http://www.w3.org/2000/svg"
   xmlns="http://www.w3.org/2000/svg"
   xmlns:sodipodi="http://sodipodi.sourceforge.net/DTD/sodipodi-0.dtd"
   xmlns:inkscape="http://www.inkscape.org/namespaces/inkscape"
   style="isolation:isolate"
   viewBox="0 0 36 36"
   width="48"
   height="48"
   version="1.1"
   id="svg9"
   sodipodi:docname="kid3.svg"
   inkscape:version="0.92.4 (5da689c313, 2019-01-14)">
  <metadata
     id="metadata15">
    <rdf:RDF>
      <cc:Work
         rdf:about="">
        <dc:format>image/svg+xml</dc:format>
        <dc:type
           rdf:resource="http://purl.org/dc/dcmitype/StillImage" />
        <dc:title></dc:title>
      </cc:Work>
    </rdf:RDF>
  </metadata>
  <defs
     id="defs13" />
  <sodipodi:namedview
     pagecolor="#ffffff"
     bordercolor="#666666"
     borderopacity="1"
     objecttolerance="10"
     gridtolerance="10"
     guidetolerance="10"
     inkscape:pageopacity="0"
     inkscape:pageshadow="2"
     inkscape:window-width="640"
     inkscape:window-height="480"
     id="namedview11"
     showgrid="false"
     inkscape:zoom="29.365243"
     inkscape:cx="25.325443"
     inkscape:cy="32"
     inkscape:current-layer="svg9"
     units="px" />
  <linearGradient
     id="_lgradient_15"
     x1="0"
     y1="0.5"
     x2="1"
     y2="0.5"
     gradientTransform="matrix(44,0,0,44,2,2)"
     gradientUnits="userSpaceOnUse">
    <stop
       offset="0%"
       stop-opacity="1"
       style="stop-color:rgb(67,233,123)"
       id="stop2" />
    <stop
       offset="97.82608695652173%"
       stop-opacity="1"
       style="stop-color:rgb(56,249,215)"
       id="stop4" />
  </linearGradient>
  <g
     id="g826"
     transform="matrix(0.81818182,0,0,0.81818182,-1.6363637,-1.6363637)">
    <path
       id="path7"
       d="m 42.174,33.135 v 0 c 0,-1.056 0.857,-1.913 1.913,-1.913 v 0 c 1.056,0 1.913,0.857 1.913,1.913 v 0 8.082 C 46,43.857 43.857,46 41.217,46 H 6.783 C 4.143,46 2,43.857 2,41.217 V 6.783 C 2,4.143 4.143,2 6.783,2 H 41.217 C 43.857,2 46,4.143 46,6.783 v 14.089 c 0,1.056 -0.428,2.656 -0.955,3.571 l -7.016,12.183 c -0.79,1.373 -2.609,1.97 -4.059,1.334 l -22.376,-9.818 -3.31,-8.819 5.519,-9.891 8.82,-1.052 15.046,7.451 v 0 c 0.934,0.491 1.294,1.648 0.803,2.583 v 0 c -0.491,0.934 -1.648,1.294 -2.582,0.803 v 0 L 21.896,12.321 16.195,13 l -3.702,6.638 2.171,5.787 19.857,8.39 c 0.486,0.205 1.083,-0.006 1.333,-0.471 l 5.868,-10.94 c 0.249,-0.465 0.452,-1.272 0.452,-1.8 V 8.696 c 0,-1.584 -1.286,-2.87 -2.87,-2.87 H 8.696 c -1.584,0 -2.87,1.286 -2.87,2.87 v 30.608 c 0,1.584 1.286,2.87 2.87,2.87 h 30.608 c 1.584,0 2.87,-1.286 2.87,-2.87 z m -12.323,-12.6 -4.914,-2.373 -1.117,2.312 4.914,2.373 z m 1.905,0.92 -2.036,4.218 -6.82,-3.293 -1.098,2.273 6.82,3.293 -0.92,1.906 -6.82,-3.293 v 0 q -0.387,-0.187 -0.663,-0.505 v 0 0 q -0.275,-0.318 -0.408,-0.698 v 0 0 q -0.133,-0.381 -0.114,-0.801 v 0 0 q 0.018,-0.421 0.209,-0.818 v 0 l 3.135,-6.49 v 0 q 0.191,-0.397 0.509,-0.673 v 0 0 q 0.318,-0.276 0.698,-0.408 v 0 0 q 0.381,-0.133 0.801,-0.115 v 0 0 q 0.421,0.019 0.808,0.205 v 0 l 4.914,2.373 v 0 q 0.397,0.192 0.672,0.51 v 0 0 q 0.276,0.318 0.409,0.698 v 0 0 q 0.132,0.38 0.114,0.801 v 0 0 q -0.018,0.42 -0.21,0.817 z"
       inkscape:connector-curvature="0"
       style="fill:url(#_lgradient_15);fill-rule:evenodd" />
  </g>
</svg>
