<?xml version="1.0" encoding="UTF-8" standalone="no"?>
<!-- Generator: Gravit.io -->

<svg
   xmlns:dc="http://purl.org/dc/elements/1.1/"
   xmlns:cc="http://creativecommons.org/ns#"
   xmlns:rdf="http://www.w3.org/1999/02/22-rdf-syntax-ns#"
   xmlns:svg="http://www.w3.org/2000/svg"
   xmlns="http://www.w3.org/2000/svg"
   xmlns:sodipodi="http://sodipodi.sourceforge.net/DTD/sodipodi-0.dtd"
   xmlns:inkscape="http://www.inkscape.org/namespaces/inkscape"
   style="isolation:isolate"
   viewBox="0 0 36 36"
   width="48"
   height="48"
   version="1.1"
   id="svg9"
   sodipodi:docname="kmouth.svg"
   inkscape:version="0.92.4 (5da689c313, 2019-01-14)">
  <metadata
     id="metadata15">
    <rdf:RDF>
      <cc:Work
         rdf:about="">
        <dc:format>image/svg+xml</dc:format>
        <dc:type
           rdf:resource="http://purl.org/dc/dcmitype/StillImage" />
        <dc:title></dc:title>
      </cc:Work>
    </rdf:RDF>
  </metadata>
  <defs
     id="defs13" />
  <sodipodi:namedview
     pagecolor="#ffffff"
     bordercolor="#666666"
     borderopacity="1"
     objecttolerance="10"
     gridtolerance="10"
     guidetolerance="10"
     inkscape:pageopacity="0"
     inkscape:pageshadow="2"
     inkscape:window-width="640"
     inkscape:window-height="480"
     id="namedview11"
     showgrid="false"
     inkscape:zoom="29.365243"
     inkscape:cx="25.325443"
     inkscape:cy="32"
     inkscape:current-layer="svg9"
     units="px" />
  <linearGradient
     id="_lgradient_8"
     x1="0.21875"
     y1="0.17506042"
     x2="1.0989902"
     y2="1.1181589"
     gradientTransform="matrix(44.002,0,0,39.998,1.998,4)"
     gradientUnits="userSpaceOnUse">
    <stop
       offset="0%"
       stop-opacity="1"
       style="stop-color:rgb(252,203,144)"
       id="stop2" />
    <stop
       offset="83.91304347826087%"
       stop-opacity="1"
       style="stop-color:rgb(213,126,235)"
       id="stop4" />
  </linearGradient>
  <g
     id="g826"
     transform="matrix(0.8181513,0,0,0.8181513,-1.6346662,-1.6348627)">
    <path
       id="path7"
       d="m 15,18.487 v 6.975 c 0,0.551 0.448,1 1,1 h 4.077 l 3.785,2.838 c 0.883,0.662 1.6,0.304 1.6,-0.8 V 15 c 0,-1.104 -0.689,-1.426 -1.537,-0.72 l -3.848,3.207 H 16 c -0.552,0 -1,0.448 -1,1 z m 12.57,0.053 v 0 c -0.541,-0.105 -0.893,-0.629 -0.785,-1.17 v 0 c 0.108,-0.541 0.634,-0.895 1.175,-0.79 v 0 c 1.14,0.23 2.16,0.84 2.89,1.74 0.74,0.9 1.14,2.02 1.14,3.18 0,1.02 -0.31,2.01 -0.89,2.84 -0.57,0.84 -1.39,1.48 -2.34,1.84 v 0 c -0.513,0.199 -1.089,-0.059 -1.285,-0.575 v 0 c -0.196,-0.516 0.062,-1.092 0.575,-1.285 v 0 c 1.17,-0.45 1.94,-1.57 1.94,-2.82 0,-0.7 -0.24,-1.37 -0.68,-1.91 -0.44,-0.54 -1.06,-0.91 -1.74,-1.05 z m 1.83,-2.7 v 0 c -0.508,-0.21 -0.75,-0.794 -0.54,-1.305 v 0 c 0.21,-0.511 0.797,-0.755 1.31,-0.545 v 0 c 1.48,0.62 2.75,1.66 3.65,2.99 0.89,1.34 1.37,2.91 1.37,4.52 0,3.03 -1.7,5.82 -4.4,7.21 v 0 c -0.486,0.254 -1.086,0.061 -1.34,-0.43 v 0 c -0.254,-0.491 -0.061,-1.092 0.43,-1.34 v 0 c 2.03,-1.05 3.31,-3.16 3.31,-5.44 0,-1.21 -0.36,-2.4 -1.03,-3.4 -0.68,-1.01 -1.64,-1.79 -2.76,-2.26 z M 41.998,30.5 v 0 c 0,1.104 0.897,2 2,2 v 0 c 1.104,0 2,-0.896 2,-2 v 0 V 11 c 0,-3.863 -3.136,-7 -7,-7 h -30 c -3.863,0 -7,3.137 -7,7 v 21.6 c 0,3.863 3.137,7 7,7 h 25.91 l 8.36,4.26 v 0 c 1.032,0.403 2.195,-0.106 2.595,-1.135 v 0 c 0.4,-1.029 -0.108,-2.188 -1.135,-2.585 v 0 L 36.553,36.048 C 36.059,35.801 35.21,35.6 34.658,35.6 H 8.998 c -1.655,0 -3,-1.344 -3,-3 V 11 c 0,-1.656 1.345,-3 3,-3 h 30 c 1.656,0 3,1.344 3,3 z"
       style="fill:url(#_lgradient_8);fill-rule:evenodd"
       inkscape:connector-curvature="0" />
  </g>
</svg>
