<?xml version="1.0" encoding="UTF-8" standalone="no"?>
<!-- Generator: Gravit.io -->

<svg
   xmlns:dc="http://purl.org/dc/elements/1.1/"
   xmlns:cc="http://creativecommons.org/ns#"
   xmlns:rdf="http://www.w3.org/1999/02/22-rdf-syntax-ns#"
   xmlns:svg="http://www.w3.org/2000/svg"
   xmlns="http://www.w3.org/2000/svg"
   xmlns:sodipodi="http://sodipodi.sourceforge.net/DTD/sodipodi-0.dtd"
   xmlns:inkscape="http://www.inkscape.org/namespaces/inkscape"
   style="isolation:isolate"
   viewBox="0 0 36 36"
   width="48"
   height="48"
   version="1.1"
   id="svg9"
   sodipodi:docname="kontact-import-wizard.svg"
   inkscape:version="0.92.4 (5da689c313, 2019-01-14)">
  <metadata
     id="metadata15">
    <rdf:RDF>
      <cc:Work
         rdf:about="">
        <dc:format>image/svg+xml</dc:format>
        <dc:type
           rdf:resource="http://purl.org/dc/dcmitype/StillImage" />
        <dc:title></dc:title>
      </cc:Work>
    </rdf:RDF>
  </metadata>
  <defs
     id="defs13" />
  <sodipodi:namedview
     pagecolor="#ffffff"
     bordercolor="#666666"
     borderopacity="1"
     objecttolerance="10"
     gridtolerance="10"
     guidetolerance="10"
     inkscape:pageopacity="0"
     inkscape:pageshadow="2"
     inkscape:window-width="640"
     inkscape:window-height="480"
     id="namedview11"
     showgrid="false"
     inkscape:zoom="29.365243"
     inkscape:cx="25.325443"
     inkscape:cy="32"
     inkscape:current-layer="svg9"
     units="px" />
  <linearGradient
     id="_lgradient_28"
     x1="0.21875"
     y1="0.17506042"
     x2="1.0989902"
     y2="1.1181589"
     gradientTransform="matrix(44,0,0,45.475,2,0.525)"
     gradientUnits="userSpaceOnUse">
    <stop
       offset="0%"
       stop-opacity="1"
       style="stop-color:rgb(252,203,144)"
       id="stop2" />
    <stop
       offset="83.91304347826087%"
       stop-opacity="1"
       style="stop-color:rgb(213,126,235)"
       id="stop4" />
  </linearGradient>
  <g
     id="g826"
     transform="matrix(0.79164811,0,0,0.79164811,-0.99955464,-0.41581311)">
    <path
       id="path7"
       d="m 42,26 v 0 c 0,-1.104 0.896,-2 2,-2 v 0 c 1.104,0 2,0.896 2,2 v 0 15 c 0,2.76 -2.24,5 -5,5 H 7 C 4.24,46 2,43.76 2,41 v -15 0 c 0,-1.104 0.896,-2 2,-2 v 0 c 1.104,0 2,0.896 2,2 v 0 13 c 0,1.656 1.344,3 3,3 h 30 c 1.656,0 3,-1.344 3,-3 z m -7,-9.945 6,-0.085 c 0.552,0 1,0.396 1,0.883 V 17.7 c 0,0.488 -0.339,1.142 -0.756,1.461 L 26.267,30.618 c -1.251,0.957 -3.283,0.957 -4.534,0 L 6.756,19.161 C 6.339,18.842 6,18.188 6,17.7 V 16.853 C 6,16.366 6.448,15.97 7,15.97 h 6 c 1.104,0 2,-0.791 2,-1.765 v 0 C 15,13.231 14.104,12.44 13,12.44 H 4 c -1.104,0 -2,0.791 -2,1.765 v 4.449 c 0,0.974 0.687,2.272 1.534,2.897 l 16.631,12.277 c 2.116,1.563 5.554,1.563 7.67,0 L 44.466,21.551 C 45.313,20.926 46,19.628 46,18.654 V 14.205 C 46,13.231 45.104,12.44 44,12.44 h -9 c -1.104,0 -2,0.816 -2,1.822 v 0 c 0,1.005 0.896,1.809 2,1.793 z m -9.884,5.184 v 0 c 0,0.616 0.499,1.116 1.115,1.116 v 0 c 0.616,0 1.116,-0.5 1.116,-1.116 v 0 -0.949 0 c 0,-0.616 -0.5,-1.116 -1.116,-1.116 v 0 c -0.616,0 -1.115,0.5 -1.115,1.116 v 0 z m 0,-5.155 v 0 c 0,0.615 0.499,1.115 1.115,1.115 v 0 c 0.616,0 1.116,-0.5 1.116,-1.115 v 0 -4.835 h 3.808 c 2.052,0 2.618,-1.251 1.262,-2.792 L 26.456,1.681 c -1.355,-1.541 -3.557,-1.541 -4.912,0 l -5.961,6.776 c -1.356,1.541 -0.79,2.792 1.262,2.792 h 3.808 v 9.99 0 c 0,0.616 0.5,1.116 1.116,1.116 v 0 c 0.616,0 1.115,-0.5 1.115,-1.116 v 0 -12.221 h -3.629 c -0.41,0 -0.538,-0.262 -0.284,-0.584 L 23.54,2.627 c 0.254,-0.323 0.666,-0.323 0.92,0 l 4.569,5.807 c 0.254,0.322 0.126,0.584 -0.284,0.584 h -3.629 z"
       style="fill:url(#_lgradient_28);fill-rule:evenodd"
       inkscape:connector-curvature="0" />
  </g>
</svg>
