<?xml version="1.0" encoding="UTF-8" standalone="no"?>
<!-- Generator: Gravit.io -->

<svg
   xmlns:dc="http://purl.org/dc/elements/1.1/"
   xmlns:cc="http://creativecommons.org/ns#"
   xmlns:rdf="http://www.w3.org/1999/02/22-rdf-syntax-ns#"
   xmlns:svg="http://www.w3.org/2000/svg"
   xmlns="http://www.w3.org/2000/svg"
   xmlns:sodipodi="http://sodipodi.sourceforge.net/DTD/sodipodi-0.dtd"
   xmlns:inkscape="http://www.inkscape.org/namespaces/inkscape"
   style="isolation:isolate"
   viewBox="0 0 48 48"
   width="48"
   height="48"
   version="1.1"
   id="svg9"
   sodipodi:docname="korganizer.svg"
   inkscape:version="0.92.4 (5da689c313, 2019-01-14)">
  <metadata
     id="metadata15">
    <rdf:RDF>
      <cc:Work
         rdf:about="">
        <dc:format>image/svg+xml</dc:format>
        <dc:type
           rdf:resource="http://purl.org/dc/dcmitype/StillImage" />
        <dc:title></dc:title>
      </cc:Work>
    </rdf:RDF>
  </metadata>
  <defs
     id="defs13" />
  <sodipodi:namedview
     pagecolor="#ffffff"
     bordercolor="#666666"
     borderopacity="1"
     objecttolerance="10"
     gridtolerance="10"
     guidetolerance="10"
     inkscape:pageopacity="0"
     inkscape:pageshadow="2"
     inkscape:window-width="640"
     inkscape:window-height="480"
     id="namedview11"
     showgrid="false"
     inkscape:zoom="39.153656"
     inkscape:cx="18.994082"
     inkscape:cy="24"
     inkscape:current-layer="svg9" />
  <linearGradient
     id="_lgradient_1"
     x1="0"
     y1="0.5"
     x2="0.90748805"
     y2="0.92007786"
     gradientTransform="matrix(44,0,0,44,2,2)"
     gradientUnits="userSpaceOnUse">
    <stop
       offset="0%"
       stop-opacity="1"
       style="stop-color:rgb(255,65,108)"
       id="stop2" />
    <stop
       offset="84.34782608695653%"
       stop-opacity="1"
       style="stop-color:rgb(255,75,43)"
       id="stop4" />
  </linearGradient>
  <g
     id="g826"
     transform="matrix(1.0909091,0,0,1.0909091,-2.1818184,-2.1818184)">
    <path
       id="path7"
       d="m 8,24 c 0,-1.104 0.896,-2 2,-2 1.104,0 2,0.896 2,2 0,1.104 -0.896,2 -2,2 -1.104,0 -2,-0.896 -2,-2 z m 0,9 c 0,-1.104 0.896,-2 2,-2 1.104,0 2,0.896 2,2 0,1.104 -0.896,2 -2,2 -1.104,0 -2,-0.896 -2,-2 z m 5.235,-21.827 v 0 c 0.327,-0.322 0.854,-0.32 1.178,0.004 v 0 c 0.324,0.324 0.326,0.851 0.004,1.178 v 0 l -4.65,4.644 C 8.792,17.973 8,17.645 8,16.267 v -2.006 0 c 0,-0.46 0.373,-0.833 0.832,-0.833 v 0 c 0.46,0 0.833,0.373 0.833,0.833 v 0 0.491 z M 41.17,42.174 v 0 c 1.01,0 1.83,0.857 1.83,1.913 v 0 C 43,45.143 42.18,46 41.17,46 v 0 H 8.548 C 4.934,46 2,43.066 2,39.452 v -26.93 0 c 0,-1.056 0.82,-1.913 1.83,-1.913 v 0 c 1.01,0 1.83,0.857 1.83,1.913 v 0 26.845 c 0,1.549 1.257,2.807 2.806,2.807 z M 6.83,5.826 v 0 C 5.82,5.826 5,4.969 5,3.913 v 0 C 5,2.857 5.82,2 6.83,2 V 2 H 39.452 C 43.066,2 46,4.934 46,8.548 v 26.93 0 c 0,1.056 -0.82,1.913 -1.83,1.913 v 0 c -1.01,0 -1.83,-0.857 -1.83,-1.913 v 0 -24.974 c 0,-2.582 -2.096,-4.678 -4.677,-4.678 H 6.83 Z m 13.047,6.543 h 17.246 c 1.036,0 1.877,0.841 1.877,1.877 v 0 c 0,1.036 -0.841,1.877 -1.877,1.877 H 19.877 C 18.841,16.123 18,15.282 18,14.246 v 0 c 0,-1.036 0.841,-1.877 1.877,-1.877 z m 0,9.877 h 17.246 c 1.036,0 1.877,0.841 1.877,1.877 v 0 C 39,25.159 38.159,26 37.123,26 H 19.877 C 18.841,26 18,25.159 18,24.123 v 0 c 0,-1.036 0.841,-1.877 1.877,-1.877 z m 0,9 h 17.246 c 1.036,0 1.877,0.841 1.877,1.877 v 0 C 39,34.159 38.159,35 37.123,35 H 19.877 C 18.841,35 18,34.159 18,33.123 v 0 c 0,-1.036 0.841,-1.877 1.877,-1.877 z"
       inkscape:connector-curvature="0"
       style="fill:url(#_lgradient_1);fill-rule:evenodd" />
  </g>
</svg>
