<?xml version="1.0" encoding="UTF-8" standalone="no"?>
<!-- Generator: Gravit.io -->

<svg
   xmlns:dc="http://purl.org/dc/elements/1.1/"
   xmlns:cc="http://creativecommons.org/ns#"
   xmlns:rdf="http://www.w3.org/1999/02/22-rdf-syntax-ns#"
   xmlns:svg="http://www.w3.org/2000/svg"
   xmlns="http://www.w3.org/2000/svg"
   xmlns:sodipodi="http://sodipodi.sourceforge.net/DTD/sodipodi-0.dtd"
   xmlns:inkscape="http://www.inkscape.org/namespaces/inkscape"
   style="isolation:isolate"
   viewBox="0 0 36 36"
   width="48"
   height="48"
   version="1.1"
   id="svg9"
   sodipodi:docname="kphotoalbum.svg"
   inkscape:version="0.92.4 (5da689c313, 2019-01-14)">
  <metadata
     id="metadata15">
    <rdf:RDF>
      <cc:Work
         rdf:about="">
        <dc:format>image/svg+xml</dc:format>
        <dc:type
           rdf:resource="http://purl.org/dc/dcmitype/StillImage" />
        <dc:title></dc:title>
      </cc:Work>
    </rdf:RDF>
  </metadata>
  <defs
     id="defs13" />
  <sodipodi:namedview
     pagecolor="#ffffff"
     bordercolor="#666666"
     borderopacity="1"
     objecttolerance="10"
     gridtolerance="10"
     guidetolerance="10"
     inkscape:pageopacity="0"
     inkscape:pageshadow="2"
     inkscape:window-width="640"
     inkscape:window-height="480"
     id="namedview11"
     showgrid="false"
     inkscape:zoom="29.365243"
     inkscape:cx="25.325443"
     inkscape:cy="32"
     inkscape:current-layer="svg9"
     units="px" />
  <linearGradient
     id="_lgradient_49"
     x1="0.67180997"
     y1="0.020570019"
     x2="0.42214948"
     y2="0.96016449"
     gradientTransform="matrix(44.964,0,0,47.134,1.518,0.48)"
     gradientUnits="userSpaceOnUse">
    <stop
       offset="0%"
       stop-opacity="1"
       style="stop-color:rgb(26,108,255)"
       id="stop2" />
    <stop
       offset="100%"
       stop-opacity="1"
       style="stop-color:rgb(197,34,255)"
       id="stop4" />
  </linearGradient>
  <g
     id="g826"
     transform="matrix(0.76377642,0,0,0.76377642,-0.33063408,-0.36645052)">
    <path
       id="path7"
       d="m 35.671,41.432 h 4.092 c 1.712,0 3.101,-1.389 3.101,-3.101 V 23.209 c 0,-1.712 -1.389,-3.101 -3.101,-3.101 H 8.237 c -1.712,0 -3.101,1.389 -3.101,3.101 v 3.258 0 c 0,0.04 -0.001,0.08 -0.008,0.118 v 0 0 c 0.007,0.038 0.008,0.078 0.008,0.118 v 0 11.628 c 0,1.712 1.389,3.101 3.101,3.101 h 5.125 C 12.064,39.356 11.361,36.94 11.361,34.456 v 0 c 0,-3.493 1.382,-6.842 3.849,-9.31 2.468,-2.458 5.817,-3.849 9.31,-3.849 3.484,0 6.833,1.391 9.3,3.849 2.467,2.468 3.858,5.817 3.858,9.31 0,2.484 -0.707,4.9 -2.007,6.976 z m -3.356,3.618 h 0.988 8.011 c 2.852,0 5.168,-2.316 5.168,-5.168 V 25.599 21.658 c 0,-2.852 -2.316,-5.168 -5.168,-5.168 H 32.687 L 30.253,2.177 C 30.064,1.068 29.011,0.32 27.902,0.509 L 17.125,2.342 v 0 c -0.74,0.125 -1.238,0.828 -1.112,1.567 v 0 c 0.126,0.739 0.828,1.238 1.567,1.112 v 0 L 26.348,3.53 c 0.739,-0.126 1.442,0.372 1.567,1.112 l 0.409,2.4 C 28.211,7.105 28.108,7.19 28.022,7.297 v 0 L 22,12.813 c -0.277,0.254 -0.749,0.283 -1.055,0.066 l -4.1,-2.908 C 15.927,9.32 14.594,9.491 13.87,10.351 L 8.702,16.49 H 8.551 L 7.15,8.173 C 7.025,7.433 7.524,6.731 8.263,6.605 l 3.718,-0.632 v 0 C 12.72,5.847 13.218,5.145 13.093,4.406 v 0 C 12.967,3.666 12.264,3.168 11.525,3.294 v 0 L 5.798,4.268 C 4.689,4.456 3.945,5.509 4.138,6.618 l 1.728,9.937 v 0 0 c -2.463,0.393 -4.348,2.53 -4.348,5.103 v 4.809 0 c 0,0.04 10e-4,0.08 0.008,0.118 -0.007,0.038 -0.008,0.078 -0.008,0.118 v 0 13.179 c 0,2.852 2.316,5.168 5.168,5.168 h 8.011 2.019 c 2.246,1.654 4.978,2.564 7.804,2.564 2.819,0 5.549,-0.91 7.795,-2.564 z M 29.493,16.49 c 0.224,-0.264 0.331,-0.624 0.265,-1.011 l -1.029,-6.05 -5.376,5.2 c -0.809,0.782 -2.21,0.888 -3.128,0.237 l -4.006,-2.841 c -0.305,-0.217 -0.754,-0.164 -1,0.119 l -3.791,4.346 v 0 z M 21.856,7.509 c -0.157,-0.924 0.465,-1.802 1.39,-1.959 0.924,-0.157 1.802,0.466 1.959,1.39 0.157,0.924 -0.466,1.802 -1.39,1.959 -0.924,0.157 -1.802,-0.466 -1.959,-1.39 z m 4.47,33.148 v 0 c 0.684,-0.2 1.402,0.194 1.602,0.879 v 0 c 0.2,0.684 -0.199,1.402 -0.889,1.602 v 0 c -0.817,0.238 -1.664,0.362 -2.522,0.362 -2.398,0 -4.703,-0.951 -6.398,-2.647 -1.696,-1.695 -2.647,-4 -2.647,-6.398 0,-2.398 0.951,-4.703 2.647,-6.398 1.695,-1.695 4,-2.646 6.398,-2.646 2.398,0 4.703,0.951 6.398,2.646 1.695,1.695 2.646,4 2.646,6.398 0,1.695 -0.475,3.359 -1.374,4.796 v 0 c -0.377,0.605 -1.174,0.788 -1.778,0.409 v 0 c -0.605,-0.38 -0.79,-1.179 -0.414,-1.783 v 0 c 0.641,-1.024 0.982,-2.212 0.982,-3.422 0,-1.716 -0.682,-3.359 -1.891,-4.569 -1.21,-1.209 -2.853,-1.891 -4.569,-1.891 -1.716,0 -3.36,0.682 -4.569,1.891 -1.209,1.21 -1.891,2.853 -1.891,4.569 0,1.716 0.682,3.359 1.891,4.569 1.209,1.209 2.853,1.891 4.569,1.891 0.61,0 1.22,-0.082 1.809,-0.258 z M 9.529,21.894 v 0 c 0.828,0 1.5,0.672 1.5,1.5 v 0 c 0,0.828 -0.672,1.5 -1.5,1.5 v 0 c -0.828,0 -1.5,-0.672 -1.5,-1.5 v 0 c 0,-0.828 0.672,-1.5 1.5,-1.5 z m 4.376,12.562 c 0,-2.815 1.119,-5.52 3.103,-7.504 1.992,-1.992 4.697,-3.111 7.512,-3.111 2.814,0 5.51,1.119 7.503,3.111 1.992,1.984 3.111,4.689 3.111,7.504 0,2.814 -1.119,5.519 -3.111,7.503 -1.993,1.992 -4.689,3.111 -7.503,3.111 -2.815,0 -5.52,-1.119 -7.512,-3.111 -1.984,-1.984 -3.103,-4.689 -3.103,-7.503 z"
       style="fill:url(#_lgradient_49);fill-rule:evenodd"
       inkscape:connector-curvature="0" />
  </g>
</svg>
