<?xml version="1.0" encoding="UTF-8" standalone="no"?>
<!-- Generator: Gravit.io -->

<svg
   xmlns:dc="http://purl.org/dc/elements/1.1/"
   xmlns:cc="http://creativecommons.org/ns#"
   xmlns:rdf="http://www.w3.org/1999/02/22-rdf-syntax-ns#"
   xmlns:svg="http://www.w3.org/2000/svg"
   xmlns="http://www.w3.org/2000/svg"
   xmlns:sodipodi="http://sodipodi.sourceforge.net/DTD/sodipodi-0.dtd"
   xmlns:inkscape="http://www.inkscape.org/namespaces/inkscape"
   style="isolation:isolate"
   viewBox="0 0 36 36"
   width="48"
   height="48"
   version="1.1"
   id="svg11"
   sodipodi:docname="kruler.svg"
   inkscape:version="0.92.4 (5da689c313, 2019-01-14)">
  <metadata
     id="metadata17">
    <rdf:RDF>
      <cc:Work
         rdf:about="">
        <dc:format>image/svg+xml</dc:format>
        <dc:type
           rdf:resource="http://purl.org/dc/dcmitype/StillImage" />
        <dc:title></dc:title>
      </cc:Work>
    </rdf:RDF>
  </metadata>
  <defs
     id="defs15" />
  <sodipodi:namedview
     pagecolor="#ffffff"
     bordercolor="#666666"
     borderopacity="1"
     objecttolerance="10"
     gridtolerance="10"
     guidetolerance="10"
     inkscape:pageopacity="0"
     inkscape:pageshadow="2"
     inkscape:window-width="640"
     inkscape:window-height="480"
     id="namedview13"
     showgrid="false"
     inkscape:zoom="29.365243"
     inkscape:cx="25.325443"
     inkscape:cy="32"
     inkscape:current-layer="svg11"
     units="px" />
  <linearGradient
     id="_lgradient_0"
     x1="0"
     y1="0.5"
     x2="1"
     y2="0.5"
     gradientTransform="matrix(47.4,0,0,29.4,0.3,10.3)"
     gradientUnits="userSpaceOnUse">
    <stop
       offset="0%"
       stop-opacity="1"
       style="stop-color:rgb(34,216,143)"
       id="stop2" />
    <stop
       offset="51.73913043478261%"
       stop-opacity="1"
       style="stop-color:rgb(147,135,218)"
       id="stop4" />
    <stop
       offset="98.69565217391305%"
       stop-opacity="1"
       style="stop-color:rgb(255,89,230)"
       id="stop6" />
  </linearGradient>
  <g
     id="g825"
     transform="matrix(0.75949367,0,0,0.75949367,-0.22784808,-0.98734175)">
    <path
       id="path9"
       d="m 30,13.7 h -4.812 v 8.238 h -2.5 v -8.238 0 H 18 V 25 h -4 v -11.3 0 h -4 v 0 8.3 H 7.5 V 13.7 H 3.7 v 22.6 h 40.6 v -22.6 0 0 h -3.8 v 0 0 8.425 H 38 V 13.7 h -4 v 11.425 h -4 z m 5.535,19.798 V 34.9 h -5.513 v -1.159 l 1.979,-2.002 v 0 q 0.88,-0.901 1.149,-1.249 v 0 0 q 0.27,-0.348 0.389,-0.644 v 0 0 q 0.118,-0.297 0.118,-0.615 v 0 0 q 0,-0.475 -0.261,-0.707 v 0 0 q -0.262,-0.232 -0.699,-0.232 v 0 0 q -0.458,0 -0.89,0.211 v 0 0 q -0.431,0.21 -0.901,0.598 v 0 L 30,28.028 v 0 q 0.583,-0.496 0.966,-0.701 v 0 0 q 0.383,-0.205 0.836,-0.316 v 0 0 Q 32.255,26.9 32.816,26.9 v 0 0 q 0.739,0 1.305,0.27 v 0 0 q 0.567,0.27 0.88,0.755 v 0 0 q 0.313,0.486 0.313,1.112 v 0 0 q 0,0.544 -0.192,1.022 v 0 0 q -0.191,0.477 -0.593,0.979 v 0 0 q -0.402,0.502 -1.416,1.429 v 0 l -1.015,0.955 v 0.076 z M 17.918,27 v 7.9 h -1.67 v -4.571 l 0.016,-0.751 0.027,-0.822 v 0 q -0.416,0.416 -0.578,0.546 v 0 L 14.805,30.032 14,29.026 16.545,27 Z M 47.7,12.3 v 25.4 c 0,1.104 -0.896,2 -2,2 H 2.3 c -1.104,0 -2,-0.896 -2,-2 V 12.3 c 0,-1.104 0.896,-2 2,-2 h 43.4 c 1.104,0 2,0.896 2,2 z"
       style="fill:url(#_lgradient_0);fill-rule:evenodd"
       inkscape:connector-curvature="0" />
  </g>
</svg>
