<?xml version="1.0" encoding="UTF-8" standalone="no"?>
<!-- Generator: Gravit.io -->

<svg
   xmlns:dc="http://purl.org/dc/elements/1.1/"
   xmlns:cc="http://creativecommons.org/ns#"
   xmlns:rdf="http://www.w3.org/1999/02/22-rdf-syntax-ns#"
   xmlns:svg="http://www.w3.org/2000/svg"
   xmlns="http://www.w3.org/2000/svg"
   xmlns:sodipodi="http://sodipodi.sourceforge.net/DTD/sodipodi-0.dtd"
   xmlns:inkscape="http://www.inkscape.org/namespaces/inkscape"
   style="isolation:isolate"
   viewBox="0 0 48 48"
   width="48"
   height="48"
   version="1.1"
   id="svg18"
   sodipodi:docname="kvantum.svg"
   inkscape:version="0.92.4 (5da689c313, 2019-01-14)">
  <metadata
     id="metadata24">
    <rdf:RDF>
      <cc:Work
         rdf:about="">
        <dc:format>image/svg+xml</dc:format>
        <dc:type
           rdf:resource="http://purl.org/dc/dcmitype/StillImage" />
        <dc:title></dc:title>
      </cc:Work>
    </rdf:RDF>
  </metadata>
  <defs
     id="defs22" />
  <sodipodi:namedview
     pagecolor="#ffffff"
     bordercolor="#666666"
     borderopacity="1"
     objecttolerance="10"
     gridtolerance="10"
     guidetolerance="10"
     inkscape:pageopacity="0"
     inkscape:pageshadow="2"
     inkscape:window-width="640"
     inkscape:window-height="480"
     id="namedview20"
     showgrid="false"
     inkscape:zoom="39.153656"
     inkscape:cx="18.994082"
     inkscape:cy="24"
     inkscape:current-layer="svg18" />
  <linearGradient
     id="_lgradient_17"
     x1="-0.014458464"
     y1="0.009839246"
     x2="1.0164566"
     y2="1.072293"
     gradientTransform="matrix(38.04,0,0,36.08,4.8,2.52)"
     gradientUnits="userSpaceOnUse">
    <stop
       offset="0%"
       stop-opacity="1"
       style="stop-color:rgb(249,212,35)"
       id="stop2" />
    <stop
       offset="47.619422866010865%"
       stop-opacity="1"
       style="stop-color:rgb(255,78,80)"
       id="stop4" />
    <stop
       offset="99.1304347826087%"
       stop-opacity="1"
       style="stop-color:rgb(138,35,135)"
       id="stop6" />
  </linearGradient>
  <linearGradient
     id="_lgradient_18"
     x1="0"
     y1="0.5"
     x2="1"
     y2="0.5"
     gradientTransform="matrix(44,0,0,4,2,41)"
     gradientUnits="userSpaceOnUse">
    <stop
       offset="0%"
       stop-opacity="1"
       style="stop-color:rgb(178,254,250)"
       id="stop11" />
    <stop
       offset="98.26086956521739%"
       stop-opacity="1"
       style="stop-color:rgb(14,210,247)"
       id="stop13" />
  </linearGradient>
  <g
     id="g836"
     transform="matrix(1.0909091,0,0,1.0909091,-2.1818184,-1.9200002)">
    <path
       id="path9"
       d="m 17.48,29.68 -3.684,-4.285 c -1.08,-1.256 -2.011,-0.932 -2.078,0.723 L 11.56,30 l 0.28,3.96 q -0.44,0.12 -1.4,0.24 v 0 0 q -0.96,0.12 -1.88,0.12 v 0 0 q -0.92,0 -1.62,-0.14 v 0 0 q -0.7,-0.14 -1.18,-0.5 v 0 0 q -0.48,-0.36 -0.72,-1 v 0 0 Q 4.8,32.04 4.8,31 v 0 -28.12 0 Q 5.24,2.8 6.2,2.66 v 0 0 Q 7.16,2.52 8.04,2.52 v 0 0 q 0.92,0 1.62,0.14 v 0 0 q 0.7,0.14 1.18,0.5 v 0 0 q 0.48,0.36 0.72,1 v 0 0 Q 11.8,4.8 11.8,5.84 v 0 8.36 c 0,1.656 0.825,1.939 1.841,0.632 L 23.12,2.64 v 0 q 2.72,0 3.9,1.02 v 0 0 q 1.18,1.02 1.18,2.42 v 0 0 q 0,1.04 -0.52,1.96 v 0 0 Q 27.16,8.96 26,10.12 v 0 l -8,10 v 0 q 1,1.12 2.1,2.32 v 0 0 q 1.1,1.2 2.16,2.34 v 0 0 q 1.06,1.14 2.04,2.18 v 0 0 q 0.98,1.04 1.7,1.8 v 0 0 q 0,0.88 -0.32,1.56 v 0 0 Q 25.36,31 24.82,31.48 v 0 0 q -0.54,0.48 -1.22,0.72 v 0 0 q -0.68,0.24 -1.44,0.24 v 0 0 q -1.64,0 -2.68,-0.82 v 0 0 q -1.04,-0.82 -2,-1.94 z m 19.6,7.92 v 0 0 q -0.56,0.44 -1.64,0.72 v 0 0 Q 34.36,38.6 33,38.6 v 0 0 q -1.56,0 -2.7,-0.4 v 0 0 q -1.14,-0.4 -1.58,-1.28 v 0 0 q -0.36,-0.68 -0.86,-1.9 v 0 0 Q 27.36,33.8 26.8,32.3 v 0 0 q -0.56,-1.5 -1.16,-3.22 v 0 0 q -0.6,-1.72 -1.14,-3.4 v 0 0 Q 23.96,24 23.52,22.44 v 0 0 Q 23.08,20.88 22.8,19.68 v 0 0 q 0.56,-0.56 1.5,-0.98 v 0 0 q 0.94,-0.42 2.06,-0.42 v 0 0 q 1.4,0 2.3,0.58 v 0 0 q 0.9,0.58 1.34,2.18 v 0 l 1.56,6.12 v 0 q 0.44,1.8 0.84,3.26 v 0 0 q 0.4,1.46 0.6,2.26 v 0 h 0.2 v 0 q 0.76,-2.96 1.6,-6.56 v 0 0 q 0.84,-3.6 1.52,-7.08 v 0 0 Q 37,18.68 37.86,18.48 v 0 0 q 0.86,-0.2 1.66,-0.2 v 0 0 q 1.4,0 2.36,0.6 v 0 0 q 0.96,0.6 0.96,2.08 v 0 0 q 0,0.64 -0.3,1.86 v 0 0 q -0.3,1.22 -0.76,2.76 v 0 0 q -0.46,1.54 -1.08,3.26 v 0 0 q -0.62,1.72 -1.26,3.36 v 0 0 q -0.64,1.64 -1.26,3.06 v 0 0 q -0.62,1.42 -1.1,2.34 z"
       style="fill:url(#_lgradient_17)"
       inkscape:connector-curvature="0" />
    <path
       id="path16"
       d="m 4,41 h 13 c 1.104,0 2,0.896 2,2 v 0 c 0,1.104 -0.896,2 -2,2 H 4 C 2.896,45 2,44.104 2,43 v 0 c 0,-1.104 0.896,-2 2,-2 z m 27,0 h 13 c 1.104,0 2,0.896 2,2 v 0 c 0,1.104 -0.896,2 -2,2 H 31 c -1.104,0 -2,-0.896 -2,-2 v 0 c 0,-1.104 0.896,-2 2,-2 z m -8.93,2 c 0,-1.104 0.896,-2 2,-2 1.104,0 2,0.896 2,2 0,1.104 -0.896,2 -2,2 -1.104,0 -2,-0.896 -2,-2 z"
       style="fill:url(#_lgradient_18);fill-rule:evenodd"
       inkscape:connector-curvature="0" />
  </g>
</svg>
