<?xml version="1.0" encoding="UTF-8" standalone="no"?>
<!-- Generator: Gravit.io -->

<svg
   xmlns:dc="http://purl.org/dc/elements/1.1/"
   xmlns:cc="http://creativecommons.org/ns#"
   xmlns:rdf="http://www.w3.org/1999/02/22-rdf-syntax-ns#"
   xmlns:svg="http://www.w3.org/2000/svg"
   xmlns="http://www.w3.org/2000/svg"
   xmlns:sodipodi="http://sodipodi.sourceforge.net/DTD/sodipodi-0.dtd"
   xmlns:inkscape="http://www.inkscape.org/namespaces/inkscape"
   style="isolation:isolate"
   viewBox="0 0 36 36"
   width="48"
   height="48"
   version="1.1"
   id="svg11"
   sodipodi:docname="kwalletmanager.svg"
   inkscape:version="0.92.4 (5da689c313, 2019-01-14)">
  <metadata
     id="metadata17">
    <rdf:RDF>
      <cc:Work
         rdf:about="">
        <dc:format>image/svg+xml</dc:format>
        <dc:type
           rdf:resource="http://purl.org/dc/dcmitype/StillImage" />
        <dc:title></dc:title>
      </cc:Work>
    </rdf:RDF>
  </metadata>
  <defs
     id="defs15" />
  <sodipodi:namedview
     pagecolor="#ffffff"
     bordercolor="#666666"
     borderopacity="1"
     objecttolerance="10"
     gridtolerance="10"
     guidetolerance="10"
     inkscape:pageopacity="0"
     inkscape:pageshadow="2"
     inkscape:window-width="640"
     inkscape:window-height="480"
     id="namedview13"
     showgrid="false"
     inkscape:zoom="29.365243"
     inkscape:cx="25.325443"
     inkscape:cy="32"
     inkscape:current-layer="svg11"
     units="px" />
  <linearGradient
     id="_lgradient_15"
     x1="0.038281396"
     y1="0.33073235"
     x2="0.97748774"
     y2="0.9850443"
     gradientTransform="matrix(48,0,0,42.094,0,2.953)"
     gradientUnits="userSpaceOnUse">
    <stop
       offset="1.3043478260869565%"
       stop-opacity="1"
       style="stop-color:rgb(254,172,94)"
       id="stop2" />
    <stop
       offset="53.04347826086957%"
       stop-opacity="1"
       style="stop-color:rgb(199,121,208)"
       id="stop4" />
    <stop
       offset="99.56521739130434%"
       stop-opacity="1"
       style="stop-color:rgb(75,192,200)"
       id="stop6" />
  </linearGradient>
  <g
     id="g825"
     transform="matrix(0.75,0,0,0.75,0,6.9884961e-5)">
    <path
       id="path9"
       d="m 44.488,23.974 v -3.512 c 0,-0.646 -0.525,-1.171 -1.171,-1.171 H 4.683 c -0.646,0 -1.171,0.525 -1.171,1.171 v 19.902 c 0,0.646 0.525,1.171 1.171,1.171 h 13.463 v 0 0 0 c 0.97,0 1.756,0.787 1.756,1.756 v 0 c 0,0.969 -0.786,1.756 -1.756,1.756 v 0 H 3.512 C 1.574,45.047 0,43.473 0,41.535 V 19.291 c 0,-1.938 1.574,-3.512 3.512,-3.512 h 4.582 v 0 L 20.477,4.345 c 1.899,-1.753 5.079,-1.866 7.097,-0.251 l 2.454,1.964 c 2.096,-1.42 4.996,-0.943 6.523,1.092 l 5.244,6.99 1.583,1.639 h 1.11 c 1.938,0 3.512,1.574 3.512,3.512 v 22.244 c 0,1.938 -1.574,3.512 -3.512,3.512 H 29.854 v 0 c -0.97,0 -1.756,-0.787 -1.756,-1.756 v 0 c 0,-0.969 0.786,-1.756 1.756,-1.756 v 0 h 13.463 c 0.646,0 1.171,-0.525 1.171,-1.171 V 36.852 H 33.951 c -2.584,0 -4.683,-2.098 -4.683,-4.683 v -3.512 c 0,-2.585 2.099,-4.683 4.683,-4.683 z m 0,3.512 v 5.854 h -9.366 c -1.292,0 -2.342,-1.049 -2.342,-2.342 v -1.17 c 0,-1.293 1.05,-2.342 2.342,-2.342 z M 13.273,15.779 h 3.143 v 0 L 27.054,8.18 25.911,7.266 c -1.01,-0.807 -2.6,-0.75 -3.55,0.126 z m 9.179,0 H 38.634 L 34.396,10.125 C 33.621,9.091 32.137,8.861 31.086,9.612 Z M 24,41.535 v 0 c 0.969,0 1.756,0.787 1.756,1.756 v 0 c 0,0.969 -0.787,1.756 -1.756,1.756 v 0 c -0.969,0 -1.756,-0.787 -1.756,-1.756 v 0 c 0,-0.969 0.787,-1.756 1.756,-1.756 z M 36.293,28.657 v 0 c 0.969,0 1.756,0.787 1.756,1.756 v 0 c 0,0.969 -0.787,1.756 -1.756,1.756 v 0 c -0.97,0 -1.756,-0.787 -1.756,-1.756 v 0 c 0,-0.969 0.786,-1.756 1.756,-1.756 z"
       style="fill:url(#_lgradient_15);fill-rule:evenodd"
       inkscape:connector-curvature="0" />
  </g>
</svg>
