<?xml version="1.0" encoding="UTF-8" standalone="no"?>
<!-- Generator: Gravit.io -->

<svg
   xmlns:dc="http://purl.org/dc/elements/1.1/"
   xmlns:cc="http://creativecommons.org/ns#"
   xmlns:rdf="http://www.w3.org/1999/02/22-rdf-syntax-ns#"
   xmlns:svg="http://www.w3.org/2000/svg"
   xmlns="http://www.w3.org/2000/svg"
   xmlns:sodipodi="http://sodipodi.sourceforge.net/DTD/sodipodi-0.dtd"
   xmlns:inkscape="http://www.inkscape.org/namespaces/inkscape"
   style="isolation:isolate"
   viewBox="0 0 36 36"
   width="48"
   height="48"
   version="1.1"
   id="svg21"
   sodipodi:docname="latte-dock.svg"
   inkscape:version="0.92.4 (5da689c313, 2019-01-14)">
  <metadata
     id="metadata27">
    <rdf:RDF>
      <cc:Work
         rdf:about="">
        <dc:format>image/svg+xml</dc:format>
        <dc:type
           rdf:resource="http://purl.org/dc/dcmitype/StillImage" />
        <dc:title></dc:title>
      </cc:Work>
    </rdf:RDF>
  </metadata>
  <defs
     id="defs25" />
  <sodipodi:namedview
     pagecolor="#ffffff"
     bordercolor="#666666"
     borderopacity="1"
     objecttolerance="10"
     gridtolerance="10"
     guidetolerance="10"
     inkscape:pageopacity="0"
     inkscape:pageshadow="2"
     inkscape:window-width="640"
     inkscape:window-height="480"
     id="namedview23"
     showgrid="false"
     inkscape:zoom="29.365243"
     inkscape:cx="25.325443"
     inkscape:cy="32"
     inkscape:current-layer="svg21"
     units="px" />
  <linearGradient
     id="_lgradient_19"
     x1="0"
     y1="0.5"
     x2="1"
     y2="0.5"
     gradientTransform="matrix(22.324,0,0,28.836,12.838,9.582)"
     gradientUnits="userSpaceOnUse">
    <stop
       offset="0%"
       stop-opacity="1"
       style="stop-color:rgb(255,224,49)"
       id="stop2" />
    <stop
       offset="98.69565217391305%"
       stop-opacity="1"
       style="stop-color:rgb(252,82,82)"
       id="stop4" />
  </linearGradient>
  <linearGradient
     id="_lgradient_20"
     x1="13.515439"
     y1="21.287655"
     x2="40.600433"
     y2="21.287655"
     gradientTransform="scale(0.88698563,1.127414)"
     gradientUnits="userSpaceOnUse">
    <stop
       offset="0%"
       stop-opacity="1"
       style="stop-color:rgb(255,224,49)"
       id="stop7" />
    <stop
       offset="98.69565217391305%"
       stop-opacity="1"
       style="stop-color:rgb(252,82,82)"
       id="stop9" />
  </linearGradient>
  <linearGradient
     id="_lgradient_21"
     x1="0"
     y1="0.5"
     x2="1"
     y2="0.5"
     gradientTransform="matrix(47,0,0,47,0.5,0.5)"
     gradientUnits="userSpaceOnUse">
    <stop
       offset="0%"
       stop-opacity="1"
       style="stop-color:rgb(255,224,49)"
       id="stop14" />
    <stop
       offset="98.69565217391305%"
       stop-opacity="1"
       style="stop-color:rgb(252,82,82)"
       id="stop16" />
  </linearGradient>
  <g
     id="g839"
     transform="matrix(0.76595745,0,0,0.76595745,-0.3829788,-0.3829788)">
    <path
       id="path12"
       stroke-miterlimit="4"
       d="m 33.007,9.582 c -1.04,0 -2.04,0.275 -2.997,0.825 -0.937,0.529 -1.822,1.301 -2.654,2.316 -0.812,0.995 -1.551,2.222 -2.217,3.681 -0.666,1.438 -1.238,3.066 -1.717,4.885 -0.333,1.291 -0.666,2.38 -0.999,3.269 -0.333,0.888 -0.676,1.628 -1.03,2.22 -0.77,-0.296 -1.531,-0.818 -2.28,-1.008 -0.729,-0.212 -1.477,-0.317 -2.247,-0.317 -0.604,0 -1.156,0.095 -1.655,0.286 -0.479,0.19 -0.895,0.422 -1.249,0.697 -0.353,0.275 -0.634,0.571 -0.843,0.889 -0.187,0.317 -0.281,0.891 -0.281,1.166 0,0.444 0.209,0.816 0.625,1.112 0.416,0.296 1.04,0.443 1.873,0.443 2.206,0 4.069,-0.582 5.588,-1.746 0.958,0.423 1.937,0.826 2.936,1.207 1.02,0.359 2.144,0.539 3.372,0.539 1.395,0 2.508,-0.296 3.341,-0.888 0.833,-0.613 1.312,-1.398 1.811,-2.54 0.021,-0.128 -0.009,-0.213 -0.092,-0.254 -0.063,-0.064 -0.137,-0.064 -0.22,0 -0.354,0.719 -0.614,1.176 -1.156,1.557 -0.541,0.38 -1.332,0.57 -2.372,0.57 -1.249,0 -2.395,-0.137 -3.436,-0.412 -1.02,-0.296 -1.997,-0.624 -2.934,-0.983 1.291,-1.544 2.3,-3.734 3.029,-6.568 0.437,-1.777 0.862,-3.257 1.279,-4.442 0.416,-1.184 0.864,-2.125 1.342,-2.823 0.479,-0.719 1.001,-1.124 1.563,-1.399 0.583,-0.296 1.269,-0.443 2.06,-0.443 0.583,0 1.06,0.106 1.435,0.318 0.396,0.19 0.688,0.444 0.876,0.761 0.187,0.317 0.29,0.573 0.31,0.954 0.021,0.381 -0.029,1.132 -0.154,1.513 -0.021,0.107 0.009,0.18 0.093,0.222 0.104,0.043 0.198,0.032 0.281,-0.031 0.208,-0.36 0.405,-1.187 0.593,-1.737 0.187,-0.571 0.281,-1.069 0.281,-1.492 0,-0.655 -0.198,-1.205 -0.594,-1.649 C 34.173,9.814 33.653,9.582 33.007,9.582 Z M 15.492,26.5 c 0.895,0 1.738,0.126 2.529,0.38 0.791,0.253 1.572,0.829 2.342,1.168 -0.479,0.465 -1.021,0.782 -1.624,0.952 -0.583,0.147 -1.249,0.221 -1.999,0.221 -0.853,0 -1.519,-0.137 -1.998,-0.412 -0.458,-0.275 -0.687,-0.903 -0.687,-1.326 0,-0.656 0.48,-0.983 1.437,-0.983 z m 2.927,6.337 c -1.028,0 -1.86,0.833 -1.86,1.86 0,1.028 0.832,1.86 1.86,1.86 1.027,0 1.86,-0.832 1.86,-1.86 0,-1.027 -0.833,-1.86 -1.86,-1.86 z m 11.162,0 c -1.027,0 -1.86,0.833 -1.86,1.86 0,1.028 0.833,1.86 1.86,1.86 1.028,0 1.86,-0.832 1.86,-1.86 0,-1.027 -0.832,-1.86 -1.86,-1.86 z M 24,34.697 c -1.027,0 -1.86,0.833 -1.86,1.86 0,1.028 0.833,1.861 1.86,1.861 1.027,0 1.86,-0.833 1.86,-1.861 0,-1.027 -0.833,-1.86 -1.86,-1.86 z"
       inkscape:connector-curvature="0"
       style="vector-effect:non-scaling-stroke;fill:url(#_lgradient_19);stroke:url(#_lgradient_20);stroke-width:1.70000005;stroke-linecap:butt;stroke-linejoin:miter;stroke-miterlimit:4" />
    <path
       id="path19"
       d="m 8.59,12.05 v 0 c -0.673,0.872 -1.928,1.031 -2.8,0.355 v 0 C 4.918,11.729 4.757,10.472 5.43,9.6 v 0 C 9.88,3.87 16.74,0.5 24,0.5 c 0,0 0,0 0,0 v 0 c 6.23,0 12.21,2.48 16.62,6.88 4.4,4.41 6.88,10.39 6.88,16.62 0,2.48 -0.39,4.95 -1.16,7.31 v 0 c -0.342,1.049 -1.471,1.622 -2.52,1.28 v 0 c -1.049,-0.342 -1.622,-1.471 -1.28,-2.52 v 0 C 43.18,28.11 43.5,26.06 43.5,24 43.5,18.83 41.44,13.87 37.79,10.21 34.13,6.56 29.17,4.5 24,4.5 17.98,4.5 12.29,7.29 8.59,12.05 Z M 24,4.5 c 0,0 0,0 0,0 v 0 0 c 0,0 0,0 0,0 z m 13.06,33.98 v 0 c 0.817,-0.74 2.08,-0.675 2.82,0.145 v 0 c 0.74,0.82 0.677,2.085 -0.14,2.825 v 0 C 35.42,45.34 29.81,47.5 24,47.5 17.77,47.5 11.79,45.02 7.38,40.62 2.98,36.21 0.5,30.23 0.5,24 c 0,-0.67 0.03,-1.33 0.08,-2 v 0 c 0.094,-1.098 1.064,-1.914 2.165,-1.82 v 0 c 1.101,0.094 1.919,1.062 1.825,2.16 v 0 C 4.52,22.89 4.5,23.45 4.5,24 c 0,5.17 2.06,10.13 5.71,13.79 3.66,3.65 8.62,5.71 13.79,5.71 4.82,0 9.48,-1.79 13.06,-5.02 z"
       inkscape:connector-curvature="0"
       style="fill:url(#_lgradient_21);fill-rule:evenodd" />
  </g>
</svg>
