<?xml version="1.0" encoding="UTF-8" standalone="no"?>
<svg
   xmlns:dc="http://purl.org/dc/elements/1.1/"
   xmlns:cc="http://creativecommons.org/ns#"
   xmlns:rdf="http://www.w3.org/1999/02/22-rdf-syntax-ns#"
   xmlns:svg="http://www.w3.org/2000/svg"
   xmlns="http://www.w3.org/2000/svg"
   xmlns:xlink="http://www.w3.org/1999/xlink"
   xmlns:sodipodi="http://sodipodi.sourceforge.net/DTD/sodipodi-0.dtd"
   xmlns:inkscape="http://www.inkscape.org/namespaces/inkscape"
   viewBox="0 0 36 36"
   width="48"
   height="48"
   version="1.1"
   id="svg17"
   sodipodi:docname="launch.svg"
   inkscape:version="0.92.4 (5da689c313, 2019-01-14)">
  <metadata
     id="metadata23">
    <rdf:RDF>
      <cc:Work
         rdf:about="">
        <dc:format>image/svg+xml</dc:format>
        <dc:type
           rdf:resource="http://purl.org/dc/dcmitype/StillImage" />
        <dc:title></dc:title>
      </cc:Work>
    </rdf:RDF>
  </metadata>
  <defs
     id="defs21">
    <linearGradient
       y2="15.999999"
       x2="51.5"
       y1="15.999999"
       x1="26.5"
       id="_lgradient_4"
       gradientUnits="userSpaceOnUse"
       gradientTransform="matrix(1.1199999,0,0,1.1199999,-27.239997,-1.9800147)">
      <stop
         id="stop15-3"
         style="stop-color:rgb(255,143,195)"
         stop-opacity="1"
         offset="0%" />
      <stop
         id="stop17-6"
         style="stop-color:rgb(161,161,255)"
         stop-opacity="1"
         offset="100%" />
    </linearGradient>
    <linearGradient
       gradientTransform="matrix(0.96952912,0,0,0.96952912,-0.21263119,0.39005772)"
       gradientUnits="userSpaceOnUse"
       y2="15.939985"
       x2="30.440002"
       y1="15.939985"
       x1="2.440002"
       id="linearGradient860"
       xlink:href="#linearGradient858"
       inkscape:collect="always" />
    <linearGradient
       id="linearGradient858"
       inkscape:collect="always">
      <stop
         id="stop854"
         offset="0"
         style="stop-color:#feac5e;stop-opacity:1" />
      <stop
         style="stop-color:#c779d0;stop-opacity:1"
         offset="0.5"
         id="stop862" />
      <stop
         id="stop856"
         offset="1"
         style="stop-color:#4bc0c8;stop-opacity:1" />
    </linearGradient>
  </defs>
  <sodipodi:namedview
     pagecolor="#ffffff"
     bordercolor="#666666"
     inkscape:document-rotation="0"
     borderopacity="1"
     objecttolerance="10"
     gridtolerance="10"
     guidetolerance="10"
     inkscape:pageopacity="0"
     inkscape:pageshadow="2"
     inkscape:window-width="1280"
     inkscape:window-height="947"
     id="namedview19"
     showgrid="false"
     inkscape:zoom="115.00679"
     inkscape:cx="11.309827"
     inkscape:cy="17.895092"
     inkscape:window-x="0"
     inkscape:window-y="0"
     inkscape:window-maximized="1"
     inkscape:current-layer="applications-other-3" />
  <g
     id="applications-other"
     transform="translate(0,-12)">
    <g
       transform="translate(0.27357099,0.15566293)"
       id="applications-other-3"
       style="clip-rule:evenodd;fill-rule:evenodd;stroke-linejoin:round;stroke-miterlimit:1.41420996">
      <g
         id="g826"
         transform="matrix(1.2857143,0,0,1.2857143,-2.4932656,9.4730463)">
        <path
           d="m 3.7818306,2.8138662 h 8.6869804 c 0.599402,0 1.085874,0.4864709 1.085874,1.0858724 v 8.6869804 c 0,0.599403 -0.486472,1.085874 -1.085874,1.085874 H 3.7818306 c -0.5994017,0 -1.0858726,-0.486471 -1.0858726,-1.085874 V 3.8997386 c 0,-0.5994015 0.4864709,-1.0858724 1.0858726,-1.0858724 z m 15.2022164,0 h 8.686981 c 0.599398,0 1.085872,0.4864709 1.085872,1.0858724 v 8.6869804 c 0,0.599403 -0.486474,1.085874 -1.085872,1.085874 h -8.686981 c -0.599402,0 -1.085872,-0.486471 -1.085872,-1.085874 V 3.8997386 c 0,-0.5994015 0.48647,-1.0858724 1.085872,-1.0858724 z m 0,15.2022158 h 8.686981 c 0.599398,0 1.085872,0.486471 1.085872,1.085873 v 8.686981 c 0,0.599401 -0.486474,1.085872 -1.085872,1.085872 h -8.686981 c -0.599402,0 -1.085872,-0.486471 -1.085872,-1.085872 v -8.686981 c 0,-0.599402 0.48647,-1.085873 1.085872,-1.085873 z m -15.2022164,0 h 8.6869804 c 0.599402,0 1.085874,0.486471 1.085874,1.085873 v 8.686981 c 0,0.599401 -0.486472,1.085872 -1.085874,1.085872 H 3.7818306 c -0.5994017,0 -1.0858726,-0.486471 -1.0858726,-1.085872 v -8.686981 c 0,-0.599402 0.4864709,-1.085873 1.0858726,-1.085873 z"
           stroke-miterlimit="3"
           id="path20"
           inkscape:connector-curvature="0"
           style="clip-rule:evenodd;isolation:isolate;vector-effect:non-scaling-stroke;fill:none;fill-rule:evenodd;stroke:url(#linearGradient860);stroke-width:1.93905818;stroke-linecap:square;stroke-linejoin:miter;stroke-miterlimit:3;stroke-dasharray:none;stroke-opacity:1" />
      </g>
    </g>
  </g>
</svg>
