<?xml version="1.0" encoding="UTF-8" standalone="no"?>
<!-- Generator: Gravit.io -->

<svg
   xmlns:dc="http://purl.org/dc/elements/1.1/"
   xmlns:cc="http://creativecommons.org/ns#"
   xmlns:rdf="http://www.w3.org/1999/02/22-rdf-syntax-ns#"
   xmlns:svg="http://www.w3.org/2000/svg"
   xmlns="http://www.w3.org/2000/svg"
   xmlns:sodipodi="http://sodipodi.sourceforge.net/DTD/sodipodi-0.dtd"
   xmlns:inkscape="http://www.inkscape.org/namespaces/inkscape"
   style="isolation:isolate"
   viewBox="0 0 36 36"
   width="48"
   height="48"
   version="1.1"
   id="svg11"
   sodipodi:docname="lazarus.svg"
   inkscape:version="0.92.4 (5da689c313, 2019-01-14)">
  <metadata
     id="metadata17">
    <rdf:RDF>
      <cc:Work
         rdf:about="">
        <dc:format>image/svg+xml</dc:format>
        <dc:type
           rdf:resource="http://purl.org/dc/dcmitype/StillImage" />
        <dc:title></dc:title>
      </cc:Work>
    </rdf:RDF>
  </metadata>
  <defs
     id="defs15" />
  <sodipodi:namedview
     pagecolor="#ffffff"
     bordercolor="#666666"
     borderopacity="1"
     objecttolerance="10"
     gridtolerance="10"
     guidetolerance="10"
     inkscape:pageopacity="0"
     inkscape:pageshadow="2"
     inkscape:window-width="640"
     inkscape:window-height="480"
     id="namedview13"
     showgrid="false"
     inkscape:zoom="29.365243"
     inkscape:cx="25.325443"
     inkscape:cy="32"
     inkscape:current-layer="svg11"
     units="px" />
  <linearGradient
     id="_lgradient_27"
     x1="0"
     y1="0.5"
     x2="1"
     y2="0.5"
     gradientTransform="matrix(46.808,0,0,47,0.564,0.5)"
     gradientUnits="userSpaceOnUse">
    <stop
       offset="0%"
       stop-opacity="1"
       style="stop-color:rgb(84,51,255)"
       id="stop2" />
    <stop
       offset="51.73913043478261%"
       stop-opacity="1"
       style="stop-color:rgb(32,189,255)"
       id="stop4" />
    <stop
       offset="98.26086956521739%"
       stop-opacity="1"
       style="stop-color:rgb(165,254,203)"
       id="stop6" />
  </linearGradient>
  <g
     id="g825"
     transform="matrix(0.76595696,0,0,0.76595696,-0.35893112,-0.38295552)">
    <path
       id="path9"
       d="m 32.917,6.952 v 0 C 31.873,6.403 31.47,5.109 32.019,4.064 v 0 C 32.568,3.02 33.862,2.617 34.907,3.166 v 0 c 4.449,2.342 8.042,6.053 10.235,10.577 v 0 c 0.519,1.063 0.078,2.345 -0.984,2.861 v 0 c -1.063,0.517 -2.347,0.074 -2.866,-0.989 v 0 C 39.495,11.904 36.564,8.877 32.917,6.952 Z M 23.817,4.5 v 0 c 1.103,-0.006 1.995,-0.906 1.99,-2.01 v 0 C 25.801,1.386 24.9,0.494 23.797,0.5 v 0 c -5.76,0.03 -11.31,2.18 -15.59,6.03 -4.28,3.86 -7,9.15 -7.63,14.88 v 0 c -0.122,1.098 0.671,2.089 1.77,2.21 v 0 c 1.098,0.121 2.088,-0.672 2.21,-1.77 v 0 c 0.52,-4.75 2.78,-9.15 6.33,-12.34 3.55,-3.2 8.15,-4.98 12.93,-5.01 z M 5.737,31 v 0 C 5.339,29.968 4.179,29.453 3.147,29.85 v 0 c -1.033,0.397 -1.548,1.558 -1.15,2.59 v 0 c 1.91,4.93 5.42,9.08 9.97,11.78 v 0 c 0.949,0.563 2.177,0.249 2.74,-0.7 v 0 c 0.563,-0.949 0.249,-2.177 -0.7,-2.74 v 0 C 10.227,38.54 7.317,35.1 5.737,31 Z m 17.57,12.49 v 0 c -1.104,-0.017 -2.014,0.866 -2.03,1.97 v 0 c -0.017,1.104 0.866,2.013 1.97,2.03 v 0 l 0.66,0.01 c 0.01,0 0.02,0 0.03,0 5.91,0 11.61,-2.23 15.95,-6.24 4.34,-4.01 7.02,-9.52 7.48,-15.41 v 0 c 0.082,-1.098 -0.742,-2.062 -1.84,-2.15 v 0 c -1.099,-0.088 -2.062,0.736 -2.15,1.84 v 0 c -0.38,4.88 -2.6,9.45 -6.2,12.78 -3.6,3.33 -8.32,5.18 -13.22,5.18 z M 24.191,10 c -0.189,0 -0.151,0.701 0.047,0.86 0.222,0.179 0.548,0.805 0.644,1.238 l 0.076,0.338 -0.613,0.123 c -1.458,0.294 -1.742,1.251 -0.801,2.701 0.331,0.509 0.334,0.523 0.27,1.627 -0.048,0.828 -0.024,1.25 0.097,1.647 0.189,0.615 0.714,1.182 1.264,1.361 0.609,0.198 2.263,0.103 2.877,-0.164 0.672,-0.293 1.545,-1.162 1.789,-1.781 0.287,-0.73 0.179,-1.737 -0.279,-2.616 C 29.122,14.49 27.973,13.342 27.175,12.95 26.753,12.742 26.555,12.564 26.413,12.268 26.212,11.845 24.404,10 24.191,10 Z m -7.953,2 c -0.025,-0.002 -0.05,0.008 -0.071,0.028 -0.218,0.208 -0.395,1.303 -0.375,2.326 0.019,0.968 -0.007,1.167 -0.209,1.49 -0.668,1.072 -0.782,3.038 -0.24,4.152 0.48,0.986 1.275,1.586 2.486,1.874 0.846,0.201 1.418,0.173 2.213,-0.104 2.192,-0.763 2.571,-2.252 0.998,-3.93 -0.637,-0.68 -0.935,-1.233 -0.935,-1.736 0,-0.612 -0.235,-1.212 -0.631,-1.615 -0.357,-0.363 -0.376,-0.368 -1.059,-0.311 -0.382,0.033 -0.834,0.091 -1.002,0.131 -0.278,0.066 -0.322,0.032 -0.523,-0.392 C 16.769,13.657 16.669,13.227 16.667,12.955 16.665,12.536 16.414,12.016 16.238,12 Z m 19.382,4.004 c -0.236,-0.052 -0.31,0.558 -0.121,1 0.088,0.204 0.146,0.549 0.129,0.768 l -0.029,0.398 -0.502,0.01 c -0.391,0.009 -0.58,0.077 -0.853,0.309 -0.321,0.27 -0.809,1.188 -0.811,1.523 -10e-4,0.074 -0.298,0.796 -0.662,1.602 -0.364,0.806 -0.692,1.625 -0.731,1.82 -0.205,1.047 0.365,1.833 1.729,2.379 0.576,0.23 1.177,0.248 1.83,0.055 1.061,-0.315 1.743,-0.911 2.156,-1.883 0.218,-0.513 0.249,-0.72 0.244,-1.653 -0.005,-1.208 -0.211,-1.971 -0.767,-2.841 -0.174,-0.272 -0.387,-0.8 -0.473,-1.174 -0.175,-0.766 -0.912,-2.263 -1.139,-2.313 z m -25.492,6.998 c -0.026,-0.006 -0.046,-10e-4 -0.06,0.014 -0.209,0.224 0.105,2.402 0.422,2.922 0.077,0.127 0.188,0.562 0.248,0.965 0.27,1.826 1.544,3.531 2.99,4.006 0.494,0.162 1.565,0.104 2.258,-0.123 0.573,-0.188 0.767,-0.319 1.199,-0.805 0.897,-1.01 1.059,-2.006 0.457,-2.815 -0.159,-0.214 -0.646,-0.614 -1.08,-0.888 -0.435,-0.275 -1.191,-0.779 -1.68,-1.123 -1.432,-1.008 -1.584,-1.103 -1.978,-1.221 -0.501,-0.149 -1.013,0.009 -1.43,0.443 l -0.326,0.34 -0.205,-0.361 C 10.83,24.157 10.738,23.893 10.738,23.772 10.737,23.554 10.31,23.045 10.128,23.002 Z M 27.505,25 c -0.608,0.004 -1.31,0.108 -2.119,0.313 -2.287,0.58 -3.369,1.27 -3.861,2.465 -0.213,0.517 -0.23,0.694 -0.172,1.683 0.059,1.007 0.043,1.154 -0.182,1.657 -0.228,0.51 -0.489,0.795 -1.697,1.863 -0.384,0.339 -0.418,0.419 -0.461,1.041 -0.04,0.579 -0.002,0.773 0.275,1.392 0.593,1.324 1.664,2.211 3.004,2.487 0.635,0.13 1.054,0.131 2.143,0.004 4.234,-0.496 9.102,-2.101 10.492,-3.459 0.727,-0.711 1.016,-1.366 1.065,-2.407 0.092,-1.985 -0.758,-3.177 -2.276,-3.183 C 32.528,28.851 31.333,28.124 30.843,27.11 30.48,26.359 29.744,25.611 29.056,25.293 28.626,25.095 28.113,24.997 27.505,25 Z"
       style="fill:url(#_lgradient_27);fill-rule:evenodd"
       inkscape:connector-curvature="0" />
  </g>
</svg>
