<?xml version="1.0" encoding="UTF-8" standalone="no"?>
<!-- Generator: Gravit.io -->

<svg
   xmlns:dc="http://purl.org/dc/elements/1.1/"
   xmlns:cc="http://creativecommons.org/ns#"
   xmlns:rdf="http://www.w3.org/1999/02/22-rdf-syntax-ns#"
   xmlns:svg="http://www.w3.org/2000/svg"
   xmlns="http://www.w3.org/2000/svg"
   xmlns:sodipodi="http://sodipodi.sourceforge.net/DTD/sodipodi-0.dtd"
   xmlns:inkscape="http://www.inkscape.org/namespaces/inkscape"
   style="isolation:isolate"
   viewBox="0 0 36 36"
   width="48"
   height="48"
   version="1.1"
   id="svg16"
   sodipodi:docname="libreoffice-math.svg"
   inkscape:version="0.92.4 (5da689c313, 2019-01-14)">
  <metadata
     id="metadata22">
    <rdf:RDF>
      <cc:Work
         rdf:about="">
        <dc:format>image/svg+xml</dc:format>
        <dc:type
           rdf:resource="http://purl.org/dc/dcmitype/StillImage" />
        <dc:title></dc:title>
      </cc:Work>
    </rdf:RDF>
  </metadata>
  <defs
     id="defs20" />
  <sodipodi:namedview
     pagecolor="#ffffff"
     bordercolor="#666666"
     borderopacity="1"
     objecttolerance="10"
     gridtolerance="10"
     guidetolerance="10"
     inkscape:pageopacity="0"
     inkscape:pageshadow="2"
     inkscape:window-width="640"
     inkscape:window-height="480"
     id="namedview18"
     showgrid="false"
     inkscape:zoom="29.365243"
     inkscape:cx="25.325443"
     inkscape:cy="32"
     inkscape:current-layer="svg16"
     units="px" />
  <linearGradient
     id="_lgradient_28"
     x1="0"
     y1="0.5"
     x2="1"
     y2="0.5"
     gradientTransform="matrix(45,0,0,45.96,1.5,1.02)"
     gradientUnits="userSpaceOnUse">
    <stop
       offset="0%"
       stop-opacity="1"
       style="stop-color:rgb(117,127,154)"
       id="stop2" />
    <stop
       offset="98.69565217391305%"
       stop-opacity="1"
       style="stop-color:rgb(215,221,232)"
       id="stop4" />
  </linearGradient>
  <linearGradient
     id="_lgradient_29"
     x1="0"
     y1="0.5"
     x2="1"
     y2="0.5"
     gradientTransform="matrix(20,0,0,20.692,10,17.17)"
     gradientUnits="userSpaceOnUse">
    <stop
       offset="0%"
       stop-opacity="1"
       style="stop-color:rgb(117,127,154)"
       id="stop9" />
    <stop
       offset="98.69565217391305%"
       stop-opacity="1"
       style="stop-color:rgb(215,221,232)"
       id="stop11" />
  </linearGradient>
  <g
     id="g831"
     transform="matrix(0.78328982,0,0,0.78328982,-0.79895568,-0.79895568)">
    <path
       id="path7"
       d="m 42.5,31.72 v 0 c 0,-1.104 0.896,-2 2,-2 v 0 c 1.104,0 2,0.896 2,2 v 0 10.26 c 0,2.76 -2.24,5 -5,5 h -35 c -2.76,0 -5,-2.24 -5,-5 V 6.02 c 0,-2.76 2.24,-5 5,-5 h 15.8 c 1.104,0 2.663,0.603 3.48,1.346 l 15.24,13.858 c 0.817,0.743 1.48,0.45 1.48,-0.654 V 8.02 c 0,-1.656 -1.344,-3 -3,-3 h -6.35 v 0 c -1.104,0 -2,-0.896 -2,-2 v 0 c 0,-1.104 0.896,-2 2,-2 v 0 h 8.35 c 2.76,0 5,2.24 5,5 v 15.59 c 0,2.76 -1.658,3.493 -3.7,1.637 L 23.49,5.693 C 23.082,5.321 22.302,5.02 21.75,5.02 H 8.5 c -1.656,0 -3,1.344 -3,3 v 31.96 c 0,1.656 1.344,3 3,3 h 31 c 1.656,0 3,-1.344 3,-3 z"
       inkscape:connector-curvature="0"
       style="fill:url(#_lgradient_28)" />
    <path
       id="path14"
       d="m 13.333,36.195 v 0 c 0,0.92 -0.746,1.667 -1.666,1.667 v 0 C 10.747,37.862 10,37.115 10,36.195 v 0 -14.858 c 0,-2.3 1.32,-2.847 2.946,-1.221 l 6.465,6.465 c 0.325,0.325 0.853,0.325 1.178,0 l 6.465,-6.465 C 28.68,18.49 30,19.037 30,21.337 v 14.858 0 c 0,0.92 -0.747,1.667 -1.667,1.667 v 0 c -0.92,0 -1.666,-0.747 -1.666,-1.667 v 0 -10.975 l -5.488,5.488 c -0.651,0.651 -1.707,0.651 -2.358,0 L 13.333,25.22 Z"
       inkscape:connector-curvature="0"
       style="fill:url(#_lgradient_29)" />
  </g>
</svg>
