<?xml version="1.0" encoding="UTF-8" standalone="no"?>
<!-- Generator: Gravit.io -->

<svg
   xmlns:dc="http://purl.org/dc/elements/1.1/"
   xmlns:cc="http://creativecommons.org/ns#"
   xmlns:rdf="http://www.w3.org/1999/02/22-rdf-syntax-ns#"
   xmlns:svg="http://www.w3.org/2000/svg"
   xmlns="http://www.w3.org/2000/svg"
   xmlns:sodipodi="http://sodipodi.sourceforge.net/DTD/sodipodi-0.dtd"
   xmlns:inkscape="http://www.inkscape.org/namespaces/inkscape"
   style="isolation:isolate"
   viewBox="0 0 36 36"
   width="48"
   height="48"
   version="1.1"
   id="svg28"
   sodipodi:docname="libreoffice-base.svg"
   inkscape:version="0.92.4 (5da689c313, 2019-01-14)">
  <metadata
     id="metadata34">
    <rdf:RDF>
      <cc:Work
         rdf:about="">
        <dc:format>image/svg+xml</dc:format>
        <dc:type
           rdf:resource="http://purl.org/dc/dcmitype/StillImage" />
        <dc:title></dc:title>
      </cc:Work>
    </rdf:RDF>
  </metadata>
  <defs
     id="defs32" />
  <sodipodi:namedview
     pagecolor="#ffffff"
     bordercolor="#666666"
     borderopacity="1"
     objecttolerance="10"
     gridtolerance="10"
     guidetolerance="10"
     inkscape:pageopacity="0"
     inkscape:pageshadow="2"
     inkscape:window-width="640"
     inkscape:window-height="480"
     id="namedview30"
     showgrid="false"
     inkscape:zoom="29.365243"
     inkscape:cx="25.325443"
     inkscape:cy="32"
     inkscape:current-layer="svg28"
     units="px" />
  <linearGradient
     id="_lgradient_12"
     x1="0.22078557"
     y1="0.047239967"
     x2="0.9022491"
     y2="0.90614605"
     gradientTransform="matrix(20,0,0,20,25.124,26)"
     gradientUnits="userSpaceOnUse">
    <stop
       offset="2.608695652173913%"
       stop-opacity="1"
       style="stop-color:rgb(237,184,212)"
       id="stop2" />
    <stop
       offset="98.69565217391305%"
       stop-opacity="1"
       style="stop-color:rgb(162,110,245)"
       id="stop4" />
  </linearGradient>
  <linearGradient
     id="_lgradient_13"
     x1="29.261122"
     y1="26.491774"
     x2="43.571712"
     y2="44.528618"
     gradientTransform="scale(0.99998993,1.0000101)"
     gradientUnits="userSpaceOnUse">
    <stop
       offset="2.608695652173913%"
       stop-opacity="1"
       style="stop-color:rgb(237,184,212)"
       id="stop7" />
    <stop
       offset="98.69565217391305%"
       stop-opacity="1"
       style="stop-color:rgb(162,110,245)"
       id="stop9" />
  </linearGradient>
  <linearGradient
     id="_lgradient_14"
     x1="0.22078557"
     y1="0.047239967"
     x2="0.9022491"
     y2="0.90614605"
     gradientTransform="matrix(40,0,0,44,2,2)"
     gradientUnits="userSpaceOnUse">
    <stop
       offset="2.608695652173913%"
       stop-opacity="1"
       style="stop-color:rgb(237,184,212)"
       id="stop14" />
    <stop
       offset="98.69565217391305%"
       stop-opacity="1"
       style="stop-color:rgb(162,110,245)"
       id="stop16" />
  </linearGradient>
  <linearGradient
     id="_lgradient_15"
     x1="-0.22433203"
     y1="-1.4622297"
     x2="1.7579993"
     y2="2.9463928"
     gradientTransform="matrix(21,0,0,9,7.5,16.5)"
     gradientUnits="userSpaceOnUse">
    <stop
       offset="2.608695652173913%"
       stop-opacity="1"
       style="stop-color:rgb(237,184,212)"
       id="stop21" />
    <stop
       offset="98.69565217391305%"
       stop-opacity="1"
       style="stop-color:rgb(162,110,245)"
       id="stop23" />
  </linearGradient>
  <g
     id="g844"
     transform="matrix(0.80898876,0,0,0.80898876,-1.2636404,-1.6179774)">
    <path
       id="path12"
       stroke-miterlimit="3"
       d="m 26.943,35.391 v 0 c -0.038,0.499 -0.475,0.875 -0.977,0.839 v 0 c -0.501,-0.037 -0.877,-0.474 -0.839,-0.975 v 0 c 0.186,-2.514 1.32,-4.869 3.172,-6.587 C 30.151,26.955 32.586,26 35.112,26 c 2.653,0 5.202,1.055 7.081,2.927 1.875,1.878 2.931,4.423 2.931,7.073 0,2.65 -1.056,5.195 -2.931,7.073 C 40.314,44.945 37.765,46 35.112,46 v 0 c -0.503,0 -0.91,-0.407 -0.91,-0.909 v 0 c 0,-0.502 0.407,-0.909 0.91,-0.909 v 0 c 2.171,0 4.255,-0.864 5.793,-2.396 1.534,-1.536 2.399,-3.618 2.399,-5.786 0,-2.168 -0.865,-4.25 -2.399,-5.786 -1.538,-1.532 -3.622,-2.396 -5.793,-2.396 -2.066,0 -4.06,0.777 -5.575,2.182 -1.516,1.405 -2.44,3.332 -2.594,5.391 z m 4.36,7.854 v 0 c 0.444,0.234 0.615,0.784 0.382,1.228 v 0 c -0.234,0.444 -0.784,0.615 -1.229,0.382 v 0 c -1.893,-0.996 -3.422,-2.573 -4.355,-4.496 v 0 c -0.221,-0.451 -0.034,-0.996 0.418,-1.216 v 0 c 0.453,-0.219 0.999,-0.031 1.22,0.421 v 0 c 0.765,1.577 2.012,2.863 3.564,3.681 z m 2.249,-8.054 v -2.994 c 0.319,0.047 0.639,0.102 0.953,0.161 0.388,0.075 0.765,0.181 1.121,0.315 0.21,0.078 0.409,0.176 0.592,0.29 0.105,0.063 0.199,0.138 0.278,0.224 0.063,0.067 0.11,0.142 0.141,0.216 0.037,0.083 0.053,0.173 0.058,0.26 0.005,0.141 -0.016,0.286 -0.058,0.424 -0.031,0.094 -0.078,0.185 -0.146,0.267 -0.068,0.083 -0.152,0.161 -0.252,0.224 -0.141,0.094 -0.304,0.177 -0.476,0.24 -0.079,0.031 -0.163,0.059 -0.247,0.086 -0.104,0.028 -0.209,0.055 -0.314,0.079 -0.33,0.078 -0.671,0.133 -1.016,0.161 -0.21,0.019 -0.425,0.035 -0.634,0.047 z m 0,1.634 c 0.267,0.016 0.534,0.044 0.801,0.079 0.273,0.035 0.545,0.086 0.818,0.149 0.183,0.043 0.361,0.098 0.534,0.165 0.178,0.067 0.34,0.15 0.492,0.248 0.105,0.067 0.194,0.145 0.268,0.232 0.068,0.082 0.12,0.172 0.157,0.267 0.047,0.129 0.073,0.267 0.073,0.4 0,0.138 -0.021,0.275 -0.063,0.409 -0.031,0.094 -0.084,0.181 -0.152,0.263 -0.068,0.087 -0.157,0.161 -0.256,0.228 -0.147,0.098 -0.31,0.181 -0.488,0.244 -0.078,0.031 -0.162,0.059 -0.246,0.086 -0.105,0.032 -0.209,0.059 -0.314,0.083 -0.336,0.078 -0.676,0.133 -1.022,0.169 -0.199,0.019 -0.398,0.035 -0.602,0.047 z m 3.594,-0.793 c 0.146,0.074 0.288,0.157 0.424,0.247 0.262,0.165 0.482,0.362 0.665,0.578 0.184,0.216 0.32,0.448 0.409,0.695 0.094,0.259 0.141,0.527 0.146,0.798 0.006,0.271 -0.041,0.546 -0.13,0.809 -0.084,0.248 -0.215,0.483 -0.393,0.703 -0.184,0.22 -0.404,0.417 -0.66,0.586 -0.283,0.184 -0.592,0.342 -0.928,0.467 -0.136,0.051 -0.272,0.098 -0.414,0.138 -0.151,0.047 -0.303,0.086 -0.461,0.125 -0.45,0.107 -0.911,0.181 -1.383,0.228 -0.633,0.059 -1.273,0.091 -1.912,0.095 -0.277,0 -0.545,-0.083 -0.744,-0.228 -0.199,-0.15 -0.309,-0.35 -0.309,-0.558 v -9.429 c 0,-0.224 0.126,-0.436 0.351,-0.586 0.22,-0.149 0.519,-0.22 0.818,-0.196 0.806,0.071 1.608,0.181 2.399,0.33 0.534,0.102 1.053,0.247 1.551,0.436 0.345,0.13 0.67,0.291 0.969,0.475 0.262,0.157 0.492,0.346 0.681,0.554 0.178,0.193 0.314,0.405 0.408,0.629 0.095,0.224 0.147,0.46 0.157,0.695 0.011,0.279 -0.031,0.558 -0.115,0.825 -0.078,0.256 -0.209,0.495 -0.387,0.715 -0.179,0.224 -0.404,0.425 -0.661,0.594 -0.151,0.102 -0.314,0.192 -0.481,0.275 z"
       style="vector-effect:non-scaling-stroke;fill:url(#_lgradient_12);fill-rule:evenodd;stroke:url(#_lgradient_13);stroke-width:1;stroke-linecap:square;stroke-linejoin:miter;stroke-miterlimit:3"
       inkscape:connector-curvature="0" />
    <path
       id="path19"
       d="M 31,6 V 6 C 29.896,6 29,5.104 29,4 v 0 c 0,-1.104 0.896,-2 2,-2 v 0 h 6 c 2.76,0 5,2.24 5,5 v 6 0 c 0,1.104 -0.896,2 -2,2 v 0 c -1.104,0 -2,-0.896 -2,-2 V 13 9 C 38,7.344 36.656,6 35,6 Z m -9,36 v 0 c 1.104,0 2,0.896 2,2 v 0 c 0,1.104 -0.896,2 -2,2 v 0 H 7 C 4.24,46 2,43.76 2,41 V 7 C 2,4.24 4.24,2 7,2 h 13.77 c 1.656,0 3.925,0.975 5.065,2.176 L 41.34,20.51 v 0 c 0.817,0.74 0.882,2.005 0.145,2.825 v 0 c -0.737,0.82 -2.003,0.889 -2.825,0.155 v 0 L 22.915,6.729 C 22.537,6.327 21.782,6 21.23,6 H 9 C 7.344,6 6,7.344 6,9 v 30 c 0,1.656 1.344,3 3,3 z M 8,36 v 0 l 1.13,1.22 c 1.17,0.83 2.45,1.47 3.81,1.9 1.6,0.46 3.25,0.67 4.9,0.63 1.45,-0.01 2.89,-0.1 4.33,-0.26 v 0 c 0.822,-0.094 1.414,-0.838 1.32,-1.66 v 0 c -0.094,-0.822 -0.838,-1.414 -1.66,-1.32 v 0 0 c -1.34,0.15 -2.68,0.23 -4.03,0.24 -1.35,0.03 -2.69,-0.14 -3.99,-0.5 -1.05,-0.34 -2.04,-0.84 -2.94,-1.47 L 10.5,34.516 v -3.439 c 0.777,0.426 1.593,0.775 2.44,1.043 1.6,0.46 3.25,0.67 4.9,0.63 1.45,-0.01 2.89,-0.1 4.33,-0.26 v 0 c 0.822,-0.094 1.414,-0.838 1.32,-1.66 v 0 c -0.094,-0.822 -0.838,-1.414 -1.66,-1.32 v 0 0 c -1.34,0.15 -2.68,0.23 -4.03,0.24 -1.35,0.03 -2.69,-0.14 -3.99,-0.5 -1.05,-0.34 -2.04,-0.84 -2.94,-1.47 L 10.5,27.516 V 21 h -3 z M 25.5,21 h 3 v 4 c 0,1.104 -0.672,2 -1.5,2 v 0 c -0.828,0 -1.5,-0.896 -1.5,-2 z"
       style="fill:url(#_lgradient_14);fill-rule:evenodd"
       inkscape:connector-curvature="0" />
    <path
       id="path26"
       d="m 7.5,21 c 0,-0.5 0.15,-0.99 0.42,-1.41 0.24,-0.38 0.54,-0.7 0.89,-0.96 0.72,-0.53 1.53,-0.93 2.38,-1.18 1.02,-0.33 2.05,-0.56 3.11,-0.7 1.22,-0.17 2.46,-0.25 3.7,-0.25 1.24,0 2.48,0.08 3.7,0.25 1.06,0.14 2.09,0.37 3.11,0.7 0.85,0.25 1.66,0.65 2.38,1.18 0.35,0.26 0.65,0.58 0.89,0.95 0.27,0.43 0.42,0.92 0.42,1.42 0,0.5 -0.15,0.99 -0.42,1.42 -0.24,0.37 -0.54,0.69 -0.89,0.95 -0.72,0.53 -1.53,0.93 -2.38,1.18 -1.02,0.33 -2.05,0.56 -3.11,0.7 -1.22,0.17 -2.46,0.25 -3.7,0.25 -1.24,0 -2.48,-0.08 -3.7,-0.25 -1.06,-0.14 -2.09,-0.37 -3.11,-0.7 C 10.34,24.3 9.53,23.9 8.81,23.37 8.46,23.11 8.16,22.79 7.92,22.42 7.65,21.99 7.5,21.5 7.5,21 Z m 3.15,0 c 0.44,-0.31 0.92,-0.54 1.43,-0.69 0.85,-0.27 1.73,-0.47 2.62,-0.59 1.09,-0.15 2.2,-0.22 3.3,-0.22 1.1,0 2.21,0.07 3.3,0.22 0.89,0.12 1.77,0.32 2.62,0.59 0.51,0.15 0.99,0.38 1.43,0.69 -0.44,0.31 -0.92,0.54 -1.43,0.69 -0.85,0.27 -1.73,0.47 -2.62,0.59 -1.09,0.15 -2.2,0.22 -3.3,0.22 -1.1,0 -2.21,-0.07 -3.3,-0.22 C 13.81,22.16 12.93,21.96 12.08,21.69 11.57,21.54 11.09,21.31 10.65,21 Z"
       style="fill:url(#_lgradient_15);fill-rule:evenodd"
       inkscape:connector-curvature="0" />
  </g>
</svg>
