<?xml version="1.0" encoding="UTF-8" standalone="no"?>
<!-- Generator: Gravit.io -->

<svg
   xmlns:dc="http://purl.org/dc/elements/1.1/"
   xmlns:cc="http://creativecommons.org/ns#"
   xmlns:rdf="http://www.w3.org/1999/02/22-rdf-syntax-ns#"
   xmlns:svg="http://www.w3.org/2000/svg"
   xmlns="http://www.w3.org/2000/svg"
   xmlns:sodipodi="http://sodipodi.sourceforge.net/DTD/sodipodi-0.dtd"
   xmlns:inkscape="http://www.inkscape.org/namespaces/inkscape"
   style="isolation:isolate"
   viewBox="0 0 36 36"
   width="48"
   height="48"
   version="1.1"
   id="svg21"
   sodipodi:docname="libreoffice-calc.svg"
   inkscape:version="0.92.4 (5da689c313, 2019-01-14)">
  <metadata
     id="metadata27">
    <rdf:RDF>
      <cc:Work
         rdf:about="">
        <dc:format>image/svg+xml</dc:format>
        <dc:type
           rdf:resource="http://purl.org/dc/dcmitype/StillImage" />
        <dc:title></dc:title>
      </cc:Work>
    </rdf:RDF>
  </metadata>
  <defs
     id="defs25" />
  <sodipodi:namedview
     pagecolor="#ffffff"
     bordercolor="#666666"
     borderopacity="1"
     objecttolerance="10"
     gridtolerance="10"
     guidetolerance="10"
     inkscape:pageopacity="0"
     inkscape:pageshadow="2"
     inkscape:window-width="640"
     inkscape:window-height="480"
     id="namedview23"
     showgrid="false"
     inkscape:zoom="29.365243"
     inkscape:cx="25.325443"
     inkscape:cy="32"
     inkscape:current-layer="svg21"
     units="px" />
  <linearGradient
     id="_lgradient_9"
     x1="0"
     y1="0.5"
     x2="1"
     y2="0.5"
     gradientTransform="matrix(20,0,0,20,25.124,26)"
     gradientUnits="userSpaceOnUse">
    <stop
       offset="0%"
       stop-opacity="1"
       style="stop-color:rgb(67,233,123)"
       id="stop2" />
    <stop
       offset="97.82608695652173%"
       stop-opacity="1"
       style="stop-color:rgb(56,249,215)"
       id="stop4" />
  </linearGradient>
  <linearGradient
     id="_lgradient_10"
     x1="24.624672"
     y1="35.999638"
     x2="45.624458"
     y2="35.999638"
     gradientTransform="scale(0.99998993,1.0000101)"
     gradientUnits="userSpaceOnUse">
    <stop
       offset="0%"
       stop-opacity="1"
       style="stop-color:rgb(67,233,123)"
       id="stop7" />
    <stop
       offset="97.82608695652173%"
       stop-opacity="1"
       style="stop-color:rgb(56,249,215)"
       id="stop9" />
  </linearGradient>
  <linearGradient
     id="_lgradient_11"
     x1="0"
     y1="0.5"
     x2="1"
     y2="0.5"
     gradientTransform="matrix(40,0,0,44,2,2)"
     gradientUnits="userSpaceOnUse">
    <stop
       offset="0%"
       stop-opacity="1"
       style="stop-color:rgb(67,233,123)"
       id="stop14" />
    <stop
       offset="97.82608695652173%"
       stop-opacity="1"
       style="stop-color:rgb(56,249,215)"
       id="stop16" />
  </linearGradient>
  <g
     id="g839"
     transform="matrix(0.80898876,0,0,0.80898876,-1.2636404,-1.6179774)">
    <path
       id="path12"
       stroke-miterlimit="3"
       d="m 26.943,35.391 v 0 c -0.038,0.499 -0.475,0.875 -0.977,0.839 v 0 c -0.501,-0.037 -0.877,-0.474 -0.839,-0.975 v 0 c 0.186,-2.514 1.32,-4.869 3.172,-6.587 C 30.151,26.955 32.586,26 35.112,26 c 2.653,0 5.202,1.055 7.081,2.927 1.875,1.878 2.931,4.423 2.931,7.073 0,2.65 -1.056,5.195 -2.931,7.073 C 40.314,44.945 37.765,46 35.112,46 v 0 c -0.503,0 -0.91,-0.407 -0.91,-0.909 v 0 c 0,-0.502 0.407,-0.909 0.91,-0.909 v 0 c 2.171,0 4.255,-0.864 5.793,-2.396 1.534,-1.536 2.399,-3.618 2.399,-5.786 0,-2.168 -0.865,-4.25 -2.399,-5.786 -1.538,-1.532 -3.622,-2.396 -5.793,-2.396 -2.066,0 -4.06,0.777 -5.575,2.182 -1.516,1.405 -2.44,3.332 -2.594,5.391 z m 4.36,7.854 v 0 c 0.444,0.234 0.615,0.784 0.382,1.228 v 0 c -0.234,0.444 -0.784,0.615 -1.229,0.382 v 0 c -1.893,-0.996 -3.422,-2.573 -4.355,-4.496 v 0 c -0.221,-0.451 -0.034,-0.996 0.418,-1.216 v 0 c 0.453,-0.219 0.999,-0.031 1.22,0.421 v 0 c 0.765,1.577 2.012,2.863 3.564,3.681 z m 6.772,-4.479 v 0 c 0.61,-0.049 1.143,0.406 1.19,1.014 v 0 c 0.048,0.608 -0.407,1.139 -1.013,1.185 v 0 c -0.476,0.039 -0.951,0.055 -1.426,0.055 -0.387,-0.005 -0.779,-0.027 -1.16,-0.077 -0.448,-0.05 -0.89,-0.144 -1.321,-0.265 -0.365,-0.105 -0.713,-0.249 -1.05,-0.426 -0.359,-0.199 -0.696,-0.442 -0.994,-0.723 -0.282,-0.277 -0.525,-0.592 -0.724,-0.94 -0.205,-0.364 -0.354,-0.762 -0.442,-1.171 -0.105,-0.47 -0.161,-0.951 -0.155,-1.431 0.005,-0.481 0.061,-0.956 0.171,-1.426 0.1,-0.409 0.254,-0.801 0.464,-1.166 0.199,-0.348 0.442,-0.663 0.73,-0.934 0.298,-0.287 0.635,-0.53 1,-0.723 0.32,-0.172 0.652,-0.31 1,-0.409 0.409,-0.122 0.823,-0.21 1.249,-0.266 0.392,-0.049 0.79,-0.082 1.188,-0.082 0.491,-0.006 0.983,0.011 1.47,0.049 v 0 c 0.606,0.049 1.059,0.581 1.011,1.188 v 0 c -0.049,0.607 -0.581,1.06 -1.188,1.011 v 0 c -0.42,-0.033 -0.84,-0.044 -1.266,-0.038 -0.309,0 -0.624,0.022 -0.928,0.066 -0.309,0.039 -0.608,0.1 -0.906,0.188 -0.205,0.061 -0.403,0.144 -0.591,0.243 -0.188,0.1 -0.36,0.227 -0.514,0.37 -0.133,0.127 -0.243,0.271 -0.337,0.431 -0.105,0.183 -0.183,0.382 -0.227,0.586 -0.077,0.304 -0.116,0.619 -0.116,0.934 0,0.309 0.033,0.624 0.1,0.928 0.044,0.199 0.116,0.392 0.221,0.575 0.082,0.154 0.193,0.298 0.326,0.42 0.149,0.149 0.32,0.27 0.508,0.37 0.193,0.105 0.398,0.188 0.613,0.254 0.315,0.088 0.641,0.155 0.967,0.193 0.304,0.039 0.614,0.056 0.918,0.061 0.414,0 0.823,-0.016 1.232,-0.044 z"
       style="vector-effect:non-scaling-stroke;fill:url(#_lgradient_9);fill-rule:evenodd;stroke:url(#_lgradient_10);stroke-width:1;stroke-linecap:square;stroke-linejoin:miter;stroke-miterlimit:3"
       inkscape:connector-curvature="0" />
    <path
       id="path19"
       d="m 10.62,18 v -3.5 0 0 h 5.004 v 0 3.5 z m 0,3 v 3.5 h 5.004 V 21 Z m 13,-3 v -3.5 h -4.996 v 0 3.5 z m 0,3 v 3.5 H 18.624 V 21 Z M 31,6 V 6 C 29.896,6 29,5.104 29,4 v 0 c 0,-1.104 0.896,-2 2,-2 v 0 h 6 c 2.76,0 5,2.24 5,5 v 6 0 c 0,1.104 -0.896,2 -2,2 v 0 c -1.104,0 -2,-0.896 -2,-2 V 13 9 C 38,7.344 36.656,6 35,6 Z m -9,36 v 0 c 1.104,0 2,0.896 2,2 v 0 c 0,1.104 -0.896,2 -2,2 v 0 H 7 C 4.24,46 2,43.76 2,41 V 7 C 2,4.24 4.24,2 7,2 h 13.77 c 1.656,0 3.925,0.975 5.065,2.176 L 41.34,20.51 v 0 c 0.817,0.74 0.882,2.005 0.145,2.825 v 0 c -0.737,0.82 -2.003,0.889 -2.825,0.155 v 0 L 22.915,6.729 C 22.537,6.327 21.782,6 21.23,6 H 9 C 7.344,6 6,7.344 6,9 v 30 c 0,1.656 1.344,3 3,3 z M 9.62,11.5 h 15 c 1.104,0 2,0.896 2,2 v 12 c 0,1.104 -0.896,2 -2,2 h -15 c -1.104,0 -2,-0.896 -2,-2 v -12 c 0,-1.104 0.896,-2 2,-2 z"
       style="fill:url(#_lgradient_11);fill-rule:evenodd"
       inkscape:connector-curvature="0" />
  </g>
</svg>
