<?xml version="1.0" encoding="UTF-8" standalone="no"?>
<!-- Generator: Gravit.io -->

<svg
   xmlns:dc="http://purl.org/dc/elements/1.1/"
   xmlns:cc="http://creativecommons.org/ns#"
   xmlns:rdf="http://www.w3.org/1999/02/22-rdf-syntax-ns#"
   xmlns:svg="http://www.w3.org/2000/svg"
   xmlns="http://www.w3.org/2000/svg"
   xmlns:sodipodi="http://sodipodi.sourceforge.net/DTD/sodipodi-0.dtd"
   xmlns:inkscape="http://www.inkscape.org/namespaces/inkscape"
   style="isolation:isolate"
   viewBox="0 0 36 36"
   width="48"
   height="48"
   version="1.1"
   id="svg21"
   sodipodi:docname="libreoffice-impress.svg"
   inkscape:version="0.92.4 (5da689c313, 2019-01-14)">
  <metadata
     id="metadata27">
    <rdf:RDF>
      <cc:Work
         rdf:about="">
        <dc:format>image/svg+xml</dc:format>
        <dc:type
           rdf:resource="http://purl.org/dc/dcmitype/StillImage" />
        <dc:title></dc:title>
      </cc:Work>
    </rdf:RDF>
  </metadata>
  <defs
     id="defs25" />
  <sodipodi:namedview
     pagecolor="#ffffff"
     bordercolor="#666666"
     borderopacity="1"
     objecttolerance="10"
     gridtolerance="10"
     guidetolerance="10"
     inkscape:pageopacity="0"
     inkscape:pageshadow="2"
     inkscape:window-width="640"
     inkscape:window-height="480"
     id="namedview23"
     showgrid="false"
     inkscape:zoom="29.365243"
     inkscape:cx="25.325443"
     inkscape:cy="32"
     inkscape:current-layer="svg21"
     units="px" />
  <linearGradient
     id="_lgradient_3"
     x1="0"
     y1="0.5"
     x2="0.90748805"
     y2="0.92007786"
     gradientTransform="matrix(20,0,0,20,25.124,26)"
     gradientUnits="userSpaceOnUse">
    <stop
       offset="0%"
       stop-opacity="1"
       style="stop-color:rgb(255,65,108)"
       id="stop2" />
    <stop
       offset="84.34782608695653%"
       stop-opacity="1"
       style="stop-color:rgb(255,75,43)"
       id="stop4" />
  </linearGradient>
  <linearGradient
     id="_lgradient_4"
     x1="24.624672"
     y1="35.999638"
     x2="43.681728"
     y2="44.821182"
     gradientTransform="scale(0.99998993,1.0000101)"
     gradientUnits="userSpaceOnUse">
    <stop
       offset="0%"
       stop-opacity="1"
       style="stop-color:rgb(255,65,108)"
       id="stop7" />
    <stop
       offset="84.34782608695653%"
       stop-opacity="1"
       style="stop-color:rgb(255,75,43)"
       id="stop9" />
  </linearGradient>
  <linearGradient
     id="_lgradient_5"
     x1="0"
     y1="0.5"
     x2="0.90748805"
     y2="0.92007786"
     gradientTransform="matrix(40,0,0,44,2,2)"
     gradientUnits="userSpaceOnUse">
    <stop
       offset="0%"
       stop-opacity="1"
       style="stop-color:rgb(255,65,108)"
       id="stop14" />
    <stop
       offset="84.34782608695653%"
       stop-opacity="1"
       style="stop-color:rgb(255,75,43)"
       id="stop16" />
  </linearGradient>
  <g
     id="g839"
     transform="matrix(0.80898876,0,0,0.80898876,-1.2636404,-1.6179774)">
    <path
       id="path12"
       stroke-miterlimit="3"
       d="m 26.943,35.391 v 0 c -0.038,0.499 -0.475,0.875 -0.977,0.839 v 0 c -0.501,-0.037 -0.877,-0.474 -0.839,-0.975 v 0 c 0.186,-2.514 1.32,-4.869 3.172,-6.587 C 30.151,26.955 32.586,26 35.112,26 c 2.653,0 5.202,1.055 7.081,2.927 1.875,1.878 2.931,4.423 2.931,7.073 0,2.65 -1.056,5.195 -2.931,7.073 C 40.314,44.945 37.765,46 35.112,46 v 0 c -0.503,0 -0.91,-0.407 -0.91,-0.909 v 0 c 0,-0.502 0.407,-0.909 0.91,-0.909 v 0 c 2.171,0 4.255,-0.864 5.793,-2.396 1.534,-1.536 2.399,-3.618 2.399,-5.786 0,-2.168 -0.865,-4.25 -2.399,-5.786 -1.538,-1.532 -3.622,-2.396 -5.793,-2.396 -2.066,0 -4.06,0.777 -5.575,2.182 -1.516,1.405 -2.44,3.332 -2.594,5.391 z m 4.36,7.854 v 0 c 0.444,0.234 0.615,0.784 0.382,1.228 v 0 c -0.234,0.444 -0.784,0.615 -1.229,0.382 v 0 c -1.893,-0.996 -3.422,-2.573 -4.355,-4.496 v 0 c -0.221,-0.451 -0.034,-0.996 0.418,-1.216 v 0 c 0.453,-0.219 0.999,-0.031 1.22,0.421 v 0 c 0.765,1.577 2.012,2.863 3.564,3.681 z m 4.701,-2.591 v 0 c 0,0.467 -0.394,0.846 -0.88,0.846 v 0 c -0.485,0 -0.88,-0.379 -0.88,-0.846 v 0 -9.308 0 c 0,-0.467 0.395,-0.846 0.88,-0.846 v 0 c 0.486,0 0.88,0.379 0.88,0.846 v 0 z"
       style="vector-effect:non-scaling-stroke;fill:url(#_lgradient_3);fill-rule:evenodd;stroke:url(#_lgradient_4);stroke-width:1;stroke-linecap:square;stroke-linejoin:miter;stroke-miterlimit:3"
       inkscape:connector-curvature="0" />
    <path
       id="path19"
       d="m 30,20 h -8 v 0 0 c -1.104,0 -2,0.897 -2,2 v 0 0 c 0,1.104 0.896,2 2,2 h 8 v 0 c 1.104,0 2,-0.896 2,-2 v 0 0 0 0 c 0,-1.103 -0.896,-2 -2,-2 z M 31,6 V 6 C 29.896,6 29,5.104 29,4 v 0 c 0,-1.104 0.896,-2 2,-2 v 0 h 6 c 2.76,0 5,2.24 5,5 v 6 0 c 0,1.104 -0.896,2 -2,2 v 0 c -1.104,0 -2,-0.896 -2,-2 V 13 9 C 38,7.344 36.656,6 35,6 Z m -9,36 v 0 c 1.104,0 2,0.896 2,2 v 0 c 0,1.104 -0.896,2 -2,2 v 0 H 7 C 4.24,46 2,43.76 2,41 V 7 C 2,4.24 4.24,2 7,2 h 13.77 c 1.656,0 3.925,0.975 5.065,2.176 L 41.34,20.51 v 0 c 0.817,0.74 0.882,2.005 0.145,2.825 v 0 c -0.737,0.82 -2.003,0.889 -2.825,0.155 v 0 L 22.915,6.729 C 22.537,6.327 21.782,6 21.23,6 H 9 C 7.344,6 6,7.344 6,9 v 30 c 0,1.656 1.344,3 3,3 z M 16.921,20 C 13.094,20.043 10,23.163 10,27 c 0,3.863 3.137,7 7,7 3.863,0 7,-3.137 7,-7 H 17 Z M 12.309,12 H 23.691 C 24.965,12 26,12.896 26,14 v 0 c 0,1.103 -1.035,2 -2.309,2 H 12.309 C 11.035,16 10,15.103 10,14 v 0 c 0,-1.104 1.035,-2 2.309,-2 z"
       style="fill:url(#_lgradient_5);fill-rule:evenodd"
       inkscape:connector-curvature="0" />
  </g>
</svg>
