<?xml version="1.0" encoding="UTF-8" standalone="no"?>
<!-- Created with Inkscape (http://www.inkscape.org/) -->

<svg
   xmlns:dc="http://purl.org/dc/elements/1.1/"
   xmlns:cc="http://creativecommons.org/ns#"
   xmlns:rdf="http://www.w3.org/1999/02/22-rdf-syntax-ns#"
   xmlns:svg="http://www.w3.org/2000/svg"
   xmlns="http://www.w3.org/2000/svg"
   xmlns:xlink="http://www.w3.org/1999/xlink"
   xmlns:sodipodi="http://sodipodi.sourceforge.net/DTD/sodipodi-0.dtd"
   xmlns:inkscape="http://www.inkscape.org/namespaces/inkscape"
   viewBox="0 0 36 36"
   width="48"
   height="48"
   version="1.1"
   id="svg8"
   inkscape:version="0.92.4 (5da689c313, 2019-01-14)"
   sodipodi:docname="lightdm-gtk-greeter-settings.svg">
  <defs
     id="defs2">
    <linearGradient
       id="linearGradient1043-7">
      <stop
         id="stop1230"
         offset="0"
         style="stop-color:#0080f7;stop-opacity:1;" />
      <stop
         style="stop-color:#7f40f8;stop-opacity:1;"
         offset="0.5"
         id="stop1232" />
      <stop
         id="stop1234"
         offset="1"
         style="stop-color:#ff5a00;stop-opacity:1;" />
    </linearGradient>
    <linearGradient
       id="linearGradient1043">
      <stop
         id="stop1168"
         offset="0"
         style="stop-color:#ff5f00;stop-opacity:1;" />
      <stop
         id="stop1170"
         offset="1"
         style="stop-color:#ff00fa;stop-opacity:1;" />
    </linearGradient>
    <linearGradient
       id="linearGradient1043-7-2">
      <stop
         style="stop-color:#0080f7;stop-opacity:1;"
         offset="0"
         id="stop1039" />
      <stop
         id="stop1173"
         offset="0.5"
         style="stop-color:#7f40f8;stop-opacity:1;" />
      <stop
         style="stop-color:#ff5a00;stop-opacity:1;"
         offset="1"
         id="stop1041" />
    </linearGradient>
    <linearGradient
       inkscape:collect="always"
       xlink:href="#linearGradient1043-7-2"
       id="linearGradient1177"
       gradientUnits="userSpaceOnUse"
       x1="31.75"
       y1="85.333336"
       x2="116.41666"
       y2="212.33333"
       gradientTransform="matrix(0.05041047,0,0,0.058185,2.3925702,281.58328)" />
    <linearGradient
       inkscape:collect="always"
       xlink:href="#linearGradient1043-7-2"
       id="linearGradient1179"
       gradientUnits="userSpaceOnUse"
       x1="31.75"
       y1="85.333336"
       x2="116.41666"
       y2="212.33333"
       gradientTransform="matrix(0.05041047,0,0,0.058185,1.5610292,280.93641)" />
    <linearGradient
       inkscape:collect="always"
       xlink:href="#linearGradient1043-7-2"
       id="linearGradient1189"
       gradientUnits="userSpaceOnUse"
       x1="31.75"
       y1="85.333336"
       x2="116.41666"
       y2="212.33333"
       gradientTransform="matrix(0.05041047,0,0,0.05402412,2.9708683,282.33302)" />
    <linearGradient
       inkscape:collect="always"
       xlink:href="#linearGradient1043-7-2"
       id="linearGradient1193"
       gradientUnits="userSpaceOnUse"
       x1="31.75"
       y1="85.333336"
       x2="116.41666"
       y2="212.33333"
       gradientTransform="matrix(0.05041047,0,0,0.058185,2.3925702,281.58328)" />
    <linearGradient
       inkscape:collect="always"
       xlink:href="#linearGradient1043-7-2"
       id="linearGradient1222"
       x1="112.88978"
       y1="113.07828"
       x2="138.54765"
       y2="113.07828"
       gradientUnits="userSpaceOnUse"
       gradientTransform="matrix(0.05041047,0,0,0.058185,2.3925702,281.58328)" />
    <linearGradient
       inkscape:collect="always"
       xlink:href="#linearGradient1043-7-2"
       id="linearGradient1224"
       x1="79.843063"
       y1="113.2522"
       x2="112.88978"
       y2="113.07828"
       gradientUnits="userSpaceOnUse"
       gradientTransform="matrix(0.05041047,0,0,0.058185,2.3925702,281.58328)" />
    <linearGradient
       inkscape:collect="always"
       xlink:href="#linearGradient1043-7-2"
       id="linearGradient1226"
       x1="46.638535"
       y1="113.2522"
       x2="79.843063"
       y2="113.2522"
       gradientUnits="userSpaceOnUse"
       gradientTransform="matrix(0.05041047,0,0,0.058185,2.3925702,281.58328)" />
    <linearGradient
       inkscape:collect="always"
       xlink:href="#linearGradient1043-7-2"
       id="linearGradient1228"
       x1="15.875"
       y1="111.79166"
       x2="46.638535"
       y2="113.2522"
       gradientUnits="userSpaceOnUse"
       gradientTransform="matrix(0.05041047,0,0,0.058185,2.3925702,281.58328)" />
  </defs>
  <sodipodi:namedview
     id="base"
     pagecolor="#ffffff"
     bordercolor="#666666"
     borderopacity="1.0"
     inkscape:pageopacity="0.0"
     inkscape:pageshadow="2"
     inkscape:zoom="10.55172"
     inkscape:cx="16.764658"
     inkscape:cy="23.223253"
     inkscape:document-units="px"
     inkscape:current-layer="layer1"
     showgrid="false"
     showguides="true"
     inkscape:window-width="1920"
     inkscape:window-height="1017"
     inkscape:window-x="-8"
     inkscape:window-y="1063"
     inkscape:window-maximized="1"
     units="px">
    <inkscape:grid
       type="xygrid"
       id="grid864" />
  </sodipodi:namedview>
  <metadata
     id="metadata5">
    <rdf:RDF>
      <cc:Work
         rdf:about="">
        <dc:format>image/svg+xml</dc:format>
        <dc:type
           rdf:resource="http://purl.org/dc/dcmitype/StillImage" />
        <dc:title />
      </cc:Work>
    </rdf:RDF>
  </metadata>
  <g
     inkscape:label="Layer 1"
     inkscape:groupmode="layer"
     id="layer1"
     transform="translate(0,-296.29997)">
    <g
       id="g861"
       transform="matrix(2.8361084,0,0,2.8361084,-0.00928847,-509.99825)">
      <rect
         y="286.99878"
         x="2.015321"
         height="2.2860086"
         width="9.0405064"
         id="rect843"
         style="opacity:1;fill:none;fill-opacity:1;fill-rule:nonzero;stroke:url(#linearGradient1177);stroke-width:0.37910885;stroke-linecap:round;stroke-linejoin:round;stroke-miterlimit:4;stroke-dasharray:none;stroke-opacity:1" />
      <rect
         y="291.11053"
         x="9.0521202"
         height="0.79310495"
         width="2.1018164"
         id="rect845"
         style="opacity:1;fill:none;fill-opacity:1;fill-rule:nonzero;stroke:url(#linearGradient1179);stroke-width:0.37910885;stroke-linecap:round;stroke-linejoin:round;stroke-miterlimit:4;stroke-dasharray:none;stroke-opacity:1" />
      <ellipse
         ry="0.74645174"
         rx="0.64671278"
         cy="288.1651"
         cx="3.7264149"
         id="path847"
         style="opacity:1;fill:url(#linearGradient1228);fill-opacity:1;fill-rule:nonzero;stroke:none;stroke-width:0.16247523;stroke-linecap:round;stroke-linejoin:round;stroke-miterlimit:4;stroke-dasharray:none;stroke-opacity:1" />
      <ellipse
         ry="0.74645174"
         rx="0.64671278"
         cy="288.17288"
         cx="5.3903532"
         id="path847-6"
         style="opacity:1;fill:url(#linearGradient1226);fill-opacity:1;fill-rule:nonzero;stroke:none;stroke-width:0.16247523;stroke-linecap:round;stroke-linejoin:round;stroke-miterlimit:4;stroke-dasharray:none;stroke-opacity:1" />
      <ellipse
         ry="0.74645174"
         rx="0.64671278"
         cy="288.17288"
         cx="7.0642099"
         id="path847-1"
         style="opacity:1;fill:url(#linearGradient1224);fill-opacity:1;fill-rule:nonzero;stroke:none;stroke-width:0.16247523;stroke-linecap:round;stroke-linejoin:round;stroke-miterlimit:4;stroke-dasharray:none;stroke-opacity:1" />
      <ellipse
         ry="0.74645174"
         rx="0.64671278"
         cy="288.16275"
         cx="8.7301102"
         id="path847-64"
         style="opacity:1;fill:url(#linearGradient1222);fill-opacity:1;fill-rule:nonzero;stroke:none;stroke-width:0.16247523;stroke-linecap:round;stroke-linejoin:round;stroke-miterlimit:4;stroke-dasharray:none;stroke-opacity:1" />
      <path
         sodipodi:nodetypes="cccccccsccccccccccsscccccscccccscsscscccccscccccccccsccscccssccccccccsccsccccsccsccscccssscccc"
         inkscape:connector-curvature="0"
         id="path959"
         d="m 3.3079677,296.5961 c -0.1222283,-0.0318 -0.2212506,-0.11477 -0.2730206,-0.22888 -0.036426,-0.0803 -0.055552,-0.17579 -0.077166,-0.38534 -0.010482,-0.10162 -0.024656,-0.20858 -0.031498,-0.23769 -0.041559,-0.17682 -0.1254363,-0.25644 -0.2823743,-0.26805 l -0.052856,-0.004 -0.05584,0.0306 c -0.030712,0.0168 -0.1040957,0.0672 -0.1630749,0.11194 -0.264416,0.20049 -0.3881062,0.28097 -0.4629708,0.30124 -0.017975,0.005 -0.051784,0.007 -0.086153,0.005 -0.1326843,-0.008 -0.2295636,-0.0781 -0.401179,-0.28985 -0.047384,-0.0585 -0.1135647,-0.13957 -0.147069,-0.18023 -0.033643,-0.0408 -0.067324,-0.089 -0.075228,-0.10765 -0.01399,-0.0329 -0.014189,-0.0363 -0.00886,-0.1473 0.00299,-0.0625 0.00844,-0.12201 0.012098,-0.13229 0.00864,-0.0243 0.035604,-0.0675 0.1649864,-0.26416 0.1236716,-0.18802 0.1979075,-0.30968 0.2237772,-0.36674 0.017978,-0.0396 0.018158,-0.0411 0.011467,-0.0935 -0.00738,-0.0577 -0.030944,-0.1458 -0.049838,-0.18627 -0.023019,-0.0493 -0.051876,-0.0763 -0.1056548,-0.099 -0.097241,-0.0409 -0.1627996,-0.0562 -0.3886274,-0.0903 -0.15968826,-0.0242 -0.23928337,-0.0422 -0.31220867,-0.0707 -0.0315953,-0.0123 -0.047165,-0.0244 -0.0850369,-0.0657 -0.0273744,-0.0299 -0.054466,-0.0675 -0.0661532,-0.0917 l -0.0197927,-0.0411 v -0.3677 c 0,-0.35614 4.0328e-4,-0.36902 0.0129545,-0.40944 0.014735,-0.0475 0.0469392,-0.0975 0.0826611,-0.12851 0.0792977,-0.0687 0.16870721,-0.0972 0.40899377,-0.13023 0.2072667,-0.0285 0.3105366,-0.0547 0.3753806,-0.0953 0.091225,-0.0571 0.1334899,-0.1273 0.1479744,-0.24574 0.00638,-0.0522 0.00586,-0.0618 -0.00563,-0.10269 -0.027286,-0.0972 -0.1111036,-0.23351 -0.2996212,-0.48708 -0.041078,-0.0553 -0.079144,-0.10984 -0.084592,-0.12131 -0.022958,-0.0483 -0.029418,-0.17553 -0.013238,-0.26075 0.023761,-0.12517 0.067114,-0.18501 0.2827966,-0.39035 0.064307,-0.0612 0.1436144,-0.13907 0.1762391,-0.17298 0.032625,-0.0339 0.1134128,-0.0641 0.1223107,-0.0665 0.0089,-0.002 -0.014765,-0.002 0.00463,0.001 0.0194,0.003 0.023132,-0.002 0.062054,-0.001 0.053919,2.2e-4 0.119151,0.0102 0.133217,0.0186 0.010154,0.006 0.086307,0.0645 0.1692285,0.12969 0.2609342,0.20526 0.4155819,0.31119 0.4543017,0.31119 0.03681,0 0.1768122,-0.0626 0.2523281,-0.11285 0.0447,-0.0297 0.06471,-0.0846 0.075238,-0.20637 0.00926,-0.10712 0.035224,-0.30183 0.052963,-0.39722 0.040716,-0.21896 0.091372,-0.32186 0.1811868,-0.36808 0.054235,-0.0279 0.098672,-0.0334 0.2947364,-0.0366 0.09646,-0.002 0.2196898,-0.005 0.2738433,-0.007 0.2582503,-0.012 0.3609838,0.0608 0.4119927,0.29185 0.0085,0.0385 0.023868,0.14536 0.034143,0.23743 0.021133,0.18934 0.032064,0.26064 0.050297,0.32809 0.047947,0.17736 0.1529826,0.27118 0.3036086,0.27118 0.034405,0 0.045965,-0.004 0.090465,-0.0287 0.028061,-0.0158 0.07179,-0.0438 0.097174,-0.0623 0.025384,-0.0185 0.1181525,-0.0864 0.2061516,-0.15075 0.2390338,-0.1749 0.3002059,-0.20574 0.4137196,-0.20856 0.058388,-0.001 0.069308,1.1e-4 0.091769,0.0132 0.1031454,0.06 0.335588,0.30615 0.4697273,0.49739 0.043714,0.0623 0.053155,0.0821 0.064681,0.13525 0.03049,0.14072 -0.020673,0.26748 -0.2345735,0.58119 -0.1757768,0.25779 -0.1847271,0.28134 -0.155415,0.40884 0.017034,0.0741 0.047481,0.1453 0.074858,0.17509 0.056943,0.062 0.1653942,0.0942 0.4122507,0.12264 0.1633239,0.0188 0.2178635,0.0291 0.2875227,0.0544 0.1277815,0.0464 0.2083712,0.14509 0.2316301,0.28376 0.00614,0.0366 0.010931,0.12194 0.013515,0.24085 0.0064,0.29459 0.00511,0.3658 -0.00747,0.41144 -0.039669,0.14393 -0.1297571,0.23654 -0.2798966,0.28773 -0.059192,0.0202 -0.14541,0.0369 -0.311818,0.0606 -0.2020804,0.0287 -0.2896419,0.0611 -0.3539233,0.1306 -0.0548,0.0593 -0.082833,0.14155 -0.078688,0.23088 0.00344,0.0741 0.00601,0.079 0.2398783,0.45559 0.1349861,0.21736 0.1710865,0.3 0.171323,0.39216 1.512e-4,0.065 -0.011207,0.1056 -0.045446,0.16229 -0.059768,0.099 -0.2252062,0.28844 -0.3717359,0.42576 -0.088017,0.0825 -0.1174327,0.10268 -0.1708773,0.11729 -0.1438665,0.0393 -0.2494209,-0.0116 -0.5854384,-0.28262 -0.1176581,-0.0949 -0.1785812,-0.13688 -0.2164918,-0.14924 -0.05221,-0.017 -0.1867315,0.0126 -0.2529386,0.0557 -0.081851,0.0532 -0.1223331,0.18236 -0.1601405,0.51072 -0.029634,0.25738 -0.052002,0.36093 -0.089518,0.41439 -0.026061,0.0371 -0.071123,0.0772 -0.1097335,0.0975 -0.040197,0.0212 -0.084497,0.0266 -0.2775238,0.0342 -0.3247855,0.0128 -0.3550328,0.0131 -0.3907648,0.004 z m 0.4631668,-2.2202 c 0.5246959,-0.1129 0.8684091,-0.66566 0.7675428,-1.23437 -0.06855,-0.38649 -0.3333851,-0.70256 -0.6798639,-0.81137 -0.2398081,-0.0753 -0.4838043,-0.0511 -0.707767,0.0703 -0.3281887,0.17786 -0.5329163,0.53613 -0.5332515,0.9332 -1.008e-4,0.10688 0.00753,0.17867 0.028549,0.26881 0.097109,0.41652 0.4275852,0.73222 0.8230362,0.78623 0.072836,0.01 0.2262855,0.003 0.3017544,-0.0128 z"
         style="fill:none;fill-opacity:1;stroke:url(#linearGradient1189);stroke-width:0.52795458;stroke-linecap:round;stroke-linejoin:round;stroke-miterlimit:4;stroke-dasharray:none;stroke-opacity:1" />
      <path
         sodipodi:nodetypes="ccccc"
         inkscape:connector-curvature="0"
         id="path923"
         d="m 0.52528229,289.93525 7e-8,-4.92633 11.64948764,-0.066 v 8.22356 H 8.0112361"
         style="fill:none;fill-opacity:1;stroke:url(#linearGradient1193);stroke-width:1.04391015;stroke-linecap:round;stroke-linejoin:round;stroke-miterlimit:4;stroke-dasharray:none;stroke-opacity:1" />
    </g>
  </g>
</svg>
