<?xml version="1.0" encoding="UTF-8" standalone="no"?>
<!-- Generator: Gravit.io -->

<svg
   xmlns:dc="http://purl.org/dc/elements/1.1/"
   xmlns:cc="http://creativecommons.org/ns#"
   xmlns:rdf="http://www.w3.org/1999/02/22-rdf-syntax-ns#"
   xmlns:svg="http://www.w3.org/2000/svg"
   xmlns="http://www.w3.org/2000/svg"
   xmlns:sodipodi="http://sodipodi.sourceforge.net/DTD/sodipodi-0.dtd"
   xmlns:inkscape="http://www.inkscape.org/namespaces/inkscape"
   style="isolation:isolate"
   viewBox="0 0 36 36"
   width="48"
   height="48"
   version="1.1"
   id="svg9"
   sodipodi:docname="linphone.svg"
   inkscape:version="0.92.4 (5da689c313, 2019-01-14)">
  <metadata
     id="metadata15">
    <rdf:RDF>
      <cc:Work
         rdf:about="">
        <dc:format>image/svg+xml</dc:format>
        <dc:type
           rdf:resource="http://purl.org/dc/dcmitype/StillImage" />
        <dc:title></dc:title>
      </cc:Work>
    </rdf:RDF>
  </metadata>
  <defs
     id="defs13" />
  <sodipodi:namedview
     pagecolor="#ffffff"
     bordercolor="#666666"
     borderopacity="1"
     objecttolerance="10"
     gridtolerance="10"
     guidetolerance="10"
     inkscape:pageopacity="0"
     inkscape:pageshadow="2"
     inkscape:window-width="640"
     inkscape:window-height="480"
     id="namedview11"
     showgrid="false"
     inkscape:zoom="29.365243"
     inkscape:cx="25.325443"
     inkscape:cy="32"
     inkscape:current-layer="svg9"
     units="px" />
  <linearGradient
     id="_lgradient_32"
     x1="0"
     y1="0.5"
     x2="1"
     y2="0.5"
     gradientTransform="matrix(44.198,0,0,44.233,1.462,1.71)"
     gradientUnits="userSpaceOnUse">
    <stop
       offset="0%"
       stop-opacity="1"
       style="stop-color:rgb(255,153,102)"
       id="stop2" />
    <stop
       offset="98.26086956521739%"
       stop-opacity="1"
       style="stop-color:rgb(255,94,98)"
       id="stop4" />
  </linearGradient>
  <g
     id="g826"
     transform="matrix(0.81387638,0,0,0.81387638,-1.1755826,-1.3916188)">
    <path
       id="path7"
       d="m 9.316,13.734 v 0 L 8.427,11.462 7.285,8.014 11.578,9.046 v 0 L 13,9.293 v 0 0 0 l 2.52,-0.9 c 2.41,-1.21 5.07,-1.84 7.76,-1.84 0.69,0 1.37,0.04 2.06,0.12 v 0 c 1.093,0.132 2.085,-0.649 2.215,-1.745 v 0 C 27.685,3.832 26.903,2.835 25.81,2.703 v 0 c -0.84,-0.1 -1.68,-0.15 -2.53,-0.15 -3.32,0 -6.59,0.78 -9.56,2.27 L 13.211,5.08 3.688,1.882 C 1.965,1.304 1.048,2.229 1.643,3.947 l 3.155,9.115 -0.056,0.101 c -1.79,3.21 -2.72,6.82 -2.72,10.49 -0.02,7.4 3.8,14.31 10.08,18.23 v 0 c 0.938,0.585 2.175,0.3 2.76,-0.635 v 0 c 0.585,-0.936 0.298,-2.17 -0.64,-2.755 v 0 c -5.11,-3.19 -8.21,-8.81 -8.2,-14.84 0,-2.99 0.76,-5.93 2.21,-8.55 z m 28.49,20.185 v 0 l 0.889,2.272 1.142,3.448 -4.293,-1.032 -1.422,-0.247 v 0 0 l -2.52,0.9 c -2.41,1.21 -5.07,1.84 -7.76,1.84 -0.69,0 -1.37,-0.04 -2.06,-0.12 v 0 c -1.093,-0.132 -2.086,0.649 -2.215,1.745 v 0 c -0.13,1.096 0.652,2.093 1.745,2.225 v 0 c 0.84,0.1 1.68,0.15 2.53,0.15 3.32,0 6.59,-0.78 9.56,-2.27 l 0.509,-0.257 9.523,3.197 c 1.723,0.579 2.639,-0.346 2.045,-2.064 L 42.324,34.591 42.38,34.49 C 44.17,31.28 45.1,27.67 45.1,24 45.12,16.6 41.3,9.69 35.02,5.77 v 0 C 34.082,5.185 32.845,5.47 32.26,6.405 v 0 C 31.675,7.34 31.962,8.575 32.9,9.16 v 0 c 5.11,3.19 8.21,8.81 8.2,14.84 0,2.99 -0.76,5.93 -2.21,8.55 z m -3.324,-4.913 c -0.023,-0.25 -0.171,-0.468 -0.398,-0.57 -1.531,-0.703 -3.07,-1.406 -4.601,-2.109 -0.172,-0.078 -0.383,-0.039 -0.508,0.109 l -2.078,2.344 c -0.164,0.187 -0.422,0.25 -0.649,0.156 -1.078,-0.445 -2.531,-1.195 -3.999,-2.461 -1.758,-1.507 -2.789,-3.125 -3.367,-4.179 0.289,-0.195 1.078,-0.781 1.429,-1.867 0,-0.008 0.008,-0.016 0.008,-0.016 0.219,-0.672 0.172,-1.398 -0.07,-2.062 -0.414,-1.102 -1.242,-3.235 -1.563,-3.563 -0.054,-0.054 -0.117,-0.109 -0.117,-0.109 -0.234,-0.211 -0.539,-0.328 -0.859,-0.344 -0.11,-0.008 -0.227,-0.008 -0.352,-0.008 -0.359,-0.007 -0.679,-0.007 -0.914,0.024 -0.664,0.094 -1.148,0.539 -1.453,0.914 -0.367,0.445 -0.805,1.109 -1.094,1.984 -0.023,0.078 -0.046,0.149 -0.07,0.227 -0.32,1.109 -0.258,2.297 0.125,3.39 0.359,1.024 0.883,2.242 1.672,3.531 1.336,2.196 2.789,3.555 3.773,4.453 1.11,1.024 2.484,2.281 4.664,3.328 2.016,0.969 3.844,1.328 5.07,1.477 0.5,0.047 1.422,0.054 2.477,-0.344 0.484,-0.188 0.89,-0.414 1.218,-0.656 0.867,-0.617 1.477,-1.547 1.633,-2.594 0,-0.008 0,-0.016 0,-0.023 0.055,-0.399 0.047,-0.742 0.023,-1.032 z"
       style="fill:url(#_lgradient_32);fill-rule:evenodd"
       inkscape:connector-curvature="0" />
  </g>
</svg>
