<?xml version="1.0" encoding="UTF-8" standalone="no"?>
<!-- Generator: Gravit.io -->

<svg
   xmlns:dc="http://purl.org/dc/elements/1.1/"
   xmlns:cc="http://creativecommons.org/ns#"
   xmlns:rdf="http://www.w3.org/1999/02/22-rdf-syntax-ns#"
   xmlns:svg="http://www.w3.org/2000/svg"
   xmlns="http://www.w3.org/2000/svg"
   xmlns:sodipodi="http://sodipodi.sourceforge.net/DTD/sodipodi-0.dtd"
   xmlns:inkscape="http://www.inkscape.org/namespaces/inkscape"
   style="isolation:isolate"
   viewBox="0 0 36 36"
   width="48"
   height="48"
   version="1.1"
   id="svg11"
   sodipodi:docname="livepatch.svg"
   inkscape:version="0.92.4 (5da689c313, 2019-01-14)">
  <metadata
     id="metadata17">
    <rdf:RDF>
      <cc:Work
         rdf:about="">
        <dc:format>image/svg+xml</dc:format>
        <dc:type
           rdf:resource="http://purl.org/dc/dcmitype/StillImage" />
        <dc:title></dc:title>
      </cc:Work>
    </rdf:RDF>
  </metadata>
  <defs
     id="defs15" />
  <sodipodi:namedview
     pagecolor="#ffffff"
     bordercolor="#666666"
     borderopacity="1"
     objecttolerance="10"
     gridtolerance="10"
     guidetolerance="10"
     inkscape:pageopacity="0"
     inkscape:pageshadow="2"
     inkscape:window-width="640"
     inkscape:window-height="480"
     id="namedview13"
     showgrid="false"
     inkscape:zoom="29.365243"
     inkscape:cx="25.325443"
     inkscape:cy="32"
     inkscape:current-layer="svg11"
     units="px" />
  <linearGradient
     id="_lgradient_20"
     x1="0.34027779"
     y1="0.036585364"
     x2="1.0087188"
     y2="1.0127324"
     gradientTransform="matrix(-54.312,-30.106,-30.197,54.476,66.255,11.815)"
     gradientUnits="userSpaceOnUse">
    <stop
       offset="0%"
       stop-opacity="1"
       style="stop-color:rgb(156,51,196)"
       id="stop2" />
    <stop
       offset="51.30434782608696%"
       stop-opacity="1"
       style="stop-color:rgb(255,25,80)"
       id="stop4" />
    <stop
       offset="98.69565217391305%"
       stop-opacity="1"
       style="stop-color:rgb(255,135,36)"
       id="stop6" />
  </linearGradient>
  <g
     id="g825"
     transform="matrix(0.7827854,0,0,0.7827854,-0.78682657,-0.78669924)">
    <path
       id="path9"
       d="m 7.637,33.823 0.419,0.633 v 0 c 1.686,2.57 3.969,4.681 6.654,6.169 2.589,1.435 5.477,2.247 8.431,2.364 v 0 c 1.105,0.045 1.966,0.978 1.921,2.083 v 0 c -0.044,1.105 -0.978,1.965 -2.082,1.921 v 0 C 19.4,46.85 15.902,45.859 12.771,44.124 9.727,42.436 7.11,40.085 5.115,37.249 4.75,38.248 3.657,38.787 2.636,38.46 v 0 C 1.585,38.124 1.005,36.998 1.341,35.948 v 0 l 1.407,-4.41 c 0.335,-1.052 1.503,-1.867 2.606,-1.819 l 3.998,0.173 v 0 c 1.097,0.046 1.951,0.978 1.905,2.079 v 0 c -0.045,1.102 -0.979,1.959 -2.084,1.915 v 0 z m 32.877,-19.06 v 0 c 0.539,0.961 1.761,1.308 2.726,0.773 v 0 c 0.966,-0.534 1.313,-1.753 0.776,-2.719 v 0 C 41.924,9.062 38.824,5.971 35.072,3.891 31.67,2.005 27.84,1.014 23.946,1.005 v 0 c -1.104,0 -2.001,0.897 -2.001,2.001 v 0 c 0,1.105 0.897,2.001 2.001,2.001 v 0 c 3.214,-0.002 6.37,0.822 9.187,2.383 3.105,1.721 5.659,4.269 7.381,7.373 z m -6.365,25.261 v 0 c -0.935,0.593 -1.211,1.83 -0.617,2.762 v 0 c 0.594,0.932 1.831,1.206 2.761,0.61 v 0 c 3.229,-2.051 5.888,-4.888 7.744,-8.238 1.416,-2.554 2.336,-5.348 2.701,-8.233 v 0 c 0.14,-1.096 -0.636,-2.1 -1.731,-2.24 v 0 c -1.096,-0.141 -2.1,0.635 -2.241,1.731 v 0 c -0.293,2.387 -1.059,4.695 -2.227,6.803 -1.532,2.764 -3.731,5.101 -6.39,6.805 z m -2.938,5.3 c 0.535,-0.965 0.185,-2.184 -0.78,-2.719 -0.965,-0.535 -2.184,-0.186 -2.719,0.78 -0.535,0.965 -0.186,2.184 0.78,2.719 0.965,0.535 2.184,0.186 2.719,-0.78 z M 30.918,27.886 c 1.028,-1.854 1.282,-4.046 0.698,-6.085 -0.585,-2.039 -1.962,-3.763 -3.816,-4.79 -1.854,-1.028 -4.046,-1.283 -6.085,-0.698 -2.039,0.585 -3.763,1.962 -4.791,3.816 -1.028,1.854 -1.282,4.046 -0.697,6.085 0.585,2.039 1.962,3.763 3.816,4.79 1.854,1.028 4.045,1.283 6.085,0.698 2.039,-0.585 3.762,-1.962 4.79,-3.816 z m 3.499,1.939 c 1.541,-2.781 1.914,-6.073 1.046,-9.127 -0.882,-3.05 -2.943,-5.644 -5.724,-7.186 -2.781,-1.542 -6.073,-1.914 -9.127,-1.046 -3.05,0.882 -5.645,2.942 -7.186,5.724 -1.542,2.781 -1.915,6.073 -1.046,9.127 0.882,3.05 2.942,5.644 5.724,7.186 2.781,1.542 6.073,1.914 9.127,1.046 3.05,-0.882 5.644,-2.943 7.186,-5.724 z"
       style="fill:url(#_lgradient_20);fill-rule:evenodd"
       inkscape:connector-curvature="0" />
  </g>
</svg>
