<?xml version="1.0" encoding="UTF-8" standalone="no"?>
<!-- Generator: Gravit.io -->

<svg
   xmlns:dc="http://purl.org/dc/elements/1.1/"
   xmlns:cc="http://creativecommons.org/ns#"
   xmlns:rdf="http://www.w3.org/1999/02/22-rdf-syntax-ns#"
   xmlns:svg="http://www.w3.org/2000/svg"
   xmlns="http://www.w3.org/2000/svg"
   xmlns:sodipodi="http://sodipodi.sourceforge.net/DTD/sodipodi-0.dtd"
   xmlns:inkscape="http://www.inkscape.org/namespaces/inkscape"
   style="isolation:isolate"
   viewBox="0 0 36 36"
   width="48"
   height="48"
   version="1.1"
   id="svg9"
   sodipodi:docname="logisim-icon.svg"
   inkscape:version="0.92.4 (5da689c313, 2019-01-14)">
  <metadata
     id="metadata15">
    <rdf:RDF>
      <cc:Work
         rdf:about="">
        <dc:format>image/svg+xml</dc:format>
        <dc:type
           rdf:resource="http://purl.org/dc/dcmitype/StillImage" />
        <dc:title></dc:title>
      </cc:Work>
    </rdf:RDF>
  </metadata>
  <defs
     id="defs13" />
  <sodipodi:namedview
     pagecolor="#ffffff"
     bordercolor="#666666"
     borderopacity="1"
     objecttolerance="10"
     gridtolerance="10"
     guidetolerance="10"
     inkscape:pageopacity="0"
     inkscape:pageshadow="2"
     inkscape:window-width="640"
     inkscape:window-height="480"
     id="namedview11"
     showgrid="false"
     inkscape:zoom="29.365243"
     inkscape:cx="25.325443"
     inkscape:cy="32"
     inkscape:current-layer="svg9"
     units="px" />
  <linearGradient
     id="_lgradient_22"
     x1="0"
     y1="0.5"
     x2="1"
     y2="0.5"
     gradientTransform="matrix(46,0,0,47,1,0.5)"
     gradientUnits="userSpaceOnUse">
    <stop
       offset="0%"
       stop-opacity="1"
       style="stop-color:rgb(24,208,173)"
       id="stop2" />
    <stop
       offset="90.44964029999998%"
       stop-opacity="1"
       style="stop-color:rgb(7,195,242)"
       id="stop4" />
  </linearGradient>
  <g
     id="g826"
     transform="matrix(0.76595745,0,0,0.76595745,-0.3829788,-0.3829788)">
    <path
       id="path7"
       d="m 21.85,36 c 1.31,-0.12 2.6,-0.4 3.84,-0.85 1.56,-0.57 3,-1.43 4.25,-2.52 1.27,-1.12 2.34,-2.45 3.16,-3.93 0.83,-1.49 1.45,-3.09 1.616,-3.778 0.129,-0.536 0.12,-1.405 -0.02,-1.939 C 34.69,22.96 34.37,21.98 33.99,21.03 33.61,20.09 33.14,19.18 32.6,18.33 31.67,16.86 30.45,15.59 29.01,14.61 27.54,13.65 25.92,12.96 24.22,12.58 23.53,12.42 22.84,12.29 22.15,12.2 c 0.24,0.45 0.45,0.91 0.64,1.38 0.78,2.03 1.19,4.17 1.21,6.33 v 0 c 0,1.154 -0.892,2.081 -1.99,2.07 v 0 C 20.912,21.969 20.011,21.064 20,19.96 v 0 C 19.98,18.28 19.66,16.61 19.06,15.04 18.51,13.66 17.67,12.41 16.6,11.37 16.02,10.8 15.84,9.93 16.15,9.18 16.45,8.43 17.19,7.94 18,7.94 h 0.1 c 2.36,-0.03 4.71,0.22 7,0.74 2.18,0.49 4.26,1.37 6.13,2.6 1.9,1.29 3.52,2.96 4.75,4.91 0.67,1.06 1.25,2.18 1.72,3.34 0.57,1.42 1.02,2.89 1.134,3.404 0.119,0.539 0.13,1.416 0.025,1.958 -0.269,1.378 -1.089,3.648 -2.259,5.748 -1.04,1.88 -2.4,3.57 -4.01,4.99 -1.63,1.43 -3.51,2.54 -5.54,3.28 -2.16,0.78 -4.44,1.17 -6.74,1.15 -2.35,0 -4.68,-0.36 -4.68,-0.36 -1.236,-0.386 -1.106,-1.314 0.29,-2.07 0,0 1.98,-2.21 3.05,-4.88 0.61,-1.57 0.96,-3.22 1.03,-4.9 v 0 c 0,-1.021 0.914,-1.846 2.04,-1.84 v 0 c 1.126,0.006 2.004,0.906 1.96,2.01 v 0 c -0.09,2.12 -0.54,4.22 -1.31,6.2 -0.24,0.61 -0.52,1.2 -0.84,1.78 z M 3,15.936 h 12 c 1.104,0 2,0.896 2,2 v 0 c 0,1.103 -0.896,2 -2,2 H 3 c -1.104,0 -2,-0.897 -2,-2 v 0 c 0,-1.104 0.896,-2 2,-2 z M 43,22 h 2 c 1.104,0 2,0.896 2,2 v 0 c 0,1.104 -0.896,2 -2,2 h -2 c -1.104,0 -2,-0.896 -2,-2 v 0 c 0,-1.104 0.896,-2 2,-2 z M 3,27.936 h 12 c 1.104,0 2,0.896 2,2 v 0 c 0,1.103 -0.896,2 -2,2 H 3 c -1.104,0 -2,-0.897 -2,-2 v 0 c 0,-1.104 0.896,-2 2,-2 z M 24,4.5 c 0,0 0,0 0,0 -5.44,0 -10.63,2.28 -14.32,6.27 v 0 c -0.751,0.811 -2.019,0.863 -2.83,0.115 v 0 C 6.039,10.137 5.989,8.871 6.74,8.06 v 0 C 11.19,3.24 17.45,0.5 24,0.5 c 0,0 0,0 0,0 4.65,0 9.19,1.38 13.06,3.96 3.86,2.59 6.88,6.26 8.66,10.55 v 0 c 0.419,1.021 -0.067,2.193 -1.085,2.615 v 0 c -1.018,0.422 -2.19,-0.064 -2.615,-1.085 v 0 C 40.55,12.98 38.04,9.93 34.84,7.79 31.63,5.65 27.86,4.5 24,4.5 Z m 0,-4 z m 0,0 z m 17.83,31.39 v 0 c 0.453,-1.01 1.638,-1.465 2.645,-1.015 v 0 c 1.007,0.45 1.462,1.631 1.015,2.635 v 0 c -1.84,4.16 -4.86,7.7 -8.67,10.18 C 33.01,46.18 28.55,47.5 24,47.5 17.43,47.5 11.15,44.74 6.7,39.9 v 0 C 5.955,39.089 6.009,37.823 6.82,37.075 v 0 c 0.811,-0.748 2.075,-0.696 2.82,0.115 v 0 c 3.69,4.02 8.91,6.31 14.36,6.31 3.78,0 7.47,-1.1 10.64,-3.16 3.16,-2.06 5.66,-4.99 7.19,-8.45 z"
       inkscape:connector-curvature="0"
       style="fill:url(#_lgradient_22);fill-rule:evenodd" />
  </g>
</svg>
