<?xml version="1.0" encoding="UTF-8" standalone="no"?>
<!-- Generator: Gravit.io -->

<svg
   xmlns:dc="http://purl.org/dc/elements/1.1/"
   xmlns:cc="http://creativecommons.org/ns#"
   xmlns:rdf="http://www.w3.org/1999/02/22-rdf-syntax-ns#"
   xmlns:svg="http://www.w3.org/2000/svg"
   xmlns="http://www.w3.org/2000/svg"
   xmlns:sodipodi="http://sodipodi.sourceforge.net/DTD/sodipodi-0.dtd"
   xmlns:inkscape="http://www.inkscape.org/namespaces/inkscape"
   style="isolation:isolate"
   viewBox="0 0 36 36"
   width="48"
   height="48"
   version="1.1"
   id="svg16"
   sodipodi:docname="matlab.svg"
   inkscape:version="0.92.4 (5da689c313, 2019-01-14)">
  <metadata
     id="metadata22">
    <rdf:RDF>
      <cc:Work
         rdf:about="">
        <dc:format>image/svg+xml</dc:format>
        <dc:type
           rdf:resource="http://purl.org/dc/dcmitype/StillImage" />
        <dc:title></dc:title>
      </cc:Work>
    </rdf:RDF>
  </metadata>
  <defs
     id="defs20" />
  <sodipodi:namedview
     pagecolor="#ffffff"
     bordercolor="#666666"
     borderopacity="1"
     objecttolerance="10"
     gridtolerance="10"
     guidetolerance="10"
     inkscape:pageopacity="0"
     inkscape:pageshadow="2"
     inkscape:window-width="640"
     inkscape:window-height="480"
     id="namedview18"
     showgrid="false"
     inkscape:zoom="29.365243"
     inkscape:cx="25.325443"
     inkscape:cy="32"
     inkscape:current-layer="svg16"
     units="px" />
  <linearGradient
     id="_lgradient_38"
     x1="0.67180997"
     y1="0.020570019"
     x2="0.47600845"
     y2="1.3813523"
     gradientTransform="matrix(34.351,0,0,32.001,7.649,1.17)"
     gradientUnits="userSpaceOnUse">
    <stop
       offset="0%"
       stop-opacity="1"
       style="stop-color:rgb(26,108,255)"
       id="stop2" />
    <stop
       offset="100%"
       stop-opacity="1"
       style="stop-color:rgb(197,34,255)"
       id="stop4" />
  </linearGradient>
  <linearGradient
     id="_lgradient_39"
     x1="0.69343787"
     y1="-0.39749092"
     x2="0.42214948"
     y2="0.96016449"
     gradientTransform="matrix(44.849,0,0,31.12,2.15,14.37)"
     gradientUnits="userSpaceOnUse">
    <stop
       offset="0%"
       stop-opacity="1"
       style="stop-color:rgb(26,108,255)"
       id="stop9" />
    <stop
       offset="100%"
       stop-opacity="1"
       style="stop-color:rgb(197,34,255)"
       id="stop11" />
  </linearGradient>
  <g
     id="g831"
     transform="matrix(0.80269321,0,0,0.80269321,-1.7257903,-0.72677295)">
    <path
       id="path7"
       d="m 11.76,29.13 1.12,-0.8 c 0.01,0 0.01,-0.01 0.02,-0.01 1.08,-0.75 2.14,-1.52 3.18,-2.32 0.96,-0.74 1.86,-1.54 2.7,-2.41 0.85,-0.89 1.61,-1.87 2.26,-2.92 0.76,-1.25 1.39,-2.58 1.88,-3.96 0.64,-1.8 1.23,-3.61 1.75,-5.45 0.35,-1.23 0.67,-2.46 0.96,-3.71 0.14,-0.6 0.29,-1.2 0.45,-1.8 0.15,-0.55 0.32,-1.1 0.53,-1.63 0.23,-0.56 0.58,-1.06 1.03,-1.47 0.4,-0.36 0.86,-0.66 1.35,-0.88 0.94,-0.41 1.95,-0.61 2.98,-0.6 1.03,-0.01 2.05,0.2 3,0.6 1.07,0.45 1.97,1.24 2.55,2.24 0.79,1.42 1.45,2.92 1.95,4.47 0.32,1.02 0.58,2.05 0.8,3.1 0.28,1.37 0.52,2.75 0.71,4.14 L 42,21 37.61,19 37.02,16.28 C 36.84,14.97 36.61,13.67 36.35,12.38 36.16,11.47 35.93,10.57 35.66,9.69 35.24,8.41 34.7,7.17 34.04,6 33.9,5.75 33.68,5.56 33.42,5.46 32.96,5.26 32.46,5.16 31.96,5.17 31.49,5.16 31.03,5.25 30.61,5.43 c -0.11,0.05 -0.2,0.11 -0.28,0.19 -0.01,0 -0.01,0 -0.01,0 C 30.17,6 30.05,6.39 29.95,6.78 29.8,7.34 29.66,7.9 29.52,8.47 c -0.3,1.3 -0.64,2.59 -1,3.88 -0.54,1.92 -1.16,3.82 -1.84,5.7 -0.57,1.64 -1.32,3.22 -2.23,4.71 -0.8,1.3 -1.73,2.5 -2.79,3.6 -0.98,1.01 -2.03,1.95 -3.14,2.81 -1.09,0.84 -2.2,1.65 -3.33,2.43 l -1.22,0.86 c -0.02,0.01 -0.03,0.02 -0.05,0.03 -0.69,0.46 -1.5,0.7 -2.32,0.68 -0.42,0 -0.84,-0.07 -1.23,-0.2 C 10.06,32.85 9.77,32.68 9.51,32.46 9.34,32.33 9.17,32.18 9.01,32.03 8.59,31.64 8.18,31.25 7.77,30.84 c -0.73,-0.71 2.04,-3.59 2.8,-2.85 0.38,0.38 0.77,0.75 1.16,1.11 0.01,0.01 0.02,0.02 0.03,0.03 z"
       style="fill:url(#_lgradient_38)"
       inkscape:connector-curvature="0" />
    <path
       id="path14"
       d="M 40.345,28.651 C 40.181,28.587 40.016,28.526 39.85,28.47 39.13,28.23 38.38,28.1 37.61,28.1 c -1.64,0 -3.23,0.59 -4.48,1.66 -0.18,0.17 -0.36,0.35 -0.52,0.55 -0.16,0.19 -0.32,0.39 -0.47,0.59 -0.42,0.55 -0.84,1.1 -1.25,1.66 -0.75,1.01 -1.5,2.01 -2.27,3.01 -0.81,1.05 -1.66,2.08 -2.55,3.08 -0.7,0.83 -1.48,1.58 -2.32,2.27 -0.12,0.1 -0.24,0.18 -0.36,0.27 -0.26,-0.94 -0.57,-1.86 -0.93,-2.77 -0.43,-1.04 -0.92,-2.06 -1.49,-3.04 -0.59,-1.03 -1.26,-2.03 -1.99,-2.97 -0.79,-1.02 -1.65,-1.99 -2.56,-2.91 l -1.41,-1.41 -2.83,2.82 1.41,1.42 c 0.79,0.8 1.54,1.64 2.23,2.53 0.62,0.8 1.18,1.64 1.69,2.52 0.47,0.82 0.89,1.67 1.24,2.55 0.34,0.84 0.63,1.71 0.85,2.59 0.15,0.74 0.51,1.43 1.02,2 0.6,0.63 1.44,0.98 2.32,0.97 0.65,-0.03 1.29,-0.2 1.86,-0.5 0.53,-0.27 1.02,-0.6 1.48,-0.97 1.01,-0.83 1.95,-1.75 2.81,-2.74 0.93,-1.06 1.83,-2.15 2.7,-3.27 0.78,-1.02 1.56,-2.04 2.32,-3.08 0.4,-0.53 0.8,-1.07 1.2,-1.59 0.13,-0.17 0.27,-0.34 0.4,-0.5 0.02,-0.03 0.05,-0.06 0.07,-0.08 0.51,-0.43 1.16,-0.66 1.82,-0.66 0.33,0 0.66,0.06 0.97,0.16 0.45,0.16 0.88,0.38 1.27,0.66 0.59,0.42 1.12,0.92 1.6,1.47 0.68,0.8 1.3,1.67 1.84,2.58 v 0 c 0.557,0.949 1.783,1.265 2.735,0.705 v 0 c 0.952,-0.56 1.268,-1.786 0.705,-2.735 v 0 C 46.593,34.723 46.462,34.508 46.329,34.294 45.225,31.34 44.226,27.736 43.34,24.94 42.84,23.39 42.39,21.83 41.97,20.25 41.63,18.96 41.34,17.66 41.11,16.34 L 40,14.37 37.17,14.937 v 2.083 c 0.214,1.424 0.514,2.824 0.94,4.26 0.43,1.63 0.9,3.26 1.42,4.87 0.265,0.836 0.54,1.669 0.815,2.501 z M 9.39,27.03 12,29 8.47,31.41 6.9,30.17 3.23,27.26 C 2.56,26.76 2.15,25.97 2.15,25.13 2.18,24.09 2.84,23.16 3.81,22.78 L 14.1,18.2 v 0 c 1.004,-0.453 2.185,0 2.635,1.01 v 0 c 0.45,1.01 -0.005,2.193 -1.015,2.64 v 0 L 8.393,25.113 C 7.889,25.338 7.832,25.798 8.264,26.14 Z"
       style="fill:url(#_lgradient_39);fill-rule:evenodd"
       inkscape:connector-curvature="0" />
  </g>
</svg>
