<?xml version="1.0" encoding="UTF-8" standalone="no"?>
<!-- Generator: Gravit.io -->

<svg
   xmlns:dc="http://purl.org/dc/elements/1.1/"
   xmlns:cc="http://creativecommons.org/ns#"
   xmlns:rdf="http://www.w3.org/1999/02/22-rdf-syntax-ns#"
   xmlns:svg="http://www.w3.org/2000/svg"
   xmlns="http://www.w3.org/2000/svg"
   xmlns:sodipodi="http://sodipodi.sourceforge.net/DTD/sodipodi-0.dtd"
   xmlns:inkscape="http://www.inkscape.org/namespaces/inkscape"
   style="isolation:isolate"
   viewBox="0 0 36 36"
   width="48"
   height="48"
   version="1.1"
   id="svg9"
   sodipodi:docname="mattermost.svg"
   inkscape:version="0.92.4 (5da689c313, 2019-01-14)">
  <metadata
     id="metadata15">
    <rdf:RDF>
      <cc:Work
         rdf:about="">
        <dc:format>image/svg+xml</dc:format>
        <dc:type
           rdf:resource="http://purl.org/dc/dcmitype/StillImage" />
        <dc:title></dc:title>
      </cc:Work>
    </rdf:RDF>
  </metadata>
  <defs
     id="defs13" />
  <sodipodi:namedview
     pagecolor="#ffffff"
     bordercolor="#666666"
     borderopacity="1"
     objecttolerance="10"
     gridtolerance="10"
     guidetolerance="10"
     inkscape:pageopacity="0"
     inkscape:pageshadow="2"
     inkscape:window-width="640"
     inkscape:window-height="480"
     id="namedview11"
     showgrid="false"
     inkscape:zoom="29.365243"
     inkscape:cx="25.325443"
     inkscape:cy="32"
     inkscape:current-layer="svg9"
     units="px" />
  <linearGradient
     id="_lgradient_1"
     x1="0"
     y1="0.5"
     x2="0.90748805"
     y2="0.92007786"
     gradientTransform="matrix(44,0,0,43.975,2,2.012)"
     gradientUnits="userSpaceOnUse">
    <stop
       offset="0%"
       stop-opacity="1"
       style="stop-color:rgb(0,196,255)"
       id="stop2" />
    <stop
       offset="83.88839793817618%"
       stop-opacity="1"
       style="stop-color:rgb(0,114,255)"
       id="stop4" />
  </linearGradient>
  <g
     id="g826"
     transform="matrix(0.81818182,0,0,0.81818182,-1.6363637,-1.6363637)">
    <path
       id="path7"
       d="M 23.503,2.012 C 11.557,2.282 2.01,12.039 2,23.988 c 0,12.15 9.85,22 22,22 12.15,0 22,-9.85 22,-22 -0.022,-7.193 -3.559,-13.92 -9.472,-18.016 v 5.438 c 2.057,2.717 3.175,6.028 3.186,9.435 0,8.679 -7.035,15.714 -15.714,15.714 C 15.321,36.559 8.286,29.524 8.286,20.845 8.295,13.496 13.397,7.134 20.569,5.53 21.468,4.458 22.581,3.119 23.049,2.546 23.205,2.354 23.351,2.191 23.503,2.012 Z m 5.653,3.149 c -0.116,0.052 -0.672,0.667 -1.24,1.363 -0.568,0.696 -1.808,2.182 -2.756,3.309 -0.948,1.126 -2.748,3.282 -3.996,4.788 -2.452,2.958 -2.843,3.554 -3.247,4.959 -0.252,0.878 -0.275,2.295 -0.049,3.119 0.618,2.257 2.683,3.948 5.346,4.382 0.121,0.02 0.54,0.044 0.927,0.05 1.614,0.023 2.986,-0.522 4.15,-1.652 0.613,-0.595 0.783,-0.829 1.16,-1.589 0.243,-0.49 0.506,-1.144 0.589,-1.449 0.213,-0.784 0.313,-2.403 0.203,-6.108 V 5.542 C 30.185,5.25 29.418,5.045 29.156,5.161 Z"
       inkscape:connector-curvature="0"
       style="fill:url(#_lgradient_1)" />
  </g>
</svg>
