<?xml version="1.0" encoding="UTF-8" standalone="no"?>
<!-- Generator: Gravit.io -->

<svg
   xmlns:dc="http://purl.org/dc/elements/1.1/"
   xmlns:cc="http://creativecommons.org/ns#"
   xmlns:rdf="http://www.w3.org/1999/02/22-rdf-syntax-ns#"
   xmlns:svg="http://www.w3.org/2000/svg"
   xmlns="http://www.w3.org/2000/svg"
   xmlns:sodipodi="http://sodipodi.sourceforge.net/DTD/sodipodi-0.dtd"
   xmlns:inkscape="http://www.inkscape.org/namespaces/inkscape"
   style="isolation:isolate"
   viewBox="0 0 36 36"
   width="48"
   height="48"
   version="1.1"
   id="svg11"
   sodipodi:docname="media-flash.svg"
   inkscape:version="0.92.4 (5da689c313, 2019-01-14)">
  <metadata
     id="metadata17">
    <rdf:RDF>
      <cc:Work
         rdf:about="">
        <dc:format>image/svg+xml</dc:format>
        <dc:type
           rdf:resource="http://purl.org/dc/dcmitype/StillImage" />
        <dc:title></dc:title>
      </cc:Work>
    </rdf:RDF>
  </metadata>
  <defs
     id="defs15" />
  <sodipodi:namedview
     pagecolor="#ffffff"
     bordercolor="#666666"
     borderopacity="1"
     objecttolerance="10"
     gridtolerance="10"
     guidetolerance="10"
     inkscape:pageopacity="0"
     inkscape:pageshadow="2"
     inkscape:window-width="640"
     inkscape:window-height="480"
     id="namedview13"
     showgrid="false"
     inkscape:zoom="29.365243"
     inkscape:cx="25.325443"
     inkscape:cy="32"
     inkscape:current-layer="svg11"
     units="px" />
  <linearGradient
     id="_lgradient_10"
     x1="0.11845439"
     y1="0.12238944"
     x2="0.9683277"
     y2="0.98477173"
     gradientTransform="matrix(32,0,0,44,8,2)"
     gradientUnits="userSpaceOnUse">
    <stop
       offset="2.608695652173913%"
       stop-opacity="1"
       style="stop-color:rgb(198,255,221)"
       id="stop2" />
    <stop
       offset="51.73913043478261%"
       stop-opacity="1"
       style="stop-color:rgb(251,215,134)"
       id="stop4" />
    <stop
       offset="99.1304347826087%"
       stop-opacity="1"
       style="stop-color:rgb(247,121,125)"
       id="stop6" />
  </linearGradient>
  <g
     id="g825"
     transform="matrix(0.81818182,0,0,0.81818182,-1.6363637,-1.6363637)">
    <path
       id="path9"
       d="m 36,32 v 0 c 0,-1.104 0.896,-2 2,-2 v 0 c 1.104,0 2,0.896 2,2 v 0 9 c 0,2.76 -2.24,5 -5,5 H 13 C 10.24,46 8,43.76 8,41 v -3 0 c 0,-1.104 0.896,-2 2,-2 v 0 c 1.104,0 2,0.896 2,2 v 0 1 c 0,1.656 1.344,3 3,3 h 18 c 1.656,0 3,-1.344 3,-3 z m 2,-8 v 0 c 1.104,0 2,0.896 2,2 v 0 c 0,1.104 -0.896,2 -2,2 v 0 c -1.104,0 -2,-0.896 -2,-2 v 0 c 0,-1.104 0.896,-2 2,-2 z m -28,6 v 0 c 1.104,0 2,0.896 2,2 v 0 c 0,1.104 -0.896,2 -2,2 v 0 C 8.896,34 8,33.104 8,32 v 0 c 0,-1.104 0.896,-2 2,-2 z M 20.5,7 h 2 v 4 h -2 z m 5,0 h 2 v 4 h -2 z m -0.529,13.971 v 0 C 24.971,20.435 25.406,20 25.942,20 v 0 c 0.536,0 0.971,0.435 0.971,0.971 v 0 0.827 0 c 0,0.535 -0.435,0.971 -0.971,0.971 v 0 c -0.536,0 -0.971,-0.436 -0.971,-0.971 v 0 z M 16,12 H 32 V 8 C 32,6.896 31.104,6 30,6 H 18 c -1.104,0 -2,0.896 -2,2 z m -4,0.1 C 9.719,12.564 8,14.583 8,17 v 9 0 c 0,1.104 0.896,2 2,2 v 0 c 1.104,0 2,-0.896 2,-2 v 0 -7 c 0,-1.656 1.344,-3 3,-3 h 18 c 1.656,0 3,1.344 3,3 v 1 0 c 0,1.104 0.896,2 2,2 v 0 c 1.104,0 2,-0.896 2,-2 v 0 -3 c 0,-2.417 -1.719,-4.436 -4,-4.9 V 12 7 C 36,4.24 33.76,2 31,2 H 17 c -2.76,0 -5,2.24 -5,5 v 5 z m 12.971,13.358 v 0 c 0,-0.536 0.435,-0.971 0.971,-0.971 v 0 c 0.536,0 0.971,0.435 0.971,0.971 v 0 4.208 h 3.314 c 1.786,0 2.279,1.089 1.099,2.43 l -5.188,5.898 c -1.18,1.341 -3.096,1.341 -4.276,0 l -5.188,-5.898 c -1.18,-1.341 -0.687,-2.43 1.099,-2.43 h 3.314 v -8.695 0 C 21.087,20.435 21.522,20 22.058,20 v 0 c 0.536,0 0.971,0.435 0.971,0.971 v 0 10.637 H 19.87 c -0.357,0 -0.468,0.228 -0.247,0.509 l 3.977,5.054 c 0.221,0.281 0.579,0.281 0.8,0 l 3.977,-5.054 c 0.221,-0.281 0.11,-0.509 -0.247,-0.509 h -3.159 z"
       inkscape:connector-curvature="0"
       style="fill:url(#_lgradient_10);fill-rule:evenodd" />
  </g>
</svg>
