<?xml version="1.0" encoding="UTF-8" standalone="no"?>
<!-- Generator: Gravit.io -->

<svg
   xmlns:dc="http://purl.org/dc/elements/1.1/"
   xmlns:cc="http://creativecommons.org/ns#"
   xmlns:rdf="http://www.w3.org/1999/02/22-rdf-syntax-ns#"
   xmlns:svg="http://www.w3.org/2000/svg"
   xmlns="http://www.w3.org/2000/svg"
   xmlns:sodipodi="http://sodipodi.sourceforge.net/DTD/sodipodi-0.dtd"
   xmlns:inkscape="http://www.inkscape.org/namespaces/inkscape"
   style="isolation:isolate"
   viewBox="0 0 48 48"
   width="48pt"
   height="48pt"
   version="1.1"
   id="svg11"
   sodipodi:docname="media-eject.svg"
   inkscape:version="0.92.4 (5da689c313, 2019-01-14)">
  <metadata
     id="metadata17">
    <rdf:RDF>
      <cc:Work
         rdf:about="">
        <dc:format>image/svg+xml</dc:format>
        <dc:type
           rdf:resource="http://purl.org/dc/dcmitype/StillImage" />
      </cc:Work>
    </rdf:RDF>
  </metadata>
  <defs
     id="defs15" />
  <sodipodi:namedview
     pagecolor="#ffffff"
     bordercolor="#666666"
     borderopacity="1"
     objecttolerance="10"
     gridtolerance="10"
     guidetolerance="10"
     inkscape:pageopacity="0"
     inkscape:pageshadow="2"
     inkscape:window-width="1280"
     inkscape:window-height="947"
     id="namedview13"
     showgrid="false"
     inkscape:zoom="10.443115"
     inkscape:cx="33.053326"
     inkscape:cy="32.287271"
     inkscape:window-x="0"
     inkscape:window-y="0"
     inkscape:window-maximized="1"
     inkscape:current-layer="svg11" />
  <linearGradient
     id="_lgradient_10"
     x1="0.11845439189189191"
     y1="0.12238943488943493"
     x2="0.968327702702703"
     y2="0.9847717035217036"
     gradientTransform="matrix(-32,0,0,-44,40,46)"
     gradientUnits="userSpaceOnUse">
    <stop
       offset="2.608695652173913%"
       stop-opacity="1"
       style="stop-color:rgb(198,255,221)"
       id="stop2" />
    <stop
       offset="51.73913043478261%"
       stop-opacity="1"
       style="stop-color:rgb(251,215,134)"
       id="stop4" />
    <stop
       offset="99.1304347826087%"
       stop-opacity="1"
       style="stop-color:rgb(247,121,125)"
       id="stop6" />
  </linearGradient>
  <path
     d="m 12,16 v 0 c 0,1.104 -0.896,2 -2,2 v 0 C 8.896,18 8,17.104 8,16 V 16 7 C 8,4.24 10.24,2 13,2 h 22 c 2.76,0 5,2.24 5,5 v 3 0 c 0,1.104 -0.896,2 -2,2 v 0 c -1.104,0 -2,-0.896 -2,-2 V 10 9 C 36,7.344 34.656,6 33,6 H 15 c -1.656,0 -3,1.344 -3,3 v 7 0 0 0 0 z m -2,8 v 0 C 8.896,24 8,23.104 8,22 v 0 c 0,-1.104 0.896,-2 2,-2 v 0 c 1.104,0 2,0.896 2,2 v 0 c 0,1.104 -0.896,2 -2,2 v 0 0 0 z m 28,-6 v 0 c -1.104,0 -2,-0.896 -2,-2 v 0 c 0,-1.104 0.896,-2 2,-2 v 0 c 1.104,0 2,0.896 2,2 v 0 c 0,1.104 -0.896,2 -2,2 v 0 0 z M 27.5,41 h -2 v -4 h 2 v 4 0 z m -5,0 h -2 v -4 h 2 v 4 z m 0.529,-13.971 v 0 c 0,0.536 -0.435,0.971 -0.971,0.971 v 0 c -0.536,0 -0.971,-0.435 -0.971,-0.971 v 0 -0.827 0 c 0,-0.535 0.435,-0.971 0.971,-0.971 v 0 c 0.536,0 0.971,0.436 0.971,0.971 v 0 z M 32,36 H 16 v 4 c 0,1.104 0.896,2 2,2 h 12 c 1.104,0 2,-0.896 2,-2 v -4 0 0 0 0 0 z m 4,-0.1 c 2.281,-0.464 4,-2.483 4,-4.9 v -9 0 c 0,-1.104 -0.896,-2 -2,-2 v 0 c -1.104,0 -2,0.896 -2,2 v 0 7 c 0,1.656 -1.344,3 -3,3 H 15 c -1.656,0 -3,-1.344 -3,-3 v -1 0 c 0,-1.104 -0.896,-2 -2,-2 v 0 c -1.104,0 -2,0.896 -2,2 v 0 3 c 0,2.417 1.719,4.436 4,4.9 v 0.1 5 c 0,2.76 2.24,5 5,5 h 14 c 2.76,0 5,-2.24 5,-5 v -5 -0.1 0 0 0 0 0 z M 23.029,22.542 v 0 c 0,0.536 -0.435,0.971 -0.971,0.971 v 0 c -0.536,0 -0.971,-0.435 -0.971,-0.971 v 0 -4.208 h -3.314 c -1.786,0 -2.279,-1.089 -1.099,-2.43 l 5.188,-5.898 c 1.18,-1.341 3.096,-1.341 4.276,0 l 5.188,5.898 c 1.18,1.341 0.687,2.43 -1.099,2.43 h -3.314 v 8.695 0 c 0,0.536 -0.435,0.971 -0.971,0.971 v 0 c -0.536,0 -0.971,-0.435 -0.971,-0.971 v 0 -10.637 h 3.159 c 0.357,0 0.468,-0.228 0.247,-0.509 L 24.4,10.829 c -0.221,-0.281 -0.579,-0.281 -0.8,0 l -3.977,5.054 c -0.221,0.281 -0.11,0.509 0.247,0.509 h 3.159 z"
     id="path9"
     style="fill:url(#_lgradient_10);fill-rule:evenodd"
     inkscape:connector-curvature="0" />
</svg>
