<?xml version="1.0" encoding="UTF-8" standalone="no"?>
<!-- Generator: Gravit.io -->

<svg
   xmlns:dc="http://purl.org/dc/elements/1.1/"
   xmlns:cc="http://creativecommons.org/ns#"
   xmlns:rdf="http://www.w3.org/1999/02/22-rdf-syntax-ns#"
   xmlns:svg="http://www.w3.org/2000/svg"
   xmlns="http://www.w3.org/2000/svg"
   xmlns:sodipodi="http://sodipodi.sourceforge.net/DTD/sodipodi-0.dtd"
   xmlns:inkscape="http://www.inkscape.org/namespaces/inkscape"
   style="isolation:isolate"
   viewBox="0 0 36 36"
   width="48"
   height="48"
   version="1.1"
   id="svg9"
   sodipodi:docname="meld.svg"
   inkscape:version="0.92.4 (5da689c313, 2019-01-14)">
  <metadata
     id="metadata15">
    <rdf:RDF>
      <cc:Work
         rdf:about="">
        <dc:format>image/svg+xml</dc:format>
        <dc:type
           rdf:resource="http://purl.org/dc/dcmitype/StillImage" />
        <dc:title></dc:title>
      </cc:Work>
    </rdf:RDF>
  </metadata>
  <defs
     id="defs13" />
  <sodipodi:namedview
     pagecolor="#ffffff"
     bordercolor="#666666"
     borderopacity="1"
     objecttolerance="10"
     gridtolerance="10"
     guidetolerance="10"
     inkscape:pageopacity="0"
     inkscape:pageshadow="2"
     inkscape:window-width="640"
     inkscape:window-height="480"
     id="namedview11"
     showgrid="false"
     inkscape:zoom="29.365243"
     inkscape:cx="25.325443"
     inkscape:cy="32"
     inkscape:current-layer="svg9"
     units="px" />
  <linearGradient
     id="_lgradient_51"
     x1="0"
     y1="0.5"
     x2="1"
     y2="0.5"
     gradientTransform="matrix(46,0,0,47.259,1,0.727)"
     gradientUnits="userSpaceOnUse">
    <stop
       offset="0%"
       stop-opacity="1"
       style="stop-color:rgb(255,224,49)"
       id="stop2" />
    <stop
       offset="98.69565217391305%"
       stop-opacity="1"
       style="stop-color:rgb(252,82,82)"
       id="stop4" />
  </linearGradient>
  <g
     id="g826"
     transform="matrix(0.76175123,0,0,0.76175123,-0.28207587,-0.55340914)">
    <path
       id="path7"
       d="m 5.155,4.988 c -5.554,8.479 -5.526,16.971 0,25.392 1.172,1.338 2.517,2.568 4.07,3.609 3.022,2.026 6.631,3.371 10.203,3.318 3.571,-0.053 7.122,-1.521 9.974,-5.108 2.917,-3.67 0.838,-9.206 -1.716,-10.683 -2.065,-0.964 -3.876,0.63 -4.144,1.652 0.741,-0.342 3.138,-0.506 3.574,0.953 0.458,3.388 -1.771,6.318 -4.909,6.663 -5.299,0.583 -9.435,-4.708 -9.859,-9.697 C 11.751,14.051 17.177,7.025 23.583,5.012 17.315,-0.699 11.182,-0.697 5.155,4.988 Z m 23.753,5.705 c -3.572,0.053 -7.123,1.521 -9.974,5.108 -2.917,3.67 -0.839,9.3 1.715,10.778 2.065,0.964 3.876,-0.631 4.144,-1.653 -0.74,0.343 -3.128,0.369 -3.564,-1.089 -0.458,-3.389 1.761,-6.276 4.899,-6.621 5.3,-0.583 9.436,4.708 9.859,9.697 0.598,7.036 -4.829,14.062 -11.234,16.075 6.193,6.646 12.355,6.674 18.427,0.024 5.084,-9.194 5.103,-17.639 0,-25.392 -1.171,-1.338 -2.517,-2.568 -4.07,-3.609 -3.022,-2.026 -6.631,-3.371 -10.202,-3.318 z"
       style="fill:url(#_lgradient_51);fill-rule:evenodd"
       inkscape:connector-curvature="0" />
  </g>
</svg>
