<?xml version="1.0" encoding="UTF-8" standalone="no"?>
<!-- Generator: Gravit.io -->

<svg
   xmlns:dc="http://purl.org/dc/elements/1.1/"
   xmlns:cc="http://creativecommons.org/ns#"
   xmlns:rdf="http://www.w3.org/1999/02/22-rdf-syntax-ns#"
   xmlns:svg="http://www.w3.org/2000/svg"
   xmlns="http://www.w3.org/2000/svg"
   xmlns:sodipodi="http://sodipodi.sourceforge.net/DTD/sodipodi-0.dtd"
   xmlns:inkscape="http://www.inkscape.org/namespaces/inkscape"
   style="isolation:isolate"
   viewBox="0 0 36 36"
   width="48"
   height="48"
   version="1.1"
   id="svg11"
   sodipodi:docname="mendeley-desktop.svg"
   inkscape:version="0.92.4 (5da689c313, 2019-01-14)">
  <metadata
     id="metadata17">
    <rdf:RDF>
      <cc:Work
         rdf:about="">
        <dc:format>image/svg+xml</dc:format>
        <dc:type
           rdf:resource="http://purl.org/dc/dcmitype/StillImage" />
        <dc:title></dc:title>
      </cc:Work>
    </rdf:RDF>
  </metadata>
  <defs
     id="defs15" />
  <sodipodi:namedview
     pagecolor="#ffffff"
     bordercolor="#666666"
     borderopacity="1"
     objecttolerance="10"
     gridtolerance="10"
     guidetolerance="10"
     inkscape:pageopacity="0"
     inkscape:pageshadow="2"
     inkscape:window-width="640"
     inkscape:window-height="480"
     id="namedview13"
     showgrid="false"
     inkscape:zoom="29.365243"
     inkscape:cx="25.325443"
     inkscape:cy="32"
     inkscape:current-layer="svg11"
     units="px" />
  <linearGradient
     id="_lgradient_61"
     x1="0.083333336"
     y1="-0.016666668"
     x2="1.0121145"
     y2="1.0134361"
     gradientTransform="matrix(45,0,0,45,1.5,1.5)"
     gradientUnits="userSpaceOnUse">
    <stop
       offset="0%"
       stop-opacity="1"
       style="stop-color:rgb(156,51,196)"
       id="stop2" />
    <stop
       offset="51.30434782608696%"
       stop-opacity="1"
       style="stop-color:rgb(255,25,80)"
       id="stop4" />
    <stop
       offset="98.69565217391305%"
       stop-opacity="1"
       style="stop-color:rgb(255,135,36)"
       id="stop6" />
  </linearGradient>
  <g
     id="g825"
     transform="matrix(0.8,0,0,0.8,-1.2,-1.2)">
    <path
       id="path9"
       d="m 12.214,42.214 v 0 c 1.183,0 2.143,0.96 2.143,2.143 v 0 c 0,1.183 -0.96,2.143 -2.143,2.143 v 0 H 6.857 C 3.9,46.5 1.5,44.1 1.5,41.143 v -5.357 0 c 0,-1.183 0.96,-2.143 2.143,-2.143 v 0 c 1.183,0 2.143,0.96 2.143,2.143 v 0 V 39 c 0,1.774 1.44,3.214 3.214,3.214 z m -6.428,-15 v 0 c 0,1.183 -0.96,2.143 -2.143,2.143 v 0 C 2.46,29.357 1.5,28.397 1.5,27.214 v 0 V 6.857 C 1.5,3.9 3.9,1.5 6.857,1.5 h 18.857 v 0 c 1.183,0 2.143,0.96 2.143,2.143 v 0 c 0,1.183 -0.96,2.143 -2.143,2.143 v 0 H 9 C 7.226,5.786 5.786,7.226 5.786,9 Z m 36.428,-5.357 v 0 c 0,-1.183 0.96,-2.143 2.143,-2.143 v 0 c 1.183,0 2.143,0.96 2.143,2.143 v 0 19.286 C 46.5,44.1 44.1,46.5 41.143,46.5 H 21.857 v 0 c -1.183,0 -2.143,-0.96 -2.143,-2.143 v 0 c 0,-1.183 0.96,-2.143 2.143,-2.143 v 0 H 39 c 1.774,0 3.214,-1.44 3.214,-3.214 z M 35.786,5.786 v 0 c -1.183,0 -2.143,-0.96 -2.143,-2.143 v 0 c 0,-1.183 0.96,-2.143 2.143,-2.143 v 0 h 5.357 C 44.1,1.5 46.5,3.9 46.5,6.857 v 5.357 0 c 0,1.183 -0.96,2.143 -2.143,2.143 v 0 c -1.183,0 -2.143,-0.96 -2.143,-2.143 v 0 V 9 C 42.214,7.226 40.774,5.786 39,5.786 Z M 24,22.666 c 1.105,0 2.002,0.91 2.002,2.034 0,1.124 -0.897,2.035 -2.002,2.035 -1.106,0 -2.002,-0.911 -2.002,-2.035 0,-1.124 0.896,-2.034 2.002,-2.034 z m -8.48,-9.664 c -1.306,0.041 -2.567,0.631 -3.533,1.524 -0.982,0.908 -1.686,2.156 -1.828,3.498 -0.071,0.67 -0.002,1.358 0.217,1.995 0.219,0.637 0.589,1.222 1.081,1.675 0.58,0.534 1.305,0.871 1.971,1.289 0.333,0.21 0.655,0.442 0.931,0.724 0.275,0.282 0.505,0.617 0.631,0.993 0.113,0.335 0.14,0.697 0.09,1.048 -0.05,0.35 -0.178,0.688 -0.364,0.987 -0.371,0.599 -0.971,1.035 -1.628,1.268 -0.763,0.27 -1.603,0.284 -2.339,0.624 -0.582,0.269 -1.071,0.739 -1.376,1.309 -0.305,0.571 -0.426,1.241 -0.352,1.886 0.087,0.759 0.444,1.48 0.979,2.015 0.536,0.536 1.244,0.885 1.987,1 1.089,0.169 2.253,-0.185 3.044,-0.964 0.396,-0.389 0.698,-0.876 0.866,-1.409 0.169,-0.533 0.204,-1.111 0.094,-1.659 -0.083,-0.419 -0.248,-0.816 -0.401,-1.214 -0.152,-0.399 -0.295,-0.807 -0.332,-1.232 -0.065,-0.752 0.218,-1.517 0.71,-2.083 0.491,-0.566 1.177,-0.938 1.902,-1.103 0.468,-0.106 0.955,-0.13 1.427,-0.047 0.473,0.082 0.93,0.271 1.312,0.564 0.383,0.293 0.689,0.691 0.859,1.147 0.169,0.455 0.2,0.967 0.064,1.434 -0.139,0.479 -0.437,0.889 -0.739,1.282 -0.302,0.393 -0.618,0.788 -0.798,1.252 -0.198,0.512 -0.217,1.089 -0.082,1.621 0.136,0.533 0.423,1.021 0.798,1.417 0.415,0.438 0.941,0.767 1.513,0.946 0.572,0.18 1.157,0.211 1.756,0.211 0.599,0 1.223,-0.031 1.795,-0.211 0.572,-0.179 1.098,-0.508 1.513,-0.946 0.376,-0.396 0.662,-0.884 0.798,-1.417 0.136,-0.532 0.116,-1.109 -0.082,-1.621 -0.18,-0.464 -0.496,-0.859 -0.798,-1.252 -0.302,-0.393 -0.6,-0.803 -0.739,-1.282 -0.135,-0.467 -0.105,-0.979 0.065,-1.434 0.169,-0.456 0.475,-0.854 0.858,-1.147 0.383,-0.293 0.84,-0.482 1.312,-0.564 0.472,-0.083 0.96,-0.059 1.427,0.047 0.725,0.165 1.411,0.537 1.903,1.103 0.491,0.566 0.774,1.331 0.709,2.083 -0.037,0.426 -0.18,0.833 -0.332,1.232 -0.153,0.398 -0.317,0.795 -0.401,1.214 -0.109,0.548 -0.075,1.126 0.094,1.659 0.168,0.533 0.47,1.02 0.866,1.409 0.792,0.779 1.955,1.133 3.044,0.964 0.743,-0.115 1.451,-0.464 1.987,-1 0.535,-0.535 0.892,-1.256 0.979,-2.015 0.074,-0.645 -0.046,-1.315 -0.352,-1.886 -0.305,-0.57 -0.794,-1.04 -1.376,-1.309 -0.735,-0.34 -1.576,-0.354 -2.339,-0.624 -0.657,-0.233 -1.257,-0.669 -1.628,-1.268 -0.186,-0.299 -0.314,-0.637 -0.364,-0.987 -0.05,-0.351 -0.022,-0.713 0.09,-1.048 0.126,-0.376 0.356,-0.711 0.632,-0.993 0.275,-0.282 0.597,-0.514 0.93,-0.724 0.666,-0.418 1.391,-0.755 1.971,-1.289 0.492,-0.453 0.862,-1.038 1.081,-1.675 0.219,-0.637 0.289,-1.325 0.217,-1.995 -0.142,-1.342 -0.846,-2.59 -1.828,-3.498 -0.966,-0.894 -2.227,-1.483 -3.533,-1.524 -0.653,-0.02 -1.31,0.096 -1.912,0.354 -0.602,0.258 -1.146,0.659 -1.562,1.17 -0.478,0.587 -0.777,1.299 -1.052,2.007 -0.275,0.708 -0.534,1.43 -0.95,2.063 -0.686,1.043 -1.769,2.035 -3.004,2.035 -1.234,0 -2.317,-0.992 -3.003,-2.035 -0.416,-0.633 -0.675,-1.355 -0.95,-2.063 -0.275,-0.708 -0.575,-1.42 -1.052,-2.007 -0.416,-0.511 -0.96,-0.912 -1.562,-1.17 -0.602,-0.258 -1.259,-0.374 -1.912,-0.354 z"
       inkscape:connector-curvature="0"
       style="fill:url(#_lgradient_61);fill-rule:evenodd" />
  </g>
</svg>
