<?xml version="1.0" encoding="UTF-8" standalone="no"?>
<!-- Generator: Gravit.io -->

<svg
   xmlns:dc="http://purl.org/dc/elements/1.1/"
   xmlns:cc="http://creativecommons.org/ns#"
   xmlns:rdf="http://www.w3.org/1999/02/22-rdf-syntax-ns#"
   xmlns:svg="http://www.w3.org/2000/svg"
   xmlns="http://www.w3.org/2000/svg"
   xmlns:sodipodi="http://sodipodi.sourceforge.net/DTD/sodipodi-0.dtd"
   xmlns:inkscape="http://www.inkscape.org/namespaces/inkscape"
   style="isolation:isolate"
   viewBox="0 0 36 36"
   width="48"
   height="48"
   version="1.1"
   id="svg9"
   sodipodi:docname="micropad.svg"
   inkscape:version="0.92.4 (5da689c313, 2019-01-14)">
  <metadata
     id="metadata15">
    <rdf:RDF>
      <cc:Work
         rdf:about="">
        <dc:format>image/svg+xml</dc:format>
        <dc:type
           rdf:resource="http://purl.org/dc/dcmitype/StillImage" />
        <dc:title></dc:title>
      </cc:Work>
    </rdf:RDF>
  </metadata>
  <defs
     id="defs13" />
  <sodipodi:namedview
     pagecolor="#ffffff"
     bordercolor="#666666"
     borderopacity="1"
     objecttolerance="10"
     gridtolerance="10"
     guidetolerance="10"
     inkscape:pageopacity="0"
     inkscape:pageshadow="2"
     inkscape:window-width="640"
     inkscape:window-height="480"
     id="namedview11"
     showgrid="false"
     inkscape:zoom="29.365243"
     inkscape:cx="25.325443"
     inkscape:cy="32"
     inkscape:current-layer="svg9"
     units="px" />
  <linearGradient
     id="_lgradient_24"
     x1="0.13636364"
     y1="0.96590906"
     x2="0.81567883"
     y2="0.1369143"
     gradientTransform="matrix(44,0,0,44,2,2)"
     gradientUnits="userSpaceOnUse">
    <stop
       offset="0%"
       stop-opacity="1"
       style="stop-color:rgb(255,229,59)"
       id="stop2" />
    <stop
       offset="98.69565217391305%"
       stop-opacity="1"
       style="stop-color:rgb(255,0,91)"
       id="stop4" />
  </linearGradient>
  <g
     id="g826"
     transform="matrix(0.81818182,0,0,0.81818182,-1.6363637,-1.6363637)">
    <path
       id="path7"
       d="m 12,11.599 v 26.718 c 0,0.956 0.776,1.732 1.732,1.732 h 0.433 c 0.957,0 1.733,-0.776 1.733,-1.732 v -7.331 q 2.208,1.19 5.675,1.19 v 0 0 q 2.783,0 4.954,-1.032 v 0 0 q 2.171,-1.032 3.394,-2.975 v 0 h 0.216 l 0.297,1.817 c 0.154,0.944 1.016,1.71 1.923,1.71 v 0 C 33.264,31.696 34,30.92 34,29.963 V 9.732 C 34,8.776 33.224,8 32.268,8 H 31.75 c -0.956,0 -1.733,0.776 -1.733,1.732 v 9.488 0 q 0,5.111 -1.907,7.366 v 0 0 q -1.907,2.255 -6.034,2.255 v 0 0 q -3.119,0 -4.582,-1.584 v 0 0 q -1.463,-1.583 -1.463,-4.798 v 0 V 9.732 C 16.031,8.776 15.254,8 14.298,8 H 13.732 C 12.776,8 12,8.776 12,9.732 Z M 6,28 v 0 c 0,1.104 -0.896,2 -2,2 v 0 C 2.896,30 2,29.104 2,28 V 28 7 C 2,4.24 4.24,2 7,2 h 34 c 2.76,0 5,2.24 5,5 v 5 0 c 0,1.104 -0.896,2 -2,2 v 0 c -1.104,0 -2,-0.896 -2,-2 V 12 9 C 42,7.344 40.656,6 39,6 H 9 C 7.344,6 6,7.344 6,9 Z m 36,-8 v 0 c 0,-1.104 0.896,-2 2,-2 v 0 c 1.104,0 2,0.896 2,2 v 0 22 c 0,2.208 -1.792,4 -4,4 H 6 C 3.792,46 2,44.208 2,42 v -6 0 c 0,-1.104 0.896,-2 2,-2 v 0 c 1.104,0 2,0.896 2,2 v 0 3 c 0,1.656 1.344,3 3,3 h 30 c 1.656,0 3,-1.344 3,-3 z"
       inkscape:connector-curvature="0"
       style="fill:url(#_lgradient_24);fill-rule:evenodd" />
  </g>
</svg>
