<?xml version="1.0" encoding="UTF-8" standalone="no"?>
<!-- Generator: Gravit.io -->

<svg
   xmlns:dc="http://purl.org/dc/elements/1.1/"
   xmlns:cc="http://creativecommons.org/ns#"
   xmlns:rdf="http://www.w3.org/1999/02/22-rdf-syntax-ns#"
   xmlns:svg="http://www.w3.org/2000/svg"
   xmlns="http://www.w3.org/2000/svg"
   xmlns:sodipodi="http://sodipodi.sourceforge.net/DTD/sodipodi-0.dtd"
   xmlns:inkscape="http://www.inkscape.org/namespaces/inkscape"
   style="isolation:isolate"
   viewBox="0 0 36 36"
   width="48"
   height="48"
   version="1.1"
   id="svg23"
   sodipodi:docname="mongodb-compass.svg"
   inkscape:version="0.92.4 (5da689c313, 2019-01-14)">
  <metadata
     id="metadata29">
    <rdf:RDF>
      <cc:Work
         rdf:about="">
        <dc:format>image/svg+xml</dc:format>
        <dc:type
           rdf:resource="http://purl.org/dc/dcmitype/StillImage" />
        <dc:title></dc:title>
      </cc:Work>
    </rdf:RDF>
  </metadata>
  <defs
     id="defs27" />
  <sodipodi:namedview
     pagecolor="#ffffff"
     bordercolor="#666666"
     borderopacity="1"
     objecttolerance="10"
     gridtolerance="10"
     guidetolerance="10"
     inkscape:pageopacity="0"
     inkscape:pageshadow="2"
     inkscape:window-width="640"
     inkscape:window-height="480"
     id="namedview25"
     showgrid="false"
     inkscape:zoom="29.365243"
     inkscape:cx="25.325443"
     inkscape:cy="32"
     inkscape:current-layer="svg23"
     units="px" />
  <linearGradient
     id="_lgradient_17"
     x1="0"
     y1="0.5"
     x2="1"
     y2="0.5"
     gradientTransform="matrix(1.658,0,0,7.167,23.462,31.242)"
     gradientUnits="userSpaceOnUse">
    <stop
       offset="0%"
       stop-opacity="1"
       style="stop-color:rgb(117,127,154)"
       id="stop2" />
    <stop
       offset="98.69565217391305%"
       stop-opacity="1"
       style="stop-color:rgb(215,221,232)"
       id="stop4" />
  </linearGradient>
  <linearGradient
     id="_lgradient_18"
     x1="0.18336116"
     y1="0.24917752"
     x2="0.9027437"
     y2="0.90347725"
     gradientTransform="matrix(13.385,0,0,25.132,17.331,9.694)"
     gradientUnits="userSpaceOnUse">
    <stop
       offset="2.608695652173913%"
       stop-opacity="1"
       style="stop-color:rgb(179,255,171)"
       id="stop9" />
    <stop
       offset="98.69565217391305%"
       stop-opacity="1"
       style="stop-color:rgb(18,255,247)"
       id="stop11" />
  </linearGradient>
  <linearGradient
     id="_lgradient_19"
     x1="0.99411762"
     y1="0.48015597"
     x2="0.00018059855"
     y2="0.45213065"
     gradientTransform="matrix(47.058,0,0,46.985,0.495,0.559)"
     gradientUnits="userSpaceOnUse">
    <stop
       offset="0%"
       stop-opacity="1"
       style="stop-color:rgb(17,153,142)"
       id="stop16" />
    <stop
       offset="99.1304347826087%"
       stop-opacity="1"
       style="stop-color:rgb(56,239,125)"
       id="stop18" />
  </linearGradient>
  <g
     id="g839"
     transform="matrix(0.76501411,0,0,0.76501411,-0.37869586,-0.39961803)">
    <path
       id="path7"
       d="m 24.099,31.242 c -0.082,0.271 -0.067,0.559 -0.108,0.837 -0.069,0.667 -0.12,1.338 -0.292,1.99 -0.063,0.276 -0.16,0.544 -0.237,0.816 0.187,0.362 0.248,0.762 0.289,1.16 0.086,0.463 0.107,0.936 0.144,1.404 0.03,0.234 -0.094,0.531 0.114,0.707 0.236,0.078 0.471,0.162 0.703,0.252 -0.03,-0.452 -0.076,-0.903 -0.063,-1.357 -0.019,-0.429 0.052,-0.854 0.085,-1.28 0.022,-0.207 0.022,-0.418 0.105,-0.612 0.063,-0.185 0.191,-0.342 0.28,-0.515 -0.137,-0.092 -0.266,-0.201 -0.385,-0.313 -0.103,-0.236 -0.235,-0.464 -0.319,-0.707 -0.204,-0.776 -0.327,-1.581 -0.316,-2.382 z"
       style="fill:url(#_lgradient_17)"
       inkscape:connector-curvature="0" />
    <path
       id="path14"
       d="m 24.024,26.571 c 0.03,-4.263 0.035,-8.526 0,-12.789 v 0 c 0.005,-1.283 0.043,-2.565 0,-3.843 v 0 c 0.366,0.654 0.652,1.37 1.203,1.908 2.073,1.918 3.688,4.303 4.581,6.945 0.971,2.539 1.176,5.357 0.554,7.995 -0.617,2.634 -2.036,5.092 -4.099,6.924 -0.439,0.254 -0.999,1.291 -1.483,0.667 -0.542,-0.841 -0.688,-1.887 -0.756,-2.857 v 0 c 0.077,-1.532 0.005,-3.065 0,-4.6 v 4.6 0.311 c -0.074,0.75 -0.157,1.5 -0.324,2.237 -0.121,0.453 -0.197,1.184 -0.706,0.435 -3.313,-2.617 -5.642,-6.563 -5.663,-10.759 0.017,-2.055 0.336,-4.141 1.145,-6.048 0.257,-0.826 0.659,-1.588 1.102,-2.332 0.634,-1.282 1.636,-2.347 2.649,-3.361 0.617,-0.719 1.716,-1.299 1.797,-2.31 v 0.245 3.843 z"
       style="fill:url(#_lgradient_18);fill-rule:evenodd"
       inkscape:connector-curvature="0" />
    <path
       id="path21"
       d="m 25.631,43.272 v 0 c -1.174,0.099 -2.049,1.135 -1.953,2.312 v 0 c 0.096,1.176 1.132,2.051 2.312,1.952 v 0 C 31.9,47.044 37.416,44.331 41.419,39.942 45.412,35.553 47.606,29.811 47.552,23.875 47.496,17.64 44.96,11.674 40.514,7.297 36.057,2.93 30.046,0.504 23.811,0.56 17.576,0.616 11.61,3.152 7.233,7.598 2.866,12.054 0.439,18.066 0.496,24.301 v 0 c 0.01,1.18 0.978,2.13 2.158,2.119 v 0 c 1.181,-0.01 2.13,-0.977 2.12,-2.158 v 0 C 4.727,19.161 6.715,14.244 10.287,10.597 13.869,6.96 18.748,4.884 23.85,4.838 c 5.101,-0.046 10.018,1.941 13.665,5.513 3.637,3.582 5.713,8.462 5.759,13.563 0.044,4.855 -1.742,9.556 -5.015,13.147 -3.272,3.591 -7.787,5.803 -12.628,6.211 z M 7.058,33.194 v 0 C 6.499,32.154 5.202,31.763 4.162,32.321 v 0 C 3.122,32.88 2.731,34.177 3.29,35.217 v 0 c 2.382,4.428 6.126,7.988 10.669,10.139 v 0 c 1.067,0.51 2.345,0.057 2.852,-1.01 v 0 c 0.507,-1.067 0.052,-2.347 -1.015,-2.857 v 0 C 12.069,39.726 9.016,36.823 7.058,33.194 Z"
       style="fill:url(#_lgradient_19);fill-rule:evenodd"
       inkscape:connector-curvature="0" />
  </g>
</svg>
