<?xml version="1.0" encoding="UTF-8" standalone="no"?>
<!-- Generator: Gravit.io -->

<svg
   xmlns:dc="http://purl.org/dc/elements/1.1/"
   xmlns:cc="http://creativecommons.org/ns#"
   xmlns:rdf="http://www.w3.org/1999/02/22-rdf-syntax-ns#"
   xmlns:svg="http://www.w3.org/2000/svg"
   xmlns="http://www.w3.org/2000/svg"
   xmlns:sodipodi="http://sodipodi.sourceforge.net/DTD/sodipodi-0.dtd"
   xmlns:inkscape="http://www.inkscape.org/namespaces/inkscape"
   style="isolation:isolate"
   viewBox="0 0 36 36"
   width="48"
   height="48"
   version="1.1"
   id="svg30"
   sodipodi:docname="mps.svg"
   inkscape:version="0.92.4 (5da689c313, 2019-01-14)">
  <metadata
     id="metadata36">
    <rdf:RDF>
      <cc:Work
         rdf:about="">
        <dc:format>image/svg+xml</dc:format>
        <dc:type
           rdf:resource="http://purl.org/dc/dcmitype/StillImage" />
        <dc:title></dc:title>
      </cc:Work>
    </rdf:RDF>
  </metadata>
  <defs
     id="defs34" />
  <sodipodi:namedview
     pagecolor="#ffffff"
     bordercolor="#666666"
     borderopacity="1"
     objecttolerance="10"
     gridtolerance="10"
     guidetolerance="10"
     inkscape:pageopacity="0"
     inkscape:pageshadow="2"
     inkscape:window-width="640"
     inkscape:window-height="480"
     id="namedview32"
     showgrid="false"
     inkscape:zoom="29.365243"
     inkscape:cx="25.325443"
     inkscape:cy="32"
     inkscape:current-layer="svg30"
     units="px" />
  <linearGradient
     id="_lgradient_36"
     x1="0"
     y1="0.5"
     x2="0.98779029"
     y2="0.34421042"
     gradientTransform="matrix(35.17,0,0,22.62,0.58,24.6)"
     gradientUnits="userSpaceOnUse">
    <stop
       offset="100%"
       stop-opacity="1"
       style="stop-color:rgb(34,216,143)"
       id="stop2" />
    <stop
       offset="100%"
       stop-opacity="1"
       style="stop-color:rgb(33,214,145)"
       id="stop4" />
  </linearGradient>
  <linearGradient
     id="_lgradient_37"
     x1="0"
     y1="0.5"
     x2="1"
     y2="0.5"
     gradientTransform="matrix(46.38,0,0,29.69,0.9,-0.16)"
     gradientUnits="userSpaceOnUse">
    <stop
       offset="6%"
       stop-opacity="1"
       style="stop-color:rgb(43,134,208)"
       id="stop9" />
    <stop
       offset="89%"
       stop-opacity="1"
       style="stop-color:rgb(33,215,137)"
       id="stop11" />
  </linearGradient>
  <linearGradient
     id="_lgradient_38"
     x1="0.41703096"
     y1="0.019248826"
     x2="0.67953813"
     y2="0.96413201"
     gradientTransform="matrix(13.74,0,0,22.13,35.67,17.17)"
     gradientUnits="userSpaceOnUse">
    <stop
       offset="28.000000000000004%"
       stop-opacity="1"
       style="stop-color:rgb(0,205,215)"
       id="stop16" />
    <stop
       offset="94%"
       stop-opacity="1"
       style="stop-color:rgb(32,134,215)"
       id="stop18" />
  </linearGradient>
  <linearGradient
     id="_lgradient_39"
     x1="-3.8208334e-05"
     y1="0.50000006"
     x2="0.99996185"
     y2="0.50000006"
     gradientTransform="matrix(29,0,0,29,9.5,9.5)"
     gradientUnits="userSpaceOnUse">
    <stop
       offset="0%"
       stop-opacity="1"
       style="stop-color:rgb(0,198,255)"
       id="stop23" />
    <stop
       offset="98.69565217391305%"
       stop-opacity="1"
       style="stop-color:rgb(0,114,255)"
       id="stop25" />
  </linearGradient>
  <g
     id="g847"
     transform="matrix(0.73725169,0,0,0.73725169,-0.42760599,0.65246773)">
    <path
       id="path7"
       d="m 31.3,37.45 1.04,-1.7 3.41,2.09 -1.05,1.71 -4.72,7.67 -29.4,-5.65 3.47,-15.02 0.45,-1.95 3.9,0.9 -0.45,1.95 -2.53,10.98 22.6,4.35 z"
       style="fill:url(#_lgradient_36)"
       inkscape:connector-curvature="0" />
    <path
       id="path14"
       d="m 10.14,25.1 1.89,0.64 -1.27,3.79 L 8.86,28.9 2.09,26.61 0.9,7.44 l 32.55,-7.6 13.83,10.37 -3.35,12.42 -0.52,1.93 -3.86,-1.04 0.52,-1.93 2.65,-9.8 L 32.55,4.16 5.1,10.56 5.91,23.68 Z"
       style="fill:url(#_lgradient_37)"
       inkscape:connector-curvature="0" />
    <path
       id="path21"
       d="m 37.05,21.37 -1.38,-1.45 2.91,-2.75 1.37,1.46 9.46,10.01 -5.32,10.66 -6.03,-1.37 -1.95,-0.44 0.88,-3.9 1.95,0.44 2.97,0.67 2.68,-5.34 z"
       style="fill:url(#_lgradient_38)"
       inkscape:connector-curvature="0" />
    <path
       id="path28"
       d="m 35.978,31.218 v 0 c 0,-0.695 0.565,-1.26 1.261,-1.26 v 0 c 0.696,0 1.261,0.565 1.261,1.26 v 0 4.13 c 0,1.74 -1.412,3.152 -3.152,3.152 H 12.652 C 10.912,38.5 9.5,37.088 9.5,35.348 v -11.978 0 c 0,-0.696 0.565,-1.261 1.261,-1.261 v 0 c 0.696,0 1.261,0.565 1.261,1.261 v 0 10.717 c 0,1.044 0.847,1.891 1.891,1.891 h 20.174 c 1.044,0 1.891,-0.847 1.891,-1.891 z M 12.022,16.782 v 0 c 0,0.695 -0.565,1.26 -1.261,1.26 v 0 c -0.696,0 -1.261,-0.565 -1.261,-1.26 v 0 -4.13 C 9.5,10.912 10.912,9.5 12.652,9.5 h 22.696 c 1.74,0 3.152,1.412 3.152,3.152 v 12.495 0 c 0,0.696 -0.565,1.261 -1.261,1.261 v 0 c -0.696,0 -1.261,-0.565 -1.261,-1.261 v 0 -11.234 c 0,-1.044 -0.847,-1.891 -1.891,-1.891 H 13.913 c -1.044,0 -1.891,0.847 -1.891,1.891 z M 13,30.5 H 23 V 33 H 13 Z m 5.023,-7.655 H 16.53 l -1.851,-6.029 h -0.047 v 0 q 0.1,1.84 0.1,2.455 v 0 3.574 H 13.276 V 15.16 h 2.218 l 1.819,5.877 h 0.032 l 1.929,-5.877 h 2.218 v 7.685 h -1.519 v -3.637 0 q 0,-0.258 0.008,-0.594 v 0 0 q 0.008,-0.337 0.071,-1.788 v 0 h -0.047 z m 7.034,-6.35 v 2.282 h 0.536 v 0 q 0.752,0 1.125,-0.297 v 0 0 q 0.373,-0.297 0.373,-0.865 v 0 0 q 0,-0.573 -0.313,-0.847 v 0 0 q -0.312,-0.273 -0.98,-0.273 v 0 z m 9.667,4.216 v 0 0 q 0,1.041 -0.749,1.64 v 0 0 q -0.749,0.6 -2.084,0.6 v 0 0 q -1.23,0 -2.177,-0.463 v 0 -1.514 0 q 0.778,0.347 1.317,0.489 v 0 0 q 0.539,0.142 0.986,0.142 v 0 0 q 0.536,0 0.823,-0.205 v 0 0 q 0.286,-0.205 0.286,-0.61 v 0 0 q 0,-0.226 -0.126,-0.402 v 0 0 q -0.126,-0.176 -0.371,-0.339 v 0 0 q -0.244,-0.163 -0.996,-0.521 v 0 0 q -0.704,-0.331 -1.057,-0.636 v 0 0 q -0.352,-0.305 -0.562,-0.709 v 0 0 q -0.21,-0.405 -0.21,-0.947 v 0 0 q 0,-1.02 0.691,-1.603 v 0 0 q 0.691,-0.584 1.911,-0.584 v 0 0 q 0.599,0 1.143,0.142 v 0 0 q 0.544,0.142 1.138,0.4 v 0 l -0.525,1.267 v 0 q -0.615,-0.253 -1.018,-0.352 v 0 0 q -0.402,-0.1 -0.791,-0.1 v 0 0 q -0.462,0 -0.709,0.215 v 0 0 q -0.247,0.216 -0.247,0.563 v 0 0 q 0,0.215 0.099,0.376 v 0 0 q 0.1,0.16 0.318,0.31 v 0 0 q 0.219,0.15 1.033,0.539 v 0 0 q 1.078,0.515 1.478,1.033 v 0 0 q 0.399,0.517 0.399,1.269 z m -5.987,-3.154 v 0 0 q 0,1.241 -0.776,1.898 v 0 0 q -0.775,0.657 -2.205,0.657 v 0 h -0.699 v 2.733 h -1.63 V 15.16 h 2.455 v 0 q 1.398,0 2.126,0.602 v 0 0 q 0.729,0.602 0.729,1.795 z"
       style="fill:url(#_lgradient_39);fill-rule:evenodd"
       inkscape:connector-curvature="0" />
  </g>
</svg>
