<?xml version="1.0" encoding="UTF-8" standalone="no"?>
<!-- Generator: Gravit.io -->

<svg
   xmlns:dc="http://purl.org/dc/elements/1.1/"
   xmlns:cc="http://creativecommons.org/ns#"
   xmlns:rdf="http://www.w3.org/1999/02/22-rdf-syntax-ns#"
   xmlns:svg="http://www.w3.org/2000/svg"
   xmlns="http://www.w3.org/2000/svg"
   xmlns:sodipodi="http://sodipodi.sourceforge.net/DTD/sodipodi-0.dtd"
   xmlns:inkscape="http://www.inkscape.org/namespaces/inkscape"
   style="isolation:isolate"
   viewBox="0 0 36 36"
   width="48"
   height="48"
   version="1.1"
   id="svg9"
   sodipodi:docname="mullvad-vpn.svg"
   inkscape:version="0.92.4 (5da689c313, 2019-01-14)">
  <metadata
     id="metadata15">
    <rdf:RDF>
      <cc:Work
         rdf:about="">
        <dc:format>image/svg+xml</dc:format>
        <dc:type
           rdf:resource="http://purl.org/dc/dcmitype/StillImage" />
        <dc:title></dc:title>
      </cc:Work>
    </rdf:RDF>
  </metadata>
  <defs
     id="defs13" />
  <sodipodi:namedview
     pagecolor="#ffffff"
     bordercolor="#666666"
     borderopacity="1"
     objecttolerance="10"
     gridtolerance="10"
     guidetolerance="10"
     inkscape:pageopacity="0"
     inkscape:pageshadow="2"
     inkscape:window-width="640"
     inkscape:window-height="480"
     id="namedview11"
     showgrid="false"
     inkscape:zoom="29.365243"
     inkscape:cx="25.325443"
     inkscape:cy="32"
     inkscape:current-layer="svg9"
     units="px" />
  <linearGradient
     id="_lgradient_1"
     x1="0"
     y1="0.5"
     x2="1"
     y2="0.5"
     gradientTransform="matrix(48,0,0,46.642,0,0.679)"
     gradientUnits="userSpaceOnUse">
    <stop
       offset="0%"
       stop-opacity="1"
       style="stop-color:rgb(247,242,6)"
       id="stop2" />
    <stop
       offset="97.82608695652173%"
       stop-opacity="1"
       style="stop-color:rgb(255,187,36)"
       id="stop4" />
  </linearGradient>
  <g
     id="g826"
     transform="scale(0.75)">
    <path
       id="path7"
       d="m 25.772,4.121 c 2.404,-2.182 5.564,-3.435 8.896,-3.442 3.528,0 6.922,1.405 9.425,3.897 2.502,2.502 3.907,5.897 3.907,9.435 0,2.872 -0.933,5.661 -2.646,7.958 -0.061,0.175 -0.133,0.349 -0.195,0.523 v 0 c -0.082,0.934 -0.533,1.805 -1.251,2.41 -0.001,10e-4 -0.002,0.002 -0.002,0.002 v 0 c 0.016,0.593 0.039,0.512 0.033,1.209 0.154,1.015 0.266,2.04 0.349,3.066 0.051,0.677 0.123,1.364 0.205,2.041 0.082,0.584 0.184,1.159 0.328,1.733 0.277,1.077 0.748,2.082 1.415,2.964 0.544,0.667 0.851,1.497 0.862,2.359 -0.011,0.851 -0.308,1.682 -0.841,2.348 -0.267,0.349 -0.544,0.677 -0.852,0.995 -0.656,0.687 -1.374,1.302 -2.164,1.825 -0.82,0.565 -1.671,1.067 -2.563,1.508 -1.877,0.944 -3.867,1.631 -5.918,2.041 -0.708,0.123 -1.415,0.215 -2.133,0.256 -0.779,0.052 -1.549,0.072 -2.328,0.072 -1.138,0 -2.277,-0.041 -3.405,-0.144 -1.015,-0.061 -2.02,-0.215 -3.005,-0.451 -0.02,-0.01 -0.041,-0.01 -0.072,-0.02 -0.758,-0.195 -1.528,-0.411 -2.286,-0.636 -0.852,-0.236 -1.682,-0.544 -2.482,-0.903 -0.677,-0.338 -1.323,-0.707 -1.939,-1.128 -0.605,-0.4 -1.189,-0.83 -1.743,-1.282 -0.523,-0.41 -1.026,-0.861 -1.487,-1.343 -0.226,-0.226 -0.431,-0.472 -0.615,-0.739 -0.677,-0.902 -0.893,-2.071 -0.595,-3.158 0.769,-1.415 1.692,-2.759 2.738,-3.99 0.205,-0.236 0.41,-0.471 0.626,-0.697 -0.226,-0.595 -0.339,-1.22 -0.329,-1.856 -0.923,-0.913 -1.866,-1.805 -2.81,-2.687 C 11.06,26.625 9.306,24.892 7.614,23.077 6.763,22.154 5.973,21.19 5.234,20.175 4.414,19.036 3.717,17.816 3.163,16.534 3.153,16.483 3.144,16.431 3.137,16.379 v 0 C 1.361,16.117 0,14.584 0,12.736 0,10.699 1.654,9.044 3.692,9.044 c 1.51,0 2.81,0.909 3.371,2.214 0.415,-0.055 0.837,-0.077 1.258,-0.077 l 0.38,0.01 c 0.01,0 0.02,0 0.031,0 0.205,0 0.41,0.01 0.615,0.01 0.482,-0.01 0.964,-0.01 1.446,-0.01 0.831,-0.01 1.661,-0.01 2.502,-0.01 0,0 0.011,0 0.011,0 l 3.319,0.006 v 0 C 16.7,10.39 16.995,9.63 17.48,8.986 17.992,8.34 18.669,7.837 19.438,7.54 19.92,7.355 20.433,7.232 20.956,7.16 21.305,7.109 21.664,7.078 22.023,7.048 22.177,7.037 22.32,7.027 22.474,7.007 22.587,6.996 22.71,6.986 22.833,6.986 h 0.523 C 23.829,6.226 24.371,5.524 24.97,4.883 25.129,4.691 25.308,4.515 25.499,4.35 v 0 c 0.089,-0.079 0.18,-0.155 0.273,-0.229 z m -1.743,5.944 h -1.195 c -1.125,0.146 -3.155,0 -3.155,1.578 0,0.151 1.264,0.271 2.804,0.977 1.776,0.813 3.718,2.018 5.307,3.294 4.246,3.41 6.023,4.45 10.061,5.895 3.829,1.37 4.28,0.878 4.25,0.274 -0.009,-0.177 0.235,-0.841 0.548,-1.642 1.42,-1.76 2.274,-3.995 2.274,-6.432 0,-5.664 -4.591,-10.255 -10.255,-10.255 v 0 0 0 c -0.922,0 -1.813,0.122 -2.657,0.36 0.112,0.111 0.223,0.222 0.329,0.339 0.697,0.8 1.077,1.836 1.056,2.902 -0.02,1.508 -0.697,2.923 -1.836,3.908 -0.964,0.851 -2.194,1.333 -3.486,1.343 -1.272,0.031 -2.503,-0.502 -3.354,-1.456 -0.285,-0.327 -0.517,-0.693 -0.691,-1.085 z m 3.22,-3.118 c 0.183,-0.182 0.367,-0.363 0.57,-0.524 0.36,-0.223 0.775,-0.352 1.208,-0.36 0.38,0 0.739,0.154 1.005,0.431 0.185,0.225 0.298,0.513 0.287,0.82 C 30.309,7.94 30.022,8.535 29.53,8.935 29.12,9.314 28.586,9.529 28.033,9.54 27.653,9.54 27.284,9.386 27.027,9.109 26.833,8.883 26.73,8.596 26.73,8.289 26.746,7.794 26.929,7.318 27.249,6.947 Z m -0.042,23.228 c 1.347,-0.452 3.08,-1.678 4.421,-3.128 0.751,-0.812 0.826,-1.005 0.458,-1.18 -0.275,-0.131 -1.108,0.281 -2.21,1.093 -1.988,1.463 -3.868,2.34 -5.124,2.389 -0.464,0.018 -1.138,0.141 -1.499,0.273 -0.621,0.229 -0.6,0.262 0.393,0.618 1.294,0.465 2.02,0.451 3.561,-0.065 z M 6.985,14.4 c 0.395,-0.123 0.944,-0.154 1.674,-0.133 0.763,0.02 7.441,0.006 9.265,0.001 v 0 l 0.704,0.297 c 0.082,0.041 0.175,0.072 0.267,0.102 0.205,0.072 0.42,0.124 0.636,0.175 0.574,0.154 1.138,0.338 1.692,0.584 1.651,0.77 3.21,1.734 4.635,2.882 0.944,0.769 1.918,1.518 2.913,2.246 0.82,0.605 1.682,1.169 2.564,1.692 0.841,0.493 1.712,0.934 2.605,1.334 0.943,0.41 1.897,0.779 2.871,1.128 0.8,0.287 1.61,0.543 2.431,0.759 0.535,0.14 1.079,0.235 1.623,0.279 0,0.178 0,0.375 0,0.58 0.669,4.147 0.142,7.832 2.968,11.517 0.344,0.453 0.262,0.663 -0.644,1.641 -1.791,1.935 -5.567,3.813 -9.012,4.485 -2.332,0.454 -7.398,0.328 -9.587,-0.239 v 0 c -1.14,-0.295 -3.305,-0.903 -4.233,-1.35 -1.884,-0.909 -4.739,-3.216 -4.739,-3.829 1.197,-2.074 2.949,-4.247 4.736,-5.351 -1.326,-0.856 -1.768,-1.42 -1.498,-2.953 0,0 0.139,-0.554 -0.822,-1.295 -3.944,-3.958 -9.775,-8.562 -11.88,-13.26 0,-0.08 0.003,-0.156 0.011,-0.225 0.339,-0.298 0.617,-0.66 0.82,-1.067 z"
       inkscape:connector-curvature="0"
       style="fill:url(#_lgradient_1);fill-rule:evenodd" />
  </g>
</svg>
