<?xml version="1.0" encoding="UTF-8" standalone="no"?>
<!-- Generator: Gravit.io -->

<svg
   xmlns:dc="http://purl.org/dc/elements/1.1/"
   xmlns:cc="http://creativecommons.org/ns#"
   xmlns:rdf="http://www.w3.org/1999/02/22-rdf-syntax-ns#"
   xmlns:svg="http://www.w3.org/2000/svg"
   xmlns="http://www.w3.org/2000/svg"
   xmlns:sodipodi="http://sodipodi.sourceforge.net/DTD/sodipodi-0.dtd"
   xmlns:inkscape="http://www.inkscape.org/namespaces/inkscape"
   style="isolation:isolate"
   viewBox="0 0 36 36"
   width="48"
   height="48"
   version="1.1"
   id="svg29"
   sodipodi:docname="musescore.svg"
   inkscape:version="0.92.4 (5da689c313, 2019-01-14)">
  <metadata
     id="metadata35">
    <rdf:RDF>
      <cc:Work
         rdf:about="">
        <dc:format>image/svg+xml</dc:format>
        <dc:type
           rdf:resource="http://purl.org/dc/dcmitype/StillImage" />
        <dc:title></dc:title>
      </cc:Work>
    </rdf:RDF>
  </metadata>
  <defs
     id="defs33" />
  <sodipodi:namedview
     pagecolor="#ffffff"
     bordercolor="#666666"
     borderopacity="1"
     objecttolerance="10"
     gridtolerance="10"
     guidetolerance="10"
     inkscape:pageopacity="0"
     inkscape:pageshadow="2"
     inkscape:window-width="640"
     inkscape:window-height="480"
     id="namedview31"
     showgrid="false"
     inkscape:zoom="29.365243"
     inkscape:cx="25.325443"
     inkscape:cy="32"
     inkscape:current-layer="svg29"
     units="px" />
  <linearGradient
     id="_lgradient_43"
     x1="-0.25509092"
     y1="-0.14997737"
     x2="1.2377336"
     y2="1.2289819"
     gradientTransform="matrix(23.006,0,0,16.012,12.497,19.988)"
     gradientUnits="userSpaceOnUse">
    <stop
       offset="2.1739130434782608%"
       stop-opacity="1"
       style="stop-color:rgb(242,79,92)"
       id="stop2" />
    <stop
       offset="49.56521739130435%"
       stop-opacity="1"
       style="stop-color:rgb(208,103,207)"
       id="stop4" />
    <stop
       offset="98.26086956521739%"
       stop-opacity="1"
       style="stop-color:rgb(49,193,233)"
       id="stop6" />
  </linearGradient>
  <linearGradient
     id="_lgradient_44"
     x1="5.1271329"
     y1="14.188096"
     x2="35.776039"
     y2="46.90049"
     gradientTransform="scale(1.0806943,0.92533108)"
     gradientUnits="userSpaceOnUse">
    <stop
       offset="2.1739130434782608%"
       stop-opacity="1"
       style="stop-color:rgb(242,79,92)"
       id="stop9" />
    <stop
       offset="49.56521739130435%"
       stop-opacity="1"
       style="stop-color:rgb(208,103,207)"
       id="stop11" />
    <stop
       offset="98.26086956521739%"
       stop-opacity="1"
       style="stop-color:rgb(49,193,233)"
       id="stop13" />
  </linearGradient>
  <linearGradient
     id="_lgradient_45"
     x1="0.12397219"
     y1="0.16741082"
     x2="0.90529388"
     y2="0.92596442"
     gradientTransform="matrix(47,0,0,47.058,0.5,0.471)"
     gradientUnits="userSpaceOnUse">
    <stop
       offset="2.1739130434782608%"
       stop-opacity="1"
       style="stop-color:rgb(242,79,92)"
       id="stop18" />
    <stop
       offset="49.56521739130435%"
       stop-opacity="1"
       style="stop-color:rgb(208,103,207)"
       id="stop20" />
    <stop
       offset="98.26086956521739%"
       stop-opacity="1"
       style="stop-color:rgb(49,193,233)"
       id="stop22" />
  </linearGradient>
  <g
     id="g845"
     transform="matrix(0.76501339,0,0,0.76501339,-0.36030612,-0.36032136)">
    <path
       id="path16"
       stroke-miterlimit="4"
       d="M 28.498,15.945 M 17,19.988 c -2.218,0 -3.56,1.376 -4.07,2.621 -0.511,1.246 -0.428,2.434 -0.428,2.434 L 12.5,24.988 V 35 c 0,0.552 0.448,1 1,1 v 0 c 0.552,0 1,-0.448 1,-1 V 24.961 l -0.002,-0.027 c 0,0 -0.028,-0.812 0.281,-1.567 0.31,-0.754 0.72,-1.379 2.221,-1.379 1.501,0 1.909,0.625 2.219,1.379 0.309,0.755 0.283,1.567 0.283,1.567 L 19.5,24.961 v 0.025 L 19.496,29 H 19.5 v 5.988 c 0,0.552 0.448,1 1,1 v 0 c 0.552,0 1,-0.448 1,-1 V 24.961 l -0.004,-0.027 c 0,0 -0.028,-0.812 0.281,-1.567 0.31,-0.754 0.722,-1.379 2.223,-1.379 1.501,0 1.909,0.625 2.219,1.379 0.309,0.755 0.283,1.567 0.283,1.567 l -0.004,0.027 V 31 l 0.004,-0.055 c 0,0 -0.083,1.188 0.428,2.434 C 27.44,34.624 28.782,36 31,36 c 2.218,0 3.559,-1.376 4.07,-2.621 0.511,-1.246 0.428,-2.434 0.428,-2.434 L 35.5,31 V 21 c 0,-0.552 -0.448,-1 -1,-1 v 0 c -0.552,0 -1,0.448 -1,1 v 10.027 l 0.002,0.028 c 0,0 0.026,0.812 -0.283,1.566 C 32.909,33.376 32.501,34 31,34 29.499,34 29.089,33.376 28.779,32.621 28.47,31.867 28.498,31.055 28.498,31.055 L 28.5,31.027 v -6.039 l -0.002,0.055 c 0,0 0.083,-1.188 -0.428,-2.434 -0.51,-1.245 -1.852,-2.621 -4.07,-2.621 -1.642,0 -2.8,0.754 -3.5,1.651 -0.7,-0.897 -1.859,-1.651 -3.5,-1.651 z"
       style="vector-effect:non-scaling-stroke;fill:url(#_lgradient_43);fill-rule:evenodd;stroke:url(#_lgradient_44);stroke-width:1;stroke-linecap:butt;stroke-linejoin:miter;stroke-miterlimit:4"
       inkscape:connector-curvature="0" />
    <path
       id="path25"
       d="m 4.773,25.433 v 0 C 4.685,24.258 3.657,23.374 2.479,23.46 v 0 c -1.177,0.085 -2.061,1.113 -1.973,2.294 v 0 c 0.439,5.914 3.102,11.454 7.455,15.497 4.352,4.032 10.074,6.278 16.01,6.278 6.235,0 12.224,-2.481 16.641,-6.888 C 45.019,36.224 47.5,30.235 47.5,24 47.5,17.765 45.019,11.776 40.612,7.359 36.195,2.952 30.206,0.471 23.971,0.471 v 0 c -1.181,0 -2.139,0.958 -2.139,2.139 v 0 c 0,1.181 0.958,2.139 2.139,2.139 v 0 c 5.101,0 10,2.032 13.615,5.636 3.604,3.615 5.636,8.513 5.636,13.615 0,5.102 -2.032,10 -5.636,13.615 -3.615,3.604 -8.514,5.636 -13.615,5.636 -4.856,0 -9.54,-1.829 -13.101,-5.134 C 7.308,34.813 5.137,30.278 4.773,25.433 Z M 15.019,6.952 v 0 c 1.045,-0.549 1.448,-1.843 0.899,-2.888 v 0 C 15.369,3.02 14.075,2.617 13.03,3.166 v 0 C 8.581,5.508 4.987,9.219 2.795,13.743 v 0 c -0.52,1.063 -0.079,2.345 0.984,2.861 v 0 c 1.062,0.517 2.347,0.074 2.866,-0.989 v 0 c 1.797,-3.711 4.727,-6.738 8.374,-8.663 z"
       style="fill:url(#_lgradient_45);fill-rule:evenodd"
       inkscape:connector-curvature="0" />
    <path
       id="path27"
       d="m 29.5,17.445 c 0,-0.828 0.672,-1.5 1.5,-1.5 0.828,0 1.5,0.672 1.5,1.5 0,0.828 -0.672,1.5 -1.5,1.5 -0.828,0 -1.5,-0.672 -1.5,-1.5 z M 29,15.42 v 0 c -0.011,0.828 -0.692,1.493 -1.52,1.485 v 0 C 26.652,16.897 25.989,16.218 26,15.39 v 0 c 0.02,-1.32 0.55,-2.58 1.48,-3.5 0.94,-0.93 2.2,-1.45 3.52,-1.45 1.32,0 2.59,0.53 3.53,1.47 0.94,0.93 1.47,2.2 1.47,3.52 v 0 c 0,0.828 -0.672,1.502 -1.5,1.505 v 0 C 33.672,16.938 33,16.268 33,15.44 v 0 C 33,14.91 32.79,14.4 32.41,14.03 32.04,13.66 31.53,13.44 31,13.44 c -0.53,0 -1.03,0.21 -1.41,0.58 -0.37,0.37 -0.58,0.88 -0.59,1.4 z"
       inkscape:connector-curvature="0"
       style="fill:#d365c4;fill-rule:evenodd" />
  </g>
</svg>
