<?xml version="1.0" encoding="UTF-8" standalone="no"?>
<!-- Generator: Gravit.io -->

<svg
   xmlns:dc="http://purl.org/dc/elements/1.1/"
   xmlns:cc="http://creativecommons.org/ns#"
   xmlns:rdf="http://www.w3.org/1999/02/22-rdf-syntax-ns#"
   xmlns:svg="http://www.w3.org/2000/svg"
   xmlns="http://www.w3.org/2000/svg"
   xmlns:sodipodi="http://sodipodi.sourceforge.net/DTD/sodipodi-0.dtd"
   xmlns:inkscape="http://www.inkscape.org/namespaces/inkscape"
   style="isolation:isolate"
   viewBox="0 0 36 36"
   width="48"
   height="48"
   version="1.1"
   id="svg9"
   sodipodi:docname="mysql-workbench.svg"
   inkscape:version="0.92.4 (5da689c313, 2019-01-14)">
  <metadata
     id="metadata15">
    <rdf:RDF>
      <cc:Work
         rdf:about="">
        <dc:format>image/svg+xml</dc:format>
        <dc:type
           rdf:resource="http://purl.org/dc/dcmitype/StillImage" />
        <dc:title></dc:title>
      </cc:Work>
    </rdf:RDF>
  </metadata>
  <defs
     id="defs13" />
  <sodipodi:namedview
     pagecolor="#ffffff"
     bordercolor="#666666"
     borderopacity="1"
     objecttolerance="10"
     gridtolerance="10"
     guidetolerance="10"
     inkscape:pageopacity="0"
     inkscape:pageshadow="2"
     inkscape:window-width="640"
     inkscape:window-height="480"
     id="namedview11"
     showgrid="false"
     inkscape:zoom="29.365243"
     inkscape:cx="25.325443"
     inkscape:cy="32"
     inkscape:current-layer="svg9"
     units="px" />
  <linearGradient
     id="_lgradient_23"
     x1="0"
     y1="0.5"
     x2="0.90748805"
     y2="0.92007786"
     gradientTransform="matrix(44,0,0,44,2,2)"
     gradientUnits="userSpaceOnUse">
    <stop
       offset="0%"
       stop-opacity="1"
       style="stop-color:rgb(0,196,255)"
       id="stop2" />
    <stop
       offset="83.88839793817618%"
       stop-opacity="1"
       style="stop-color:rgb(0,114,255)"
       id="stop4" />
  </linearGradient>
  <g
     id="g826"
     transform="matrix(0.81818182,0,0,0.81818182,-1.6364728,-1.6363637)">
    <path
       id="path7"
       d="m 6.001,22.66 v 0 c -0.083,1.098 -1.046,1.925 -2.148,1.845 v 0 C 2.751,24.425 1.923,23.464 2.006,22.36 v 0 C 2.416,16.83 4.909,11.65 8.984,7.87 13.059,4.1 18.416,2 23.973,2 29.81,2 35.417,4.32 39.552,8.44 43.677,12.57 46,18.17 46,24 46,29.83 43.677,35.43 39.552,39.56 35.417,43.68 29.81,46 23.973,46 v 0 C 22.868,46 21.97,45.104 21.97,44 v 0 c 0,-1.104 0.898,-2 2.003,-2 v 0 c 4.776,0 9.361,-1.9 12.746,-5.27 3.374,-3.38 5.276,-7.96 5.276,-12.73 0,-4.77 -1.902,-9.35 -5.276,-12.73 C 33.334,7.9 28.749,6 23.973,6 19.427,6 15.042,7.71 11.708,10.8 8.374,13.89 6.341,18.13 6.001,22.66 Z m 9.591,17.28 v 0 c 0.979,0.513 1.355,1.723 0.842,2.7 v 0 c -0.514,0.977 -1.726,1.353 -2.704,0.84 v 0 C 9.565,41.29 6.201,37.82 4.148,33.59 v 0 C 3.662,32.597 4.075,31.398 5.07,30.915 v 0 c 0.994,-0.483 2.197,-0.068 2.683,0.925 v 0 c 1.682,3.47 4.425,6.3 7.839,8.1 z m 19.473,-5.022 c -0.149,-0.097 -0.963,-0.561 -1.809,-1.033 -1.761,-0.981 -3.518,-2.482 -3.518,-3.007 0,-0.466 0.576,-0.838 1.457,-0.942 0.422,-0.049 0.976,-0.131 1.231,-0.18 l 0.463,-0.091 -0.686,-0.501 c -0.65,-0.474 -1.152,-0.71 -2.626,-1.23 -0.954,-0.336 -1.646,-1.121 -2.426,-2.749 -2.032,-4.241 -2.408,-4.938 -3.099,-5.739 -0.777,-0.9 -1.899,-1.839 -3.406,-2.849 -1.479,-0.992 -1.71,-1.081 -2.777,-1.081 -0.85,0 -1.029,-0.047 -1.558,-0.41 -0.836,-0.572 -1.666,-0.926 -2.181,-0.929 -0.663,-0.005 -0.585,0.469 0.248,1.498 0.808,0.998 0.999,1.341 1.401,2.517 0.166,0.484 0.614,1.421 0.995,2.082 0.381,0.661 0.693,1.261 0.693,1.332 0,0.071 -0.16,0.587 -0.355,1.146 -0.429,1.229 -0.548,2.544 -0.318,3.518 0.4,1.691 0.89,1.922 1.169,0.549 0.243,-1.191 0.661,-1.911 1.11,-1.908 0.137,10e-4 0.577,0.677 1.226,1.884 0.556,1.036 1.36,2.344 1.786,2.908 0.426,0.563 0.747,1.051 0.713,1.084 -0.08,0.08 -1.182,-0.849 -1.985,-1.673 -0.348,-0.357 -0.847,-1.004 -1.109,-1.439 -0.452,-0.75 -0.482,-0.774 -0.597,-0.47 -0.067,0.177 -0.164,0.515 -0.216,0.751 -0.149,0.682 -0.565,1.114 -1.073,1.114 -0.711,0 -1.221,-0.714 -1.636,-2.288 -0.277,-1.051 -0.207,-3.289 0.138,-4.405 0.223,-0.719 0.223,-0.72 -0.108,-1.073 -0.427,-0.454 -0.67,-0.941 -1.195,-2.394 -0.332,-0.922 -0.64,-1.453 -1.404,-2.428 -0.687,-0.876 -1.005,-1.405 -1.068,-1.775 -0.195,-1.149 0.249,-1.817 1.197,-1.796 0.732,0.016 2.231,0.517 2.877,0.962 0.381,0.263 0.762,0.377 1.5,0.451 1.813,0.181 3.79,1.336 5.863,3.426 2.008,2.025 3.52,4.412 4.082,6.444 0.377,1.362 0.972,2.005 2.606,2.814 1.2,0.594 1.569,0.864 2.658,1.944 0.695,0.689 1.265,1.355 1.265,1.48 0,0.274 -0.565,0.47 -1.686,0.583 -1.572,0.159 -1.56,0.128 -0.383,0.963 2.006,1.423 2.727,2.117 2.94,2.828 0.102,0.34 -0.005,0.37 -0.399,0.112 z M 17.802,17.879 c -0.11,-0.261 -0.321,-0.54 -0.47,-0.619 -0.315,-0.168 -0.348,-0.439 -0.079,-0.661 0.288,-0.239 1.125,0.148 1.231,0.569 0.252,1 -0.313,1.59 -0.682,0.711 z"
       style="fill:url(#_lgradient_23);fill-rule:evenodd"
       inkscape:connector-curvature="0" />
  </g>
</svg>
