<?xml version="1.0" encoding="UTF-8" standalone="no"?>
<!-- Generator: Gravit.io -->

<svg
   xmlns:dc="http://purl.org/dc/elements/1.1/"
   xmlns:cc="http://creativecommons.org/ns#"
   xmlns:rdf="http://www.w3.org/1999/02/22-rdf-syntax-ns#"
   xmlns:svg="http://www.w3.org/2000/svg"
   xmlns="http://www.w3.org/2000/svg"
   xmlns:sodipodi="http://sodipodi.sourceforge.net/DTD/sodipodi-0.dtd"
   xmlns:inkscape="http://www.inkscape.org/namespaces/inkscape"
   style="isolation:isolate"
   viewBox="0 0 36 36"
   width="48"
   height="48"
   version="1.1"
   id="svg9"
   sodipodi:docname="nemiver.svg"
   inkscape:version="0.92.4 (5da689c313, 2019-01-14)">
  <metadata
     id="metadata15">
    <rdf:RDF>
      <cc:Work
         rdf:about="">
        <dc:format>image/svg+xml</dc:format>
        <dc:type
           rdf:resource="http://purl.org/dc/dcmitype/StillImage" />
        <dc:title></dc:title>
      </cc:Work>
    </rdf:RDF>
  </metadata>
  <defs
     id="defs13" />
  <sodipodi:namedview
     pagecolor="#ffffff"
     bordercolor="#666666"
     borderopacity="1"
     objecttolerance="10"
     gridtolerance="10"
     guidetolerance="10"
     inkscape:pageopacity="0"
     inkscape:pageshadow="2"
     inkscape:window-width="640"
     inkscape:window-height="480"
     id="namedview11"
     showgrid="false"
     units="px"
     inkscape:zoom="82.518609"
     inkscape:cx="30.8688"
     inkscape:cy="31.425836"
     inkscape:current-layer="svg9" />
  <linearGradient
     id="_lgradient_77"
     x1="0.18336116"
     y1="0.24917752"
     x2="0.9027437"
     y2="0.90347725"
     gradientTransform="matrix(33.066668,0,0,48.000002,7.4666668,1e-7)"
     gradientUnits="userSpaceOnUse">
    <stop
       offset="2.608695652173913%"
       stop-opacity="1"
       style="stop-color:rgb(179,255,171)"
       id="stop2" />
    <stop
       offset="98.69565217391305%"
       stop-opacity="1"
       style="stop-color:rgb(18,255,247)"
       id="stop4" />
  </linearGradient>
  <g
     id="g816"
     transform="scale(0.75)">
    <path
       style="fill:url(#_lgradient_77);fill-rule:evenodd;stroke-width:1.06666672"
       inkscape:connector-curvature="0"
       id="path7"
       d="m 19.623467,8.0853333 c 0.333867,-0.096 0.672,-0.1813333 1.0112,-0.256 C 21.744,7.5946667 22.871467,7.4666667 24,7.4666667 c 1.128534,0 2.256,0.128 3.365334,0.3626666 0.3392,0.074667 0.677333,0.16 1.0112,0.256 V 7.4666667 5.2853333 C 28.376534,4.7232 27.92,4.2666667 27.357867,4.2666667 h -6.715733 c -0.562134,0 -1.018667,0.4565333 -1.018667,1.0186666 V 7.4666667 Z M 9.3813335,29.866667 h 0.0608 c 1.0570665,0 1.9146665,0.8576 1.9146665,1.914666 v 0.437334 c 0,1.057066 -0.8576,1.914666 -1.9146665,1.914666 h -0.0608 c -1.057067,0 -1.914667,-0.8576 -1.914667,-1.914666 v -0.437334 c 0,-1.057066 0.8576,-1.914666 1.914667,-1.914666 z M 16.0416,9.6 c -0.6496,0.3648 -1.278933,0.769067 -1.883733,1.216 -1.157333,0.842667 -2.2368,1.792 -3.248,2.837333 -2.1984005,2.272 -3.4432005,5.44 -3.4432005,8.746667 v 3.2 0 c 0,1.1776 0.8714667,2.133333 1.9456,2.133333 v 0 C 10.485334,27.733333 11.3568,26.7776 11.3568,25.6 v 0 -3.2 c 0,-2.133333 0.807467,-4.181333 2.2176,-5.642667 0.855467,-0.874666 1.7696,-1.685333 2.7424,-2.389333 0.807467,-0.597333 1.662934,-1.098667 2.557867,-1.504 0.817067,-0.373333 1.662933,-0.661333 2.529067,-0.842667 0.855466,-0.192 1.720533,-0.288 2.596266,-0.288 0.875734,0 1.7408,0.096 2.596267,0.288 0.866133,0.181334 1.712,0.469334 2.529067,0.842667 0.894933,0.405333 1.7504,0.906667 2.557866,1.504 0.9728,0.704 1.886934,1.504 2.7328,2.378667 0.311467,0.330666 0.583467,0.693333 0.807467,1.088 0.2912,0.490666 0.544,1.002666 0.7488,1.536 0.213333,0.533333 0.378667,1.088 0.5056,1.653333 0.106667,0.448 0.155733,0.917333 0.165333,1.386667 V 41.696 c 0,1.124267 -0.913066,2.037333 -2.037333,2.037333 H 13.394134 c -1.124267,0 -2.037334,-0.913066 -2.037334,-2.037333 v -3.296 0 c 0,-1.1776 -0.871466,-2.133333 -1.9445335,-2.133333 v 0 c -1.0741333,0 -1.9456,0.955733 -1.9456,2.133333 v 0 5.5264 c 0,2.248533 1.825067,4.0736 4.0736005,4.0736 h 24.919466 c 2.248534,0 4.0736,-1.825067 4.0736,-4.0736 V 22.4 c 0,-0.01067 0,-0.02133 0,-0.02133 -0.0096,-0.8 -0.09707,-1.6 -0.2816,-2.378667 -0.176,-0.789333 -0.408534,-1.568 -0.710399,-2.314667 C 39.249067,16.928 38.8992,16.202667 38.490667,15.52 38.091734,14.848 37.6256,14.218667 37.099733,13.664 36.088534,12.618667 34.999467,11.658667 33.842134,10.816 33.237334,10.369067 32.608,9.9648 31.9584,9.6 h 0.308266 v -2.1333333 -3.2 C 32.266666,3.136 31.858134,2.048 31.128534,1.248 30.398934,0.448 29.406934,0 28.376534,0 h -8.753067 c -1.0304,0 -2.0224,0.448 -2.752,1.248 -0.7296,0.8 -1.138133,1.888 -1.138133,3.0186667 v 3.2 V 9.6 Z M 27.032534,30.263467 H 31.2256 v -1.3728 H 26.384 l 6.069333,-6.069334 -1.0112,-1.026133 -4.5664,4.570667 c 0.0096,-0.144 0.01387,-0.290134 0.01387,-0.437334 0,-2.392533 -1.294933,-4.334933 -2.8896,-4.334933 -1.594666,0 -2.8896,1.9424 -2.8896,4.334933 0,0.151467 0.0043,0.3008 0.01493,0.448 l -4.567467,-4.5664 -1.0112,1.0112 6.069333,6.069334 h -4.8416 v 1.3728 h 4.193068 c -0.746667,0.852266 -1.229867,2.017066 -1.294933,3.312 l -4.125867,4.130133 1.0112,1.0112 3.309867,-3.309867 c 0.5568,2.043734 2.197333,3.5264 4.132266,3.5264 1.934934,0 3.575467,-1.482666 4.132267,-3.5264 l 3.309866,3.309867 1.0112,-1.0112 -4.125866,-4.125867 C 28.263467,32.282667 27.7792,31.1168 27.032534,30.263467 Z" />
  </g>
</svg>
