<?xml version="1.0" encoding="UTF-8" standalone="no"?>
<!-- Generator: Gravit.io -->

<svg
   xmlns:dc="http://purl.org/dc/elements/1.1/"
   xmlns:cc="http://creativecommons.org/ns#"
   xmlns:rdf="http://www.w3.org/1999/02/22-rdf-syntax-ns#"
   xmlns:svg="http://www.w3.org/2000/svg"
   xmlns="http://www.w3.org/2000/svg"
   xmlns:sodipodi="http://sodipodi.sourceforge.net/DTD/sodipodi-0.dtd"
   xmlns:inkscape="http://www.inkscape.org/namespaces/inkscape"
   style="isolation:isolate"
   viewBox="0 0 36 36"
   width="48"
   height="48"
   version="1.1"
   id="svg9"
   sodipodi:docname="netbeans.svg"
   inkscape:version="0.92.4 (5da689c313, 2019-01-14)">
  <metadata
     id="metadata15">
    <rdf:RDF>
      <cc:Work
         rdf:about="">
        <dc:format>image/svg+xml</dc:format>
        <dc:type
           rdf:resource="http://purl.org/dc/dcmitype/StillImage" />
        <dc:title></dc:title>
      </cc:Work>
    </rdf:RDF>
  </metadata>
  <defs
     id="defs13" />
  <sodipodi:namedview
     pagecolor="#ffffff"
     bordercolor="#666666"
     borderopacity="1"
     objecttolerance="10"
     gridtolerance="10"
     guidetolerance="10"
     inkscape:pageopacity="0"
     inkscape:pageshadow="2"
     inkscape:window-width="640"
     inkscape:window-height="480"
     id="namedview11"
     showgrid="false"
     inkscape:zoom="29.365243"
     inkscape:cx="25.325443"
     inkscape:cy="32"
     inkscape:current-layer="svg9"
     units="px" />
  <linearGradient
     id="_lgradient_3"
     x1="0"
     y1="0.5"
     x2="1"
     y2="0.5"
     gradientTransform="matrix(41.26,0,0,45.921,3.37,1.12)"
     gradientUnits="userSpaceOnUse">
    <stop
       offset="0%"
       stop-opacity="1"
       style="stop-color:rgb(0,255,255)"
       id="stop2" />
    <stop
       offset="98.26086956521739%"
       stop-opacity="1"
       style="stop-color:rgb(165,83,168)"
       id="stop4" />
  </linearGradient>
  <g
     id="g826"
     transform="matrix(0.78394598,0,0,0.78394598,-0.81470352,-0.8778976)">
    <path
       id="path7"
       d="m 12.99,11.55 v 0 c -0.9,0.646 -2.152,0.442 -2.795,-0.455 v 0 C 9.552,10.198 9.76,8.946 10.66,8.3 v 0 L 22.156,1.543 c 0.951,-0.559 2.5,-0.565 3.456,-0.013 l 17.286,9.98 c 0.956,0.552 1.732,1.896 1.732,3 v 18.07 c 0,1.104 -0.774,2.452 -1.727,3.009 L 23.727,46.801 C 22.774,47.358 22,46.914 22,45.81 v -12.09 0 c 0,-1.104 0.896,-2 2,-2 v 0 c 1.104,0 2,0.896 2,2 v 0 5.3 c 0,0.552 0.387,0.775 0.865,0.498 L 40.63,31.52 V 14.82 L 24.12,5.29 Z m 5.59,28.63 v 0 c 0.944,0.574 1.248,1.806 0.68,2.75 v 0 c -0.568,0.944 -1.796,1.248 -2.74,0.68 v 0 L 5.117,37.254 C 4.153,36.716 3.37,35.384 3.37,34.28 V 13.81 c 0,-1.104 0.776,-1.552 1.732,-1 l 17.922,10.35 c 0.478,0.276 1.258,0.283 1.741,0.016 L 35.02,17.5 v 0 c 0.905,-0.635 2.158,-0.42 2.795,0.48 v 0 c 0.637,0.9 0.42,2.15 -0.485,2.79 v 0 L 25.842,27.4 c -0.956,0.552 -2.508,0.552 -3.464,0 L 7.37,18.74 v 15.29 z"
       style="fill:url(#_lgradient_3);fill-rule:evenodd"
       inkscape:connector-curvature="0" />
  </g>
</svg>
