<?xml version="1.0" encoding="UTF-8" standalone="no"?>
<!-- Generator: Gravit.io -->

<svg
   xmlns:dc="http://purl.org/dc/elements/1.1/"
   xmlns:cc="http://creativecommons.org/ns#"
   xmlns:rdf="http://www.w3.org/1999/02/22-rdf-syntax-ns#"
   xmlns:svg="http://www.w3.org/2000/svg"
   xmlns="http://www.w3.org/2000/svg"
   xmlns:sodipodi="http://sodipodi.sourceforge.net/DTD/sodipodi-0.dtd"
   xmlns:inkscape="http://www.inkscape.org/namespaces/inkscape"
   style="isolation:isolate"
   viewBox="0 0 36 36"
   width="48"
   height="48"
   version="1.1"
   id="svg9"
   sodipodi:docname="network-wireless-encrypted.svg"
   inkscape:version="0.92.4 (5da689c313, 2019-01-14)">
  <metadata
     id="metadata15">
    <rdf:RDF>
      <cc:Work
         rdf:about="">
        <dc:format>image/svg+xml</dc:format>
        <dc:type
           rdf:resource="http://purl.org/dc/dcmitype/StillImage" />
        <dc:title></dc:title>
      </cc:Work>
    </rdf:RDF>
  </metadata>
  <defs
     id="defs13" />
  <sodipodi:namedview
     pagecolor="#ffffff"
     bordercolor="#666666"
     borderopacity="1"
     objecttolerance="10"
     gridtolerance="10"
     guidetolerance="10"
     inkscape:pageopacity="0"
     inkscape:pageshadow="2"
     inkscape:window-width="640"
     inkscape:window-height="480"
     id="namedview11"
     showgrid="false"
     inkscape:zoom="29.365243"
     inkscape:cx="25.325443"
     inkscape:cy="32"
     inkscape:current-layer="svg9"
     units="px" />
  <linearGradient
     id="_lgradient_22"
     x1="0.41703096"
     y1="0.019248826"
     x2="0.67953813"
     y2="0.96413201"
     gradientTransform="matrix(38,0,0,46.012,6,0.988)"
     gradientUnits="userSpaceOnUse">
    <stop
       offset="28.000000000000004%"
       stop-opacity="1"
       style="stop-color:rgb(0,205,215)"
       id="stop2" />
    <stop
       offset="94%"
       stop-opacity="1"
       style="stop-color:rgb(32,134,215)"
       id="stop4" />
  </linearGradient>
  <g
     id="g826"
     transform="matrix(0.78240321,0,0,0.78240321,-1.5600802,-0.77295085)">
    <path
       id="path7"
       d="m 31.5,18 h -15 v -1 -4.99 c 0,-0.31 0.04,-0.61 0.11,-0.91 0.09,-0.39 0.2,-0.78 0.35,-1.15 C 17.1,9.58 17.27,9.22 17.47,8.87 17.62,8.6 17.8,8.35 18.01,8.12 18.55,7.53 19.15,6.98 19.8,6.49 20.28,6.13 20.81,5.82 21.36,5.57 21.84,5.36 22.35,5.2 22.86,5.1 23.37,5.01 23.89,4.97 24.4,5 c 0.58,0.03 1.15,0.11 1.7,0.25 0.49,0.13 0.97,0.31 1.42,0.54 0.46,0.23 0.89,0.52 1.28,0.85 0.46,0.38 0.88,0.81 1.26,1.28 0.93,1.15 1.44,2.59 1.44,4.08 v 5 z m -4.667,15.842 c 1.096,-0.634 1.834,-1.819 1.834,-3.175 C 28.667,28.643 27.024,27 25,27 c -2.024,0 -3.667,1.643 -3.667,3.667 0,1.356 0.738,2.541 1.834,3.175 v 2.936 c 0,0.674 0.547,1.222 1.222,1.222 h 1.222 c 0.675,0 1.222,-0.548 1.222,-1.222 z M 6,32.5 c 0,-1.104 0.896,-2 2,-2 1.104,0 2,0.896 2,2 0,1.104 -0.896,2 -2,2 -1.104,0 -2,-0.896 -2,-2 z M 35.5,18 H 40 c 2.208,0 4,1.792 4,4 v 21 c 0,2.208 -1.792,4 -4,4 H 10 C 7.792,47 6,45.208 6,43 v -5 0 c 0,-1.104 0.896,-2 2,-2 v 0 c 1.104,0 2,0.896 2,2 v 0 3 c 0,1.104 0.896,2 2,2 H 34 V 35.532 C 34,34.687 34.672,34 35.5,34 v 0 0 c 0.828,0 1.5,0.687 1.5,1.532 V 43 43 h 1 c 1.104,0 2,-0.896 2,-2 V 24 c 0,-1.104 -0.896,-2 -2,-2 H 12 c -1.104,0 -2,0.896 -2,2 v 3 0 c 0,1.104 -0.896,2 -2,2 v 0 C 6.896,29 6,28.104 6,27 v 0 -5 c 0,-2.208 1.792,-4 4,-4 h 2.5 v -1 -5 c 0,-0.01 0,-0.01 0,-0.02 0.01,-0.59 0.08,-1.18 0.21,-1.76 0.13,-0.58 0.3,-1.16 0.52,-1.71 0.21,-0.56 0.47,-1.1 0.77,-1.62 0.29,-0.52 0.64,-1 1.04,-1.45 0.71,-0.78 1.5,-1.5 2.35,-2.14 C 18.12,2.75 18.91,2.29 19.74,1.92 20.5,1.58 21.3,1.33 22.12,1.17 22.94,1.02 23.77,0.96 24.6,1 c 0.84,0.04 1.68,0.17 2.5,0.38 0.78,0.2 1.53,0.48 2.24,0.85 0.72,0.37 1.4,0.81 2.02,1.33 0.67,0.56 1.27,1.17 1.82,1.85 1.5,1.87 2.32,4.19 2.32,6.59 v 5 z M 34,30.5 C 34,29.672 34.672,29 35.5,29 36.328,29 37,29.672 37,30.5 37,31.328 36.328,32 35.5,32 34.672,32 34,31.328 34,30.5 Z"
       style="fill:url(#_lgradient_22);fill-rule:evenodd"
       inkscape:connector-curvature="0" />
  </g>
</svg>
