<?xml version="1.0" encoding="UTF-8" standalone="no"?>
<!-- Generator: Gravit.io -->

<svg
   xmlns:dc="http://purl.org/dc/elements/1.1/"
   xmlns:cc="http://creativecommons.org/ns#"
   xmlns:rdf="http://www.w3.org/1999/02/22-rdf-syntax-ns#"
   xmlns:svg="http://www.w3.org/2000/svg"
   xmlns="http://www.w3.org/2000/svg"
   xmlns:sodipodi="http://sodipodi.sourceforge.net/DTD/sodipodi-0.dtd"
   xmlns:inkscape="http://www.inkscape.org/namespaces/inkscape"
   style="isolation:isolate"
   viewBox="0 0 36 36"
   width="48"
   height="48"
   version="1.1"
   id="svg13"
   sodipodi:docname="network-server-database.svg"
   inkscape:version="0.92.4 (5da689c313, 2019-01-14)">
  <metadata
     id="metadata19">
    <rdf:RDF>
      <cc:Work
         rdf:about="">
        <dc:format>image/svg+xml</dc:format>
        <dc:type
           rdf:resource="http://purl.org/dc/dcmitype/StillImage" />
        <dc:title></dc:title>
      </cc:Work>
    </rdf:RDF>
  </metadata>
  <defs
     id="defs17">
    <linearGradient
       gradientUnits="userSpaceOnUse"
       gradientTransform="matrix(21,0,0,23,5.5,4.5)"
       y2="1.072293"
       x2="1.0164566"
       y1="0.009839246"
       x1="-0.014458464"
       id="_lgradient_25">
      <stop
         id="stop2"
         style="stop-color:rgb(254,172,94)"
         stop-opacity="1"
         offset="1.3043478260869565%" />
      <stop
         id="stop4"
         style="stop-color:rgb(199,121,208)"
         stop-opacity="1"
         offset="53.04347826086957%" />
      <stop
         id="stop6"
         style="stop-color:rgb(75,192,200)"
         stop-opacity="1"
         offset="99.56521739130434%" />
    </linearGradient>
  </defs>
  <sodipodi:namedview
     pagecolor="#ffffff"
     bordercolor="#666666"
     borderopacity="1"
     objecttolerance="10"
     gridtolerance="10"
     guidetolerance="10"
     inkscape:pageopacity="0"
     inkscape:pageshadow="2"
     inkscape:window-width="640"
     inkscape:window-height="480"
     id="namedview15"
     showgrid="false"
     inkscape:zoom="44.047864"
     inkscape:cx="16.883628"
     inkscape:cy="21.333333"
     inkscape:current-layer="svg13" />
  <g
     id="g832"
     transform="matrix(1.5652174,0,0,1.5652174,-7.0434784,-7.0434784)">
    <path
       d="m 8.5,12.318 v 3.554 c 0.03,0.032 0.074,0.073 0.135,0.121 0.296,0.235 0.799,0.484 1.465,0.707 1.509,0.503 3.619,0.8 5.9,0.8 2.281,0 4.391,-0.297 5.9,-0.8 0.666,-0.223 1.169,-0.472 1.465,-0.707 0.061,-0.048 0.105,-0.089 0.135,-0.121 V 12.318 C 21.594,13.097 18.937,13.5 16,13.5 13.063,13.5 10.406,13.097 8.5,12.318 Z M 5.5,9 C 5.5,6.068 10.205,4.5 16,4.5 21.795,4.5 26.5,6.068 26.5,9 v 14 c 0,2.937 -4.683,4.5 -10.5,4.5 C 10.183,27.5 5.5,25.937 5.5,23 Z m 18,10.324 C 21.597,20.1 18.944,20.5 16,20.5 c -2.944,0 -5.597,-0.4 -7.5,-1.176 v 3.548 c 0.03,0.032 0.074,0.073 0.135,0.121 0.296,0.235 0.799,0.484 1.465,0.707 1.509,0.503 3.619,0.8 5.9,0.8 2.281,0 4.391,-0.297 5.9,-0.8 0.666,-0.223 1.169,-0.472 1.465,-0.707 0.061,-0.048 0.105,-0.089 0.135,-0.121 z M 10.11,9.698 c 1.513,0.505 3.623,0.802 5.89,0.802 2.267,0 4.377,-0.297 5.89,-0.802 C 22.549,9.479 23.05,9.233 23.351,9 23.05,8.767 22.549,8.521 21.89,8.302 20.377,7.797 18.267,7.5 16,7.5 13.733,7.5 11.623,7.797 10.11,8.302 9.451,8.521 8.95,8.767 8.649,9 8.95,9.233 9.451,9.479 10.11,9.698 Z"
       id="path9"
       style="fill:url(#_lgradient_25)"
       inkscape:connector-curvature="0" />
  </g>
</svg>
