<?xml version="1.0" encoding="UTF-8" standalone="no"?>
<svg
   xmlns:dc="http://purl.org/dc/elements/1.1/"
   xmlns:cc="http://creativecommons.org/ns#"
   xmlns:rdf="http://www.w3.org/1999/02/22-rdf-syntax-ns#"
   xmlns:svg="http://www.w3.org/2000/svg"
   xmlns="http://www.w3.org/2000/svg"
   xmlns:sodipodi="http://sodipodi.sourceforge.net/DTD/sodipodi-0.dtd"
   xmlns:inkscape="http://www.inkscape.org/namespaces/inkscape"
   viewBox="0 0 36 36"
   width="48"
   height="48"
   version="1.1"
   id="svg19"
   sodipodi:docname="network-cellular-connected.svg"
   inkscape:version="0.92.4 (5da689c313, 2019-01-14)">
  <metadata
     id="metadata23">
    <rdf:RDF>
      <cc:Work
         rdf:about="">
        <dc:format>image/svg+xml</dc:format>
        <dc:type
           rdf:resource="http://purl.org/dc/dcmitype/StillImage" />
        <dc:title></dc:title>
      </cc:Work>
    </rdf:RDF>
  </metadata>
  <sodipodi:namedview
     pagecolor="#ffffff"
     bordercolor="#666666"
     borderopacity="1"
     objecttolerance="10"
     gridtolerance="10"
     guidetolerance="10"
     inkscape:pageopacity="0"
     inkscape:pageshadow="2"
     inkscape:window-width="640"
     inkscape:window-height="480"
     id="namedview21"
     showgrid="false"
     inkscape:zoom="9.6618204"
     inkscape:cx="-25.735826"
     inkscape:cy="86.49237"
     inkscape:current-layer="svg19" />
  <defs
     id="defs7">
    <linearGradient
       y2="20.46727"
       x2="46.90416"
       y1="20.46727"
       x1="9.3808317"
       id="_lgradient_48"
       gradientTransform="matrix(0.85280287,0,0,1.1726039,-266,-176)"
       gradientUnits="userSpaceOnUse">
      <stop
         stop-color="rgb(52,148,230)"
         offset="0%"
         id="stop2" />
      <stop
         stop-color="rgb(236,110,173)"
         offset="98.69565217391305%"
         id="stop4" />
    </linearGradient>
  </defs>
  <g
     id="g816"
     transform="matrix(0.81818182,0,0,0.81818182,216,142.36364)">
    <path
       id="svg_2"
       d="m -254,-158 v 0 c 0,1.104 -0.896,2 -2,2 v 0 c -1.104,0 -2,-0.896 -2,-2 v 0 -13 c 0,-1.656 1.344,-3 3,-3 h 26 c 1.656,0 3,1.344 3,3 v 13 0 c 0,1.104 -0.896,2 -2,2 v 0 c -1.104,0 -2,-0.896 -2,-2 v 0 -11 c 0,-0.552 -0.448,-1 -1,-1 h -22 c -0.552,0 -1,0.448 -1,1 z m 24,12 v 0 c 0,-1.104 0.896,-2 2,-2 v 0 c 1.104,0 2,0.896 2,2 v 0 5.875 7.125 c 0,1.656 -1.344,3 -3,3 h -26 c -1.656,0 -3,-1.344 -3,-3 v -13 0 c 0,-1.104 0.896,-2 2,-2 v 0 c 1.104,0 2,0.896 2,2 v 0 11 c 0,0.552 0.448,1 1,1 h 22 c 0.552,0 1,-0.448 1,-1 z"
       style="fill:url(#_lgradient_48);fill-rule:evenodd"
       inkscape:connector-curvature="0" />
  </g>
</svg>
