<?xml version="1.0" encoding="UTF-8" standalone="no"?>
<svg
   xmlns:dc="http://purl.org/dc/elements/1.1/"
   xmlns:cc="http://creativecommons.org/ns#"
   xmlns:rdf="http://www.w3.org/1999/02/22-rdf-syntax-ns#"
   xmlns:svg="http://www.w3.org/2000/svg"
   xmlns="http://www.w3.org/2000/svg"
   xmlns:sodipodi="http://sodipodi.sourceforge.net/DTD/sodipodi-0.dtd"
   xmlns:inkscape="http://www.inkscape.org/namespaces/inkscape"
   viewBox="0 0 36 36"
   width="48"
   height="48"
   version="1.1"
   id="svg19"
   sodipodi:docname="network-offline.svg"
   inkscape:version="0.92.4 (5da689c313, 2019-01-14)">
  <metadata
     id="metadata23">
    <rdf:RDF>
      <cc:Work
         rdf:about="">
        <dc:format>image/svg+xml</dc:format>
        <dc:type
           rdf:resource="http://purl.org/dc/dcmitype/StillImage" />
        <dc:title />
      </cc:Work>
    </rdf:RDF>
  </metadata>
  <sodipodi:namedview
     pagecolor="#ffffff"
     bordercolor="#666666"
     borderopacity="1"
     objecttolerance="10"
     gridtolerance="10"
     guidetolerance="10"
     inkscape:pageopacity="0"
     inkscape:pageshadow="2"
     inkscape:window-width="640"
     inkscape:window-height="480"
     id="namedview21"
     showgrid="false"
     inkscape:zoom="9.724911"
     inkscape:cx="29.935479"
     inkscape:cy="26.847319"
     inkscape:current-layer="svg19" />
  <defs
     id="defs7">
    <linearGradient
       id="_lgradient_23"
       x1="2.7438176"
       y1="3.5299864"
       x2="45.419575"
       y2="45.831394"
       gradientTransform="matrix(0.7495201,0,0,0.74953283,0.80789586,0.74952636)"
       gradientUnits="userSpaceOnUse">
      <stop
         offset="0%"
         stop-color="rgb(240,107,169)"
         id="stop2" />
      <stop
         offset="98.69565217391305%"
         stop-color="rgb(66,216,246)"
         id="stop4" />
    </linearGradient>
  </defs>
  <g
     id="g3055"
     transform="matrix(1.0441421,0,0,1.0441244,-1.5281692,-1.5884781)">
    <path
       d="m 20.684616,8.4284249 z m 5.119266,22.6709271 v 0 c 0.718046,-0.409991 1.636965,-0.161898 2.050704,0.5539 v 0 c 0.414488,0.715798 0.168643,1.633218 -0.549403,2.047706 v 0 c -2.791986,1.606985 -5.976724,2.398485 -9.189944,2.289054 -2.914159,-0.09969 -5.757862,-0.939157 -8.2642787,-2.434462 v 0 C 9.1411588,33.129819 8.9103046,32.207901 9.3360357,31.4981 v 0 c 0.425731,-0.709802 1.3476483,-0.940656 2.0574503,-0.514925 v 0 c 2.064945,1.240466 4.411713,1.927782 6.823689,2.01023 2.65932,0.09069 5.284161,-0.562145 7.586707,-1.894053 z M 31.450814,12.40841 v 0 c -0.371765,-0.741281 -0.07196,-1.643711 0.668577,-2.013228 v 0 c 0.741282,-0.370266 1.641463,-0.06896 2.009481,0.671576 v 0 c 1.285438,2.56413 1.900799,5.412331 1.802611,8.281518 -0.0742,2.187118 -0.559896,4.338259 -1.438341,6.332749 v 0 c -0.33204,0.758521 -1.217231,1.104802 -1.976502,0.772762 v 0 c -0.75852,-0.33204 -1.104052,-1.217981 -0.772012,-1.976501 v 0 c 0.730789,-1.64746 1.128787,-3.426086 1.190998,-5.231695 0.0802,-2.367005 -0.431727,-4.71677 -1.484812,-6.837181 z M 12.532766,5.9287542 v 0 c -0.74428,0.3552755 -1.641463,0.038975 -2.000486,-0.7060539 v 0 C 10.172507,4.477671 10.48506,3.5812373 11.230089,3.2214646 v 0 c 2.508665,-1.204489 5.272919,-1.7846225 8.059658,-1.6901821 2.681806,0.091442 5.312644,0.8042418 7.668405,2.0919283 v 0 c 0.72779,0.397249 0.995371,1.3101723 0.598122,2.0372129 v 0 c -0.397249,0.7277902 -1.310172,0.9953712 -2.037962,0.5981221 v 0 C 23.57479,5.1949678 21.404911,4.6035914 19.187811,4.5278892 16.888264,4.449189 14.606706,4.9266373 12.532766,5.9287542 Z M 5.1919039,23.279542 v 0 c 0.2630837,0.783255 -0.1611482,1.632469 -0.9459024,1.895553 v 0 C 3.4604977,25.438178 2.6097852,25.012447 2.3467014,24.225445 v 0 C 1.7013591,22.275926 1.4037971,20.225971 1.4735031,18.173018 1.5656948,15.461232 2.2942346,12.801162 3.6126516,10.423664 v 0 C 4.0099006,9.7011209 4.9205753,9.4395361 5.6461169,9.8405328 v 0 C 6.370909,10.242279 6.6339928,11.155202 6.2329961,11.878495 v 0 c -1.0868134,1.965259 -1.6871841,4.156874 -1.7628862,6.397209 -0.058463,1.699926 0.1843835,3.388609 0.721794,5.003838 z"
       id="svg_1"
       style="fill:url(#_lgradient_23);fill-rule:evenodd;stroke-width:0.74952644"
       inkscape:connector-curvature="0" />
  </g>
</svg>
