<?xml version="1.0" encoding="UTF-8" standalone="no"?>
<!-- Generator: Gravit.io -->

<svg
   xmlns:dc="http://purl.org/dc/elements/1.1/"
   xmlns:cc="http://creativecommons.org/ns#"
   xmlns:rdf="http://www.w3.org/1999/02/22-rdf-syntax-ns#"
   xmlns:svg="http://www.w3.org/2000/svg"
   xmlns="http://www.w3.org/2000/svg"
   xmlns:xlink="http://www.w3.org/1999/xlink"
   xmlns:sodipodi="http://sodipodi.sourceforge.net/DTD/sodipodi-0.dtd"
   xmlns:inkscape="http://www.inkscape.org/namespaces/inkscape"
   style="isolation:isolate"
   viewBox="0 0 48 48"
   width="48pt"
   height="48pt"
   version="1.1"
   id="svg11"
   sodipodi:docname="network-wireless-connected-100.svg"
   inkscape:version="0.92.4 (5da689c313, 2019-01-14)">
  <metadata
     id="metadata17">
    <rdf:RDF>
      <cc:Work
         rdf:about="">
        <dc:format>image/svg+xml</dc:format>
        <dc:type
           rdf:resource="http://purl.org/dc/dcmitype/StillImage" />
        <dc:title></dc:title>
      </cc:Work>
    </rdf:RDF>
  </metadata>
  <defs
     id="defs15">
    <linearGradient
       gradientUnits="userSpaceOnUse"
       gradientTransform="matrix(113.81013,0,0,101.37336,-32.905451,-14.799547)"
       y2="0.62060207"
       x2="0.49688411"
       y1="0.14717215"
       x1="0.49688411"
       id="linearGradient2387">
      <stop
         id="stop2381"
         style="stop-color:rgb(254,172,94)"
         stop-opacity="1"
         offset="0.08456798" />
      <stop
         id="stop2383"
         style="stop-color:rgb(199,121,208)"
         stop-opacity="1"
         offset="0.41577855" />
      <stop
         id="stop2385"
         style="stop-color:rgb(75,192,200)"
         stop-opacity="1"
         offset="99.56521739130434%" />
    </linearGradient>
  </defs>
  <sodipodi:namedview
     pagecolor="#ffffff"
     bordercolor="#666666"
     borderopacity="1"
     objecttolerance="10"
     gridtolerance="10"
     guidetolerance="10"
     inkscape:pageopacity="0"
     inkscape:pageshadow="2"
     inkscape:window-width="1280"
     inkscape:window-height="947"
     id="namedview13"
     showgrid="false"
     inkscape:zoom="7.36"
     inkscape:cx="29.454352"
     inkscape:cy="39.701446"
     inkscape:window-x="0"
     inkscape:window-y="0"
     inkscape:window-maximized="1"
     inkscape:current-layer="svg11" />
  <linearGradient
     id="_lgradient_16"
     x1="0.5017966"
     y1="0.62011302"
     x2="0.5017966"
     y2="0.14615342"
     gradientTransform="matrix(113.81013,0,0,101.37336,-32.905451,-14.799547)"
     gradientUnits="userSpaceOnUse"
     xlink:href="#linearGradient2387">
    <stop
       offset="0.08456798"
       stop-opacity="1"
       style="stop-color:rgb(254,172,94)"
       id="stop2" />
    <stop
       offset="0.9956522"
       stop-opacity="1"
       style="stop-color:rgb(199,121,208)"
       id="stop4" />
    <stop
       offset="0.9956522"
       stop-opacity="1"
       style="stop-color:rgb(75,192,200)"
       id="stop6" />
  </linearGradient>
  <path
     d="m 18.769197,41.507415 c -2.59584,-2.908212 -2.344004,-7.375865 0.564208,-9.971705 2.908212,-2.59584 7.375864,-2.341584 9.971705,0.564207 2.59584,2.908213 2.341584,7.375867 -0.564208,9.971706 -2.908212,2.59584 -7.375866,2.344004 -9.971705,-0.564208 z m -6.45812,-16.696191 v 0 c -1.0703,0.995235 -2.7483934,0.934697 -3.7436267,-0.138018 v 0 C 7.572217,23.602906 7.6327537,21.924811 8.7054687,20.929578 v 0 l 0.5932661,-0.554522 c 0.012051,-0.0096 0.026639,-0.02179 0.038747,-0.0339 3.9252382,-3.503903 8.9643632,-5.494369 14.2238452,-5.596072 5.25706,-0.128335 10.385781,1.636929 14.449045,4.968903 v 0 c 1.125995,0.927431 1.293077,2.598261 0.368067,3.729098 v 0 c -0.922588,1.130838 -2.588575,1.29792 -3.714569,0.370487 v 0 c -3.097089,-2.513508 -6.983584,-3.871965 -10.976624,-3.784792 -3.995463,0.08475 -7.819,1.581235 -10.795013,4.240034 z M 5.3105426,16.83725 v 0 C 4.232979,17.825219 2.5597276,17.750153 1.574179,16.667747 v 0 C 0.59105335,15.58776 0.66612057,13.909667 1.7436843,12.921697 v 0 l 0.5133559,-0.460082 c 0.012051,-0.01205 0.012051,-0.01205 0.026639,-0.02421 C 8.3543605,7.0180992 16.224211,4.0614576 24.360426,4.1365234 32.49664,4.2091691 40.310795,7.340159 46.274931,12.880533 v 0 c 1.067879,0.99039 1.128415,2.668484 0.13076,3.738783 v 0 c -0.995234,1.072721 -2.670907,1.138102 -3.741206,0.14529 v 0 C 37.678632,12.105656 31.13576,9.4952863 24.311994,9.4347496 17.500336,9.362104 10.906613,11.839291 5.8238999,16.377167 Z"
     id="path9"
     inkscape:connector-curvature="0"
     style="fill:url(#_lgradient_16);fill-rule:evenodd;stroke-width:2.42149234;fill-opacity:1"
     sodipodi:nodetypes="ssccscccccccccccccccccccccccccccccccccccc" />
  <path
     d="m 18.769197,41.507415 c -2.59584,-2.908212 -2.344004,-7.375865 0.564208,-9.971705 2.908212,-2.59584 7.375864,-2.341584 9.971705,0.564207 2.59584,2.908213 2.341584,7.375867 -0.564208,9.971706 -2.908212,2.59584 -7.375866,2.344004 -9.971705,-0.564208 z m -6.45812,-16.696191 v 0 c -1.0703,0.995235 -2.7483934,0.934697 -3.7436267,-0.138018 v 0 C 7.572217,23.602906 7.6327537,21.924811 8.7054687,20.929578 v 0 l 0.5932661,-0.554522 c 0.012051,-0.0096 0.026639,-0.02179 0.038747,-0.0339 3.9252382,-3.503903 8.9643632,-5.494369 14.2238452,-5.596072 5.25706,-0.128335 10.385781,1.636929 14.449045,4.968903 v 0 c 1.125995,0.927431 1.293077,2.598261 0.368067,3.729098 v 0 c -0.922588,1.130838 -2.588575,1.29792 -3.714569,0.370487 v 0 c -3.097089,-2.513508 -6.983584,-3.871965 -10.976624,-3.784792 -3.995463,0.08475 -7.819,1.581235 -10.795013,4.240034 z M 5.3105426,16.83725 v 0 C 4.232979,17.825219 2.5597276,17.750153 1.574179,16.667747 v 0 C 0.59105335,15.58776 0.66612057,13.909667 1.7436843,12.921697 v 0 l 0.5133559,-0.460082 c 0.012051,-0.01205 0.012051,-0.01205 0.026639,-0.02421 C 8.3543605,7.0180992 16.224211,4.0614576 24.360426,4.1365234 32.49664,4.2091691 40.310795,7.340159 46.274931,12.880533 v 0 c 1.067879,0.99039 1.128415,2.668484 0.13076,3.738783 v 0 c -0.995234,1.072721 -2.670907,1.138102 -3.741206,0.14529 v 0 C 37.678632,12.105656 31.13576,9.4952863 24.311994,9.4347496 17.500336,9.362104 10.906613,11.839291 5.8238999,16.377167 Z"
     id="path877"
     inkscape:connector-curvature="0"
     style="fill-rule:evenodd;stroke-width:2.42149234;stroke:none;stroke-opacity:1;fill-opacity:0.94583333;fill:none"
     sodipodi:nodetypes="ssccscccccccccccccccccccccccccccccccccccc" />
</svg>
