<?xml version="1.0" encoding="UTF-8" standalone="no"?>
<svg
   xmlns:dc="http://purl.org/dc/elements/1.1/"
   xmlns:cc="http://creativecommons.org/ns#"
   xmlns:rdf="http://www.w3.org/1999/02/22-rdf-syntax-ns#"
   xmlns:svg="http://www.w3.org/2000/svg"
   xmlns="http://www.w3.org/2000/svg"
   xmlns:sodipodi="http://sodipodi.sourceforge.net/DTD/sodipodi-0.dtd"
   xmlns:inkscape="http://www.inkscape.org/namespaces/inkscape"
   viewBox="0 0 36 36"
   width="48"
   height="48"
   version="1.1"
   id="svg27"
   sodipodi:docname="network-receive.svg"
   inkscape:version="0.92.4 (5da689c313, 2019-01-14)">
  <metadata
     id="metadata31">
    <rdf:RDF>
      <cc:Work
         rdf:about="">
        <dc:format>image/svg+xml</dc:format>
        <dc:type
           rdf:resource="http://purl.org/dc/dcmitype/StillImage" />
        <dc:title />
      </cc:Work>
    </rdf:RDF>
  </metadata>
  <sodipodi:namedview
     pagecolor="#ffffff"
     bordercolor="#666666"
     borderopacity="1"
     objecttolerance="10"
     gridtolerance="10"
     guidetolerance="10"
     inkscape:pageopacity="0"
     inkscape:pageshadow="2"
     inkscape:window-width="640"
     inkscape:window-height="480"
     id="namedview29"
     showgrid="false"
     inkscape:zoom="9.724911"
     inkscape:cx="29.306829"
     inkscape:cy="27.323669"
     inkscape:current-layer="svg27" />
  <defs
     id="defs7">
    <linearGradient
       id="_lgradient_23"
       x1="2.8277812"
       y1="3.5299864"
       x2="45.503536"
       y2="45.831394"
       gradientTransform="matrix(0.71999389,0,0,0.72000612,0.72,0.72)"
       gradientUnits="userSpaceOnUse">
      <stop
         offset="0%"
         stop-color="rgb(240,107,169)"
         id="stop2" />
      <stop
         offset="98.69565217391305%"
         stop-color="rgb(66,216,246)"
         id="stop4" />
    </linearGradient>
    <defs
       id="defs22">
      <linearGradient
         gradientUnits="userSpaceOnUse"
         gradientTransform="matrix(0.62736554,0,0,0.82631254,0.72,0.72)"
         y2="29.888166"
         x2="36.413979"
         y1="12.472134"
         x1="18.843822"
         id="svg_8">
        <stop
           id="stop17"
           stop-color="rgb(240,107,169)"
           offset="0%" />
        <stop
           id="stop19"
           stop-color="rgb(66,216,246)"
           offset="98.69565217391305%" />
      </linearGradient>
    </defs>
  </defs>
  <g
     id="g3062"
     transform="matrix(1.0869613,0,0,1.0869428,-1.5329338,-1.5884769)">
    <path
       d="m 19.87416,8.0964 z m 4.9176,21.77784 v 0 c 0.68976,-0.39384 1.57248,-0.15552 1.96992,0.53208 v 0 c 0.39816,0.6876 0.162,1.56888 -0.52776,1.96704 v 0 c -2.682,1.54368 -5.74128,2.304 -8.82792,2.19888 -2.79936,-0.09576 -5.53104,-0.90216 -7.93872,-2.33856 v 0 C 8.78544,31.82472 8.56368,30.93912 8.97264,30.25728 v 0 c 0.40896,-0.68184 1.29456,-0.9036 1.9764,-0.49464 v 0 c 1.9836,1.1916 4.23792,1.85184 6.55488,1.93104 2.55456,0.08712 5.076,-0.54 7.28784,-1.81944 z M 30.21624,11.9196 v 0 c -0.35712,-0.71208 -0.06912,-1.57896 0.64224,-1.93392 v 0 C 31.57056,9.63 32.43528,9.91944 32.7888,10.6308 v 0 c 1.2348,2.46312 1.82592,5.19912 1.7316,7.95528 -0.07128,2.10096 -0.53784,4.16736 -1.38168,6.08328 v 0 c -0.31896,0.72864 -1.16928,1.06128 -1.89864,0.74232 v 0 c -0.72864,-0.31896 -1.06056,-1.17 -0.7416,-1.89864 v 0 c 0.702,-1.58256 1.08432,-3.29112 1.14408,-5.0256 0.07704,-2.27376 -0.41472,-4.53096 -1.42632,-6.56784 z M 12.04344,5.6952 v 0 c -0.71496,0.34128 -1.5768,0.03744 -1.92168,-0.67824 v 0 C 9.77616,4.30128 10.0764,3.44016 10.79208,3.09456 v 0 c 2.40984,-1.15704 5.0652,-1.71432 7.74216,-1.6236 2.57616,0.08784 5.10336,0.77256 7.36632,2.00952 v 0 c 0.69912,0.3816 0.95616,1.25856 0.57456,1.95696 v 0 C 26.09352,6.13656 25.21656,6.3936 24.51744,6.012 v 0 C 22.65048,4.99032 20.56608,4.42224 18.43632,4.34952 16.22736,4.27392 14.03568,4.73256 12.04344,5.6952 Z M 4.99176,22.36248 v 0 c 0.25272,0.7524 -0.1548,1.56816 -0.90864,1.82088 v 0 C 3.32856,24.43608 2.51136,24.02712 2.25864,23.27112 v 0 C 1.63872,21.3984 1.35288,19.4292 1.41984,17.45712 1.5084,14.85216 2.20824,12.29688 3.47472,10.01304 v 0 C 3.85632,9.31896 4.73112,9.06768 5.42808,9.45288 v 0 c 0.69624,0.38592 0.94896,1.26288 0.56376,1.95768 v 0 c -1.044,1.88784 -1.62072,3.99312 -1.69344,6.1452 -0.05616,1.63296 0.17712,3.25512 0.69336,4.80672 z M 30.36528,7.55856 C 30.33792,8.35272 29.6712,8.97624 28.87704,8.94888 28.08288,8.92152 27.45936,8.2548 27.48672,7.46064 27.51408,6.66648 28.1808,6.04368 28.97496,6.07032 29.76912,6.09768 30.39192,6.7644 30.36528,7.55856 Z M 7.87032,27.5184 C 7.84296,28.31256 7.17624,28.93536 6.38208,28.908 5.58792,28.88136 4.96512,28.21464 4.99176,27.41976 5.01912,26.6256 5.68584,26.0028 6.48,26.03016 7.27416,26.0568 7.89768,26.72352 7.87032,27.5184 Z m 23.05152,0.78552 c 0.02736,-0.79416 -0.59544,-1.46088 -1.3896,-1.48824 -0.79416,-0.02664 -1.4616,0.59616 -1.48824,1.39032 -0.02736,0.79416 0.59544,1.46088 1.3896,1.48824 0.79488,0.02736 1.4616,-0.59544 1.48824,-1.39032 z M 8.90712,6.82704 C 8.93448,6.03288 8.31168,5.36616 7.5168,5.3388 6.72264,5.31144 6.05592,5.93496 6.02856,6.72912 6.00192,7.52328 6.62472,8.19 7.41888,8.21736 8.21304,8.244 8.87976,7.6212 8.90712,6.82704 Z"
       id="svg_1"
       style="fill:url(#_lgradient_23);fill-rule:evenodd;stroke-width:0.72000003"
       inkscape:connector-curvature="0" />
    <path
       stroke="null"
       d="m 18.723933,10.974706 v 0 c 0,-0.441148 0.324352,-0.799419 0.724177,-0.799419 v 0 c 0.399329,0 0.72362,0.358271 0.72362,0.799419 v 0 0.681367 0 c 0,0.441147 -0.324291,0.799409 -0.72362,0.799409 v 0 c -0.399825,0 -0.724177,-0.358262 -0.724177,-0.799409 v 0 z m 0,3.696272 v 0 c 0,-0.441198 0.324352,-0.799459 0.724177,-0.799459 v 0 c 0.399329,0 0.72362,0.358261 0.72362,0.799459 v 0 3.46571 h 2.471107 c 1.331645,0 1.699096,0.897117 0.819227,2.001444 l -3.86797,4.857878 c -0.879918,1.104936 -2.308137,1.104936 -3.188056,0 l -3.86797,-4.857878 C 11.6582,19.033805 12.025142,18.136688 13.357295,18.136688 h 2.471058 v -7.161982 0 c 0,-0.441148 0.324341,-0.799419 0.723669,-0.799419 v 0 c 0.399825,0 0.724128,0.358271 0.724128,0.799419 v 0 8.761419 h -2.355427 c -0.266189,0 -0.348939,0.187945 -0.183998,0.419016 l 2.964965,4.162977 c 0.164494,0.23164 0.43226,0.23164 0.596705,0 l 2.964964,-4.162977 c 0.164483,-0.231071 0.08224,-0.419016 -0.18447,-0.419016 h -2.354955 v -5.065148 0 0 0 0 0 0 0 0 z"
       id="svg_15"
       style="fill:url(#svg_8);fill-rule:evenodd;stroke-width:0.72000003"
       inkscape:connector-curvature="0" />
  </g>
</svg>
