<svg width="48" height="48" xmlns="http://www.w3.org/2000/svg">
 <defs>
  <linearGradient id="_lgradient_23" x1="0.040631" y1="0.054353" x2="0.968361" y2="0.973945">
   <stop offset="0%" stop-color="rgb(240,107,169)"/>
   <stop offset="98.69565217391305%" stop-color="rgb(66,216,246)"/>
  </linearGradient>
 </defs>
 <g>
  <title>background</title>
  <rect x="-1" y="-1" width="50" height="50" id="canvas_background" fill="none"/>
 </g>
 <g>
  <title>Layer 1</title>
  <path d="m26.603,10.245zm6.83,30.247l0,0c0.958,-0.547 2.184,-0.216 2.736,0.739l0,0c0.553,0.955 0.225,2.179 -0.733,2.732l0,0c-3.725,2.144 -7.974,3.2 -12.261,3.054c-3.888,-0.133 -7.682,-1.253 -11.026,-3.248l0,0c-0.947,-0.568 -1.255,-1.798 -0.687,-2.745l0,0c0.568,-0.947 1.798,-1.255 2.745,-0.687l0,0c2.755,1.655 5.886,2.572 9.104,2.682c3.548,0.121 7.05,-0.75 10.122,-2.527l0,0l0,0l0,0l0,0l0,0l0,0l0,0zm7.534,-24.937l0,0c-0.496,-0.989 -0.096,-2.193 0.892,-2.686l0,0c0.989,-0.494 2.19,-0.092 2.681,0.896l0,0c1.715,3.421 2.536,7.221 2.405,11.049c-0.099,2.918 -0.747,5.788 -1.919,8.449l0,0c-0.443,1.012 -1.624,1.474 -2.637,1.031l0,0c-1.012,-0.443 -1.473,-1.625 -1.03,-2.637l0,0c0.975,-2.198 1.506,-4.571 1.589,-6.98c0.107,-3.158 -0.576,-6.293 -1.981,-9.122l0,0l0,0l0,0l0,0l0,0l0,0zm-25.24,-8.645l0,0c-0.993,0.474 -2.19,0.052 -2.669,-0.942l0,0c-0.48,-0.994 -0.063,-2.19 0.931,-2.67l0,0c3.347,-1.607 7.035,-2.381 10.753,-2.255c3.578,0.122 7.088,1.073 10.231,2.791l0,0c0.971,0.53 1.328,1.748 0.798,2.718l0,0c-0.53,0.971 -1.748,1.328 -2.719,0.798l0,0c-2.593,-1.419 -5.488,-2.208 -8.446,-2.309c-3.068,-0.105 -6.112,0.532 -8.879,1.869l0,0l0,0l0,0l0,0l0,0zm-9.794,23.149l0,0c0.351,1.045 -0.215,2.178 -1.262,2.529l0,0c-1.048,0.351 -2.183,-0.217 -2.534,-1.267l0,0c-0.861,-2.601 -1.258,-5.336 -1.165,-8.075c0.123,-3.618 1.095,-7.167 2.854,-10.339l0,0c0.53,-0.964 1.745,-1.313 2.713,-0.778l0,0c0.967,0.536 1.318,1.754 0.783,2.719l0,0c-1.45,2.622 -2.251,5.546 -2.352,8.535c-0.078,2.268 0.246,4.521 0.963,6.676l0,0l0,0l0,0l0,0zm35.241,-20.561c-0.038,1.103 -0.964,1.969 -2.067,1.931c-1.103,-0.038 -1.969,-0.964 -1.931,-2.067c0.038,-1.103 0.964,-1.968 2.067,-1.931c1.103,0.038 1.968,0.964 1.931,2.067l0,0l0,0l0,0zm-31.243,27.722c-0.038,1.103 -0.964,1.968 -2.067,1.93c-1.103,-0.037 -1.968,-0.963 -1.931,-2.067c0.038,-1.103 0.964,-1.968 2.067,-1.93c1.103,0.037 1.969,0.963 1.931,2.067l0,0l0,0zm32.016,1.091c0.038,-1.103 -0.827,-2.029 -1.93,-2.067c-1.103,-0.037 -2.03,0.828 -2.067,1.931c-0.038,1.103 0.827,2.029 1.93,2.067c1.104,0.038 2.03,-0.827 2.067,-1.931l0,0zm-30.576,-29.829c0.038,-1.103 -0.827,-2.029 -1.931,-2.067c-1.103,-0.038 -2.029,0.828 -2.067,1.931c-0.037,1.103 0.828,2.029 1.931,2.067c1.103,0.037 2.029,-0.828 2.067,-1.931z" fill-rule="evenodd" fill="url(#_lgradient_23)" id="svg_1"/>
  <defs>
   <linearGradient id="svg_8" x1="0.040631" y1="0.054353" x2="0.968361" y2="0.973945">
    <stop offset="0%" stop-color="rgb(240,107,169)"/>
    <stop offset="98.69565217391305%" stop-color="rgb(66,216,246)"/>
   </linearGradient>
  </defs>
  <g id="svg_17">
   <path transform="rotate(180 32.056793212890625,24.000000000000004) " stroke="null" d="m33.062255,14.242648l0,0c0,-0.612705 0.45049,-1.110304 1.005802,-1.110304l0,0c0.554623,0 1.005027,0.497599 1.005027,1.110304l0,0l0,0.946343l0,0c0,0.612705 -0.450404,1.11029 -1.005027,1.11029l0,0c-0.555312,0 -1.005802,-0.497585 -1.005802,-1.11029l0,0l0,-0.946343l0,0l0,0l0,0l0,0l0,0l0,0l0,0l0,0zm0,5.133711l0,0c0,-0.612774 0.45049,-1.11036 1.005802,-1.11036l0,0c0.554623,0 1.005027,0.497585 1.005027,1.11036l0,0l0,4.813487l3.432094,0c1.849506,0 2.359855,1.245995 1.137815,2.779783l-5.37218,6.747052c-1.222109,1.534634 -3.205747,1.534634 -4.427856,0l-5.37218,-6.747052c-1.22204,-1.533788 -0.712398,-2.779783 1.137815,-2.779783l3.432025,0l0,-9.947198l0,0c0,-0.612705 0.450473,-1.110304 1.005096,-1.110304l0,0c0.555312,0 1.005733,0.497599 1.005733,1.110304l0,0l0,12.168638l-3.271426,0c-0.369708,0 -0.484638,0.261034 -0.255553,0.581966l4.118006,5.781913c0.228465,0.321722 0.600361,0.321722 0.828757,0l4.118006,-5.781913c0.228448,-0.320931 0.114224,-0.581966 -0.256208,-0.581966l-3.270771,0l0,-7.034928l0,0l0,0l0,0l0,0l0,0l0,0l0,0l0,0z" fill-rule="evenodd" fill="url(#svg_8)" id="svg_15"/>
   <path stroke="null" d="m16.94867,14.242648l0,0c0,-0.612705 0.45049,-1.110304 1.005802,-1.110304l0,0c0.554623,0 1.005027,0.497599 1.005027,1.110304l0,0l0,0.946343l0,0c0,0.612705 -0.450404,1.110291 -1.005027,1.110291l0,0c-0.555312,0 -1.005802,-0.497586 -1.005802,-1.110291l0,0l0,-0.946343l0,0l0,0l0,0l0,0l0,0l0,0l0,0l0,0zm0,5.133711l0,0c0,-0.612774 0.45049,-1.11036 1.005802,-1.11036l0,0c0.554623,0 1.005027,0.497586 1.005027,1.11036l0,0l0,4.813487l3.432094,0c1.849506,0 2.359855,1.245995 1.137814,2.779783l-5.37218,6.747052c-1.222109,1.534634 -3.205747,1.534634 -4.427856,0l-5.37218,-6.747052c-1.222041,-1.533788 -0.712398,-2.779783 1.137814,-2.779783l3.432025,0l0,-9.947198l0,0c0,-0.612705 0.450473,-1.110304 1.005096,-1.110304l0,0c0.555312,0 1.005733,0.497599 1.005733,1.110304l0,0l0,12.168639l-3.271426,0c-0.369708,0 -0.484638,0.261034 -0.255553,0.581966l4.118006,5.781913c0.228465,0.321722 0.600361,0.321722 0.828757,0l4.118006,-5.781913c0.228448,-0.320932 0.114224,-0.581966 -0.256207,-0.581966l-3.270772,0l0,-7.034928l0,0l0,0l0,0l0,0l0,0l0,0l0,0l0,0z" fill-rule="evenodd" fill="url(#svg_8)" id="svg_16"/>
  </g>
 </g>
</svg>