<svg width="47.99999999999999" height="47.99999999999999" xmlns="http://www.w3.org/2000/svg">
 <defs>
  <linearGradient id="_lgradient_23" x1="0.040631" y1="0.054353" x2="0.968361" y2="0.973945">
   <stop offset="0%" stop-color="rgb(240,107,169)"/>
   <stop offset="98.69565217391305%" stop-color="rgb(66,216,246)"/>
  </linearGradient>
 </defs>
 <g>
  <title>background</title>
  <rect x="-1" y="-1" width="6.549719" height="6.549719" id="canvas_background" fill="none"/>
 </g>
 <g>
  <title>Layer 1</title>
  <path d="m26.519037,10.245zm6.83,30.247l0,0c0.958,-0.547 2.184,-0.216 2.736,0.739l0,0c0.553,0.955 0.225,2.179 -0.733,2.732l0,0c-3.725,2.144 -7.974,3.2 -12.261,3.054c-3.888,-0.133 -7.682,-1.253 -11.026,-3.248l0,0c-0.947,-0.568 -1.255,-1.798 -0.687,-2.745l0,0c0.568,-0.947 1.798,-1.255 2.745,-0.687l0,0c2.755,1.655 5.886,2.572 9.104,2.682c3.548,0.121 7.05,-0.75 10.122,-2.527l0,0l0,0l0,0l0,0l0,0l0,0l0,0zm7.534,-24.937l0,0c-0.496,-0.989 -0.096,-2.193 0.892,-2.686l0,0c0.989,-0.494 2.19,-0.092 2.681,0.896l0,0c1.715,3.421 2.536,7.221 2.405,11.049c-0.099,2.918 -0.747,5.788 -1.919,8.449l0,0c-0.443,1.012 -1.624,1.474 -2.637,1.031l0,0c-1.012,-0.443 -1.473,-1.625 -1.03,-2.637l0,0c0.975,-2.198 1.506,-4.571 1.589,-6.98c0.107,-3.158 -0.576,-6.293 -1.981,-9.122l0,0l0,0l0,0l0,0l0,0l0,0zm-25.24,-8.645l0,0c-0.993,0.474 -2.19,0.052 -2.669,-0.942l0,0c-0.48,-0.994 -0.063,-2.19 0.931,-2.67l0,0c3.347,-1.607 7.035,-2.381 10.753,-2.255c3.578,0.122 7.088,1.073 10.231,2.791l0,0c0.971,0.53 1.328,1.748 0.798,2.718l0,0c-0.53,0.971 -1.748,1.328 -2.719,0.798l0,0c-2.593,-1.419 -5.488,-2.208 -8.446,-2.309c-3.068,-0.105 -6.112,0.532 -8.879,1.869l0,0l0,0l0,0l0,0l0,0zm-9.794,23.149l0,0c0.351,1.045 -0.215,2.178 -1.262,2.529l0,0c-1.048,0.351 -2.183,-0.217 -2.534,-1.267l0,0c-0.861,-2.601 -1.258,-5.336 -1.165,-8.075c0.123,-3.618 1.095,-7.167 2.854,-10.339l0,0c0.53,-0.964 1.745,-1.313 2.713,-0.778l0,0c0.967,0.536 1.318,1.754 0.783,2.719l0,0c-1.45,2.622 -2.251,5.546 -2.352,8.535c-0.078,2.268 0.246,4.521 0.963,6.676l0,0l0,0l0,0l0,0z" fill-rule="evenodd" fill="url(#_lgradient_23)" id="svg_1"/>
 </g>
</svg>