<?xml version="1.0" encoding="UTF-8" standalone="no"?>
<!-- Generator: Gravit.io -->

<svg
   xmlns:dc="http://purl.org/dc/elements/1.1/"
   xmlns:cc="http://creativecommons.org/ns#"
   xmlns:rdf="http://www.w3.org/1999/02/22-rdf-syntax-ns#"
   xmlns:svg="http://www.w3.org/2000/svg"
   xmlns="http://www.w3.org/2000/svg"
   xmlns:sodipodi="http://sodipodi.sourceforge.net/DTD/sodipodi-0.dtd"
   xmlns:inkscape="http://www.inkscape.org/namespaces/inkscape"
   style="isolation:isolate"
   viewBox="0 0 36 36"
   width="48"
   height="48"
   version="1.1"
   id="svg9"
   sodipodi:docname="nextcloud.svg"
   inkscape:version="0.92.4 (5da689c313, 2019-01-14)">
  <metadata
     id="metadata15">
    <rdf:RDF>
      <cc:Work
         rdf:about="">
        <dc:format>image/svg+xml</dc:format>
        <dc:type
           rdf:resource="http://purl.org/dc/dcmitype/StillImage" />
        <dc:title></dc:title>
      </cc:Work>
    </rdf:RDF>
  </metadata>
  <defs
     id="defs13" />
  <sodipodi:namedview
     pagecolor="#ffffff"
     bordercolor="#666666"
     borderopacity="1"
     objecttolerance="10"
     gridtolerance="10"
     guidetolerance="10"
     inkscape:pageopacity="0"
     inkscape:pageshadow="2"
     inkscape:window-width="640"
     inkscape:window-height="480"
     id="namedview11"
     showgrid="false"
     inkscape:zoom="29.365243"
     inkscape:cx="25.325443"
     inkscape:cy="32"
     inkscape:current-layer="svg9"
     units="px" />
  <linearGradient
     id="_lgradient_2"
     x1="0"
     y1="0.5"
     x2="1"
     y2="0.5"
     gradientTransform="matrix(46,0,0,46,1,1)"
     gradientUnits="userSpaceOnUse">
    <stop
       offset="0%"
       stop-opacity="1"
       style="stop-color:rgb(24,208,173)"
       id="stop2" />
    <stop
       offset="90.44964029999998%"
       stop-opacity="1"
       style="stop-color:rgb(7,195,242)"
       id="stop4" />
  </linearGradient>
  <g
     id="g826"
     transform="matrix(0.7826087,0,0,0.7826087,-0.7826088,-0.7826088)">
    <path
       id="path7"
       d="M 33.319,22.212 C 32.493,17.818 28.634,14.5 24,14.5 v 0 c -4.634,0 -8.493,3.318 -9.319,7.712 v 0 C 13.776,19.385 11.128,17.333 8,17.333 v 0 c -3.866,0 -7,3.134 -7,7 0,0.194 0.008,0.385 0.023,0.574 v 0 L 1,25 v 17 c 0,2.76 2.24,5 5,5 h 36 c 2.76,0 5,-2.24 5,-5 v -6.55 0 c 0,-1.104 -0.896,-2 -2,-2 v 0 c -1.104,0 -2,0.896 -2,2 v 0 4.55 c 0,1.656 -1.344,3 -3,3 H 8 C 6.344,43 5,41.656 5,40 v -9.34 c 0.909,0.432 1.926,0.673 3,0.673 3.245,0 5.975,-2.208 6.756,-5.208 0.951,4.227 4.73,7.375 9.244,7.375 4.514,0 8.293,-3.148 9.244,-7.375 0.781,3 3.511,5.208 6.756,5.208 3.617,0 6.593,-2.743 6.971,-6.259 v 0 C 46.982,25.05 46.991,25.025 47,25 V 25 24.333 6 C 47,3.24 44.76,1 42,1 H 6 C 3.24,1 1,3.24 1,6 v 6.55 0 c 0,1.104 0.896,2 2,2 v 0 c 1.104,0 2,-0.896 2,-2 v 0 V 8 C 5,6.344 6.344,5 8,5 h 32 c 1.656,0 3,1.344 3,3 v 10.007 c -0.909,-0.432 -1.926,-0.674 -3,-0.674 v 0 c -3.128,0 -5.776,2.052 -6.681,4.879 z M 24,19.25 c 2.623,0 4.75,2.127 4.75,4.75 0,2.623 -2.127,4.75 -4.75,4.75 -2.623,0 -4.75,-2.127 -4.75,-4.75 0,-2.623 2.127,-4.75 4.75,-4.75 z M 8,21.533 c 1.546,0 2.8,1.254 2.8,2.8 0,1.547 -1.254,2.8 -2.8,2.8 -1.546,0 -2.8,-1.253 -2.8,-2.8 0,-1.546 1.254,-2.8 2.8,-2.8 z m 32,0 c 1.546,0 2.8,1.254 2.8,2.8 0,1.547 -1.254,2.8 -2.8,2.8 -1.546,0 -2.8,-1.253 -2.8,-2.8 0,-1.546 1.254,-2.8 2.8,-2.8 z"
       inkscape:connector-curvature="0"
       style="fill:url(#_lgradient_2);fill-rule:evenodd" />
  </g>
</svg>
