<?xml version="1.0" encoding="UTF-8" standalone="no"?>
<!-- Generator: Gravit.io -->

<svg
   xmlns:dc="http://purl.org/dc/elements/1.1/"
   xmlns:cc="http://creativecommons.org/ns#"
   xmlns:rdf="http://www.w3.org/1999/02/22-rdf-syntax-ns#"
   xmlns:svg="http://www.w3.org/2000/svg"
   xmlns="http://www.w3.org/2000/svg"
   xmlns:sodipodi="http://sodipodi.sourceforge.net/DTD/sodipodi-0.dtd"
   xmlns:inkscape="http://www.inkscape.org/namespaces/inkscape"
   style="isolation:isolate"
   viewBox="0 0 36 36"
   width="48"
   height="48"
   version="1.1"
   id="svg9"
   sodipodi:docname="nl.g4d.Girens.svg"
   inkscape:version="0.92.4 (5da689c313, 2019-01-14)">
  <metadata
     id="metadata15">
    <rdf:RDF>
      <cc:Work
         rdf:about="">
        <dc:format>image/svg+xml</dc:format>
        <dc:type
           rdf:resource="http://purl.org/dc/dcmitype/StillImage" />
        <dc:title></dc:title>
      </cc:Work>
    </rdf:RDF>
  </metadata>
  <defs
     id="defs13" />
  <sodipodi:namedview
     pagecolor="#ffffff"
     bordercolor="#666666"
     borderopacity="1"
     objecttolerance="10"
     gridtolerance="10"
     guidetolerance="10"
     inkscape:pageopacity="0"
     inkscape:pageshadow="2"
     inkscape:window-width="640"
     inkscape:window-height="480"
     id="namedview11"
     showgrid="false"
     inkscape:zoom="29.365243"
     inkscape:cx="25.325443"
     inkscape:cy="32"
     inkscape:current-layer="svg9"
     units="px" />
  <linearGradient
     id="_lgradient_14"
     x1="0.41703096"
     y1="0.019248826"
     x2="0.67953813"
     y2="0.96413201"
     gradientTransform="matrix(44,0,0,44,2,2)"
     gradientUnits="userSpaceOnUse">
    <stop
       offset="28.000000000000004%"
       stop-opacity="1"
       style="stop-color:rgb(0,205,215)"
       id="stop2" />
    <stop
       offset="94%"
       stop-opacity="1"
       style="stop-color:rgb(32,134,215)"
       id="stop4" />
  </linearGradient>
  <g
     id="g826"
     transform="matrix(0.81818182,0,0,0.81818182,-1.6363637,-1.6363637)">
    <path
       id="path7"
       d="M 35,45.93 C 34.834,45.977 34.658,46 34.476,46 v 0 H 7.238 C 4.347,46 2,43.653 2,40.762 v -19.905 0 c 0,-1.156 0.939,-2.095 2.095,-2.095 v 0 c 1.157,0 2.095,0.939 2.095,2.095 v 0 0 0 17.81 c 0,1.734 1.409,3.143 3.143,3.143 h 25.143 v 0 c 0.182,0 0.358,0.023 0.524,0.07 0.166,-0.047 0.342,-0.07 0.524,-0.07 v 0 h 3.143 c 1.734,0 3.143,-1.409 3.143,-3.143 v -3.143 0 c 0,-1.157 0.938,-2.095 2.095,-2.095 v 0 c 1.156,0 2.095,0.938 2.095,2.095 v 0 5.238 C 46,43.653 43.653,46 40.762,46 h -5.238 v 0 C 35.342,46 35.166,45.977 35,45.93 Z M 12.476,6.19 v 0 c 1.157,0 2.095,-0.938 2.095,-2.095 v 0 C 14.571,2.939 13.633,2 12.476,2 V 2 H 7.238 C 4.347,2 2,4.347 2,7.238 v 5.238 0 c 0,1.157 0.939,2.095 2.095,2.095 v 0 c 1.157,0 2.095,-0.938 2.095,-2.095 v 0 -3.143 C 6.19,7.599 7.599,6.19 9.333,6.19 Z M 41.81,26.095 v 0 c 0,1.157 0.938,2.095 2.095,2.095 v 0 C 45.061,28.19 46,27.252 46,26.095 v 0 V 7.238 C 46,4.347 43.653,2 40.762,2 H 21.905 V 2 C 20.748,2 19.81,2.939 19.81,4.095 v 0 c 0,1.157 0.938,2.095 2.095,2.095 v 0 h 16.762 c 1.734,0 3.143,1.409 3.143,3.143 z M 22.367,25.632 c -0.858,-0.491 0.239,-1.398 0.816,-1.425 1.564,-0.074 2.315,1.752 2.034,3.057 -0.502,2.335 -3.186,3.322 -5.298,2.644 -3.1,-0.997 -4.353,-4.638 -3.253,-7.54 1.466,-3.868 6.095,-5.392 9.781,-3.862 4.639,1.925 6.436,7.555 4.471,12.022 -2.38,5.411 -9.016,7.483 -14.264,5.08 C 10.47,32.777 8.123,25.13 10.965,19.103 c 3.281,-6.958 11.941,-9.58 18.746,-6.298 7.733,3.73 10.632,13.404 6.908,20.988 -0.274,0.557 -0.579,1.098 -0.914,1.621 z"
       inkscape:connector-curvature="0"
       style="fill:url(#_lgradient_14);fill-rule:evenodd" />
  </g>
</svg>
