<?xml version="1.0" encoding="UTF-8" standalone="no"?>
<!-- Generator: Gravit.io -->

<svg
   xmlns:dc="http://purl.org/dc/elements/1.1/"
   xmlns:cc="http://creativecommons.org/ns#"
   xmlns:rdf="http://www.w3.org/1999/02/22-rdf-syntax-ns#"
   xmlns:svg="http://www.w3.org/2000/svg"
   xmlns="http://www.w3.org/2000/svg"
   xmlns:sodipodi="http://sodipodi.sourceforge.net/DTD/sodipodi-0.dtd"
   xmlns:inkscape="http://www.inkscape.org/namespaces/inkscape"
   style="isolation:isolate"
   viewBox="0 0 36 36"
   width="48"
   height="48"
   version="1.1"
   id="svg9"
   sodipodi:docname="nvidia.svg"
   inkscape:version="0.92.4 (5da689c313, 2019-01-14)">
  <metadata
     id="metadata15">
    <rdf:RDF>
      <cc:Work
         rdf:about="">
        <dc:format>image/svg+xml</dc:format>
        <dc:type
           rdf:resource="http://purl.org/dc/dcmitype/StillImage" />
        <dc:title></dc:title>
      </cc:Work>
    </rdf:RDF>
  </metadata>
  <defs
     id="defs13" />
  <sodipodi:namedview
     pagecolor="#ffffff"
     bordercolor="#666666"
     borderopacity="1"
     objecttolerance="10"
     gridtolerance="10"
     guidetolerance="10"
     inkscape:pageopacity="0"
     inkscape:pageshadow="2"
     inkscape:window-width="640"
     inkscape:window-height="480"
     id="namedview11"
     showgrid="false"
     units="px"
     inkscape:zoom="82.518609"
     inkscape:cx="29.624778"
     inkscape:cy="32.095694"
     inkscape:current-layer="svg9" />
  <linearGradient
     id="_lgradient_40"
     x1="0.99411762"
     y1="0.48015597"
     x2="0.00018059855"
     y2="0.45213065"
     gradientTransform="matrix(47.999938,0,0,35.571907,6.3329427e-5,6.2140472)"
     gradientUnits="userSpaceOnUse">
    <stop
       offset="0%"
       stop-opacity="1"
       style="stop-color:rgb(17,153,142)"
       id="stop2" />
    <stop
       offset="99.1304347826087%"
       stop-opacity="1"
       style="stop-color:rgb(56,239,125)"
       id="stop4" />
  </linearGradient>
  <g
     id="g816"
     transform="scale(0.75)">
    <path
       style="fill:url(#_lgradient_40);fill-rule:evenodd;stroke-width:1.12941027"
       inkscape:connector-curvature="0"
       id="path7"
       d="m 19.542249,12.415639 v 0 c 0,1.308986 -1.061645,2.371761 -2.370632,2.371761 v 0 c -1.308986,0 -2.371761,-1.062775 -2.371761,-2.371761 v 0 -1.458069 c 0,-2.6179728 2.12555,-4.7435231 4.742393,-4.7435231 H 43.257606 C 45.87445,6.2140469 48,8.3395972 48,10.95757 v 10.113869 0 c 0,1.308987 -1.062775,2.371762 -2.371762,2.371762 v 0 c -1.308986,0 -2.370632,-1.062775 -2.370632,-2.371762 v 0 -7.743237 c 0,-1.308986 -1.062775,-2.370632 -2.371761,-2.370632 H 21.914011 c -1.308987,0 -2.371762,0.652799 -2.371762,1.458069 z m 23.715357,18.911975 v 0 c 0,-1.308987 1.061646,-2.371762 2.370632,-2.371762 v 0 C 46.937225,28.955852 48,30.018627 48,31.327614 v 0 5.714816 c 0,2.617973 -2.12555,4.743523 -4.742394,4.743523 H 19.542249 c -2.616843,0 -4.742393,-1.414022 -4.742393,-3.154443 v 0 C 13.246916,37.956123 11.740283,37.149724 10.305932,36.236031 8.550828,35.110009 6.93916,33.781822 5.516103,32.252601 4.1404813,30.782109 2.967024,29.121876 2.0533311,27.33176 0.97474432,25.220892 0.22707472,22.956425 0.03168672,21.789744 -0.07560718,21.144851 0.09832192,20.158876 0.42133332,19.589653 1.0334737,18.509937 2.658695,16.672386 4.6261277,15.225612 6.4173724,13.921143 8.408523,12.925003 10.531814,12.249615 v 0 c 1.243481,-0.393034 2.573926,0.300424 2.96922,1.547293 v 0 c 0.396423,1.246868 -0.297035,2.582961 -1.547292,2.981643 v 0 c -1.624092,0.510493 -3.153314,1.280751 -4.541359,2.276891 -0.9475753,0.711528 -1.8014095,1.552939 -2.5253615,2.501644 0.3320466,1.245739 0.7951048,2.454208 1.3880452,3.616371 0.7228226,1.39934 1.6240923,2.692514 2.7026793,3.842254 1.150869,1.233316 2.454208,2.311903 3.877265,3.224466 1.625221,1.032281 3.355478,1.89741 5.158017,2.58522 0.924987,0.355765 1.529221,1.233316 1.529221,2.217033 h 21.343596 c 1.308986,0 2.371761,-1.061646 2.371761,-2.370632 z M 19.542249,37.04243 Z m 1.145222,-24.22698 v 0.300423 c 0,-0.09939 0.009,-0.196517 0.01694,-0.293647 -0.0056,-0.0011 -0.01242,-0.0045 -0.01694,-0.0056 z m 1.048093,2.77609 c -0.129882,0.0011 -0.260894,0.0023 -0.393035,0.0068 -0.217976,0.0079 -0.437082,0.02824 -0.655058,0.04518 -0.0011,0 -0.0011,0 -0.0023,0 -7.408931,0.596329 -13.8172049,6.873591 -13.8172049,6.873591 0,0 3.6276659,10.500128 13.8194639,11.462385 0.490164,0.04744 0.99614,0.09035 1.514539,0.09035 5.377123,0 14.860781,-2.754632 18.930046,-6.160933 -0.596329,-0.605364 -3.505689,-1.987762 -4.214959,-2.555856 -4.280465,3.695431 -8.705494,6.815992 -14.817863,6.815992 -0.489035,0 -0.958869,-0.03162 -1.411763,-0.08922 -7.478955,-0.940799 -10.03481,-9.188882 -10.03481,-9.188882 0,0 3.345313,-4.94117 10.03481,-5.451663 0.215718,-0.01581 0.433694,-0.02259 0.655058,-0.02937 0.09487,-0.0023 0.187482,-0.0056 0.281223,-0.0056 5.89891,-0.0192 9.758105,5.202064 9.758105,5.202064 0,0 -4.292888,5.970062 -8.895235,5.970062 -0.662964,0 -1.26381,-0.119717 -1.798021,-0.300423 -3.187196,-1.070681 -4.216089,-4.777405 -4.216089,-4.777405 0,0 1.849974,-2.213644 4.216089,-1.929033 2.357079,0.284611 2.844984,1.331575 4.263523,3.69543 l 3.145408,-2.673314 c 0,0 -2.296091,-3.012137 -6.176745,-3.012137 -0.422399,0 -0.836893,0.03049 -1.232186,0.07341 -4.508606,0.486776 -7.215803,3.487619 -7.215803,3.487619 0,0 1.563104,5.881968 7.215803,6.890532 0.528564,0.09374 1.089881,0.150211 1.691856,0.150211 6.56865,0 12.871889,-7.663048 12.871889,-7.663048 0,0 -5.313875,-6.977497 -13.516782,-6.924415 z" />
  </g>
</svg>
