<?xml version="1.0" encoding="UTF-8" standalone="no"?>
<!-- Generator: Gravit.io -->

<svg
   xmlns:dc="http://purl.org/dc/elements/1.1/"
   xmlns:cc="http://creativecommons.org/ns#"
   xmlns:rdf="http://www.w3.org/1999/02/22-rdf-syntax-ns#"
   xmlns:svg="http://www.w3.org/2000/svg"
   xmlns="http://www.w3.org/2000/svg"
   xmlns:sodipodi="http://sodipodi.sourceforge.net/DTD/sodipodi-0.dtd"
   xmlns:inkscape="http://www.inkscape.org/namespaces/inkscape"
   style="isolation:isolate"
   viewBox="0 0 36 36"
   width="48"
   height="48"
   version="1.1"
   id="svg27"
   sodipodi:docname="nvim.svg"
   inkscape:version="0.92.4 (5da689c313, 2019-01-14)">
  <metadata
     id="metadata33">
    <rdf:RDF>
      <cc:Work
         rdf:about="">
        <dc:format>image/svg+xml</dc:format>
        <dc:type
           rdf:resource="http://purl.org/dc/dcmitype/StillImage" />
        <dc:title></dc:title>
      </cc:Work>
    </rdf:RDF>
  </metadata>
  <defs
     id="defs31" />
  <sodipodi:namedview
     pagecolor="#ffffff"
     bordercolor="#666666"
     borderopacity="1"
     objecttolerance="10"
     gridtolerance="10"
     guidetolerance="10"
     inkscape:pageopacity="0"
     inkscape:pageshadow="2"
     inkscape:window-width="640"
     inkscape:window-height="480"
     id="namedview29"
     showgrid="false"
     inkscape:zoom="29.365243"
     inkscape:cx="25.325443"
     inkscape:cy="32"
     inkscape:current-layer="svg27"
     units="px" />
  <linearGradient
     id="_lgradient_0"
     x1="0.2"
     y1="0.83749998"
     x2="1.0904868"
     y2="0.023340708"
     gradientTransform="matrix(6.573,0,0,26.292,12.169,10.854)"
     gradientUnits="userSpaceOnUse">
    <stop
       offset="0%"
       stop-opacity="1"
       style="stop-color:rgb(84,51,255)"
       id="stop2" />
    <stop
       offset="51.73913043478261%"
       stop-opacity="1"
       style="stop-color:rgb(32,189,255)"
       id="stop4" />
    <stop
       offset="98.26086956521739%"
       stop-opacity="1"
       style="stop-color:rgb(165,254,203)"
       id="stop6" />
  </linearGradient>
  <linearGradient
     id="_lgradient_1"
     x1="0"
     y1="0.5"
     x2="1"
     y2="0.5"
     gradientTransform="matrix(22.386,0,0,26.292,13.445,10.854)"
     gradientUnits="userSpaceOnUse">
    <stop
       offset="0%"
       stop-opacity="1"
       style="stop-color:rgb(67,233,123)"
       id="stop11" />
    <stop
       offset="97.82608695652173%"
       stop-opacity="1"
       style="stop-color:rgb(56,249,215)"
       id="stop13" />
  </linearGradient>
  <linearGradient
     id="_lgradient_2"
     x1="0.071553186"
     y1="0.74391294"
     x2="0.99873358"
     y2="0.49568295"
     gradientTransform="scale(48)"
     gradientUnits="userSpaceOnUse">
    <stop
       offset="0%"
       stop-opacity="1"
       style="stop-color:rgb(84,51,255)"
       id="stop18" />
    <stop
       offset="51.73913043478261%"
       stop-opacity="1"
       style="stop-color:rgb(32,189,255)"
       id="stop20" />
    <stop
       offset="98.26086956521739%"
       stop-opacity="1"
       style="stop-color:rgb(165,254,203)"
       id="stop22" />
  </linearGradient>
  <g
     id="g846"
     transform="matrix(0.75000089,0,0,0.75000089,-8.0521947e-5,-5.5001531e-5)">
    <path
       id="path9"
       d="m 12.171,15.455 6.571,-4.601 v 26.292 l -6.573,-4.601 z"
       style="fill:url(#_lgradient_0)"
       inkscape:connector-curvature="0" />
    <path
       id="path16"
       d="m 29.258,25.874 v -15.02 l 6.573,4.601 v 17.09 l -6.573,4.601 -15.813,-22.583 5.297,-3.709 z"
       style="fill:url(#_lgradient_1);fill-rule:evenodd"
       inkscape:connector-curvature="0" />
    <path
       id="path25"
       d="m 33.886,41.178 v 0 c 0.999,-0.571 2.279,-0.225 2.856,0.771 v 0 c 0.577,0.996 0.234,2.274 -0.766,2.85 v 0 c -3.887,2.238 -8.32,3.34 -12.794,3.187 -4.057,-0.138 -8.016,-1.307 -11.505,-3.389 v 0 C 10.689,44.005 10.368,42.721 10.96,41.733 v 0 c 0.593,-0.988 1.876,-1.309 2.865,-0.717 v 0 c 2.875,1.727 6.141,2.684 9.499,2.799 3.703,0.126 7.356,-0.783 10.562,-2.637 z m 7.862,-26.022 v 0 c -0.518,-1.032 -0.101,-2.288 0.931,-2.803 v 0 c 1.032,-0.515 2.285,-0.096 2.798,0.936 v 0 c 1.788,3.569 2.645,7.535 2.509,11.529 -0.104,3.045 -0.78,6.039 -2.003,8.817 v 0 c -0.462,1.056 -1.695,1.538 -2.751,1.075 v 0 c -1.056,-0.462 -1.538,-1.695 -1.075,-2.751 v 0 c 1.018,-2.294 1.572,-4.77 1.657,-7.283 0.113,-3.296 -0.6,-6.567 -2.066,-9.52 z M 15.411,6.135 v 0 C 14.374,6.63 13.126,6.19 12.625,5.153 v 0 C 12.125,4.116 12.56,2.867 13.597,2.367 v 0 c 3.492,-1.677 7.341,-2.485 11.221,-2.353 3.733,0.127 7.396,1.119 10.675,2.912 v 0 c 1.013,0.553 1.386,1.824 0.833,2.837 v 0 c -0.553,1.012 -1.824,1.385 -2.837,0.832 v 0 C 30.783,5.114 27.762,4.291 24.676,4.185 21.474,4.076 18.298,4.741 15.411,6.135 Z M 5.19,30.291 v 0 c 0.367,1.09 -0.223,2.273 -1.316,2.639 v 0 C 2.781,33.296 1.596,32.703 1.23,31.608 v 0 C 0.331,28.894 -0.083,26.04 0.014,23.182 0.143,19.407 1.156,15.704 2.992,12.394 v 0 c 0.553,-1.007 1.821,-1.371 2.831,-0.812 v 0 c 1.01,0.559 1.376,1.83 0.817,2.837 v 0 c -1.513,2.736 -2.348,5.787 -2.455,8.905 -0.08,2.368 0.257,4.718 1.005,6.967 z M 41.964,8.836 C 41.924,9.988 40.958,10.89 39.807,10.851 38.656,10.812 37.753,9.845 37.792,8.694 37.831,7.543 38.798,6.64 39.949,6.68 41.1,6.719 42.003,7.685 41.964,8.836 Z M 9.362,37.763 C 9.323,38.914 8.357,39.817 7.206,39.778 6.054,39.738 5.152,38.772 5.191,37.621 5.23,36.47 6.197,35.567 7.348,35.606 c 1.151,0.039 2.054,1.006 2.014,2.157 z m 33.409,1.139 c 0.039,-1.151 -0.864,-2.117 -2.015,-2.157 -1.151,-0.039 -2.117,0.864 -2.157,2.015 -0.039,1.151 0.864,2.118 2.015,2.157 1.151,0.039 2.118,-0.864 2.157,-2.015 z M 10.865,7.776 C 10.904,6.625 10.002,5.658 8.851,5.619 7.699,5.58 6.733,6.483 6.694,7.634 6.654,8.785 7.557,9.751 8.708,9.791 9.86,9.83 10.826,8.927 10.865,7.776 Z"
       style="fill:url(#_lgradient_2);fill-rule:evenodd"
       inkscape:connector-curvature="0" />
  </g>
</svg>
