<?xml version="1.0" encoding="UTF-8" standalone="no"?>
<!-- Generator: Gravit.io -->

<svg
   xmlns:dc="http://purl.org/dc/elements/1.1/"
   xmlns:cc="http://creativecommons.org/ns#"
   xmlns:rdf="http://www.w3.org/1999/02/22-rdf-syntax-ns#"
   xmlns:svg="http://www.w3.org/2000/svg"
   xmlns="http://www.w3.org/2000/svg"
   xmlns:sodipodi="http://sodipodi.sourceforge.net/DTD/sodipodi-0.dtd"
   xmlns:inkscape="http://www.inkscape.org/namespaces/inkscape"
   style="isolation:isolate"
   viewBox="0 0 36 36"
   width="48"
   height="48"
   version="1.1"
   id="svg16"
   sodipodi:docname="octave.svg"
   inkscape:version="0.92.4 (5da689c313, 2019-01-14)">
  <metadata
     id="metadata22">
    <rdf:RDF>
      <cc:Work
         rdf:about="">
        <dc:format>image/svg+xml</dc:format>
        <dc:type
           rdf:resource="http://purl.org/dc/dcmitype/StillImage" />
        <dc:title></dc:title>
      </cc:Work>
    </rdf:RDF>
  </metadata>
  <defs
     id="defs20" />
  <sodipodi:namedview
     pagecolor="#ffffff"
     bordercolor="#666666"
     borderopacity="1"
     objecttolerance="10"
     gridtolerance="10"
     guidetolerance="10"
     inkscape:pageopacity="0"
     inkscape:pageshadow="2"
     inkscape:window-width="640"
     inkscape:window-height="480"
     id="namedview18"
     showgrid="false"
     inkscape:zoom="29.365243"
     inkscape:cx="25.325443"
     inkscape:cy="32"
     inkscape:current-layer="svg16"
     units="px" />
  <linearGradient
     id="_lgradient_19"
     x1="0"
     y1="0.5"
     x2="0.90748805"
     y2="0.92007786"
     gradientTransform="matrix(40.765,0,0,41.967,5.792,3.672)"
     gradientUnits="userSpaceOnUse">
    <stop
       offset="0%"
       stop-opacity="1"
       style="stop-color:rgb(0,196,255)"
       id="stop2" />
    <stop
       offset="83.88839793817618%"
       stop-opacity="1"
       style="stop-color:rgb(0,114,255)"
       id="stop4" />
  </linearGradient>
  <linearGradient
     id="_lgradient_20"
     x1="0"
     y1="0.5"
     x2="1"
     y2="0.5"
     gradientTransform="matrix(48,0,0,38.689,0,2.361)"
     gradientUnits="userSpaceOnUse">
    <stop
       offset="0%"
       stop-opacity="1"
       style="stop-color:rgb(255,224,49)"
       id="stop9" />
    <stop
       offset="98.69565217391305%"
       stop-opacity="1"
       style="stop-color:rgb(252,82,82)"
       id="stop11" />
  </linearGradient>
  <g
     id="g831"
     transform="scale(0.75)">
    <path
       id="path7"
       d="M 35.292,37.023 40,39.082 c 0.181,-0.068 -1.301,2.048 -1.573,2.164 -3.678,2.84 -8.208,4.393 -12.853,4.393 -4.197,0 -8.302,-1.259 -11.777,-3.619 C 10.374,39.708 7.715,36.43 6.157,32.611 5.854,32.576 5.659,31.31 5.902,31.213 l 5.049,-0.734 c 1.167,2.924 3.187,5.442 5.797,7.2 2.596,1.77 5.678,2.714 8.826,2.714 3.528,0 6.951,-1.18 9.718,-3.37 z M 10.911,18.938 6.02,17.023 c 1.534,-3.934 4.223,-7.305 7.711,-9.692 3.489,-2.387 7.62,-3.659 11.843,-3.659 2.675,0 5.324,0.512 7.803,1.495 L 32.131,10.23 C 30.269,9.482 27.58,8.918 25.574,8.918 c -3.161,0 -6.269,0.957 -8.879,2.741 -2.61,1.784 -4.629,4.328 -5.784,7.279 z M 42.17,16.8 v 0 c 1.307,-0.622 2.967,0.13 3.705,1.679 0,0 0.682,3.069 0.682,6.177 0,1.01 -0.065,2.019 -0.209,3.016 h -5.037 c 0.105,-0.761 0,-2.256 0,-3.016 0,-2.335 -0.511,-4.63 -0.511,-4.63 -0.55,-1.158 0.064,-2.604 1.37,-3.226 z"
       inkscape:connector-curvature="0"
       style="fill:url(#_lgradient_19);fill-rule:evenodd" />
    <path
       id="path14"
       d="m 4.59,19.948 v 0 c -1.086,0 -1.967,-0.882 -1.967,-1.968 v 0 c 0,-1.085 0.881,-1.967 1.967,-1.967 v 0 h 9.836 c 1.448,0 2.623,1.175 2.623,2.623 v 11.266 c 0,1.447 -1.175,2.623 -2.623,2.623 H 2.623 C 1.175,32.525 0,31.349 0,29.902 v -3.935 0 C 0,24.881 0.881,24 1.967,24 v 0 c 1.086,0 1.967,0.881 1.967,1.967 v 0 1.312 c 0,0.724 0.588,1.311 1.312,1.311 h 6.557 c 0.724,0 1.312,-0.587 1.312,-1.311 v -6.02 c 0,-0.724 -0.588,-1.311 -1.312,-1.311 z m 33.312,10.609 v 0 c -1.086,0 -1.968,-0.881 -1.968,-1.967 v 0 c 0,-1.086 0.882,-1.967 1.968,-1.967 v 0 h 7.475 c 1.448,0 2.623,1.175 2.623,2.623 v 9.18 c 0,1.448 -1.175,2.623 -2.623,2.623 h -8.656 c -1.447,0 -2.623,-1.175 -2.623,-2.623 v -3.016 0 c 0,-1.086 0.882,-1.967 1.968,-1.967 v 0 c 1.085,0 1.967,0.881 1.967,1.967 v 0 0.393 c 0,0.724 0.587,1.312 1.311,1.312 h 3.41 c 0.724,0 1.312,-0.588 1.312,-1.312 v -3.934 c 0,-0.724 -0.588,-1.312 -1.312,-1.312 z M 34.754,4.984 h 2.623 c 0.724,0 1.312,0.587 1.312,1.311 v 2.623 c 0,0.724 -0.588,1.312 -1.312,1.312 h -2.623 c -0.724,0 -1.311,-0.588 -1.311,-1.312 V 6.295 c 0,-0.724 0.587,-1.311 1.311,-1.311 z M 33.443,2.361 h 5.246 c 1.447,0 2.622,1.175 2.622,2.623 v 5.246 c 0,1.447 -1.175,2.622 -2.622,2.622 h -5.246 c -1.448,0 -2.623,-1.175 -2.623,-2.622 V 4.984 c 0,-1.448 1.175,-2.623 2.623,-2.623 z"
       inkscape:connector-curvature="0"
       style="fill:url(#_lgradient_20);fill-rule:evenodd" />
  </g>
</svg>
