<?xml version="1.0" encoding="UTF-8" standalone="no"?>
<!-- Generator: Gravit.io -->

<svg
   xmlns:dc="http://purl.org/dc/elements/1.1/"
   xmlns:cc="http://creativecommons.org/ns#"
   xmlns:rdf="http://www.w3.org/1999/02/22-rdf-syntax-ns#"
   xmlns:svg="http://www.w3.org/2000/svg"
   xmlns="http://www.w3.org/2000/svg"
   xmlns:sodipodi="http://sodipodi.sourceforge.net/DTD/sodipodi-0.dtd"
   xmlns:inkscape="http://www.inkscape.org/namespaces/inkscape"
   style="isolation:isolate"
   viewBox="0 0 36 36"
   width="48"
   height="48"
   version="1.1"
   id="svg23"
   sodipodi:docname="onlyoffice.svg"
   inkscape:version="0.92.4 (5da689c313, 2019-01-14)">
  <metadata
     id="metadata29">
    <rdf:RDF>
      <cc:Work
         rdf:about="">
        <dc:format>image/svg+xml</dc:format>
        <dc:type
           rdf:resource="http://purl.org/dc/dcmitype/StillImage" />
        <dc:title></dc:title>
      </cc:Work>
    </rdf:RDF>
  </metadata>
  <defs
     id="defs27" />
  <sodipodi:namedview
     pagecolor="#ffffff"
     bordercolor="#666666"
     borderopacity="1"
     objecttolerance="10"
     gridtolerance="10"
     guidetolerance="10"
     inkscape:pageopacity="0"
     inkscape:pageshadow="2"
     inkscape:window-width="640"
     inkscape:window-height="480"
     id="namedview25"
     showgrid="false"
     units="px"
     inkscape:zoom="82.518609"
     inkscape:cx="31.730046"
     inkscape:cy="32.765552"
     inkscape:current-layer="svg23" />
  <linearGradient
     id="_lgradient_15"
     x1="0"
     y1="0.5"
     x2="1"
     y2="0.5"
     gradientTransform="matrix(49.744245,0,0,21.169596,-0.87212257,27.911639)"
     gradientUnits="userSpaceOnUse">
    <stop
       offset="0%"
       stop-opacity="1"
       style="stop-color:rgb(255,224,49)"
       id="stop2" />
    <stop
       offset="100%"
       stop-opacity="1"
       style="stop-color:rgb(250,0,117)"
       id="stop4" />
  </linearGradient>
  <linearGradient
     id="_lgradient_16"
     x1="0.39980158"
     y1="0.20242152"
     x2="0.36506835"
     y2="1.1185315"
     gradientTransform="matrix(49.473629,0,0,21.501716,-0.73681428,16.508841)"
     gradientUnits="userSpaceOnUse">
    <stop
       offset="0%"
       stop-opacity="1"
       style="stop-color:rgb(67,233,123)"
       id="stop9" />
    <stop
       offset="97.82608695652173%"
       stop-opacity="1"
       style="stop-color:rgb(56,249,215)"
       id="stop11" />
  </linearGradient>
  <linearGradient
     id="_lgradient_17"
     x1="-3.8208334e-05"
     y1="0.50000006"
     x2="0.99996185"
     y2="0.50000006"
     gradientTransform="matrix(49.203012,0,0,26.089897,-0.601506,-1.0812354)"
     gradientUnits="userSpaceOnUse">
    <stop
       offset="0%"
       stop-opacity="1"
       style="stop-color:rgb(0,198,255)"
       id="stop16" />
    <stop
       offset="98.69565217391305%"
       stop-opacity="1"
       style="stop-color:rgb(0,114,255)"
       id="stop18" />
  </linearGradient>
  <g
     id="g830"
     transform="scale(0.75000002)">
    <path
       style="fill:url(#_lgradient_15);stroke-width:1.23007536"
       inkscape:connector-curvature="0"
       id="path7"
       d="m 35.205986,33.410076 -2.201835,-1.094767 2.189534,-4.40367 2.201835,1.094767 8.17385,4.07401 c 1.822972,0.907795 1.870945,2.472451 0.107017,3.490954 L 27.195736,47.236122 c -1.763928,1.018503 -4.627544,1.018503 -6.391472,0 L 2.3236131,36.57137 C 0.55968508,35.552867 0.60765802,33.988211 2.4306296,33.080416 l 8.1738504,-4.07401 2.201835,-1.094767 2.189534,4.40367 -2.201835,1.094767 -2.183384,1.087387 c -0.607657,0.302598 -0.6236478,0.82415 -0.03567,1.162421 l 12.359797,7.124596 c 0.587976,0.338271 1.542514,0.338271 2.13049,0 l 12.359797,-7.124596 c 0.587976,-0.338271 0.571985,-0.859823 -0.03567,-1.162421 z" />
    <path
       style="fill:url(#_lgradient_16);stroke-width:1.23007536"
       inkscape:connector-curvature="0"
       id="path14"
       d="m 35.132181,22.007278 -2.164932,-1.168572 2.337143,-4.329865 2.164933,1.168572 8.0164,4.305263 c 1.79468,0.964379 1.819282,2.573318 0.05535,3.59182 L 27.195736,36.165445 c -1.763928,1.018502 -4.627544,1.018502 -6.391472,0 L 2.4589213,25.574496 c -1.76392793,-1.018502 -1.73932643,-2.627441 0.055353,-3.59182 l 8.0164007,-4.305263 2.164933,-1.168572 2.337143,4.329865 -2.164932,1.168572 -2.410948,1.298959 c -0.597817,0.32105 -0.6051975,0.858593 -0.01722,1.198094 l 12.495105,7.208241 c 0.587976,0.339501 1.542514,0.339501 2.13049,0 L 37.56035,24.504331 c 0.587976,-0.339501 0.580596,-0.877044 -0.01722,-1.198094 z" />
    <path
       style="fill:url(#_lgradient_17);stroke-width:1.23007536"
       inkscape:connector-curvature="0"
       id="path21"
       d="m 20.309774,19.510225 v 0 c 1.174722,0.679002 1.576957,2.185844 0.897955,3.364256 v 0 c -0.679001,1.178412 -2.183384,1.583107 -3.358106,0.904105 v 0 L 2.5942296,14.971247 c -1.76392795,-1.018502 -1.76392795,-2.671723 0,-3.690226 L 20.804264,0.76387754 c 1.763928,-1.01850235 4.627544,-1.01850235 6.391472,0 L 45.40577,11.281021 c 1.763928,1.018503 1.763928,2.671724 0,3.690226 l -15.255394,8.807339 v 0 c -1.174721,0.679002 -2.679104,0.274307 -3.358105,-0.904105 v 0 c -0.679002,-1.178412 -0.276767,-2.685254 0.897955,-3.364256 v 0 l 10.005432,-5.769053 c 0.587976,-0.339501 0.587976,-0.890575 0,-1.230075 L 25.065245,5.2167501 c -0.587976,-0.3395008 -1.542514,-0.3395008 -2.13049,0 L 10.304342,12.511097 c -0.5879764,0.3395 -0.5879764,0.890574 0,1.230075 z" />
  </g>
</svg>
