<?xml version="1.0" encoding="UTF-8" standalone="no"?>
<!-- Generator: Gravit.io -->

<svg
   xmlns:dc="http://purl.org/dc/elements/1.1/"
   xmlns:cc="http://creativecommons.org/ns#"
   xmlns:rdf="http://www.w3.org/1999/02/22-rdf-syntax-ns#"
   xmlns:svg="http://www.w3.org/2000/svg"
   xmlns="http://www.w3.org/2000/svg"
   xmlns:sodipodi="http://sodipodi.sourceforge.net/DTD/sodipodi-0.dtd"
   xmlns:inkscape="http://www.inkscape.org/namespaces/inkscape"
   style="isolation:isolate"
   viewBox="0 0 36 36"
   width="48"
   height="48"
   version="1.1"
   id="svg16"
   sodipodi:docname="openlp.svg"
   inkscape:version="0.92.4 (5da689c313, 2019-01-14)">
  <metadata
     id="metadata22">
    <rdf:RDF>
      <cc:Work
         rdf:about="">
        <dc:format>image/svg+xml</dc:format>
        <dc:type
           rdf:resource="http://purl.org/dc/dcmitype/StillImage" />
        <dc:title></dc:title>
      </cc:Work>
    </rdf:RDF>
  </metadata>
  <defs
     id="defs20" />
  <sodipodi:namedview
     pagecolor="#ffffff"
     bordercolor="#666666"
     borderopacity="1"
     objecttolerance="10"
     gridtolerance="10"
     guidetolerance="10"
     inkscape:pageopacity="0"
     inkscape:pageshadow="2"
     inkscape:window-width="640"
     inkscape:window-height="480"
     id="namedview18"
     showgrid="false"
     inkscape:zoom="29.365243"
     inkscape:cx="25.325443"
     inkscape:cy="32"
     inkscape:current-layer="svg16"
     units="px" />
  <linearGradient
     id="_lgradient_16"
     x1="-0.10818873"
     y1="0.45786142"
     x2="1.2497628"
     y2="0.86448014"
     gradientTransform="matrix(39.283,0,0,35.18,4,6.393)"
     gradientUnits="userSpaceOnUse">
    <stop
       offset="0%"
       stop-opacity="1"
       style="stop-color:rgb(0,196,255)"
       id="stop2" />
    <stop
       offset="83.88839793817618%"
       stop-opacity="1"
       style="stop-color:rgb(0,114,255)"
       id="stop4" />
  </linearGradient>
  <linearGradient
     id="_lgradient_17"
     x1="0"
     y1="0.5"
     x2="0.90748805"
     y2="0.92007786"
     gradientTransform="matrix(42.201,-22.87,22.727,41.938,-8.464,14.316)"
     gradientUnits="userSpaceOnUse">
    <stop
       offset="0%"
       stop-opacity="1"
       style="stop-color:rgb(0,196,255)"
       id="stop9" />
    <stop
       offset="83.88839793817618%"
       stop-opacity="1"
       style="stop-color:rgb(0,114,255)"
       id="stop11" />
  </linearGradient>
  <g
     id="g831"
     transform="matrix(0.74998642,0,0,0.74998642,-0.05390379,0.01271998)">
    <path
       id="path7"
       d="M 14.549,6.393 C 12.73,7.371 11.074,8.626 9.639,10.111 L 37.389,26.949 7.646,12.508 C 6.437,14.224 5.505,16.119 4.885,18.125 L 38.287,29.156 4.258,20.965 C 4.095,21.969 4.009,22.983 4,24 c 0.002,1.105 0.095,2.209 0.279,3.299 L 35.596,30.404 5.047,30.307 c 0.617,1.854 1.503,3.607 2.629,5.205 L 36.18,32.934 9.441,37.693 c 1.455,1.552 3.147,2.861 5.014,3.879 l 27.375,-8.56 c 0.612,-1.21 1.098,-2.479 1.453,-3.787 z"
       style="fill:url(#_lgradient_16)"
       inkscape:connector-curvature="0" />
    <path
       id="path14"
       d="m 28.714,43.441 v 0 c 1.073,-0.255 2.151,0.409 2.407,1.482 v 0 c 0.255,1.073 -0.409,2.152 -1.483,2.407 v 0 C 24.502,48.555 19.098,48.049 14.279,45.895 9.46,43.74 5.486,40.059 2.971,35.417 -0.06,29.825 -0.746,23.248 1.066,17.147 2.878,11.047 7.045,5.911 12.637,2.881 c 5.591,-3.03 12.169,-3.717 18.269,-1.905 6.1,1.813 11.236,5.979 14.266,11.571 2.506,4.624 3.42,9.941 2.616,15.132 -0.813,5.195 -3.304,9.98 -7.095,13.626 v 0 c -0.797,0.765 -2.065,0.738 -2.83,-0.059 v 0 c -0.764,-0.797 -0.738,-2.065 0.059,-2.83 v 0 c 3.158,-3.03 5.236,-7.023 5.917,-11.35 C 44.506,22.735 43.742,18.304 41.655,14.453 39.13,9.793 34.85,6.323 29.766,4.813 24.683,3.303 19.202,3.873 14.542,6.398 9.883,8.923 6.413,13.203 4.903,18.287 3.392,23.371 3.962,28.851 6.488,33.511 c 2.096,3.868 5.41,6.941 9.429,8.732 4.01,1.796 8.517,2.22 12.797,1.198 z"
       style="fill:url(#_lgradient_17)"
       inkscape:connector-curvature="0" />
  </g>
</svg>
