<?xml version="1.0" encoding="UTF-8" standalone="no"?>
<!-- Generator: Gravit.io -->

<svg
   xmlns:dc="http://purl.org/dc/elements/1.1/"
   xmlns:cc="http://creativecommons.org/ns#"
   xmlns:rdf="http://www.w3.org/1999/02/22-rdf-syntax-ns#"
   xmlns:svg="http://www.w3.org/2000/svg"
   xmlns="http://www.w3.org/2000/svg"
   xmlns:sodipodi="http://sodipodi.sourceforge.net/DTD/sodipodi-0.dtd"
   xmlns:inkscape="http://www.inkscape.org/namespaces/inkscape"
   style="isolation:isolate"
   viewBox="0 0 48 48"
   width="48"
   height="48"
   version="1.1"
   id="svg16"
   sodipodi:docname="opera.svg"
   inkscape:version="0.92.4 (5da689c313, 2019-01-14)">
  <metadata
     id="metadata22">
    <rdf:RDF>
      <cc:Work
         rdf:about="">
        <dc:format>image/svg+xml</dc:format>
        <dc:type
           rdf:resource="http://purl.org/dc/dcmitype/StillImage" />
        <dc:title></dc:title>
      </cc:Work>
    </rdf:RDF>
  </metadata>
  <defs
     id="defs20" />
  <sodipodi:namedview
     pagecolor="#ffffff"
     bordercolor="#666666"
     borderopacity="1"
     objecttolerance="10"
     gridtolerance="10"
     guidetolerance="10"
     inkscape:pageopacity="0"
     inkscape:pageshadow="2"
     inkscape:window-width="640"
     inkscape:window-height="480"
     id="namedview18"
     showgrid="false"
     inkscape:zoom="39.153656"
     inkscape:cx="18.994082"
     inkscape:cy="24"
     inkscape:current-layer="svg16" />
  <linearGradient
     id="_lgradient_7"
     x1="0"
     y1="0.5"
     x2="1"
     y2="0.5"
     gradientTransform="matrix(41.001,0,0,42.9,3.5,2.55)"
     gradientUnits="userSpaceOnUse">
    <stop
       offset="0%"
       stop-opacity="1"
       style="stop-color:rgb(242,55,239)"
       id="stop2" />
    <stop
       offset="98.69565217391305%"
       stop-opacity="1"
       style="stop-color:rgb(252,82,82)"
       id="stop4" />
  </linearGradient>
  <linearGradient
     id="_lgradient_8"
     x1="12.002974"
     y1="23.502523"
     x2="37.01125"
     y2="23.502523"
     gradientTransform="scale(0.97926942,1.0211694)"
     gradientUnits="userSpaceOnUse">
    <stop
       offset="0%"
       stop-opacity="1"
       style="stop-color:rgb(211,0,220)"
       id="stop9" />
    <stop
       offset="100%"
       stop-opacity="1"
       style="stop-color:rgb(135,0,255)"
       id="stop11" />
  </linearGradient>
  <g
     id="g831"
     transform="matrix(1.1188811,0,0,1.1188811,-2.8531464,-2.8531464)">
    <path
       id="path7"
       d="m 38.59,15.88 v 0 c -0.491,-0.988 -0.088,-2.191 0.9,-2.685 v 0 c 0.988,-0.494 2.193,-0.093 2.69,0.895 v 0 c 1.49,3.01 2.29,6.32 2.32,9.68 0,0 0,0.01 0,0.01 v 0.23 c 0,0.01 0,0.01 0,0.01 0.03,5.57 -2.08,10.95 -5.88,15.02 -1.82,1.95 -4.01,3.53 -6.44,4.64 -2.49,1.13 -5.2,1.74 -7.94,1.77 0,0 -0.01,0 -0.01,0 h -0.2 c -0.01,0 -0.01,0 -0.01,0 -2.74,0 -5.45,-0.57 -7.96,-1.68 -2.44,-1.08 -4.65,-2.63 -6.5,-4.56 -3.85,-4.04 -6.02,-9.4 -6.06,-14.99 0,0 0,0 0,0 v -0.23 c 0,-0.01 0,-0.01 0,-0.01 C 3.47,18.41 5.58,13.03 9.38,8.96 11.2,7.01 13.39,5.43 15.82,4.32 c 2.49,-1.13 5.2,-1.74 7.94,-1.77 0,0 0.01,0 0.01,0 h 0.2 c 0.01,0 0.01,0 0.01,0 2.1,0 4.18,0.34 6.17,0.99 v 0 c 1.049,0.348 1.62,1.481 1.275,2.53 v 0 C 31.08,7.119 29.949,7.688 28.9,7.34 v 0 C 27.32,6.82 25.66,6.55 23.99,6.55 H 23.8 c -2.18,0.03 -4.34,0.51 -6.32,1.41 -1.95,0.89 -3.71,2.16 -5.18,3.73 -3.1,3.33 -4.82,7.72 -4.8,12.27 v 0.24 c 0.03,4.56 1.81,8.94 4.96,12.24 1.48,1.56 3.26,2.8 5.22,3.67 2,0.88 4.15,1.34 6.33,1.34 h 0.19 c 2.18,-0.03 4.34,-0.51 6.32,-1.41 1.95,-0.89 3.71,-2.16 5.18,-3.73 3.1,-3.33 4.82,-7.72 4.8,-12.27 v -0.23 c -0.03,-2.76 -0.68,-5.47 -1.91,-7.93 z"
       inkscape:connector-curvature="0"
       style="fill:url(#_lgradient_7)" />
    <path
       id="path14"
       stroke-miterlimit="3"
       d="m 28.36,14.271 c 3.346,1.673 5.722,5.195 5.877,9.347 0.222,5.94 -4.186,10.934 -9.836,11.144 -5.65,0.211 -10.417,-4.441 -10.638,-10.38 -0.222,-5.94 4.187,-10.934 9.836,-11.144 1.108,-0.041 2.182,0.104 3.194,0.41 z"
       inkscape:connector-curvature="0"
       style="vector-effect:non-scaling-stroke;fill:none;stroke:url(#_lgradient_8);stroke-width:4;stroke-linecap:square;stroke-linejoin:miter;stroke-miterlimit:3" />
  </g>
</svg>
