<?xml version="1.0" encoding="UTF-8" standalone="no"?>
<!-- Generator: Gravit.io -->

<svg
   xmlns:dc="http://purl.org/dc/elements/1.1/"
   xmlns:cc="http://creativecommons.org/ns#"
   xmlns:rdf="http://www.w3.org/1999/02/22-rdf-syntax-ns#"
   xmlns:svg="http://www.w3.org/2000/svg"
   xmlns="http://www.w3.org/2000/svg"
   xmlns:sodipodi="http://sodipodi.sourceforge.net/DTD/sodipodi-0.dtd"
   xmlns:inkscape="http://www.inkscape.org/namespaces/inkscape"
   style="isolation:isolate"
   viewBox="0 0 36 36"
   width="48"
   height="48"
   version="1.1"
   id="svg9"
   sodipodi:docname="org.gnome.Extensions.svg"
   inkscape:version="0.92.4 (5da689c313, 2019-01-14)">
  <metadata
     id="metadata15">
    <rdf:RDF>
      <cc:Work
         rdf:about="">
        <dc:format>image/svg+xml</dc:format>
        <dc:type
           rdf:resource="http://purl.org/dc/dcmitype/StillImage" />
        <dc:title></dc:title>
      </cc:Work>
    </rdf:RDF>
  </metadata>
  <defs
     id="defs13" />
  <sodipodi:namedview
     pagecolor="#ffffff"
     bordercolor="#666666"
     borderopacity="1"
     objecttolerance="10"
     gridtolerance="10"
     guidetolerance="10"
     inkscape:pageopacity="0"
     inkscape:pageshadow="2"
     inkscape:window-width="640"
     inkscape:window-height="480"
     id="namedview11"
     showgrid="false"
     inkscape:zoom="29.365243"
     inkscape:cx="25.325443"
     inkscape:cy="32"
     inkscape:current-layer="svg9"
     units="px" />
  <linearGradient
     id="_lgradient_6"
     x1="0"
     y1="0.5"
     x2="1"
     y2="0.5"
     gradientTransform="matrix(47,0,0,40.001,0.5,3.499)"
     gradientUnits="userSpaceOnUse">
    <stop
       offset="0%"
       stop-opacity="1"
       style="stop-color:rgb(67,233,123)"
       id="stop2" />
    <stop
       offset="97.82608695652173%"
       stop-opacity="1"
       style="stop-color:rgb(56,249,215)"
       id="stop4" />
  </linearGradient>
  <g
     id="g826"
     transform="matrix(0.76595745,0,0,0.76595745,-0.3829788,1.5707864e-4)">
    <path
       id="path7"
       d="m 10.4,4.99 c 2.09,-0.79 4.29,-1.27 6.53,-1.4 0.01,0 0.02,0 0.04,0 l 0.64,-0.02 c 0.01,0 0.01,0 0.01,0 0.7,-0.02 1.39,0.09 2.05,0.31 0.56,0.19 1.06,0.5 1.49,0.91 0.47,0.46 0.81,1.05 0.95,1.7 0.05,0.24 0.08,0.48 0.08,0.72 -0.01,0.37 -0.06,0.73 -0.17,1.09 -0.14,0.45 -0.33,0.88 -0.56,1.28 -0.19,0.32 -0.42,0.62 -0.68,0.89 -0.06,0.07 -0.12,0.15 -0.18,0.22 l -0.01,0.14 c 0.01,0.16 0.05,0.32 0.12,0.47 0.12,0.24 0.3,0.46 0.53,0.63 0.27,0.2 0.58,0.35 0.9,0.44 0.38,0.12 0.78,0.18 1.17,0.2 l 0.45,0.02 c 0.36,0 0.72,-0.04 1.07,-0.12 0.42,-0.09 0.81,-0.27 1.15,-0.53 0.28,-0.22 0.5,-0.51 0.62,-0.84 0.04,-0.13 0.07,-0.28 0.07,-0.42 0,-0.13 -0.03,-0.26 -0.07,-0.39 C 26.53,10.14 26.44,10 26.33,9.87 26.22,9.75 26.12,9.62 26.02,9.49 25.77,9.17 25.56,8.83 25.39,8.48 25.17,8.03 25.06,7.54 25.05,7.04 c 0,-0.01 0,-0.03 0,-0.04 V 6.96 c 0,-0.01 0,-0.02 0,-0.03 0.03,-0.78 0.33,-1.52 0.86,-2.1 0.46,-0.49 1.03,-0.86 1.68,-1.07 0.56,-0.18 1.15,-0.27 1.74,-0.26 0.46,0.01 0.92,0.04 1.37,0.1 3.13,0.38 6.21,1.1 9.19,2.14 -0.01,3.28 -0.26,6.56 -0.73,9.81 l -0.02,0.1 c 0,0.01 0,0.02 0,0.03 -0.08,0.47 -0.12,0.93 -0.14,1.4 0,0.2 0.02,0.39 0.06,0.59 0.04,0.2 0.13,0.39 0.26,0.56 0.06,0.08 0.15,0.13 0.24,0.16 0.03,0 0.05,0.01 0.08,0.01 0.05,-0.01 0.11,-0.01 0.17,-0.02 0.18,-0.04 0.37,-0.09 0.55,-0.17 0,0 0.01,0 0.01,0 l 0.27,-0.11 c 0.55,-0.25 1.13,-0.41 1.72,-0.5 0.05,-0.01 0.1,-0.01 0.14,-0.01 l 0.25,-0.02 c 0.02,0 0.05,0 0.08,0 0.55,0 1.1,0.12 1.61,0.33 0.6,0.25 1.14,0.63 1.59,1.11 0.8,0.89 1.3,2.02 1.42,3.21 0.04,0.26 0.05,0.52 0.05,0.79 0,0.61 -0.08,1.22 -0.23,1.82 -0.15,0.64 -0.43,1.25 -0.81,1.79 -0.47,0.64 -1.09,1.15 -1.8,1.49 -0.58,0.27 -1.21,0.41 -1.85,0.42 -0.03,0 -0.07,-0.01 -0.1,-0.01 L 42.35,28.5 c -0.05,0 -0.11,-0.01 -0.16,-0.02 -0.56,-0.1 -1.11,-0.27 -1.63,-0.51 l -0.31,-0.13 c 0,0 -0.01,0 -0.01,0 -0.17,-0.07 -0.35,-0.13 -0.54,-0.17 -0.05,-0.01 -0.1,-0.01 -0.15,-0.01 -0.03,0 -0.06,0 -0.09,0.01 -0.05,0.01 -0.1,0.04 -0.15,0.08 -0.08,0.07 -0.15,0.16 -0.2,0.26 -0.17,0.34 -0.25,0.71 -0.25,1.09 0,0.01 0,0.01 0,0.02 v 0.2 c 0.02,0.78 0.1,1.56 0.23,2.32 0,0.02 0.01,0.03 0.01,0.05 l 0.12,0.84 0.91,6.87 c 0.07,0.51 -0.13,1.03 -0.54,1.36 -1.61,1.31 -3.54,2.19 -5.59,2.54 -0.77,0.13 -1.55,0.2 -2.33,0.2 -1.32,0.01 -2.62,-0.2 -3.87,-0.63 -0.36,-0.12 -0.71,-0.28 -1.05,-0.48 -0.44,-0.27 -0.82,-0.63 -1.09,-1.07 -0.28,-0.43 -0.43,-0.92 -0.45,-1.43 -0.01,-0.06 0,-0.12 0,-0.18 l 0.02,-0.26 c 0,-0.05 0.01,-0.1 0.02,-0.14 0.09,-0.56 0.28,-1.09 0.55,-1.58 l 0.26,-0.47 0.3,-0.57 c 0.1,-0.17 0.16,-0.36 0.19,-0.56 l 0.01,-0.1 C 26.55,35.86 26.5,35.7 26.42,35.55 26.28,35.32 26.09,35.13 25.86,34.99 25.58,34.82 25.27,34.7 24.95,34.63 c -0.39,-0.08 -0.79,-0.12 -1.19,-0.12 0,0 0,0 0,0 h -0.08 c 0,0 0,0 -0.01,0 -0.45,0 -0.89,0.05 -1.33,0.16 -0.37,0.08 -0.72,0.23 -1.03,0.44 -0.25,0.17 -0.46,0.41 -0.6,0.68 -0.08,0.16 -0.12,0.34 -0.12,0.52 0,0.05 0,0.11 0.01,0.16 0.05,0.19 0.11,0.38 0.2,0.55 0.12,0.27 0.26,0.53 0.4,0.78 0.01,0.01 0.01,0.01 0.01,0.02 l 0.01,0.01 c 0.21,0.36 0.38,0.74 0.51,1.14 0,0.01 0.01,0.02 0.01,0.03 0.1,0.29 0.16,0.6 0.17,0.92 0.01,0.16 -0.01,0.33 -0.04,0.5 -0.12,0.76 -0.51,1.45 -1.08,1.96 -0.5,0.45 -1.11,0.76 -1.76,0.92 -0.43,0.1 -0.87,0.15 -1.32,0.15 C 17.1,43.44 16.49,43.37 15.88,43.24 12.9,42.69 9.98,41.86 7.16,40.76 7.88,37.59 8.25,34.34 8.24,31.08 8.24,30.4 8.22,29.71 8.19,29.03 8.2,28.61 8.13,28.19 7.99,27.79 7.96,27.71 7.9,27.63 7.84,27.57 7.84,27.56 7.83,27.56 7.83,27.56 L 7.76,27.55 c -0.02,0 -0.04,0 -0.06,0.01 -0.16,0.04 -0.31,0.1 -0.46,0.18 -0.01,0 -0.01,0 -0.01,0 l -0.21,0.11 c -0.53,0.3 -1.11,0.51 -1.71,0.62 -0.06,0.01 -0.12,0.02 -0.18,0.02 L 4.88,28.5 C 4.85,28.51 4.81,28.51 4.78,28.51 4.25,28.51 3.73,28.39 3.26,28.17 2.68,27.91 2.18,27.53 1.78,27.05 1.1,26.2 0.67,25.18 0.56,24.1 0.52,23.76 0.5,23.43 0.5,23.09 0.5,22.51 0.55,21.93 0.67,21.36 0.78,20.75 1,20.15 1.33,19.62 c 0.42,-0.67 1.01,-1.23 1.7,-1.6 0.58,-0.31 1.23,-0.47 1.89,-0.48 0.04,0 0.08,0.01 0.11,0.01 l 0.33,0.02 c 0.06,0.01 0.12,0.01 0.18,0.02 0.57,0.12 1.13,0.31 1.65,0.58 l 0.19,0.09 c 0.02,0 0.04,0.01 0.06,0.02 0.2,0.11 0.42,0.17 0.64,0.19 h 0.05 c 0.05,-0.02 0.09,-0.04 0.13,-0.07 0.1,-0.08 0.18,-0.17 0.24,-0.27 0.18,-0.38 0.27,-0.79 0.27,-1.2 0,-0.02 0,-0.03 0,-0.04 V 16.74 C 8.75,15.92 8.67,15.1 8.54,14.29 c 0,-0.02 0,-0.03 -0.01,-0.05 L 8.39,13.14 7.67,7.36 M 21.74,39 c 0,0 0,0 0,0 l 0.01,0.03 -0.02,-0.08 c 0,0.02 0.01,0.03 0.01,0.05 z m 20.99,-18.42 0.12,-0.01 c 0.14,0.01 0.29,0.04 0.42,0.1 0.21,0.08 0.39,0.21 0.54,0.37 0.38,0.42 0.61,0.95 0.66,1.51 0.02,0.15 0.03,0.3 0.03,0.46 0,0.37 -0.05,0.74 -0.14,1.1 -0.06,0.27 -0.18,0.53 -0.34,0.76 -0.17,0.22 -0.39,0.41 -0.64,0.53 -0.17,0.08 -0.35,0.12 -0.53,0.13 L 42.64,25.51 C 42.35,25.45 42.07,25.36 41.8,25.23 41.77,25.22 41.75,25.21 41.73,25.2 l -0.35,-0.14 c -0.36,-0.15 -0.73,-0.26 -1.12,-0.33 -0.23,-0.05 -0.47,-0.07 -0.7,-0.07 -0.26,0 -0.53,0.03 -0.78,0.09 -0.54,0.13 -1.04,0.38 -1.45,0.75 -0.37,0.33 -0.68,0.73 -0.91,1.17 -0.37,0.76 -0.56,1.59 -0.56,2.43 v 0.21 c 0,0.02 0,0.04 0,0.06 0.02,0.93 0.11,1.85 0.27,2.76 l 0.12,0.81 0.79,5.98 c -1.07,0.72 -2.28,1.2 -3.55,1.42 -0.61,0.11 -1.22,0.16 -1.84,0.16 -0.98,0.01 -1.95,-0.15 -2.88,-0.47 -0.17,-0.06 -0.33,-0.13 -0.48,-0.22 -0.03,-0.02 -0.05,-0.04 -0.07,-0.06 0.04,-0.2 0.11,-0.4 0.21,-0.58 0,0 0,0 0,0 l 0.26,-0.47 0.32,-0.58 c 0,-0.01 0,-0.01 0,-0.01 0.27,-0.51 0.45,-1.06 0.52,-1.64 0.01,-0.04 0.01,-0.08 0.02,-0.12 l 0.01,-0.22 c 0,-0.03 0,-0.06 0,-0.08 -0.01,-0.71 -0.2,-1.41 -0.56,-2.02 -0.38,-0.66 -0.93,-1.21 -1.58,-1.61 -0.58,-0.34 -1.21,-0.59 -1.87,-0.73 -0.59,-0.12 -1.2,-0.18 -1.81,-0.18 h -0.07 c -0.67,0 -1.35,0.08 -2.01,0.23 -0.72,0.17 -1.41,0.47 -2.03,0.89 -0.68,0.46 -1.23,1.08 -1.6,1.82 -0.29,0.58 -0.44,1.21 -0.44,1.85 0,0.26 0.02,0.51 0.07,0.76 0.09,0.44 0.24,0.86 0.44,1.27 0.15,0.32 0.32,0.64 0.49,0.95 l 0.02,0.02 c 0,0.01 0.01,0.02 0.01,0.03 0.11,0.18 0.19,0.37 0.26,0.57 v 0.01 c 0.01,0.02 0.02,0.04 0.02,0.06 -0.02,0.07 -0.05,0.12 -0.1,0.17 -0.14,0.12 -0.3,0.2 -0.47,0.24 -0.19,0.05 -0.38,0.07 -0.57,0.07 -0.44,-0.01 -0.87,-0.06 -1.3,-0.15 -1.99,-0.37 -3.94,-0.86 -5.86,-1.49 0.43,-2.55 0.64,-5.14 0.64,-7.73 0,-0.7 -0.02,-1.41 -0.05,-2.11 0,-0.77 -0.13,-1.53 -0.39,-2.25 C 10.61,26.25 10.33,25.82 9.98,25.46 9.57,25.05 9.06,24.76 8.49,24.62 8.43,24.61 8.37,24.6 8.31,24.59 L 7.97,24.55 c -0.06,0 -0.12,-0.01 -0.18,0 -0.28,0 -0.56,0.03 -0.84,0.1 -0.37,0.1 -0.72,0.24 -1.06,0.41 L 5.65,25.18 C 5.62,25.19 5.59,25.21 5.57,25.22 5.34,25.35 5.1,25.45 4.84,25.5 L 4.76,25.51 C 4.67,25.5 4.58,25.48 4.5,25.44 4.34,25.37 4.21,25.27 4.1,25.14 3.78,24.74 3.59,24.26 3.54,23.75 3.51,23.53 3.5,23.31 3.5,23.09 c 0,-0.39 0.04,-0.78 0.12,-1.17 0.04,-0.26 0.13,-0.51 0.27,-0.73 0.14,-0.22 0.33,-0.4 0.56,-0.52 0.13,-0.08 0.29,-0.12 0.44,-0.12 l 0.16,0.01 c 0.27,0.06 0.53,0.15 0.78,0.28 0.02,0.01 0.04,0.03 0.07,0.04 l 0.2,0.09 c 0.59,0.3 1.24,0.47 1.9,0.5 0.05,0 0.11,0 0.17,0 L 8.4,21.46 c 0.03,-0.01 0.07,-0.01 0.11,-0.02 0.59,-0.08 1.15,-0.32 1.62,-0.69 0.43,-0.34 0.78,-0.76 1.03,-1.24 0.41,-0.81 0.62,-1.71 0.61,-2.61 v -0.15 c 0,-0.02 0,-0.04 0,-0.05 -0.03,-0.96 -0.11,-1.92 -0.26,-2.87 L 11.37,12.76 10.78,8.07 c 2,-0.85 4.13,-1.35 6.3,-1.48 l 0.63,-0.02 c 0.33,-0.01 0.67,0.04 0.99,0.14 0.14,0.06 0.26,0.13 0.37,0.24 0.06,0.05 0.09,0.12 0.11,0.19 0.01,0.02 0.01,0.03 0.01,0.05 0,0.08 -0.02,0.16 -0.04,0.23 -0.07,0.23 -0.16,0.44 -0.28,0.64 -0.07,0.13 -0.16,0.24 -0.26,0.35 -0.19,0.2 -0.37,0.42 -0.52,0.65 -0.23,0.34 -0.39,0.73 -0.45,1.14 -0.01,0.05 -0.01,0.09 -0.02,0.13 l -0.02,0.35 c -0.01,0.04 -0.01,0.08 -0.01,0.12 0.01,0.63 0.15,1.25 0.42,1.81 0.34,0.68 0.83,1.28 1.44,1.73 0.56,0.41 1.19,0.72 1.85,0.91 0.61,0.18 1.24,0.29 1.88,0.32 0.01,0 0.02,0 0.03,0 l 0.48,0.02 c 0.01,0 0.02,0 0.03,0 0.6,0 1.19,-0.06 1.77,-0.19 0.84,-0.19 1.63,-0.55 2.31,-1.07 0.75,-0.57 1.31,-1.35 1.63,-2.23 0.16,-0.45 0.24,-0.93 0.24,-1.41 0,-0.53 -0.1,-1.06 -0.3,-1.55 C 29.18,8.7 28.92,8.29 28.61,7.93 28.53,7.84 28.46,7.74 28.39,7.65 28.27,7.5 28.17,7.34 28.09,7.18 28.07,7.12 28.05,7.07 28.05,7.01 c 0.01,-0.05 0.03,-0.1 0.07,-0.14 0.1,-0.12 0.24,-0.21 0.39,-0.26 0.25,-0.08 0.51,-0.12 0.78,-0.11 0.34,0 0.69,0.03 1.03,0.08 2.21,0.26 4.39,0.71 6.53,1.33 -0.09,2.41 -0.31,4.82 -0.66,7.21 0,0 0,0 0,0 l -0.01,0.08 c -0.1,0.61 -0.16,1.22 -0.18,1.83 0,0.41 0.04,0.83 0.12,1.23 0.13,0.66 0.42,1.29 0.84,1.82 0.48,0.62 1.17,1.05 1.93,1.23 0.25,0.06 0.5,0.09 0.76,0.09 0.24,-0.01 0.49,-0.03 0.73,-0.08 0.38,-0.07 0.74,-0.18 1.1,-0.33 l 0.3,-0.11 c 0.02,-0.01 0.04,-0.02 0.07,-0.03 0.28,-0.13 0.58,-0.22 0.88,-0.27 z M 28.05,7.01 c 0,0 0,0 0,-0.01 v 0 0.03 c 0,-0.01 0,-0.01 0,-0.02 z M 10.4,4.99 8.77,5.74 C 8.302,5.997 7.962,6.347 7.72,6.76 7.66,6.95 7.65,7.16 7.67,7.36"
       style="fill:url(#_lgradient_6);fill-rule:evenodd"
       inkscape:connector-curvature="0" />
  </g>
</svg>
