<?xml version="1.0" encoding="UTF-8" standalone="no"?>
<!-- Generator: Gravit.io -->

<svg
   xmlns:dc="http://purl.org/dc/elements/1.1/"
   xmlns:cc="http://creativecommons.org/ns#"
   xmlns:rdf="http://www.w3.org/1999/02/22-rdf-syntax-ns#"
   xmlns:svg="http://www.w3.org/2000/svg"
   xmlns="http://www.w3.org/2000/svg"
   xmlns:sodipodi="http://sodipodi.sourceforge.net/DTD/sodipodi-0.dtd"
   xmlns:inkscape="http://www.inkscape.org/namespaces/inkscape"
   style="isolation:isolate"
   viewBox="0 0 36 36"
   width="48"
   height="48"
   version="1.1"
   id="svg9"
   sodipodi:docname="peek.svg"
   inkscape:version="0.92.4 (5da689c313, 2019-01-14)">
  <metadata
     id="metadata15">
    <rdf:RDF>
      <cc:Work
         rdf:about="">
        <dc:format>image/svg+xml</dc:format>
        <dc:type
           rdf:resource="http://purl.org/dc/dcmitype/StillImage" />
        <dc:title></dc:title>
      </cc:Work>
    </rdf:RDF>
  </metadata>
  <defs
     id="defs13" />
  <sodipodi:namedview
     pagecolor="#ffffff"
     bordercolor="#666666"
     borderopacity="1"
     objecttolerance="10"
     gridtolerance="10"
     guidetolerance="10"
     inkscape:pageopacity="0"
     inkscape:pageshadow="2"
     inkscape:window-width="640"
     inkscape:window-height="480"
     id="namedview11"
     showgrid="false"
     inkscape:zoom="29.365243"
     inkscape:cx="25.325443"
     inkscape:cy="32"
     inkscape:current-layer="svg9"
     units="px" />
  <linearGradient
     id="_lgradient_65"
     x1="0"
     y1="0.5"
     x2="1"
     y2="0.5"
     gradientTransform="matrix(47,0,0,47,0.5,0.5)"
     gradientUnits="userSpaceOnUse">
    <stop
       offset="0%"
       stop-opacity="1"
       style="stop-color:rgb(255,95,109)"
       id="stop2" />
    <stop
       offset="98.26086956521739%"
       stop-opacity="1"
       style="stop-color:rgb(255,195,113)"
       id="stop4" />
  </linearGradient>
  <g
     id="g826"
     transform="matrix(0.76595745,0,0,0.76595745,-0.3829788,-0.3829788)">
    <path
       id="path7"
       d="M 13.437,40.39 15.56,30.03 v 0 L 18.04,30 c 1.22,0.12 2.44,0.22 3.66,0.24 1.02,0.01 2.04,-0.03 3.05,-0.13 1.11,-0.1 2.21,-0.29 3.28,-0.56 0.9,-0.22 1.77,-0.53 2.6,-0.92 0.94,-0.43 1.81,-0.99 2.6,-1.64 0.74,-0.62 1.4,-1.34 1.94,-2.13 0.56,-0.83 1.01,-1.74 1.32,-2.69 0.36,-1.09 0.59,-2.22 0.69,-3.36 0.05,-0.64 0.07,-1.28 0.03,-1.92 C 37.18,16.33 37.1,15.77 36.98,15.23 36.86,14.74 36.71,14.27 36.51,13.81 36.33,13.37 36.1,12.95 35.83,12.56 35.57,12.17 35.26,11.8 34.93,11.47 34.58,11.13 34.21,10.82 33.81,10.55 33.37,10.25 32.91,9.99 32.42,9.78 31.88,9.54 31.33,9.35 30.76,9.2 30.31,9.08 29.86,8.98 29.4,8.91 28.88,8.82 28.36,8.76 27.83,8.72 27.45,8.69 27.06,8.67 26.68,8.67 c -0.43,-0.01 -0.86,-0.01 -1.29,0 -1.23,0.03 -2.45,0.14 -3.67,0.3 -1.65,0.23 -3.28,0.52 -4.9,0.88 -0.77,0.17 -1.37,0.78 -1.53,1.55 l -3,14.63 H 5 4.532 C 4.506,25.299 4.5,24.598 4.5,24 4.5,18.83 6.56,13.87 10.21,10.21 13.87,6.56 18.83,4.5 24,4.5 c 5.17,0 10.13,2.06 13.79,5.71 3.65,3.66 5.71,8.62 5.71,13.79 0,5.17 -2.06,10.13 -5.71,13.79 -3.66,3.65 -8.62,5.71 -13.79,5.71 -3.762,0 -7.429,-1.089 -10.563,-3.11 z M 8.96,42.05 9.31,40.6 11.48,30.03 H 5 4.387 L 1.32,30.18 C 0.78,28.17 0.5,26.09 0.5,24 0.5,17.77 2.98,11.79 7.38,7.38 11.79,2.98 17.77,0.5 24,0.5 c 6.23,0 12.21,2.48 16.62,6.88 4.4,4.41 6.88,10.39 6.88,16.62 0,6.23 -2.48,12.21 -6.88,16.62 C 36.21,45.02 30.23,47.5 24,47.5 18.51,47.5 13.18,45.57 8.96,42.05 Z m 7.42,-16.02 1.96,0.1 c 0.06,0 0.13,0.01 0.2,0.01 1.13,0.12 2.07,0.08 3.21,0.1 0.88,0.01 1.75,-0.03 2.62,-0.11 0.91,-0.09 1.81,-0.24 2.7,-0.46 0.64,-0.16 1.27,-0.39 1.88,-0.67 0.62,-0.29 1.2,-0.65 1.73,-1.09 0.45,-0.38 0.85,-0.82 1.18,-1.3 0.35,-0.52 0.63,-1.09 0.83,-1.69 0.26,-0.8 0.43,-1.62 0.5,-2.46 0.04,-0.45 0.05,-0.9 0.03,-1.36 -0.02,-0.32 -0.07,-0.65 -0.14,-0.97 -0.06,-0.26 -0.14,-0.51 -0.25,-0.75 -0.08,-0.2 -0.19,-0.4 -0.31,-0.58 -0.12,-0.18 -0.26,-0.34 -0.41,-0.49 -0.17,-0.17 -0.35,-0.32 -0.55,-0.45 -0.24,-0.16 -0.48,-0.3 -0.75,-0.42 -0.35,-0.15 -0.71,-0.28 -1.09,-0.38 -0.31,-0.08 -0.63,-0.15 -0.96,-0.2 -0.4,-0.07 -0.82,-0.12 -1.23,-0.15 -0.31,-0.02 -0.62,-0.04 -0.93,-0.04 -0.37,-0.01 -0.73,-0.01 -1.1,0 -1.08,0.03 -2.16,0.12 -3.23,0.27 -1.12,0.15 -2.22,0.34 -3.32,0.55 z"
       inkscape:connector-curvature="0"
       style="fill:url(#_lgradient_65);fill-rule:evenodd" />
  </g>
</svg>
