<?xml version="1.0" encoding="UTF-8" standalone="no"?>
<!-- Generator: Gravit.io -->

<svg
   xmlns:dc="http://purl.org/dc/elements/1.1/"
   xmlns:cc="http://creativecommons.org/ns#"
   xmlns:rdf="http://www.w3.org/1999/02/22-rdf-syntax-ns#"
   xmlns:svg="http://www.w3.org/2000/svg"
   xmlns="http://www.w3.org/2000/svg"
   xmlns:sodipodi="http://sodipodi.sourceforge.net/DTD/sodipodi-0.dtd"
   xmlns:inkscape="http://www.inkscape.org/namespaces/inkscape"
   style="isolation:isolate"
   viewBox="0 0 36 36"
   width="48"
   height="48"
   version="1.1"
   id="svg9"
   sodipodi:docname="pencil.svg"
   inkscape:version="0.92.4 (5da689c313, 2019-01-14)">
  <metadata
     id="metadata15">
    <rdf:RDF>
      <cc:Work
         rdf:about="">
        <dc:format>image/svg+xml</dc:format>
        <dc:type
           rdf:resource="http://purl.org/dc/dcmitype/StillImage" />
        <dc:title></dc:title>
      </cc:Work>
    </rdf:RDF>
  </metadata>
  <defs
     id="defs13" />
  <sodipodi:namedview
     pagecolor="#ffffff"
     bordercolor="#666666"
     borderopacity="1"
     objecttolerance="10"
     gridtolerance="10"
     guidetolerance="10"
     inkscape:pageopacity="0"
     inkscape:pageshadow="2"
     inkscape:window-width="640"
     inkscape:window-height="480"
     id="namedview11"
     showgrid="false"
     inkscape:zoom="29.365243"
     inkscape:cx="25.325443"
     inkscape:cy="32"
     inkscape:current-layer="svg9"
     units="px" />
  <linearGradient
     id="_lgradient_5"
     x1="0"
     y1="0.5"
     x2="1"
     y2="0.5"
     gradientTransform="matrix(40.162,0,0,47,3.919,0.5)"
     gradientUnits="userSpaceOnUse">
    <stop
       offset="0%"
       stop-opacity="1"
       style="stop-color:rgb(255,229,59)"
       id="stop2" />
    <stop
       offset="98.69565217391305%"
       stop-opacity="1"
       style="stop-color:rgb(255,0,91)"
       id="stop4" />
  </linearGradient>
  <g
     id="g826"
     transform="matrix(0.76594939,0,0,0.76594939,-0.38276593,-0.38289835)">
    <path
       id="path7"
       d="M 12.565,26.811 23.667,12.866 v 0 l 10.177,8.135 -11.102,13.947 z m -2.671,3.386 c -0.126,0.202 -0.233,0.416 -0.308,0.63 -0.129,0.287 -0.216,0.604 -0.244,0.92 L 8.379,42.67 v 0 L 18.67,39.206 c 0.302,-0.115 0.589,-0.273 0.833,-0.46 0.197,-0.124 0.38,-0.271 0.541,-0.435 z M 26.353,9.493 27.883,7.571 C 28.4,6.925 29.018,6.35 29.708,5.89 30.297,5.502 30.944,5.2 31.62,4.999 c 0.503,-0.144 1.035,-0.202 1.552,-0.173 0.575,0.029 1.121,0.158 1.653,0.388 0.79,0.331 1.552,0.776 2.228,1.323 0.675,0.531 1.279,1.149 1.796,1.839 0.331,0.446 0.575,0.963 0.733,1.495 0.159,0.503 0.216,1.035 0.173,1.552 -0.043,0.719 -0.187,1.423 -0.446,2.084 -0.158,0.389 -0.345,0.777 -0.56,1.136 -0.201,0.374 -0.431,0.719 -0.69,1.064 l -1.53,1.921 z M 3.923,44.036 5.044,31.33 c 0,-0.014 0,-0.029 0,-0.043 C 5.13,30.583 5.303,29.893 5.576,29.232 5.835,28.57 6.18,27.938 6.611,27.377 6.625,27.363 6.625,27.349 6.64,27.334 L 24.505,4.884 c 0.805,-1.006 1.754,-1.869 2.832,-2.587 0.934,-0.618 1.969,-1.107 3.047,-1.423 0.991,-0.302 2.012,-0.417 3.047,-0.36 1.063,0.072 2.098,0.317 3.076,0.733 1.149,0.489 2.227,1.121 3.205,1.898 0.992,0.761 1.854,1.667 2.601,2.673 0.633,0.848 1.107,1.811 1.409,2.831 0.287,0.992 0.402,2.027 0.345,3.062 -0.086,1.15 -0.331,2.271 -0.733,3.349 -0.23,0.589 -0.503,1.164 -0.834,1.71 -0.302,0.561 -0.647,1.078 -1.035,1.581 0,0.015 -0.014,0.015 -0.014,0.029 L 23.585,40.816 c -0.014,0.015 -0.028,0.029 -0.028,0.043 -0.46,0.546 -0.992,1.021 -1.567,1.423 -0.575,0.417 -1.207,0.748 -1.869,0.992 -0.014,0 -0.028,0 -0.057,0.014 L 8.149,47.298 C 7.789,47.428 7.416,47.485 7.028,47.5 6.165,47.514 5.317,47.155 4.728,46.508 4.167,45.89 3.88,45.071 3.923,44.237 c 0,0 0,-0.014 0,-0.014 z"
       style="fill:url(#_lgradient_5);fill-rule:evenodd"
       inkscape:connector-curvature="0" />
  </g>
</svg>
