<?xml version="1.0" encoding="UTF-8" standalone="no"?>
<!-- Generator: Gravit.io -->

<svg
   xmlns:dc="http://purl.org/dc/elements/1.1/"
   xmlns:cc="http://creativecommons.org/ns#"
   xmlns:rdf="http://www.w3.org/1999/02/22-rdf-syntax-ns#"
   xmlns:svg="http://www.w3.org/2000/svg"
   xmlns="http://www.w3.org/2000/svg"
   xmlns:sodipodi="http://sodipodi.sourceforge.net/DTD/sodipodi-0.dtd"
   xmlns:inkscape="http://www.inkscape.org/namespaces/inkscape"
   style="isolation:isolate"
   viewBox="0 0 36 36"
   width="48"
   height="48"
   version="1.1"
   id="svg9"
   sodipodi:docname="pgadmin.svg"
   inkscape:version="0.92.4 (5da689c313, 2019-01-14)">
  <metadata
     id="metadata15">
    <rdf:RDF>
      <cc:Work
         rdf:about="">
        <dc:format>image/svg+xml</dc:format>
        <dc:type
           rdf:resource="http://purl.org/dc/dcmitype/StillImage" />
        <dc:title></dc:title>
      </cc:Work>
    </rdf:RDF>
  </metadata>
  <defs
     id="defs13" />
  <sodipodi:namedview
     pagecolor="#ffffff"
     bordercolor="#666666"
     borderopacity="1"
     objecttolerance="10"
     gridtolerance="10"
     guidetolerance="10"
     inkscape:pageopacity="0"
     inkscape:pageshadow="2"
     inkscape:window-width="640"
     inkscape:window-height="480"
     id="namedview11"
     showgrid="false"
     inkscape:zoom="29.365243"
     inkscape:cx="25.325443"
     inkscape:cy="32"
     inkscape:current-layer="svg9"
     units="px" />
  <linearGradient
     id="_lgradient_9"
     x1="0.061897106"
     y1="0.14716151"
     x2="0.99042481"
     y2="0.98658085"
     gradientTransform="matrix(47,0,0,43.633,0.5,2.183)"
     gradientUnits="userSpaceOnUse">
    <stop
       offset="0%"
       stop-opacity="1"
       style="stop-color:rgb(22,181,228)"
       id="stop2" />
    <stop
       offset="98.26086956521739%"
       stop-opacity="1"
       style="stop-color:rgb(245,32,250)"
       id="stop4" />
  </linearGradient>
  <g
     id="g826"
     transform="matrix(0.7659592,0,0,0.7659592,-0.382879,-0.38321936)">
    <path
       id="path7"
       d="m 26,36.317 v 1.5 1 c 0,1.655 -1.344,3 -3,3 h -3 c -1.656,0 -3,-1.076 -3,-2.4 v 0 c 0,-0.595 0.407,-1.115 1.015,-1.382 0.106,1.001 0.955,1.782 1.985,1.782 v 0 c 1.104,0 2,-0.896 2,-2 v 0 -9 c 0,-1.06 -0.42,-2.08 -1.17,-2.83 -0.75,-0.75 -1.77,-1.17 -2.83,-1.17 v -2 0 c 0,-1.104 -0.896,-2 -2,-2 v 0 c -1.104,0 -2,0.896 -2,2 v 0 0.657 c -0.468,0.188 -0.945,0.35 -1.433,0.491 -0.603,0.173 -1.236,0.255 -1.869,0.265 C 9.952,24.241 9.217,24.036 8.583,23.648 7.838,23.137 7.235,22.443 6.826,21.646 6.51,21.074 6.244,20.482 6.03,19.869 5.764,19.123 5.55,18.357 5.386,17.591 4.957,15.579 4.702,13.546 4.6,11.503 4.559,10.829 4.579,10.155 4.661,9.491 4.712,9.093 4.814,8.705 4.957,8.327 5.029,8.143 5.121,7.959 5.223,7.785 5.305,7.642 5.396,7.509 5.509,7.397 5.611,7.275 5.723,7.172 5.846,7.07 5.979,6.968 6.122,6.876 6.275,6.794 6.653,6.59 7.061,6.457 7.48,6.396 8.277,6.274 9.094,6.243 9.891,6.304 c 0.745,0.051 1.471,0.153 2.196,0.307 0.739,0.156 1.474,0.337 2.199,0.541 -0.342,0.749 -0.514,1.572 -0.514,2.411 v 3.064 c 0,0.868 0.552,1.644 1.369,1.93 0.174,0.062 0.327,0.164 0.439,0.317 0.153,0.255 0.225,0.552 0.235,0.858 v 0 c 0.023,1.127 0.956,2.025 2.084,2.002 v 0 c 1.127,-0.023 2.024,-0.956 2.002,-2.084 v 0 C 19.88,14.578 19.564,13.536 19.002,12.627 18.685,12.167 18.297,11.769 17.858,11.432 V 9.563 c 0,-0.542 0.214,-1.063 0.603,-1.441 0.377,-0.388 0.898,-0.602 1.44,-0.602 h 8.171 c 0.542,0 1.062,0.214 1.44,0.602 0.389,0.378 0.603,0.899 0.603,1.441 v 1.848 c -0.449,0.327 -0.827,0.736 -1.134,1.195 -0.572,0.92 -0.888,1.962 -0.909,3.044 v 0 c -0.022,1.128 0.875,2.061 2.002,2.084 v 0 c 1.128,0.023 2.061,-0.875 2.084,-2.002 v 0 c 0.01,-0.317 0.092,-0.623 0.245,-0.899 0.102,-0.122 0.225,-0.214 0.378,-0.255 0.838,-0.276 1.42,-1.063 1.42,-1.951 V 9.563 c 0,-0.839 -0.172,-1.661 -0.514,-2.411 0.574,-0.161 1.152,-0.306 1.729,-0.439 0.654,-0.143 1.318,-0.256 1.982,-0.337 0.807,-0.102 1.624,-0.133 2.431,-0.082 0.47,0.031 0.929,0.123 1.369,0.276 0.214,0.071 0.418,0.163 0.623,0.276 0.153,0.091 0.296,0.194 0.439,0.306 0.122,0.112 0.245,0.245 0.347,0.378 0.123,0.163 0.225,0.327 0.307,0.511 0.183,0.378 0.316,0.776 0.377,1.195 0.113,0.745 0.154,1.501 0.103,2.267 -0.092,2.043 -0.358,4.076 -0.777,6.088 -0.173,0.766 -0.388,1.532 -0.653,2.278 -0.215,0.613 -0.48,1.205 -0.787,1.777 -0.419,0.797 -1.021,1.491 -1.757,2.002 -0.643,0.388 -1.368,0.593 -2.114,0.582 -0.633,-0.01 -1.267,-0.092 -1.88,-0.265 C 34.94,23.825 34.465,23.663 34,23.476 v 0 -0.659 0 c 0,-1.104 -0.896,-2 -2,-2 v 0 c -1.104,0 -2,0.896 -2,2 v 0 2 c -1.06,0 -2.08,0.42 -2.83,1.17 -0.631,0.631 -1.029,1.453 -1.139,2.33 H 25 24.5 c -0.552,0 -1,0.448 -1,1 v 0 c 0,0.552 0.448,1 1,1 h 0.5 1 v 0 1 0 h -1 -0.5 c -0.552,0 -1,0.448 -1,1 v 0 c 0,0.552 0.448,1 1,1 h 0.5 1 v 1 h -1 -0.5 c -0.552,0 -1,0.448 -1,1 v 0 c 0,0.552 0.448,1 1,1 H 25 Z m 7.006,-8.858 c 0.43,0.171 0.87,0.313 1.317,0.438 0.95,0.266 1.941,0.409 2.932,0.419 1.563,0.02 3.085,-0.419 4.402,-1.246 1.318,-0.899 2.39,-2.094 3.126,-3.504 0.408,-0.756 0.756,-1.542 1.042,-2.349 0.316,-0.909 0.582,-1.828 0.786,-2.768 0.47,-2.216 0.756,-4.474 0.868,-6.741 C 47.53,10.676 47.49,9.644 47.326,8.613 47.204,7.795 46.958,6.999 46.591,6.253 46.386,5.834 46.141,5.436 45.865,5.068 45.59,4.711 45.283,4.374 44.946,4.077 44.599,3.781 44.221,3.516 43.823,3.291 43.404,3.046 42.965,2.852 42.515,2.699 41.729,2.433 40.912,2.27 40.084,2.218 39.022,2.157 37.949,2.188 36.897,2.321 36.09,2.413 35.304,2.556 34.517,2.729 33.516,2.954 32.526,3.219 31.555,3.526 L 30.386,3.887 C 29.658,3.59 28.873,3.434 28.072,3.434 h -8.171 c -0.796,0 -1.577,0.154 -2.301,0.448 L 16.448,3.526 C 15.284,3.168 14.109,2.862 12.924,2.617 12.026,2.423 11.116,2.3 10.207,2.229 9.094,2.137 7.97,2.188 6.867,2.351 5.989,2.484 5.141,2.77 4.355,3.189 3.987,3.383 3.64,3.608 3.323,3.863 2.996,4.108 2.7,4.394 2.434,4.69 2.159,5.007 1.924,5.344 1.709,5.691 1.484,6.059 1.301,6.447 1.147,6.846 0.882,7.54 0.698,8.265 0.606,8.991 0.504,9.9 0.473,10.809 0.524,11.708 c 0.102,2.267 0.399,4.525 0.868,6.741 0.205,0.94 0.46,1.859 0.787,2.768 0.276,0.807 0.623,1.593 1.042,2.349 0.735,1.41 1.808,2.605 3.125,3.504 1.308,0.827 2.84,1.266 4.393,1.246 1.001,-0.01 1.981,-0.153 2.941,-0.419 0.444,-0.125 0.884,-0.268 1.314,-0.439 0.056,0.065 0.115,0.128 0.176,0.189 0.75,0.75 1.77,1.17 2.83,1.17 v 5 h -1 c -1.06,0 -2.08,0.42 -2.83,1.17 -0.75,0.75 -1.17,1.77 -1.17,2.83 v 4 c 0,1.06 0.42,2.08 1.17,2.83 0.75,0.75 1.77,1.17 2.83,1.17 h 9 c 1.06,0 2.08,-0.42 2.83,-1.17 0.75,-0.75 1.17,-1.77 1.17,-2.83 v -4 -7 c 0,-1.104 0.475,-2 1.06,-2 0,0 1.02,-0.42 1.77,-1.17 0.061,-0.061 0.119,-0.124 0.176,-0.188 z M 31.11,27.314"
       style="fill:url(#_lgradient_9);fill-rule:evenodd"
       inkscape:connector-curvature="0" />
  </g>
</svg>
