<?xml version="1.0" encoding="UTF-8" standalone="no"?>
<!-- Generator: Gravit.io -->

<svg
   xmlns:dc="http://purl.org/dc/elements/1.1/"
   xmlns:cc="http://creativecommons.org/ns#"
   xmlns:rdf="http://www.w3.org/1999/02/22-rdf-syntax-ns#"
   xmlns:svg="http://www.w3.org/2000/svg"
   xmlns="http://www.w3.org/2000/svg"
   xmlns:sodipodi="http://sodipodi.sourceforge.net/DTD/sodipodi-0.dtd"
   xmlns:inkscape="http://www.inkscape.org/namespaces/inkscape"
   style="isolation:isolate"
   viewBox="0 0 36 36"
   width="48"
   height="48"
   version="1.1"
   id="svg30"
   sodipodi:docname="phpstorm.svg"
   inkscape:version="0.92.4 (5da689c313, 2019-01-14)">
  <metadata
     id="metadata36">
    <rdf:RDF>
      <cc:Work
         rdf:about="">
        <dc:format>image/svg+xml</dc:format>
        <dc:type
           rdf:resource="http://purl.org/dc/dcmitype/StillImage" />
        <dc:title></dc:title>
      </cc:Work>
    </rdf:RDF>
  </metadata>
  <defs
     id="defs34" />
  <sodipodi:namedview
     pagecolor="#ffffff"
     bordercolor="#666666"
     borderopacity="1"
     objecttolerance="10"
     gridtolerance="10"
     guidetolerance="10"
     inkscape:pageopacity="0"
     inkscape:pageshadow="2"
     inkscape:window-width="640"
     inkscape:window-height="480"
     id="namedview32"
     showgrid="false"
     inkscape:zoom="29.365243"
     inkscape:cx="25.325443"
     inkscape:cy="32"
     inkscape:current-layer="svg30"
     units="px" />
  <linearGradient
     id="_lgradient_79"
     x1="0.57957584"
     y1="-0.014163159"
     x2="0.32966697"
     y2="1.0374514"
     gradientTransform="matrix(28.17,0,0,39.35,-0.07,-0.05)"
     gradientUnits="userSpaceOnUse">
    <stop
       offset="0%"
       stop-opacity="1"
       style="stop-color:rgb(255,49,140)"
       id="stop2" />
    <stop
       offset="100%"
       stop-opacity="1"
       style="stop-color:rgb(135,0,255)"
       id="stop4" />
  </linearGradient>
  <linearGradient
     id="_lgradient_80"
     x1="-3.8208334e-05"
     y1="0.50000006"
     x2="0.99996185"
     y2="0.50000006"
     gradientTransform="matrix(36.64,0,0,25.75,11.92,22.37)"
     gradientUnits="userSpaceOnUse">
    <stop
       offset="0%"
       stop-opacity="1"
       style="stop-color:rgb(211,0,220)"
       id="stop9" />
    <stop
       offset="100%"
       stop-opacity="1"
       style="stop-color:rgb(135,0,255)"
       id="stop11" />
  </linearGradient>
  <linearGradient
     id="_lgradient_81"
     x1="-3.8208334e-05"
     y1="0.50000006"
     x2="0.99996185"
     y2="0.50000006"
     gradientTransform="matrix(28.02,0,0,28.06,20.17,0.73)"
     gradientUnits="userSpaceOnUse">
    <stop
       offset="0%"
       stop-opacity="1"
       style="stop-color:rgb(211,0,220)"
       id="stop16" />
    <stop
       offset="100%"
       stop-opacity="1"
       style="stop-color:rgb(135,0,255)"
       id="stop18" />
  </linearGradient>
  <linearGradient
     id="_lgradient_82"
     x1="-3.8208334e-05"
     y1="0.50000006"
     x2="1.3488373"
     y2="0.4379845"
     gradientTransform="matrix(32.25,0,0,32.25,7.875,7.875)"
     gradientUnits="userSpaceOnUse">
    <stop
       offset="0%"
       stop-opacity="1"
       style="stop-color:rgb(211,0,220)"
       id="stop23" />
    <stop
       offset="100%"
       stop-opacity="1"
       style="stop-color:rgb(135,0,255)"
       id="stop25" />
  </linearGradient>
  <g
     id="g847"
     transform="matrix(0.74028378,0,0,0.74028378,0.05181975,0.20727935)">
    <path
       id="path7"
       d="m 9,35.3 h 1 l 1,4 H 9 2.77 L -0.07,8.6 7.28,-0.05 25.66,0.95 27.37,5.26 28.1,7.12 24.38,8.6 23.65,6.74 22.89,4.81 9.04,4.05 4.07,9.91 6.42,35.3 Z"
       style="fill:url(#_lgradient_79)"
       inkscape:connector-curvature="0" />
    <path
       id="path14"
       d="m 39.16,25.79 -0.79,-1.84 3.68,-1.58 0.79,1.84 5.72,13.97 L 30.4,48.12 11.92,43.98 V 40 38 h 4 v 2 0.78 l 13.88,3.1 13.64,-7.46 z"
       style="fill:url(#_lgradient_80)"
       inkscape:connector-curvature="0" />
    <path
       id="path21"
       d="m 26,9.2 -1.62,1.479 -4.21,-1.479 1.44,-1.38 7.36,-7.09 14.38,2.6 4.84,17.22 -4.81,6.63 -1.18,1.61 -3.23,-2.35 1.17,-1.62 3.67,-5.05 -3.64,-12.95 -9.9,-1.79 z"
       style="fill:url(#_lgradient_81)"
       inkscape:connector-curvature="0" />
    <path
       id="path28"
       d="m 37.321,15.973 v 0 c 0,0.773 0.628,1.402 1.402,1.402 v 0 c 0.774,0 1.402,-0.629 1.402,-1.402 v 0 -4.593 c 0,-1.934 -1.571,-3.505 -3.505,-3.505 H 11.38 c -1.934,0 -3.505,1.571 -3.505,3.505 v 13.321 0 c 0,0.774 0.628,1.402 1.402,1.402 v 0 c 0.774,0 1.402,-0.628 1.402,-1.402 v 0 -11.918 c 0,-1.161 0.943,-2.104 2.104,-2.104 h 22.434 c 1.161,0 2.104,0.943 2.104,2.104 z M 10.679,32.027 v 0 c 0,-0.773 -0.628,-1.402 -1.402,-1.402 v 0 c -0.774,0 -1.402,0.629 -1.402,1.402 v 0 4.593 c 0,1.934 1.571,3.505 3.505,3.505 h 25.24 c 1.934,0 3.505,-1.571 3.505,-3.505 v -13.896 0 c 0,-0.774 -0.628,-1.402 -1.402,-1.402 v 0 c -0.774,0 -1.402,0.628 -1.402,1.402 v 0 12.493 c 0,1.161 -0.943,2.104 -2.104,2.104 H 12.783 c -1.161,0 -2.104,-0.943 -2.104,-2.104 z M 13,33.257 h 11.109 v 1.852 H 13 Z M 17.731,19.2 c 1.372,0 2.126,-0.823 2.126,-1.851 V 17.28 c 0,-1.234 -0.823,-1.851 -2.194,-1.851 H 15.606 V 19.2 Z m 5.555,4.389 1.577,-1.92 c 1.097,0.891 2.263,1.508 3.703,1.508 1.097,0 1.783,-0.411 1.783,-1.166 v -0.068 c 0,-0.686 -0.412,-1.029 -2.469,-1.577 -2.469,-0.617 -4.114,-1.303 -4.114,-3.772 v -0.068 c 0,-2.263 1.783,-3.703 4.32,-3.703 1.783,0 3.36,0.548 4.594,1.577 l -1.44,2.057 c -1.097,-0.754 -2.194,-1.234 -3.223,-1.234 -1.028,0 -1.577,0.48 -1.577,1.097 v 0.069 c 0,0.822 0.549,1.097 2.674,1.645 2.469,0.686 3.909,1.577 3.909,3.703 v 0.069 c 0,2.468 -1.852,3.84 -4.526,3.84 -1.851,-0.069 -3.703,-0.755 -5.211,-2.057 z M 12.863,13.029 h 5.006 c 2.948,0 4.731,1.714 4.731,4.251 v 0.069 c 0,2.88 -2.194,4.32 -5.006,4.32 h -2.057 v 3.702 h -2.674 z"
       style="fill:url(#_lgradient_82);fill-rule:evenodd"
       inkscape:connector-curvature="0" />
  </g>
</svg>
