<?xml version="1.0" encoding="UTF-8" standalone="no"?>
<!-- Generator: Gravit.io -->

<svg
   xmlns:dc="http://purl.org/dc/elements/1.1/"
   xmlns:cc="http://creativecommons.org/ns#"
   xmlns:rdf="http://www.w3.org/1999/02/22-rdf-syntax-ns#"
   xmlns:svg="http://www.w3.org/2000/svg"
   xmlns="http://www.w3.org/2000/svg"
   xmlns:sodipodi="http://sodipodi.sourceforge.net/DTD/sodipodi-0.dtd"
   xmlns:inkscape="http://www.inkscape.org/namespaces/inkscape"
   style="isolation:isolate"
   viewBox="0 0 36 36"
   width="48"
   height="48"
   version="1.1"
   id="svg11"
   sodipodi:docname="pop-shop.svg"
   inkscape:version="0.92.4 (5da689c313, 2019-01-14)">
  <metadata
     id="metadata17">
    <rdf:RDF>
      <cc:Work
         rdf:about="">
        <dc:format>image/svg+xml</dc:format>
        <dc:type
           rdf:resource="http://purl.org/dc/dcmitype/StillImage" />
        <dc:title></dc:title>
      </cc:Work>
    </rdf:RDF>
  </metadata>
  <defs
     id="defs15" />
  <sodipodi:namedview
     pagecolor="#ffffff"
     bordercolor="#666666"
     borderopacity="1"
     objecttolerance="10"
     gridtolerance="10"
     guidetolerance="10"
     inkscape:pageopacity="0"
     inkscape:pageshadow="2"
     inkscape:window-width="640"
     inkscape:window-height="480"
     id="namedview13"
     showgrid="false"
     inkscape:zoom="29.365243"
     inkscape:cx="25.325443"
     inkscape:cy="32"
     inkscape:current-layer="svg11"
     units="px" />
  <linearGradient
     id="_lgradient_0"
     x1="0"
     y1="0.5"
     x2="1"
     y2="0.5"
     gradientTransform="matrix(46,0,0,42,1,4)"
     gradientUnits="userSpaceOnUse">
    <stop
       offset="0%"
       stop-opacity="1"
       style="stop-color:rgb(84,51,255)"
       id="stop2" />
    <stop
       offset="51.73913043478261%"
       stop-opacity="1"
       style="stop-color:rgb(32,189,255)"
       id="stop4" />
    <stop
       offset="98.26086956521739%"
       stop-opacity="1"
       style="stop-color:rgb(165,254,203)"
       id="stop6" />
  </linearGradient>
  <g
     id="g825"
     transform="matrix(0.7826087,0,0,0.7826087,-0.7826088,-1.5652175)">
    <path
       id="path9"
       d="m 24.5,34.88 v 0 -9.38 0 C 24.5,24.672 23.828,24 23,24 v 0 c -0.828,0 -1.5,0.672 -1.5,1.5 v 0 9.38 l -1.44,-1.44 v 0 c -0.585,-0.585 -1.535,-0.585 -2.12,0 v 0 c -0.585,0.585 -0.585,1.535 0,2.12 v 0 l 3.29,3.29 c 0,0 0,0 0,0 0.47,0.47 1.11,0.74 1.77,0.74 0.66,0 1.3,-0.27 1.77,-0.74 0,0 0,0 0,0 l 3.29,-3.29 v 0 c 0.585,-0.585 0.585,-1.535 0,-2.12 v 0 c -0.585,-0.585 -1.535,-0.585 -2.12,0 v 0 z M 14.5,16 H 6 c -2.76,0 -5,2.24 -5,5 v 20 c 0,2.76 2.24,5 5,5 h 36 c 2.76,0 5,-2.24 5,-5 v -3.5 0 c 0,-1.104 -0.896,-2 -2,-2 v 0 c -1.104,0 -2,0.896 -2,2 v 0 0 1.5 c 0,1.656 -1.344,3 -3,3 H 8 C 6.344,42 5,40.656 5,39 V 20 h 9.5 v 2 0 c 0,1.104 1.064,2 2.375,2 v 0 c 1.311,0 2.375,-0.896 2.375,-2 v 0 -9.97 c 0.012,-0.42 0.119,-0.83 0.309,-1.22 0.142,-0.39 0.38,-0.77 0.677,-1.09 0.32,-0.32 0.665,-0.61 1.045,-0.87 0.273,-0.2 0.582,-0.36 0.902,-0.49 C 22.456,8.24 22.753,8.15 23.05,8.09 23.359,8.03 23.679,8 24,8 c 0.321,0 0.641,0.03 0.95,0.09 0.297,0.06 0.594,0.15 0.867,0.27 0.32,0.13 0.629,0.29 0.902,0.49 0.38,0.26 0.725,0.55 1.045,0.87 0.297,0.32 0.535,0.7 0.677,1.09 0.19,0.39 0.297,0.8 0.309,1.22 V 16 H 25 v 0 c -1.104,0 -2,0.896 -2,2 v 0 c 0,1.104 0.896,2 2,2 v 0 0 h 3.75 v 2 0 c 0,1.104 1.064,2 2.375,2 v 0 c 1.311,0 2.375,-0.896 2.375,-2 v 0 -2 H 43 v 10 0 c 0,1.104 0.896,2 2,2 v 0 c 1.104,0 2,-0.896 2,-2 v 0 -9 c 0,-2.76 -2.24,-5 -5,-5 h -8.5 v -4 c 0,-0.02 0,-0.03 0,-0.05 C 33.476,11.1 33.274,10.25 32.918,9.46 32.586,8.64 32.099,7.88 31.458,7.2 30.947,6.68 30.365,6.19 29.736,5.76 29.189,5.37 28.572,5.04 27.931,4.77 27.325,4.52 26.684,4.32 26.019,4.2 25.366,4.07 24.677,4 24,4 c -0.677,0 -1.366,0.07 -2.019,0.2 -0.665,0.12 -1.306,0.32 -1.912,0.57 -0.641,0.27 -1.258,0.6 -1.805,0.99 -0.629,0.43 -1.211,0.92 -1.722,1.44 -0.641,0.68 -1.128,1.44 -1.46,2.26 -0.356,0.79 -0.558,1.64 -0.582,2.49 0,0.02 0,0.03 0,0.05 z"
       style="fill:url(#_lgradient_0);fill-rule:evenodd"
       inkscape:connector-curvature="0" />
  </g>
</svg>
