<?xml version="1.0" encoding="UTF-8" standalone="no"?>
<!-- Generator: Gravit.io -->

<svg
   xmlns:dc="http://purl.org/dc/elements/1.1/"
   xmlns:cc="http://creativecommons.org/ns#"
   xmlns:rdf="http://www.w3.org/1999/02/22-rdf-syntax-ns#"
   xmlns:svg="http://www.w3.org/2000/svg"
   xmlns="http://www.w3.org/2000/svg"
   xmlns:sodipodi="http://sodipodi.sourceforge.net/DTD/sodipodi-0.dtd"
   xmlns:inkscape="http://www.inkscape.org/namespaces/inkscape"
   style="isolation:isolate"
   viewBox="0 0 36 36"
   width="48"
   height="48"
   version="1.1"
   id="svg9"
   sodipodi:docname="postman.svg"
   inkscape:version="0.92.4 (5da689c313, 2019-01-14)">
  <metadata
     id="metadata15">
    <rdf:RDF>
      <cc:Work
         rdf:about="">
        <dc:format>image/svg+xml</dc:format>
        <dc:type
           rdf:resource="http://purl.org/dc/dcmitype/StillImage" />
        <dc:title></dc:title>
      </cc:Work>
    </rdf:RDF>
  </metadata>
  <defs
     id="defs13" />
  <sodipodi:namedview
     pagecolor="#ffffff"
     bordercolor="#666666"
     borderopacity="1"
     objecttolerance="10"
     gridtolerance="10"
     guidetolerance="10"
     inkscape:pageopacity="0"
     inkscape:pageshadow="2"
     inkscape:window-width="640"
     inkscape:window-height="480"
     id="namedview11"
     showgrid="false"
     inkscape:zoom="29.365243"
     inkscape:cx="25.325443"
     inkscape:cy="32"
     inkscape:current-layer="svg9"
     units="px" />
  <linearGradient
     id="_lgradient_4"
     x1="0"
     y1="0.5"
     x2="1"
     y2="0.5"
     gradientTransform="scale(48)"
     gradientUnits="userSpaceOnUse">
    <stop
       offset="0%"
       stop-opacity="1"
       style="stop-color:rgb(255,224,49)"
       id="stop2" />
    <stop
       offset="98.69565217391305%"
       stop-opacity="1"
       style="stop-color:rgb(252,82,82)"
       id="stop4" />
  </linearGradient>
  <g
     id="g826"
     transform="scale(0.75)">
    <path
       id="path7"
       d="m 34.709,12.301 c -0.634,0.02 -1.226,0.265 -1.676,0.715 L 20.401,25.648 17.702,22.95 C 30.13,10.543 32.399,10.42 34.709,12.301 Z M 20.912,26.097 33.503,13.588 c 0.695,-0.674 1.799,-0.674 2.494,0 0.347,0.348 0.531,0.818 0.511,1.288 -0.021,0.491 -0.225,0.94 -0.593,1.267 L 22.608,27.876 Z m 0.94,1.901 -3.128,0.797 c -0.061,0.041 -0.122,0.041 -0.184,0 -0.04,-0.061 -0.04,-0.143 0,-0.204 l 1.901,-1.901 z m -7.972,-1.308 3.332,-3.332 2.514,2.576 -5.703,1.226 c -0.123,0.021 -0.245,-0.061 -0.266,-0.184 -0.02,-0.082 0,-0.143 0.062,-0.204 z M 3.557,44.002 c -0.081,-0.02 -0.163,-0.081 -0.184,-0.143 -0.02,-0.082 -0.02,-0.163 0,-0.225 l 2.678,-2.698 3.475,3.455 z m 6.868,-3.577 v 0 c -0.265,0.143 -0.408,0.43 -0.347,0.716 l 0.572,2.453 c 0.041,0.163 -0.041,0.327 -0.163,0.408 -0.123,0.103 -0.307,0.103 -0.409,0 l -3.475,-3.577 10.67,-10.689 5.172,-1.104 2.473,2.473 c -4.415,3.679 -9.28,6.806 -14.472,9.28 v 0.04 z m 20.03,-14.704 c -1.56,1.636 -3.286,3.313 -5.026,4.975 L 23.058,28.325 36.365,16.613 c 0.122,-0.102 0.245,-0.224 0.347,-0.368 -0.293,2.599 -2.888,5.942 -6.257,9.476 z M 35.813,12.362 C 33.83,10.298 33.912,7.027 35.976,5.045 37.857,3.246 40.76,3.123 42.783,4.758 l -4.579,4.559 c -0.122,0.143 -0.122,0.347 0,0.49 l 3.557,3.536 c -2.003,0.981 -4.415,0.572 -5.969,-1.022 z m 7.297,0 c -0.245,0.225 -0.49,0.45 -0.777,0.634 L 38.92,9.582 43.274,5.229 c 1.88,2.023 1.819,5.171 -0.164,7.133 z M 5.365,35.69 v 0 C 4.43,36.275 2.955,35.612 2.074,34.21 1.27,32.93 0,28.51 0,24 0,17.64 2.53,11.53 7.03,7.03 11.53,2.53 17.64,0 24,0 c 3.06,0 6.09,0.58 6.137,0.599 1.536,0.619 2.451,1.952 2.043,2.976 v 0 C 31.772,4.599 30.378,5.004 29.07,4.48 29.07,4.48 26.55,4 24,4 18.7,4 13.61,6.11 9.86,9.86 6.11,13.61 4,18.7 4,24 c 0,3.76 1.06,7.44 1.466,8.088 0.88,1.403 0.834,3.017 -0.101,3.602 z m 39.47,-18.755 v 0 c 1.046,-0.356 2.271,0.471 2.735,1.845 0,0 0.43,2.6 0.43,5.22 0,6.36 -2.53,12.47 -7.03,16.97 C 36.47,45.47 30.36,48 24,48 20.55,48 17.14,47.26 15.827,46.656 14.824,46.195 14.382,45.007 14.84,44.005 v 0 C 15.298,43.003 16.485,42.562 17.49,43.02 18.28,43.38 21.13,44 24,44 29.3,44 34.39,41.89 38.14,38.14 41.89,34.39 44,29.3 44,24 c 0,-2.18 -0.35,-4.35 -0.35,-4.35 -0.392,-1.142 0.139,-2.359 1.185,-2.715 z"
       inkscape:connector-curvature="0"
       style="fill:url(#_lgradient_4);fill-rule:evenodd" />
  </g>
</svg>
