<?xml version="1.0" encoding="UTF-8" standalone="no"?>
<!-- Generator: Gravit.io -->

<svg
   xmlns:dc="http://purl.org/dc/elements/1.1/"
   xmlns:cc="http://creativecommons.org/ns#"
   xmlns:rdf="http://www.w3.org/1999/02/22-rdf-syntax-ns#"
   xmlns:svg="http://www.w3.org/2000/svg"
   xmlns="http://www.w3.org/2000/svg"
   xmlns:sodipodi="http://sodipodi.sourceforge.net/DTD/sodipodi-0.dtd"
   xmlns:inkscape="http://www.inkscape.org/namespaces/inkscape"
   style="isolation:isolate"
   viewBox="0 0 36 36"
   width="48"
   height="48"
   version="1.1"
   id="svg9"
   sodipodi:docname="preferences-system-privacy.svg"
   inkscape:version="0.92.4 (5da689c313, 2019-01-14)">
  <metadata
     id="metadata15">
    <rdf:RDF>
      <cc:Work
         rdf:about="">
        <dc:format>image/svg+xml</dc:format>
        <dc:type
           rdf:resource="http://purl.org/dc/dcmitype/StillImage" />
        <dc:title></dc:title>
      </cc:Work>
    </rdf:RDF>
  </metadata>
  <defs
     id="defs13" />
  <sodipodi:namedview
     pagecolor="#ffffff"
     bordercolor="#666666"
     borderopacity="1"
     objecttolerance="10"
     gridtolerance="10"
     guidetolerance="10"
     inkscape:pageopacity="0"
     inkscape:pageshadow="2"
     inkscape:window-width="640"
     inkscape:window-height="480"
     id="namedview11"
     showgrid="false"
     units="px"
     inkscape:zoom="63.534389"
     inkscape:cx="26.876132"
     inkscape:cy="33.704131"
     inkscape:current-layer="svg9" />
  <linearGradient
     id="_lgradient_0"
     x1="0.061897106"
     y1="0.14716151"
     x2="0.99042481"
     y2="0.98658085"
     gradientTransform="matrix(-37.186099,0,0,48.000023,42.593049,-7.1633631e-7)"
     gradientUnits="userSpaceOnUse">
    <stop
       offset="0%"
       stop-opacity="1"
       style="stop-color:rgb(22,181,228)"
       id="stop2" />
    <stop
       offset="98.26086956521739%"
       stop-opacity="1"
       style="stop-color:rgb(245,32,250)"
       id="stop4" />
  </linearGradient>
  <g
     id="g816"
     transform="scale(0.74999998)">
    <path
       style="fill:url(#_lgradient_0);fill-rule:evenodd;stroke-width:1.03294718"
       inkscape:connector-curvature="0"
       id="path7"
       d="m 10.468391,25.482806 v 0 C 10.108926,24.399244 8.9385959,23.811497 7.8550343,24.170963 v 0 c -1.0835616,0.359466 -1.6713085,1.529795 -1.3118429,2.613356 v 0 l 0.6404273,1.931612 c 0,0 0,0.01033 0,0.01033 0.7127335,2.107212 1.6320565,4.131789 2.7476398,6.042741 1.1155835,1.95227 2.4067675,3.811575 3.8425635,5.536597 1.36349,1.652716 2.881923,3.181477 4.544967,4.534638 0.764382,0.630098 1.570081,1.208548 2.417097,1.735352 0.78504,0.495814 1.621727,0.919323 2.489403,1.270525 0.475156,0.19626 1.012288,0.206589 1.497772,0.02066 l 1.053607,-0.39252 c 0.01033,0 0.01033,0 0.02066,0 2.396439,-0.929653 4.627604,-2.251825 6.600533,-3.904541 2.024576,-1.683704 3.801246,-3.635974 5.28869,-5.794833 1.508102,-2.15886 2.706322,-4.51398 3.573997,-6.993053 0.857346,-2.427426 1.311844,-4.978805 1.332502,-7.550844 0,-0.01033 0,-0.01033 0,-0.02066 V 10.75298 c 0,-2.2807479 -1.44406,-4.0904714 -3.222796,-4.038824 v 0 C 37.004804,6.693497 34.670344,6.2183413 32.480496,5.3196773 31.251289,4.8135331 30.063399,4.2144238 28.927157,3.5223492 27.243454,2.4997314 25.663044,1.3118422 24.196259,-6.9633631e-7 22.305966,1.2085475 20.343366,2.313801 18.339449,3.3157597 16.986288,3.9975049 15.612468,4.6069437 14.197331,5.1440762 12.999112,5.598573 11.780234,5.970434 10.530368,6.2493297 9.4974205,6.4972371 8.4438142,6.6418497 7.3798786,6.6831675 6.8530756,6.714156 6.3469314,6.9414043 5.9750705,7.3235948 5.6135389,7.7057853 5.4069495,8.2222589 5.4069495,8.7490619 v 7.2306301 0 c 0,1.140374 0.9255207,2.065894 2.0658944,2.065894 v 0 c 1.1403737,0 2.0658946,-0.92552 2.0658946,-2.065894 v 0 -5.340337 c 0.6507565,-0.09296 1.2911845,-0.216919 1.9212825,-0.361531 1.435796,-0.3305433 2.830275,-0.7540517 4.204095,-1.2705253 1.53909,-0.5887799 3.057523,-1.2498661 4.524308,-1.9935881 1.239537,-0.6197683 2.448085,-1.270525 3.646304,-1.9625996 0.950311,0.7127336 1.921282,1.3738198 2.93357,1.9935881 1.322172,0.8160282 2.706321,1.5184323 4.152447,2.0968828 2.396438,0.9916291 4.947818,1.5597501 7.540515,1.6837041 v 12.374707 c -0.02066,2.117541 -0.39252,4.214424 -1.094924,6.208012 -0.743722,2.138201 -1.776669,4.162777 -3.067853,6.011753 -1.280855,1.859305 -2.809617,3.532679 -4.555297,4.978805 -1.611398,1.363491 -3.450044,2.448085 -5.422973,3.212466 l -0.258237,0.09296 c -0.39252,-0.18593 -0.77471,-0.402849 -1.136242,-0.630097 -0.692074,-0.433838 -1.36349,-0.908994 -1.993588,-1.425468 -1.446126,-1.187889 -2.778628,-2.520391 -3.966517,-3.976846 -1.291184,-1.549421 -2.448085,-3.212466 -3.460373,-4.968476 -0.9813,-1.673375 -1.786999,-3.450044 -2.396438,-5.28869 L 10.468391,25.482801 Z M 16.17026,24.61513 v 0 C 15.902726,23.8053 15.02782,23.366297 14.217989,23.633831 v 0 c -0.80983,0.267533 -1.248833,1.142439 -0.981299,1.95227 v 0 c 0.97097,2.964558 2.396437,4.730898 4.204095,7.261618 1.879964,2.603027 2.045235,2.861264 4.565625,4.834193 v 0 c 0.67245,0.529902 1.649617,0.414212 2.179519,-0.258237 v 0 c 0.529902,-0.672448 0.414212,-1.649616 -0.258237,-2.179518 v 0 C 21.63455,33.446829 21.665539,33.405511 19.961176,31.040062 18.329119,28.757249 17.058594,27.280134 16.17026,24.61513 Z m 16.60979,-0.547462 v 0 c 0,0.855281 0.694141,1.549421 1.549421,1.549421 v 0 c 0.85528,0 1.549421,-0.69414 1.549421,-1.549421 v 0 -10.329471 c 0,-0.371861 -0.134283,-0.723064 -0.371861,-1.001959 -0.237579,-0.278896 -0.568122,-0.464826 -0.929652,-0.526803 -1.745681,-0.278896 -3.460374,-0.743722 -5.10276,-1.394479 -1.621727,-0.640427 -3.160818,-1.4667847 -4.575956,-2.4687435 v 0 C 24.197292,7.8503979 23.227355,8.0146365 22.734639,8.7129088 v 0 c -0.492717,0.6982723 -0.328477,1.6630452 0.366696,2.1536942 v 0 c 1.632057,1.156901 3.388067,2.107213 5.237043,2.830276 1.435796,0.568121 2.92324,1.012288 4.441672,1.332502 z m -6.886658,1.319074 c 1.13211,-0.655922 1.894425,-1.879964 1.894425,-3.28064 0,-2.090685 -1.697133,-3.787818 -3.787818,-3.787818 -2.090685,0 -3.787817,1.697133 -3.787817,3.787818 0,1.400676 0.762315,2.624718 1.894425,3.28064 v 3.0317 c 0,0.697239 0.565022,1.262261 1.262262,1.262261 h 1.262261 c 0.697239,0 1.262262,-0.565022 1.262262,-1.262261 z" />
  </g>
</svg>
