<?xml version="1.0" encoding="UTF-8" standalone="no"?>
<!-- Generator: Gravit.io -->

<svg
   xmlns:dc="http://purl.org/dc/elements/1.1/"
   xmlns:cc="http://creativecommons.org/ns#"
   xmlns:rdf="http://www.w3.org/1999/02/22-rdf-syntax-ns#"
   xmlns:svg="http://www.w3.org/2000/svg"
   xmlns="http://www.w3.org/2000/svg"
   xmlns:sodipodi="http://sodipodi.sourceforge.net/DTD/sodipodi-0.dtd"
   xmlns:inkscape="http://www.inkscape.org/namespaces/inkscape"
   style="isolation:isolate"
   viewBox="0 0 36 36"
   width="48"
   height="48"
   version="1.1"
   id="svg11"
   sodipodi:docname="preferences-desktop-remote-desktop.svg"
   inkscape:version="0.92.4 (5da689c313, 2019-01-14)">
  <metadata
     id="metadata17">
    <rdf:RDF>
      <cc:Work
         rdf:about="">
        <dc:format>image/svg+xml</dc:format>
        <dc:type
           rdf:resource="http://purl.org/dc/dcmitype/StillImage" />
        <dc:title></dc:title>
      </cc:Work>
    </rdf:RDF>
  </metadata>
  <defs
     id="defs15" />
  <sodipodi:namedview
     pagecolor="#ffffff"
     bordercolor="#666666"
     borderopacity="1"
     objecttolerance="10"
     gridtolerance="10"
     guidetolerance="10"
     inkscape:pageopacity="0"
     inkscape:pageshadow="2"
     inkscape:window-width="640"
     inkscape:window-height="480"
     id="namedview13"
     showgrid="false"
     inkscape:zoom="29.365243"
     inkscape:cx="25.325443"
     inkscape:cy="32"
     inkscape:current-layer="svg11"
     units="px" />
  <linearGradient
     id="_lgradient_16"
     x1="-0.014458464"
     y1="0.009839246"
     x2="1.0164566"
     y2="1.072293"
     gradientTransform="matrix(47,0,0,41.864,0.5,4.568)"
     gradientUnits="userSpaceOnUse">
    <stop
       offset="1.3043478260869565%"
       stop-opacity="1"
       style="stop-color:rgb(254,172,94)"
       id="stop2" />
    <stop
       offset="53.04347826086957%"
       stop-opacity="1"
       style="stop-color:rgb(199,121,208)"
       id="stop4" />
    <stop
       offset="99.56521739130434%"
       stop-opacity="1"
       style="stop-color:rgb(75,192,200)"
       id="stop6" />
  </linearGradient>
  <g
     id="g825"
     transform="matrix(0.76595745,0,0,0.76595745,-0.3829788,-1.531915)">
    <path
       id="path9"
       d="m 20.795,36.614 v 5.545 h 6.41 v -5.545 z m 1.045,-8.793 c -1.072,-1.201 -0.968,-3.046 0.233,-4.118 1.201,-1.072 3.046,-0.967 4.118,0.233 1.072,1.201 0.967,3.046 -0.233,4.118 -1.201,1.072 -3.046,0.968 -4.118,-0.233 z m -2.667,-6.895 v 0 c -0.442,0.411 -1.135,0.386 -1.546,-0.057 v 0 c -0.411,-0.442 -0.386,-1.135 0.057,-1.546 v 0 l 0.245,-0.229 c 0.005,-0.004 0.011,-0.009 0.016,-0.014 1.621,-1.447 3.702,-2.269 5.874,-2.311 2.171,-0.053 4.289,0.676 5.967,2.052 v 0 c 0.465,0.383 0.534,1.073 0.152,1.54 v 0 c -0.381,0.467 -1.069,0.536 -1.534,0.153 v 0 c -1.279,-1.038 -2.884,-1.599 -4.533,-1.563 -1.65,0.035 -3.229,0.653 -4.458,1.751 z m -2.65,15.688 v 5.545 h -6.409 c -1.179,0 -2.137,0.957 -2.137,2.136 v 0 c 0,1.18 0.958,2.137 2.137,2.137 h 27.772 c 1.179,0 2.137,-0.957 2.137,-2.137 v 0 c 0,-1.179 -0.958,-2.136 -2.137,-2.136 h -6.409 v -5.545 h 10.682 c 2.948,0 5.341,-2.394 5.341,-5.341 v -8.546 0 c 0,-1.179 -0.957,-2.136 -2.136,-2.136 v 0 c -1.179,0 -2.137,0.957 -2.137,2.136 v 0 8.546 c 0,0.589 -0.478,1.068 -1.068,1.068 H 5.841 c -0.59,0 -1.068,-0.479 -1.068,-1.068 V 9.909 c 0,-0.589 0.478,-1.068 1.068,-1.068 h 36.318 c 0.59,0 1.068,0.479 1.068,1.068 v 3.205 0 c 0,1.179 0.958,2.136 2.137,2.136 v 0 c 1.179,0 2.136,-0.957 2.136,-2.136 v 0 -3.205 C 47.5,6.961 45.107,4.568 42.159,4.568 H 5.841 C 2.893,4.568 0.5,6.961 0.5,9.909 v 21.364 c 0,2.947 2.393,5.341 5.341,5.341 z M 16.282,17.633 v 0 c -0.445,0.408 -1.136,0.377 -1.543,-0.07 v 0 c -0.406,-0.446 -0.375,-1.139 0.07,-1.547 v 0 l 0.212,-0.19 c 0.005,-0.005 0.005,-0.005 0.011,-0.01 2.507,-2.238 5.757,-3.459 9.117,-3.428 3.36,0.03 6.587,1.323 9.05,3.611 v 0 c 0.441,0.409 0.466,1.102 0.054,1.544 v 0 c -0.411,0.443 -1.103,0.47 -1.545,0.06 v 0 c -2.059,-1.924 -4.761,-3.002 -7.579,-3.027 -2.813,-0.03 -5.536,0.993 -7.635,2.867 z"
       style="fill:url(#_lgradient_16);fill-rule:evenodd"
       inkscape:connector-curvature="0" />
  </g>
</svg>
