<?xml version="1.0" encoding="UTF-8" standalone="no"?>
<!-- Generator: Gravit.io -->

<svg
   xmlns:dc="http://purl.org/dc/elements/1.1/"
   xmlns:cc="http://creativecommons.org/ns#"
   xmlns:rdf="http://www.w3.org/1999/02/22-rdf-syntax-ns#"
   xmlns:svg="http://www.w3.org/2000/svg"
   xmlns="http://www.w3.org/2000/svg"
   xmlns:sodipodi="http://sodipodi.sourceforge.net/DTD/sodipodi-0.dtd"
   xmlns:inkscape="http://www.inkscape.org/namespaces/inkscape"
   style="isolation:isolate"
   viewBox="0 0 36 36"
   width="48"
   height="48"
   version="1.1"
   id="svg9"
   sodipodi:docname="preferences-system-windows-move.svg"
   inkscape:version="0.92.4 (5da689c313, 2019-01-14)">
  <metadata
     id="metadata15">
    <rdf:RDF>
      <cc:Work
         rdf:about="">
        <dc:format>image/svg+xml</dc:format>
        <dc:type
           rdf:resource="http://purl.org/dc/dcmitype/StillImage" />
        <dc:title></dc:title>
      </cc:Work>
    </rdf:RDF>
  </metadata>
  <defs
     id="defs13" />
  <sodipodi:namedview
     pagecolor="#ffffff"
     bordercolor="#666666"
     borderopacity="1"
     objecttolerance="10"
     gridtolerance="10"
     guidetolerance="10"
     inkscape:pageopacity="0"
     inkscape:pageshadow="2"
     inkscape:window-width="640"
     inkscape:window-height="480"
     id="namedview11"
     showgrid="false"
     inkscape:zoom="29.365243"
     inkscape:cx="25.325443"
     inkscape:cy="32"
     inkscape:current-layer="svg9"
     units="px" />
  <linearGradient
     id="_lgradient_2"
     x1="0.22078557"
     y1="0.047239967"
     x2="0.9022491"
     y2="0.90614605"
     gradientTransform="matrix(47,0,0,45.22,0.5,2)"
     gradientUnits="userSpaceOnUse">
    <stop
       offset="2.608695652173913%"
       stop-opacity="1"
       style="stop-color:rgb(237,184,212)"
       id="stop2" />
    <stop
       offset="98.69565217391305%"
       stop-opacity="1"
       style="stop-color:rgb(162,110,245)"
       id="stop4" />
  </linearGradient>
  <g
     id="g826"
     transform="matrix(0.76595745,0,0,0.76595745,-0.3829788,-0.85021284)">
    <path
       id="path7"
       d="m 4.5,15.78 h 15 c 0.552,0 1,0.448 1,1 v 6.72 c 0,0.552 -0.448,1 -1,1 h -15 c -0.552,0 -1,-0.448 -1,-1 v -6.72 c 0,-0.552 0.448,-1 1,-1 z m 24,0 h 15 c 0.552,0 1,0.448 1,1 v 6.72 c 0,0.552 -0.448,1 -1,1 h -15 c -0.552,0 -1,-0.448 -1,-1 v -6.72 c 0,-0.552 0.448,-1 1,-1 z m -12,19.72 h 15 c 0.552,0 1,0.448 1,1 v 6.72 c 0,0.552 -0.448,1 -1,1 h -15 c -0.552,0 -1,-0.448 -1,-1 V 36.5 c 0,-0.552 0.448,-1 1,-1 z M 6,9 v 0 c 0,1.104 -0.896,2 -2,2 v 0 C 2.896,11 2,10.104 2,9 V 9 4 C 2,2.896 2.896,2 4,2 h 40 c 1.104,0 2,0.896 2,2 v 5 0 c 0,1.104 -0.896,2 -2,2 v 0 C 42.896,11 42,10.104 42,9 V 9 7 C 42,6.448 41.552,6 41,6 H 7 C 6.448,6 6,6.448 6,7 Z m 3,33 v 0 c 1.104,0 2,0.896 2,2 v 0 c 0,1.104 -0.896,2 -2,2 v 0 H 4 C 2.896,46 2,45.104 2,44 v -12 0 c 0,-1.104 0.896,-2 2,-2 v 0 c 1.104,0 2,0.896 2,2 v 0 9 c 0,0.552 0.448,1 1,1 z M 2.5,12.78 h 19 c 1.104,0 2,0.896 2,2 V 25.5 c 0,1.104 -0.896,2 -2,2 h -19 c -1.104,0 -2,-0.896 -2,-2 V 14.78 c 0,-1.104 0.896,-2 2,-2 z m 24,0 h 19 c 1.104,0 2,0.896 2,2 V 25.5 c 0,1.104 -0.896,2 -2,2 h -19 c -1.104,0 -2,-0.896 -2,-2 V 14.78 c 0,-1.104 0.896,-2 2,-2 z m -12,19.72 h 19 c 1.104,0 2,0.896 2,2 v 10.72 c 0,1.104 -0.896,2 -2,2 h -19 c -1.104,0 -2,-0.896 -2,-2 V 34.5 c 0,-1.104 0.896,-2 2,-2 z M 42,32 v 0 c 0,-1.104 0.896,-2 2,-2 v 0 c 1.104,0 2,0.896 2,2 v 0 12 c 0,1.104 -0.896,2 -2,2 h -5 v 0 c -1.104,0 -2,-0.896 -2,-2 v 0 c 0,-1.104 0.896,-2 2,-2 v 0 h 2 c 0.552,0 1,-0.448 1,-1 z"
       style="fill:url(#_lgradient_2);fill-rule:evenodd"
       inkscape:connector-curvature="0" />
  </g>
</svg>
