<?xml version="1.0" encoding="UTF-8" standalone="no"?>
<!-- Generator: Gravit.io -->

<svg
   xmlns:dc="http://purl.org/dc/elements/1.1/"
   xmlns:cc="http://creativecommons.org/ns#"
   xmlns:rdf="http://www.w3.org/1999/02/22-rdf-syntax-ns#"
   xmlns:svg="http://www.w3.org/2000/svg"
   xmlns="http://www.w3.org/2000/svg"
   xmlns:sodipodi="http://sodipodi.sourceforge.net/DTD/sodipodi-0.dtd"
   xmlns:inkscape="http://www.inkscape.org/namespaces/inkscape"
   style="isolation:isolate"
   viewBox="0 0 36 36"
   width="48"
   height="48"
   version="1.1"
   id="svg11"
   sodipodi:docname="preferences-system-time.svg"
   inkscape:version="0.92.4 (5da689c313, 2019-01-14)">
  <metadata
     id="metadata17">
    <rdf:RDF>
      <cc:Work
         rdf:about="">
        <dc:format>image/svg+xml</dc:format>
        <dc:type
           rdf:resource="http://purl.org/dc/dcmitype/StillImage" />
        <dc:title></dc:title>
      </cc:Work>
    </rdf:RDF>
  </metadata>
  <defs
     id="defs15" />
  <sodipodi:namedview
     pagecolor="#ffffff"
     bordercolor="#666666"
     borderopacity="1"
     objecttolerance="10"
     gridtolerance="10"
     guidetolerance="10"
     inkscape:pageopacity="0"
     inkscape:pageshadow="2"
     inkscape:window-width="640"
     inkscape:window-height="480"
     id="namedview13"
     showgrid="false"
     inkscape:zoom="2.7529914"
     inkscape:cx="270.13805"
     inkscape:cy="341.33333"
     inkscape:current-layer="svg11" />
  <linearGradient
     id="_lgradient_1"
     x1="0"
     y1="0.5"
     x2="1"
     y2="0.5"
     gradientTransform="scale(512)"
     gradientUnits="userSpaceOnUse">
    <stop
       offset="2.1739130434782608%"
       stop-opacity="1"
       style="stop-color:rgb(89,193,115)"
       id="stop2" />
    <stop
       offset="47.391304347826086%"
       stop-opacity="1"
       style="stop-color:rgb(161,127,224)"
       id="stop4" />
    <stop
       offset="98.69565217391305%"
       stop-opacity="1"
       style="stop-color:rgb(93,38,193)"
       id="stop6" />
  </linearGradient>
  <g
     id="g825"
     transform="scale(0.0703125)">
    <path
       id="path9"
       d="m 260.417,222.131 56.44,-56.44 c 7.581,-7.582 19.871,-7.582 27.453,0 7.582,7.581 7.582,19.871 0,27.453 v 0 l -56.441,56.441 c 0.082,0.907 0.124,1.826 0.124,2.754 0,16.725 -13.607,30.332 -30.332,30.332 -3.908,0 -7.645,-0.743 -11.079,-2.095 l -92.728,92.729 c -2.368,2.369 -5.474,3.554 -8.579,3.554 -3.105,0 -6.209,-1.186 -8.579,-3.554 -4.738,-4.739 -4.738,-12.421 0,-17.159 l 92.728,-92.728 c -1.352,-3.433 -2.095,-7.171 -2.095,-11.079 0,-0.928 0.042,-1.847 0.124,-2.754 l -82.179,-82.179 c -7.582,-7.581 -7.582,-19.871 0,-27.453 7.581,-7.582 19.871,-7.582 27.453,0 l 82.178,82.178 c 0.908,-0.082 1.827,-0.124 2.756,-0.124 0.929,0 1.848,0.042 2.756,0.124 z M 116.922,264.472 H 98.723 c -6.701,0 -12.133,-5.433 -12.133,-12.133 0,-6.7 5.432,-12.133 12.133,-12.133 h 18.199 c 6.701,0 12.133,5.433 12.133,12.133 0,6.7 -5.432,12.133 -12.133,12.133 z m 140.739,-140.74 c -6.701,0 -12.133,-5.433 -12.133,-12.133 V 93.401 c 0,-6.7 5.432,-12.133 12.133,-12.133 6.701,0 12.133,5.433 12.133,12.133 V 111.6 c 0,6.699 -5.432,12.132 -12.133,12.132 z m 158.938,140.74 H 398.4 c -6.701,0 -12.133,-5.433 -12.133,-12.133 0,-6.7 5.432,-12.133 12.133,-12.133 h 18.199 c 6.701,0 12.133,5.433 12.133,12.133 0,6.7 -5.432,12.133 -12.133,12.133 z M 257.661,423.41 c -6.701,0 -12.133,-5.433 -12.133,-12.133 v -18.199 c 0,-6.7 5.432,-12.133 12.133,-12.133 6.701,0 12.133,5.433 12.133,12.133 v 18.199 c 0,6.7 -5.432,12.133 -12.133,12.133 z M 256,48.531 c 114.582,0 207.469,92.887 207.469,207.469 0,114.582 -92.887,207.469 -207.469,207.469 C 141.418,463.469 48.531,370.582 48.531,256 48.531,141.418 141.418,48.531 256,48.531 Z M 256,0 C 114.615,0 0,114.615 0,256 0,397.385 114.615,512 256,512 397.385,512 512,397.385 512,256 512,114.615 397.385,0 256,0 Z"
       style="fill:url(#_lgradient_1);fill-rule:evenodd"
       inkscape:connector-curvature="0" />
  </g>
</svg>
