<?xml version="1.0" encoding="UTF-8" standalone="no"?>
<!-- Generator: Gravit.io -->

<svg
   xmlns:dc="http://purl.org/dc/elements/1.1/"
   xmlns:cc="http://creativecommons.org/ns#"
   xmlns:rdf="http://www.w3.org/1999/02/22-rdf-syntax-ns#"
   xmlns:svg="http://www.w3.org/2000/svg"
   xmlns="http://www.w3.org/2000/svg"
   xmlns:sodipodi="http://sodipodi.sourceforge.net/DTD/sodipodi-0.dtd"
   xmlns:inkscape="http://www.inkscape.org/namespaces/inkscape"
   style="isolation:isolate"
   viewBox="0 0 36 36"
   width="48"
   height="48"
   version="1.1"
   id="svg9"
   sodipodi:docname="preferences-system-search.svg"
   inkscape:version="0.92.4 (5da689c313, 2019-01-14)">
  <metadata
     id="metadata15">
    <rdf:RDF>
      <cc:Work
         rdf:about="">
        <dc:format>image/svg+xml</dc:format>
        <dc:type
           rdf:resource="http://purl.org/dc/dcmitype/StillImage" />
        <dc:title></dc:title>
      </cc:Work>
    </rdf:RDF>
  </metadata>
  <defs
     id="defs13" />
  <sodipodi:namedview
     pagecolor="#ffffff"
     bordercolor="#666666"
     borderopacity="1"
     objecttolerance="10"
     gridtolerance="10"
     guidetolerance="10"
     inkscape:pageopacity="0"
     inkscape:pageshadow="2"
     inkscape:window-width="640"
     inkscape:window-height="480"
     id="namedview11"
     showgrid="false"
     inkscape:zoom="29.365243"
     inkscape:cx="25.325443"
     inkscape:cy="32"
     inkscape:current-layer="svg9"
     units="px" />
  <linearGradient
     id="_lgradient_1"
     x1="0"
     y1="0.5"
     x2="1"
     y2="0.5"
     gradientTransform="matrix(40.662,0,0,44.324,3.669,1.838)"
     gradientUnits="userSpaceOnUse">
    <stop
       offset="0%"
       stop-opacity="1"
       style="stop-color:rgb(242,55,239)"
       id="stop2" />
    <stop
       offset="98.69565217391305%"
       stop-opacity="1"
       style="stop-color:rgb(252,82,82)"
       id="stop4" />
  </linearGradient>
  <g
     id="g826"
     transform="matrix(0.81219631,0,0,0.81219631,-1.4928474,-1.4928167)">
    <path
       id="path7"
       d="M 16.524,28.628 4.16,42.85 c -0.725,0.833 -0.636,2.098 0.197,2.822 v 0 c 0.833,0.724 2.097,0.636 2.821,-0.197 L 19.571,31.221 c 2.584,1.693 5.626,2.617 8.76,2.617 1.55,0 3.08,-0.22 4.57,-0.66 v 0 c 1.054,-0.315 1.654,-1.431 1.34,-2.49 v 0 c -0.315,-1.06 -1.426,-1.665 -2.48,-1.35 v 0 c -1.12,0.33 -2.27,0.5 -3.43,0.5 -3.18,0 -6.24,-1.26 -8.49,-3.51 -2.24,-2.25 -3.51,-5.31 -3.51,-8.49 0,-3.18 1.27,-6.24 3.51,-8.49 2.25,-2.24 5.31,-3.51 8.49,-3.51 3.18,0 6.24,1.27 8.49,3.51 2.25,2.25 3.51,5.31 3.51,8.49 0,2.33 -0.68,4.62 -1.96,6.57 v 0 c -0.607,0.921 -0.35,2.163 0.575,2.77 v 0 c 0.924,0.607 2.168,0.347 2.775,-0.58 v 0 c 1.7,-2.6 2.61,-5.65 2.61,-8.76 0,-4.24 -1.69,-8.31 -4.69,-11.31 -3,-3 -7.07,-4.69 -11.31,-4.69 -4.24,0 -8.31,1.69 -11.31,4.69 -3,3 -4.69,7.07 -4.69,11.31 0,4 1.504,7.849 4.193,10.79 z M 21.37,16.98 v 0 c -0.099,0.822 -0.848,1.409 -1.67,1.31 v 0 c -0.822,-0.099 -1.409,-0.848 -1.31,-1.67 v 0 c 0.3,-2.43 1.47,-4.66 3.3,-6.28 1.83,-1.62 4.19,-2.51 6.63,-2.51 1.14,0 2.27,0.19 3.34,0.57 v 0 c 0.784,0.276 1.194,1.134 0.915,1.915 v 0 c -0.279,0.781 -1.137,1.191 -1.915,0.915 v 0 c -0.75,-0.27 -1.54,-0.4 -2.34,-0.4 -1.71,0 -3.36,0.62 -4.64,1.76 -1.28,1.13 -2.1,2.69 -2.31,4.39 z"
       style="fill:url(#_lgradient_1);fill-rule:evenodd"
       inkscape:connector-curvature="0" />
  </g>
</svg>
