<?xml version="1.0" encoding="UTF-8" standalone="no"?>
<!-- Generator: Gravit.io -->

<svg
   xmlns:dc="http://purl.org/dc/elements/1.1/"
   xmlns:cc="http://creativecommons.org/ns#"
   xmlns:rdf="http://www.w3.org/1999/02/22-rdf-syntax-ns#"
   xmlns:svg="http://www.w3.org/2000/svg"
   xmlns="http://www.w3.org/2000/svg"
   xmlns:sodipodi="http://sodipodi.sourceforge.net/DTD/sodipodi-0.dtd"
   xmlns:inkscape="http://www.inkscape.org/namespaces/inkscape"
   style="isolation:isolate"
   viewBox="0 0 36 36"
   width="48"
   height="48"
   version="1.1"
   id="svg49"
   sodipodi:docname="pycharmedu.svg"
   inkscape:version="0.92.4 (5da689c313, 2019-01-14)">
  <metadata
     id="metadata55">
    <rdf:RDF>
      <cc:Work
         rdf:about="">
        <dc:format>image/svg+xml</dc:format>
        <dc:type
           rdf:resource="http://purl.org/dc/dcmitype/StillImage" />
        <dc:title></dc:title>
      </cc:Work>
    </rdf:RDF>
  </metadata>
  <defs
     id="defs53" />
  <sodipodi:namedview
     pagecolor="#ffffff"
     bordercolor="#666666"
     borderopacity="1"
     objecttolerance="10"
     gridtolerance="10"
     guidetolerance="10"
     inkscape:pageopacity="0"
     inkscape:pageshadow="2"
     inkscape:window-width="640"
     inkscape:window-height="480"
     id="namedview51"
     showgrid="false"
     inkscape:zoom="29.365243"
     inkscape:cx="25.325443"
     inkscape:cy="32"
     inkscape:current-layer="svg49"
     units="px" />
  <linearGradient
     id="_lgradient_13"
     x1="0.99411762"
     y1="0.48015597"
     x2="0.00018059855"
     y2="0.45213065"
     gradientTransform="matrix(30.8,0,0,48.61,-0.04,-0.24)"
     gradientUnits="userSpaceOnUse">
    <stop
       offset="0%"
       stop-opacity="1"
       style="stop-color:rgb(17,153,142)"
       id="stop2" />
    <stop
       offset="99.1304347826087%"
       stop-opacity="1"
       style="stop-color:rgb(56,239,125)"
       id="stop4" />
  </linearGradient>
  <linearGradient
     id="_lgradient_14"
     x1="59.80661"
     y1="15.273428"
     x2="-33.656933"
     y2="18.917889"
     gradientTransform="scale(0.82487505,1.2123048)"
     gradientUnits="userSpaceOnUse">
    <stop
       offset="0%"
       stop-opacity="1"
       style="stop-color:rgb(17,153,142)"
       id="stop9" />
    <stop
       offset="99.1304347826087%"
       stop-opacity="1"
       style="stop-color:rgb(56,239,125)"
       id="stop11" />
  </linearGradient>
  <linearGradient
     id="_lgradient_15"
     x1="1.5627142"
     y1="0.54316336"
     x2="-0.052491475"
     y2="0.53895819"
     gradientTransform="matrix(16.3,0,0,11.89,23.23,-0.12)"
     gradientUnits="userSpaceOnUse">
    <stop
       offset="34.94098066785295%"
       stop-opacity="1"
       style="stop-color:rgb(178,229,107)"
       id="stop16" />
    <stop
       offset="53.84922244785295%"
       stop-opacity="1"
       style="stop-color:rgb(194,233,100)"
       id="stop18" />
    <stop
       offset="90.40515655585295%"
       stop-opacity="1"
       style="stop-color:rgb(236,244,81)"
       id="stop20" />
    <stop
       offset="100%"
       stop-opacity="1"
       style="stop-color:rgb(250,247,75)"
       id="stop22" />
  </linearGradient>
  <linearGradient
     id="_lgradient_16"
     x1="1.5627142"
     y1="0.54316336"
     x2="-0.052491475"
     y2="0.53895819"
     gradientTransform="matrix(37.38,0,0,29.74,12,18.42)"
     gradientUnits="userSpaceOnUse">
    <stop
       offset="34.94098066785295%"
       stop-opacity="1"
       style="stop-color:rgb(178,229,107)"
       id="stop27" />
    <stop
       offset="53.84922244785295%"
       stop-opacity="1"
       style="stop-color:rgb(194,233,100)"
       id="stop29" />
    <stop
       offset="90.40515655585295%"
       stop-opacity="1"
       style="stop-color:rgb(236,244,81)"
       id="stop31" />
    <stop
       offset="100%"
       stop-opacity="1"
       style="stop-color:rgb(250,247,75)"
       id="stop33" />
  </linearGradient>
  <linearGradient
     id="_lgradient_17"
     x1="1.5627142"
     y1="0.54316336"
     x2="-0.052491475"
     y2="0.53895819"
     gradientTransform="matrix(29,0,0,29,9.5,9.5)"
     gradientUnits="userSpaceOnUse">
    <stop
       offset="34.94098066785295%"
       stop-opacity="1"
       style="stop-color:rgb(178,229,107)"
       id="stop38" />
    <stop
       offset="53.84922244785295%"
       stop-opacity="1"
       style="stop-color:rgb(194,233,100)"
       id="stop40" />
    <stop
       offset="90.40515655585295%"
       stop-opacity="1"
       style="stop-color:rgb(236,244,81)"
       id="stop42" />
    <stop
       offset="100%"
       stop-opacity="1"
       style="stop-color:rgb(250,247,75)"
       id="stop44" />
  </linearGradient>
  <g
     id="g867"
     transform="matrix(0.727996,0,0,0.727996,0.02911977,0.48077626)">
    <path
       id="path7"
       d="M 16.89,42.34 18.55,41.23 22.624,43 19.11,45.66 15.04,48.37 -0.04,39.09 1.05,7.64 20.19,-0.24 29.06,5.3 30.76,6.36 28.64,9.76 26.94,8.7 19.81,4.24 4.95,10.36 4.04,36.91 14.96,43.63 Z"
       style="fill:url(#_lgradient_13)"
       inkscape:connector-curvature="0" />
    <path
       id="path14"
       stroke-miterlimit="3"
       d="m 39,12 8,7 -3,7"
       style="vector-effect:non-scaling-stroke;fill:none;stroke:url(#_lgradient_14);stroke-width:4;stroke-linecap:square;stroke-linejoin:miter;stroke-miterlimit:3"
       inkscape:connector-curvature="0" />
    <path
       id="path25"
       d="m 27.11,10.66 -1.66,1.11 -2.22,-3.32 1.66,-1.11 11.18,-7.46 2.83,8.49 0.63,1.89 -3.79,1.27 -0.64,-1.9 -1.17,-3.51 z"
       style="fill:url(#_lgradient_15)"
       inkscape:connector-curvature="0" />
    <path
       id="path36"
       d="m 39.63,23.9 -1.89,0.63 -1.27,-3.79 1.9,-0.64 5.05,-1.68 5.96,23.85 L 32.9,48.16 17.15,40.81 12,38 l 5.03,-1.66 1.82,0.85 14.25,6.65 11.52,-4.11 -4.04,-16.15 z"
       style="fill:url(#_lgradient_16)"
       inkscape:connector-curvature="0" />
    <path
       id="path47"
       d="m 35.978,31.218 v 0 c 0,-0.695 0.565,-1.26 1.261,-1.26 v 0 c 0.696,0 1.261,0.565 1.261,1.26 v 0 4.13 c 0,1.74 -1.412,3.152 -3.152,3.152 H 12.652 C 10.912,38.5 9.5,37.088 9.5,35.348 v -11.978 0 c 0,-0.696 0.565,-1.261 1.261,-1.261 v 0 c 0.696,0 1.261,0.565 1.261,1.261 v 0 10.717 c 0,1.044 0.847,1.891 1.891,1.891 h 20.174 c 1.044,0 1.891,-0.847 1.891,-1.891 z M 12.022,16.782 v 0 c 0,0.695 -0.565,1.26 -1.261,1.26 v 0 c -0.696,0 -1.261,-0.565 -1.261,-1.26 v 0 -4.13 C 9.5,10.912 10.912,9.5 12.652,9.5 h 22.696 c 1.74,0 3.152,1.412 3.152,3.152 v 12.495 0 c 0,0.696 -0.565,1.261 -1.261,1.261 v 0 c -0.696,0 -1.261,-0.565 -1.261,-1.261 v 0 -11.234 c 0,-1.044 -0.847,-1.891 -1.891,-1.891 H 13.913 c -1.044,0 -1.891,0.847 -1.891,1.891 z M 14,30.5 h 9 V 33 h -9 z m 2.288,-13.538 v 3.247 h 0.753 v 0 q 1.055,0 1.579,-0.423 v 0 0 q 0.524,-0.422 0.524,-1.23 v 0 0 q 0,-0.816 -0.439,-1.205 v 0 0 q -0.439,-0.389 -1.376,-0.389 v 0 z m 5.724,3.584 v 0 0 q 0,2.708 0,0 z m -0.557,-2.073 v 0 0 q 0,1.766 -1.089,2.701 v 0 0 Q 19.277,22.11 17.27,22.11 v 0 H 16.288 V 26 H 14 V 15.062 h 3.447 v 0 q 1.963,0 2.985,0.856 v 0 0 q 1.023,0.857 1.023,2.555 z M 28.8,24.074 V 26 H 22.5 V 15 h 6.3 v 1.911 h -3.981 v 2.415 h 3.704 v 1.911 h -3.704 v 2.837 z"
       style="fill:url(#_lgradient_17);fill-rule:evenodd"
       inkscape:connector-curvature="0" />
  </g>
</svg>
