<?xml version="1.0" encoding="UTF-8" standalone="no"?>
<!-- Generator: Gravit.io -->

<svg
   xmlns:dc="http://purl.org/dc/elements/1.1/"
   xmlns:cc="http://creativecommons.org/ns#"
   xmlns:rdf="http://www.w3.org/1999/02/22-rdf-syntax-ns#"
   xmlns:svg="http://www.w3.org/2000/svg"
   xmlns="http://www.w3.org/2000/svg"
   xmlns:xlink="http://www.w3.org/1999/xlink"
   xmlns:sodipodi="http://sodipodi.sourceforge.net/DTD/sodipodi-0.dtd"
   xmlns:inkscape="http://www.inkscape.org/namespaces/inkscape"
   style="isolation:isolate"
   viewBox="0 0 36 36"
   width="48"
   height="48"
   version="1.1"
   id="svg16"
   sodipodi:docname="qbittorrent.svg"
   inkscape:version="0.92.4 (5da689c313, 2019-01-14)">
  <metadata
     id="metadata22">
    <rdf:RDF>
      <cc:Work
         rdf:about="">
        <dc:format>image/svg+xml</dc:format>
        <dc:type
           rdf:resource="http://purl.org/dc/dcmitype/StillImage" />
        <dc:title></dc:title>
      </cc:Work>
    </rdf:RDF>
  </metadata>
  <defs
     id="defs20">
    <linearGradient
       inkscape:collect="always"
       xlink:href="#_lgradient_9"
       id="linearGradient860"
       x1="-0.75921869"
       y1="22.274439"
       x2="46.898552"
       y2="23.128159"
       gradientUnits="userSpaceOnUse"
       gradientTransform="translate(-0.22504783)" />
    <linearGradient
       inkscape:collect="always"
       xlink:href="#_lgradient_9"
       id="linearGradient862"
       x1="0.76398319"
       y1="24.075459"
       x2="47.225742"
       y2="24.075459"
       gradientUnits="userSpaceOnUse"
       gradientTransform="translate(0.07545889,-0.63525066)" />
  </defs>
  <sodipodi:namedview
     pagecolor="#ffffff"
     bordercolor="#666666"
     borderopacity="1"
     objecttolerance="10"
     gridtolerance="10"
     guidetolerance="10"
     inkscape:pageopacity="0"
     inkscape:pageshadow="2"
     inkscape:window-width="1366"
     inkscape:window-height="723"
     id="namedview18"
     showgrid="false"
     showguides="true"
     inkscape:guide-bbox="true"
     inkscape:zoom="55.497396"
     inkscape:cx="23.262186"
     inkscape:cy="32"
     inkscape:window-x="0"
     inkscape:window-y="22"
     inkscape:window-maximized="1"
     inkscape:current-layer="svg16"
     units="px" />
  <linearGradient
     id="_lgradient_9"
     x1="0"
     y1="0.5"
     x2="1"
     y2="0.5">
    <stop
       offset="0%"
       stop-opacity="1"
       style="stop-color:rgb(178,254,250)"
       id="stop2" />
    <stop
       offset="98.26086956521739%"
       stop-opacity="1"
       style="stop-color:rgb(14,210,247)"
       id="stop4" />
  </linearGradient>
  <linearGradient
     id="_lgradient_10"
     x1="0"
     y1="0.5"
     x2="1"
     y2="0.5"
     gradientTransform="scale(48)"
     gradientUnits="userSpaceOnUse">
    <stop
       offset="0%"
       stop-opacity="1"
       style="stop-color:rgb(178,254,250)"
       id="stop9" />
    <stop
       offset="98.26086956521739%"
       stop-opacity="1"
       style="stop-color:rgb(14,210,247)"
       id="stop11" />
  </linearGradient>
  <g
     id="g828"
     transform="scale(0.75)">
    <path
       id="path14"
       d="M 19.1,16.684 V 16 c 0,-0.552 0.448,-1 1,-1 h 2 c 0.552,0 1,0.448 1,1 V 16.684 37 c 0,1.104 -0.896,2 -2,2 v 0 c -1.104,0 -2,-0.896 -2,-2 z M 28.9,30 v 1 c 0,0.552 -0.448,1 -1,1 h -2 c -0.552,0 -1,-0.448 -1,-1 V 30 10 c 0,-1.104 0.896,-2 2,-2 v 0 c 1.104,0 2,0.896 2,2 z m 1.32,13.01 v 0 c 1.049,-0.342 2.178,0.231 2.52,1.28 v 0 c 0.342,1.049 -0.231,2.178 -1.28,2.52 v 0 C 29.06,47.6 26.55,48 24.03,48 15.68,48 7.9,43.66 3.54,36.54 1.23,32.78 0,28.44 0,24.03 0,15.68 4.34,7.9 11.46,3.54 15.22,1.23 19.55,0 23.97,0 32.32,0 40.1,4.34 44.46,11.46 46.77,15.22 48,19.55 48,23.97 c 0,5.64 -1.98,11.11 -5.59,15.44 v 0 c -0.712,0.844 -1.978,0.956 -2.825,0.25 v 0 C 38.738,38.954 38.628,37.69 39.34,36.84 v 0 C 42.35,33.23 44,28.68 44,23.97 44,20.3 42.98,16.69 41.05,13.55 37.41,7.62 30.93,4 23.97,4 20.29,4 16.69,5.02 13.55,6.95 7.62,10.59 4,17.07 4,24.03 4,27.7 5.02,31.31 6.95,34.45 10.59,40.38 17.07,44 24.03,44 c 2.1,0 4.19,-0.33 6.19,-0.99 z"
       inkscape:connector-curvature="0"
       style="fill:url(#_lgradient_10);fill-rule:evenodd" />
    <circle
       r="5.9315443"
       cy="23.181517"
       cx="15.2145"
       id="path829"
       style="opacity:1;fill:#96b2ae;fill-opacity:0;stroke:url(#linearGradient860);stroke-width:3.88691139;stroke-linecap:round;stroke-linejoin:round;stroke-miterlimit:4;stroke-dasharray:none;stroke-opacity:1;paint-order:normal" />
    <circle
       r="5.9315443"
       cy="23.36475"
       cx="32.78582"
       id="path829-3"
       style="opacity:1;isolation:isolate;fill:#96b2ae;fill-opacity:0;stroke:url(#linearGradient862);stroke-width:3.88691139;stroke-linecap:round;stroke-linejoin:round;stroke-miterlimit:4;stroke-dasharray:none;stroke-opacity:1;paint-order:normal" />
  </g>
</svg>
