<?xml version="1.0" encoding="UTF-8" standalone="no"?>
<!-- Generator: Gravit.io -->

<svg
   xmlns:dc="http://purl.org/dc/elements/1.1/"
   xmlns:cc="http://creativecommons.org/ns#"
   xmlns:rdf="http://www.w3.org/1999/02/22-rdf-syntax-ns#"
   xmlns:svg="http://www.w3.org/2000/svg"
   xmlns="http://www.w3.org/2000/svg"
   xmlns:sodipodi="http://sodipodi.sourceforge.net/DTD/sodipodi-0.dtd"
   xmlns:inkscape="http://www.inkscape.org/namespaces/inkscape"
   style="isolation:isolate"
   viewBox="0 0 36 36"
   width="48"
   height="48"
   version="1.1"
   id="svg9"
   sodipodi:docname="qemu.svg"
   inkscape:version="0.92.4 (5da689c313, 2019-01-14)">
  <metadata
     id="metadata15">
    <rdf:RDF>
      <cc:Work
         rdf:about="">
        <dc:format>image/svg+xml</dc:format>
        <dc:type
           rdf:resource="http://purl.org/dc/dcmitype/StillImage" />
        <dc:title></dc:title>
      </cc:Work>
    </rdf:RDF>
  </metadata>
  <defs
     id="defs13" />
  <sodipodi:namedview
     pagecolor="#ffffff"
     bordercolor="#666666"
     borderopacity="1"
     objecttolerance="10"
     gridtolerance="10"
     guidetolerance="10"
     inkscape:pageopacity="0"
     inkscape:pageshadow="2"
     inkscape:window-width="640"
     inkscape:window-height="480"
     id="namedview11"
     showgrid="false"
     inkscape:zoom="29.365243"
     inkscape:cx="25.325443"
     inkscape:cy="32"
     inkscape:current-layer="svg9"
     units="px" />
  <linearGradient
     id="_lgradient_9"
     x1="0"
     y1="0.5"
     x2="1"
     y2="0.5"
     gradientTransform="matrix(47,0,0,47,0.5,0.5)"
     gradientUnits="userSpaceOnUse">
    <stop
       offset="0%"
       stop-opacity="1"
       style="stop-color:rgb(255,224,49)"
       id="stop2" />
    <stop
       offset="98.69565217391305%"
       stop-opacity="1"
       style="stop-color:rgb(252,82,82)"
       id="stop4" />
  </linearGradient>
  <g
     id="g826"
     transform="matrix(0.76595745,0,0,0.76595745,-0.3829788,-0.3829788)">
    <path
       id="path7"
       d="M 42.418,38.598 C 45.69,34.463 47.5,29.323 47.5,24 47.5,17.77 45.02,11.79 40.62,7.38 36.21,2.98 30.23,0.5 24,0.5 17.77,0.5 11.79,2.98 7.38,7.38 2.98,11.79 0.5,17.77 0.5,24 v 0 0 c 0,6.23 2.48,12.21 6.88,16.62 4.41,4.4 10.39,6.88 16.62,6.88 5.8,0 11.383,-2.149 15.684,-5.996 l 3.492,3.492 c 0.78,0.78 2.046,0.782 2.824,0.004 v 0 c 0.778,-0.778 0.776,-2.044 -0.004,-2.824 z M 25.215,10.002 c 0.354,-0.011 0.759,0.064 1.166,0.228 1.085,0.439 1.79,1.362 1.582,2.067 -0.208,0.705 -1.259,0.913 -2.344,0.474 -1.085,-0.438 -1.79,-1.347 -1.582,-2.052 0.13,-0.441 0.588,-0.699 1.178,-0.717 z m -6.61,-3.107 c -0.02,0.786 -1.391,0.102 -1.451,1.001 -1.52,-0.676 0.117,1.033 -0.035,1.192 h -0.01 L 16.996,9.076 C 16.923,9.05 16.816,9.005 16.658,8.908 c -0.32,0.256 -0.547,0.594 -0.736,0.969 -1.268,1.972 -1.884,3.616 -2.301,5.693 -0.532,2.653 -0.663,5.754 -0.609,8.369 0.057,0.738 0.241,1.433 0.845,1.899 1.702,1.398 3.117,3.165 4.545,4.848 2.813,3.813 5.279,7.065 6.885,10.484 -0.177,-1.149 -0.408,-2.976 -0.517,-4.389 -0.976,-4.977 -3.542,-7.61 -3.77,-13.17 -0.054,-1.375 1.431,-4.154 3.09,-5.613 2.504,-2.201 4.885,-1.646 8.08,-1.174 0.017,0.003 0.039,0.009 0.057,0.012 0.106,0.018 0.22,0.036 0.326,0.057 0.853,0.076 2.571,0.409 2.879,-0.18 -1.178,-1.003 -2.873,-1.133 -4.307,-1.527 -0.227,-0.042 -0.51,-0.088 -0.789,-0.114 l -1.404,-0.314 -0.35,-0.09 v 0.01 l -5.027,-0.979 c -0.08,-0.073 -0.168,-0.146 -0.248,-0.201 l 4.904,0.607 v -0.023 c 0.173,0.039 0.344,0.07 0.518,0.09 v 0.012 l 3.464,0.64 c 0.598,0.223 1.236,0.391 1.834,0.428 0.988,0.144 2.241,1.617 2.565,1.687 C 36.433,15.389 34.885,14.695 33.6,14.24 32.098,13.51 29.855,13.536 29.617,11.518 29.554,11.377 29.491,11.237 29.414,11.102 L 28.83,10.326 28.852,10.314 C 28.053,9.372 26.93,8.686 25.736,8.424 24.552,8.015 23.222,7.608 21.969,7.445 21.544,8.697 21.067,6.453 20.045,7.119 19.149,7.225 19.273,7.462 18.605,6.895 Z M 4.5,24 C 4.5,18.83 6.56,13.87 10.21,10.21 13.87,6.56 18.83,4.5 24,4.5 c 5.17,0 10.13,2.06 13.79,5.71 3.65,3.66 5.71,8.62 5.71,13.79 0,5.17 -2.06,10.13 -5.71,13.79 C 34.13,41.44 29.17,43.5 24,43.5 18.83,43.5 13.87,41.44 10.21,37.79 6.56,34.13 4.5,29.17 4.5,24 Z"
       inkscape:connector-curvature="0"
       style="fill:url(#_lgradient_9);fill-rule:evenodd" />
  </g>
</svg>
