<?xml version="1.0" encoding="UTF-8" standalone="no"?>
<!-- Generator: Gravit.io -->

<svg
   xmlns:dc="http://purl.org/dc/elements/1.1/"
   xmlns:cc="http://creativecommons.org/ns#"
   xmlns:rdf="http://www.w3.org/1999/02/22-rdf-syntax-ns#"
   xmlns:svg="http://www.w3.org/2000/svg"
   xmlns="http://www.w3.org/2000/svg"
   xmlns:sodipodi="http://sodipodi.sourceforge.net/DTD/sodipodi-0.dtd"
   xmlns:inkscape="http://www.inkscape.org/namespaces/inkscape"
   style="isolation:isolate"
   viewBox="0 0 36 36"
   width="48"
   height="48"
   version="1.1"
   id="svg11"
   sodipodi:docname="qimgv.svg"
   inkscape:version="0.92.4 (5da689c313, 2019-01-14)">
  <metadata
     id="metadata17">
    <rdf:RDF>
      <cc:Work
         rdf:about="">
        <dc:format>image/svg+xml</dc:format>
        <dc:type
           rdf:resource="http://purl.org/dc/dcmitype/StillImage" />
        <dc:title></dc:title>
      </cc:Work>
    </rdf:RDF>
  </metadata>
  <defs
     id="defs15" />
  <sodipodi:namedview
     pagecolor="#ffffff"
     bordercolor="#666666"
     borderopacity="1"
     objecttolerance="10"
     gridtolerance="10"
     guidetolerance="10"
     inkscape:pageopacity="0"
     inkscape:pageshadow="2"
     inkscape:window-width="640"
     inkscape:window-height="480"
     id="namedview13"
     showgrid="false"
     inkscape:zoom="29.365243"
     inkscape:cx="25.325443"
     inkscape:cy="32"
     inkscape:current-layer="svg11"
     units="px" />
  <linearGradient
     id="_lgradient_9"
     x1="-0.014458464"
     y1="0.009839246"
     x2="1.0164566"
     y2="1.072293"
     gradientTransform="matrix(44,0,0,44,2,2)"
     gradientUnits="userSpaceOnUse">
    <stop
       offset="1.3043478260869565%"
       stop-opacity="1"
       style="stop-color:rgb(254,172,94)"
       id="stop2" />
    <stop
       offset="53.04347826086957%"
       stop-opacity="1"
       style="stop-color:rgb(199,121,208)"
       id="stop4" />
    <stop
       offset="99.56521739130434%"
       stop-opacity="1"
       style="stop-color:rgb(75,192,200)"
       id="stop6" />
  </linearGradient>
  <g
     id="g825"
     transform="matrix(0.81818182,0,0,0.81818182,-1.6363637,-1.6363637)">
    <path
       id="path9"
       d="m 6,28 v 0 c 0,1.104 -0.896,2 -2,2 v 0 C 2.896,30 2,29.104 2,28 V 28 7 C 2,4.24 4.24,2 7,2 h 34 c 2.76,0 5,2.24 5,5 v 5 0 c 0,1.104 -0.896,2 -2,2 v 0 c -1.104,0 -2,-0.896 -2,-2 V 12 9 C 42,7.344 40.656,6 39,6 H 9 C 7.344,6 6,7.344 6,9 Z m 36,-8 v 0 c 0,-1.104 0.896,-2 2,-2 v 0 c 1.104,0 2,0.896 2,2 v 0 22 c 0,2.208 -1.792,4 -4,4 H 6 C 3.792,46 2,44.208 2,42 v -6 0 c 0,-1.104 0.896,-2 2,-2 v 0 c 1.104,0 2,0.896 2,2 v 0 3 c 0,1.656 1.344,3 3,3 h 30 c 1.656,0 3,-1.344 3,-3 z m -18,8.5 v -4 -6 h -8 v 6 h 8 z m 4,-4 v 4 3 2.5 h -4 v -2.5 -3 H 12 V 14 h 16 v 10.5 4 z m 8,7.5 v 2 H 32 V 32 16 14 h 4 v 2 z"
       inkscape:connector-curvature="0"
       style="fill:url(#_lgradient_9);fill-rule:evenodd" />
  </g>
</svg>
