<?xml version="1.0" encoding="UTF-8" standalone="no"?>
<!-- Generator: Gravit.io -->

<svg
   xmlns:dc="http://purl.org/dc/elements/1.1/"
   xmlns:cc="http://creativecommons.org/ns#"
   xmlns:rdf="http://www.w3.org/1999/02/22-rdf-syntax-ns#"
   xmlns:svg="http://www.w3.org/2000/svg"
   xmlns="http://www.w3.org/2000/svg"
   xmlns:sodipodi="http://sodipodi.sourceforge.net/DTD/sodipodi-0.dtd"
   xmlns:inkscape="http://www.inkscape.org/namespaces/inkscape"
   style="isolation:isolate"
   viewBox="0 0 36 36"
   width="48"
   height="48"
   version="1.1"
   id="svg16"
   sodipodi:docname="qtcreator.svg"
   inkscape:version="0.92.4 (5da689c313, 2019-01-14)">
  <metadata
     id="metadata22">
    <rdf:RDF>
      <cc:Work
         rdf:about="">
        <dc:format>image/svg+xml</dc:format>
        <dc:type
           rdf:resource="http://purl.org/dc/dcmitype/StillImage" />
        <dc:title></dc:title>
      </cc:Work>
    </rdf:RDF>
  </metadata>
  <defs
     id="defs20" />
  <sodipodi:namedview
     pagecolor="#ffffff"
     bordercolor="#666666"
     borderopacity="1"
     objecttolerance="10"
     gridtolerance="10"
     guidetolerance="10"
     inkscape:pageopacity="0"
     inkscape:pageshadow="2"
     inkscape:window-width="640"
     inkscape:window-height="480"
     id="namedview18"
     showgrid="false"
     inkscape:zoom="29.365243"
     inkscape:cx="25.325443"
     inkscape:cy="32"
     inkscape:current-layer="svg16"
     units="px" />
  <linearGradient
     id="_lgradient_1"
     x1="0"
     y1="0.5"
     x2="1"
     y2="0.5"
     gradientTransform="matrix(44,0,0,40,2,4)"
     gradientUnits="userSpaceOnUse">
    <stop
       offset="0%"
       stop-opacity="1"
       style="stop-color:rgb(67,233,123)"
       id="stop2" />
    <stop
       offset="97.82608695652173%"
       stop-opacity="1"
       style="stop-color:rgb(56,249,215)"
       id="stop4" />
  </linearGradient>
  <linearGradient
     id="_lgradient_2"
     x1="0"
     y1="0.5"
     x2="1"
     y2="0.5"
     gradientTransform="matrix(16.3,0,0,15.706,27.043,25.642)"
     gradientUnits="userSpaceOnUse">
    <stop
       offset="0%"
       stop-opacity="1"
       style="stop-color:rgb(67,233,123)"
       id="stop9" />
    <stop
       offset="97.82608695652173%"
       stop-opacity="1"
       style="stop-color:rgb(56,249,215)"
       id="stop11" />
  </linearGradient>
  <g
     id="g831"
     transform="matrix(0.81818182,0,0,0.81818182,-1.6363637,-1.6363637)">
    <path
       id="path7"
       d="m 29.027,15 v 4 H 27 v 2 h 2.027 v 6 c 0,4 0.909,5 3.844,5 l 0.59,-2 C 32.11,30 32,29 32,27 v -6 h 3 V 19 H 32 V 15 Z M 18.012,17 C 21.241,17 22,19 22,23 22,27 21.266,29 18.012,29 14.758,29 14,27 14,23 c 0,-4 0.782,-6 4.012,-6 z M 20,44 H 7 C 4.24,44 2,41.76 2,39 v -7 0 c 0,-1.104 0.896,-2 2,-2 v 0 c 1.104,0 2,0.896 2,2 v 0 5 c 0,1.656 1.344,3 3,3 h 11 c 1.104,0 2,0.896 2,2 v 0 c 0,1.104 -0.896,2 -2,2 z M 18.035,14 C 12.477,14 11,17 11,23 c 0,6 1.451,9 7.035,9 h 1.586 l 2.311,4 2.677,-1 -2.181,-4 C 24.506,30 25,27 25,23 25,17 23.594,14 18.035,14 Z M 6,22 v 0 c 0,1.104 -0.896,2 -2,2 v 0 C 2.896,24 2,23.104 2,22 v 0 -6.83 C 2,14.066 2.634,12.536 3.414,11.756 L 9.756,5.414 C 10.536,4.634 12.066,4 13.17,4 H 41 c 2.76,0 5,2.24 5,5 v 8 0 c 0,1.104 -0.896,2 -2,2 v 0 c -1.104,0 -2,-0.896 -2,-2 v 0 -6 C 42,9.344 40.656,8 39,8 H 13.83 C 13.278,8 12.513,8.317 12.123,8.707 L 6.707,14.123 C 6.317,14.513 6,15.278 6,15.83 Z"
       inkscape:connector-curvature="0"
       style="fill:url(#_lgradient_1);fill-rule:evenodd" />
    <path
       id="path14"
       d="m 27.043,39.872 q 0.155,-6.371 5.442,-9.768 c 3.377,-2.17 7.006,-3.647 10.858,-4.462 -0.4,4.201 -2.413,7.81 -4.274,11.126 q -5.442,6.515 -11.23,3.763 c 0.873,-0.354 1.709,-0.798 2.489,-1.323 0.891,-0.586 1.73,-1.236 2.517,-1.955 0.768,-0.691 1.481,-1.432 2.144,-2.224 0.585,-0.691 1.106,-1.431 1.557,-2.214 v 0 C 36.67,32.6 36.597,32.324 36.382,32.2 v 0 c -0.215,-0.124 -0.491,-0.051 -0.615,0.164 v 0 c -0.425,0.739 -0.915,1.438 -1.466,2.085 -0.638,0.759 -1.324,1.473 -2.06,2.138 -0.753,0.684 -1.561,1.312 -2.411,1.874 -0.785,0.527 -1.627,0.967 -2.51,1.303 z"
       inkscape:connector-curvature="0"
       style="fill:url(#_lgradient_2);fill-rule:evenodd" />
  </g>
</svg>
