<?xml version="1.0" encoding="UTF-8" standalone="no"?>
<!-- Generator: Gravit.io -->

<svg
   xmlns:dc="http://purl.org/dc/elements/1.1/"
   xmlns:cc="http://creativecommons.org/ns#"
   xmlns:rdf="http://www.w3.org/1999/02/22-rdf-syntax-ns#"
   xmlns:svg="http://www.w3.org/2000/svg"
   xmlns="http://www.w3.org/2000/svg"
   xmlns:sodipodi="http://sodipodi.sourceforge.net/DTD/sodipodi-0.dtd"
   xmlns:inkscape="http://www.inkscape.org/namespaces/inkscape"
   style="isolation:isolate"
   viewBox="0 0 36 36"
   width="48"
   height="48"
   version="1.1"
   id="svg9"
   sodipodi:docname="radiotray.svg"
   inkscape:version="0.92.4 (5da689c313, 2019-01-14)">
  <metadata
     id="metadata15">
    <rdf:RDF>
      <cc:Work
         rdf:about="">
        <dc:format>image/svg+xml</dc:format>
        <dc:type
           rdf:resource="http://purl.org/dc/dcmitype/StillImage" />
        <dc:title></dc:title>
      </cc:Work>
    </rdf:RDF>
  </metadata>
  <defs
     id="defs13" />
  <sodipodi:namedview
     pagecolor="#ffffff"
     bordercolor="#666666"
     borderopacity="1"
     objecttolerance="10"
     gridtolerance="10"
     guidetolerance="10"
     inkscape:pageopacity="0"
     inkscape:pageshadow="2"
     inkscape:window-width="640"
     inkscape:window-height="480"
     id="namedview11"
     showgrid="false"
     inkscape:zoom="25.170207"
     inkscape:cx="29.546349"
     inkscape:cy="37.333333"
     inkscape:current-layer="svg9" />
  <linearGradient
     id="_lgradient_9"
     x1="0.67180997"
     y1="0.020570019"
     x2="0.42214948"
     y2="0.96016449"
     gradientTransform="matrix(51.5,0,0,37.5,2,10)"
     gradientUnits="userSpaceOnUse">
    <stop
       offset="0%"
       stop-opacity="1"
       style="stop-color:rgb(26,108,255)"
       id="stop2" />
    <stop
       offset="100%"
       stop-opacity="1"
       style="stop-color:rgb(197,34,255)"
       id="stop4" />
  </linearGradient>
  <g
     id="g826"
     transform="matrix(0.69902913,0,0,0.69902913,-1.3980584,-2.0970875)">
    <path
       id="path7"
       d="m 5.5,18.75 v 0 c 0,0.966 -0.784,1.75 -1.75,1.75 v 0 C 2.784,20.5 2,19.716 2,18.75 v 0 V 14 c 0,-2.208 1.792,-4 4,-4 h 43.5 c 2.208,0 4,1.792 4,4 v 17.75 0 c 0,0.966 -0.784,1.75 -1.75,1.75 v 0 C 50.784,33.5 50,32.716 50,31.75 v 0 -16.25 c 0,-1.104 -0.896,-2 -2,-2 H 7.5 c -1.104,0 -2,0.896 -2,2 z m 44.5,21 v 0 C 50,38.784 50.784,38 51.75,38 v 0 c 0.966,0 1.75,0.784 1.75,1.75 v 0 3.75 c 0,2.208 -1.792,4 -4,4 H 6 c -2.208,0 -4,-1.792 -4,-4 v -16.75 0 C 2,25.784 2.784,25 3.75,25 v 0 c 0.966,0 1.75,0.784 1.75,1.75 v 0 V 42 c 0,1.104 0.896,2 2,2 H 48 c 1.104,0 2,-0.896 2,-2 z M 19.67,35.66 v 0 c 0.762,-0.32 1.642,0.038 1.965,0.8 v 0 c 0.323,0.762 -0.033,1.64 -0.795,1.96 v 0 c -1.3,0.55 -2.69,0.83 -4.09,0.83 -2.78,0 -5.46,-1.11 -7.42,-3.08 -1.97,-1.96 -3.08,-4.64 -3.08,-7.42 0,-2.78 1.11,-5.46 3.08,-7.42 1.96,-1.97 4.64,-3.08 7.42,-3.08 2.78,0 5.46,1.11 7.42,3.08 1.97,1.96 3.08,4.64 3.08,7.42 0,1.65 -0.39,3.28 -1.14,4.75 v 0 c -0.375,0.74 -1.278,1.035 -2.015,0.66 v 0 c -0.737,-0.375 -1.03,-1.28 -0.655,-2.02 v 0 c 0.53,-1.05 0.81,-2.21 0.81,-3.39 0,-1.99 -0.79,-3.9 -2.2,-5.3 -1.4,-1.41 -3.31,-2.2 -5.3,-2.2 -1.99,0 -3.9,0.79 -5.3,2.2 -1.41,1.4 -2.2,3.31 -2.2,5.3 0,1.99 0.79,3.9 2.2,5.3 1.4,1.41 3.31,2.2 5.3,2.2 1,0 2,-0.2 2.92,-0.59 z M 34.25,24.25 v 0 c 0.828,0 1.5,0.672 1.5,1.5 v 0 c 0,0.828 -0.672,1.5 -1.5,1.5 v 0 h -4 c -1.104,0 -2,-0.896 -2,-2 v -7 c 0,-1.104 0.896,-2 2,-2 h 17 c 1.104,0 2,0.896 2,2 v 7 c 0,1.104 -0.896,2 -2,2 H 40.5 c -1.104,0 -2,-0.896 -2,-2 v -3.5 0 c 0,-0.828 0.672,-1.5 1.5,-1.5 v 0 c 0.828,0 1.5,0.672 1.5,1.5 v 0 2.5 h 4.75 v -5 h -15 v 5 z m -2,10.5 c 0,-0.4 0.16,-0.78 0.44,-1.06 0.28,-0.28 0.66,-0.44 1.06,-0.44 0.4,0 0.78,0.16 1.06,0.44 0.28,0.28 0.44,0.66 0.44,1.06 0,0.4 -0.16,0.78 -0.44,1.06 -0.28,0.28 -0.66,0.44 -1.06,0.44 -0.4,0 -0.78,-0.16 -1.06,-0.44 -0.28,-0.28 -0.44,-0.66 -0.44,-1.06 z m 10,0 c 0,-0.4 0.16,-0.78 0.44,-1.06 0.28,-0.28 0.66,-0.44 1.06,-0.44 0.4,0 0.78,0.16 1.06,0.44 0.28,0.28 0.44,0.66 0.44,1.06 0,0.4 -0.16,0.78 -0.44,1.06 -0.28,0.28 -0.66,0.44 -1.06,0.44 -0.4,0 -0.78,-0.16 -1.06,-0.44 -0.28,-0.28 -0.44,-0.66 -0.44,-1.06 z m -30.993,-8.91 7.71,-2.754 c 0.52,-0.185 1.093,0.086 1.278,0.606 l 0.169,0.471 c 0.185,0.519 -0.086,1.092 -0.606,1.278 l -7.71,2.753 c -0.52,0.186 -1.093,-0.085 -1.278,-0.605 l -0.168,-0.471 c -0.186,-0.52 0.085,-1.092 0.605,-1.278 z m 2.436,6 7.71,-2.754 c 0.52,-0.185 1.092,0.086 1.278,0.606 l 0.168,0.471 c 0.186,0.519 -0.085,1.092 -0.605,1.278 l -7.711,2.753 c -0.519,0.186 -1.092,-0.085 -1.278,-0.605 l -0.168,-0.471 c -0.186,-0.52 0.086,-1.092 0.606,-1.278 z m 15.557,2.91 c 0,-1.19 0.47,-2.34 1.32,-3.18 0.84,-0.85 1.99,-1.32 3.18,-1.32 1.19,0 2.34,0.47 3.18,1.32 0.85,0.84 1.32,1.99 1.32,3.18 0,1.19 -0.47,2.34 -1.32,3.18 -0.84,0.85 -1.99,1.32 -3.18,1.32 -1.19,0 -2.34,-0.47 -3.18,-1.32 -0.85,-0.84 -1.32,-1.99 -1.32,-3.18 z m 10,0 c 0,-1.19 0.47,-2.34 1.32,-3.18 0.84,-0.85 1.99,-1.32 3.18,-1.32 1.19,0 2.34,0.47 3.18,1.32 0.85,0.84 1.32,1.99 1.32,3.18 0,1.19 -0.47,2.34 -1.32,3.18 -0.84,0.85 -1.99,1.32 -3.18,1.32 -1.19,0 -2.34,-0.47 -3.18,-1.32 -0.85,-0.84 -1.32,-1.99 -1.32,-3.18 z m -25.557,-6.454 5.274,-1.884 c 0.52,-0.186 1.093,0.085 1.278,0.605 l 0.169,0.471 c 0.185,0.52 -0.086,1.092 -0.606,1.278 l -5.275,1.884 c -0.519,0.185 -1.092,-0.086 -1.278,-0.606 l -0.168,-0.47 c -0.186,-0.52 0.086,-1.093 0.606,-1.278 z"
       style="fill:url(#_lgradient_9);fill-rule:evenodd"
       inkscape:connector-curvature="0" />
  </g>
</svg>
