<?xml version="1.0" encoding="UTF-8" standalone="no"?>
<!-- Generator: Gravit.io -->

<svg
   xmlns:dc="http://purl.org/dc/elements/1.1/"
   xmlns:cc="http://creativecommons.org/ns#"
   xmlns:rdf="http://www.w3.org/1999/02/22-rdf-syntax-ns#"
   xmlns:svg="http://www.w3.org/2000/svg"
   xmlns="http://www.w3.org/2000/svg"
   xmlns:sodipodi="http://sodipodi.sourceforge.net/DTD/sodipodi-0.dtd"
   xmlns:inkscape="http://www.inkscape.org/namespaces/inkscape"
   style="isolation:isolate"
   viewBox="0 0 36 36"
   width="48"
   height="48"
   version="1.1"
   id="svg21"
   sodipodi:docname="rambox.svg"
   inkscape:version="0.92.4 (5da689c313, 2019-01-14)">
  <metadata
     id="metadata27">
    <rdf:RDF>
      <cc:Work
         rdf:about="">
        <dc:format>image/svg+xml</dc:format>
        <dc:type
           rdf:resource="http://purl.org/dc/dcmitype/StillImage" />
        <dc:title></dc:title>
      </cc:Work>
    </rdf:RDF>
  </metadata>
  <defs
     id="defs25" />
  <sodipodi:namedview
     pagecolor="#ffffff"
     bordercolor="#666666"
     borderopacity="1"
     objecttolerance="10"
     gridtolerance="10"
     guidetolerance="10"
     inkscape:pageopacity="0"
     inkscape:pageshadow="2"
     inkscape:window-width="640"
     inkscape:window-height="480"
     id="namedview23"
     showgrid="false"
     inkscape:zoom="29.365243"
     inkscape:cx="25.325443"
     inkscape:cy="32"
     inkscape:current-layer="svg21"
     units="px" />
  <linearGradient
     id="_lgradient_8"
     x1="-3.8208334e-05"
     y1="0.50000006"
     x2="0.99996185"
     y2="0.50000006"
     gradientTransform="matrix(26.7,0,0,29.62,6.254,15)"
     gradientUnits="userSpaceOnUse">
    <stop
       offset="0%"
       stop-opacity="1"
       style="stop-color:rgb(0,198,255)"
       id="stop2" />
    <stop
       offset="98.69565217391305%"
       stop-opacity="1"
       style="stop-color:rgb(0,114,255)"
       id="stop4" />
  </linearGradient>
  <linearGradient
     id="_lgradient_9"
     x1="4.5053024"
     y1="27.583298"
     x2="33.517208"
     y2="41.012959"
     gradientTransform="scale(0.94466669,1.0585744)"
     gradientUnits="userSpaceOnUse">
    <stop
       offset="0%"
       stop-opacity="1"
       style="stop-color:rgb(0,196,255)"
       id="stop7" />
    <stop
       offset="83.88839793817618%"
       stop-opacity="1"
       style="stop-color:rgb(0,114,255)"
       id="stop9" />
  </linearGradient>
  <linearGradient
     id="_lgradient_10"
     x1="0"
     y1="0.5"
     x2="0.90748805"
     y2="0.92007786"
     gradientTransform="matrix(47.998,0,0,47.998,0.077,0)"
     gradientUnits="userSpaceOnUse">
    <stop
       offset="0%"
       stop-opacity="1"
       style="stop-color:rgb(0,196,255)"
       id="stop14" />
    <stop
       offset="83.88839793817618%"
       stop-opacity="1"
       style="stop-color:rgb(0,114,255)"
       id="stop16" />
  </linearGradient>
  <g
     id="g839"
     transform="matrix(0.75002673,0,0,0.75002673,-0.05801734,-2.0328676e-4)">
    <path
       id="path12"
       stroke-miterlimit="4"
       d="m 23.08,15 c -1.9,0.995 -2.73,2.793 -3.59,4.488 -0.547,-0.739 -0.686,-1.775 -0.898,-2.693 -1.679,2.212 -2.42,5.887 -3.096,8.097 -0.957,3.144 -2.176,5.073 -3.918,6.196 -1.034,0.668 -1.962,1.01 -3.967,1.464 -0.507,0.151 -1.137,0.292 -1.357,0.342 0.623,1.691 1.492,3.262 2.563,4.669 0.258,0.339 0.528,0.668 0.81,0.988 0.031,0.036 0.064,0.07 0.096,0.105 0.792,0.885 1.674,1.685 2.627,2.397 0.114,0.085 0.224,0.174 0.34,0.256 0.265,0.189 0.539,0.367 0.815,0.542 0.154,0.096 0.31,0.191 0.468,0.283 0.27,0.16 0.54,0.316 0.819,0.462 0.184,0.096 0.374,0.18 0.563,0.27 0.435,0.208 0.88,0.398 1.335,0.571 0.261,0.099 0.521,0.199 0.787,0.286 0.241,0.079 0.486,0.147 0.731,0.215 0.267,0.075 0.534,0.143 0.805,0.206 0.324,0.074 0.647,0.152 0.979,0.208 0.907,0.157 1.838,0.246 2.788,0.261 h 0.008 c 0.097,0.002 0.193,0.007 0.292,0.007 0.268,0 0.533,-0.008 0.798,-0.018 1.044,-1.623 1.179,-4.158 0.829,-5.646 -0.213,-0.842 -0.766,-2.355 -0.729,-2.414 0.037,-0.059 0.938,0.032 1.705,0.032 0.907,0 1.572,0.033 2.052,-0.113 0.406,-0.123 0.891,-0.323 1.18,-0.308 1.28,0.064 2.902,-0.517 3.331,-1.656 0.132,-0.355 0.362,-0.811 0.509,-1.014 0.242,-0.333 0.25,-0.427 0.095,-0.95 -0.219,-0.74 -0.665,-1.354 -1.609,-2.217 -0.715,-0.652 -0.944,-0.719 -0.98,-1.42 -0.026,-0.513 0.112,-0.873 -0.167,-1.135 -0.315,-0.298 -1.245,-0.107 -1.297,-0.112 -0.331,-0.386 -0.647,-0.788 -0.037,-1.345 0.462,-0.422 0.546,-0.58 0.546,-1.041 0,-0.454 -0.083,-0.616 -0.483,-0.967 -0.264,-0.231 -0.548,-0.42 -0.633,-0.42 -0.083,0 -0.509,-0.339 -0.942,-0.752 -0.842,-0.801 -1.493,-0.943 -2.148,-0.943 -0.531,0 -1.122,-0.131 -1.122,-0.898 0.705,-2.554 3.43,-3.898 4.488,-4.488 -2.68,-0.38 -4.505,0.181 -6.283,1.795 -0.084,-0.938 0.798,-2.984 0.897,-3.59 z"
       style="vector-effect:non-scaling-stroke;fill:url(#_lgradient_8);stroke:url(#_lgradient_9);stroke-width:3;stroke-linecap:butt;stroke-linejoin:miter;stroke-miterlimit:4"
       inkscape:connector-curvature="0" />
    <path
       id="path19"
       d="m 42.858,30.879 v 0 c -0.379,1.036 0.155,2.184 1.191,2.563 v 0 c 1.036,0.379 2.184,-0.155 2.563,-1.191 v 0 C 47.485,29.88 47.973,27.385 48.061,24.867 48.352,16.522 44.286,8.595 37.323,3.989 33.646,1.549 29.351,0.169 24.944,0.015 16.599,-0.277 8.672,3.789 4.066,10.753 1.627,14.43 0.246,18.714 0.092,23.132 c -0.291,8.345 3.774,16.271 10.738,20.877 3.677,2.44 7.961,3.82 12.379,3.975 5.636,0.196 11.172,-1.592 15.625,-5.048 v 0 c 0.869,-0.682 1.025,-1.943 0.349,-2.815 v 0 c -0.677,-0.871 -1.936,-1.025 -2.81,-0.343 v 0 C 32.66,42.66 28.055,44.15 23.348,43.986 19.681,43.858 16.108,42.713 13.038,40.674 7.238,36.829 3.847,30.227 4.09,23.271 c 0.128,-3.678 1.273,-7.24 3.311,-10.31 3.845,-5.8 10.448,-9.191 17.403,-8.949 3.668,0.128 7.24,1.274 10.311,3.312 5.799,3.845 9.191,10.447 8.948,17.403 -0.073,2.099 -0.476,4.176 -1.205,6.152 z"
       style="fill:url(#_lgradient_10);fill-rule:evenodd"
       inkscape:connector-curvature="0" />
  </g>
</svg>
