<?xml version="1.0" encoding="UTF-8" standalone="no"?>
<!-- Generator: Gravit.io -->

<svg
   xmlns:dc="http://purl.org/dc/elements/1.1/"
   xmlns:cc="http://creativecommons.org/ns#"
   xmlns:rdf="http://www.w3.org/1999/02/22-rdf-syntax-ns#"
   xmlns:svg="http://www.w3.org/2000/svg"
   xmlns="http://www.w3.org/2000/svg"
   xmlns:sodipodi="http://sodipodi.sourceforge.net/DTD/sodipodi-0.dtd"
   xmlns:inkscape="http://www.inkscape.org/namespaces/inkscape"
   style="isolation:isolate"
   viewBox="0 0 36 36"
   width="48"
   height="48"
   version="1.1"
   id="svg43"
   sodipodi:docname="rider.svg"
   inkscape:version="0.92.4 (5da689c313, 2019-01-14)">
  <metadata
     id="metadata49">
    <rdf:RDF>
      <cc:Work
         rdf:about="">
        <dc:format>image/svg+xml</dc:format>
        <dc:type
           rdf:resource="http://purl.org/dc/dcmitype/StillImage" />
        <dc:title></dc:title>
      </cc:Work>
    </rdf:RDF>
  </metadata>
  <defs
     id="defs47" />
  <sodipodi:namedview
     pagecolor="#ffffff"
     bordercolor="#666666"
     borderopacity="1"
     objecttolerance="10"
     gridtolerance="10"
     guidetolerance="10"
     inkscape:pageopacity="0"
     inkscape:pageshadow="2"
     inkscape:window-width="640"
     inkscape:window-height="480"
     id="namedview45"
     showgrid="false"
     inkscape:zoom="29.365243"
     inkscape:cx="25.325443"
     inkscape:cy="32"
     inkscape:current-layer="svg43"
     units="px" />
  <linearGradient
     id="_lgradient_22"
     x1="-0.014458464"
     y1="0.009839246"
     x2="1.0164566"
     y2="1.072293"
     gradientTransform="matrix(10.97,0,0,18.678,37.03,11.28)"
     gradientUnits="userSpaceOnUse">
    <stop
       offset="0%"
       stop-opacity="1"
       style="stop-color:rgb(249,212,35)"
       id="stop2" />
    <stop
       offset="51.56237565086822%"
       stop-opacity="1"
       style="stop-color:rgb(255,78,80)"
       id="stop4" />
    <stop
       offset="99.1304347826087%"
       stop-opacity="1"
       style="stop-color:rgb(138,35,135)"
       id="stop6" />
  </linearGradient>
  <linearGradient
     id="_lgradient_23"
     x1="0.0625"
     y1="0.995"
     x2="0.73036504"
     y2="-0.38907081"
     gradientTransform="matrix(23.3,0,0,33.268,24.27,15.062)"
     gradientUnits="userSpaceOnUse">
    <stop
       offset="0%"
       stop-opacity="1"
       style="stop-color:rgb(22,181,228)"
       id="stop11" />
    <stop
       offset="93.21752630371869%"
       stop-opacity="1"
       style="stop-color:rgb(234,40,249)"
       id="stop13" />
    <stop
       offset="98.26086956521739%"
       stop-opacity="1"
       style="stop-color:rgb(245,32,250)"
       id="stop15" />
  </linearGradient>
  <linearGradient
     id="_lgradient_24"
     x1="0.74553573"
     y1="1.0444444"
     x2="0.70089287"
     y2="0.097222224"
     gradientTransform="matrix(32,0,0,47.73,0.82,-0.36)"
     gradientUnits="userSpaceOnUse">
    <stop
       offset="0%"
       stop-opacity="1"
       style="stop-color:rgb(255,224,49)"
       id="stop20" />
    <stop
       offset="100%"
       stop-opacity="1"
       style="stop-color:rgb(250,0,117)"
       id="stop22" />
  </linearGradient>
  <linearGradient
     id="_lgradient_25"
     x1="-3.8208334e-05"
     y1="0.50000006"
     x2="0.99996185"
     y2="0.50000006"
     gradientTransform="matrix(17.59,0,0,11.6,19.17,-0.19)"
     gradientUnits="userSpaceOnUse">
    <stop
       offset="0%"
       stop-opacity="1"
       style="stop-color:rgb(0,198,255)"
       id="stop27" />
    <stop
       offset="98.69565217391305%"
       stop-opacity="1"
       style="stop-color:rgb(0,114,255)"
       id="stop29" />
  </linearGradient>
  <linearGradient
     id="_lgradient_26"
     x1="0.34027779"
     y1="0.036585364"
     x2="1.0087188"
     y2="1.0127324"
     gradientTransform="matrix(29,0,0,29,9.5,9.5)"
     gradientUnits="userSpaceOnUse">
    <stop
       offset="0%"
       stop-opacity="1"
       style="stop-color:rgb(156,51,196)"
       id="stop34" />
    <stop
       offset="51.30434782608696%"
       stop-opacity="1"
       style="stop-color:rgb(255,25,80)"
       id="stop36" />
    <stop
       offset="98.69565217391305%"
       stop-opacity="1"
       style="stop-color:rgb(255,135,36)"
       id="stop38" />
  </linearGradient>
  <g
     id="g861"
     transform="matrix(0.73937153,0,0,0.73937153,-0.04805905,0.26617385)">
    <path
       id="path9"
       d="m 37.03,15.75 0.16,-0.97 0.03,-3.5 1.75,0.97 9.03,6.167 -3.34,7.693 -1.53,3.848 -2.9,-4.408 1.11,-1.66 1.79,-4.19 z"
       style="fill:url(#_lgradient_22)"
       inkscape:connector-curvature="0" />
    <path
       id="path18"
       d="m 37.19,22.85 v -2.304 l 0.81,-5.484 2.81,6.088 6.76,18.62 -13.53,8.56 -8.03,-3.59 -1.74,-1 1.99,-3.47 1.73,0.99 5.97,2.41 8.47,-5.44 z"
       style="fill:url(#_lgradient_23)"
       inkscape:connector-curvature="0" />
    <path
       id="path25"
       d="m 28,37 h 1 l 3.82,1.15 -1.48,1.34 -10.98,7.88 -15.16,-5 -4.38,-32.29 14.08,-10.44 8.09,4.62 1.74,1 -1.99,3.47 -1.73,-0.99 -5.91,-3.38 -9.92,7.56 3.62,27.71 10.84,3 z"
       style="fill:url(#_lgradient_24)"
       inkscape:connector-curvature="0" />
    <path
       id="path32"
       d="M 23.41,11.41 21.455,11.06 19.17,10 l 1.42,-1.41 8.77,-8.78 6.34,9.13 1.06,1.7 -3.4,0.42 H 32.3 L 28.64,6.19 Z"
       style="fill:url(#_lgradient_25)"
       inkscape:connector-curvature="0" />
    <path
       id="path41"
       d="m 35.978,31.218 v 0 c 0,-0.695 0.565,-1.26 1.261,-1.26 v 0 c 0.696,0 1.261,0.565 1.261,1.26 v 0 4.13 c 0,1.74 -1.412,3.152 -3.152,3.152 H 12.652 C 10.912,38.5 9.5,37.088 9.5,35.348 v -11.978 0 c 0,-0.696 0.565,-1.261 1.261,-1.261 v 0 c 0.696,0 1.261,0.565 1.261,1.261 v 0 10.717 c 0,1.044 0.847,1.891 1.891,1.891 h 20.174 c 1.044,0 1.891,-0.847 1.891,-1.891 z M 12.022,16.782 v 0 c 0,0.695 -0.565,1.26 -1.261,1.26 v 0 c -0.696,0 -1.261,-0.565 -1.261,-1.26 v 0 -4.13 C 9.5,10.912 10.912,9.5 12.652,9.5 h 22.696 c 1.74,0 3.152,1.412 3.152,3.152 v 12.495 0 c 0,0.696 -0.565,1.261 -1.261,1.261 v 0 c -0.696,0 -1.261,-0.565 -1.261,-1.261 v 0 -11.234 c 0,-1.044 -0.847,-1.891 -1.891,-1.891 H 13.913 c -1.044,0 -1.891,0.847 -1.891,1.891 z M 14,30.5 h 9 V 33 h -9 z m 2.334,-13.527 v 2.972 h 0.752 v 0 q 1.106,0 1.633,-0.369 v 0 0 q 0.526,-0.369 0.526,-1.159 v 0 0 q 0,-0.782 -0.538,-1.113 v 0 0 q -0.538,-0.331 -1.666,-0.331 v 0 z m 14.543,3.544 v 0 0 q 0,-3.544 -3.13,-3.544 v 0 h -1.241 v 7.163 h 1.001 v 0 q 3.37,0 3.37,-3.619 z m -13.302,1.324 h -1.241 v 4.221 h -2.333 v -11 h 3.205 v 0 q 2.242,0 3.318,0.816 v 0 0 q 1.076,0.816 1.076,2.479 v 0 0 q 0,0.971 -0.534,1.727 v 0 0 q -0.534,0.756 -1.512,1.185 v 0 0 q 2.483,3.709 3.235,4.793 v 0 H 20.201 Z M 33.3,20.456 v 0 0 q 0,2.717 -1.546,4.161 v 0 0 q -1.546,1.445 -4.466,1.445 v 0 h -3.115 v -11 h 3.454 v 0 q 2.694,0 4.183,1.422 v 0 0 q 1.49,1.422 1.49,3.972 z"
       style="fill:url(#_lgradient_26);fill-rule:evenodd"
       inkscape:connector-curvature="0" />
  </g>
</svg>
