<?xml version="1.0" encoding="UTF-8" standalone="no"?>
<!-- Generator: Gravit.io -->

<svg
   xmlns:dc="http://purl.org/dc/elements/1.1/"
   xmlns:cc="http://creativecommons.org/ns#"
   xmlns:rdf="http://www.w3.org/1999/02/22-rdf-syntax-ns#"
   xmlns:svg="http://www.w3.org/2000/svg"
   xmlns="http://www.w3.org/2000/svg"
   xmlns:sodipodi="http://sodipodi.sourceforge.net/DTD/sodipodi-0.dtd"
   xmlns:inkscape="http://www.inkscape.org/namespaces/inkscape"
   style="isolation:isolate"
   viewBox="0 0 36 36"
   width="48"
   height="48"
   version="1.1"
   id="svg9"
   sodipodi:docname="rstudio.svg"
   inkscape:version="0.92.4 (5da689c313, 2019-01-14)">
  <metadata
     id="metadata15">
    <rdf:RDF>
      <cc:Work
         rdf:about="">
        <dc:format>image/svg+xml</dc:format>
        <dc:type
           rdf:resource="http://purl.org/dc/dcmitype/StillImage" />
        <dc:title></dc:title>
      </cc:Work>
    </rdf:RDF>
  </metadata>
  <defs
     id="defs13" />
  <sodipodi:namedview
     pagecolor="#ffffff"
     bordercolor="#666666"
     borderopacity="1"
     objecttolerance="10"
     gridtolerance="10"
     guidetolerance="10"
     inkscape:pageopacity="0"
     inkscape:pageshadow="2"
     inkscape:window-width="640"
     inkscape:window-height="480"
     id="namedview11"
     showgrid="false"
     inkscape:zoom="29.365243"
     inkscape:cx="25.325443"
     inkscape:cy="32"
     inkscape:current-layer="svg9"
     units="px" />
  <linearGradient
     id="_lgradient_2"
     x1="0.040624999"
     y1="0.054347824"
     x2="0.96835077"
     y2="0.97395134"
     gradientTransform="scale(48)"
     gradientUnits="userSpaceOnUse">
    <stop
       offset="0%"
       stop-opacity="1"
       style="stop-color:rgb(240,107,169)"
       id="stop2" />
    <stop
       offset="98.69565217391305%"
       stop-opacity="1"
       style="stop-color:rgb(66,216,246)"
       id="stop4" />
  </linearGradient>
  <g
     id="g826"
     transform="scale(0.75)">
    <path
       id="path7"
       d="m 19.864,22.997 h 1.754 c 4.262,0 6.017,-1.504 6.017,-3.76 0,-2.507 -1.755,-3.51 -4.262,-3.51 -1.002,0 -2.256,0 -3.509,0.251 z m 10.779,9.276 h 2.507 v 2.005 h -3.76 l -6.267,-9.526 h -3.259 v 7.27 h 3.259 v 2.005 H 14.85 v -2.005 h 2.758 V 15.978 L 14.85,15.477 v -1.755 c 1.003,0.251 2.005,0.501 3.008,0.501 1.755,0 3.51,-0.501 5.265,-0.501 3.259,0 6.517,1.504 6.517,5.264 0,3.009 -1.754,4.763 -4.512,5.515 z M 17.78,43.01 v 0 c -1.049,-0.342 -2.178,0.231 -2.52,1.28 v 0 c -0.342,1.049 0.231,2.178 1.28,2.52 v 0 C 18.94,47.6 21.45,48 23.97,48 32.32,48 40.1,43.66 44.46,36.54 46.77,32.78 48,28.44 48,24.03 48,15.68 43.66,7.9 36.54,3.54 32.78,1.23 28.45,0 24.03,0 15.68,0 7.9,4.34 3.54,11.46 1.23,15.22 0,19.55 0,23.97 0,29.61 1.98,35.08 5.59,39.41 v 0 c 0.712,0.844 1.978,0.956 2.825,0.25 v 0 C 9.262,38.954 9.372,37.69 8.66,36.84 v 0 C 5.65,33.23 4,28.68 4,23.97 4,20.3 5.02,16.69 6.95,13.55 10.59,7.62 17.07,4 24.03,4 27.71,4 31.31,5.02 34.45,6.95 40.38,10.59 44,17.07 44,24.03 44,27.7 42.98,31.31 41.05,34.45 37.41,40.38 30.93,44 23.97,44 c -2.1,0 -4.19,-0.33 -6.19,-0.99 z"
       inkscape:connector-curvature="0"
       style="fill:url(#_lgradient_2);fill-rule:evenodd" />
  </g>
</svg>
