<?xml version="1.0" encoding="UTF-8" standalone="no"?>
<!-- Generator: Gravit.io -->

<svg
   xmlns:dc="http://purl.org/dc/elements/1.1/"
   xmlns:cc="http://creativecommons.org/ns#"
   xmlns:rdf="http://www.w3.org/1999/02/22-rdf-syntax-ns#"
   xmlns:svg="http://www.w3.org/2000/svg"
   xmlns="http://www.w3.org/2000/svg"
   xmlns:sodipodi="http://sodipodi.sourceforge.net/DTD/sodipodi-0.dtd"
   xmlns:inkscape="http://www.inkscape.org/namespaces/inkscape"
   style="isolation:isolate"
   viewBox="0 0 36 36"
   width="48"
   height="48"
   version="1.1"
   id="svg9"
   sodipodi:docname="scratch.svg"
   inkscape:version="0.92.4 (5da689c313, 2019-01-14)">
  <metadata
     id="metadata15">
    <rdf:RDF>
      <cc:Work
         rdf:about="">
        <dc:format>image/svg+xml</dc:format>
        <dc:type
           rdf:resource="http://purl.org/dc/dcmitype/StillImage" />
        <dc:title></dc:title>
      </cc:Work>
    </rdf:RDF>
  </metadata>
  <defs
     id="defs13" />
  <sodipodi:namedview
     pagecolor="#ffffff"
     bordercolor="#666666"
     borderopacity="1"
     objecttolerance="10"
     gridtolerance="10"
     guidetolerance="10"
     inkscape:pageopacity="0"
     inkscape:pageshadow="2"
     inkscape:window-width="640"
     inkscape:window-height="480"
     id="namedview11"
     showgrid="false"
     inkscape:zoom="29.365243"
     inkscape:cx="25.325443"
     inkscape:cy="32"
     inkscape:current-layer="svg9"
     units="px" />
  <linearGradient
     id="_lgradient_24"
     x1="0"
     y1="0.5"
     x2="1"
     y2="0.5"
     gradientTransform="matrix(47.001,0,0,42.091,0.999,2.959)"
     gradientUnits="userSpaceOnUse">
    <stop
       offset="0%"
       stop-opacity="1"
       style="stop-color:rgb(255,224,49)"
       id="stop2" />
    <stop
       offset="98.69565217391305%"
       stop-opacity="1"
       style="stop-color:rgb(252,82,82)"
       id="stop4" />
  </linearGradient>
  <g
     id="g826"
     transform="matrix(0.76594559,0,0,0.76594559,-0.76566695,-0.38623582)">
    <path
       id="path7"
       d="m 42.042,30.6 c 0.227,-0.978 0.367,-1.975 0.424,-2.979 0.592,0.377 1.143,0.816 1.644,1.309 0.78,0.78 1.46,1.65 2.03,2.59 v 0 c 0.287,0.469 0.903,0.619 1.375,0.335 v 0 c 0.472,-0.284 0.626,-0.9 0.345,-1.375 v 0 C 47.2,29.4 46.42,28.4 45.52,27.51 44.75,26.74 43.87,26.09 42.91,25.57 42.759,25.489 42.606,25.412 42.452,25.338 42.242,22.013 41.13,18.796 39.23,16.04 v 0 H 39.5 V 14.54 5.58 C 39.52,5.01 39.38,4.45 39.09,3.96 38.7,3.32 38,2.94 37.25,2.96 36.58,3 35.95,3.27 35.47,3.74 L 30.02,8.4 29.472,8.871 v 0 C 27.703,8.321 25.863,8.04 24.01,8.04 c -1.868,0 -3.716,0.283 -5.483,0.83 v 0 0 0 L 17.98,8.4 12.53,3.74 C 12.05,3.27 11.42,3 10.75,2.96 10,2.94 9.3,3.32 8.91,3.96 8.62,4.45 8.48,5.01 8.5,5.58 v 8.96 1.5 H 8.772 C 7.931,17.259 7.234,18.582 6.7,19.98 5.984,21.875 5.58,23.876 5.51,25.902 v 0 C 4.775,26.361 4.093,26.897 3.48,27.51 2.58,28.4 1.8,29.4 1.14,30.48 v 0 c -0.281,0.475 -0.127,1.091 0.345,1.375 v 0 c 0.472,0.284 1.088,0.134 1.375,-0.335 v 0 C 3.43,30.58 4.11,29.71 4.89,28.93 5.113,28.711 5.345,28.503 5.591,28.312 5.695,29.41 5.897,30.493 6.194,31.549 5.577,32.363 5.03,33.224 4.56,34.13 4,35.18 3.5,36.27 3.07,37.39 v 0 c -0.199,0.513 0.057,1.091 0.57,1.29 v 0 c 0.513,0.199 1.091,-0.057 1.29,-0.57 v 0 c 0.41,-1.04 0.87,-2.06 1.4,-3.05 0.207,-0.402 0.434,-0.795 0.686,-1.171 0.482,1.097 1.067,2.154 1.754,3.151 2.13,3.1 5.15,5.47 8.66,6.8 2.1,0.79 4.32,1.2 6.56,1.21 4.24,-0.01 8.36,-1.47 11.66,-4.14 v 0 c 0.64,-0.519 0.739,-1.462 0.22,-2.105 v 0 C 35.351,38.162 34.406,38.061 33.76,38.58 v 0 C 31,40.82 27.55,42.04 23.99,42.05 22.11,42.04 20.25,41.7 18.5,41.03 15.56,39.92 13.03,37.93 11.24,35.34 10.359,34.065 9.681,32.674 9.248,31.206 9.478,31.007 9.724,30.826 9.98,30.66 10.6,30.26 11.31,30.03 12.05,30 v 0 c 0.552,-0.028 0.978,-0.498 0.95,-1.05 v 0 C 12.972,28.398 12.502,27.972 11.95,28 v 0 c -1.08,0.05 -2.14,0.39 -3.05,0.97 -0.055,0.035 -0.109,0.071 -0.161,0.11 v 0 C 8.582,28.301 8.512,27.504 8.504,26.702 8.799,26.592 9.102,26.504 9.41,26.43 10.29,26.21 11.18,26.07 12.08,26 v 0 c 0.552,-0.044 0.964,-0.528 0.92,-1.08 v 0 C 12.956,24.368 12.472,23.956 11.92,24 v 0 c -1.01,0.08 -2.01,0.24 -2.99,0.48 -0.102,0.026 -0.204,0.053 -0.304,0.083 0.154,-1.2 0.45,-2.382 0.884,-3.523 1.12,-2.94 3.1,-5.47 5.69,-7.26 1.032,-0.709 2.141,-1.289 3.3,-1.729 v 1.491 0 c 0,0.828 0.672,1.5 1.5,1.5 v 0 c 0.828,0 1.5,-0.672 1.5,-1.5 v 0 -2.297 0 c 0.331,-0.055 0.665,-0.098 1,-0.131 v 0 4.428 0 c 0,0.828 0.672,1.5 1.5,1.5 v 0 c 0.828,0 1.5,-0.672 1.5,-1.5 v 0 -4.43 c 0.335,0.032 0.668,0.075 1,0.129 v 2.301 0 c 0,0.828 0.672,1.5 1.5,1.5 v 0 c 0.828,0 1.5,-0.672 1.5,-1.5 v 0 -1.492 0 0 0 0 c 2.94,1.12 5.47,3.1 7.26,5.69 1.36,1.967 2.234,4.217 2.548,6.566 v 0 C 38.573,24.163 37.829,24.059 37.08,24 v 0 C 36.528,23.956 36.044,24.368 36,24.92 v 0 c -0.044,0.552 0.368,1.036 0.92,1.08 v 0 c 0.868,0.068 1.727,0.2 2.576,0.408 0.004,0.047 0.004,0.095 0.004,0.142 0,0.681 -0.045,1.358 -0.131,2.03 C 38.645,28.235 37.853,28.037 37.05,28 v 0 C 36.498,27.972 36.028,28.398 36,28.95 v 0 c -0.028,0.552 0.398,1.022 0.95,1.05 v 0 c 0.711,0.029 1.394,0.242 1.995,0.616 -0.121,0.483 -0.276,0.958 -0.455,1.424 v 0 c -0.293,0.773 0.097,1.64 0.87,1.935 v 0 c 0.773,0.295 1.642,-0.092 1.94,-0.865 v 0 c 0.02,-0.054 0.04,-0.107 0.059,-0.162 0.488,0.67 0.931,1.376 1.311,2.112 0.53,0.99 0.99,2.01 1.4,3.05 v 0 c 0.199,0.513 0.777,0.769 1.29,0.57 v 0 c 0.513,-0.199 0.769,-0.777 0.57,-1.29 v 0 C 45.5,36.27 45,35.18 44.44,34.13 43.9,33.09 43.26,32.11 42.53,31.19 42.373,30.989 42.208,30.794 42.042,30.6 Z M 26.59,36.794 v 0 1.746 c 0,0.27 -0.1,0.52 -0.29,0.71 -0.19,0.19 -0.44,0.29 -0.71,0.29 H 24.4 c -0.26,0 -0.52,-0.1 -0.7,-0.29 -0.19,-0.19 -0.3,-0.44 -0.3,-0.71 v -1.37 -0.334 c 0.133,-0.055 0.263,-0.116 0.39,-0.184 0.42,-0.22 0.82,-0.48 1.2,-0.78 0.33,0.26 0.68,0.49 1.05,0.68 0.178,0.094 0.362,0.174 0.55,0.242 z M 15.41,10.157 c -0.657,0.344 -1.295,0.729 -1.91,1.153 -0.705,0.486 -1.373,1.019 -2,1.595 V 6.8 Z m 17.179,0 c 1.42,0.743 2.734,1.667 3.911,2.746 V 6.8 Z M 16.8,22.812 v 0 c -0.701,0.442 -1.628,0.231 -2.07,-0.47 v 0 c -0.442,-0.701 -0.231,-1.628 0.47,-2.07 v 0 c 0.6,-0.38 1.25,-0.68 1.93,-0.9 0.64,-0.21 1.32,-0.32 2,-0.33 1.37,0.03 2.69,0.48 3.77,1.3 v 0 c 0.662,0.503 0.794,1.446 0.295,2.105 v 0 c -0.499,0.66 -1.438,0.792 -2.095,0.295 v 0 c -0.58,-0.44 -1.27,-0.68 -1.99,-0.7 -0.35,0.01 -0.71,0.07 -1.05,0.18 -0.44,0.14 -0.87,0.34 -1.26,0.59 z m 11,0 v 0 c -0.701,0.442 -1.628,0.231 -2.07,-0.47 v 0 c -0.442,-0.701 -0.231,-1.628 0.47,-2.07 v 0 c 0.6,-0.38 1.25,-0.68 1.93,-0.9 0.64,-0.21 1.32,-0.32 2,-0.33 1.37,0.03 2.69,0.48 3.77,1.3 v 0 c 0.662,0.503 0.794,1.446 0.295,2.105 v 0 c -0.499,0.66 -1.438,0.792 -2.095,0.295 v 0 c -0.58,-0.44 -1.27,-0.68 -1.99,-0.7 -0.35,0.01 -0.71,0.07 -1.05,0.18 -0.44,0.14 -0.87,0.34 -1.26,0.59 z M 25,30.4 23.08,28 h 3.84 z m 3.59,6.601 v 1.539 c 0,0.8 -0.31,1.56 -0.88,2.12 -0.56,0.57 -1.32,0.88 -2.12,0.88 H 24.4 c -0.79,0 -1.56,-0.31 -2.12,-0.88 C 21.72,40.1 21.4,39.34 21.4,38.54 v -1.37 -0.016 c -0.569,-0.058 -1.116,-0.246 -1.61,-0.542 -0.62,-0.38 -1.16,-0.89 -1.6,-1.48 v 0 c -0.326,-0.447 -0.227,-1.074 0.22,-1.4 v 0 c 0.447,-0.325 1.074,-0.227 1.4,0.22 v 0 c 0.28,0.38 0.63,0.71 1.03,0.96 0.28,0.16 0.59,0.25 0.92,0.26 0.38,-0.01 0.76,-0.11 1.1,-0.29 0.87,-0.46 1.62,-1.12 1.62,-1.12 0.309,-0.447 0.766,-0.46 1.02,-0.03 0,0 0.67,0.63 1.46,1.05 0.33,0.17 0.69,0.26 1.05,0.26 0.36,0 0.72,-0.09 1.04,-0.26 0.45,-0.24 0.87,-0.55 1.22,-0.93 v 0 c 0.381,-0.397 1.015,-0.413 1.415,-0.035 v 0 c 0.4,0.378 0.42,1.012 0.045,1.415 v 0 c -0.51,0.53 -1.1,0.98 -1.76,1.33 -0.429,0.222 -0.899,0.372 -1.38,0.439 z M 22.02,26 h 5.96 c 0.34,-0.01 0.68,0.08 0.97,0.26 0.39,0.25 0.62,0.68 0.6,1.15 -0.02,0.37 -0.16,0.73 -0.41,1.02 l -2.73,3.4 c -0.33,0.44 -0.86,0.71 -1.41,0.71 -0.55,0 -1.08,-0.27 -1.41,-0.71 l -2.73,-3.4 c -0.25,-0.29 -0.39,-0.65 -0.41,-1.02 -0.02,-0.47 0.21,-0.9 0.6,-1.15 0.29,-0.18 0.63,-0.27 0.97,-0.26 z"
       style="fill:url(#_lgradient_24);fill-rule:evenodd"
       inkscape:connector-curvature="0" />
  </g>
</svg>
