<?xml version="1.0" encoding="UTF-8" standalone="no"?>
<!-- Generator: Gravit.io -->

<svg
   xmlns:dc="http://purl.org/dc/elements/1.1/"
   xmlns:cc="http://creativecommons.org/ns#"
   xmlns:rdf="http://www.w3.org/1999/02/22-rdf-syntax-ns#"
   xmlns:svg="http://www.w3.org/2000/svg"
   xmlns="http://www.w3.org/2000/svg"
   xmlns:sodipodi="http://sodipodi.sourceforge.net/DTD/sodipodi-0.dtd"
   xmlns:inkscape="http://www.inkscape.org/namespaces/inkscape"
   style="isolation:isolate"
   viewBox="0 0 36 36"
   width="48"
   height="48"
   version="1.1"
   id="svg16"
   sodipodi:docname="shutter.svg"
   inkscape:version="0.92.4 (5da689c313, 2019-01-14)">
  <metadata
     id="metadata22">
    <rdf:RDF>
      <cc:Work
         rdf:about="">
        <dc:format>image/svg+xml</dc:format>
        <dc:type
           rdf:resource="http://purl.org/dc/dcmitype/StillImage" />
        <dc:title></dc:title>
      </cc:Work>
    </rdf:RDF>
  </metadata>
  <defs
     id="defs20" />
  <sodipodi:namedview
     pagecolor="#ffffff"
     bordercolor="#666666"
     borderopacity="1"
     objecttolerance="10"
     gridtolerance="10"
     guidetolerance="10"
     inkscape:pageopacity="0"
     inkscape:pageshadow="2"
     inkscape:window-width="640"
     inkscape:window-height="480"
     id="namedview18"
     showgrid="false"
     inkscape:zoom="29.365243"
     inkscape:cx="25.325443"
     inkscape:cy="32"
     inkscape:current-layer="svg16"
     units="px" />
  <linearGradient
     id="_lgradient_12"
     x1="-3.8208334e-05"
     y1="0.50000006"
     x2="0.99996185"
     y2="0.50000006"
     gradientTransform="matrix(32.654,0,0,40.002,9.346,3.999)"
     gradientUnits="userSpaceOnUse">
    <stop
       offset="0%"
       stop-opacity="1"
       style="stop-color:rgb(0,198,255)"
       id="stop2" />
    <stop
       offset="98.69565217391305%"
       stop-opacity="1"
       style="stop-color:rgb(0,114,255)"
       id="stop4" />
  </linearGradient>
  <linearGradient
     id="_lgradient_13"
     x1="0"
     y1="0.5"
     x2="1"
     y2="0.5"
     gradientTransform="matrix(16.767,0,0,23.552,6,11.037)"
     gradientUnits="userSpaceOnUse">
    <stop
       offset="0%"
       stop-opacity="1"
       style="stop-color:rgb(117,127,154)"
       id="stop9" />
    <stop
       offset="98.69565217391305%"
       stop-opacity="1"
       style="stop-color:rgb(215,221,232)"
       id="stop11" />
  </linearGradient>
  <g
     id="g831"
     transform="matrix(0.89995114,0,0,0.89995114,-3.5987467,-3.5987715)">
    <path
       id="path7"
       d="M 36.961,4.001 C 31.327,4.066 22.635,5.633 19.918,8.87 H 19.912 C 17.744,12.022 17.468,24.358 18.031,23.598 22.645,17.335 33.704,9.601 40.309,6.493 43.875,4.808 41.343,3.95 36.961,4.001 Z m -5.44,10.215 c -3.813,0.275 -10.52,6.768 -9.578,6.731 7.799,-0.269 12.671,0.177 18.756,2.068 0.903,0.28 -0.973,-8.163 -9.178,-8.799 z m -4.125,6.76 c -0.201,0.011 -0.285,0.063 -0.217,0.16 4.457,6.403 6.722,10.74 8.438,16.878 0.254,0.91 6.327,-5.249 2.406,-12.485 -2.011,-2.675 -9.218,-4.627 -10.627,-4.553 z m 2.32,5.131 c -0.044,-0.011 -0.075,0.01 -0.09,0.067 -1.974,7.55 -3.797,12.095 -7.346,17.387 -0.53,0.781 8.097,1.4 11.05,-6.285 l 0.002,0.003 c 0.776,-3.502 -2.954,-11 -3.615,-11.173 z m -2.166,4.824 c -0.018,-0.004 -0.04,0 -0.066,0.012 -7.042,3.368 -11.687,4.91 -18.028,5.606 -0.936,0.107 4.153,7.098 11.931,4.398 l 0.007,-0.002 c 3.28,-1.722 6.716,-9.873 6.157,-10.014 z"
       style="fill:url(#_lgradient_12)"
       inkscape:connector-curvature="0" />
    <path
       id="path14"
       d="M 15.916,11.048 C 14.492,11.29 8.78,15.229 10.095,22.306 l 0.002,0.004 c 1.249,3.616 9.25,8.423 8.973,7.518 -2.272,-7.464 -3.093,-12.292 -2.84,-18.656 0.005,-0.118 -0.111,-0.158 -0.314,-0.123 z M 6.742,22.194 c -0.734,-0.096 -2.453,7.917 4.4,11.989 3.543,1.444 12.428,-1.402 11.566,-1.795 C 15.596,29.182 11.427,26.615 6.808,22.23 6.787,22.209 6.765,22.197 6.742,22.194 Z"
       style="fill:url(#_lgradient_13)"
       inkscape:connector-curvature="0" />
  </g>
</svg>
