<?xml version="1.0" encoding="UTF-8" standalone="no"?>
<!-- Generator: Gravit.io -->

<svg
   xmlns:dc="http://purl.org/dc/elements/1.1/"
   xmlns:cc="http://creativecommons.org/ns#"
   xmlns:rdf="http://www.w3.org/1999/02/22-rdf-syntax-ns#"
   xmlns:svg="http://www.w3.org/2000/svg"
   xmlns="http://www.w3.org/2000/svg"
   xmlns:sodipodi="http://sodipodi.sourceforge.net/DTD/sodipodi-0.dtd"
   xmlns:inkscape="http://www.inkscape.org/namespaces/inkscape"
   style="isolation:isolate"
   viewBox="0 0 36 36"
   width="48"
   height="48"
   version="1.1"
   id="svg16"
   sodipodi:docname="skype.svg"
   inkscape:version="0.92.4 (5da689c313, 2019-01-14)">
  <metadata
     id="metadata22">
    <rdf:RDF>
      <cc:Work
         rdf:about="">
        <dc:format>image/svg+xml</dc:format>
        <dc:type
           rdf:resource="http://purl.org/dc/dcmitype/StillImage" />
        <dc:title></dc:title>
      </cc:Work>
    </rdf:RDF>
  </metadata>
  <defs
     id="defs20" />
  <sodipodi:namedview
     pagecolor="#ffffff"
     bordercolor="#666666"
     borderopacity="1"
     objecttolerance="10"
     gridtolerance="10"
     guidetolerance="10"
     inkscape:pageopacity="0"
     inkscape:pageshadow="2"
     inkscape:window-width="640"
     inkscape:window-height="480"
     id="namedview18"
     showgrid="false"
     inkscape:zoom="29.365243"
     inkscape:cx="25.325443"
     inkscape:cy="32"
     inkscape:current-layer="svg16"
     units="px" />
  <linearGradient
     id="_lgradient_0"
     x1="0"
     y1="0.5"
     x2="0.90748805"
     y2="0.92007786"
     gradientTransform="matrix(43.01,0,0,42.58,2.495,2.71)"
     gradientUnits="userSpaceOnUse">
    <stop
       offset="0%"
       stop-opacity="1"
       style="stop-color:rgb(0,196,255)"
       id="stop2" />
    <stop
       offset="83.88839793817618%"
       stop-opacity="1"
       style="stop-color:rgb(0,114,255)"
       id="stop4" />
  </linearGradient>
  <linearGradient
     id="_lgradient_1"
     x1="0"
     y1="0.5"
     x2="0.90748805"
     y2="0.92007786"
     gradientTransform="matrix(16.667,0,0,25,15.667,11.5)"
     gradientUnits="userSpaceOnUse">
    <stop
       offset="0%"
       stop-opacity="1"
       style="stop-color:rgb(0,196,255)"
       id="stop9" />
    <stop
       offset="83.88839793817618%"
       stop-opacity="1"
       style="stop-color:rgb(0,114,255)"
       id="stop11" />
  </linearGradient>
  <g
     id="g831"
     transform="matrix(0.83701465,0,0,0.83701465,-2.0883516,-2.0883516)">
    <path
       id="path7"
       d="m 40.495,29.69 0.41,-2.15 c 0.27,-1.18 0.4,-2.39 0.4,-3.6 0,-2.88 -0.78,-5.7 -2.27,-8.17 -1.46,-2.41 -3.54,-4.39 -6.03,-5.72 -2.48,-1.32 -5.25,-2.01 -8.06,-2 -1.08,0 -2.17,0.1 -3.24,0.3 v 0 l -1.39,0.34 v 0 l -1.92,-0.98 c -1.19,-0.66 -2.53,-1 -3.89,-1 0,0 0,0 0,0 h -0.02 c 0,0 0,0 0,0 -2.11,0 -4.15,0.82 -5.66,2.3 -1.48,1.45 -2.32,3.44 -2.33,5.51 v 0.01 c 0,1.06 0.22,2.11 0.64,3.08 l 0.8,1.83 v 0 l -0.2,1.04 c -0.26,1.19 -0.39,2.4 -0.39,3.61 -0.01,2.88 0.78,5.7 2.26,8.17 1.47,2.41 3.55,4.38 6.03,5.72 2.48,1.32 5.25,2.01 8.06,2 1.09,0 2.18,-0.1 3.24,-0.3 v 0 l 1.83,-0.35 v 0 0 l 1.73,1 c 1.08,0.63 2.32,0.96 3.57,0.96 h 0.01 c 1.97,-0.01 3.85,-0.81 5.22,-2.23 1.42,-1.48 2.21,-3.45 2.21,-5.5 0,0 0,0 0,0 v -0.02 c 0,0 0,0 0,0 0,-1.06 -0.6,-2.87 -1.01,-3.85 z m 4.164,-0.587 0.156,-0.693 c 0.32,-1.46 0.49,-2.96 0.49,-4.47 0,-3.61 -0.98,-7.15 -2.85,-10.24 -1.83,-3.03 -4.44,-5.5 -7.56,-7.18 -3.06,-1.63 -6.48,-2.48 -9.95,-2.47 -1.33,0 -2.66,0.12 -3.97,0.37 L 20.783,4.455 20.315,4.2 c -1.78,-0.98 -3.78,-1.49 -5.81,-1.49 h -0.01 c -3.16,0 -6.2,1.23 -8.46,3.44 -2.26,2.2 -3.53,5.21 -3.54,8.36 0,0 0,0 0,0 v 0.02 c 0,0 0,0 0,0 0,1.61 0.33,3.21 0.98,4.69 l 0.297,0.68 c -0.287,1.377 -0.427,2.778 -0.427,4.18 -0.01,3.61 0.98,7.16 2.84,10.25 1.84,3.02 4.45,5.5 7.57,7.17 3.06,1.64 6.48,2.49 9.95,2.48 1.33,0 2.66,-0.12 3.97,-0.37 l 0.384,-0.071 0.436,0.251 c 1.69,0.98 3.61,1.5 5.56,1.5 0,0 0,0 0.01,0 h 0.01 c 0,0 0.01,0 0.01,0 3.05,-0.01 5.97,-1.26 8.09,-3.46 2.14,-2.22 3.33,-5.19 3.33,-8.27 v -0.01 c 0,-1.524 -0.285,-3.03 -0.846,-4.447 z"
       inkscape:connector-curvature="0"
       style="fill:url(#_lgradient_0);fill-rule:evenodd" />
    <path
       id="path14"
       d="m 24,15.667 c 2.258,0 4.167,1.431 4.167,3.125 0,1.15 0.933,2.083 2.083,2.083 1.15,0 2.083,-0.933 2.083,-2.083 0,-4.021 -3.738,-7.292 -8.333,-7.292 -4.595,0 -8.333,3.271 -8.333,7.292 0,4.021 3.738,7.291 8.333,7.291 2.258,0 4.167,1.432 4.167,3.125 0,1.694 -1.909,3.125 -4.167,3.125 -2.258,0 -4.167,-1.431 -4.167,-3.125 0,-1.15 -0.933,-2.083 -2.083,-2.083 -1.15,0 -2.083,0.933 -2.083,2.083 0,4.021 3.738,7.292 8.333,7.292 4.595,0 8.333,-3.271 8.333,-7.292 0,-4.021 -3.738,-7.291 -8.333,-7.291 -2.258,0 -4.167,-1.432 -4.167,-3.125 0,-1.694 1.909,-3.125 4.167,-3.125 z"
       inkscape:connector-curvature="0"
       style="fill:url(#_lgradient_1)" />
  </g>
</svg>
