<?xml version="1.0" encoding="UTF-8" standalone="no"?>
<!-- Generator: Gravit.io -->

<svg
   xmlns:dc="http://purl.org/dc/elements/1.1/"
   xmlns:cc="http://creativecommons.org/ns#"
   xmlns:rdf="http://www.w3.org/1999/02/22-rdf-syntax-ns#"
   xmlns:svg="http://www.w3.org/2000/svg"
   xmlns="http://www.w3.org/2000/svg"
   xmlns:sodipodi="http://sodipodi.sourceforge.net/DTD/sodipodi-0.dtd"
   xmlns:inkscape="http://www.inkscape.org/namespaces/inkscape"
   style="isolation:isolate"
   viewBox="0 0 36 36"
   width="48"
   height="48"
   version="1.1"
   id="svg37"
   sodipodi:docname="slack.svg"
   inkscape:version="0.92.4 (5da689c313, 2019-01-14)">
  <metadata
     id="metadata43">
    <rdf:RDF>
      <cc:Work
         rdf:about="">
        <dc:format>image/svg+xml</dc:format>
        <dc:type
           rdf:resource="http://purl.org/dc/dcmitype/StillImage" />
        <dc:title></dc:title>
      </cc:Work>
    </rdf:RDF>
  </metadata>
  <defs
     id="defs41" />
  <sodipodi:namedview
     pagecolor="#ffffff"
     bordercolor="#666666"
     borderopacity="1"
     objecttolerance="10"
     gridtolerance="10"
     guidetolerance="10"
     inkscape:pageopacity="0"
     inkscape:pageshadow="2"
     inkscape:window-width="640"
     inkscape:window-height="480"
     id="namedview39"
     showgrid="false"
     inkscape:zoom="29.365243"
     inkscape:cx="25.325443"
     inkscape:cy="32"
     inkscape:current-layer="svg37"
     units="px" />
  <linearGradient
     id="_lgradient_122"
     x1="0"
     y1="0.5"
     x2="1"
     y2="0.5"
     gradientTransform="matrix(14,0,0,13.694,25.111,9)"
     gradientUnits="userSpaceOnUse">
    <stop
       offset="0%"
       stop-opacity="1"
       style="stop-color:rgb(67,233,123)"
       id="stop2" />
    <stop
       offset="97.82608695652173%"
       stop-opacity="1"
       style="stop-color:rgb(56,249,215)"
       id="stop4" />
  </linearGradient>
  <linearGradient
     id="_lgradient_123"
     x1="0"
     y1="0.5"
     x2="0.90748805"
     y2="0.92007786"
     gradientTransform="matrix(14.5,0,0,13.694,25.111,24.306)"
     gradientUnits="userSpaceOnUse">
    <stop
       offset="0%"
       stop-opacity="1"
       style="stop-color:rgb(247,241,7)"
       id="stop9" />
    <stop
       offset="83.88839793817618%"
       stop-opacity="1"
       style="stop-color:rgb(255,187,36)"
       id="stop11" />
  </linearGradient>
  <linearGradient
     id="_lgradient_124"
     x1="0"
     y1="0.5"
     x2="1"
     y2="0.5"
     gradientTransform="matrix(13.694,0,0,13.694,9.806,24.306)"
     gradientUnits="userSpaceOnUse">
    <stop
       offset="0%"
       stop-opacity="1"
       style="stop-color:rgb(211,16,39)"
       id="stop16" />
    <stop
       offset="97.82608695652173%"
       stop-opacity="1"
       style="stop-color:rgb(234,56,77)"
       id="stop18" />
  </linearGradient>
  <linearGradient
     id="_lgradient_125"
     x1="0"
     y1="0.5"
     x2="0.90748805"
     y2="0.92007786"
     gradientTransform="matrix(14.805,0,0,13.194,9,9.5)"
     gradientUnits="userSpaceOnUse">
    <stop
       offset="0%"
       stop-opacity="1"
       style="stop-color:rgb(0,196,255)"
       id="stop23" />
    <stop
       offset="83.88839793817618%"
       stop-opacity="1"
       style="stop-color:rgb(0,114,255)"
       id="stop25" />
  </linearGradient>
  <linearGradient
     id="_lgradient_126"
     x1="0"
     y1="0.5"
     x2="1"
     y2="0.5"
     gradientTransform="scale(48,47.7)"
     gradientUnits="userSpaceOnUse">
    <stop
       offset="0%"
       stop-opacity="1"
       style="stop-color:rgb(117,127,154)"
       id="stop30" />
    <stop
       offset="98.69565217391305%"
       stop-opacity="1"
       style="stop-color:rgb(215,221,232)"
       id="stop32" />
  </linearGradient>
  <g
     id="g855"
     transform="matrix(0.75,0,0,0.75,0,0.28155109)">
    <path
       id="path7"
       d="m 28.333,9 v 0 c 1.779,0 3.223,1.488 3.223,3.321 v 7.052 c 0,1.833 -1.444,3.321 -3.223,3.321 v 0 c -1.778,0 -3.222,-1.488 -3.222,-3.321 V 12.321 C 25.111,10.488 26.555,9 28.333,9 Z m 5.462,13.694 h 2.515 c 1.04,0 2.186,-0.789 2.557,-1.762 q 0.716,-1.879 -0.672,-3.266 -1.387,-1.388 -3.266,-0.672 c -0.973,0.371 -1.762,1.517 -1.762,2.558 v 2.514 c 0,0.347 0.281,0.628 0.628,0.628 z"
       style="fill:url(#_lgradient_122);fill-rule:evenodd"
       inkscape:connector-curvature="0" />
    <path
       id="path14"
       d="m 25.111,27.528 v 0 c 0,-1.779 1.532,-3.222 3.418,-3.222 h 7.664 c 1.887,0 3.418,1.443 3.418,3.222 v 0 c 0,1.778 -1.531,3.222 -3.418,3.222 h -7.664 c -1.886,0 -3.418,-1.444 -3.418,-3.222 z m 0.629,4.528 h 2.514 c 1.041,0 2.187,0.79 2.557,1.762 q 0.716,1.879 -0.671,3.267 -1.388,1.387 -3.267,0.671 c -0.972,-0.37 -1.762,-1.516 -1.762,-2.557 v -2.514 c 0,-0.347 0.282,-0.629 0.629,-0.629 z"
       style="fill:url(#_lgradient_123);fill-rule:evenodd"
       inkscape:connector-curvature="0" />
    <path
       id="path21"
       d="m 20.278,24.306 v 0 c 1.778,0 3.222,1.488 3.222,3.321 v 7.052 C 23.5,36.512 22.056,38 20.278,38 v 0 c -1.779,0 -3.222,-1.488 -3.222,-3.321 v -7.052 c 0,-1.833 1.443,-3.321 3.222,-3.321 z m -5.157,0.5 h -2.514 c -1.041,0 -2.187,0.79 -2.558,1.762 q -0.716,1.879 0.672,3.267 1.388,1.387 3.266,0.671 c 0.973,-0.37 1.763,-1.516 1.763,-2.557 v -2.514 c 0,-0.347 -0.282,-0.629 -0.629,-0.629 z"
       style="fill:url(#_lgradient_124);fill-rule:evenodd"
       inkscape:connector-curvature="0" />
    <path
       id="path28"
       d="m 9,19.472 v 0 c 0,-1.778 1.531,-3.222 3.418,-3.222 h 7.664 c 1.887,0 3.418,1.444 3.418,3.222 v 0 c 0,1.779 -1.531,3.222 -3.418,3.222 H 12.418 C 10.531,22.694 9,21.251 9,19.472 Z m 14.177,-4.028 h -2.515 c -1.041,0 -2.186,-0.789 -2.557,-1.762 q -0.716,-1.879 0.671,-3.266 1.388,-1.388 3.267,-0.672 c 0.973,0.371 1.762,1.517 1.762,2.558 v 2.514 c 0,0.347 -0.282,0.628 -0.628,0.628 z"
       style="fill:url(#_lgradient_125);fill-rule:evenodd"
       inkscape:connector-curvature="0" />
    <path
       id="path35"
       d="m 18.81,43.32 v 0 c 1.065,0.287 1.697,1.385 1.41,2.45 v 0 c -0.287,1.065 -1.385,1.697 -2.45,1.41 v 0 C 12.67,45.81 8.16,42.79 4.95,38.6 1.74,34.41 0,29.28 0,24 0,17.64 2.53,11.53 7.03,7.03 11.53,2.53 17.64,0 24,0 30.36,0 36.47,2.53 40.97,7.03 45.47,11.53 48,17.64 48,24 c 0,5.26 -1.73,10.37 -4.91,14.55 -3.19,4.18 -7.66,7.2 -12.73,8.6 v 0 c -1.065,0.293 -2.167,-0.335 -2.46,-1.4 v 0 c -0.293,-1.065 0.335,-2.167 1.4,-2.46 v 0 C 33.52,42.13 37.25,39.61 39.91,36.13 42.56,32.64 44,28.38 44,24 44,18.7 41.89,13.61 38.14,9.86 34.39,6.11 29.3,4 24,4 18.7,4 13.61,6.11 9.86,9.86 6.11,13.61 4,18.7 4,24 c 0,4.4 1.45,8.68 4.13,12.17 2.67,3.49 6.43,6.01 10.68,7.15 z"
       style="fill:url(#_lgradient_126)"
       inkscape:connector-curvature="0" />
  </g>
</svg>
