<?xml version="1.0" encoding="UTF-8" standalone="no"?>
<!-- Generator: Gravit.io -->

<svg
   xmlns:dc="http://purl.org/dc/elements/1.1/"
   xmlns:cc="http://creativecommons.org/ns#"
   xmlns:rdf="http://www.w3.org/1999/02/22-rdf-syntax-ns#"
   xmlns:svg="http://www.w3.org/2000/svg"
   xmlns="http://www.w3.org/2000/svg"
   xmlns:sodipodi="http://sodipodi.sourceforge.net/DTD/sodipodi-0.dtd"
   xmlns:inkscape="http://www.inkscape.org/namespaces/inkscape"
   style="isolation:isolate"
   viewBox="0 0 36 36"
   width="48"
   height="48"
   version="1.1"
   id="svg16"
   sodipodi:docname="stacer.svg"
   inkscape:version="0.92.4 (5da689c313, 2019-01-14)">
  <metadata
     id="metadata22">
    <rdf:RDF>
      <cc:Work
         rdf:about="">
        <dc:format>image/svg+xml</dc:format>
        <dc:type
           rdf:resource="http://purl.org/dc/dcmitype/StillImage" />
        <dc:title></dc:title>
      </cc:Work>
    </rdf:RDF>
  </metadata>
  <defs
     id="defs20" />
  <sodipodi:namedview
     pagecolor="#ffffff"
     bordercolor="#666666"
     borderopacity="1"
     objecttolerance="10"
     gridtolerance="10"
     guidetolerance="10"
     inkscape:pageopacity="0"
     inkscape:pageshadow="2"
     inkscape:window-width="640"
     inkscape:window-height="480"
     id="namedview18"
     showgrid="false"
     inkscape:zoom="29.365243"
     inkscape:cx="25.325443"
     inkscape:cy="32"
     inkscape:current-layer="svg16"
     units="px" />
  <linearGradient
     id="_lgradient_9"
     x1="0"
     y1="0.5"
     x2="1"
     y2="0.5"
     gradientTransform="matrix(13.193,0,0,8.574,21,21)"
     gradientUnits="userSpaceOnUse">
    <stop
       offset="0%"
       stop-opacity="1"
       style="stop-color:rgb(67,233,123)"
       id="stop2" />
    <stop
       offset="97.82608695652173%"
       stop-opacity="1"
       style="stop-color:rgb(56,249,215)"
       id="stop4" />
  </linearGradient>
  <linearGradient
     id="_lgradient_10"
     x1="0"
     y1="0.5"
     x2="1"
     y2="0.5"
     gradientTransform="matrix(47.995,0,0,47.384,0.002,0.002)"
     gradientUnits="userSpaceOnUse">
    <stop
       offset="0%"
       stop-opacity="1"
       style="stop-color:rgb(132,250,176)"
       id="stop9" />
    <stop
       offset="98.26086956521739%"
       stop-opacity="1"
       style="stop-color:rgb(143,211,244)"
       id="stop11" />
  </linearGradient>
  <g
     id="g831"
     transform="matrix(0.75008397,0,0,0.75008397,-0.00201528,0.22710842)">
    <path
       id="path7"
       d="m 26.925,24.667 7.268,4.907 -7.944,-3.59 C 25.699,26.607 24.895,27 24,27 c -1.656,0 -3,-1.344 -3,-3 0,-1.656 1.344,-3 3,-3 1.656,0 3,1.344 3,3 0,0.229 -0.026,0.453 -0.075,0.667 z"
       style="fill:url(#_lgradient_9);fill-rule:evenodd"
       inkscape:connector-curvature="0" />
    <path
       id="path14"
       d="m 8,32 c 0,-1.104 0.896,-2 2,-2 1.104,0 2,0.896 2,2 0,1.104 -0.896,2 -2,2 C 8.896,34 8,33.104 8,32 Z M 6,24 c 0,-1.104 0.896,-2 2,-2 1.104,0 2,0.896 2,2 0,1.104 -0.896,2 -2,2 -1.104,0 -2,-0.896 -2,-2 z m 2,-8 c 0,-1.104 0.896,-2 2,-2 1.104,0 2,0.896 2,2 0,1.104 -0.896,2 -2,2 -1.104,0 -2,-0.896 -2,-2 z m 6,-6 c 0,-1.104 0.896,-2 2,-2 1.104,0 2,0.896 2,2 0,1.104 -0.896,2 -2,2 -1.104,0 -2,-0.896 -2,-2 z m 26,22 c 0,-1.104 -0.896,-2 -2,-2 -1.104,0 -2,0.896 -2,2 0,1.104 0.896,2 2,2 1.104,0 2,-0.896 2,-2 z m 2,-8 c 0,-1.104 -0.896,-2 -2,-2 -1.104,0 -2,0.896 -2,2 0,1.104 0.896,2 2,2 1.104,0 2,-0.896 2,-2 z m -2,-8 c 0,-1.104 -0.896,-2 -2,-2 -1.104,0 -2,0.896 -2,2 0,1.104 0.896,2 2,2 1.104,0 2,-0.896 2,-2 z m -6,-6 c 0,-1.104 -0.896,-2 -2,-2 -1.104,0 -2,0.896 -2,2 0,1.104 0.896,2 2,2 1.104,0 2,-0.896 2,-2 z M 22,8 c 0,-1.104 0.896,-2 2,-2 1.104,0 2,0.896 2,2 0,1.104 -0.896,2 -2,2 -1.104,0 -2,-0.896 -2,-2 z m -4.285,34.989 v 0 c 1.047,0.347 1.615,1.479 1.268,2.526 v 0 c -0.348,1.047 -1.48,1.615 -2.527,1.267 v 0 C 14.056,45.993 11.799,44.824 9.772,43.328 3.053,38.369 -0.629,30.257 0.092,21.939 0.466,17.542 2.054,13.32 4.672,9.772 9.631,3.053 17.743,-0.629 26.061,0.092 c 4.397,0.374 8.611,1.956 12.167,4.58 6.719,4.959 10.401,13.071 9.68,21.389 -0.374,4.397 -1.956,8.611 -4.58,12.167 -3.35,4.538 -8.191,7.763 -13.667,9.103 v 0 c -1.074,0.257 -2.159,-0.405 -2.421,-1.476 v 0 c -0.263,-1.072 0.4,-2.154 1.477,-2.415 v 0 C 33.283,42.323 37.312,39.642 40.109,35.853 42.289,32.9 43.612,29.39 43.924,25.717 44.517,18.785 41.453,12.024 35.853,7.891 32.892,5.705 29.39,4.388 25.717,4.076 18.785,3.483 12.024,6.547 7.891,12.147 5.711,15.1 4.388,18.61 4.076,22.283 c -0.593,6.932 2.471,13.693 8.071,17.826 1.69,1.247 3.567,2.223 5.568,2.88 z"
       style="fill:url(#_lgradient_10);fill-rule:evenodd"
       inkscape:connector-curvature="0" />
  </g>
</svg>
