<?xml version="1.0" encoding="UTF-8" standalone="no"?>
<!-- Generator: Gravit.io -->

<svg
   xmlns:dc="http://purl.org/dc/elements/1.1/"
   xmlns:cc="http://creativecommons.org/ns#"
   xmlns:rdf="http://www.w3.org/1999/02/22-rdf-syntax-ns#"
   xmlns:svg="http://www.w3.org/2000/svg"
   xmlns="http://www.w3.org/2000/svg"
   xmlns:sodipodi="http://sodipodi.sourceforge.net/DTD/sodipodi-0.dtd"
   xmlns:inkscape="http://www.inkscape.org/namespaces/inkscape"
   style="isolation:isolate"
   viewBox="0 0 36 36"
   width="48"
   height="48"
   version="1.1"
   id="svg9"
   sodipodi:docname="stoplight.svg"
   inkscape:version="0.92.4 (5da689c313, 2019-01-14)">
  <metadata
     id="metadata15">
    <rdf:RDF>
      <cc:Work
         rdf:about="">
        <dc:format>image/svg+xml</dc:format>
        <dc:type
           rdf:resource="http://purl.org/dc/dcmitype/StillImage" />
        <dc:title></dc:title>
      </cc:Work>
    </rdf:RDF>
  </metadata>
  <defs
     id="defs13" />
  <sodipodi:namedview
     pagecolor="#ffffff"
     bordercolor="#666666"
     borderopacity="1"
     objecttolerance="10"
     gridtolerance="10"
     guidetolerance="10"
     inkscape:pageopacity="0"
     inkscape:pageshadow="2"
     inkscape:window-width="640"
     inkscape:window-height="480"
     id="namedview11"
     showgrid="false"
     inkscape:zoom="29.365243"
     inkscape:cx="25.325443"
     inkscape:cy="32"
     inkscape:current-layer="svg9"
     units="px" />
  <linearGradient
     id="_lgradient_30"
     x1="0.061897106"
     y1="0.14716151"
     x2="0.99042481"
     y2="0.98658085"
     gradientTransform="matrix(32.83,0,0,47,7.585,0.5)"
     gradientUnits="userSpaceOnUse">
    <stop
       offset="0%"
       stop-opacity="1"
       style="stop-color:rgb(22,181,228)"
       id="stop2" />
    <stop
       offset="98.26086956521739%"
       stop-opacity="1"
       style="stop-color:rgb(245,32,250)"
       id="stop4" />
  </linearGradient>
  <g
     id="g826"
     transform="matrix(0.76595745,0,0,0.76595745,-0.3829788,-0.3829788)">
    <path
       id="path7"
       d="M 22.694,8.44 H 10.585 c -1.656,0 -3,1.344 -3,3 v 16.98 c 0,1.656 1.344,3 3,3 h 21.31 c 0.552,0 1,0.448 1,1 v 8.46 c 0,0.552 -0.448,1 -1,1 h -15.69 c -0.552,0 -1,-0.448 -1,-1 v -5.13 0 c 0,-1.104 -0.896,-2 -2,-2 v 0 c -1.104,0 -2,0.896 -2,2 v 0 7.13 c 0,1.656 1.344,3 3,3 h 4.422 v 0.62 c 0,0.552 0.448,1 1,1 h 1.615 c 0.552,0 1,-0.448 1,-1 v -0.62 h 3.615 v 0 0 0 0.62 c 0,0.552 0.448,1 1,1 h 1.616 c 0.552,0 1,-0.448 1,-1 v -0.62 h 4.422 c 1.656,0 3,-1.344 3,-3 V 30.42 c 0,-1.656 -1.344,-3 -3,-3 h -21.31 c -0.552,0 -1,-0.448 -1,-1 V 13.44 c 0,-0.552 0.448,-1 1,-1 h 22.83 c 0.552,0 1,0.448 1,1 v 8.75 0 c 0,1.104 0.896,2 2,2 v 0 c 1.104,0 2,-0.896 2,-2 v 0 -10.75 c 0,-1.656 -1.344,-3 -3,-3 H 25.405 V 6.521 c 0.324,-0.155 0.621,-0.365 0.877,-0.625 0.597,-0.588 0.931,-1.392 0.931,-2.233 0,-0.84 -0.334,-1.645 -0.931,-2.232 C 25.695,0.834 24.89,0.5 24.05,0.5 c -0.841,0 -1.645,0.334 -2.233,0.931 -0.596,0.587 -0.931,1.392 -0.931,2.232 v 0 0 c 0,0.841 0.335,1.645 0.931,2.233 0.256,0.26 0.553,0.47 0.877,0.625 z m -5.779,8.233 h 3.423 c 0.552,0 1,0.448 1,1 v 1.615 c 0,0.552 -0.448,1 -1,1 h -3.423 c -0.552,0 -1,-0.448 -1,-1 v -1.615 c 0,-0.552 0.448,-1 1,-1 z m 10.846,0 h 3.423 c 0.552,0 1,0.448 1,1 v 1.615 c 0,0.552 -0.448,1 -1,1 h -3.423 c -0.552,0 -1,-0.448 -1,-1 v -1.615 c 0,-0.552 0.448,-1 1,-1 z M 22.694,3.663 c 0,-0.361 0.144,-0.705 0.398,-0.958 0.253,-0.253 0.596,-0.397 0.958,-0.397 0.361,0 0.705,0.144 0.958,0.397 0.253,0.253 0.397,0.597 0.397,0.958 0,0.362 -0.144,0.705 -0.397,0.959 -0.253,0.253 -0.597,0.397 -0.958,0.397 -0.362,0 -0.705,-0.144 -0.958,-0.397 C 22.838,4.368 22.694,4.025 22.694,3.663 Z"
       inkscape:connector-curvature="0"
       style="fill:url(#_lgradient_30);fill-rule:evenodd" />
  </g>
</svg>
