<?xml version="1.0" encoding="UTF-8" standalone="no"?>
<!-- Generator: Gravit.io -->

<svg
   xmlns:dc="http://purl.org/dc/elements/1.1/"
   xmlns:cc="http://creativecommons.org/ns#"
   xmlns:rdf="http://www.w3.org/1999/02/22-rdf-syntax-ns#"
   xmlns:svg="http://www.w3.org/2000/svg"
   xmlns="http://www.w3.org/2000/svg"
   xmlns:sodipodi="http://sodipodi.sourceforge.net/DTD/sodipodi-0.dtd"
   xmlns:inkscape="http://www.inkscape.org/namespaces/inkscape"
   style="isolation:isolate"
   viewBox="0 0 36 36"
   width="48"
   height="48"
   version="1.1"
   id="svg9"
   sodipodi:docname="stremio.svg"
   inkscape:version="0.92.4 (5da689c313, 2019-01-14)">
  <metadata
     id="metadata15">
    <rdf:RDF>
      <cc:Work
         rdf:about="">
        <dc:format>image/svg+xml</dc:format>
        <dc:type
           rdf:resource="http://purl.org/dc/dcmitype/StillImage" />
        <dc:title></dc:title>
      </cc:Work>
    </rdf:RDF>
  </metadata>
  <defs
     id="defs13" />
  <sodipodi:namedview
     pagecolor="#ffffff"
     bordercolor="#666666"
     borderopacity="1"
     objecttolerance="10"
     gridtolerance="10"
     guidetolerance="10"
     inkscape:pageopacity="0"
     inkscape:pageshadow="2"
     inkscape:window-width="640"
     inkscape:window-height="480"
     id="namedview11"
     showgrid="false"
     inkscape:zoom="29.365243"
     inkscape:cx="25.325443"
     inkscape:cy="32"
     inkscape:current-layer="svg9"
     units="px" />
  <linearGradient
     id="_lgradient_12"
     x1="0.49431795"
     y1="0.84889948"
     x2="0.49431795"
     y2="0.18570215"
     gradientTransform="matrix(43.998,0,0,43.351,2.001,2.325)"
     gradientUnits="userSpaceOnUse">
    <stop
       offset="0%"
       stop-opacity="1"
       style="stop-color:rgb(26,108,255)"
       id="stop2" />
    <stop
       offset="100%"
       stop-opacity="1"
       style="stop-color:rgb(197,34,255)"
       id="stop4" />
  </linearGradient>
  <g
     id="g826"
     transform="matrix(0.81821678,0,0,0.81821678,-1.6372027,-1.6372027)">
    <path
       id="path7"
       d="m 5.26,21.55 v 0 C 4.399,22.245 3.138,22.113 2.445,21.255 v 0 C 1.752,20.397 1.885,19.14 2.74,18.45 v 0 L 20.186,3.663 c 2.105,-1.784 5.523,-1.784 7.628,0 L 45.26,18.45 v 0 c 0.855,0.69 0.988,1.947 0.295,2.805 v 0 c -0.693,0.858 -1.954,0.99 -2.815,0.295 v 0 L 26.283,7.517 c -1.26,-1.075 -3.306,-1.075 -4.566,0 z m 37.48,4.9 v 0 c 0.861,-0.695 2.122,-0.563 2.815,0.295 v 0 c 0.693,0.858 0.56,2.115 -0.295,2.805 v 0 L 27.814,44.337 c -2.105,1.784 -5.523,1.784 -7.628,0 L 2.74,29.55 v 0 C 1.885,28.86 1.752,27.603 2.445,26.745 v 0 C 3.138,25.887 4.399,25.755 5.26,26.45 v 0 l 16.457,14.033 c 1.26,1.075 3.306,1.075 4.566,0 z M 20.119,21 v 0 c 0,0.828 -0.672,1.5 -1.5,1.5 v 0 c -0.828,0 -1.5,-0.672 -1.5,-1.5 v 0 -2.8 c 0,-2.76 1.864,-3.757 4.16,-2.226 l 7.88,5.252 c 2.296,1.531 2.296,4.017 0,5.548 l -7.88,5.252 c -2.296,1.531 -4.16,0.534 -4.16,-2.226 V 27 27 c 0,-0.828 0.672,-1.5 1.5,-1.5 v 0 c 0.828,0 1.5,0.672 1.5,1.5 v 0 2.2 l 6.136,-4.091 c 0.918,-0.612 0.918,-1.606 0,-2.218 L 20.119,18.8 Z"
       inkscape:connector-curvature="0"
       style="fill:url(#_lgradient_12);fill-rule:evenodd" />
  </g>
</svg>
