<?xml version="1.0" encoding="UTF-8" standalone="no"?>
<!-- Generator: Gravit.io -->

<svg
   xmlns:dc="http://purl.org/dc/elements/1.1/"
   xmlns:cc="http://creativecommons.org/ns#"
   xmlns:rdf="http://www.w3.org/1999/02/22-rdf-syntax-ns#"
   xmlns:svg="http://www.w3.org/2000/svg"
   xmlns="http://www.w3.org/2000/svg"
   xmlns:sodipodi="http://sodipodi.sourceforge.net/DTD/sodipodi-0.dtd"
   xmlns:inkscape="http://www.inkscape.org/namespaces/inkscape"
   style="isolation:isolate"
   viewBox="0 0 48 48"
   width="48"
   height="48"
   version="1.1"
   id="svg11"
   sodipodi:docname="sublime-text.svg"
   inkscape:version="0.92.4 (5da689c313, 2019-01-14)">
  <metadata
     id="metadata17">
    <rdf:RDF>
      <cc:Work
         rdf:about="">
        <dc:format>image/svg+xml</dc:format>
        <dc:type
           rdf:resource="http://purl.org/dc/dcmitype/StillImage" />
        <dc:title></dc:title>
      </cc:Work>
    </rdf:RDF>
  </metadata>
  <defs
     id="defs15" />
  <sodipodi:namedview
     pagecolor="#ffffff"
     bordercolor="#666666"
     borderopacity="1"
     objecttolerance="10"
     gridtolerance="10"
     guidetolerance="10"
     inkscape:pageopacity="0"
     inkscape:pageshadow="2"
     inkscape:window-width="640"
     inkscape:window-height="480"
     id="namedview13"
     showgrid="false"
     inkscape:zoom="39.153656"
     inkscape:cx="18.994082"
     inkscape:cy="24"
     inkscape:current-layer="svg11" />
  <linearGradient
     id="_lgradient_10"
     x1="-0.014458464"
     y1="0.009839246"
     x2="1.0164566"
     y2="1.072293"
     gradientTransform="matrix(23.985,0,0,33.975,11.008,7.08)"
     gradientUnits="userSpaceOnUse">
    <stop
       offset="0%"
       stop-opacity="1"
       style="stop-color:rgb(249,212,35)"
       id="stop2" />
    <stop
       offset="51.56237565086822%"
       stop-opacity="1"
       style="stop-color:rgb(255,78,80)"
       id="stop4" />
    <stop
       offset="99.1304347826087%"
       stop-opacity="1"
       style="stop-color:rgb(138,35,135)"
       id="stop6" />
  </linearGradient>
  <g
     id="g825"
     transform="matrix(1.4128035,0,0,1.4128035,-8.4951869,-10.002648)">
    <path
       id="path9"
       d="M 12.583,36.465 12.178,35.97 v 0 q -1.17,-1.44 -1.17,-2.587 v 0 0 q 0,-1.148 1.935,-3.038 v 0 0 q 1.124,-1.08 2.385,-1.08 v 0 0 q 1.26,0 3.51,2.25 v 0 0 q 0.63,0.765 1.8,1.463 v 0 0 q 1.169,0.697 2.16,0.697 v 0 0 q 4.184,0 4.184,-3.42 v 0 0 q 0,-1.035 -1.147,-1.732 v 0 0 Q 24.688,27.825 22.978,27.51 v 0 0 q -1.71,-0.315 -3.69,-1.012 v 0 0 q -1.98,-0.698 -3.69,-1.643 v 0 0 Q 13.888,23.91 12.74,21.863 v 0 0 q -1.147,-2.048 -1.147,-4.928 v 0 0 q 0,-3.96 2.947,-6.907 v 0 0 Q 17.488,7.08 22.572,7.08 v 0 0 q 2.701,0 4.928,0.698 v 0 0 q 2.228,0.697 3.083,1.417 v 0 l 1.125,0.855 v 0 q 1.395,1.305 1.395,2.205 v 0 0 q 0,0.9 -1.08,2.475 v 0 0 q -1.53,2.25 -3.15,2.25 v 0 0 q -0.945,0 -2.34,-0.9 v 0 0 q -0.135,-0.09 -0.518,-0.45 v 0 0 q -0.382,-0.36 -0.697,-0.585 v 0 0 Q 24.373,14.46 22.91,14.46 v 0 0 q -1.463,0 -2.43,0.698 v 0 0 q -0.967,0.697 -0.967,1.935 v 0 0 q 0,1.237 1.147,2.002 v 0 0 q 1.147,0.765 2.858,1.035 v 0 0 q 1.71,0.27 3.735,0.833 v 0 0 q 2.025,0.562 3.735,1.372 v 0 0 q 1.709,0.81 2.857,2.813 v 0 0 q 1.148,2.002 1.148,4.927 v 0 0 q 0,2.925 -1.17,5.153 v 0 0 q -1.17,2.227 -3.06,3.442 v 0 0 q -3.645,2.385 -7.785,2.385 v 0 0 q -2.115,0 -4.005,-0.518 v 0 0 q -1.89,-0.517 -3.06,-1.282 v 0 0 q -2.385,-1.44 -3.33,-2.79 z"
       style="fill:url(#_lgradient_10)"
       inkscape:connector-curvature="0" />
  </g>
</svg>
