<?xml version="1.0" encoding="UTF-8" standalone="no"?>
<!-- Generator: Gravit.io -->

<svg
   xmlns:dc="http://purl.org/dc/elements/1.1/"
   xmlns:cc="http://creativecommons.org/ns#"
   xmlns:rdf="http://www.w3.org/1999/02/22-rdf-syntax-ns#"
   xmlns:svg="http://www.w3.org/2000/svg"
   xmlns="http://www.w3.org/2000/svg"
   xmlns:sodipodi="http://sodipodi.sourceforge.net/DTD/sodipodi-0.dtd"
   xmlns:inkscape="http://www.inkscape.org/namespaces/inkscape"
   style="isolation:isolate"
   viewBox="0 0 36 36"
   width="48"
   height="48"
   version="1.1"
   id="svg16"
   sodipodi:docname="sweethome3d.svg"
   inkscape:version="0.92.4 (5da689c313, 2019-01-14)">
  <metadata
     id="metadata22">
    <rdf:RDF>
      <cc:Work
         rdf:about="">
        <dc:format>image/svg+xml</dc:format>
        <dc:type
           rdf:resource="http://purl.org/dc/dcmitype/StillImage" />
        <dc:title></dc:title>
      </cc:Work>
    </rdf:RDF>
  </metadata>
  <defs
     id="defs20" />
  <sodipodi:namedview
     pagecolor="#ffffff"
     bordercolor="#666666"
     borderopacity="1"
     objecttolerance="10"
     gridtolerance="10"
     guidetolerance="10"
     inkscape:pageopacity="0"
     inkscape:pageshadow="2"
     inkscape:window-width="640"
     inkscape:window-height="480"
     id="namedview18"
     showgrid="false"
     inkscape:zoom="29.365243"
     inkscape:cx="25.325443"
     inkscape:cy="32"
     inkscape:current-layer="svg16"
     units="px" />
  <linearGradient
     id="_lgradient_27"
     x1="0"
     y1="0.5"
     x2="1"
     y2="0.5"
     gradientTransform="matrix(-18.63,0,0,20.735,33.315,13.633)"
     gradientUnits="userSpaceOnUse">
    <stop
       offset="0%"
       stop-opacity="1"
       style="stop-color:rgb(255,229,59)"
       id="stop2" />
    <stop
       offset="98.69565217391305%"
       stop-opacity="1"
       style="stop-color:rgb(255,0,91)"
       id="stop4" />
  </linearGradient>
  <linearGradient
     id="_lgradient_28"
     x1="0"
     y1="0.5"
     x2="1"
     y2="0.5"
     gradientTransform="matrix(41.584,0,0,42.854,3.566,0.461)"
     gradientUnits="userSpaceOnUse">
    <stop
       offset="0%"
       stop-opacity="1"
       style="stop-color:rgb(24,208,173)"
       id="stop9" />
    <stop
       offset="90.44964029999998%"
       stop-opacity="1"
       style="stop-color:rgb(7,195,242)"
       id="stop11" />
  </linearGradient>
  <g
     id="g831"
     transform="matrix(0.84004251,0,0,0.84004251,-2.4617555,-0.38681204)">
    <path
       id="path7"
       d="m 28.971,18.342 v 0 c 0.407,0.292 0.972,0.2 1.262,-0.205 v 0 c 0.291,-0.405 0.197,-0.971 -0.21,-1.262 v 0 l -5.19,-3.051 c -0.43,-0.253 -1.129,-0.255 -1.561,-0.006 l -7.805,4.506 c -0.432,0.249 -0.782,0.856 -0.782,1.355 v 8.159 c 0,0.498 0.349,1.107 0.78,1.359 l 8.658,5.062 c 0.431,0.251 0.78,0.051 0.78,-0.448 v -5.459 0 c 0,-0.498 -0.405,-0.903 -0.903,-0.903 v 0 c -0.498,0 -0.903,0.405 -0.903,0.903 v 0 2.394 c 0,0.249 -0.175,0.349 -0.39,0.224 l -6.216,-3.611 v -7.54 l 7.455,-4.303 z m -2.524,12.927 v 0 c -0.426,0.26 -0.563,0.816 -0.307,1.242 v 0 c 0.257,0.426 0.811,0.564 1.237,0.307 v 0 l 5.149,-2.87 c 0.436,-0.243 0.789,-0.844 0.789,-1.343 v -9.242 c 0,-0.499 -0.35,-0.701 -0.782,-0.452 l -8.092,4.673 c -0.216,0.125 -0.568,0.128 -0.786,0.007 l -4.631,-2.562 v 0 c -0.409,-0.287 -0.974,-0.19 -1.262,0.216 v 0 c -0.288,0.407 -0.19,0.971 0.219,1.26 v 0 l 5.187,2.994 c 0.432,0.249 1.133,0.249 1.564,0 l 6.777,-3.91 v 6.903 z"
       style="fill:url(#_lgradient_27);fill-rule:evenodd"
       inkscape:connector-curvature="0" />
    <path
       id="path14"
       d="m 41.049,30.449 -3.419,-1.93 v 0 c -0.938,-0.59 -2.177,-0.31 -2.765,0.625 v 0 c -0.588,0.936 -0.308,2.17 0.625,2.755 v 0 0 l 3.902,2.21 -9.835,5.396 v 0 c -0.968,0.589 -1.28,1.852 -0.698,2.82 v 0 c 0.583,0.967 1.842,1.28 2.81,0.697 v 0 l 11.69,-6.517 c 0.988,-0.551 1.791,-1.917 1.791,-3.048 V 19.05 c 0,-1.131 -0.908,-1.934 -2.026,-1.791 v 0 c -1.145,0.147 -2.075,1.207 -2.075,2.366 z M 7.667,30.433 V 14.093 L 21.948,5.849 22.05,10.05 v 0 c 0.028,1.104 0.946,1.978 2.05,1.95 v 0 c 1.104,-0.028 1.978,-0.946 1.95,-2.05 v 0 l -0.098,-4.047 9.336,5.251 v 0 c 0.922,0.662 2.206,0.453 2.865,-0.467 v 0 C 38.812,9.768 38.599,8.484 37.676,7.822 v 0 L 25.891,0.895 C 24.915,0.321 23.327,0.315 22.347,0.881 L 22.065,1.044 21.83,1.05 21.833,1.178 4.325,11.286 C 4.226,11.329 4.134,11.385 4.051,11.453 4.041,11.456 4.035,11.46 4.032,11.466 3.747,11.662 3.607,11.905 3.634,12.148 3.589,12.309 3.566,12.491 3.566,12.69 v 20.767 c 0,1.131 0.803,2.497 1.791,3.048 l 11.69,6.517 v 0 c 0.968,0.583 2.227,0.27 2.81,-0.697 v 0 c 0.582,-0.968 0.27,-2.231 -0.698,-2.82 v 0 L 9.338,34.117 13.09,31.68 v 0 c 0.927,-0.602 1.192,-1.843 0.59,-2.77 v 0 c -0.602,-0.927 -1.843,-1.192 -2.77,-0.59 v 0 z"
       style="fill:url(#_lgradient_28);fill-rule:evenodd"
       inkscape:connector-curvature="0" />
  </g>
</svg>
