<?xml version="1.0" encoding="UTF-8" standalone="no"?>
<svg
   xmlns:dc="http://purl.org/dc/elements/1.1/"
   xmlns:cc="http://creativecommons.org/ns#"
   xmlns:rdf="http://www.w3.org/1999/02/22-rdf-syntax-ns#"
   xmlns:svg="http://www.w3.org/2000/svg"
   xmlns="http://www.w3.org/2000/svg"
   id="svg30"
   version="1.1"
   height="34pt"
   width="34pt"
   viewBox="0 0 34 34"
   style="isolation:isolate">
  <metadata
     id="metadata36">
    <rdf:RDF>
      <cc:Work
         rdf:about="">
        <dc:format>image/svg+xml</dc:format>
        <dc:type
           rdf:resource="http://purl.org/dc/dcmitype/StillImage" />
        <dc:title />
      </cc:Work>
    </rdf:RDF>
  </metadata>
  <defs
     id="defs34" />
  <linearGradient
     gradientUnits="userSpaceOnUse"
     gradientTransform="matrix(22,0,0,14.73,11,17.27)"
     y2="0.9739513503160315"
     x2="0.9683507709251103"
     y1="0.054347826086956486"
     x1="0.04062500000000003"
     id="_lgradient_8">
    <stop
       id="stop2"
       style="stop-color:rgb(240,107,169)"
       stop-opacity="1"
       offset="0%" />
    <stop
       id="stop4"
       style="stop-color:rgb(66,216,246)"
       stop-opacity="1"
       offset="98.69565217391305%" />
  </linearGradient>
  <path
     id="path7"
     fill="url(#_lgradient_8)"
     d=" M 20.105 19.532 L 19.29 18.943 L 20.44 17.27 L 21.26 17.864 L 31.77 25.463 C 32.449 25.953 33 27.032 33 27.869 L 33 30.483 C 33 31.32 32.32 32 31.483 32 L 12.517 32 C 11.68 32 11 31.32 11 30.483 L 11 27.833 C 11 26.996 11.572 25.948 12.276 25.495 L 17.83 21.926 L 17.83 21.926 C 18.299 21.624 18.917 21.767 19.21 22.246 L 19.21 22.246 C 19.503 22.724 19.361 23.356 18.895 23.655 L 18.895 23.655 L 13.425 27.178 C 13.191 27.329 13 27.678 13 27.957 L 13 29.448 C 13 29.727 13.227 29.953 13.506 29.953 L 30.494 29.953 C 30.773 29.953 31 29.727 31 29.448 L 31 27.922 C 31 27.642 30.816 27.283 30.59 27.119 L 20.105 19.532 Z " />
  <linearGradient
     y2="2.5038754945832693"
     x2="1.8917927247991733"
     y1="0.05434782608695651"
     x1="0.04062500000000003"
     id="_lgradient_9">
    <stop
       id="stop9"
       style="stop-color:rgb(240,107,169)"
       stop-opacity="1"
       offset="0%" />
    <stop
       id="stop11"
       style="stop-color:rgb(66,216,246)"
       stop-opacity="1"
       offset="98.69565217391305%" />
  </linearGradient>
  <ellipse
     id="ellipse14"
     stroke-miterlimit="3"
     stroke-linecap="square"
     stroke-linejoin="miter"
     stroke="url(#_lgradient_9)"
     stroke-width="2"
     fill="none"
     ry="4.348837209302328"
     rx="4.2499999999999964"
     cy="14.348837209302328"
     cx="21.999999999999993"
     vector-effect="non-scaling-stroke" />
  <linearGradient
     gradientUnits="userSpaceOnUse"
     gradientTransform="matrix(16,0,0,2,-2,9)"
     y2="11.861784140969164"
     x2="2.24734994493392"
     y1="-1.5000000000000002"
     x1="0.0546875"
     id="_lgradient_10">
    <stop
       id="stop16"
       style="stop-color:rgb(240,107,169)"
       stop-opacity="1"
       offset="0%" />
    <stop
       id="stop18"
       style="stop-color:rgb(66,216,246)"
       stop-opacity="1"
       offset="98.69565217391305%" />
  </linearGradient>
  <rect
     id="rect21"
     fill="url(#_lgradient_10)"
     transform="matrix(1,0,0,1,0,0)"
     height="2"
     width="16"
     y="9"
     x="-2" />
  <linearGradient
     gradientUnits="userSpaceOnUse"
     gradientTransform="matrix(8.97,0,0,12.82,7.59,3.59)"
     y2="2.2742753897093255"
     x2="2.85555708516887"
     y1="0.05434782608695643"
     x1="0.04062500000000002"
     id="_lgradient_11">
    <stop
       id="stop23"
       style="stop-color:rgb(240,107,169)"
       stop-opacity="1"
       offset="0%" />
    <stop
       id="stop25"
       style="stop-color:rgb(66,216,246)"
       stop-opacity="1"
       offset="98.69565217391305%" />
  </linearGradient>
  <path
     id="path28"
     fill="url(#_lgradient_11)"
     d=" M 8.36 5.77 L 8.36 5.77 C 7.935 5.417 7.877 4.785 8.23 4.36 L 8.23 4.36 C 8.583 3.935 9.215 3.877 9.64 4.23 L 9.64 4.23 L 16.56 10 L 9.64 15.77 L 9.64 15.77 C 9.215 16.123 8.583 16.065 8.23 15.64 L 8.23 15.64 C 7.877 15.215 7.935 14.583 8.36 14.23 L 8.36 14.23 L 13.44 10 L 8.36 5.77 Z " />
</svg>
