<?xml version="1.0" encoding="UTF-8" standalone="no"?>
<!-- Generator: Gravit.io -->

<svg
   xmlns:dc="http://purl.org/dc/elements/1.1/"
   xmlns:cc="http://creativecommons.org/ns#"
   xmlns:rdf="http://www.w3.org/1999/02/22-rdf-syntax-ns#"
   xmlns:svg="http://www.w3.org/2000/svg"
   xmlns="http://www.w3.org/2000/svg"
   xmlns:sodipodi="http://sodipodi.sourceforge.net/DTD/sodipodi-0.dtd"
   xmlns:inkscape="http://www.inkscape.org/namespaces/inkscape"
   style="isolation:isolate"
   viewBox="0 0 48 48"
   width="48"
   height="48"
   version="1.1"
   id="svg23"
   sodipodi:docname="system-file-manager.svg"
   inkscape:version="0.92.4 (5da689c313, 2019-01-14)">
  <metadata
     id="metadata27">
    <rdf:RDF>
      <cc:Work
         rdf:about="">
        <dc:format>image/svg+xml</dc:format>
        <dc:type
           rdf:resource="http://purl.org/dc/dcmitype/StillImage" />
        <dc:title></dc:title>
      </cc:Work>
    </rdf:RDF>
  </metadata>
  <sodipodi:namedview
     pagecolor="#ffffff"
     bordercolor="#666666"
     borderopacity="1"
     objecttolerance="10"
     gridtolerance="10"
     guidetolerance="10"
     inkscape:pageopacity="0"
     inkscape:pageshadow="2"
     inkscape:window-width="640"
     inkscape:window-height="480"
     id="namedview25"
     showgrid="false"
     inkscape:zoom="39.153656"
     inkscape:cx="18.994082"
     inkscape:cy="24"
     inkscape:current-layer="svg23" />
  <defs
     id="defs5">
    <clipPath
       id="_clipPath_hE1aGe8mB9p3d3DRMG7HZVp3mjWvwDpA">
      <rect
         width="48"
         height="48"
         id="rect2"
         x="0"
         y="0" />
    </clipPath>
    <linearGradient
       gradientUnits="userSpaceOnUse"
       gradientTransform="matrix(36,0,0,27,10,18)"
       y2="0.5"
       x2="1"
       y1="0.5"
       x1="0"
       id="_lgradient_0">
      <stop
         id="stop7"
         style="stop-color:rgb(255,153,102)"
         stop-opacity="1"
         offset="0%" />
      <stop
         id="stop9"
         style="stop-color:rgb(255,94,98)"
         stop-opacity="1"
         offset="98.26086956521739%" />
    </linearGradient>
    <linearGradient
       gradientUnits="userSpaceOnUse"
       gradientTransform="matrix(44,0,0,41,2,4)"
       y2="0.5"
       x2="1"
       y1="0.5"
       x1="0"
       id="_lgradient_1">
      <stop
         id="stop14"
         style="stop-color:rgb(255,153,102)"
         stop-opacity="1"
         offset="0%" />
      <stop
         id="stop16"
         style="stop-color:rgb(255,94,98)"
         stop-opacity="1"
         offset="98.26086956521739%" />
    </linearGradient>
  </defs>
  <g
     id="g847"
     transform="matrix(1.0909091,0,0,1.0909091,-2.1818184,-2.7272729)">
    <path
       d="m 42,20 v 0 c 0,-1.104 0.896,-2 2,-2 v 0 c 1.104,0 2,0.896 2,2 v 0 20 c 0,2.76 -2.24,5 -5,5 H 12 v 0 c -1.104,0 -2,-0.896 -2,-2 v 0 c 0,-1.104 0.896,-2 2,-2 v 0 h 28 c 1.104,0 2,-0.896 2,-2 z"
       id="path12"
       style="fill:url(#_lgradient_0)"
       inkscape:connector-curvature="0" />
    <path
       d="m 6,43 v 0 c 0,1.104 -0.896,2 -2,2 v 0 C 2.896,45 2,44.104 2,43 V 43 8 C 2,5.792 3.792,4 6,4 h 11.96 c 1.104,0 2.56,0.7 3.249,1.562 l 2.126,2.657 C 23.68,8.65 24.408,9 24.96,9 H 44 v 0 c 1.104,0 2,0.896 2,2 v 0 c 0,1.104 -0.896,2 -2,2 v 0 H 24.04 c -1.104,0 -2.56,-0.7 -3.249,-1.562 L 19.289,9.562 C 18.6,8.7 17.144,8 16.04,8 H 8 C 6.896,8 6,8.896 6,10 Z"
       id="path19"
       style="fill:url(#_lgradient_1)"
       inkscape:connector-curvature="0" />
  </g>
</svg>
