<?xml version="1.0" encoding="UTF-8" standalone="no"?>
<!-- Generator: Gravit.io -->

<svg
   xmlns:dc="http://purl.org/dc/elements/1.1/"
   xmlns:cc="http://creativecommons.org/ns#"
   xmlns:rdf="http://www.w3.org/1999/02/22-rdf-syntax-ns#"
   xmlns:svg="http://www.w3.org/2000/svg"
   xmlns="http://www.w3.org/2000/svg"
   xmlns:sodipodi="http://sodipodi.sourceforge.net/DTD/sodipodi-0.dtd"
   xmlns:inkscape="http://www.inkscape.org/namespaces/inkscape"
   style="isolation:isolate"
   viewBox="0 0 36 36"
   width="48"
   height="48"
   version="1.1"
   id="svg9"
   sodipodi:docname="teams-for-linux.svg"
   inkscape:version="0.92.4 (5da689c313, 2019-01-14)">
  <metadata
     id="metadata15">
    <rdf:RDF>
      <cc:Work
         rdf:about="">
        <dc:format>image/svg+xml</dc:format>
        <dc:type
           rdf:resource="http://purl.org/dc/dcmitype/StillImage" />
        <dc:title></dc:title>
      </cc:Work>
    </rdf:RDF>
  </metadata>
  <defs
     id="defs13" />
  <sodipodi:namedview
     pagecolor="#ffffff"
     bordercolor="#666666"
     borderopacity="1"
     objecttolerance="10"
     gridtolerance="10"
     guidetolerance="10"
     inkscape:pageopacity="0"
     inkscape:pageshadow="2"
     inkscape:window-width="640"
     inkscape:window-height="480"
     id="namedview11"
     showgrid="false"
     inkscape:zoom="29.365243"
     inkscape:cx="25.325443"
     inkscape:cy="32"
     inkscape:current-layer="svg9"
     units="px" />
  <linearGradient
     id="_lgradient_1"
     x1="0"
     y1="0.5"
     x2="1"
     y2="0.5"
     gradientTransform="matrix(44.305,0,0,44.023,1.848,1.989)"
     gradientUnits="userSpaceOnUse">
    <stop
       offset="0%"
       stop-opacity="1"
       style="stop-color:rgb(71,118,230)"
       id="stop2" />
    <stop
       offset="98.26086956521739%"
       stop-opacity="1"
       style="stop-color:rgb(142,84,233)"
       id="stop4" />
  </linearGradient>
  <g
     id="g826"
     transform="matrix(0.81256771,0,0,0.81256771,-1.501625,-1.501625)">
    <path
       id="path7"
       d="m 16.098,37.163 c -0.072,0.02 -0.148,0.03 -0.226,0.03 v 0 H 4.11 c -1.249,0 -2.262,-1.013 -2.262,-2.262 v -8.595 0 c 0,-0.499 0.405,-0.905 0.904,-0.905 v 0 c 0.5,0 0.905,0.406 0.905,0.905 v 0 0 0 7.69 c 0,0.749 0.608,1.358 1.357,1.358 h 10.858 v 0 c 0.078,0 0.154,0.01 0.226,0.03 0.071,-0.02 0.147,-0.03 0.226,-0.03 v 0 h 1.357 c 0.749,0 1.357,-0.609 1.357,-1.358 v -1.357 0 c 0,-0.499 0.406,-0.904 0.905,-0.904 v 0 c 0.499,0 0.905,0.405 0.905,0.904 v 0 2.262 c 0,1.249 -1.014,2.262 -2.262,2.262 h -2.262 v 0 c -0.079,0 -0.155,-0.01 -0.226,-0.03 z M 12.955,25.282 h 3.214 V 22.068 H 6.526 v 0 3.214 h 3.215 v 8.036 h 3.214 z M 31.337,8.039 c 0,-0.81 0.32,-1.59 0.89,-2.16 0.57,-0.57 1.35,-0.89 2.16,-0.89 0.81,0 1.58,0.32 2.15,0.89 0.57,0.57 0.89,1.35 0.89,2.16 0,0.8 -0.32,1.58 -0.89,2.15 -0.57,0.57 -1.34,0.89 -2.15,0.89 -0.81,0 -1.59,-0.32 -2.16,-0.89 -0.57,-0.57 -0.89,-1.35 -0.89,-2.15 z m -7.062,12.88 c 0,-1.24 0.49,-2.43 1.37,-3.31 0.88,-0.88 2.07,-1.37 3.31,-1.37 1.24,0 2.43,0.49 3.31,1.37 0.88,0.88 1.37,2.07 1.37,3.31 0,1.24 -0.49,2.43 -1.37,3.31 -0.88,0.88 -2.07,1.37 -3.31,1.37 -1.24,0 -2.43,-0.49 -3.31,-1.37 -0.88,-0.88 -1.37,-2.07 -1.37,-3.31 z M 6.372,20.003 v 0 c 0.499,0 0.904,-0.406 0.904,-0.905 v 0 c 0,-0.499 -0.405,-0.905 -0.904,-0.905 v 0 H 4.11 c -1.249,0 -2.262,1.014 -2.262,2.262 v 2.262 0 c 0,0.499 0.405,0.905 0.904,0.905 v 0 c 0.5,0 0.905,-0.406 0.905,-0.905 v 0 -1.357 c 0,-0.749 0.608,-1.357 1.357,-1.357 z m 12.666,8.595 v 0 c 0,0.499 0.406,0.905 0.905,0.905 v 0 c 0.499,0 0.905,-0.406 0.905,-0.905 v 0 -8.143 c 0,-1.248 -1.014,-2.262 -2.262,-2.262 h -8.143 v 0 c -0.499,0 -0.905,0.406 -0.905,0.905 v 0 c 0,0.499 0.406,0.905 0.905,0.905 v 0 h 7.238 c 0.749,0 1.357,0.608 1.357,1.357 z m 6.372,-0.867 0.788,0.557 v 0 l 15.254,10.787 c 0.328,0.232 0.594,0.746 0.594,1.147 v 2.153 c 0,0.401 -0.326,0.727 -0.728,0.727 H 16.591 c -0.401,0 -0.727,-0.326 -0.727,-0.727 v -1.829 c 0,-0.552 -0.448,-1.008 -1,-1.018 l -0.909,-0.016 c -0.552,-0.009 -1,0.431 -1,0.983 v 3.335 c 0,1.204 0.977,2.181 2.182,2.181 h 27.636 c 1.204,0 2.182,-0.977 2.182,-2.181 v -3.666 c 0,-1.204 -0.799,-2.746 -1.782,-3.441 L 31.2,28.263 c 1.192,-0.364 2.287,-1.017 3.185,-1.914 1.44,-1.44 2.25,-3.39 2.25,-5.43 0,-2.03 -0.81,-3.99 -2.25,-5.43 -1.44,-1.44 -3.39,-2.25 -5.43,-2.25 -2.04,0 -3.99,0.81 -5.43,2.25 -1.44,1.44 -2.25,3.4 -2.25,5.43 v 0 c 0,2.04 0.81,3.99 2.25,5.43 0.559,0.559 1.196,1.024 1.885,1.382 z m 11.03,-14.01 8.402,5.937 c 0.723,0.511 1.31,1.645 1.31,2.53 v 2.696 c 0,0.886 -0.719,1.605 -1.604,1.605 h -5.791 c -0.552,0 -1,-0.448 -1,-1 v -0.14 c 0,-0.552 0.448,-1 1,-1 h 4.721 c 0.295,0 0.535,-0.24 0.535,-0.535 v -1.583 c 0,-0.295 -0.196,-0.673 -0.437,-0.844 L 33.024,13.925 c -1.095,-0.251 -2.105,-0.805 -2.917,-1.616 -1.13,-1.13 -1.77,-2.67 -1.77,-4.27 v 0 c 0,-1.61 0.64,-3.15 1.77,-4.28 1.14,-1.13 2.67,-1.77 4.28,-1.77 1.6,0 3.14,0.64 4.27,1.77 1.14,1.13 1.77,2.67 1.77,4.28 0,1.6 -0.63,3.14 -1.77,4.27 -0.631,0.637 -1.391,1.115 -2.217,1.412 z"
       inkscape:connector-curvature="0"
       style="fill:url(#_lgradient_1);fill-rule:evenodd" />
  </g>
</svg>
