<?xml version="1.0" encoding="UTF-8" standalone="no"?>
<!-- Generator: Gravit.io -->

<svg
   xmlns:dc="http://purl.org/dc/elements/1.1/"
   xmlns:cc="http://creativecommons.org/ns#"
   xmlns:rdf="http://www.w3.org/1999/02/22-rdf-syntax-ns#"
   xmlns:svg="http://www.w3.org/2000/svg"
   xmlns="http://www.w3.org/2000/svg"
   xmlns:sodipodi="http://sodipodi.sourceforge.net/DTD/sodipodi-0.dtd"
   xmlns:inkscape="http://www.inkscape.org/namespaces/inkscape"
   style="isolation:isolate"
   viewBox="0 0 48 48"
   width="48"
   height="48"
   version="1.1"
   id="svg23"
   sodipodi:docname="terminator.svg"
   inkscape:version="0.92.4 (5da689c313, 2019-01-14)">
  <metadata
     id="metadata27">
    <rdf:RDF>
      <cc:Work
         rdf:about="">
        <dc:format>image/svg+xml</dc:format>
        <dc:type
           rdf:resource="http://purl.org/dc/dcmitype/StillImage" />
        <dc:title></dc:title>
      </cc:Work>
    </rdf:RDF>
  </metadata>
  <sodipodi:namedview
     pagecolor="#ffffff"
     bordercolor="#666666"
     borderopacity="1"
     objecttolerance="10"
     gridtolerance="10"
     guidetolerance="10"
     inkscape:pageopacity="0"
     inkscape:pageshadow="2"
     inkscape:window-width="640"
     inkscape:window-height="480"
     id="namedview25"
     showgrid="false"
     inkscape:zoom="39.153656"
     inkscape:cx="18.994082"
     inkscape:cy="24"
     inkscape:current-layer="svg23" />
  <defs
     id="defs5">
    <clipPath
       id="_clipPath_lLIFBSKHLUc14vICK1EzX9lsCCiKGpla">
      <rect
         width="48"
         height="48"
         id="rect2"
         x="0"
         y="0" />
    </clipPath>
    <linearGradient
       gradientUnits="userSpaceOnUse"
       gradientTransform="matrix(46.5,0,0,41,1,3.5)"
       y2="0.5"
       x2="1"
       y1="0.5"
       x1="0"
       id="_lgradient_4">
      <stop
         id="stop7"
         style="stop-color:rgb(255,153,102)"
         stop-opacity="1"
         offset="0%" />
      <stop
         id="stop9"
         style="stop-color:rgb(255,94,98)"
         stop-opacity="1"
         offset="98.26086956521739%" />
    </linearGradient>
    <linearGradient
       gradientUnits="userSpaceOnUse"
       gradientTransform="matrix(14.06,0,0,18.12,10.19,13.69)"
       y2="0.5"
       x2="1"
       y1="0.5"
       x1="0"
       id="_lgradient_5">
      <stop
         id="stop14"
         style="stop-color:rgb(255,153,102)"
         stop-opacity="1"
         offset="0%" />
      <stop
         id="stop16"
         style="stop-color:rgb(255,94,98)"
         stop-opacity="1"
         offset="98.26086956521739%" />
    </linearGradient>
  </defs>
  <g
     id="g847"
     transform="matrix(1.0322581,0,0,1.0322581,-1.0322589,-0.7741944)">
    <path
       d="m 27.722,32.15 v 0 c -1.141,0 -2.067,-0.896 -2.067,-2 v 0 c 0,-1.104 0.926,-2 2.067,-2 v 0 H 44.45 c 1.684,0 3.05,1.366 3.05,3.05 v 4.3 c 0,2.39 -0.982,4.68 -2.728,6.36 C 43.036,43.55 40.67,44.5 38.2,44.5 H 10.3 C 7.83,44.5 5.464,43.55 3.728,41.86 1.982,40.18 1,37.89 1,35.5 v -23 C 1,10.11 1.982,7.82 3.728,6.14 5.464,4.45 7.83,3.5 10.3,3.5 h 27.9 c 2.47,0 4.836,0.95 6.572,2.64 1.746,1.68 2.728,3.97 2.728,6.36 v 4.34 0 c 0,1.104 -0.926,2 -2.067,2 v 0 c -1.14,0 -2.066,-0.896 -2.066,-2 v 0 -4.34 c 0,-1.33 -0.548,-2.6 -1.509,-3.54 C 40.887,8.03 39.574,7.5 38.2,7.5 H 10.3 C 8.926,7.5 7.613,8.03 6.642,8.96 5.681,9.9 5.133,11.17 5.133,12.5 v 23 c 0,1.33 0.548,2.6 1.509,3.54 0.971,0.93 2.284,1.46 3.658,1.46 h 27.9 c 1.374,0 2.687,-0.53 3.658,-1.46 0.961,-0.94 1.509,-2.21 1.509,-3.54 v -3.35 z"
       id="path12"
       style="fill:url(#_lgradient_4)"
       inkscape:connector-curvature="0" />
    <path
       d="m 11.77,18.08 v 0 c -0.872,-0.684 -1.027,-1.946 -0.345,-2.815 v 0 c 0.682,-0.869 1.938,-1.024 2.805,-0.345 v 0 l 7.656,5.983 c 1.305,1.019 1.305,2.675 0,3.694 L 14.23,30.58 v 0 c -0.867,0.679 -2.123,0.524 -2.805,-0.345 v 0 C 10.743,29.366 10.898,28.104 11.77,27.42 v 0 l 5.98,-4.67 z"
       id="path19"
       style="fill:url(#_lgradient_5)"
       inkscape:connector-curvature="0" />
  </g>
</svg>
