<?xml version="1.0" encoding="UTF-8" standalone="no"?>
<!-- Generator: Gravit.io -->

<svg
   xmlns:dc="http://purl.org/dc/elements/1.1/"
   xmlns:cc="http://creativecommons.org/ns#"
   xmlns:rdf="http://www.w3.org/1999/02/22-rdf-syntax-ns#"
   xmlns:svg="http://www.w3.org/2000/svg"
   xmlns="http://www.w3.org/2000/svg"
   xmlns:sodipodi="http://sodipodi.sourceforge.net/DTD/sodipodi-0.dtd"
   xmlns:inkscape="http://www.inkscape.org/namespaces/inkscape"
   style="isolation:isolate"
   viewBox="0 0 36 36"
   width="48"
   height="48"
   version="1.1"
   id="svg30"
   sodipodi:docname="termius.svg"
   inkscape:version="0.92.4 (5da689c313, 2019-01-14)">
  <metadata
     id="metadata36">
    <rdf:RDF>
      <cc:Work
         rdf:about="">
        <dc:format>image/svg+xml</dc:format>
        <dc:type
           rdf:resource="http://purl.org/dc/dcmitype/StillImage" />
        <dc:title></dc:title>
      </cc:Work>
    </rdf:RDF>
  </metadata>
  <defs
     id="defs34" />
  <sodipodi:namedview
     pagecolor="#ffffff"
     bordercolor="#666666"
     borderopacity="1"
     objecttolerance="10"
     gridtolerance="10"
     guidetolerance="10"
     inkscape:pageopacity="0"
     inkscape:pageshadow="2"
     inkscape:window-width="640"
     inkscape:window-height="480"
     id="namedview32"
     showgrid="false"
     inkscape:zoom="29.365243"
     inkscape:cx="25.325443"
     inkscape:cy="32"
     inkscape:current-layer="svg30"
     units="px" />
  <linearGradient
     id="_lgradient_0"
     x1="0"
     y1="0.5"
     x2="0.90748805"
     y2="0.92007786"
     gradientTransform="matrix(46.43,0,0,34.39,1,6.1)"
     gradientUnits="userSpaceOnUse">
    <stop
       offset="0%"
       stop-opacity="1"
       style="stop-color:rgb(78,84,200)"
       id="stop2" />
    <stop
       offset="83.88839793817618%"
       stop-opacity="1"
       style="stop-color:rgb(0,114,255)"
       id="stop4" />
  </linearGradient>
  <linearGradient
     id="_lgradient_1"
     x1="0"
     y1="0.5"
     x2="0.90748805"
     y2="0.92007786"
     gradientTransform="matrix(10.19,0,0,10.29,15.14,20.53)"
     gradientUnits="userSpaceOnUse">
    <stop
       offset="0%"
       stop-opacity="1"
       style="stop-color:rgb(78,84,200)"
       id="stop9" />
    <stop
       offset="83.88839793817618%"
       stop-opacity="1"
       style="stop-color:rgb(0,114,255)"
       id="stop11" />
  </linearGradient>
  <linearGradient
     id="_lgradient_2"
     x1="0"
     y1="0.5"
     x2="0.90748805"
     y2="0.92007786"
     gradientTransform="matrix(9.69,0,0,4.061,24.31,28.72)"
     gradientUnits="userSpaceOnUse">
    <stop
       offset="0%"
       stop-opacity="1"
       style="stop-color:rgb(78,84,200)"
       id="stop16" />
    <stop
       offset="83.88839793817618%"
       stop-opacity="1"
       style="stop-color:rgb(0,114,255)"
       id="stop18" />
  </linearGradient>
  <linearGradient
     id="_lgradient_3"
     x1="0"
     y1="0.5"
     x2="0.90748805"
     y2="0.92007786"
     gradientTransform="matrix(4,0,0,4,22.215,36.49)"
     gradientUnits="userSpaceOnUse">
    <stop
       offset="0%"
       stop-opacity="1"
       style="stop-color:rgb(78,84,200)"
       id="stop23" />
    <stop
       offset="83.88839793817618%"
       stop-opacity="1"
       style="stop-color:rgb(0,114,255)"
       id="stop25" />
  </linearGradient>
  <g
     id="g847"
     transform="matrix(0.77536076,0,0,0.77536076,-0.7753608,-0.0621308)">
    <path
       id="path7"
       d="m 34.71,36.32 h 0.14 c 1.17,0 2.32,-0.2 3.42,-0.59 1,-0.36 1.92,-0.89 2.74,-1.58 0.73,-0.62 1.34,-1.38 1.78,-2.24 0.41,-0.82 0.63,-1.72 0.64,-2.63 v -0.07 c 0,-1.05 -0.28,-2.08 -0.79,-2.99 -0.9,-1.56 -2.32,-2.76 -3.071,-3.036 -0.518,-0.19 -0.641,-0.679 -0.275,-1.091 0.616,-0.693 1.326,-2.553 1.336,-4.483 0,-0.56 -0.07,-1.12 -0.19,-1.66 -0.38,-1.68 -1.34,-3.18 -2.71,-4.23 -1.39,-1.06 -3.09,-1.63 -4.85,-1.62 -0.69,0 -1.37,0.08 -2.04,0.25 q -2.95,0.73 -5.107,4.166 c -0.587,0.935 -1.474,0.897 -1.979,-0.084 Q 22.68,12.35 20.69,11.48 c -1.02,-0.45 -2.12,-0.68 -3.24,-0.67 -0.71,0 -1.42,0.08 -2.11,0.25 -1.8,0.44 -3.42,1.45 -4.61,2.88 -1.09,1.29 -1.69,2.91 -1.71,4.59 0,0.48 0.05,0.95 0.16,1.42 0.15,0.72 0.49,1.38 0.49,1.38 0.265,0.309 0.065,0.728 -0.447,0.936 C 8.35,22.62 6.87,23.94 5.94,25.63 5.33,26.74 5,27.98 5,29.25 c 0,0.53 0.06,1.05 0.17,1.57 0.38,1.63 1.31,3.08 2.65,4.09 1.39,1.04 3.08,1.59 4.82,1.58 0.34,0 0.68,-0.02 1.03,-0.06 v 0 c 1.093,-0.132 2.088,0.649 2.22,1.745 v 0 c 0.132,1.096 -0.647,2.093 -1.74,2.225 v 0 c -0.5,0.06 -1,0.09 -1.5,0.09 C 10.04,40.51 7.51,39.67 5.42,38.11 3.33,36.53 1.85,34.26 1.27,31.71 1.09,30.9 1,30.07 1,29.24 1,27.3 1.5,25.4 2.43,23.7 3.14,22.42 4.07,21.27 5.17,20.31 5.07,19.72 5.02,19.11 5.02,18.51 5.04,15.9 5.98,13.37 7.67,11.37 9.4,9.29 11.76,7.82 14.39,7.18 c 1,-0.25 2.02,-0.37 3.05,-0.37 1.67,-0.01 3.33,0.34 4.86,1.01 0.83,0.36 1.61,0.83 2.32,1.38 1.51,-1.32 3.31,-2.25 5.26,-2.73 0.98,-0.25 1.98,-0.37 3,-0.37 2.63,-0.01 5.19,0.85 7.28,2.45 2.12,1.61 3.6,3.92 4.18,6.52 0.19,0.83 0.29,1.69 0.29,2.54 -0.01,1.33 -0.23,2.65 -0.67,3.91 0.85,0.79 1.57,1.71 2.15,2.72 0.86,1.51 1.31,3.22 1.32,4.96 0,0.01 0,0.01 0,0.02 v 0.08 c 0,0.01 0,0.01 0,0.02 -0.02,1.53 -0.39,3.03 -1.07,4.4 -0.69,1.34 -1.63,2.52 -2.78,3.49 -1.17,0.99 -2.52,1.77 -3.97,2.28 -1.53,0.55 -3.14,0.83 -4.77,0.83 0,0 0,0 -0.01,0 h -0.14 c -0.7,-0.01 -1.4,-0.07 -2.08,-0.2 v 0 c -1.087,-0.204 -1.804,-1.25 -1.6,-2.335 v 0 c 0.204,-1.085 1.248,-1.799 2.33,-1.595 v 0 c 0.45,0.08 0.91,0.12 1.37,0.13 0,0 0,0 0,0 z"
       style="fill:url(#_lgradient_0)"
       inkscape:connector-curvature="0" />
    <path
       id="path14"
       d="m 16.5,23.88 v 0 c -0.751,-0.348 -1.078,-1.239 -0.73,-1.99 v 0 c 0.348,-0.751 1.239,-1.078 1.99,-0.73 v 0 l 4.85,2.255 c 1.501,0.698 1.643,2.07 0.317,3.061 L 18.32,29.92 v 0 c -0.662,0.497 -1.603,0.36 -2.1,-0.305 v 0 c -0.497,-0.665 -0.362,-1.604 0.3,-2.095 v 0 l 2.99,-2.24 z"
       style="fill:url(#_lgradient_1)"
       inkscape:connector-curvature="0" />
    <path
       id="path21"
       d="m 31.175,29.36 v 0 c 0.806,-0.353 1.766,-0.031 2.143,0.72 v 0 c 0.376,0.751 0.032,1.647 -0.768,2 v 0 c -0.516,0.22 -1.064,0.4 -1.612,0.52 -0.548,0.11 -1.095,0.18 -1.654,0.18 -0.569,0.01 -1.139,-0.05 -1.708,-0.16 -0.613,-0.12 -1.203,-0.29 -1.783,-0.52 v 0 c -0.819,-0.32 -1.201,-1.201 -0.855,-1.965 v 0 c 0.347,-0.764 1.293,-1.121 2.111,-0.795 v 0 c 0.387,0.15 0.785,0.27 1.204,0.35 0.322,0.06 0.666,0.09 1.009,0.09 0.312,0 0.634,-0.04 0.946,-0.1 0.333,-0.08 0.655,-0.18 0.967,-0.32 z"
       style="fill:url(#_lgradient_2)"
       inkscape:connector-curvature="0" />
    <circle
       id="circle28"
       r="2"
       cy="38.490349"
       cx="24.215"
       style="vector-effect:non-scaling-stroke;fill:url(#_lgradient_3)" />
  </g>
</svg>
