<?xml version="1.0" encoding="UTF-8" standalone="no"?>
<!-- Generator: Gravit.io -->

<svg
   xmlns:dc="http://purl.org/dc/elements/1.1/"
   xmlns:cc="http://creativecommons.org/ns#"
   xmlns:rdf="http://www.w3.org/1999/02/22-rdf-syntax-ns#"
   xmlns:svg="http://www.w3.org/2000/svg"
   xmlns="http://www.w3.org/2000/svg"
   xmlns:sodipodi="http://sodipodi.sourceforge.net/DTD/sodipodi-0.dtd"
   xmlns:inkscape="http://www.inkscape.org/namespaces/inkscape"
   style="isolation:isolate"
   viewBox="0 0 36 36"
   width="48"
   height="48"
   version="1.1"
   id="svg9"
   sodipodi:docname="texmaker.svg"
   inkscape:version="0.92.4 (5da689c313, 2019-01-14)">
  <metadata
     id="metadata15">
    <rdf:RDF>
      <cc:Work
         rdf:about="">
        <dc:format>image/svg+xml</dc:format>
        <dc:type
           rdf:resource="http://purl.org/dc/dcmitype/StillImage" />
        <dc:title></dc:title>
      </cc:Work>
    </rdf:RDF>
  </metadata>
  <defs
     id="defs13" />
  <sodipodi:namedview
     pagecolor="#ffffff"
     bordercolor="#666666"
     borderopacity="1"
     objecttolerance="10"
     gridtolerance="10"
     guidetolerance="10"
     inkscape:pageopacity="0"
     inkscape:pageshadow="2"
     inkscape:window-width="640"
     inkscape:window-height="480"
     id="namedview11"
     showgrid="false"
     inkscape:zoom="29.365243"
     inkscape:cx="25.325443"
     inkscape:cy="32"
     inkscape:current-layer="svg9"
     units="px" />
  <linearGradient
     id="_lgradient_19"
     x1="0"
     y1="0.5"
     x2="1"
     y2="0.5"
     gradientTransform="matrix(46,0,0,46,1,1)"
     gradientUnits="userSpaceOnUse">
    <stop
       offset="0%"
       stop-opacity="1"
       style="stop-color:rgb(132,250,176)"
       id="stop2" />
    <stop
       offset="98.26086956521739%"
       stop-opacity="1"
       style="stop-color:rgb(143,211,244)"
       id="stop4" />
  </linearGradient>
  <g
     id="g826"
     transform="matrix(0.7826087,0,0,0.7826087,-0.7826088,-0.7826088)">
    <path
       id="path7"
       d="m 5,12.55 v 0 c 0,1.104 -0.896,2 -2,2 v 0 c -1.104,0 -2,-0.896 -2,-2 v 0 V 6 C 1,3.24 3.24,1 6,1 h 36 c 2.76,0 5,2.24 5,5 v 19 0 c 0,1.104 -0.896,2 -2,2 v 0 c -1.104,0 -2,-0.896 -2,-2 V 25 8 C 43,6.344 41.656,5 40,5 H 8 C 6.344,5 5,6.344 5,8 Z m 38,22.9 v 0 c 0,-1.104 0.896,-2 2,-2 v 0 c 1.104,0 2,0.896 2,2 v 0 6.55 c 0,2.76 -2.24,5 -5,5 H 6 C 3.24,47 1,44.76 1,42 v -19.82 0 c 0,-1.104 0.896,-2 2,-2 v 0 c 1.104,0 2,0.896 2,2 v 0 V 40 c 0,1.656 1.344,3 3,3 h 32 c 1.656,0 3,-1.344 3,-3 z M 27.925,14.237 c -0.13,0.017 -0.227,0.127 -0.228,0.257 v 0.51 c 0,0.144 0.116,0.26 0.26,0.26 0.577,0 0.943,0.018 1.186,0.094 0.241,0.076 0.39,0.197 0.604,0.497 0.001,0.002 0.002,0.002 0.003,0.003 l 3.973,5.831 -3.573,5.224 c -0.838,1.213 -2.075,1.221 -2.469,1.221 -0.144,0 -0.26,0.117 -0.26,0.26 v 0.51 c 0,0.073 0.03,0.143 0.084,0.192 0.054,0.05 0.126,0.074 0.199,0.068 0.238,-0.02 0.583,-0.022 0.912,-0.026 -0.196,1.168 -0.43,2.057 -0.929,2.631 -0.543,0.626 -1.426,0.968 -3.102,0.968 h -2.933 c -0.206,0 -0.355,-0.006 -0.449,-0.022 -0.093,-0.017 -0.116,-0.036 -0.123,-0.043 -0.007,-0.006 -0.023,-0.026 -0.036,-0.11 -0.012,-0.084 -0.016,-0.22 -0.016,-0.4 v -5.645 h 1.731 c 0.965,0 1.399,0.17 1.628,0.484 0.229,0.313 0.296,0.888 0.296,1.77 0,0.144 0.116,0.26 0.259,0.26 h 0.342 c 0.143,0 0.259,-0.116 0.259,-0.26 v -5.496 c 0,-0.144 -0.116,-0.26 -0.259,-0.26 h -0.342 c -0.143,0 -0.259,0.116 -0.259,0.26 0,0.867 -0.065,1.434 -0.293,1.741 -0.228,0.306 -0.665,0.471 -1.631,0.471 H 21.028 V 20.51 c 0,-0.176 0.004,-0.305 0.016,-0.386 0.013,-0.082 0.027,-0.098 0.033,-0.104 0.006,-0.006 0.029,-0.026 0.123,-0.043 0.094,-0.016 0.246,-0.026 0.452,-0.026 h 2.888 c 1.6,0 2.407,0.31 2.884,0.904 0.477,0.593 0.655,1.567 0.803,2.956 0.015,0.132 0.127,0.231 0.259,0.23 h 0.381 c 0.073,0.001 0.144,-0.03 0.193,-0.085 0.05,-0.054 0.074,-0.127 0.066,-0.201 L 28.62,19.084 C 28.606,18.951 28.494,18.85 28.36,18.85 h -8.963 l -0.321,-4.34 c -0.009,-0.137 -0.123,-0.244 -0.26,-0.243 H 6.618 c -0.136,-10e-4 -0.25,0.104 -0.26,0.24 l -0.357,4.671 c -0.006,0.073 0.019,0.144 0.069,0.197 0.049,0.053 0.118,0.083 0.191,0.083 h 0.38 c 0.135,0 0.248,-0.103 0.26,-0.237 0.136,-1.744 0.298,-2.723 0.734,-3.22 0.218,-0.248 0.509,-0.405 0.968,-0.51 0.458,-0.104 1.076,-0.146 1.887,-0.146 h 1.127 c 0.149,0.023 0.128,0.021 0.15,0.078 0.021,0.058 0.032,0.225 0.032,0.468 V 27.39 c 0,0.188 -0.007,0.329 -0.029,0.413 -0.022,0.084 -0.039,0.112 -0.107,0.156 -0.136,0.087 -0.571,0.169 -1.449,0.169 H 9.616 c -0.143,0 -0.26,0.116 -0.26,0.26 v 0.51 c 0,0.07 0.029,0.137 0.079,0.186 0.05,0.049 0.118,0.075 0.188,0.074 1.013,-0.02 2.066,-0.039 3.099,-0.039 1.03,0 2.086,0.019 3.099,0.039 0.07,10e-4 0.138,-0.025 0.188,-0.074 0.05,-0.049 0.078,-0.116 0.078,-0.186 v -0.51 c 0,-0.144 -0.116,-0.26 -0.26,-0.26 h -0.591 c -0.865,0 -1.291,-0.083 -1.423,-0.169 C 13.747,27.916 13.731,27.891 13.709,27.806 13.688,27.722 13.68,27.578 13.68,27.39 V 15.891 c 0,-0.233 0.01,-0.393 0.033,-0.455 0.021,-0.059 0.017,-0.063 0.136,-0.091 h 1.111 c 0.793,0 1.399,0.041 1.852,0.143 0.452,0.102 0.746,0.257 0.964,0.5 0.41,0.456 0.583,1.35 0.715,2.862 h -0.828 c -0.144,0 -0.26,0.117 -0.26,0.26 v 0.582 c 0,0.143 0.116,0.259 0.26,0.259 0.748,0 1.178,0.027 1.319,0.095 0.07,0.033 0.085,0.05 0.113,0.133 0.029,0.083 0.046,0.235 0.046,0.461 v 11.399 c 0,0.226 -0.017,0.385 -0.046,0.468 -0.028,0.083 -0.044,0.099 -0.113,0.133 -0.14,0.067 -0.57,0.091 -1.319,0.091 -0.144,0 -0.26,0.116 -0.26,0.26 v 0.513 c 0,0.143 0.116,0.26 0.26,0.26 h 10.992 c 0.13,-0.001 0.239,-0.096 0.257,-0.224 l 0.627,-4.415 c 0.577,0 1.519,0.002 2.004,0.039 0.072,0.005 0.143,-0.019 0.196,-0.068 0.052,-0.048 0.083,-0.117 0.084,-0.189 v -0.51 c 0,-0.134 -0.101,-0.246 -0.234,-0.259 -0.274,-0.027 -0.411,-0.118 -0.494,-0.218 -0.083,-0.1 -0.117,-0.226 -0.117,-0.348 0,-0.206 0.057,-0.277 0.162,-0.425 0.002,-10e-4 0.003,-0.002 0.004,-0.003 l 3.164,-4.62 3.459,5.087 c 10e-4,0.002 0.002,0.005 0.004,0.007 0.077,0.108 0.108,0.17 0.116,0.191 0.009,0.022 0.004,-0.008 0.004,0.02 0,-0.031 -0.028,0.273 -0.686,0.312 -0.137,0.008 -0.244,0.122 -0.243,0.26 v 0.51 c 0,0.071 0.03,0.139 0.083,0.187 0.052,0.049 0.122,0.074 0.193,0.069 0.66,-0.039 1.691,-0.039 2.387,-0.039 0.548,0 1.611,0.001 2.096,0.039 0.071,0.006 0.142,-0.019 0.195,-0.067 0.053,-0.049 0.083,-0.117 0.084,-0.189 v -0.51 c 0,-0.144 -0.116,-0.26 -0.26,-0.26 -0.67,0 -1.04,-0.033 -1.254,-0.111 -0.212,-0.077 -0.316,-0.194 -0.516,-0.477 l -0.004,-0.003 -4.541,-6.643 3.021,-4.37 c 0.001,-10e-4 0.003,-0.002 0.003,-0.003 0.315,-0.446 0.833,-1.248 2.473,-1.27 0.142,-0.002 0.256,-0.118 0.256,-0.26 v -0.51 c 0,-0.072 -0.031,-0.141 -0.085,-0.19 -0.054,-0.049 -0.125,-0.073 -0.197,-0.067 -0.461,0.039 -1.265,0.039 -1.771,0.039 -0.695,0 -1.564,0 -2.069,-0.039 -0.072,-0.005 -0.143,0.02 -0.195,0.068 -0.053,0.049 -0.084,0.117 -0.085,0.189 v 0.51 c 0,0.135 0.103,0.248 0.238,0.26 0.286,0.027 0.417,0.116 0.497,0.214 0.079,0.098 0.11,0.227 0.11,0.354 0,0.182 -0.061,0.283 -0.205,0.484 -10e-4,0.002 -0.002,0.003 -0.003,0.004 l -2.576,3.732 -2.91,-4.262 c -0.065,-0.101 -0.102,-0.169 -0.114,-0.198 -0.013,-0.03 -0.007,-0.011 -0.007,-0.016 0,0.019 0.064,-0.295 0.676,-0.312 0.141,-0.004 0.253,-0.119 0.253,-0.26 v -0.51 c 0,-0.071 -0.03,-0.139 -0.083,-0.188 -0.052,-0.048 -0.122,-0.073 -0.193,-0.069 -0.661,0.04 -1.695,0.039 -2.391,0.039 -0.546,0 -1.609,-10e-4 -2.092,-0.039 -0.017,-10e-4 -0.034,-10e-4 -0.052,0 z"
       inkscape:connector-curvature="0"
       style="fill:url(#_lgradient_19);fill-rule:evenodd" />
  </g>
</svg>
