<?xml version="1.0" encoding="UTF-8" standalone="no"?>
<!-- Generator: Gravit.io -->

<svg
   xmlns:dc="http://purl.org/dc/elements/1.1/"
   xmlns:cc="http://creativecommons.org/ns#"
   xmlns:rdf="http://www.w3.org/1999/02/22-rdf-syntax-ns#"
   xmlns:svg="http://www.w3.org/2000/svg"
   xmlns="http://www.w3.org/2000/svg"
   xmlns:sodipodi="http://sodipodi.sourceforge.net/DTD/sodipodi-0.dtd"
   xmlns:inkscape="http://www.inkscape.org/namespaces/inkscape"
   style="isolation:isolate"
   viewBox="0 0 36 36"
   width="48"
   height="48"
   version="1.1"
   id="svg16"
   sodipodi:docname="tigervnc.svg"
   inkscape:version="0.92.4 (5da689c313, 2019-01-14)">
  <metadata
     id="metadata22">
    <rdf:RDF>
      <cc:Work
         rdf:about="">
        <dc:format>image/svg+xml</dc:format>
        <dc:type
           rdf:resource="http://purl.org/dc/dcmitype/StillImage" />
        <dc:title></dc:title>
      </cc:Work>
    </rdf:RDF>
  </metadata>
  <defs
     id="defs20" />
  <sodipodi:namedview
     pagecolor="#ffffff"
     bordercolor="#666666"
     borderopacity="1"
     objecttolerance="10"
     gridtolerance="10"
     guidetolerance="10"
     inkscape:pageopacity="0"
     inkscape:pageshadow="2"
     inkscape:window-width="640"
     inkscape:window-height="480"
     id="namedview18"
     showgrid="false"
     inkscape:zoom="29.365243"
     inkscape:cx="25.325443"
     inkscape:cy="32"
     inkscape:current-layer="svg16"
     units="px" />
  <linearGradient
     id="_lgradient_0"
     x1="1.0310496"
     y1="0.50880176"
     x2="-0.068947434"
     y2="0.49944913"
     gradientTransform="matrix(-41.785,1.171,-1.203,-42.94,45.32,45.39)"
     gradientUnits="userSpaceOnUse">
    <stop
       offset="0%"
       stop-opacity="1"
       style="stop-color:rgb(255,224,49)"
       id="stop2" />
    <stop
       offset="98.69565217391305%"
       stop-opacity="1"
       style="stop-color:rgb(252,82,82)"
       id="stop4" />
  </linearGradient>
  <linearGradient
     id="_lgradient_1"
     x1="0"
     y1="0.5"
     x2="1"
     y2="0.5"
     gradientTransform="matrix(46.5,0,0,45,0.75,1.5)"
     gradientUnits="userSpaceOnUse">
    <stop
       offset="0%"
       stop-opacity="1"
       style="stop-color:rgb(255,224,49)"
       id="stop9" />
    <stop
       offset="98.69565217391305%"
       stop-opacity="1"
       style="stop-color:rgb(252,82,82)"
       id="stop11" />
  </linearGradient>
  <g
     id="g831"
     transform="matrix(0.77419355,0,0,0.77419355,-0.5806452,-0.5806452)">
    <path
       id="path7"
       d="m 39.565,43.57 0.164,-0.415 c 0.232,-0.586 0.846,-2.802 1.191,-4.291 0.217,-0.937 0.515,-1.821 1.16,-3.445 0.855,-2.153 1.569,-4.107 1.564,-4.28 -10e-4,-0.043 0.242,-1.072 0.504,-2.16 L 43.489,5.447 C 43.474,4.931 43.261,4.472 42.932,4.126 l -0.086,0.292 c -0.598,2.02 -1.053,3.828 -1.123,4.459 -0.041,0.367 -0.22,1.109 -0.397,1.651 -0.178,0.541 -0.348,1.258 -0.378,1.593 -0.029,0.335 -0.196,1.16 -0.37,1.833 -0.175,0.673 -0.316,1.309 -0.313,1.413 0.003,0.105 0.091,0.3 0.196,0.435 0.146,0.185 0.182,0.32 0.151,0.554 -0.036,0.263 -0.007,0.331 0.182,0.454 0.677,0.44 0.702,0.599 0.247,1.57 -0.179,0.383 -0.468,1.08 -0.64,1.55 -0.172,0.469 -0.767,1.994 -1.322,3.388 -0.959,2.411 -1.019,2.6 -1.239,3.891 -0.126,0.747 -0.227,1.425 -0.225,1.507 0.005,0.171 -1.473,4.198 -2.322,6.328 -0.571,1.432 -0.573,1.44 -0.551,2.223 0.018,0.637 -0.029,0.997 -0.254,1.898 -0.27,1.087 -0.275,1.129 -0.163,1.857 0.157,1.018 0.155,0.944 0.021,1.528 -0.065,0.287 -0.138,0.667 -0.163,0.846 l -0.046,0.326 z M 31.38,41.095 c 0.486,-0.529 -1.343,-0.961 -1.367,-1.016 -0.023,-0.056 0.029,-0.391 0.116,-0.744 0.088,-0.354 0.157,-0.762 0.153,-0.905 -0.004,-0.144 0.062,-0.671 0.147,-1.173 0.084,-0.501 0.172,-1.359 0.196,-1.906 0.05,-1.108 0.329,-2.324 0.998,-4.348 0.214,-0.648 0.623,-2.055 0.907,-3.127 0.305,-1.15 0.743,-2.526 1.068,-3.357 0.304,-0.775 0.577,-1.525 0.606,-1.668 0.03,-0.143 0.342,-1.046 0.694,-2.007 0.482,-1.314 0.656,-1.908 0.701,-2.397 0.033,-0.358 0.132,-0.924 0.221,-1.259 0.088,-0.335 0.223,-1.156 0.296,-1.823 0.151,-1.367 0.216,-1.665 0.448,-2.068 0.281,-0.486 0.475,-1.38 0.506,-2.31 0.022,-0.644 0.108,-1.193 0.307,-1.953 0.621,-2.377 0.649,-2.522 0.63,-3.257 -0.019,-0.705 0.115,-1.456 0.348,-1.946 L 38.469,3.589 33.045,3.741 33,4.012 c -0.101,0.593 -0.044,0.791 0.327,1.149 0.566,0.545 0.561,0.621 -0.17,3.196 -0.83,2.925 -1.49,5.533 -1.481,5.856 0.01,0.353 -0.264,1.189 -0.547,1.672 -0.592,1.012 -0.806,1.576 -1.689,4.428 -0.518,1.674 -1.031,3.317 -1.142,3.653 -0.116,0.349 -0.233,0.991 -0.273,1.5 -0.063,0.805 -0.138,1.082 -0.785,2.875 -0.394,1.091 -0.741,2.1 -0.769,2.243 -0.029,0.144 -0.264,0.852 -0.523,1.572 -0.558,1.554 -0.786,2.502 -0.766,3.189 0.012,0.45 0.042,0.526 0.28,0.727 0.34,0.286 0.361,0.704 0.093,1.798 -0.263,1.075 5.405,3.684 5.825,3.225 z m -13.857,3.093 0.228,-0.72 c 0.125,-0.395 0.361,1.772 0.524,1.149 0.164,-0.622 0.44,-4.486 0.616,-4.918 0.453,-1.108 1.075,-3.04 1.406,-4.365 0.311,-1.244 1.503,-5.496 2.282,-8.14 0.276,-0.934 0.719,-2.19 0.985,-2.792 0.321,-0.724 0.607,-1.57 0.844,-2.505 0.198,-0.777 0.621,-2.306 0.942,-3.397 0.322,-1.092 0.784,-2.722 1.028,-3.622 0.245,-0.9 0.582,-2.057 0.749,-2.571 0.296,-0.91 0.812,-2.989 1.654,-6.652 L 29.195,3.849 21.31,4.07 21.06,4.791 c -0.137,0.396 -0.425,1.269 -0.639,1.942 -0.381,1.202 -1.581,4.257 -2.179,5.548 -0.284,0.612 -0.363,0.702 -1.18,1.348 l -0.875,0.693 -0.63,-0.024 -0.63,-0.025 -0.621,0.443 c -0.715,0.51 -0.724,0.525 -1.141,1.66 -0.172,0.468 -0.484,1.175 -0.693,1.571 -0.208,0.395 -0.799,1.751 -1.312,3.016 -0.513,1.265 -1.212,2.872 -1.555,3.57 C 8.356,27.079 7.724,28.48 7.563,29.059 7.473,29.385 7.272,30.114 7.116,30.68 6.96,31.245 6.673,32.075 6.48,32.524 5.955,33.745 4.975,36.486 4.393,38.306 l 0.119,4.249 c 0.029,1.011 0.798,1.812 1.776,1.921 L 8.365,44.402 8.46,43.751 c 0.052,-0.358 0.193,-1.14 0.312,-1.738 0.124,-0.618 0.195,-1.215 0.167,-1.386 -0.038,-0.226 0.053,-0.586 0.36,-1.436 0.381,-1.057 0.841,-2.837 1.179,-4.561 0.091,-0.462 0.323,-1.122 0.634,-1.803 0.269,-0.591 0.488,-1.118 0.487,-1.171 -0.007,-0.23 0.754,-2.368 1.027,-2.885 0.165,-0.314 0.363,-0.736 0.438,-0.937 0.076,-0.2 0.325,-0.714 0.552,-1.142 0.228,-0.429 0.59,-1.211 0.804,-1.737 0.213,-0.525 0.598,-1.337 0.856,-1.804 0.258,-0.466 0.583,-1.094 0.721,-1.393 0.154,-0.334 0.515,-0.84 0.934,-1.308 0.828,-0.925 1.143,-1.349 1.384,-1.866 0.27,-0.577 0.484,-0.789 0.804,-0.798 0.152,-0.004 0.385,0.073 0.519,0.173 0.235,0.174 0.242,0.2 0.201,0.75 -0.024,0.314 -0.059,1.076 -0.078,1.695 -0.042,1.356 -0.104,1.547 -1.057,3.271 -0.894,1.616 -0.943,1.725 -1.167,2.504 -0.102,0.356 -0.351,0.973 -0.551,1.37 -1.087,2.148 -1.277,2.767 -1.243,4.054 0.006,0.223 -0.026,0.563 -0.072,0.754 -0.154,0.629 -2.152,8.981 -3.136,11.398 -0.218,0.536 -0.395,1.03 -0.393,1.099 0.002,0.069 0.225,0.319 0.493,0.555 0.268,0.236 0.488,-2.521 0.49,-2.459 10e-4,0.062 -0.124,0.397 -0.279,0.744 l -0.282,0.632 4.957,-0.139 z M 4.052,26.134 C 4.084,26.019 4.573,24.748 5.211,23.128 8.251,15.409 8.821,13.4 8.758,10.612 8.746,10.087 8.703,9.869 8.569,9.665 8.397,9.403 8.398,9.395 8.577,8.403 8.676,7.854 8.771,7.01 8.788,6.527 L 8.82,5.649 8.436,5.474 C 7.318,4.967 7.219,4.904 7.213,4.682 L 7.206,4.465 5.428,4.515 C 4.33,4.558 3.473,5.468 3.504,6.569 L 4.052,26.135 Z M 11.81,10.817 c 0.264,-0.008 1.171,-0.483 1.598,-0.838 0.399,-0.332 1.281,-1.531 1.482,-2.013 0.109,-0.265 0.316,-0.815 0.46,-1.223 0.143,-0.408 0.409,-1.057 0.59,-1.442 0.181,-0.386 0.351,-0.788 0.38,-0.896 l 0.051,-0.197 -4.994,0.14 -0.249,0.591 c -0.137,0.325 -0.289,0.765 -0.336,0.981 -0.048,0.215 -0.103,0.453 -0.122,0.529 -0.04,0.154 0.114,0.347 0.785,0.982 l 0.462,0.436 -0.277,1.325 c -0.308,1.472 -0.29,1.638 0.17,1.625 z"
       inkscape:connector-curvature="0"
       style="fill:url(#_lgradient_0)" />
    <path
       id="path14"
       d="m 16.263,42.67 c 0.525,0 1.029,0.201 1.405,0.565 0.366,0.354 0.574,0.843 0.574,1.35 0,0.508 -0.208,0.996 -0.574,1.35 -0.376,0.364 -0.88,0.565 -1.405,0.565 h -8.7 C 3.803,46.5 0.75,43.447 0.75,39.687 V 8.313 C 0.75,4.553 3.803,1.5 7.563,1.5 h 32.874 c 3.76,0 6.813,3.053 6.813,6.813 v 31.374 c 0,3.76 -3.053,6.813 -6.813,6.813 h -8.7 c -0.525,0 -1.029,-0.201 -1.405,-0.565 -0.366,-0.354 -0.574,-0.842 -0.574,-1.35 0,-0.507 0.208,-0.996 0.574,-1.35 0.376,-0.364 0.88,-0.565 1.405,-0.565 h 6.689 c 2.686,0 4.867,-2.18 4.867,-4.866 V 10.196 C 43.293,7.51 41.112,5.33 38.426,5.33 H 9.574 c -2.686,0 -4.867,2.18 -4.867,4.866 v 27.608 c 0,2.686 2.181,4.866 4.867,4.866 z"
       inkscape:connector-curvature="0"
       style="fill:url(#_lgradient_1);fill-rule:evenodd" />
  </g>
</svg>
