<?xml version="1.0" encoding="UTF-8" standalone="no"?>
<!-- Generator: Gravit.io -->

<svg
   xmlns:dc="http://purl.org/dc/elements/1.1/"
   xmlns:cc="http://creativecommons.org/ns#"
   xmlns:rdf="http://www.w3.org/1999/02/22-rdf-syntax-ns#"
   xmlns:svg="http://www.w3.org/2000/svg"
   xmlns="http://www.w3.org/2000/svg"
   xmlns:sodipodi="http://sodipodi.sourceforge.net/DTD/sodipodi-0.dtd"
   xmlns:inkscape="http://www.inkscape.org/namespaces/inkscape"
   style="isolation:isolate"
   viewBox="0 0 36 36"
   width="48"
   height="48"
   version="1.1"
   id="svg9"
   sodipodi:docname="timeshift.svg"
   inkscape:version="0.92.4 (5da689c313, 2019-01-14)">
  <metadata
     id="metadata15">
    <rdf:RDF>
      <cc:Work
         rdf:about="">
        <dc:format>image/svg+xml</dc:format>
        <dc:type
           rdf:resource="http://purl.org/dc/dcmitype/StillImage" />
        <dc:title></dc:title>
      </cc:Work>
    </rdf:RDF>
  </metadata>
  <defs
     id="defs13" />
  <sodipodi:namedview
     pagecolor="#ffffff"
     bordercolor="#666666"
     borderopacity="1"
     objecttolerance="10"
     gridtolerance="10"
     guidetolerance="10"
     inkscape:pageopacity="0"
     inkscape:pageshadow="2"
     inkscape:window-width="640"
     inkscape:window-height="480"
     id="namedview11"
     showgrid="false"
     inkscape:zoom="29.365243"
     inkscape:cx="25.325443"
     inkscape:cy="32"
     inkscape:current-layer="svg9"
     units="px" />
  <linearGradient
     id="_lgradient_3"
     x1="0"
     y1="0.5"
     x2="0.90748805"
     y2="0.92007786"
     gradientTransform="scale(48)"
     gradientUnits="userSpaceOnUse">
    <stop
       offset="0%"
       stop-opacity="1"
       style="stop-color:rgb(255,65,108)"
       id="stop2" />
    <stop
       offset="84.34782608695653%"
       stop-opacity="1"
       style="stop-color:rgb(255,75,43)"
       id="stop4" />
  </linearGradient>
  <g
     id="g826"
     transform="scale(0.75)">
    <path
       id="path7"
       d="m 25.112,34.869 c -3.098,-1.093 -4.722,-1.416 -5.996,-1.376 -1.353,0.114 -2.505,0.522 -3.832,0.949 -0.727,0.207 -0.728,0.196 -0.048,-0.547 0.381,-0.416 1.727,-1.408 2.992,-2.204 1.722,-1.083 2.676,-1.362 3.793,-1.362 1.76,0 2.925,-1.048 2.548,-2.193 -1.413,-2.25 -4.791,-5.188 -4.791,-5.989 0,-0.67 1.306,-2.372 2.871,-3.987 0.692,-0.715 0.991,-1.287 0.775,-1.481 -0.45,-0.405 -4.764,-1.113 -6.779,-1.113 -1.61,0 -3.03,0.494 -3.03,1.534 0,0.289 0.198,1.09 0.826,1.781 l 1.142,1.256 c -0.755,0.843 -1.078,1.756 -2.378,1.756 -1.864,0 -1.864,-1.476 -1.854,-2.911 0.263,-3.516 5.75,-7.04 10.94,-6.536 3.282,0.32 6.159,0.781 9.301,1.011 1.749,0.084 2.845,-0.345 4.484,-0.952 1.188,-0.44 0.431,0.976 -1.348,2.52 -2.14,1.857 -3.405,2.947 -6.832,2.639 -2.563,-0.231 -3.265,-0.365 -3.852,1.165 -0.466,1.214 0.043,2.371 2.463,4.842 1.194,1.218 1.715,2.005 1.707,2.775 -0.008,0.69 -0.428,1.365 -1.354,2.324 -0.817,0.846 -1.284,1.687 -1.168,1.87 0.367,0.572 2.794,1.798 4.116,1.798 0.697,0 2.013,-0.191 2.796,-0.577 1.323,-0.652 1.885,-0.646 1.885,0.02 0,0.527 -4.166,3.727 -6.549,3.721 -0.433,-10e-4 -1.706,-0.337 -2.828,-0.733 z M 30.22,4.99 v 0 c 1.049,0.342 2.178,-0.231 2.52,-1.28 v 0 C 33.082,2.661 32.509,1.532 31.46,1.19 v 0 C 29.06,0.4 26.55,0 24.03,0 15.68,0 7.9,4.34 3.54,11.46 1.23,15.22 0,19.56 0,23.97 0,32.32 4.34,40.1 11.46,44.46 15.22,46.77 19.55,48 23.97,48 32.32,48 40.1,43.66 44.46,36.54 46.77,32.78 48,28.45 48,24.03 48,18.39 46.02,12.92 42.41,8.59 v 0 C 41.698,7.746 40.432,7.634 39.585,8.34 v 0 c -0.847,0.706 -0.957,1.97 -0.245,2.82 v 0 C 42.35,14.77 44,19.32 44,24.03 44,27.7 42.98,31.31 41.05,34.45 37.41,40.38 30.93,44 23.97,44 20.29,44 16.69,42.98 13.55,41.05 7.62,37.41 4,30.93 4,23.97 4,20.3 5.02,16.69 6.95,13.55 10.59,7.62 17.07,4 24.03,4 c 2.1,0 4.19,0.33 6.19,0.99 z"
       inkscape:connector-curvature="0"
       style="fill:url(#_lgradient_3);fill-rule:evenodd" />
  </g>
</svg>
