<?xml version="1.0" encoding="UTF-8" standalone="no"?>
<!-- Generator: Gravit.io -->

<svg
   xmlns:dc="http://purl.org/dc/elements/1.1/"
   xmlns:cc="http://creativecommons.org/ns#"
   xmlns:rdf="http://www.w3.org/1999/02/22-rdf-syntax-ns#"
   xmlns:svg="http://www.w3.org/2000/svg"
   xmlns="http://www.w3.org/2000/svg"
   xmlns:sodipodi="http://sodipodi.sourceforge.net/DTD/sodipodi-0.dtd"
   xmlns:inkscape="http://www.inkscape.org/namespaces/inkscape"
   style="isolation:isolate"
   viewBox="0 0 36 36"
   width="48"
   height="48"
   version="1.1"
   id="svg23"
   sodipodi:docname="transmission.svg"
   inkscape:version="0.92.4 (5da689c313, 2019-01-14)">
  <metadata
     id="metadata29">
    <rdf:RDF>
      <cc:Work
         rdf:about="">
        <dc:format>image/svg+xml</dc:format>
        <dc:type
           rdf:resource="http://purl.org/dc/dcmitype/StillImage" />
        <dc:title></dc:title>
      </cc:Work>
    </rdf:RDF>
  </metadata>
  <defs
     id="defs27" />
  <sodipodi:namedview
     pagecolor="#ffffff"
     bordercolor="#666666"
     borderopacity="1"
     objecttolerance="10"
     gridtolerance="10"
     guidetolerance="10"
     inkscape:pageopacity="0"
     inkscape:pageshadow="2"
     inkscape:window-width="640"
     inkscape:window-height="480"
     id="namedview25"
     showgrid="false"
     inkscape:zoom="29.365243"
     inkscape:cx="25.325443"
     inkscape:cy="32"
     inkscape:current-layer="svg23"
     units="px" />
  <linearGradient
     id="_lgradient_21"
     x1="0"
     y1="0.5"
     x2="1"
     y2="0.5"
     gradientTransform="matrix(36,0,0,31.1,6,1)"
     gradientUnits="userSpaceOnUse">
    <stop
       offset="0%"
       stop-opacity="1"
       style="stop-color:rgb(211,16,39)"
       id="stop2" />
    <stop
       offset="97.82608695652173%"
       stop-opacity="1"
       style="stop-color:rgb(234,56,77)"
       id="stop4" />
  </linearGradient>
  <linearGradient
     id="_lgradient_22"
     x1="0"
     y1="0.5"
     x2="1"
     y2="0.5"
     gradientTransform="matrix(31.05,0,0,28.56,8.45,13)"
     gradientUnits="userSpaceOnUse">
    <stop
       offset="0%"
       stop-opacity="1"
       style="stop-color:rgb(211,16,39)"
       id="stop9" />
    <stop
       offset="97.82608695652173%"
       stop-opacity="1"
       style="stop-color:rgb(234,56,77)"
       id="stop11" />
  </linearGradient>
  <linearGradient
     id="_lgradient_23"
     x1="0"
     y1="0.5"
     x2="1"
     y2="0.5"
     gradientTransform="matrix(44,0,0,34,2,13)"
     gradientUnits="userSpaceOnUse">
    <stop
       offset="0%"
       stop-opacity="1"
       style="stop-color:rgb(211,16,39)"
       id="stop16" />
    <stop
       offset="97.82608695652173%"
       stop-opacity="1"
       style="stop-color:rgb(234,56,77)"
       id="stop18" />
  </linearGradient>
  <g
     id="g839"
     transform="matrix(0.7826087,0,0,0.7826087,-0.7826088,-0.7826088)">
    <path
       id="path7"
       d="m 22.75,13.4 v 0 c 0,1.104 -0.896,2 -2,2 v 0 c -1.104,0 -2,-0.896 -2,-2 v 0 -1.9 H 17.5 9 c -1.656,0 -3,-1.344 -3,-3 V 4 C 6,2.344 7.344,1 9,1 h 30 c 1.656,0 3,1.344 3,3 v 4.5 c 0,1.656 -1.344,3 -3,3 h -9.75 v 18.6 c 0,1.104 -0.896,2 -2,2 h -6.5 c -1.104,0 -2,-0.896 -2,-2 V 14 14 c 0,-1.104 0.896,-2 2,-2 v 0 c 1.104,0 2,0.896 2,2 v 0 14.1 h 2.5 V 8.5 c 0,-0.552 0.448,-1 1,-1 H 38 V 5 H 10 v 2.5 h 7.5 4.25 c 0.552,0 1,0.448 1,1 z"
       inkscape:connector-curvature="0"
       style="fill:url(#_lgradient_21)" />
    <path
       id="path14"
       d="m 30.5,15 v 0 c 0,-1.104 0.896,-2 2,-2 h 1 v 2 l 1,15.5 h 3 c 1.104,0 2,0.896 2,2 v 2.63 c 0,1.104 -0.862,2.246 -1.923,2.549 L 23.99,41.56 10.589,37.624 C 9.53,37.313 8.64,36.164 8.603,35.061 L 8.517,32.499 C 8.48,31.396 9.346,30.5 10.45,30.5 h 3.05 l 1,-15.5 v -2 h 1 c 1.104,0 2,0.896 2,2 v 0 L 16.608,31.503 C 16.548,32.605 15.604,33.5 14.5,33.5 h -2.95 l 0.04,1.3 12.42,3.64 12.49,-3.57 V 33.5 h -3 c -1.104,0 -2.048,-0.895 -2.108,-1.997 z"
       inkscape:connector-curvature="0"
       style="fill:url(#_lgradient_22)" />
    <path
       id="path21"
       d="m 34,17 h -2 v -3 c 0,-0.552 0.448,-1 1,-1 h 1 7 c 2.76,0 5,2.24 5,5 v 24 c 0,2.76 -2.24,5 -5,5 H 7 C 4.24,47 2,44.76 2,42 V 18 c 0,-2.76 2.24,-5 5,-5 h 6 q 1,0 1.667,0 v 0 C 15.403,13 16,13.896 16,15 v 2 H 14 9 c -1.656,0 -3,1.344 -3,3 v 20 c 0,1.656 1.344,3 3,3 h 30 c 1.656,0 3,-1.344 3,-3 V 20 c 0,-1.656 -1.344,-3 -3,-3 z"
       inkscape:connector-curvature="0"
       style="fill:url(#_lgradient_23)" />
  </g>
</svg>
