<?xml version="1.0" encoding="UTF-8" standalone="no"?>
<!-- Generator: Gravit.io -->

<svg
   xmlns:dc="http://purl.org/dc/elements/1.1/"
   xmlns:cc="http://creativecommons.org/ns#"
   xmlns:rdf="http://www.w3.org/1999/02/22-rdf-syntax-ns#"
   xmlns:svg="http://www.w3.org/2000/svg"
   xmlns="http://www.w3.org/2000/svg"
   xmlns:sodipodi="http://sodipodi.sourceforge.net/DTD/sodipodi-0.dtd"
   xmlns:inkscape="http://www.inkscape.org/namespaces/inkscape"
   style="isolation:isolate"
   viewBox="0 0 36 36"
   width="48"
   height="48"
   version="1.1"
   id="svg9"
   sodipodi:docname="tutanota-desktop.svg"
   inkscape:version="0.92.4 (5da689c313, 2019-01-14)">
  <metadata
     id="metadata15">
    <rdf:RDF>
      <cc:Work
         rdf:about="">
        <dc:format>image/svg+xml</dc:format>
        <dc:type
           rdf:resource="http://purl.org/dc/dcmitype/StillImage" />
        <dc:title></dc:title>
      </cc:Work>
    </rdf:RDF>
  </metadata>
  <defs
     id="defs13" />
  <sodipodi:namedview
     pagecolor="#ffffff"
     bordercolor="#666666"
     borderopacity="1"
     objecttolerance="10"
     gridtolerance="10"
     guidetolerance="10"
     inkscape:pageopacity="0"
     inkscape:pageshadow="2"
     inkscape:window-width="640"
     inkscape:window-height="480"
     id="namedview11"
     showgrid="false"
     inkscape:zoom="29.365243"
     inkscape:cx="25.325443"
     inkscape:cy="32"
     inkscape:current-layer="svg9"
     units="px" />
  <linearGradient
     id="_lgradient_5"
     x1="0.022727273"
     y1="0.19318181"
     x2="1.0417"
     y2="1.0452043"
     gradientTransform="matrix(44,0,0,44,2,2)"
     gradientUnits="userSpaceOnUse">
    <stop
       offset="0%"
       stop-opacity="1"
       style="stop-color:rgb(255,229,59)"
       id="stop2" />
    <stop
       offset="98.69565217391305%"
       stop-opacity="1"
       style="stop-color:rgb(255,0,91)"
       id="stop4" />
  </linearGradient>
  <g
     id="g826"
     transform="matrix(0.81818182,0,0,0.81818182,-1.6363637,-1.6363637)">
    <path
       id="path7"
       d="m 8,46 h 32 1 c 0.104,0 0.207,-0.003 0.31,-0.011 C 43.925,45.83 46,43.656 46,41 V 40 7 C 46,4.24 43.76,2 41,2 h -4.98 v 0 c -1.104,0 -2,0.896 -2,2 v 0 c 0,1.104 0.896,2 2,2 V 6 H 39 c 1.656,0 3,1.344 3,3 v 22.257 c -1.127,-1.678 -2.618,-2.954 -4.551,-3.919 -2.538,-1.267 -5.38,-2.128 -11.467,-3.467 -3.781,-0.832 -4.714,-1.141 -4.83,-1.601 -0.174,-0.694 1.365,-1.031 4.686,-1.272 3.445,-0.25 4.741,-0.645 5.125,-1.564 0.169,-0.405 0.085,-0.7 -0.297,-1.036 -0.219,-0.192 -0.383,-0.281 -0.453,-0.273 -0.07,0.008 -0.048,0.113 0.103,0.313 0.183,0.241 0.17,0.721 -0.025,0.892 -0.644,0.564 -1.812,0.685 -7.012,1.029 -2.965,0.197 -4.329,0.496 -5.33,1.168 -0.485,0.327 -0.845,0.805 -0.845,1.121 0,0.52 0.822,1.032 3.281,2.043 3.121,1.284 4.509,2.035 5.457,2.948 0.635,0.612 0.898,1.031 1.074,1.716 0.283,1.104 -0.165,2.263 -1.334,3.456 -2.109,2.151 -5.93,4.172 -14.543,7.693 -2.114,0.864 -3.504,1.41 -4.84,1.894 L 6,42 V 32 C 6,30.896 5.104,30 4,30 v 0 c -1.104,0 -2,0.896 -2,2 v 8 1 c 0,2.659 2.081,4.837 4.702,4.99 C 6.8,45.997 6.9,46 7,46 v 0 z M 6,24 v 0 c 0,1.104 -0.896,2 -2,2 v 0 C 2.896,26 2,25.104 2,24 V 24 7 C 2,4.24 4.24,2 7,2 h 21 v 0 c 1.104,0 2,0.896 2,2 v 0 c 0,1.104 -0.896,2 -2,2 V 6 H 9 C 7.344,6 6,7.344 6,9 Z"
       inkscape:connector-curvature="0"
       style="fill:url(#_lgradient_5);fill-rule:evenodd" />
  </g>
</svg>
