<?xml version="1.0" encoding="UTF-8" standalone="no"?>
<!-- Generator: Gravit.io -->

<svg
   xmlns:dc="http://purl.org/dc/elements/1.1/"
   xmlns:cc="http://creativecommons.org/ns#"
   xmlns:rdf="http://www.w3.org/1999/02/22-rdf-syntax-ns#"
   xmlns:svg="http://www.w3.org/2000/svg"
   xmlns="http://www.w3.org/2000/svg"
   xmlns:sodipodi="http://sodipodi.sourceforge.net/DTD/sodipodi-0.dtd"
   xmlns:inkscape="http://www.inkscape.org/namespaces/inkscape"
   style="isolation:isolate"
   viewBox="0 0 36 36"
   width="48"
   height="48"
   version="1.1"
   id="svg20"
   sodipodi:docname="twitter.svg"
   inkscape:version="0.92.4 (5da689c313, 2019-01-14)">
  <metadata
     id="metadata26">
    <rdf:RDF>
      <cc:Work
         rdf:about="">
        <dc:format>image/svg+xml</dc:format>
        <dc:type
           rdf:resource="http://purl.org/dc/dcmitype/StillImage" />
        <dc:title></dc:title>
      </cc:Work>
    </rdf:RDF>
  </metadata>
  <defs
     id="defs24" />
  <sodipodi:namedview
     pagecolor="#ffffff"
     bordercolor="#666666"
     borderopacity="1"
     objecttolerance="10"
     gridtolerance="10"
     guidetolerance="10"
     inkscape:pageopacity="0"
     inkscape:pageshadow="2"
     inkscape:window-width="640"
     inkscape:window-height="480"
     id="namedview22"
     showgrid="false"
     inkscape:zoom="29.365243"
     inkscape:cx="25.325443"
     inkscape:cy="32"
     inkscape:current-layer="svg20"
     units="px" />
  <linearGradient
     id="_lgradient_14"
     x1="-1.7719635"
     y1="0.41722408"
     x2="2.2023804"
     y2="0.43849707"
     gradientTransform="matrix(10.051,0,0,11.96,24.774,6.509)"
     gradientUnits="userSpaceOnUse">
    <stop
       offset="0%"
       stop-opacity="1"
       style="stop-color:rgb(84,51,255)"
       id="stop2" />
    <stop
       offset="51.73913043478261%"
       stop-opacity="1"
       style="stop-color:rgb(32,189,255)"
       id="stop4" />
    <stop
       offset="98.26086956521739%"
       stop-opacity="1"
       style="stop-color:rgb(165,254,203)"
       id="stop6" />
  </linearGradient>
  <linearGradient
     id="_lgradient_15"
     x1="0"
     y1="0.5"
     x2="1"
     y2="0.5"
     gradientTransform="matrix(46.43,0,0,35.001,0.785,6.499)"
     gradientUnits="userSpaceOnUse">
    <stop
       offset="0%"
       stop-opacity="1"
       style="stop-color:rgb(84,51,255)"
       id="stop11" />
    <stop
       offset="51.73913043478261%"
       stop-opacity="1"
       style="stop-color:rgb(32,189,255)"
       id="stop13" />
    <stop
       offset="98.26086956521739%"
       stop-opacity="1"
       style="stop-color:rgb(165,254,203)"
       id="stop15" />
  </linearGradient>
  <g
     id="g835"
     transform="matrix(0.77536076,0,0,0.77536076,-0.60865824,-0.6083302)">
    <path
       id="path9"
       d="m 24.915,18.459 c 0.01,-0.63 -0.04,-1.25 -0.14,-1.87 -0.03,-2.66 1,-5.23 2.88,-7.13 1.87,-1.89 4.51,-2.95 7.17,-2.95 l -0.08,2.99 c -1.83,0 -3.59,0.72 -4.89,2.01 -1.31,1.28 -2.05,3.03 -2.08,4.86 0.1,0.69 0.15,1.39 0.14,2.1"
       style="fill:url(#_lgradient_14)"
       inkscape:connector-curvature="0" />
    <path
       id="path18"
       d="m 34.825,6.509 z m 0,0 h -0.06 z m -8.45,28.98 -0.12,-0.01 0.25,-0.01 -0.09,0.01 z m -16.39,-8.98 c -0.02,-0.01 -0.03,-0.02 -0.04,-0.03 z m -0.09,-13.69 c 0.51,0.51 1.03,1.01 1.58,1.48 1.21,1.07 2.54,1.98 3.97,2.74 1.57,0.82 3.25,1.43 4.98,1.82 2.05,0.44 4.13,0.66 6.23,0.64 h 0.06 l 0.16,0.01 0.37,-0.01 c 1.71,0.01 3.36,0.7 4.58,1.91 1.21,1.22 1.89,2.87 1.89,4.59 0,1.72 -0.68,3.37 -1.89,4.58 -1.21,1.22 -2.86,1.91 -4.57,1.92 l -0.32,-0.02 -0.18,0.01 -0.07,0.01 -0.41,-0.02 -0.17,0.02 h -0.02 -6.72 c -0.79,-0.03 -1.57,-0.17 -2.31,-0.44 -0.83,-0.29 -1.62,-0.68 -2.36,-1.16 -0.28,-0.19 -0.55,-0.38 -0.81,-0.6 4.46,0.78 9.04,-0.54 12.41,-3.56 -1.76,1.07 -3.78,1.62 -5.84,1.57 -2.06,-0.05 -4.06,-0.68 -5.76,-1.84 -0.88,-0.57 -1.7,-1.22 -2.45,-1.95 -0.73,-0.68 -1.35,-1.47 -1.85,-2.32 0.02,0 0.04,0 0.06,0.01 2.72,0.57 5.53,0.51 8.22,-0.19 -2.18,-0.8 -4.23,-1.94 -6.07,-3.36 -0.54,-0.42 -1.05,-0.88 -1.52,-1.38 -0.41,-0.44 -0.76,-0.92 -1.03,-1.45 -0.22,-0.41 -0.33,-0.85 -0.34,-1.31 0,-0.57 0.06,-1.14 0.18,-1.7 z m 4.713,21.446 c -0.145,0.046 -0.332,0.122 -0.543,0.214 -1.54,0.68 -3.21,1.04 -4.9,1.06 -2.97,0 -5.87,-0.84 -8.38,-2.43 2.98,3.9 7.24,6.63 12.04,7.67 2.3,0.5 4.64,0.74 7,0.72 3.67,0.03 7.3,-0.74 10.65,-2.25 2.99,-1.37 5.65,-3.35 7.84,-5.81 2.05,-2.31 3.67,-4.98 4.77,-7.88 1.06,-2.75 1.61,-5.66 1.63,-8.6 0,-0.02 0,-0.03 0,-0.05 v -0.18 l -0.01,-0.08 0.01,-0.1 c 0,-0.03 0,-0.05 0,-0.08 0,-0.211 -0.007,-0.422 -0.019,-0.632 0.95,-0.857 1.817,-1.818 2.519,-2.838 v 0 c -0.872,0.376 -1.858,0.612 -2.867,0.769 -0.091,-0.292 -0.188,-0.583 -0.322,-0.859 1.001,-0.775 1.842,-1.705 2.239,-2.91 v 0 0 c -0.916,0.528 -1.982,0.921 -3.086,1.213 v 0 c -0.253,-0.449 -0.562,-0.868 -0.904,-1.263 -1.57,-1.81 -3.74,-3 -6.11,-3.34 l -0.33,-0.05 -0.35,-0.02 -0.14,-0.02 -0.37,-0.02 h -0.12 v 0 h -0.03 v 0.01 h 0.11 l -0.08,-0.01 -0.03,0.01 -0.17,2.99 0.2,0.01 0.1,-0.01 h 0.04 0.05 -0.18 0.09 l 0.14,0.01 0.14,0.02 0.27,0.02 0.22,0.03 c 0,0 0,0 0.01,0 1.65,0.24 3.16,1.06 4.26,2.32 1.1,1.25 1.71,2.86 1.72,4.53 l -0.01,0.18 0.01,0.2 v 0.15 c -0.02,2.58 -0.5,5.12 -1.43,7.52 -0.97,2.56 -2.4,4.93 -4.22,6.97 -1.9,2.14 -4.23,3.87 -6.83,5.07 -2.96,1.33 -6.17,2.01 -9.42,1.98 -2.11,0.02 -4.22,-0.19 -6.28,-0.63 0.59,-0.18 1.17,-0.4 1.74,-0.65 1.14,-0.494 2.236,-1.08 3.275,-1.76 0.248,0.018 0.496,0.034 0.745,0.04 0.02,0 0.03,0 0.05,0 h 6.88 l 0.15,-0.01 0.31,0.01 0.23,-0.01 h 0.04 l 0.18,0.01 c 0.03,0 0.05,0 0.08,0 2.52,0 4.94,-1 6.72,-2.78 1.78,-1.78 2.78,-4.2 2.78,-6.72 0,-2.52 -1,-4.94 -2.78,-6.72 -1.78,-1.78 -4.2,-2.78 -6.72,-2.78 -0.02,0 -0.04,0 -0.05,0 l -0.25,0.01 h -0.03 l -0.12,-0.01 c -0.03,0 -0.06,0 -0.1,0 -1.88,0.02 -3.75,-0.17 -5.59,-0.57 -1.48,-0.33 -2.9,-0.85 -4.24,-1.54 -1.21,-0.65 -2.35,-1.44 -3.38,-2.34 -1.54,-1.36 -2.95,-2.86 -4.19,-4.49 -1.12,1.19 -1.89,2.67 -2.23,4.27 -0.21,0.89 -0.32,1.79 -0.32,2.71 0.01,0.93 0.24,1.85 0.68,2.67 0.23,0.45 0.49,0.87 0.79,1.27 -0.38,0.01 -0.74,0.17 -1.01,0.44 -0.26,0.27 -0.42,0.63 -0.43,1.01 v 0.02 0.1 0 c 0,0.02 0,0.05 0,0.07 0.04,1.28 0.41,2.52 1.07,3.61 0.59,1 1.31,1.93 2.13,2.75 -0.49,0.03 -0.97,0.13 -1.43,0.31 0.21,1.66 0.92,3.2 2.03,4.45 0.73,0.83 1.58,1.56 2.51,2.16 0.497,0.328 1.013,0.622 1.553,0.866 z M 35.215,13.999 c 0,-1.103 0.896,-2 2,-2 1.104,0 2,0.897 2,2 0,1.104 -0.896,2 -2,2 -1.104,0 -2,-0.896 -2,-2 z"
       style="fill:url(#_lgradient_15);fill-rule:evenodd"
       inkscape:connector-curvature="0" />
  </g>
</svg>
