<?xml version="1.0" encoding="UTF-8" standalone="no"?>
<!-- Generator: Gravit.io -->

<svg
   xmlns:dc="http://purl.org/dc/elements/1.1/"
   xmlns:cc="http://creativecommons.org/ns#"
   xmlns:rdf="http://www.w3.org/1999/02/22-rdf-syntax-ns#"
   xmlns:svg="http://www.w3.org/2000/svg"
   xmlns="http://www.w3.org/2000/svg"
   xmlns:sodipodi="http://sodipodi.sourceforge.net/DTD/sodipodi-0.dtd"
   xmlns:inkscape="http://www.inkscape.org/namespaces/inkscape"
   style="isolation:isolate"
   viewBox="0 0 36 36"
   width="48"
   height="48"
   version="1.1"
   id="svg11"
   sodipodi:docname="ulauncher.svg"
   inkscape:version="0.92.4 (5da689c313, 2019-01-14)">
  <metadata
     id="metadata17">
    <rdf:RDF>
      <cc:Work
         rdf:about="">
        <dc:format>image/svg+xml</dc:format>
        <dc:type
           rdf:resource="http://purl.org/dc/dcmitype/StillImage" />
        <dc:title></dc:title>
      </cc:Work>
    </rdf:RDF>
  </metadata>
  <defs
     id="defs15" />
  <sodipodi:namedview
     pagecolor="#ffffff"
     bordercolor="#666666"
     borderopacity="1"
     objecttolerance="10"
     gridtolerance="10"
     guidetolerance="10"
     inkscape:pageopacity="0"
     inkscape:pageshadow="2"
     inkscape:window-width="640"
     inkscape:window-height="480"
     id="namedview13"
     showgrid="false"
     inkscape:zoom="29.365243"
     inkscape:cx="25.325443"
     inkscape:cy="32"
     inkscape:current-layer="svg11"
     units="px" />
  <linearGradient
     id="_lgradient_58"
     x1="0"
     y1="0.5"
     x2="1"
     y2="0.5"
     gradientTransform="matrix(36,0,0,40,6,4)"
     gradientUnits="userSpaceOnUse">
    <stop
       offset="0%"
       stop-opacity="1"
       style="stop-color:rgb(84,51,255)"
       id="stop2" />
    <stop
       offset="51.73913043478261%"
       stop-opacity="1"
       style="stop-color:rgb(32,189,255)"
       id="stop4" />
    <stop
       offset="98.26086956521739%"
       stop-opacity="1"
       style="stop-color:rgb(165,254,203)"
       id="stop6" />
  </linearGradient>
  <g
     id="g825"
     transform="matrix(0.9,0,0,0.9,-3.6,-3.6)">
    <path
       id="path9"
       d="M 15.128,42.339 14.855,42.256 C 13.049,41.419 11.523,40.34 10.285,39.01 8.824,37.443 7.746,35.577 7.051,33.408 6.35,31.24 6,28.842 6,26.225 v -6.094 l 10,-4.445 v 0 9.847 V 28 c 0,4.432 3.568,8 8,8 1.867,0 3.579,-0.635 4.931,-1.707 0.005,0.008 0.005,0.008 0,-10e-4 0.284,-0.21 0.548,-0.447 0.795,-0.7 -0.058,0.06 -0.123,0.112 -0.183,0.17 C 31.055,32.31 32,30.272 32,28 V 11 c 0,-0.013 -0.002,-0.026 -0.002,-0.039 v -0.932 0 c 10e-4,10e-4 0.003,10e-4 0.004,0.002 V 8.271 L 42,4 v 0 21.746 c 0,0.03 -10e-4,0.06 -0.004,0.089 v 0.386 c 0,2.622 -0.359,5.029 -1.078,7.216 -0.719,2.188 -1.822,4.067 -3.301,5.629 -1.485,1.568 -3.364,2.781 -5.652,3.637 -2.287,0.863 -4.994,1.285 -8.131,1.285 L 23.84,44 c -3.086,0 -5.755,-0.442 -8,-1.322 -0.26,-0.102 -0.493,-0.217 -0.712,-0.339 z m 14.354,-8.163 v 0 h 0.004 v 0 l 0.241,-0.584 c 0,0 0,0 0,0 l -0.241,0.584 v 0 z m -0.003,-0.354 c -0.176,0.165 -0.358,0.322 -0.548,0.471 -0.02,0.016 -0.04,0.031 -0.06,0.047 0.02,-0.016 0.04,-0.031 0.06,-0.048 0.19,-0.148 0.372,-0.305 0.548,-0.47 z"
       inkscape:connector-curvature="0"
       style="fill:url(#_lgradient_58);fill-rule:evenodd" />
  </g>
</svg>
