<?xml version="1.0" encoding="UTF-8" standalone="no"?>
<!-- Generator: Gravit.io -->

<svg
   xmlns:dc="http://purl.org/dc/elements/1.1/"
   xmlns:cc="http://creativecommons.org/ns#"
   xmlns:rdf="http://www.w3.org/1999/02/22-rdf-syntax-ns#"
   xmlns:svg="http://www.w3.org/2000/svg"
   xmlns="http://www.w3.org/2000/svg"
   xmlns:sodipodi="http://sodipodi.sourceforge.net/DTD/sodipodi-0.dtd"
   xmlns:inkscape="http://www.inkscape.org/namespaces/inkscape"
   style="isolation:isolate"
   viewBox="0 0 36 36"
   width="48"
   height="48"
   version="1.1"
   id="svg9"
   sodipodi:docname="umbrello.svg"
   inkscape:version="0.92.4 (5da689c313, 2019-01-14)">
  <metadata
     id="metadata15">
    <rdf:RDF>
      <cc:Work
         rdf:about="">
        <dc:format>image/svg+xml</dc:format>
        <dc:type
           rdf:resource="http://purl.org/dc/dcmitype/StillImage" />
        <dc:title></dc:title>
      </cc:Work>
    </rdf:RDF>
  </metadata>
  <defs
     id="defs13" />
  <sodipodi:namedview
     pagecolor="#ffffff"
     bordercolor="#666666"
     borderopacity="1"
     objecttolerance="10"
     gridtolerance="10"
     guidetolerance="10"
     inkscape:pageopacity="0"
     inkscape:pageshadow="2"
     inkscape:window-width="640"
     inkscape:window-height="480"
     id="namedview11"
     showgrid="false"
     inkscape:zoom="29.365243"
     inkscape:cx="25.325443"
     inkscape:cy="32"
     inkscape:current-layer="svg9"
     units="px" />
  <linearGradient
     id="_lgradient_22"
     x1="0"
     y1="0.5"
     x2="1"
     y2="0.5"
     gradientTransform="matrix(44,0,0,44.791,2,2)"
     gradientUnits="userSpaceOnUse">
    <stop
       offset="0%"
       stop-opacity="1"
       style="stop-color:rgb(255,153,102)"
       id="stop2" />
    <stop
       offset="98.26086956521739%"
       stop-opacity="1"
       style="stop-color:rgb(255,94,98)"
       id="stop4" />
  </linearGradient>
  <g
     id="g826"
     transform="matrix(0.80374079,0,0,0.80374079,-1.289779,-1.6073534)">
    <path
       id="path7"
       d="M 6,22 V 20 C 6.01,18.16 6.47,16.35 7.33,14.72 8.27,12.99 9.55,11.47 11.1,10.26 12.82,8.9 14.77,7.85 16.85,7.16 19.16,6.38 21.57,5.99 24,6 c 2.43,-0.01 4.84,0.38 7.15,1.16 2.08,0.69 4.03,1.74 5.75,3.1 1.55,1.21 2.83,2.73 3.77,4.46 0.86,1.63 1.32,3.44 1.33,5.28 v 2 H 38.54 C 37.79,21.58 37,21.24 36.19,20.97 c -0.94,-0.3 -1.93,-0.46 -2.92,-0.47 -0.98,0 -1.95,0.17 -2.87,0.49 -0.52,0.19 -1.03,0.42 -1.51,0.7 -0.62,-0.29 -1.25,-0.53 -1.91,-0.73 -1,-0.3 -2.04,-0.45 -3.09,-0.46 -1.04,0 -2.08,0.16 -3.07,0.47 -0.63,0.2 -1.25,0.45 -1.84,0.74 -0.65,-0.32 -1.32,-0.6 -2.01,-0.83 -0.97,-0.33 -1.98,-0.5 -3.01,-0.52 -0.99,0 -1.98,0.19 -2.9,0.57 C 10.41,21.2 9.8,21.56 9.25,22 Z M 2,22 V 20 C 2,20 2,19.99 2,19.99 2.01,17.49 2.63,15.03 3.81,12.83 5.01,10.61 6.64,8.67 8.62,7.12 10.71,5.47 13.06,4.2 15.59,3.36 18.3,2.45 21.14,1.99 24,2 c 2.86,-0.01 5.7,0.45 8.41,1.36 2.53,0.84 4.88,2.11 6.97,3.76 1.98,1.55 3.61,3.49 4.81,5.71 1.18,2.2 1.8,4.66 1.81,7.16 0,0 0,0.01 0,0.01 v 2 c 0,1.06 -0.42,2.08 -1.17,2.83 C 44.08,25.58 43.06,26 42,26 h -4 c -0.37,0 -0.73,-0.1 -1.05,-0.3 -0.63,-0.38 -1.3,-0.69 -2,-0.92 -0.55,-0.18 -1.12,-0.27 -1.69,-0.28 -0.52,0 -1.03,0.09 -1.52,0.26 -0.99,0.36 -1.87,0.98 -1.903,1.019 -0.351,0.426 -0.989,0.493 -1.422,0.151 C 28.2,25.76 27.06,25.16 25.84,24.79 25.2,24.6 24.54,24.51 23.88,24.5 c -0.63,0.01 -1.27,0.1 -1.87,0.29 -1.09,0.34 -2.1,0.91 -2.2,0.998 -0.414,0.366 -1.108,0.392 -1.548,0.059 C 18.04,25.68 16.9,25.07 15.69,24.67 c -0.57,-0.2 -1.16,-0.3 -1.76,-0.31 -0.46,0 -0.91,0.09 -1.33,0.26 -0.44,0.19 -0.85,0.47 -1.2,0.81 C 11.03,25.79 10.52,26 10,26 H 6 C 4.94,26 3.92,25.58 3.17,24.83 2.42,24.08 2,23.06 2,22 Z m 20,6 v 0 c 0,-1.104 0.896,-2 2,-2 v 0 c 1.104,0 2,0.896 2,2 v 0 12 c 0,1.75 -0.59,3.45 -1.68,4.82 -1.03,1.26 -2.57,1.99 -4.19,1.97 C 18.47,46.78 16.89,46.05 15.8,44.8 15.24,44.14 14.81,43.38 14.52,42.56 14.2,41.76 14.02,40.91 14,40.05 14,40.03 14,40.02 14,40 v -2 0 c 0,-1.104 0.896,-2 2,-2 v 0 c 1.104,0 2,0.896 2,2 v 0 1.97 c 0.01,0.41 0.1,0.81 0.26,1.18 0.13,0.38 0.32,0.74 0.58,1.05 0.34,0.38 0.82,0.59 1.32,0.59 0.4,0.01 0.78,-0.17 1.04,-0.48 C 21.72,41.65 22,40.84 22,40 Z"
       style="fill:url(#_lgradient_22);fill-rule:evenodd"
       inkscape:connector-curvature="0" />
  </g>
</svg>
