<?xml version="1.0" encoding="UTF-8" standalone="no"?>
<!-- Generator: Gravit.io -->

<svg
   xmlns:dc="http://purl.org/dc/elements/1.1/"
   xmlns:cc="http://creativecommons.org/ns#"
   xmlns:rdf="http://www.w3.org/1999/02/22-rdf-syntax-ns#"
   xmlns:svg="http://www.w3.org/2000/svg"
   xmlns="http://www.w3.org/2000/svg"
   xmlns:sodipodi="http://sodipodi.sourceforge.net/DTD/sodipodi-0.dtd"
   xmlns:inkscape="http://www.inkscape.org/namespaces/inkscape"
   style="isolation:isolate"
   viewBox="0 0 36 36"
   width="48"
   height="48"
   version="1.1"
   id="svg9"
   sodipodi:docname="usbguard-icon.svg"
   inkscape:version="0.92.4 (5da689c313, 2019-01-14)">
  <metadata
     id="metadata15">
    <rdf:RDF>
      <cc:Work
         rdf:about="">
        <dc:format>image/svg+xml</dc:format>
        <dc:type
           rdf:resource="http://purl.org/dc/dcmitype/StillImage" />
        <dc:title></dc:title>
      </cc:Work>
    </rdf:RDF>
  </metadata>
  <defs
     id="defs13" />
  <sodipodi:namedview
     pagecolor="#ffffff"
     bordercolor="#666666"
     borderopacity="1"
     objecttolerance="10"
     gridtolerance="10"
     guidetolerance="10"
     inkscape:pageopacity="0"
     inkscape:pageshadow="2"
     inkscape:window-width="640"
     inkscape:window-height="480"
     id="namedview11"
     showgrid="false"
     inkscape:zoom="29.365243"
     inkscape:cx="25.325443"
     inkscape:cy="32"
     inkscape:current-layer="svg9"
     units="px" />
  <linearGradient
     id="_lgradient_11"
     x1="0"
     y1="0.5"
     x2="0.90748805"
     y2="0.92007786"
     gradientTransform="matrix(36.28,0,0,46.169,6,1)"
     gradientUnits="userSpaceOnUse">
    <stop
       offset="0%"
       stop-opacity="1"
       style="stop-color:rgb(78,84,200)"
       id="stop2" />
    <stop
       offset="83.88839793817618%"
       stop-opacity="1"
       style="stop-color:rgb(0,114,255)"
       id="stop4" />
  </linearGradient>
  <g
     id="g826"
     transform="matrix(0.77974436,0,0,0.77974436,-0.82302885,-0.77974444)">
    <path
       id="path7"
       d="M 6.12,17 6,23.17 c 0,0.01 0,0.01 0,0.02 0.02,2.49 0.46,4.96 1.29,7.31 0.84,2.4 2,4.68 3.46,6.77 1.44,2.09 3.16,3.98 5.12,5.61 1.91,1.6 4.07,2.88 6.39,3.78 0.01,0 0.01,0 0.02,0 l 1.02,0.38 c 0.47,0.18 0.99,0.17 1.45,-0.02 0.84,-0.34 1.65,-0.75 2.41,-1.23 0.82,-0.51 1.6,-1.07 2.34,-1.68 1.61,-1.31 3.08,-2.79 4.4,-4.39 1.39,-1.67 2.64,-3.47 3.72,-5.36 1.08,-1.85 1.97,-3.81 2.66,-5.85 0,0 0,-0.01 0,-0.01 l 0.62,-1.87 v 0 c 0.348,-1.049 -0.221,-2.182 -1.27,-2.53 v 0 c -1.049,-0.348 -2.182,0.221 -2.53,1.27 v 0 0 l -0.62,1.87 c -0.59,1.78 -1.37,3.5 -2.32,5.12 -0.98,1.7 -2.1,3.31 -3.35,4.81 -1.15,1.41 -2.44,2.7 -3.84,3.85 -0.61,0.5 -1.26,0.96 -1.93,1.38 -0.35,0.22 -0.72,0.43 -1.1,0.61 L 23.69,42.92 C 21.78,42.18 20,41.13 18.44,39.81 16.75,38.41 15.27,36.79 14.03,34.99 12.78,33.2 11.78,31.24 11.06,29.17 10.38,27.24 10.02,25.21 10,23.16 L 10.12,17 v 0 -2 -2 c 0,-1.104 0.896,-2 2,-2 h 2.32 c 1.104,0 2,-0.896 2,-2 V 7 c 0,-1.104 0.896,-2 2,-2 H 29 c 1.104,0 2,0.896 2,2 v 2 c 0,1.104 0.896,2 2,2 h 3.28 c 1.104,0 2,0.896 2,2 v 2 0 c 0,1.104 0.896,2 2,2 v 0 c 1.104,0 2,-0.896 2,-2 v 0 -4 c 0,-2.208 -1.792,-4 -4,-4 H 35 V 5 C 35,2.792 33.208,1 31,1 H 16.44 c -2.208,0 -4,1.792 -4,4 v 2 h -2.32 c -2.208,0 -4,1.792 -4,4 v 4 z m 25.899,11.441 c -0.575,1.811 -1.709,3.405 -3.247,4.535 -1.55,1.14 -3.42,1.76 -5.34,1.76 -2.39,0 -4.68,-0.95 -6.37,-2.64 -1.68,-1.68 -2.63,-3.97 -2.63,-6.36 0,-2.39 0.95,-4.68 2.63,-6.37 1.69,-1.68 3.98,-2.63 6.37,-2.63 4.421,-0.259 8.311,3.481 8.6,6.32 h -4.38 c -0.92,-1.44 -2.51,-2.32 -4.22,-2.32 -1.33,0 -2.6,0.53 -3.54,1.46 -0.94,0.94 -1.46,2.21 -1.46,3.54 0,1.32 0.52,2.6 1.46,3.53 0.94,0.94 2.21,1.47 3.54,1.47 1.07,0 2.11,-0.34 2.97,-0.98 0.493,-0.36 0.91,-0.807 1.237,-1.315 h -6.154 v -3.617 h 8.668 c 1.104,0 1.97,0.896 1.933,1.999 l -0.054,1.618 z M 19.26,7 h 4 v 4 h -4 z m 5.49,0 h 4 v 4 h -4 z"
       style="fill:url(#_lgradient_11);fill-rule:evenodd"
       inkscape:connector-curvature="0" />
  </g>
</svg>
