<?xml version="1.0" encoding="UTF-8" standalone="no"?>
<!-- Generator: Gravit.io -->

<svg
   xmlns:dc="http://purl.org/dc/elements/1.1/"
   xmlns:cc="http://creativecommons.org/ns#"
   xmlns:rdf="http://www.w3.org/1999/02/22-rdf-syntax-ns#"
   xmlns:svg="http://www.w3.org/2000/svg"
   xmlns="http://www.w3.org/2000/svg"
   xmlns:sodipodi="http://sodipodi.sourceforge.net/DTD/sodipodi-0.dtd"
   xmlns:inkscape="http://www.inkscape.org/namespaces/inkscape"
   style="isolation:isolate"
   viewBox="0 0 36 36"
   width="48"
   height="48"
   version="1.1"
   id="svg9"
   sodipodi:docname="utilities-tweak-tool.svg"
   inkscape:version="0.92.4 (5da689c313, 2019-01-14)">
  <metadata
     id="metadata15">
    <rdf:RDF>
      <cc:Work
         rdf:about="">
        <dc:format>image/svg+xml</dc:format>
        <dc:type
           rdf:resource="http://purl.org/dc/dcmitype/StillImage" />
        <dc:title></dc:title>
      </cc:Work>
    </rdf:RDF>
  </metadata>
  <defs
     id="defs13" />
  <sodipodi:namedview
     pagecolor="#ffffff"
     bordercolor="#666666"
     borderopacity="1"
     objecttolerance="10"
     gridtolerance="10"
     guidetolerance="10"
     inkscape:pageopacity="0"
     inkscape:pageshadow="2"
     inkscape:window-width="640"
     inkscape:window-height="480"
     id="namedview11"
     showgrid="false"
     inkscape:zoom="29.365243"
     inkscape:cx="25.325443"
     inkscape:cy="32"
     inkscape:current-layer="svg9"
     units="px" />
  <linearGradient
     id="_lgradient_12"
     x1="0"
     y1="0.5"
     x2="0.99444443"
     y2="0.47727272"
     gradientTransform="matrix(45,0,0,44,2,2)"
     gradientUnits="userSpaceOnUse">
    <stop
       offset="0%"
       stop-opacity="1"
       style="stop-color:rgb(88,0,226)"
       id="stop2" />
    <stop
       offset="100%"
       stop-opacity="1"
       style="stop-color:rgb(255,0,230)"
       id="stop4" />
  </linearGradient>
  <g
     id="g826"
     transform="matrix(0.8,0,0,0.8,-1.6,-1.2)">
    <path
       id="path7"
       d="m 19.5,16 v 0 c 0,-1.104 0.784,-2 1.75,-2 v 0 c 0.966,0 1.75,0.896 1.75,2 v 0 27.194 C 23,44.743 21.743,46 20.194,46 H 13.225 C 7.03,46 2,40.97 2,34.775 V 13.225 C 2,7.03 7.03,2 13.225,2 H 21.25 V 2 C 22.216,2 23,2.896 23,4 v 0 c 0,1.104 -0.784,2 -1.75,2 V 6 H 13.919 C 9.272,6 5.5,9.772 5.5,14.419 V 33.581 C 5.5,38.228 9.272,42 13.919,42 H 19.5 Z m -10,-1 c 0,-1.656 1.344,-3 3,-3 1.656,0 3,1.344 3,3 0,1.656 -1.344,3 -3,3 -1.656,0 -3,-1.344 -3,-3 z m 20,17 v 0 c 0,1.104 -0.784,2 -1.75,2 v 0 C 26.784,34 26,33.104 26,32 V 32 4.806 C 26,3.257 27.257,2 28.806,2 h 6.969 C 41.97,2 47,7.03 47,13.225 v 21.55 C 47,40.97 41.97,46 35.775,46 H 27.75 v 0 C 26.784,46 26,45.104 26,44 v 0 c 0,-1.104 0.784,-2 1.75,-2 v 0 h 7.331 C 39.728,42 43.5,38.228 43.5,33.581 V 14.419 C 43.5,9.772 39.728,6 35.081,6 H 29.5 Z m 4,1 c 0,-1.656 1.344,-3 3,-3 1.656,0 3,1.344 3,3 0,1.656 -1.344,3 -3,3 -1.656,0 -3,-1.344 -3,-3 z"
       style="fill:url(#_lgradient_12);fill-rule:evenodd"
       inkscape:connector-curvature="0" />
  </g>
</svg>
