<?xml version="1.0" encoding="UTF-8" standalone="no"?>
<!-- Generator: Gravit.io -->

<svg
   xmlns:dc="http://purl.org/dc/elements/1.1/"
   xmlns:cc="http://creativecommons.org/ns#"
   xmlns:rdf="http://www.w3.org/1999/02/22-rdf-syntax-ns#"
   xmlns:svg="http://www.w3.org/2000/svg"
   xmlns="http://www.w3.org/2000/svg"
   xmlns:sodipodi="http://sodipodi.sourceforge.net/DTD/sodipodi-0.dtd"
   xmlns:inkscape="http://www.inkscape.org/namespaces/inkscape"
   style="isolation:isolate"
   viewBox="0 0 48 48"
   width="48"
   height="48"
   version="1.1"
   id="svg16"
   sodipodi:docname="vivaldi.svg"
   inkscape:version="0.92.4 (5da689c313, 2019-01-14)">
  <metadata
     id="metadata22">
    <rdf:RDF>
      <cc:Work
         rdf:about="">
        <dc:format>image/svg+xml</dc:format>
        <dc:type
           rdf:resource="http://purl.org/dc/dcmitype/StillImage" />
        <dc:title></dc:title>
      </cc:Work>
    </rdf:RDF>
  </metadata>
  <defs
     id="defs20" />
  <sodipodi:namedview
     pagecolor="#ffffff"
     bordercolor="#666666"
     borderopacity="1"
     objecttolerance="10"
     gridtolerance="10"
     guidetolerance="10"
     inkscape:pageopacity="0"
     inkscape:pageshadow="2"
     inkscape:window-width="640"
     inkscape:window-height="480"
     id="namedview18"
     showgrid="false"
     inkscape:zoom="39.153656"
     inkscape:cx="18.994082"
     inkscape:cy="24"
     inkscape:current-layer="svg16" />
  <linearGradient
     id="_lgradient_0"
     x1="0"
     y1="0.5"
     x2="1"
     y2="0.5"
     gradientTransform="matrix(-13.665,-41.824,41.824,-13.665,9.921,51.745)"
     gradientUnits="userSpaceOnUse">
    <stop
       offset="0%"
       stop-opacity="1"
       style="stop-color:rgb(211,16,39)"
       id="stop2" />
    <stop
       offset="97.82608695652173%"
       stop-opacity="1"
       style="stop-color:rgb(234,56,77)"
       id="stop4" />
  </linearGradient>
  <linearGradient
     id="_lgradient_1"
     x1="0"
     y1="0.5"
     x2="1"
     y2="0.5"
     gradientTransform="matrix(23.885,0,0,19.856,12.057,17)"
     gradientUnits="userSpaceOnUse">
    <stop
       offset="0%"
       stop-opacity="1"
       style="stop-color:rgb(211,16,39)"
       id="stop9" />
    <stop
       offset="97.82608695652173%"
       stop-opacity="1"
       style="stop-color:rgb(234,56,77)"
       id="stop11" />
  </linearGradient>
  <g
     id="g831"
     transform="matrix(1.0909472,0,0,1.0909472,-2.1827328,-1.6438584)">
    <path
       id="path7"
       d="m 6.89,29.59 c 0,0 0,0 0,0 v 0 0 c 0,0 0,0 0,0 1.724,5.276 5.81,9.475 11.032,11.356 v 0 c 1.038,0.369 1.579,1.512 1.207,2.551 v 0 c -0.371,1.039 -1.517,1.578 -2.557,1.204 v 0 C 10.185,42.411 5.197,37.287 3.088,30.833 c 0,0 0,0 0,0 v 0 C 1.277,25.291 1.743,19.247 4.377,14.042 7.023,8.843 11.626,4.899 17.167,3.088 v 0 c 5.542,-1.811 11.586,-1.345 16.791,1.289 5.199,2.646 9.143,7.249 10.954,12.79 1.811,5.542 1.345,11.586 -1.289,16.791 -2.646,5.199 -7.239,9.14 -12.79,10.954 0,0 0,0 0,0 v 0 0 c -1.05,0.343 -2.18,-0.231 -2.523,-1.28 v 0 c -0.342,-1.049 0.231,-2.179 1.28,-2.522 v 0 0 c 4.544,-1.485 8.307,-4.713 10.464,-8.963 2.154,-4.26 2.537,-9.203 1.056,-13.737 C 39.628,13.876 36.4,10.112 32.147,7.946 27.887,5.792 22.944,5.409 18.41,6.89 v 0 C 13.876,8.372 10.112,11.6 7.946,15.853 5.792,20.113 5.409,25.056 6.89,29.59 Z"
       style="fill:url(#_lgradient_0)"
       inkscape:connector-curvature="0" />
    <path
       id="path14"
       d="m 31.03,18.793 v 0 c 0.68,-0.989 2.056,-1.256 3.072,-0.594 v 0 c 1.016,0.662 1.289,2.003 0.61,2.993 v 0 l -8.241,12.051 c -1.364,1.994 -3.578,1.994 -4.942,0 L 13.288,21.192 v 0 c -0.679,-0.99 -0.406,-2.331 0.61,-2.993 v 0 c 1.016,-0.662 2.392,-0.395 3.072,0.594 v 0 q 1.775,10.263 7.03,10.263 5.255,0 7.03,-10.263 z"
       style="fill:url(#_lgradient_1)"
       inkscape:connector-curvature="0" />
  </g>
</svg>
