<?xml version="1.0" encoding="UTF-8" standalone="no"?>
<!-- Generator: Gravit.io -->

<svg
   xmlns:dc="http://purl.org/dc/elements/1.1/"
   xmlns:cc="http://creativecommons.org/ns#"
   xmlns:rdf="http://www.w3.org/1999/02/22-rdf-syntax-ns#"
   xmlns:svg="http://www.w3.org/2000/svg"
   xmlns="http://www.w3.org/2000/svg"
   xmlns:sodipodi="http://sodipodi.sourceforge.net/DTD/sodipodi-0.dtd"
   xmlns:inkscape="http://www.inkscape.org/namespaces/inkscape"
   style="isolation:isolate"
   viewBox="0 0 36 36"
   width="48"
   height="48"
   version="1.1"
   id="svg27"
   sodipodi:docname="vlc.svg"
   inkscape:version="0.92.4 (5da689c313, 2019-01-14)">
  <metadata
     id="metadata31">
    <rdf:RDF>
      <cc:Work
         rdf:about="">
        <dc:format>image/svg+xml</dc:format>
        <dc:type
           rdf:resource="http://purl.org/dc/dcmitype/StillImage" />
        <dc:title></dc:title>
      </cc:Work>
    </rdf:RDF>
  </metadata>
  <sodipodi:namedview
     pagecolor="#ffffff"
     bordercolor="#666666"
     borderopacity="1"
     objecttolerance="10"
     gridtolerance="10"
     guidetolerance="10"
     inkscape:pageopacity="0"
     inkscape:pageshadow="2"
     inkscape:window-width="640"
     inkscape:window-height="480"
     id="namedview29"
     showgrid="false"
     inkscape:zoom="29.365243"
     inkscape:cx="25.325443"
     inkscape:cy="32"
     inkscape:current-layer="svg27"
     units="px" />
  <defs
     id="defs7">
    <linearGradient
       id="_lgradient_15"
       x1="4.6368599"
       y1="78.804405"
       x2="13.013324"
       y2="82.681892"
       gradientTransform="scale(2.3075962,0.43335139)"
       gradientUnits="userSpaceOnUse">
      <stop
         offset="0%"
         style="stop-color:#FF416C"
         id="stop2" />
      <stop
         offset="84.34782608695653%"
         style="stop-color:#FF4B2B"
         id="stop4" />
    </linearGradient>
  </defs>
  <defs
     id="defs16">
    <linearGradient
       id="_lgradient_16"
       x1="7.2457366"
       y1="45.794376"
       x2="14.109131"
       y2="48.971455"
       gradientTransform="scale(1.890767,0.52888589)"
       gradientUnits="userSpaceOnUse">
      <stop
         offset="0%"
         style="stop-color:#FF416C"
         id="stop11" />
      <stop
         offset="84.34782608695653%"
         style="stop-color:#FF4B2B"
         id="stop13" />
    </linearGradient>
  </defs>
  <linearGradient
     id="_lgradient_17"
     x1="0"
     y1="0.5"
     x2="0.90748805"
     y2="0.92007786"
     gradientTransform="matrix(46,0,0,47,1,0.5)"
     gradientUnits="userSpaceOnUse">
    <stop
       offset="0%"
       stop-opacity="1"
       style="stop-color:rgb(255,65,108)"
       id="stop20" />
    <stop
       offset="84.34782608695653%"
       stop-opacity="1"
       style="stop-color:rgb(255,75,43)"
       id="stop22" />
  </linearGradient>
  <g
     id="g841"
     transform="matrix(0.76595745,0,0,0.76595745,-0.3829788,-0.3829788)">
    <path
       id="path9"
       style="fill:url(#_lgradient_15);stroke:none;stroke-miterlimit:10"
       d="m 12.939,32.15 h 16.822 c 1.236,0 2.239,0.896 2.239,2 v 0 c 0,1.104 -1.003,2 -2.239,2 H 12.939 c -1.236,0 -2.239,-0.896 -2.239,-2 v 0 c 0,-1.104 1.003,-2 2.239,-2 z"
       inkscape:connector-curvature="0" />
    <path
       id="path18"
       style="fill:url(#_lgradient_16);stroke:none;stroke-miterlimit:10"
       d="m 15.93,22.22 h 9.84 c 1.231,0 2.23,0.896 2.23,2 v 0 c 0,1.104 -0.999,2 -2.23,2 h -9.84 c -1.231,0 -2.23,-0.896 -2.23,-2 v 0 c 0,-1.104 0.999,-2 2.23,-2 z"
       inkscape:connector-curvature="0" />
    <path
       id="path25"
       d="m 16.93,24.51 -0.256,0.973 c -0.14,0.534 -0.687,0.852 -1.22,0.71 l -0.005,-0.001 c -1.6,-0.426 -2.666,-1.637 -2.379,-2.702 v 0 L 17.934,3.416 C 18.323,1.806 19.984,0.5 21.64,0.5 h 4.73 c 1.656,0 3.337,1.301 3.752,2.904 l 8.537,32.988 c 0.139,0.534 0.699,0.968 1.251,0.968 H 44 c 1.656,0 3,1.344 3,3 v 4.14 c 0,1.656 -1.344,3 -3,3 H 4 c -1.656,0 -3,-1.344 -3,-3 v -4.14 c 0,-1.656 1.344,-3 3,-3 h 4.08 c 0.552,0 1.111,-0.434 1.247,-0.969 L 10.06,33.51 v 0 c 0.276,-1.071 1.802,-1.607 3.406,-1.196 l 0.964,0.246 -0.49,1.93 -1.503,5.901 C 12.301,40.926 11.742,41.36 11.19,41.36 H 6 c -0.552,0 -1,0.448 -1,1 v 0.14 c 0,0.552 0.448,1 1,1 h 36 c 0.552,0 1,-0.448 1,-1 v -0.14 c 0,-0.552 -0.448,-1 -1,-1 h -5.18 c -0.552,0 -1.112,-0.434 -1.251,-0.968 L 26.521,5.468 C 26.382,4.934 25.822,4.5 25.27,4.5 h -2.55 c -0.552,0 -1.104,0.436 -1.233,0.973 z"
       inkscape:connector-curvature="0"
       style="fill:url(#_lgradient_17)" />
  </g>
</svg>
