<?xml version="1.0" encoding="UTF-8" standalone="no"?>
<!-- Generator: Gravit.io -->

<svg
   xmlns:dc="http://purl.org/dc/elements/1.1/"
   xmlns:cc="http://creativecommons.org/ns#"
   xmlns:rdf="http://www.w3.org/1999/02/22-rdf-syntax-ns#"
   xmlns:svg="http://www.w3.org/2000/svg"
   xmlns="http://www.w3.org/2000/svg"
   xmlns:sodipodi="http://sodipodi.sourceforge.net/DTD/sodipodi-0.dtd"
   xmlns:inkscape="http://www.inkscape.org/namespaces/inkscape"
   style="isolation:isolate"
   viewBox="0 0 36 36"
   width="48"
   height="48"
   version="1.1"
   id="svg30"
   sodipodi:docname="vmware-netcfg.svg"
   inkscape:version="0.92.4 (5da689c313, 2019-01-14)">
  <metadata
     id="metadata36">
    <rdf:RDF>
      <cc:Work
         rdf:about="">
        <dc:format>image/svg+xml</dc:format>
        <dc:type
           rdf:resource="http://purl.org/dc/dcmitype/StillImage" />
        <dc:title></dc:title>
      </cc:Work>
    </rdf:RDF>
  </metadata>
  <defs
     id="defs34" />
  <sodipodi:namedview
     pagecolor="#ffffff"
     bordercolor="#666666"
     borderopacity="1"
     objecttolerance="10"
     gridtolerance="10"
     guidetolerance="10"
     inkscape:pageopacity="0"
     inkscape:pageshadow="2"
     inkscape:window-width="640"
     inkscape:window-height="480"
     id="namedview32"
     showgrid="false"
     units="px"
     inkscape:zoom="82.518609"
     inkscape:cx="32.878374"
     inkscape:cy="31.808612"
     inkscape:current-layer="svg30" />
  <linearGradient
     id="_lgradient_5"
     x1="0.54298681"
     y1="-0.26555973"
     x2="0.51975447"
     y2="0.98335701"
     gradientTransform="matrix(5.3333335,0,0,8.0000003,21.333333,32)"
     gradientUnits="userSpaceOnUse">
    <stop
       offset="3.0434782608695654%"
       stop-opacity="1"
       style="stop-color:rgb(166,124,243)"
       id="stop2" />
    <stop
       offset="98.69565217391305%"
       stop-opacity="1"
       style="stop-color:rgb(88,78,123)"
       id="stop4" />
  </linearGradient>
  <linearGradient
     id="_lgradient_6"
     x1="0.54298681"
     y1="-0.26555973"
     x2="0.51975447"
     y2="0.98335701"
     gradientTransform="matrix(34.666668,0,0,5.3333335,6.6666661,37.333334)"
     gradientUnits="userSpaceOnUse">
    <stop
       offset="3.0434782608695654%"
       stop-opacity="1"
       style="stop-color:rgb(166,124,243)"
       id="stop9" />
    <stop
       offset="98.69565217391305%"
       stop-opacity="1"
       style="stop-color:rgb(88,78,123)"
       id="stop11" />
  </linearGradient>
  <linearGradient
     id="_lgradient_7"
     x1="0"
     y1="0.5"
     x2="1"
     y2="0.5"
     gradientTransform="matrix(48.000002,0,0,10.666667,-7.5e-7,34.666667)"
     gradientUnits="userSpaceOnUse">
    <stop
       offset="0%"
       stop-opacity="1"
       style="stop-color:rgb(255,229,59)"
       id="stop16" />
    <stop
       offset="98.69565217391305%"
       stop-opacity="1"
       style="stop-color:rgb(255,0,91)"
       id="stop18" />
  </linearGradient>
  <linearGradient
     id="_lgradient_8"
     x1="0"
     y1="0.5"
     x2="1"
     y2="0.5"
     gradientTransform="matrix(29.333334,0,0,29.333334,9.3333329,2.666666)"
     gradientUnits="userSpaceOnUse">
    <stop
       offset="0%"
       stop-opacity="1"
       style="stop-color:rgb(247,242,6)"
       id="stop23" />
    <stop
       offset="97.82608695652173%"
       stop-opacity="1"
       style="stop-color:rgb(255,187,36)"
       id="stop25" />
  </linearGradient>
  <g
     id="g839"
     transform="scale(0.74999997)">
    <path
       style="fill:url(#_lgradient_5);stroke-width:1.06666672"
       inkscape:connector-curvature="0"
       id="path7"
       d="m 21.333333,32 h 5.333334 v 8.000001 h -5.333334 z" />
    <path
       style="fill:url(#_lgradient_6);stroke-width:1.06666672"
       inkscape:connector-curvature="0"
       id="path14"
       d="M 6.6666661,37.333334 H 41.333334 v 5.333333 H 6.6666661 Z" />
    <path
       style="fill:url(#_lgradient_7);fill-rule:evenodd;stroke-width:1.06666672"
       inkscape:connector-curvature="0"
       id="path21"
       d="m -7.5e-7,40.000001 c 0,-2.944001 2.38933345,-5.333334 5.33333345,-5.333334 2.9440001,0 5.3333333,2.389333 5.3333333,5.333334 0,2.944 -2.3893332,5.333333 -5.3333333,5.333333 -2.944,0 -5.33333345,-2.389333 -5.33333345,-5.333333 z m 18.66666775,0 C 18.666667,37.056 21.056,34.666667 24,34.666667 c 2.944,0 5.333334,2.389333 5.333334,5.333334 0,2.944 -2.389334,5.333333 -5.333334,5.333333 -2.944,0 -5.333333,-2.389333 -5.333333,-5.333333 z m 18.666667,0 c 0,-2.944001 2.389333,-5.333334 5.333333,-5.333334 2.944,0 5.333334,2.389333 5.333334,5.333334 0,2.944 -2.389334,5.333333 -5.333334,5.333333 -2.944,0 -5.333333,-2.389333 -5.333333,-5.333333 z" />
    <path
       style="fill:url(#_lgradient_8);stroke-width:1.06666672"
       inkscape:connector-curvature="0"
       id="path28"
       d="m 12.3936,2.666666 c -1.696,0 -3.0602671,1.3642667 -3.0602671,3.0602668 V 28.939733 C 9.3333329,30.635734 10.6976,32 12.3936,32 h 23.2128 c 1.696,0 3.060267,-1.364266 3.060267,-3.060267 V 5.7269328 C 38.666667,4.0309327 37.3024,2.666666 35.6064,2.666666 Z M 16,9.3333329 H 32 V 25.333333 H 16 Z" />
  </g>
</svg>
