<?xml version="1.0" encoding="UTF-8" standalone="no"?>
<!-- Generator: Gravit.io -->

<svg
   xmlns:dc="http://purl.org/dc/elements/1.1/"
   xmlns:cc="http://creativecommons.org/ns#"
   xmlns:rdf="http://www.w3.org/1999/02/22-rdf-syntax-ns#"
   xmlns:svg="http://www.w3.org/2000/svg"
   xmlns="http://www.w3.org/2000/svg"
   xmlns:sodipodi="http://sodipodi.sourceforge.net/DTD/sodipodi-0.dtd"
   xmlns:inkscape="http://www.inkscape.org/namespaces/inkscape"
   style="isolation:isolate"
   viewBox="0 0 36 36"
   width="48"
   height="48"
   version="1.1"
   id="svg9"
   sodipodi:docname="vmware.svg"
   inkscape:version="0.92.4 (5da689c313, 2019-01-14)">
  <metadata
     id="metadata15">
    <rdf:RDF>
      <cc:Work
         rdf:about="">
        <dc:format>image/svg+xml</dc:format>
        <dc:type
           rdf:resource="http://purl.org/dc/dcmitype/StillImage" />
        <dc:title></dc:title>
      </cc:Work>
    </rdf:RDF>
  </metadata>
  <defs
     id="defs13" />
  <sodipodi:namedview
     pagecolor="#ffffff"
     bordercolor="#666666"
     borderopacity="1"
     objecttolerance="10"
     gridtolerance="10"
     guidetolerance="10"
     inkscape:pageopacity="0"
     inkscape:pageshadow="2"
     inkscape:window-width="640"
     inkscape:window-height="480"
     id="namedview11"
     showgrid="false"
     inkscape:zoom="29.365243"
     inkscape:cx="25.325443"
     inkscape:cy="32"
     inkscape:current-layer="svg9"
     units="px" />
  <linearGradient
     id="_lgradient_4"
     x1="0"
     y1="0.5"
     x2="0.90748805"
     y2="0.92007786"
     gradientTransform="matrix(44,0,0,44,2,2)"
     gradientUnits="userSpaceOnUse">
    <stop
       offset="0%"
       stop-opacity="1"
       style="stop-color:rgb(247,241,7)"
       id="stop2" />
    <stop
       offset="83.88839793817618%"
       stop-opacity="1"
       style="stop-color:rgb(255,187,36)"
       id="stop4" />
  </linearGradient>
  <g
     id="g826"
     transform="matrix(0.81818182,0,0,0.81818182,-1.6363637,-1.6363637)">
    <path
       id="path7"
       d="m 6,28 v 0 c 0,1.104 -0.896,2 -2,2 v 0 C 2.896,30 2,29.104 2,28 V 28 7 C 2,4.24 4.24,2 7,2 h 34 c 2.76,0 5,2.24 5,5 v 5 0 c 0,1.104 -0.896,2 -2,2 v 0 c -1.104,0 -2,-0.896 -2,-2 V 12 9 C 42,7.344 40.656,6 39,6 H 9 C 7.344,6 6,7.344 6,9 Z m 36,-8 v 0 c 0,-1.104 0.896,-2 2,-2 v 0 c 1.104,0 2,0.896 2,2 v 0 22 c 0,2.208 -1.792,4 -4,4 H 6 C 3.792,46 2,44.208 2,42 v -6 0 c 0,-1.104 0.896,-2 2,-2 v 0 c 1.104,0 2,0.896 2,2 v 0 3 c 0,1.656 1.344,3 3,3 h 30 c 1.656,0 3,-1.344 3,-3 z M 12,10 c -1.108,0 -2,0.892 -2,2 v 9 c 0,1.108 0.892,2 2,2 1.108,0 2,-0.892 2,-2 v -4.187 l 3,3 V 23 h 4 v -1 c 0,-0.554 0.446,-1 1,-1 h 1 v -4 h -3.187 l -3,-3 H 21 c 1.108,0 2,-0.892 2,-2 0,-1.108 -0.892,-2 -2,-2 z m 15,0 c -1.108,0 -2,0.892 -2,2 0,1.108 0.892,2 2,2 h 4.188 l -3,3 H 25 v 4 h 1 c 0.554,0 1,0.446 1,1 v 1 h 4 v -3.187 l 3,-3 V 21 c 0,1.108 0.892,2 2,2 1.108,0 2,-0.892 2,-2 v -9 c 0,-1.108 -0.892,-2 -2,-2 z M 17,25 v 4 c 0,1.108 0.892,2 2,2 h 4 v -4 h -1 c -0.554,0 -1,-0.446 -1,-1 v -1 z m 10,0 v 1 c 0,0.554 -0.446,1 -1,1 h -1 v 4 h 3.188 l 3,3 H 27 c -1.108,0 -2,0.892 -2,2 0,1.108 0.892,2 2,2 h 9 c 1.107,0 2,-0.892 2,-2 v -9 c 0,-1.108 -0.893,-2 -2,-2 -1.109,0 -2,0.892 -2,2 v 4.188 l -3,-3 V 25 Z"
       inkscape:connector-curvature="0"
       style="fill:url(#_lgradient_4);fill-rule:evenodd" />
  </g>
</svg>
