<?xml version="1.0" encoding="UTF-8" standalone="no"?>
<!-- Generator: Gravit.io -->

<svg
   xmlns:dc="http://purl.org/dc/elements/1.1/"
   xmlns:cc="http://creativecommons.org/ns#"
   xmlns:rdf="http://www.w3.org/1999/02/22-rdf-syntax-ns#"
   xmlns:svg="http://www.w3.org/2000/svg"
   xmlns="http://www.w3.org/2000/svg"
   xmlns:sodipodi="http://sodipodi.sourceforge.net/DTD/sodipodi-0.dtd"
   xmlns:inkscape="http://www.inkscape.org/namespaces/inkscape"
   style="isolation:isolate"
   viewBox="0 0 36 36"
   width="48"
   height="48"
   version="1.1"
   id="svg25"
   sodipodi:docname="waterfox.svg"
   inkscape:version="0.92.4 (5da689c313, 2019-01-14)">
  <metadata
     id="metadata31">
    <rdf:RDF>
      <cc:Work
         rdf:about="">
        <dc:format>image/svg+xml</dc:format>
        <dc:type
           rdf:resource="http://purl.org/dc/dcmitype/StillImage" />
        <dc:title></dc:title>
      </cc:Work>
    </rdf:RDF>
  </metadata>
  <defs
     id="defs29" />
  <sodipodi:namedview
     pagecolor="#ffffff"
     bordercolor="#666666"
     borderopacity="1"
     objecttolerance="10"
     gridtolerance="10"
     guidetolerance="10"
     inkscape:pageopacity="0"
     inkscape:pageshadow="2"
     inkscape:window-width="640"
     inkscape:window-height="480"
     id="namedview27"
     showgrid="false"
     inkscape:zoom="29.365243"
     inkscape:cx="25.325443"
     inkscape:cy="32"
     inkscape:current-layer="svg25"
     units="px" />
  <linearGradient
     id="_lgradient_0"
     x1="0.8733201"
     y1="0.026796497"
     x2="0.44277981"
     y2="0.6741032"
     gradientTransform="matrix(18.001,0,0,28.001,28.03,15)"
     gradientUnits="userSpaceOnUse">
    <stop
       offset="0%"
       stop-opacity="1"
       style="stop-color:rgb(211,0,220)"
       id="stop2" />
    <stop
       offset="100%"
       stop-opacity="1"
       style="stop-color:rgb(135,0,255)"
       id="stop4" />
  </linearGradient>
  <linearGradient
     id="_lgradient_1"
     x1="0.296574"
     y1="0.26680031"
     x2="0.73742318"
     y2="0.95452875"
     gradientTransform="matrix(21.26,0,0,25.23,19.195,17.769)"
     gradientUnits="userSpaceOnUse">
    <stop
       offset="0%"
       stop-opacity="1"
       style="stop-color:rgb(0,198,255)"
       id="stop9" />
    <stop
       offset="98.69565217391305%"
       stop-opacity="1"
       style="stop-color:rgb(0,114,255)"
       id="stop11" />
  </linearGradient>
  <linearGradient
     id="_lgradient_2"
     x1="0"
     y1="0.5"
     x2="1"
     y2="0.5"
     gradientTransform="matrix(33.011,0,0,37.994,2.03,5)"
     gradientUnits="userSpaceOnUse">
    <stop
       offset="0%"
       stop-opacity="1"
       style="stop-color:rgb(84,51,255)"
       id="stop16" />
    <stop
       offset="51.73913043478261%"
       stop-opacity="1"
       style="stop-color:rgb(32,189,255)"
       id="stop18" />
    <stop
       offset="98.26086956521739%"
       stop-opacity="1"
       style="stop-color:rgb(165,254,203)"
       id="stop20" />
  </linearGradient>
  <g
     id="g841"
     transform="matrix(0.81816995,0,0,0.81816995,-1.6606239,-1.6362093)">
    <path
       id="path7"
       d="m 37.6,40.03 c -0.54,1.21 -1.54,2.16 -2.78,2.64 -1.23,0.47 -2.61,0.44 -3.82,-0.1 -1.21,-0.54 -2.16,-1.54 -2.64,-2.77 -0.47,-1.24 -0.44,-2.62 0.1,-3.83 l 8,-18 C 37,16.76 38,15.81 39.23,15.33 c 1.24,-0.47 2.62,-0.44 3.83,0.1 1.21,0.54 2.16,1.54 2.64,2.78 0.47,1.23 0.44,2.61 -0.1,3.82 z"
       style="fill:url(#_lgradient_0)"
       inkscape:connector-curvature="0" />
    <path
       id="path14"
       d="m 23.591,18.504 c 7.162,6.926 0.77,-0.981 2.119,-0.524 3.27,1.081 0.305,-1.258 1.782,0.411 2.017,2.638 3.594,5.931 5.023,8.478 l -0.016,0.026 3.707,6.589 c 1.336,1.426 2.831,0.97 4.249,0.145 l -2.846,6.402 c -1.672,3.756 -6.909,4.002 -8.926,0.42 L 19.753,24.576 19.589,24.32 c -1.785,-2.853 3.209,-0.617 0.811,-2.787 -0.268,-0.238 0.562,-0.529 0.728,-0.936 0.672,-1.647 0.578,0.83 1.994,0.533 0.295,-0.04 -0.323,0.006 0,0 z"
       style="fill:url(#_lgradient_1)"
       inkscape:connector-curvature="0" />
    <path
       id="path23"
       d="m 19.636,39.955 c -0.221,0.516 -0.526,0.988 -0.909,1.389 -0.007,0.029 -0.025,0.049 -0.054,0.057 -0.208,0.244 -0.449,0.457 -0.718,0.634 -0.1,0.092 -0.213,0.167 -0.332,0.235 -0.178,0.113 -0.367,0.213 -0.563,0.3 -0.072,0.032 -0.144,0.062 -0.218,0.088 -0.052,0.024 -0.106,0.043 -0.159,0.065 -0.376,0.123 -0.762,0.208 -1.152,0.251 -0.123,0.01 -0.246,0.018 -0.369,0.009 -0.262,0.022 -0.525,0.009 -0.784,-0.037 -0.171,-0.007 -0.34,-0.037 -0.504,-0.086 -0.267,-0.049 -0.527,-0.13 -0.775,-0.246 -1.125,-0.441 -2.101,-1.31 -2.667,-2.583 L 7.586,33.629 c 0.013,0.008 0.026,0.015 0.039,0.023 L 2.46,22.03 C 1.92,20.82 1.89,19.44 2.36,18.21 2.84,16.97 3.79,15.97 5,15.43 c 1.21,-0.54 2.59,-0.57 3.82,-0.1 1.24,0.48 2.24,1.43 2.78,2.64 l 3.942,8.87 c 1.425,-2.543 2.997,-5.821 5.007,-8.449 1.476,-1.669 3.483,-3.645 6.754,-4.727 1.348,-0.456 2.461,-0.617 3.431,-0.601 v 0 c 0.324,0.005 0.631,0.03 0.926,0.07 1.417,0.296 2.648,0.657 3.32,2.305 0.166,0.406 -0.036,0.792 -0.304,1.029 -2.398,2.17 -4.44,5 -6.225,7.853 l -0.164,0.256 z M 31,7 c 0,-1.104 0.896,-2 2,-2 1.104,0 2,0.896 2,2 0,1.104 -0.896,2 -2,2 C 31.896,9 31,8.104 31,7 Z M 24.834,6 c -0.658,0.001 -1.356,0.187 -2.06,0.562 -2.628,1.401 -3.924,3.826 -3.76,7.041 0.041,0.812 0.169,1.684 0.284,1.937 0.115,0.253 0.307,0.46 0.426,0.46 0.12,0 0.627,-0.44 1.128,-0.978 0.681,-0.732 1.271,-1.158 2.342,-1.691 2.861,-1.423 3.122,-1.585 3.809,-2.357 C 28.299,9.518 28.332,8.085 27.098,6.913 26.459,6.305 25.68,5.999 24.834,6 Z m -9.605,7.001 c -0.14,-0.004 -0.281,0.007 -0.421,0.036 -1.11,0.23 -1.979,1.973 -1.779,3.568 0.123,0.99 0.967,2.504 1.687,3.029 0.313,0.228 0.719,0.391 0.903,0.363 0.289,-0.045 0.352,-0.23 0.453,-1.337 0.065,-0.707 0.306,-1.767 0.534,-2.357 0.499,-1.287 0.516,-1.705 0.096,-2.453 -0.286,-0.508 -0.865,-0.83 -1.473,-0.849 z"
       style="fill:url(#_lgradient_2);fill-rule:evenodd"
       inkscape:connector-curvature="0" />
  </g>
</svg>
