<?xml version="1.0" encoding="UTF-8" standalone="no"?>
<!-- Generator: Gravit.io -->

<svg
   xmlns:dc="http://purl.org/dc/elements/1.1/"
   xmlns:cc="http://creativecommons.org/ns#"
   xmlns:rdf="http://www.w3.org/1999/02/22-rdf-syntax-ns#"
   xmlns:svg="http://www.w3.org/2000/svg"
   xmlns="http://www.w3.org/2000/svg"
   xmlns:sodipodi="http://sodipodi.sourceforge.net/DTD/sodipodi-0.dtd"
   xmlns:inkscape="http://www.inkscape.org/namespaces/inkscape"
   style="isolation:isolate"
   viewBox="0 0 36 36"
   width="48"
   height="48"
   version="1.1"
   id="svg23"
   sodipodi:docname="weather.svg"
   inkscape:version="0.92.4 (5da689c313, 2019-01-14)">
  <metadata
     id="metadata29">
    <rdf:RDF>
      <cc:Work
         rdf:about="">
        <dc:format>image/svg+xml</dc:format>
        <dc:type
           rdf:resource="http://purl.org/dc/dcmitype/StillImage" />
        <dc:title></dc:title>
      </cc:Work>
    </rdf:RDF>
  </metadata>
  <defs
     id="defs27" />
  <sodipodi:namedview
     pagecolor="#ffffff"
     bordercolor="#666666"
     borderopacity="1"
     objecttolerance="10"
     gridtolerance="10"
     guidetolerance="10"
     inkscape:pageopacity="0"
     inkscape:pageshadow="2"
     inkscape:window-width="640"
     inkscape:window-height="480"
     id="namedview25"
     showgrid="false"
     inkscape:zoom="29.365243"
     inkscape:cx="25.325443"
     inkscape:cy="32"
     inkscape:current-layer="svg23"
     units="px" />
  <linearGradient
     id="_lgradient_54"
     x1="0"
     y1="0.5"
     x2="1"
     y2="0.5"
     gradientTransform="matrix(29.65,0,0,26.39,17.85,2.5)"
     gradientUnits="userSpaceOnUse">
    <stop
       offset="0%"
       stop-opacity="1"
       style="stop-color:rgb(247,242,6)"
       id="stop2" />
    <stop
       offset="97.82608695652173%"
       stop-opacity="1"
       style="stop-color:rgb(255,187,36)"
       id="stop4" />
  </linearGradient>
  <linearGradient
     id="_lgradient_55"
     x1="0"
     y1="0.5"
     x2="0.90748805"
     y2="0.92007786"
     gradientTransform="matrix(45.002,0,0,32,0.997,10)"
     gradientUnits="userSpaceOnUse">
    <stop
       offset="0%"
       stop-opacity="1"
       style="stop-color:rgb(0,196,255)"
       id="stop9" />
    <stop
       offset="83.88839793817618%"
       stop-opacity="1"
       style="stop-color:rgb(0,114,255)"
       id="stop11" />
  </linearGradient>
  <linearGradient
     id="_lgradient_56"
     x1="0"
     y1="0.5"
     x2="0.90748805"
     y2="0.92007786"
     gradientTransform="matrix(22.953,0,0,11.439,12,34)"
     gradientUnits="userSpaceOnUse">
    <stop
       offset="0%"
       stop-opacity="1"
       style="stop-color:rgb(0,255,216)"
       id="stop16" />
    <stop
       offset="83.88839793817618%"
       stop-opacity="1"
       style="stop-color:rgb(0,255,184)"
       id="stop18" />
  </linearGradient>
  <g
     id="g839"
     transform="matrix(0.77415599,0,0,0.77415599,-0.77240957,-0.556132)">
    <path
       id="path7"
       d="M 21.2,11.71 20.44,13 17.85,11.49 18.61,10.19 C 21.38,5.44 26.49,2.5 32,2.5 c 4.11,0 8.05,1.63 10.96,4.54 2.9,2.91 4.54,6.85 4.54,10.96 0,3.54 -1.21,6.97 -3.44,9.73 l -0.94,1.16 -2.33,-1.88 0.94,-1.17 C 43.52,23.62 44.5,20.85 44.5,18 44.5,14.69 43.18,11.5 40.84,9.16 38.49,6.82 35.31,5.5 32,5.5 c -4.44,0 -8.56,2.37 -10.8,6.21 z"
       style="fill:url(#_lgradient_54)"
       inkscape:connector-curvature="0" />
    <path
       id="path14"
       d="m 38.677,22.57 c 0.014,0.003 0.028,0.006 0.042,0.01 0.68,0.18 1.35,0.42 2,0.71 0.57,0.27 1.12,0.58 1.63,0.95 0.56,0.41 1.07,0.88 1.52,1.41 0.44,0.53 0.82,1.1 1.12,1.72 0.32,0.67 0.57,1.37 0.72,2.09 0.18,0.82 0.28,1.66 0.29,2.51 0.01,0.82 -0.04,1.64 -0.16,2.45 -0.1,0.68 -0.27,1.36 -0.52,2.01 -0.21,0.57 -0.48,1.11 -0.81,1.63 -0.31,0.49 -0.68,0.95 -1.1,1.36 -0.43,0.42 -0.91,0.79 -1.43,1.1 -0.56,0.33 -1.15,0.61 -1.76,0.82 -0.61,0.21 -1.25,0.36 -1.89,0.46 -0.76,0.12 -1.53,0.19 -2.3,0.2 -0.01,0 -0.02,0 -0.03,0 h -7 -2 -9 -7 c -0.01,0 -0.02,0 -0.03,0 -0.8,-0.01 -1.61,-0.08 -2.4,-0.21 -0.67,-0.11 -1.32,-0.28 -1.96,-0.51 -0.57,-0.21 -1.13,-0.48 -1.65,-0.8 -0.5,-0.3 -0.96,-0.66 -1.37,-1.06 -0.44,-0.44 -0.83,-0.92 -1.16,-1.44 -0.34,-0.55 -0.61,-1.14 -0.82,-1.75 -0.22,-0.63 -0.38,-1.27 -0.47,-1.93 -0.1,-0.77 -0.15,-1.55 -0.14,-2.33 0.01,-0.84 0.11,-1.68 0.29,-2.51 0.15,-0.72 0.4,-1.42 0.72,-2.08 0.3,-0.62 0.68,-1.2 1.12,-1.72 0.44,-0.53 0.95,-1 1.51,-1.41 0.52,-0.37 1.07,-0.7 1.66,-0.96 0.65,-0.3 1.33,-0.54 2.03,-0.72 0.005,-0.001 0.01,-0.003 0.015,-0.004 0.703,-3.394 2.502,-6.484 5.125,-8.776 2.78,-2.44 6.35,-3.78 10.04,-3.79 0,0 0,0 0.01,0 v 0 0 c 3.76,0.01 7.38,1.4 10.18,3.91 2.547,2.282 4.294,5.323 4.978,8.66 z M 34.361,22.012 C 34.206,22.005 34.052,22.002 33.899,22 c -1.04,0.11 -2.06,0.31 -3.06,0.59 -0.7,0.2 -1.38,0.49 -2.01,0.86 -0.43,0.24 -0.82,0.54 -1.18,0.87 -0.34,0.31 -0.64,0.67 -0.88,1.06 -0.24,0.38 -0.42,0.78 -0.55,1.21 -0.13,0.43 -0.2,0.88 -0.22,1.33 v 0 c -0.039,1.104 0.824,2.034 1.925,2.075 v 0 c 1.101,0.041 2.031,-0.817 2.075,-1.915 v 0 c 0,-0.12 0.02,-0.24 0.05,-0.35 0.03,-0.08 0.06,-0.16 0.11,-0.23 0.05,-0.09 0.12,-0.17 0.2,-0.24 0.14,-0.14 0.3,-0.25 0.48,-0.35 0.34,-0.2 0.7,-0.36 1.09,-0.47 0.71,-0.2 1.44,-0.35 2.17,-0.44 0.36,0.005 0.717,0.022 1.075,0.048 l 0.005,0.032 0.142,-0.021 c 0.269,0.022 0.537,0.049 0.808,0.081 0.52,0.07 1.04,0.17 1.56,0.31 0.47,0.12 0.93,0.28 1.37,0.49 0.33,0.15 0.65,0.33 0.94,0.54 0.3,0.22 0.57,0.47 0.81,0.75 0.23,0.28 0.43,0.58 0.58,0.9 0.19,0.37 0.32,0.77 0.41,1.17 0.12,0.57 0.19,1.15 0.2,1.73 0.01,0.6 -0.03,1.21 -0.12,1.8 -0.06,0.41 -0.16,0.82 -0.31,1.21 -0.11,0.3 -0.25,0.59 -0.43,0.87 -0.15,0.23 -0.33,0.45 -0.52,0.64 -0.21,0.21 -0.45,0.39 -0.7,0.54 -0.31,0.19 -0.65,0.34 -1,0.46 -0.39,0.14 -0.79,0.24 -1.2,0.3 -0.58,0.09 -1.16,0.14 -1.74,0.15 h -6.98 -9 -2 -6.98 c -0.61,-0.01 -1.21,-0.06 -1.81,-0.16 -0.42,-0.07 -0.83,-0.18 -1.23,-0.32 -0.33,-0.12 -0.64,-0.27 -0.94,-0.45 -0.24,-0.15 -0.46,-0.32 -0.66,-0.52 -0.21,-0.2 -0.39,-0.43 -0.54,-0.68 -0.19,-0.3 -0.34,-0.62 -0.45,-0.95 -0.14,-0.38 -0.23,-0.77 -0.28,-1.17 -0.08,-0.57 -0.12,-1.14 -0.11,-1.72 0.01,-0.58 0.08,-1.16 0.2,-1.72 0.09,-0.41 0.22,-0.8 0.4,-1.18 0.16,-0.32 0.36,-0.62 0.59,-0.89 0.23,-0.28 0.5,-0.54 0.8,-0.75 0.3,-0.22 0.62,-0.41 0.96,-0.56 0.45,-0.2 0.92,-0.37 1.4,-0.49 0.51,-0.14 1.02,-0.24 1.55,-0.3 0.66,-0.08 1.33,-0.13 2,-0.14 0.72,0.09 1.45,0.24 2.15,0.44 0.38,0.1 0.75,0.26 1.1,0.45 0.17,0.11 0.34,0.22 0.49,0.36 0.07,0.07 0.14,0.15 0.2,0.24 0.04,0.08 0.08,0.16 0.1,0.24 0.04,0.11 0.06,0.23 0.06,0.35 v 0 c 0.044,1.098 0.974,1.956 2.075,1.915 v 0 c 1.101,-0.041 1.963,-0.971 1.925,-2.075 v 0 c -0.02,-0.45 -0.09,-0.9 -0.22,-1.34 -0.13,-0.43 -0.32,-0.84 -0.56,-1.22 -0.25,-0.39 -0.55,-0.75 -0.89,-1.06 -0.37,-0.34 -0.77,-0.63 -1.2,-0.88 -0.63,-0.36 -1.3,-0.64 -2,-0.83 -0.99,-0.28 -2,-0.48 -3.03,-0.59 -0.144,0.002 -0.287,0.004 -0.432,0.011 0.643,-2.012 1.831,-3.812 3.432,-5.211 2.05,-1.8 4.69,-2.79 7.41,-2.8 0.01,0 0.01,0 0.01,0 v 0 0 c 0,0 0,0 0,0 h -0.01 c 2.78,0.01 5.46,1.04 7.52,2.89 1.55,1.395 2.705,3.159 3.332,5.122 z"
       style="fill:url(#_lgradient_55);fill-rule:evenodd"
       inkscape:connector-curvature="0" />
    <path
       id="path21"
       d="m 13.57,34.537 -1.436,4.309 c -0.477,1.431 0.36,2.593 1.869,2.593 v 0 c 1.508,0 2.345,-1.162 1.868,-2.593 l -1.436,-4.309 c -0.239,-0.716 -0.626,-0.716 -0.865,0 z m 9.497,4 -1.437,4.309 c -0.477,1.431 0.36,2.593 1.869,2.593 v 0 c 1.508,0 2.345,-1.162 1.868,-2.593 l -1.436,-4.309 c -0.239,-0.716 -0.626,-0.716 -0.864,0 z m 9.452,-4 -1.437,4.309 c -0.477,1.431 0.361,2.593 1.869,2.593 v 0 c 1.508,0 2.345,-1.162 1.868,-2.593 l -1.436,-4.309 c -0.239,-0.716 -0.626,-0.716 -0.864,0 z"
       style="fill:url(#_lgradient_56);fill-rule:evenodd"
       inkscape:connector-curvature="0" />
  </g>
</svg>
