<?xml version="1.0" encoding="UTF-8" standalone="no"?>
<!-- Generator: Gravit.io -->

<svg
   xmlns:dc="http://purl.org/dc/elements/1.1/"
   xmlns:cc="http://creativecommons.org/ns#"
   xmlns:rdf="http://www.w3.org/1999/02/22-rdf-syntax-ns#"
   xmlns:svg="http://www.w3.org/2000/svg"
   xmlns="http://www.w3.org/2000/svg"
   xmlns:sodipodi="http://sodipodi.sourceforge.net/DTD/sodipodi-0.dtd"
   xmlns:inkscape="http://www.inkscape.org/namespaces/inkscape"
   style="isolation:isolate"
   viewBox="0 0 36 36"
   width="48"
   height="48"
   version="1.1"
   id="svg23"
   sodipodi:docname="webstorm.svg"
   inkscape:version="0.92.4 (5da689c313, 2019-01-14)">
  <metadata
     id="metadata29">
    <rdf:RDF>
      <cc:Work
         rdf:about="">
        <dc:format>image/svg+xml</dc:format>
        <dc:type
           rdf:resource="http://purl.org/dc/dcmitype/StillImage" />
        <dc:title></dc:title>
      </cc:Work>
    </rdf:RDF>
  </metadata>
  <defs
     id="defs27" />
  <sodipodi:namedview
     pagecolor="#ffffff"
     bordercolor="#666666"
     borderopacity="1"
     objecttolerance="10"
     gridtolerance="10"
     guidetolerance="10"
     inkscape:pageopacity="0"
     inkscape:pageshadow="2"
     inkscape:window-width="640"
     inkscape:window-height="480"
     id="namedview25"
     showgrid="false"
     inkscape:zoom="29.365243"
     inkscape:cx="25.325443"
     inkscape:cy="32"
     inkscape:current-layer="svg23"
     units="px" />
  <linearGradient
     id="_lgradient_87"
     x1="0.41703096"
     y1="0.019248826"
     x2="0.67953813"
     y2="0.96413201"
     gradientTransform="matrix(37.64,0,0,48.35,-0.17,-0.19)"
     gradientUnits="userSpaceOnUse">
    <stop
       offset="28.000000000000004%"
       stop-opacity="1"
       style="stop-color:rgb(0,205,215)"
       id="stop2" />
    <stop
       offset="94%"
       stop-opacity="1"
       style="stop-color:rgb(32,134,215)"
       id="stop4" />
  </linearGradient>
  <linearGradient
     id="_lgradient_88"
     x1="0.22489224"
     y1="0.15127118"
     x2="0.74423027"
     y2="0.91276306"
     gradientTransform="matrix(34.54,0,0,37.91,14,0.82)"
     gradientUnits="userSpaceOnUse">
    <stop
       offset="14.000000000000002%"
       stop-opacity="1"
       style="stop-color:rgb(255,240,69)"
       id="stop9" />
    <stop
       offset="37%"
       stop-opacity="1"
       style="stop-color:rgb(0,205,215)"
       id="stop11" />
  </linearGradient>
  <linearGradient
     id="_lgradient_89"
     x1="-0.10692996"
     y1="-0.10581222"
     x2="0.99217588"
     y2="0.97466469"
     gradientTransform="matrix(30.5,0,0,30.5,8.75,8.75)"
     gradientUnits="userSpaceOnUse">
    <stop
       offset="28.000000000000004%"
       stop-opacity="1"
       style="stop-color:rgb(0,205,215)"
       id="stop16" />
    <stop
       offset="94%"
       stop-opacity="1"
       style="stop-color:rgb(32,134,215)"
       id="stop18" />
  </linearGradient>
  <g
     id="g839"
     transform="matrix(0.73906795,0,0,0.73906795,0.12564163,0.27345522)">
    <path
       id="path7"
       d="m 33.08,38.45 0.55,-1.92 3.84,1.1 -0.55,1.92 -2.46,8.61 L 4.65,45.18 -0.17,4.74 12.03,-0.19 23.8,4.92 25.63,5.71 22.686,8.75 20.799,8 11.97,4.14 4.17,7.31 8.25,41.52 31.54,43.84 Z"
       style="fill:url(#_lgradient_87)"
       inkscape:connector-curvature="0" />
    <path
       id="path14"
       d="M 21.95,9.76 20.19,10.71 14,9.76 20.05,6.24 30.11,0.82 l 13.13,0.17 4.98,15.68 -4.16,5.37 4.48,10.37 -9.13,5.32 -1.73,1 L 37.47,34.142 38,34 43.46,30.74 39.44,21.46 43.78,15.88 40.31,4.96 31.09,4.83 Z"
       style="fill:url(#_lgradient_88)"
       inkscape:connector-curvature="0" />
    <path
       id="path21"
       d="m 13.319,31.457 h 10.108 v 2.685 H 13.319 Z m 13.208,-7.828 1.415,-1.752 c 1.011,0.809 2.022,1.348 3.302,1.348 1.011,0 1.618,-0.404 1.618,-1.078 0,-0.607 -0.405,-0.944 -2.224,-1.415 -2.224,-0.607 -3.639,-1.213 -3.639,-3.437 v -0.067 c 0,-2.022 1.617,-3.37 3.841,-3.37 1.491,-0.006 2.94,0.493 4.111,1.415 L 33.67,17.16 c -0.813,-0.636 -1.8,-1.011 -2.83,-1.078 -0.876,0 -1.415,0.404 -1.415,1.011 0,0.741 0.471,1.011 2.358,1.482 2.224,0.607 3.505,1.415 3.505,3.37 0,2.223 -1.685,3.504 -4.044,3.504 -1.731,-0.064 -3.391,-0.704 -4.717,-1.82 z m -2.156,-9.569 -1.685,6.47 -1.887,-6.47 h -1.887 l -1.887,6.47 -1.684,-6.47 h -2.629 l 3.235,11.187 h 2.089 l 1.82,-6.47 1.819,6.47 h 2.089 L 26.999,14.06 Z m 12.227,2.348 v 0 c 0,0.732 0.594,1.326 1.326,1.326 v 0 c 0.732,0 1.326,-0.594 1.326,-1.326 v 0 -4.343 c 0,-1.83 -1.485,-3.315 -3.315,-3.315 h -23.87 c -1.83,0 -3.315,1.485 -3.315,3.315 v 12.598 0 c 0,0.732 0.594,1.326 1.326,1.326 v 0 c 0.732,0 1.326,-0.594 1.326,-1.326 v 0 -11.272 c 0,-1.098 0.891,-1.989 1.989,-1.989 h 21.218 c 1.098,0 1.989,0.891 1.989,1.989 z M 11.402,31.592 v 0 c 0,-0.732 -0.594,-1.326 -1.326,-1.326 v 0 c -0.732,0 -1.326,0.594 -1.326,1.326 v 0 4.343 c 0,1.83 1.485,3.315 3.315,3.315 h 23.87 c 1.83,0 3.315,-1.485 3.315,-3.315 v -13.142 0 c 0,-0.732 -0.594,-1.326 -1.326,-1.326 v 0 c -0.732,0 -1.326,0.594 -1.326,1.326 v 0 11.816 c 0,1.098 -0.891,1.989 -1.989,1.989 H 13.391 c -1.098,0 -1.989,-0.891 -1.989,-1.989 z"
       style="fill:url(#_lgradient_89);fill-rule:evenodd"
       inkscape:connector-curvature="0" />
  </g>
</svg>
