<?xml version="1.0" encoding="UTF-8" standalone="no"?>
<!-- Generator: Gravit.io -->

<svg
   xmlns:dc="http://purl.org/dc/elements/1.1/"
   xmlns:cc="http://creativecommons.org/ns#"
   xmlns:rdf="http://www.w3.org/1999/02/22-rdf-syntax-ns#"
   xmlns:svg="http://www.w3.org/2000/svg"
   xmlns="http://www.w3.org/2000/svg"
   xmlns:sodipodi="http://sodipodi.sourceforge.net/DTD/sodipodi-0.dtd"
   xmlns:inkscape="http://www.inkscape.org/namespaces/inkscape"
   style="isolation:isolate"
   viewBox="0 0 36 36"
   width="48"
   height="48"
   version="1.1"
   id="svg9"
   sodipodi:docname="whatsapp.svg"
   inkscape:version="0.92.4 (5da689c313, 2019-01-14)">
  <metadata
     id="metadata15">
    <rdf:RDF>
      <cc:Work
         rdf:about="">
        <dc:format>image/svg+xml</dc:format>
        <dc:type
           rdf:resource="http://purl.org/dc/dcmitype/StillImage" />
        <dc:title></dc:title>
      </cc:Work>
    </rdf:RDF>
  </metadata>
  <defs
     id="defs13" />
  <sodipodi:namedview
     pagecolor="#ffffff"
     bordercolor="#666666"
     borderopacity="1"
     objecttolerance="10"
     gridtolerance="10"
     guidetolerance="10"
     inkscape:pageopacity="0"
     inkscape:pageshadow="2"
     inkscape:window-width="640"
     inkscape:window-height="480"
     id="namedview11"
     showgrid="false"
     inkscape:zoom="29.365243"
     inkscape:cx="25.325443"
     inkscape:cy="32"
     inkscape:current-layer="svg9"
     units="px" />
  <linearGradient
     id="_lgradient_5"
     x1="0"
     y1="0.5"
     x2="1"
     y2="0.5"
     gradientTransform="matrix(43.198,0,0,43.886,2.462,2.057)"
     gradientUnits="userSpaceOnUse">
    <stop
       offset="0%"
       stop-opacity="1"
       style="stop-color:rgb(67,233,123)"
       id="stop2" />
    <stop
       offset="97.82608695652173%"
       stop-opacity="1"
       style="stop-color:rgb(56,249,215)"
       id="stop4" />
  </linearGradient>
  <g
     id="g826"
     transform="matrix(0.82031414,0,0,0.82031414,-1.7374257,-1.6873863)">
    <path
       id="path7"
       d="M 14.211,42.573 4.688,45.77 C 2.965,46.349 2.048,45.424 2.643,43.706 L 5.814,34.544 5.628,34.226 c -1.9,-3.272 -2.899,-6.983 -2.899,-10.76 0,-5.676 2.262,-11.122 6.269,-15.14 4.019,-4.007 9.464,-6.269 15.141,-6.269 5.336,0 10.474,1.998 14.415,5.588 v 0 c 0.897,0.818 0.961,2.208 0.143,3.102 v 0 c -0.818,0.894 -2.205,0.955 -3.096,0.137 v 0 C 32.461,8.03 28.377,6.449 24.139,6.449 c -4.513,0 -8.839,1.789 -12.033,4.984 -3.195,3.195 -4.985,7.521 -4.985,12.033 0,3.009 0.79,5.951 2.306,8.553 l 0.889,1.9 -0.889,2.272 -1.142,3.448 4.293,-1.032 1.422,-0.247 2.52,0.9 c 2.41,1.21 5.07,1.84 7.76,1.84 0.69,0 1.37,-0.04 2.06,-0.12 v 0 c 1.093,-0.132 2.085,0.649 2.215,1.745 v 0 c 0.13,1.096 -0.652,2.093 -1.745,2.225 v 0 c -0.84,0.1 -1.68,0.15 -2.53,0.15 -3.32,0 -6.59,-0.78 -9.56,-2.27 z M 40.59,17.47 v 0 c -0.381,-1.038 0.152,-2.187 1.19,-2.565 v 0 c 1.038,-0.378 2.189,0.157 2.57,1.195 v 0 c 0.87,2.38 1.31,4.91 1.31,7.45 0.01,7.07 -3.45,13.7 -9.25,17.74 v 0 c -0.905,0.635 -2.153,0.415 -2.785,-0.49 v 0 c -0.632,-0.905 -0.406,-2.155 0.505,-2.79 v 0 c 4.72,-3.29 7.54,-8.7 7.53,-14.46 0,-2.07 -0.36,-4.13 -1.07,-6.08 z m -6.108,11.536 c -0.023,-0.25 -0.171,-0.468 -0.398,-0.57 -1.531,-0.703 -3.07,-1.406 -4.601,-2.109 -0.172,-0.078 -0.383,-0.039 -0.508,0.109 l -2.078,2.344 c -0.164,0.187 -0.422,0.25 -0.649,0.156 -1.078,-0.445 -2.531,-1.195 -3.999,-2.461 -1.758,-1.507 -2.789,-3.125 -3.367,-4.179 0.289,-0.195 1.078,-0.781 1.429,-1.867 0,-0.008 0.008,-0.016 0.008,-0.016 0.219,-0.672 0.172,-1.398 -0.07,-2.062 -0.414,-1.102 -1.242,-3.235 -1.563,-3.563 -0.054,-0.054 -0.117,-0.109 -0.117,-0.109 -0.234,-0.211 -0.539,-0.328 -0.859,-0.344 -0.11,-0.008 -0.227,-0.008 -0.352,-0.008 -0.359,-0.007 -0.679,-0.007 -0.914,0.024 -0.664,0.094 -1.148,0.539 -1.453,0.914 -0.367,0.445 -0.805,1.109 -1.094,1.984 -0.023,0.078 -0.046,0.149 -0.07,0.227 -0.32,1.109 -0.258,2.297 0.125,3.39 0.359,1.024 0.883,2.242 1.672,3.531 1.336,2.196 2.789,3.555 3.773,4.453 1.11,1.024 2.484,2.281 4.664,3.328 2.016,0.969 3.844,1.328 5.07,1.477 0.5,0.047 1.422,0.054 2.477,-0.344 0.484,-0.188 0.89,-0.414 1.218,-0.656 0.867,-0.617 1.477,-1.547 1.633,-2.594 0,-0.008 0,-0.016 0,-0.023 0.055,-0.399 0.047,-0.742 0.023,-1.032 z"
       style="fill:url(#_lgradient_5);fill-rule:evenodd"
       inkscape:connector-curvature="0" />
  </g>
</svg>
