<?xml version="1.0" encoding="UTF-8" standalone="no"?>
<!-- Generator: Gravit.io -->

<svg
   xmlns:dc="http://purl.org/dc/elements/1.1/"
   xmlns:cc="http://creativecommons.org/ns#"
   xmlns:rdf="http://www.w3.org/1999/02/22-rdf-syntax-ns#"
   xmlns:svg="http://www.w3.org/2000/svg"
   xmlns="http://www.w3.org/2000/svg"
   xmlns:sodipodi="http://sodipodi.sourceforge.net/DTD/sodipodi-0.dtd"
   xmlns:inkscape="http://www.inkscape.org/namespaces/inkscape"
   style="isolation:isolate"
   viewBox="0 0 36 36"
   width="48"
   height="48"
   version="1.1"
   id="svg16"
   sodipodi:docname="winetricks.svg"
   inkscape:version="0.92.4 (5da689c313, 2019-01-14)">
  <metadata
     id="metadata22">
    <rdf:RDF>
      <cc:Work
         rdf:about="">
        <dc:format>image/svg+xml</dc:format>
        <dc:type
           rdf:resource="http://purl.org/dc/dcmitype/StillImage" />
        <dc:title></dc:title>
      </cc:Work>
    </rdf:RDF>
  </metadata>
  <defs
     id="defs20" />
  <sodipodi:namedview
     pagecolor="#ffffff"
     bordercolor="#666666"
     borderopacity="1"
     objecttolerance="10"
     gridtolerance="10"
     guidetolerance="10"
     inkscape:pageopacity="0"
     inkscape:pageshadow="2"
     inkscape:window-width="640"
     inkscape:window-height="480"
     id="namedview18"
     showgrid="false"
     inkscape:zoom="29.365243"
     inkscape:cx="25.325443"
     inkscape:cy="32"
     inkscape:current-layer="svg16"
     units="px" />
  <linearGradient
     id="_lgradient_30"
     x1="0"
     y1="0.5"
     x2="1"
     y2="0.5"
     gradientTransform="matrix(31,0,0,3,8,12.5)"
     gradientUnits="userSpaceOnUse">
    <stop
       offset="0%"
       stop-opacity="1"
       style="stop-color:rgb(255,224,49)"
       id="stop2" />
    <stop
       offset="100%"
       stop-opacity="1"
       style="stop-color:rgb(250,0,117)"
       id="stop4" />
  </linearGradient>
  <linearGradient
     id="_lgradient_31"
     x1="0.67180997"
     y1="0.020570019"
     x2="0.42214948"
     y2="0.96016449"
     gradientTransform="matrix(32,0,0,47,7.5,1)"
     gradientUnits="userSpaceOnUse">
    <stop
       offset="0%"
       stop-opacity="1"
       style="stop-color:rgb(26,108,255)"
       id="stop9" />
    <stop
       offset="100%"
       stop-opacity="1"
       style="stop-color:rgb(197,34,255)"
       id="stop11" />
  </linearGradient>
  <g
     id="g831"
     transform="matrix(0.76595745,0,0,0.76595745,-7.4999999e-8,-0.76595753)">
    <path
       id="path7"
       d="M 37.5,12.5 H 39 v 3 H 37.5 9.5 8 v -3 h 1.5 z"
       style="fill:url(#_lgradient_30)"
       inkscape:connector-curvature="0" />
    <path
       id="path14"
       d="M 22,44 V 31.992 C 18.202,31.865 14.592,30.302 11.89,27.61 9.08,24.79 7.5,20.98 7.5,17 V 5 C 7.5,3.94 7.92,2.92 8.67,2.17 9.42,1.42 10.44,1 11.5,1 h 3 v 0 c 1.104,0 2,0.896 2,2 v 0 c 0,1.104 -0.896,2 -2,2 v 0 h -2 c -0.552,0 -1,0.448 -1,1 v 11 c 0,2.92 1.16,5.72 3.22,7.78 2.06,2.06 4.86,3.22 7.78,3.22 h 2 c 2.92,0 5.72,-1.16 7.78,-3.22 C 34.34,22.72 35.5,19.92 35.5,17 V 16.5 6 c 0,-0.552 -0.448,-1 -1,-1 h -8 v 0 0 c -1.104,0 -2,-0.896 -2,-2 v 0 c 0,-1.104 0.896,-2 2,-2 v 0 h 9 c 1.06,0 2.08,0.42 2.83,1.17 C 39.08,2.92 39.5,3.94 39.5,5 V 16.5 17 c 0,3.98 -1.58,7.79 -4.39,10.61 -2.463,2.455 -5.682,3.971 -9.11,4.315 v 0 V 44 h 4.5 c 1.104,0 2,0.896 2,2 v 2 h -17 v -2 c 0,-1.104 0.896,-2 2,-2 z M 20.5,1 v 0 c 1.104,0 2,0.896 2,2 v 0 c 0,1.104 -0.896,2 -2,2 v 0 c -1.104,0 -2,-0.896 -2,-2 v 0 c 0,-1.104 0.896,-2 2,-2 z m 10.1,17.45 v 0 c 0.304,-0.773 1.177,-1.154 1.95,-0.85 v 0 c 0.773,0.304 1.154,1.177 0.85,1.95 v 0 c -0.69,1.73 -1.77,3.27 -3.17,4.5 -1.09,0.99 -2.38,1.73 -3.79,2.16 v 0 c -0.789,0.248 -1.629,-0.193 -1.875,-0.985 v 0 c -0.246,-0.792 0.2,-1.632 0.995,-1.875 v 0 c 0.99,-0.31 1.91,-0.84 2.68,-1.54 1.04,-0.91 1.85,-2.07 2.36,-3.36 z"
       style="fill:url(#_lgradient_31);fill-rule:evenodd"
       inkscape:connector-curvature="0" />
  </g>
</svg>
