<?xml version="1.0" encoding="UTF-8" standalone="no"?>
<!-- Generator: Gravit.io -->

<svg
   xmlns:dc="http://purl.org/dc/elements/1.1/"
   xmlns:cc="http://creativecommons.org/ns#"
   xmlns:rdf="http://www.w3.org/1999/02/22-rdf-syntax-ns#"
   xmlns:svg="http://www.w3.org/2000/svg"
   xmlns="http://www.w3.org/2000/svg"
   xmlns:sodipodi="http://sodipodi.sourceforge.net/DTD/sodipodi-0.dtd"
   xmlns:inkscape="http://www.inkscape.org/namespaces/inkscape"
   style="isolation:isolate"
   viewBox="0 0 36 36"
   width="48"
   height="48"
   version="1.1"
   id="svg9"
   sodipodi:docname="wireshark.svg"
   inkscape:version="0.92.4 (5da689c313, 2019-01-14)">
  <metadata
     id="metadata15">
    <rdf:RDF>
      <cc:Work
         rdf:about="">
        <dc:format>image/svg+xml</dc:format>
        <dc:type
           rdf:resource="http://purl.org/dc/dcmitype/StillImage" />
        <dc:title></dc:title>
      </cc:Work>
    </rdf:RDF>
  </metadata>
  <defs
     id="defs13" />
  <sodipodi:namedview
     pagecolor="#ffffff"
     bordercolor="#666666"
     borderopacity="1"
     objecttolerance="10"
     gridtolerance="10"
     guidetolerance="10"
     inkscape:pageopacity="0"
     inkscape:pageshadow="2"
     inkscape:window-width="640"
     inkscape:window-height="480"
     id="namedview11"
     showgrid="false"
     inkscape:zoom="29.365243"
     inkscape:cx="25.325443"
     inkscape:cy="32"
     inkscape:current-layer="svg9"
     units="px" />
  <linearGradient
     id="_lgradient_127"
     x1="-3.8208334e-05"
     y1="0.50000006"
     x2="0.99996185"
     y2="0.50000006"
     gradientTransform="matrix(46,0,0,46,1,1)"
     gradientUnits="userSpaceOnUse">
    <stop
       offset="0%"
       stop-opacity="1"
       style="stop-color:rgb(0,198,255)"
       id="stop2" />
    <stop
       offset="98.69565217391305%"
       stop-opacity="1"
       style="stop-color:rgb(0,114,255)"
       id="stop4" />
  </linearGradient>
  <g
     id="g826"
     transform="matrix(0.7826087,0,0,0.7826087,-0.7826088,-0.7826088)">
    <path
       id="path7"
       d="m 39.27,29.27 v 0 c 1.104,0 2,0.896 2,2 v 0 c 0,1.104 -0.896,2 -2,2 v 0 h -9.36 c -0.54,0 -1.05,-0.21 -1.43,-0.6 -0.83,-0.85 -1.54,-1.82 -2.11,-2.87 -0.61,-1.12 -1.09,-2.32 -1.43,-3.55 -0.39,-1.37 -0.66,-2.78 -0.82,-4.2 -0.19,-1.6 -0.27,-3.21 -0.27,-4.82 -0.79,0.77 -1.48,1.66 -2.02,2.62 -0.58,1.03 -1.01,2.13 -1.28,3.27 -0.3,1.3 -0.44,2.64 -0.44,3.97 0.01,1.3 0.12,2.59 0.32,3.87 0.09,0.58 -0.07,1.17 -0.45,1.61 -0.38,0.45 -0.94,0.7 -1.53,0.7 H 6 c -2.76,0 -5,-2.24 -5,-5 V 6 C 1,3.24 3.24,1 6,1 h 36 c 2.76,0 5,2.24 5,5 v 36 c 0,2.76 -2.24,5 -5,5 H 6 C 3.24,47 1,44.76 1,42 v -0.82 0 c 0,-1.656 0.896,-3 2,-3 v 0 c 1.104,0 2,1.344 2,3 v 0 0 C 5,42.184 6.344,43 8,43 h 32 c 1.656,0 3,-1.344 3,-3 V 8 C 43,6.344 41.656,5 40,5 H 8 C 6.344,5 5,6.344 5,8 v 19.27 c 0,1.104 0.896,2 2,2 h 9.2 c -0.05,-0.72 -0.08,-1.44 -0.09,-2.16 -0.01,-1.65 0.18,-3.29 0.55,-4.9 0.35,-1.51 0.92,-2.97 1.68,-4.32 0.76,-1.34 1.71,-2.56 2.83,-3.63 2.04,-1.94 4.48,-3.39 6.208,-3.944 0.525,-0.169 0.894,0.138 0.823,0.686 -0.181,1.398 -0.341,3.808 -0.351,6.218 0,1.46 0.08,2.93 0.24,4.38 0.14,1.21 0.37,2.4 0.7,3.57 0.27,0.95 0.64,1.87 1.1,2.74 0.26,0.48 0.57,0.94 0.91,1.36 z"
       inkscape:connector-curvature="0"
       style="fill:url(#_lgradient_127)" />
  </g>
</svg>
