<?xml version="1.0" encoding="UTF-8" standalone="no"?>
<!-- Generator: Gravit.io -->

<svg
   xmlns:dc="http://purl.org/dc/elements/1.1/"
   xmlns:cc="http://creativecommons.org/ns#"
   xmlns:rdf="http://www.w3.org/1999/02/22-rdf-syntax-ns#"
   xmlns:svg="http://www.w3.org/2000/svg"
   xmlns="http://www.w3.org/2000/svg"
   xmlns:sodipodi="http://sodipodi.sourceforge.net/DTD/sodipodi-0.dtd"
   xmlns:inkscape="http://www.inkscape.org/namespaces/inkscape"
   style="isolation:isolate"
   viewBox="0 0 36 36"
   width="48"
   height="48"
   version="1.1"
   id="svg16"
   sodipodi:docname="wire.svg"
   inkscape:version="0.92.4 (5da689c313, 2019-01-14)">
  <metadata
     id="metadata22">
    <rdf:RDF>
      <cc:Work
         rdf:about="">
        <dc:format>image/svg+xml</dc:format>
        <dc:type
           rdf:resource="http://purl.org/dc/dcmitype/StillImage" />
        <dc:title></dc:title>
      </cc:Work>
    </rdf:RDF>
  </metadata>
  <defs
     id="defs20" />
  <sodipodi:namedview
     pagecolor="#ffffff"
     bordercolor="#666666"
     borderopacity="1"
     objecttolerance="10"
     gridtolerance="10"
     guidetolerance="10"
     inkscape:pageopacity="0"
     inkscape:pageshadow="2"
     inkscape:window-width="640"
     inkscape:window-height="480"
     id="namedview18"
     showgrid="false"
     inkscape:zoom="5.505983"
     inkscape:cx="135.06903"
     inkscape:cy="170.66667"
     inkscape:current-layer="svg16" />
  <linearGradient
     id="_lgradient_4"
     x1="14.679318"
     y1="247.50301"
     x2="195.86299"
     y2="35.952408"
     gradientTransform="scale(1.1105781,0.90043194)"
     gradientUnits="userSpaceOnUse">
    <stop
       offset="2.608695652173913%"
       stop-opacity="1"
       style="stop-color:rgb(237,184,212)"
       id="stop2" />
    <stop
       offset="98.69565217391305%"
       stop-opacity="1"
       style="stop-color:rgb(162,110,245)"
       id="stop4" />
  </linearGradient>
  <linearGradient
     id="_lgradient_5"
     x1="0.22078557"
     y1="0.047239967"
     x2="0.9022491"
     y2="0.90614605"
     gradientTransform="matrix(0,-247.251,246.946,0,4.027,252.625)"
     gradientUnits="userSpaceOnUse">
    <stop
       offset="2.608695652173913%"
       stop-opacity="1"
       style="stop-color:rgb(237,184,212)"
       id="stop9" />
    <stop
       offset="98.69565217391305%"
       stop-opacity="1"
       style="stop-color:rgb(162,110,245)"
       id="stop11" />
  </linearGradient>
  <g
     id="g831"
     transform="matrix(0.14560162,0,0,0.14560162,-0.56420119,-0.78260898)">
    <path
       id="path7"
       stroke-miterlimit="4"
       d="m 70,80 v 67.765 c 0,0 0,28.235 34.8,28.235 34.8,0 34.8,-28.235 34.8,-28.235 V 96.941 c 0,0 0,-13.099 -11.6,-13.099 -11.6,0 -11.6,13.099 -11.6,13.099 v 50.824 c 0,0 0,28.235 34.8,28.235 34.8,0 34.8,-28.235 34.8,-28.235 V 80"
       style="vector-effect:non-scaling-stroke;fill:none;stroke:url(#_lgradient_4);stroke-width:10;stroke-linecap:butt;stroke-linejoin:miter;stroke-miterlimit:4"
       inkscape:connector-curvature="0" />
    <path
       id="path14"
       d="m 26.48,121.47 v 0 c -0.465,6.172 -5.866,10.817 -12.053,10.368 v 0 C 8.24,131.388 3.594,125.987 4.059,119.784 v 0 C 6.363,88.709 20.355,59.601 43.226,38.36 66.097,17.175 96.16,5.375 127.347,5.375 c 32.761,0 64.229,13.036 87.437,36.188 23.152,23.208 36.189,54.676 36.189,87.437 0,32.761 -13.037,64.229 -36.189,87.437 -23.208,23.152 -54.676,36.188 -87.437,36.188 v 0 c -6.202,0 -11.238,-5.035 -11.238,-11.238 v 0 c 0,-6.203 5.036,-11.239 11.238,-11.239 v 0 c 26.805,0 52.541,-10.677 71.535,-29.614 18.937,-18.993 29.614,-44.73 29.614,-71.534 0,-26.804 -10.677,-52.541 -29.614,-71.534 -18.994,-18.937 -44.73,-29.614 -71.535,-29.614 -25.511,0 -50.124,9.609 -68.836,26.973 C 39.798,72.189 28.391,96.014 26.48,121.47 Z m 53.834,97.102 v 0 c 5.489,2.885 7.604,9.683 4.72,15.172 v 0 c -2.884,5.49 -9.683,7.605 -15.172,4.721 v 0 C 46.485,226.158 27.604,206.659 16.085,182.889 v 0 c -2.73,-5.582 -0.413,-12.318 5.169,-15.031 v 0 c 5.583,-2.714 12.331,-0.385 15.06,5.198 v 0 c 9.441,19.499 24.838,35.401 44,45.516 z"
       style="fill:url(#_lgradient_5);fill-rule:evenodd"
       inkscape:connector-curvature="0" />
  </g>
</svg>
