<?xml version="1.0" encoding="UTF-8" standalone="no"?>
<!-- Generator: Gravit.io -->

<svg
   xmlns:dc="http://purl.org/dc/elements/1.1/"
   xmlns:cc="http://creativecommons.org/ns#"
   xmlns:rdf="http://www.w3.org/1999/02/22-rdf-syntax-ns#"
   xmlns:svg="http://www.w3.org/2000/svg"
   xmlns="http://www.w3.org/2000/svg"
   xmlns:sodipodi="http://sodipodi.sourceforge.net/DTD/sodipodi-0.dtd"
   xmlns:inkscape="http://www.inkscape.org/namespaces/inkscape"
   style="isolation:isolate"
   viewBox="0 0 36 36"
   width="48"
   height="48"
   version="1.1"
   id="svg9"
   sodipodi:docname="wps-office-etmain.svg"
   inkscape:version="0.92.4 (5da689c313, 2019-01-14)">
  <metadata
     id="metadata15">
    <rdf:RDF>
      <cc:Work
         rdf:about="">
        <dc:format>image/svg+xml</dc:format>
        <dc:type
           rdf:resource="http://purl.org/dc/dcmitype/StillImage" />
        <dc:title></dc:title>
      </cc:Work>
    </rdf:RDF>
  </metadata>
  <defs
     id="defs13" />
  <sodipodi:namedview
     pagecolor="#ffffff"
     bordercolor="#666666"
     borderopacity="1"
     objecttolerance="10"
     gridtolerance="10"
     guidetolerance="10"
     inkscape:pageopacity="0"
     inkscape:pageshadow="2"
     inkscape:window-width="640"
     inkscape:window-height="480"
     id="namedview11"
     showgrid="false"
     inkscape:zoom="29.365243"
     inkscape:cx="25.325443"
     inkscape:cy="32"
     inkscape:current-layer="svg9"
     units="px" />
  <linearGradient
     id="_lgradient_32"
     x1="0"
     y1="0.5"
     x2="1"
     y2="0.5"
     gradientTransform="matrix(42,0,0,42,3,3)"
     gradientUnits="userSpaceOnUse">
    <stop
       offset="0%"
       stop-opacity="1"
       style="stop-color:rgb(67,233,123)"
       id="stop2" />
    <stop
       offset="97.82608695652173%"
       stop-opacity="1"
       style="stop-color:rgb(56,249,215)"
       id="stop4" />
  </linearGradient>
  <g
     id="g826"
     transform="matrix(0.85714286,0,0,0.85714286,-2.5714286,-2.5714286)">
    <path
       id="path7"
       d="M 34.5,3.067 C 34.342,3.022 34.174,3 34,3 V 3 H 8 C 5.24,3 3,5.24 3,8 v 19 0 c 0,1.104 0.896,2 2,2 v 0 c 1.104,0 2,-0.896 2,-2 v 0 0 0 -17 C 7,8.344 8.344,7 10,7 H 34 V 7 C 34.174,7 34.342,6.978 34.5,6.933 34.658,6.978 34.826,7 35,7 v 0 h 3 c 1.656,0 3,1.344 3,3 v 3 0 c 0,1.104 0.896,2 2,2 v 0 c 1.104,0 2,-0.896 2,-2 V 13 8 C 45,5.24 42.76,3 40,3 H 35 V 3 C 34.826,3 34.658,3.022 34.5,3.067 Z M 27.98,26 v 0 0 c 0.22,0 0.44,0.02 0.66,0.06 0.54,0.08 1.07,0.23 1.56,0.46 0.5,0.21 0.94,0.55 1.27,0.99 0.16,0.23 0.29,0.49 0.37,0.76 0.12,0.4 0.18,0.81 0.17,1.23 0.01,0.42 -0.05,0.83 -0.17,1.23 -0.08,0.27 -0.21,0.53 -0.37,0.76 -0.33,0.44 -0.77,0.78 -1.27,0.99 -0.49,0.23 -1.02,0.38 -1.56,0.46 C 28.43,32.98 28.21,33 28,33 H 14.01 c -0.53,0 -1.04,0.21 -1.41,0.59 -0.37,0.37 -0.59,0.88 -0.59,1.41 0,0.53 0.22,1.04 0.59,1.41 0.37,0.38 0.88,0.59 1.41,0.59 h 14 c 0.01,0 0.03,0 0.04,0 0.4,-0.01 0.81,-0.04 1.21,-0.11 0.89,-0.13 1.75,-0.38 2.57,-0.75 1.13,-0.5 2.11,-1.28 2.86,-2.27 0.43,-0.6 0.76,-1.27 0.98,-1.97 0.23,-0.78 0.35,-1.59 0.34,-2.4 0.01,-0.81 -0.11,-1.62 -0.34,-2.4 -0.22,-0.7 -0.55,-1.37 -0.98,-1.97 -0.75,-0.99 -1.73,-1.77 -2.86,-2.27 -0.82,-0.37 -1.68,-0.62 -2.57,-0.75 -0.4,-0.07 -0.81,-0.1 -1.21,-0.11 -0.025,0 -0.051,0 -0.076,0 H 20.215 C 20.151,21.993 20.086,21.99 20.02,21.99 v 0 c -0.22,-0.01 -0.44,-0.03 -0.66,-0.07 -0.54,-0.07 -1.07,-0.23 -1.56,-0.45 -0.5,-0.22 -0.94,-0.56 -1.27,-0.99 -0.16,-0.23 -0.29,-0.49 -0.37,-0.76 -0.12,-0.4 -0.18,-0.82 -0.17,-1.23 -0.01,-0.42 0.05,-0.84 0.17,-1.24 0.08,-0.27 0.21,-0.53 0.37,-0.76 0.33,-0.43 0.77,-0.77 1.27,-0.99 0.49,-0.22 1.02,-0.38 1.56,-0.45 0.21,-0.04 0.43,-0.06 0.64,-0.06 h 13.99 c 0.53,0 1.04,-0.21 1.41,-0.59 0.37,-0.37 0.59,-0.88 0.59,-1.41 0,-0.53 -0.22,-1.04 -0.59,-1.42 -0.37,-0.37 -0.88,-0.58 -1.41,-0.58 h -14 c -0.01,0 -0.03,0 -0.04,0 -0.4,0 -0.81,0.04 -1.21,0.11 -0.89,0.13 -1.75,0.38 -2.57,0.75 -1.13,0.49 -2.11,1.28 -2.86,2.27 -0.43,0.6 -0.76,1.26 -0.98,1.97 -0.23,0.78 -0.35,1.58 -0.34,2.4 -0.01,0.81 0.11,1.62 0.34,2.39 0.22,0.71 0.55,1.38 0.98,1.97 0.75,0.99 1.73,1.78 2.86,2.28 0.82,0.36 1.68,0.61 2.57,0.75 0.4,0.06 0.81,0.1 1.21,0.11 0.013,0 0.026,0 0.04,0 L 20,26 Z M 13,41 v 0 c 1.104,0 2,0.896 2,2 v 0 c 0,1.104 -0.896,2 -2,2 v 0 H 8 C 5.24,45 3,42.76 3,40 v -5 0 c 0,-1.104 0.896,-2 2,-2 v 0 c 1.104,0 2,0.896 2,2 v 0 3 c 0,1.656 1.344,3 3,3 z M 41,22 v 0 c 0,-1.104 0.896,-2 2,-2 v 0 c 1.104,0 2,0.896 2,2 v 0 18 c 0,2.76 -2.24,5 -5,5 H 22 v 0 c -1.104,0 -2,-0.896 -2,-2 v 0 c 0,-1.104 0.896,-2 2,-2 v 0 h 16 c 1.656,0 3,-1.344 3,-3 z"
       inkscape:connector-curvature="0"
       style="fill:url(#_lgradient_32);fill-rule:evenodd" />
  </g>
</svg>
