<?xml version="1.0" encoding="UTF-8" standalone="no"?>
<!-- Generator: Gravit.io -->

<svg
   xmlns:dc="http://purl.org/dc/elements/1.1/"
   xmlns:cc="http://creativecommons.org/ns#"
   xmlns:rdf="http://www.w3.org/1999/02/22-rdf-syntax-ns#"
   xmlns:svg="http://www.w3.org/2000/svg"
   xmlns="http://www.w3.org/2000/svg"
   xmlns:sodipodi="http://sodipodi.sourceforge.net/DTD/sodipodi-0.dtd"
   xmlns:inkscape="http://www.inkscape.org/namespaces/inkscape"
   style="isolation:isolate"
   viewBox="0 0 36 36"
   width="48"
   height="48"
   version="1.1"
   id="svg9"
   sodipodi:docname="wps-office-wppmain.svg"
   inkscape:version="0.92.4 (5da689c313, 2019-01-14)">
  <metadata
     id="metadata15">
    <rdf:RDF>
      <cc:Work
         rdf:about="">
        <dc:format>image/svg+xml</dc:format>
        <dc:type
           rdf:resource="http://purl.org/dc/dcmitype/StillImage" />
        <dc:title></dc:title>
      </cc:Work>
    </rdf:RDF>
  </metadata>
  <defs
     id="defs13" />
  <sodipodi:namedview
     pagecolor="#ffffff"
     bordercolor="#666666"
     borderopacity="1"
     objecttolerance="10"
     gridtolerance="10"
     guidetolerance="10"
     inkscape:pageopacity="0"
     inkscape:pageshadow="2"
     inkscape:window-width="640"
     inkscape:window-height="480"
     id="namedview11"
     showgrid="false"
     inkscape:zoom="29.365243"
     inkscape:cx="25.325443"
     inkscape:cy="32"
     inkscape:current-layer="svg9"
     units="px" />
  <linearGradient
     id="_lgradient_34"
     x1="0"
     y1="0.5"
     x2="1"
     y2="0.5"
     gradientTransform="matrix(42,0,0,42,3,3)"
     gradientUnits="userSpaceOnUse">
    <stop
       offset="0%"
       stop-opacity="1"
       style="stop-color:rgb(255,153,102)"
       id="stop2" />
    <stop
       offset="98.26086956521739%"
       stop-opacity="1"
       style="stop-color:rgb(255,94,98)"
       id="stop4" />
  </linearGradient>
  <g
     id="g826"
     transform="matrix(0.85714286,0,0,0.85714286,-2.5714286,-2.5714286)">
    <path
       id="path7"
       d="m 35,7 v 0 0 h 3 v 0 c 1.656,0 3,1.344 3,3 v 3 0 c 0,1.104 0.896,2 2,2 v 0 c 1.104,0 2,-0.896 2,-2 V 13 8 C 45,5.24 42.76,3 40,3 H 38 35 V 3 3 H 8 C 5.24,3 3,5.24 3,8 v 19 0 c 0,1.104 0.896,2 2,2 v 0 c 1.104,0 2,-0.896 2,-2 V 27 10 C 7,8.344 8.344,7 10,7 Z M 16,35 c 0,0.53 -0.21,1.04 -0.58,1.41 C 15.04,36.79 14.53,37 14,37 13.47,37 12.96,36.79 12.59,36.41 12.22,36.04 12,35.53 12,35 V 22 h 15.99 c 0.21,-0.01 0.43,-0.03 0.64,-0.07 0.54,-0.07 1.07,-0.23 1.56,-0.45 0.5,-0.22 0.94,-0.56 1.27,-0.99 0.16,-0.23 0.29,-0.49 0.37,-0.76 0.12,-0.4 0.18,-0.82 0.17,-1.23 0.01,-0.42 -0.05,-0.84 -0.17,-1.24 C 31.75,16.99 31.62,16.73 31.46,16.5 31.13,16.07 30.69,15.73 30.19,15.51 29.7,15.29 29.17,15.13 28.63,15.06 28.42,15.02 28.2,15 27.99,15 H 14 C 13.47,15 12.96,14.79 12.59,14.41 12.22,14.04 12,13.53 12,13 12,12.47 12.22,11.96 12.59,11.58 12.96,11.21 13.47,11 14,11 h 14 c 0.01,0 0.03,0 0.04,0 0.4,0 0.81,0.04 1.21,0.11 0.89,0.13 1.75,0.38 2.57,0.75 1.13,0.49 2.11,1.28 2.86,2.27 0.43,0.6 0.76,1.26 0.98,1.97 0.23,0.78 0.35,1.58 0.34,2.4 0.01,0.81 -0.11,1.62 -0.34,2.39 -0.22,0.71 -0.55,1.38 -0.98,1.97 -0.75,0.99 -1.73,1.78 -2.86,2.28 -0.82,0.36 -1.68,0.61 -2.57,0.75 -0.4,0.06 -0.81,0.1 -1.21,0.11 -0.01,0 -0.03,0 -0.04,0 H 16 Z m -3,6 v 0 c 1.104,0 2,0.896 2,2 v 0 c 0,1.104 -0.896,2 -2,2 v 0 H 8 C 5.24,45 3,42.76 3,40 v -5 0 c 0,-1.104 0.896,-2 2,-2 v 0 c 1.104,0 2,0.896 2,2 v 0 3 c 0,1.656 1.344,3 3,3 z M 41,22 v 0 c 0,-1.104 0.896,-2 2,-2 v 0 c 1.104,0 2,0.896 2,2 v 0 18 c 0,2.76 -2.24,5 -5,5 H 22 v 0 c -1.104,0 -2,-0.896 -2,-2 v 0 c 0,-1.104 0.896,-2 2,-2 v 0 h 16 c 1.656,0 3,-1.344 3,-3 z"
       inkscape:connector-curvature="0"
       style="fill:url(#_lgradient_34);fill-rule:evenodd" />
  </g>
</svg>
