<?xml version="1.0" encoding="UTF-8" standalone="no"?>
<!-- Generator: Gravit.io -->

<svg
   xmlns:dc="http://purl.org/dc/elements/1.1/"
   xmlns:cc="http://creativecommons.org/ns#"
   xmlns:rdf="http://www.w3.org/1999/02/22-rdf-syntax-ns#"
   xmlns:svg="http://www.w3.org/2000/svg"
   xmlns="http://www.w3.org/2000/svg"
   xmlns:sodipodi="http://sodipodi.sourceforge.net/DTD/sodipodi-0.dtd"
   xmlns:inkscape="http://www.inkscape.org/namespaces/inkscape"
   style="isolation:isolate"
   viewBox="0 0 36 36"
   width="48"
   height="48"
   version="1.1"
   id="svg9"
   sodipodi:docname="wps-office-wpsmain.svg"
   inkscape:version="0.92.4 (5da689c313, 2019-01-14)">
  <metadata
     id="metadata15">
    <rdf:RDF>
      <cc:Work
         rdf:about="">
        <dc:format>image/svg+xml</dc:format>
        <dc:type
           rdf:resource="http://purl.org/dc/dcmitype/StillImage" />
        <dc:title></dc:title>
      </cc:Work>
    </rdf:RDF>
  </metadata>
  <defs
     id="defs13" />
  <sodipodi:namedview
     pagecolor="#ffffff"
     bordercolor="#666666"
     borderopacity="1"
     objecttolerance="10"
     gridtolerance="10"
     guidetolerance="10"
     inkscape:pageopacity="0"
     inkscape:pageshadow="2"
     inkscape:window-width="640"
     inkscape:window-height="480"
     id="namedview11"
     showgrid="false"
     inkscape:zoom="29.365243"
     inkscape:cx="25.325443"
     inkscape:cy="32"
     inkscape:current-layer="svg9"
     units="px" />
  <linearGradient
     id="_lgradient_33"
     x1="0"
     y1="0.5"
     x2="0.90748805"
     y2="0.92007786"
     gradientTransform="matrix(42,0,0,42,3,3)"
     gradientUnits="userSpaceOnUse">
    <stop
       offset="0%"
       stop-opacity="1"
       style="stop-color:rgb(0,196,255)"
       id="stop2" />
    <stop
       offset="83.88839793817618%"
       stop-opacity="1"
       style="stop-color:rgb(0,114,255)"
       id="stop4" />
  </linearGradient>
  <g
     id="g826"
     transform="matrix(0.85714286,0,0,0.85714286,-2.5714286,-2.5714286)">
    <path
       id="path7"
       d="m 35,7 v 0 0 h 3 v 0 c 1.656,0 3,1.344 3,3 v 3 0 c 0,1.104 0.896,2 2,2 v 0 c 1.104,0 2,-0.896 2,-2 V 13 8 C 45,5.24 42.76,3 40,3 H 38 35 V 3 3 H 8 C 5.24,3 3,5.24 3,8 v 19 0 c 0,1.104 0.896,2 2,2 v 0 c 1.104,0 2,-0.896 2,-2 V 27 10 C 7,8.344 8.344,7 10,7 Z M 15.071,29.362 24,18.451 32.929,29.362 V 15.915 c 0,-0.473 0.187,-0.928 0.526,-1.259 0.331,-0.339 0.786,-0.527 1.259,-0.527 0.473,0 0.929,0.188 1.259,0.527 0.34,0.331 0.527,0.786 0.527,1.259 v 15.179 c 0,0.125 -0.009,0.25 -0.036,0.366 -0.08,0.366 -0.214,0.714 -0.402,1.027 -0.482,0.848 -1.374,1.375 -2.348,1.384 -0.571,-0.009 -1.134,-0.17 -1.625,-0.474 -0.5,-0.294 -0.946,-0.651 -1.348,-1.071 -0.027,-0.036 -0.062,-0.072 -0.089,-0.098 L 24,24.094 17.348,32.228 c -0.027,0.026 -0.062,0.062 -0.089,0.098 -0.402,0.42 -0.848,0.777 -1.348,1.071 -0.491,0.304 -1.054,0.465 -1.625,0.474 C 13.312,33.862 12.42,33.335 11.937,32.487 11.75,32.174 11.616,31.826 11.536,31.46 11.509,31.344 11.5,31.219 11.5,31.094 V 15.915 c 0,-0.473 0.188,-0.928 0.527,-1.259 0.33,-0.339 0.786,-0.527 1.259,-0.527 0.473,0 0.928,0.188 1.259,0.527 0.339,0.331 0.526,0.786 0.526,1.259 z M 13,41 v 0 c 1.104,0 2,0.896 2,2 v 0 c 0,1.104 -0.896,2 -2,2 v 0 H 8 C 5.24,45 3,42.76 3,40 v -5 0 c 0,-1.104 0.896,-2 2,-2 v 0 c 1.104,0 2,0.896 2,2 v 0 3 c 0,1.656 1.344,3 3,3 z M 41,22 v 0 c 0,-1.104 0.896,-2 2,-2 v 0 c 1.104,0 2,0.896 2,2 v 0 18 c 0,2.76 -2.24,5 -5,5 H 22 v 0 c -1.104,0 -2,-0.896 -2,-2 v 0 c 0,-1.104 0.896,-2 2,-2 v 0 h 16 c 1.656,0 3,-1.344 3,-3 z"
       inkscape:connector-curvature="0"
       style="fill:url(#_lgradient_33);fill-rule:evenodd" />
  </g>
</svg>
