<?xml version="1.0" encoding="UTF-8" standalone="no"?>
<!-- Generator: Gravit.io -->

<svg
   xmlns:dc="http://purl.org/dc/elements/1.1/"
   xmlns:cc="http://creativecommons.org/ns#"
   xmlns:rdf="http://www.w3.org/1999/02/22-rdf-syntax-ns#"
   xmlns:svg="http://www.w3.org/2000/svg"
   xmlns="http://www.w3.org/2000/svg"
   xmlns:sodipodi="http://sodipodi.sourceforge.net/DTD/sodipodi-0.dtd"
   xmlns:inkscape="http://www.inkscape.org/namespaces/inkscape"
   style="isolation:isolate"
   viewBox="0 0 36 36"
   width="48"
   height="48"
   version="1.1"
   id="svg9"
   sodipodi:docname="wps-office-pdf.svg"
   inkscape:version="0.92.4 (5da689c313, 2019-01-14)">
  <metadata
     id="metadata15">
    <rdf:RDF>
      <cc:Work
         rdf:about="">
        <dc:format>image/svg+xml</dc:format>
        <dc:type
           rdf:resource="http://purl.org/dc/dcmitype/StillImage" />
        <dc:title></dc:title>
      </cc:Work>
    </rdf:RDF>
  </metadata>
  <defs
     id="defs13" />
  <sodipodi:namedview
     pagecolor="#ffffff"
     bordercolor="#666666"
     borderopacity="1"
     objecttolerance="10"
     gridtolerance="10"
     guidetolerance="10"
     inkscape:pageopacity="0"
     inkscape:pageshadow="2"
     inkscape:window-width="640"
     inkscape:window-height="480"
     id="namedview11"
     showgrid="false"
     inkscape:zoom="29.365243"
     inkscape:cx="25.325443"
     inkscape:cy="32"
     inkscape:current-layer="svg9"
     units="px" />
  <linearGradient
     id="_lgradient_91"
     x1="0"
     y1="0.5"
     x2="1"
     y2="0.5"
     gradientTransform="matrix(42,0,0,42,3,3)"
     gradientUnits="userSpaceOnUse">
    <stop
       offset="0%"
       stop-opacity="1"
       style="stop-color:rgb(238,205,163)"
       id="stop2" />
    <stop
       offset="98.26086956521739%"
       stop-opacity="1"
       style="stop-color:rgb(239,98,159)"
       id="stop4" />
  </linearGradient>
  <g
     id="g826"
     transform="matrix(0.85714286,0,0,0.85714286,-2.5714286,-2.5714286)">
    <path
       id="path7"
       d="M 34.5,3.067 C 34.342,3.022 34.174,3 34,3 V 3 H 8 C 5.24,3 3,5.24 3,8 v 19 0 c 0,1.104 0.896,2 2,2 v 0 c 1.104,0 2,-0.896 2,-2 v 0 0 0 -17 C 7,8.344 8.344,7 10,7 H 34 V 7 C 34.174,7 34.342,6.978 34.5,6.933 34.658,6.978 34.826,7 35,7 v 0 h 3 c 1.656,0 3,1.344 3,3 v 3 0 c 0,1.104 0.896,2 2,2 v 0 c 1.104,0 2,-0.896 2,-2 V 13 8 C 45,5.24 42.76,3 40,3 H 35 V 3 C 34.826,3 34.658,3.022 34.5,3.067 Z M 13,41 v 0 c 1.104,0 2,0.896 2,2 v 0 c 0,1.104 -0.896,2 -2,2 v 0 H 8 C 5.24,45 3,42.76 3,40 v -5 0 c 0,-1.104 0.896,-2 2,-2 v 0 c 1.104,0 2,0.896 2,2 v 0 3 c 0,1.656 1.344,3 3,3 z M 41,22 v 0 c 0,-1.104 0.896,-2 2,-2 v 0 c 1.104,0 2,0.896 2,2 v 0 18 c 0,2.76 -2.24,5 -5,5 H 22 v 0 c -1.104,0 -2,-0.896 -2,-2 v 0 c 0,-1.104 0.896,-2 2,-2 v 0 h 16 c 1.656,0 3,-1.344 3,-3 z m -20.445,8.004 v 0 c 0,-0.95 0.772,-1.722 1.723,-1.722 v 0 c 0.95,0 1.722,0.772 1.722,1.722 v 0 6.028 c 0,0.439 -0.164,0.852 -0.465,1.171 -0.293,0.318 -0.706,0.517 -1.137,0.551 -0.62,0.043 -1.248,0.052 -1.868,0.043 C 20.013,37.78 19.505,37.745 18.988,37.668 18.411,37.59 17.843,37.461 17.283,37.28 16.801,37.134 16.336,36.927 15.897,36.678 15.415,36.402 14.976,36.066 14.588,35.679 14.201,35.3 13.882,34.861 13.624,34.387 c -0.276,-0.499 -0.482,-1.042 -0.603,-1.593 -0.146,-0.637 -0.215,-1.283 -0.215,-1.929 0,-0.645 0.069,-1.3 0.215,-1.928 0.129,-0.56 0.327,-1.102 0.603,-1.611 0.267,-0.473 0.594,-0.904 0.973,-1.291 0.396,-0.388 0.835,-0.723 1.326,-0.999 0.422,-0.241 0.87,-0.439 1.335,-0.585 0.542,-0.173 1.093,-0.293 1.644,-0.379 0.525,-0.078 1.051,-0.121 1.576,-0.129 0.62,-0.018 1.24,-0.009 1.86,0.034 h 5.95 c 0.181,0 0.353,-0.026 0.525,-0.06 0.172,-0.035 0.344,-0.078 0.508,-0.147 0.207,-0.077 0.405,-0.181 0.594,-0.301 0.164,-0.103 0.319,-0.215 0.465,-0.344 0.147,-0.13 0.276,-0.267 0.388,-0.422 0.129,-0.164 0.241,-0.336 0.335,-0.517 0.207,-0.388 0.362,-0.801 0.448,-1.231 0.138,-0.698 0.207,-1.412 0.198,-2.127 C 31.741,18.148 31.655,17.467 31.5,16.813 31.388,16.357 31.215,15.935 30.983,15.53 30.785,15.186 30.535,14.876 30.242,14.609 29.924,14.307 29.562,14.058 29.175,13.86 29.037,13.791 28.891,13.739 28.736,13.713 28.589,13.67 28.443,13.644 28.288,13.644 H 24 v 6.889 0 c 0,0.95 -0.772,1.722 -1.722,1.722 v 0 c -0.951,0 -1.723,-0.772 -1.723,-1.722 v 0 -8.611 c 0,-0.95 0.772,-1.722 1.723,-1.722 h 6.027 c 0.009,0 0.017,0 0.034,0 0.405,0.009 0.81,0.06 1.197,0.164 0.405,0.086 0.793,0.223 1.163,0.404 0.689,0.345 1.326,0.784 1.885,1.309 0.543,0.508 1.008,1.085 1.378,1.722 0.405,0.689 0.698,1.43 0.887,2.205 0.215,0.912 0.336,1.851 0.344,2.789 0.009,0.956 -0.077,1.903 -0.266,2.842 -0.155,0.758 -0.414,1.49 -0.784,2.17 -0.189,0.353 -0.405,0.697 -0.654,1.016 -0.241,0.31 -0.508,0.594 -0.801,0.861 -0.302,0.267 -0.62,0.508 -0.965,0.715 -0.353,0.223 -0.731,0.413 -1.119,0.576 -0.362,0.138 -0.74,0.25 -1.128,0.319 -0.37,0.078 -0.758,0.121 -1.145,0.129 -0.009,0 -0.017,0 -0.026,0 h -6.027 c -0.043,0 -0.078,0 -0.121,0 -0.534,-0.043 -1.059,-0.051 -1.593,-0.043 -0.387,0.017 -0.775,0.043 -1.154,0.103 -0.379,0.052 -0.749,0.138 -1.102,0.25 -0.241,0.078 -0.473,0.181 -0.697,0.31 -0.216,0.121 -0.405,0.267 -0.586,0.439 -0.146,0.147 -0.275,0.319 -0.379,0.508 -0.12,0.216 -0.206,0.457 -0.267,0.698 -0.086,0.387 -0.129,0.783 -0.129,1.179 0,0.397 0.043,0.784 0.129,1.172 0.052,0.249 0.147,0.482 0.267,0.706 0.095,0.18 0.224,0.353 0.379,0.499 0.172,0.172 0.362,0.327 0.577,0.448 0.224,0.129 0.465,0.232 0.715,0.31 0.379,0.12 0.757,0.206 1.154,0.258 0.361,0.052 0.723,0.078 1.084,0.095 z"
       inkscape:connector-curvature="0"
       style="fill:url(#_lgradient_91);fill-rule:evenodd" />
  </g>
</svg>
