<?xml version="1.0" encoding="UTF-8" standalone="no"?>
<!-- Generator: Gravit.io -->

<svg
   xmlns:dc="http://purl.org/dc/elements/1.1/"
   xmlns:cc="http://creativecommons.org/ns#"
   xmlns:rdf="http://www.w3.org/1999/02/22-rdf-syntax-ns#"
   xmlns:svg="http://www.w3.org/2000/svg"
   xmlns="http://www.w3.org/2000/svg"
   xmlns:sodipodi="http://sodipodi.sourceforge.net/DTD/sodipodi-0.dtd"
   xmlns:inkscape="http://www.inkscape.org/namespaces/inkscape"
   style="isolation:isolate"
   viewBox="0 0 36 36"
   width="48"
   height="48"
   version="1.1"
   id="svg9"
   sodipodi:docname="xchat.svg"
   inkscape:version="0.92.4 (5da689c313, 2019-01-14)">
  <metadata
     id="metadata15">
    <rdf:RDF>
      <cc:Work
         rdf:about="">
        <dc:format>image/svg+xml</dc:format>
        <dc:type
           rdf:resource="http://purl.org/dc/dcmitype/StillImage" />
        <dc:title></dc:title>
      </cc:Work>
    </rdf:RDF>
  </metadata>
  <defs
     id="defs13" />
  <sodipodi:namedview
     pagecolor="#ffffff"
     bordercolor="#666666"
     borderopacity="1"
     objecttolerance="10"
     gridtolerance="10"
     guidetolerance="10"
     inkscape:pageopacity="0"
     inkscape:pageshadow="2"
     inkscape:window-width="640"
     inkscape:window-height="480"
     id="namedview11"
     showgrid="false"
     inkscape:zoom="29.365243"
     inkscape:cx="25.325443"
     inkscape:cy="32"
     inkscape:current-layer="svg9"
     units="px" />
  <linearGradient
     id="_lgradient_11"
     x1="0"
     y1="0.5"
     x2="1"
     y2="0.5"
     gradientTransform="matrix(45.874,0,0,42,1.063,3)"
     gradientUnits="userSpaceOnUse">
    <stop
       offset="0%"
       stop-opacity="1"
       style="stop-color:rgb(255,229,59)"
       id="stop2" />
    <stop
       offset="98.69565217391305%"
       stop-opacity="1"
       style="stop-color:rgb(255,0,91)"
       id="stop4" />
  </linearGradient>
  <g
     id="g826"
     transform="matrix(0.78476206,0,0,0.78476206,-0.83419006,-0.83428944)">
    <path
       id="path7"
       d="m 29.801,10.95 v 0 c 0.574,-0.938 1.804,-1.232 2.745,-0.655 v 0 c 0.941,0.577 1.235,1.811 0.655,2.755 v 0 l -7.967,12.945 c -0.868,1.41 -2.379,1.479 -3.372,0.155 l -9.521,-12.7 c -0.331,-0.441 -0.819,-0.409 -1.09,0.072 l -5.97,10.616 c -0.27,0.481 -0.275,1.265 -0.011,1.75 l 4.991,9.152 v 0 c 0.525,0.971 0.164,2.188 -0.805,2.715 v 0 C 8.488,38.282 7.271,37.926 6.741,36.96 v 0 L 1.648,27.624 C 0.855,26.17 0.87,23.818 1.682,22.375 L 9.79,7.965 c 0.812,-1.443 2.278,-1.54 3.272,-0.215 l 9.679,12.9 c 0.331,0.442 0.835,0.418 1.124,-0.052 z M 26.501,41 v 0 c 1.104,0 2,0.896 2,2 v 0 c 0,1.104 -0.896,2 -2,2 v 0 h -12.11 c -1.656,0 -2.443,-1.224 -1.758,-2.731 L 17.681,31.17 v 0 c 0.458,-1.004 1.646,-1.448 2.65,-0.99 v 0 c 1.005,0.458 1.448,1.646 0.99,2.65 v 0 l -3.296,7.259 C 17.796,40.592 18.059,41 18.611,41 Z m -8,-34 v 0 c -1.104,0 -2,-0.896 -2,-2 v 0 c 0,-1.104 0.896,-2 2,-2 v 0 h 15.24 c 1.656,0 3.601,1.203 4.341,2.684 l 8.349,16.712 c 0.739,1.481 0.659,3.843 -0.18,5.27 l -9.08,15.448 c -0.839,1.427 -2.291,1.485 -3.241,0.129 L 26.861,33.15 v 0 c -0.635,-0.905 -0.415,-2.155 0.49,-2.79 v 0 c 0.905,-0.635 2.155,-0.415 2.79,0.49 v 0 l 4.637,6.631 c 0.316,0.452 0.801,0.433 1.081,-0.043 l 6.865,-11.656 c 0.28,-0.476 0.307,-1.263 0.06,-1.756 L 34.709,7.894 C 34.462,7.401 33.813,7 33.261,7 Z"
       style="fill:url(#_lgradient_11);fill-rule:evenodd"
       inkscape:connector-curvature="0" />
  </g>
</svg>
