<?xml version="1.0" encoding="UTF-8" standalone="no"?>
<!-- Generator: Gravit.io -->

<svg
   xmlns:dc="http://purl.org/dc/elements/1.1/"
   xmlns:cc="http://creativecommons.org/ns#"
   xmlns:rdf="http://www.w3.org/1999/02/22-rdf-syntax-ns#"
   xmlns:svg="http://www.w3.org/2000/svg"
   xmlns="http://www.w3.org/2000/svg"
   xmlns:sodipodi="http://sodipodi.sourceforge.net/DTD/sodipodi-0.dtd"
   xmlns:inkscape="http://www.inkscape.org/namespaces/inkscape"
   style="isolation:isolate"
   viewBox="0 0 36 36"
   width="48"
   height="48"
   version="1.1"
   id="svg11"
   sodipodi:docname="Zoom.svg"
   inkscape:version="0.92.4 (5da689c313, 2019-01-14)">
  <metadata
     id="metadata17">
    <rdf:RDF>
      <cc:Work
         rdf:about="">
        <dc:format>image/svg+xml</dc:format>
        <dc:type
           rdf:resource="http://purl.org/dc/dcmitype/StillImage" />
        <dc:title></dc:title>
      </cc:Work>
    </rdf:RDF>
  </metadata>
  <defs
     id="defs15" />
  <sodipodi:namedview
     pagecolor="#ffffff"
     bordercolor="#666666"
     borderopacity="1"
     objecttolerance="10"
     gridtolerance="10"
     guidetolerance="10"
     inkscape:pageopacity="0"
     inkscape:pageshadow="2"
     inkscape:window-width="640"
     inkscape:window-height="480"
     id="namedview13"
     showgrid="false"
     inkscape:zoom="29.365243"
     inkscape:cx="25.325443"
     inkscape:cy="32"
     inkscape:current-layer="svg11"
     units="px" />
  <linearGradient
     id="_lgradient_6"
     x1="0"
     y1="0.5"
     x2="1"
     y2="0.5"
     gradientTransform="matrix(48,0,0,-28.297,0,38.149)"
     gradientUnits="userSpaceOnUse">
    <stop
       offset="0%"
       stop-opacity="1"
       style="stop-color:rgb(84,51,255)"
       id="stop2" />
    <stop
       offset="51.73913043478261%"
       stop-opacity="1"
       style="stop-color:rgb(32,189,255)"
       id="stop4" />
    <stop
       offset="98.26086956521739%"
       stop-opacity="1"
       style="stop-color:rgb(165,254,203)"
       id="stop6" />
  </linearGradient>
  <g
     id="g825"
     transform="scale(0.75)">
    <path
       id="path9"
       d="m 35.943,30.857 v 3.863 c 0,1.892 -1.536,3.429 -3.429,3.429 H 5.823 v 0 c -1.262,0 -2.286,-1.025 -2.286,-2.286 v 0 c 0,-1.262 1.024,-2.286 2.286,-2.286 v 0 h 24.406 c 0.63,0 1.142,-0.512 1.142,-1.143 V 15.566 c 0,-0.631 -0.512,-1.143 -1.142,-1.143 H 5.714 c -0.63,0 -1.143,0.512 -1.143,1.143 v 12.263 0 c 0,1.261 -1.024,2.285 -2.285,2.285 v 0 C 1.024,30.114 0,29.09 0,27.829 v 0 V 13.28 C 0,11.388 1.536,9.851 3.429,9.851 h 29.085 c 1.893,0 3.429,1.537 3.429,3.429 v 3.863 0 l 4.606,-4.606 c 0.851,-0.851 2.52,-1.543 3.724,-1.543 h 1.545 c 1.204,0 2.182,0.978 2.182,2.182 v 21.648 c 0,1.204 -0.978,2.182 -2.182,2.182 h -1.545 c -1.204,0 -2.873,-0.692 -3.724,-1.543 z m 0,-6.457 v -0.8 l 0.663,-0.663 5.28,-5.28 c 0.851,-0.851 1.543,-0.565 1.543,0.639 v 0 11.408 c 0,1.204 -0.692,1.49 -1.543,0.639 l -5.28,-5.28 z"
       inkscape:connector-curvature="0"
       style="fill:url(#_lgradient_6);fill-rule:evenodd" />
  </g>
</svg>
