<?xml version="1.0" encoding="UTF-8" standalone="no"?>
<!-- Generator: Gravit.io -->

<svg
   xmlns:dc="http://purl.org/dc/elements/1.1/"
   xmlns:cc="http://creativecommons.org/ns#"
   xmlns:rdf="http://www.w3.org/1999/02/22-rdf-syntax-ns#"
   xmlns:svg="http://www.w3.org/2000/svg"
   xmlns="http://www.w3.org/2000/svg"
   xmlns:sodipodi="http://sodipodi.sourceforge.net/DTD/sodipodi-0.dtd"
   xmlns:inkscape="http://www.inkscape.org/namespaces/inkscape"
   style="isolation:isolate"
   viewBox="0 0 36 36"
   width="48"
   height="48"
   version="1.1"
   id="svg11"
   sodipodi:docname="zotero.svg"
   inkscape:version="0.92.4 (5da689c313, 2019-01-14)">
  <metadata
     id="metadata17">
    <rdf:RDF>
      <cc:Work
         rdf:about="">
        <dc:format>image/svg+xml</dc:format>
        <dc:type
           rdf:resource="http://purl.org/dc/dcmitype/StillImage" />
        <dc:title></dc:title>
      </cc:Work>
    </rdf:RDF>
  </metadata>
  <defs
     id="defs15" />
  <sodipodi:namedview
     pagecolor="#ffffff"
     bordercolor="#666666"
     borderopacity="1"
     objecttolerance="10"
     gridtolerance="10"
     guidetolerance="10"
     inkscape:pageopacity="0"
     inkscape:pageshadow="2"
     inkscape:window-width="640"
     inkscape:window-height="480"
     id="namedview13"
     showgrid="false"
     units="px"
     inkscape:zoom="82.518609"
     inkscape:cx="27.902286"
     inkscape:cy="32.191388"
     inkscape:current-layer="svg11" />
  <linearGradient
     id="_lgradient_59"
     x1="-0.014458464"
     y1="0.009839246"
     x2="1.0164566"
     y2="1.072293"
     gradientTransform="matrix(46.419843,0,0,47.999506,0.790079,-3.6317545e-4)"
     gradientUnits="userSpaceOnUse">
    <stop
       offset="0%"
       stop-opacity="1"
       style="stop-color:rgb(249,212,35)"
       id="stop2" />
    <stop
       offset="51.56237565086822%"
       stop-opacity="1"
       style="stop-color:rgb(255,78,80)"
       id="stop4" />
    <stop
       offset="99.1304347826087%"
       stop-opacity="1"
       style="stop-color:rgb(138,35,135)"
       id="stop6" />
  </linearGradient>
  <g
     id="g820"
     transform="scale(0.75)">
    <path
       style="fill:url(#_lgradient_59);fill-rule:evenodd;stroke-width:1.06950772"
       inkscape:connector-curvature="0"
       id="path9"
       d="m 11.697988,11.706468 v 0 C 10.688373,12.431594 9.28197,12.20272 8.560052,11.196313 v 0 C 7.8392042,10.188837 8.0723569,8.7835035 9.081972,8.0583772 v 0 l 12.90361,-7.58280948 c 1.067369,-0.627801 2.806389,-0.6352876 3.879105,-0.014973 L 45.265556,11.661549 c 1.073786,0.619245 1.944365,2.12832 1.944365,3.36681 v 20.282144 c 0,1.23849 -0.873787,2.743287 -1.949712,3.357185 l -15.888606,9.066216 c -1.075925,0.613898 -2.162545,0.129411 -2.424574,-1.081272 l -0.172191,-0.797853 c -0.262029,-1.210682 0.394648,-2.699437 1.466295,-3.321891 L 42.720128,34.120141 V 15.377019 L 24.189838,4.680872 Z m 6.163573,29.518413 v 0 c 1.058812,0.643843 1.401055,2.027786 0.763628,3.086599 v 0 c -0.638496,1.058812 -2.016022,1.401055 -3.075904,0.763628 v 0 L 2.7504866,37.940422 C 1.6692143,37.33722 0.790079,35.842048 0.790079,34.602489 V 18.41442 c 0,-1.238489 1.0053372,-2.262008 2.2448966,-2.283398 v 0 c 1.23849,-0.02246 2.2448967,0.965765 2.2448967,2.205324 V 34.322278 Z M 17.638034,18.123514 v 0 c -1.180737,0 -2.139016,-0.958279 -2.139016,-2.139015 v 0 c 0,-1.180737 0.958279,-2.139015 2.139016,-2.139015 v 0 h 15.144229 c 1.180736,0 1.540091,0.748655 0.8032,1.670571 L 22.087186,29.888099 h 8.38494 v 0 c 1.180736,0 2.139015,0.958279 2.139015,2.139015 v 0 c 0,1.180737 -0.958279,2.139016 -2.139015,2.139016 v 0 H 15.327897 c -1.180736,0 -1.540091,-0.748656 -0.8032,-1.670571 L 26.022974,18.123514 Z" />
  </g>
</svg>
