#define image_width  14
#define image_height 14
static unsigned char image_bits[] = {
 0xe0,0xc1,0xf8,0xc7,0xfc,0xcf,0xe6,0xd9,0xc6,0xd8,0x0f,0xfc,
 0x1f,0xfe,0x1f,0xfe,0x0f,0xfc,0xc6,0xd8,0xe6,0xd9,0xfc,0xcf,
 0xf8,0xc7,0xe0,0xc1};
