#define image_width  14
#define image_height 14
static unsigned char image_bits[] = {
 0xe0,0xc1,0xf8,0xc7,0xfc,0xcf,0xfe,0xdf,0xfe,0xdf,0xff,0xff,
 0xff,0xff,0xff,0xff,0xff,0xff,0xfe,0xdf,0xfe,0xdf,0xfc,0xcf,
 0xf8,0xc7,0xe0,0xc1};
