#define image_width  14
#define image_height 14
static unsigned char image_bits[] = {
 0xe0,0xc1,0xf8,0xc7,0xfc,0xcf,0x1e,0xd8,0x3e,0xd8,0x77,0xf8,
 0xe7,0xf8,0xc7,0xf9,0x87,0xfb,0x06,0xdf,0x06,0xde,0xfc,0xcf,
 0xf8,0xc7,0xe0,0xc1};
