#define image_width  14
#define image_height 14
static unsigned char image_bits[] = {
 0xe0,0xc1,0xf8,0xc7,0xfc,0xcf,0xfe,0xdf,0x0e,0xdc,0x0f,0xfc,
 0x0f,0xfc,0x0f,0xfc,0x0f,0xfc,0x0e,0xdc,0xfe,0xdf,0xfc,0xcf,
 0xf8,0xc7,0xe0,0xc1};
