#define image_width  14
#define image_height 14
static unsigned char image_bits[] = {
 0x00,0xc0,0x00,0xc0,0x00,0xc0,0x00,0xc0,0x00,0xc0,0xc0,0xc0,
 0xe0,0xc1,0xf0,0xc3,0xf8,0xc7,0x00,0xc0,0x00,0xc0,0x00,0xc0,
 0x00,0xc0,0x00,0xc0};
